G04*
G04 #@! TF.GenerationSoftware,Altium Limited,Altium Designer,19.0.11 (319)*
G04*
G04 Layer_Color=16711935*
%FSLAX44Y44*%
%MOMM*%
G71*
G01*
G75*
%ADD32C,0.5000*%
%ADD61R,0.6932X0.9632*%
%ADD62R,0.3832X0.6832*%
%ADD64C,0.7032*%
%ADD85O,2.7032X1.9532*%
%ADD86C,1.7032*%
%ADD87R,1.7032X1.7032*%
%ADD88C,2.2032*%
%ADD89O,1.1032X1.8032*%
D32*
X106250Y495500D02*
D03*
Y465900D02*
D03*
X36500Y495500D02*
D03*
Y465900D02*
D03*
D61*
X125800Y432000D02*
D03*
X74200D02*
D03*
X350800Y72000D02*
D03*
X299200D02*
D03*
X524200Y432000D02*
D03*
X575800D02*
D03*
D62*
X107000Y421400D02*
D03*
Y442600D02*
D03*
X103500Y421400D02*
D03*
Y442600D02*
D03*
X100000Y421400D02*
D03*
Y442600D02*
D03*
X96500Y421400D02*
D03*
Y442600D02*
D03*
X93000Y421400D02*
D03*
Y442600D02*
D03*
X332000Y61400D02*
D03*
Y82600D02*
D03*
X328500Y61400D02*
D03*
Y82600D02*
D03*
X325000Y61400D02*
D03*
Y82600D02*
D03*
X321500Y61400D02*
D03*
Y82600D02*
D03*
X318000Y61400D02*
D03*
Y82600D02*
D03*
X543000Y442600D02*
D03*
Y421400D02*
D03*
X546500Y442600D02*
D03*
Y421400D02*
D03*
X550000Y442600D02*
D03*
Y421400D02*
D03*
X553500Y442600D02*
D03*
Y421400D02*
D03*
X557000Y442600D02*
D03*
Y421400D02*
D03*
D64*
X352750Y456250D02*
D03*
X362750D02*
D03*
X372750D02*
D03*
X352750Y446250D02*
D03*
X362750D02*
D03*
X372750D02*
D03*
X352750Y436250D02*
D03*
X362750D02*
D03*
X372750D02*
D03*
X352750Y426250D02*
D03*
X362750D02*
D03*
X372750D02*
D03*
D85*
X29250Y203500D02*
D03*
Y228500D02*
D03*
Y122750D02*
D03*
Y147750D02*
D03*
D86*
X612300Y175300D02*
D03*
Y200700D02*
D03*
Y226100D02*
D03*
Y251500D02*
D03*
Y276900D02*
D03*
Y302300D02*
D03*
Y327700D02*
D03*
Y353100D02*
D03*
Y378500D02*
D03*
Y403900D02*
D03*
Y429050D02*
D03*
Y454700D02*
D03*
X637700Y302300D02*
D03*
Y276900D02*
D03*
Y251500D02*
D03*
Y226100D02*
D03*
Y175300D02*
D03*
Y200700D02*
D03*
Y429300D02*
D03*
Y403900D02*
D03*
Y378500D02*
D03*
Y353100D02*
D03*
Y327700D02*
D03*
D87*
Y454700D02*
D03*
D88*
X629750Y150000D02*
D03*
X429750Y480000D02*
D03*
D89*
X77000Y16250D02*
D03*
X11000D02*
D03*
M02*
