M48
;Layer_Color=9474304
;FILE_FORMAT=4:4
METRIC,LZ
;TYPE=PLATED
T1F00S00C0.2000
T2F00S00C0.3000
T3F00S00C0.3000
T4F00S00C0.4000
T5F00S00C0.5000
T6F00S00C0.7112
T7F00S00C0.9000
T8F00S00C1.0200
T9F00S00C1.1000
T10F00S00C1.3000
T11F00S00C1.6000
T12F00S00C3.2500
T13F00S00C6.0000
T14F00S00C9.6000
%
T01
X-0047119Y-0058677
X-0012119
X-0007119
X-0002119
X0002881
X0007881
X0012881
X0017881
X0022881
X0027881
X0032881
X0037881
X0042881
X0047881
X0052881
X0057881
X0062881
X0065381Y-0053677
X0067881Y-0048677
X0072881
Y-0038677
X0067881
X0070381Y-0033677
X0072881Y-0028677
X0067881
X0070381Y-0023677
X0065381
X0067881Y-0018677
X0072881
X0053025Y-0030275
X0052881Y-0048677
X0065381Y-0043677
X00462038Y-0038225
X0045875Y-00322
X00472799Y-002945
X0047225Y-00276474
X004833Y-002832
X00493511Y-00274
X0049525Y-00293
X0047475Y-00255
X004785Y-0022375
X00509934Y-00220775
X00427409Y-00238458
X0040381Y-0023677
X0041525Y-002695
X004165Y-0028525
X0041775Y-00301
X0040381Y-0033677
X0035381
X0030381
X0025381
X0020381
X0015381
X0017881Y-0028677
X0022881
X0027881
X0032881
X0033Y-00249
X003165Y-0024825
X00299Y-002495
X00295Y-00245
X00288Y-002375
X00282
X00276
X0027
X0020381Y-0023677
X0015381
X0017881Y-0038677
X0022881
X0027881
X0030381Y-0043677
X0035381
X0037881Y-0038677
Y-0028677
X0035381Y-0023677
X0037881Y-0018677
X0042881
X0037881Y-0048677
X0032881
X0027881
X0030381Y-0053677
X0035381
X0025381
X0020381
X0015381
X0017881Y-0048677
X0020381Y-0043677
X0025381
X0015381
X0050381Y-0053677
X0010381
X0005381
X0000381
X-0004619
X-0009619
X-00151434Y-0050795
X-0023345Y-0048645
X-0020575Y-0041345
X-0019619Y-0033677
X-0014619
X-0009619
X-0004619
X0000381
X0005381
X0010381
X0012881Y-0028677
X0007881
X0002881
X-0002119
X-0007119
X-0012119
X-0009619Y-0023677
X-0004619
X0000381
X0005381
X0010381
X0012881Y-0038677
X0007881
X0002881
X-0002119
X-0007119
X0000381Y-0043677
X0005381
X0010381
X0012881Y-0048677
X0007881
X0002881
X-0002119
X-0024619Y-0033677
X-0032119Y-0028677
X-0037119
X-0039619Y-0033677
X-0044619
X-0042119Y-0038677
X-0037119
X-0039619Y-0043677
X-0044619
X-0042119Y-0048677
X-0044619Y-0053677
X-00319651Y-005215
X-0031975Y-005075
X-00319771Y-00494
X-002815Y-0046125
X-0027119Y-0018677
X-0032119
X-0037119
X-0051675Y-0023325
X-005235Y-0023275
X-0053Y-00232
X-0053125Y-00239
X-005245Y-0024
X-0052548Y-002465
X-0052625Y-0025325
X-00534Y-002525
X-005327Y-00246
X-005175Y-0024675
X-00517246Y-0024025
X-005185Y-00254
X-0047875Y-0028325
X-0057119Y-0018677
X-0062119
X-0064619Y-0023677
Y-0043677
X-0062119Y-0048677
X-0067119
X-0072119
Y-0038677
X-0067119
X-0069619Y-0033677
X-0067119Y-0028677
X-0072119
X-0069619Y-0023677
X-0067119Y-0018677
X-0072119
X-0069619Y-0013677
X-0067119Y-0008677
X-0072119
X-0069619Y-0003677
X-0067119Y0001323
X-0072119
X-0069619Y0006323
X-0067119Y0011323
X-0072119
X-0069619Y0016323
X-0067119Y0021323
X-0072119
X-0062119
X-0057119
X-0052119
X-0047119
X-0042119
X-0037119
X-0032119
X-0027119
X-0029619Y0016323
X-0034619
X-0039619
X-0044619
X-0049619
X-0054619
X-0059619
X-0057119Y0011323
X-0052119
X-0047119
X-0042119
X-0037119
X-0032119
X-0027119
X-0034619Y0006323
X-0039619
X-0044619
X-0049619
X-0054619
X-0059619
X-0064619
X-0062119Y0011323
Y0001323
X-0057119
X-0052119
X-0047119
X-0042119
X-0037119
X-0034619Y-0003677
X-0039619
X-0044619
X-0049619
X-0054619
X-0059619
X-0064619
X-0062119Y-0008677
X-0057119
X-0052119
X-0047119
X-0044619Y-0013677
X-0039619
X-0034619
X-0029619
X-0027119Y-0008677
X-0032119
X-0037119
X-0049619Y-0013677
X-0054619
X-0059619
X-0064619
X-0019619
X-0017119Y-0008677
X-0012119
X-0007119
X-0002119
X0002881
X0005381Y-0003677
X0010381
X0012881Y0001323
X0010381Y0006323
X0005381
X0000381
X-0004619
X-0009619
X-0014619
X-0019619
X-0017119Y0011323
X-0012119
X-0007119
X-0002119
X-0004619Y0016323
X-0009619
X-0014619
X-0019619
X-0024619
X-0022119Y0021323
X-0017119
X-0012119
X-0007119
X-0002119
X0002881
X0007881
X0012881
X0010381Y0016323
X0012881Y0011323
Y-0008677
X0010381Y-0013677
X0005381
X0000381
X-0004619
X-0009619
Y-0003677
X-0004619
X0000381
X0002881Y0001323
X-0002119
X-0007119
X-0012119
X-0019619Y-0003677
X0015381
X0020381
X0025381
X0030381
X0035381
X0040381
X0045381
X0050381
X0047881Y0001323
X0042881
X0037881
X0032881
X0027881
X0022881
X0017881
X0020381Y0006323
X0025381
X0030381
X0035381
X0040381
X0045381
X0050381
X0047881Y0011323
X0042881
X0037881
X0032881
X0027881
X0022881
X0017881
X0020381Y0016323
X0025381
X0030381
X0035381
X0040381
X0045381
X0050381
X0047881Y0021323
X0042881
X0037881
X0032881
X0027881
X0022881
X0017881
X0015381Y0016323
Y0006323
X0017881Y-0008677
X0022881
X0027881
X0032881
X0037881
X0042881
X0047881
X0050381Y-0013677
X0045381
X0040381
X0035381
X0030381
X0025381
X0020381
X0015381
X0052881Y-0008677
X0057881
X0062881
X0067881
X0072881
X0070381Y-0003677
X0065381
X0060381
X0055381
X0057881Y0001323
X0062881
X0067881
X0072881
X0070381Y0006323
X0065381
X0060381
X0055381
X0057881Y0011323
X0062881
X0067881
X0072881
X0070381Y0016323
X0072881Y0021323
X0067881
X0062881
X0057881
X0052881
X0055381Y0016323
X0060381
X0052881Y0011323
Y0001323
X0060381Y-0013677
X0065381
X0070381
T02
X0047825Y-00354
X0048825Y-0035925
X0050625Y-0035175
X0051225Y-00357
X-0057475Y-0040125
T03
X005695Y-0041875
X00559Y-0026875
X0055875Y-00259
X00517Y-0026775
X00516775Y-00275263
X00518275Y-00282764
X00517525Y-00290264
X004995Y-00423
X00473898Y-0042975
X0044175Y-0042925
X003155Y-00241
X00285Y-0019925
X00272Y-001975
X-004095Y-002865
T04
X00322Y-0022675
X0032825
X0033425
Y-0020725
X0032825
X00322
T05
X-00151Y-0022275
Y-0021125
X00074Y0013775
Y0014925
T06
X-00606Y-004745
X-006015Y-004015
T07
X-002537Y-002392
X-002283
Y-0021355
Y-001884
Y-00163
X-002537
Y-001884
Y-002138
Y-001376
X-002283
Y-001122
Y-000868
Y-000614
Y-00036
Y-000106
Y000148
Y000402
X-002537
Y000148
Y-000106
Y-00036
Y-000614
Y-000868
Y-001122
T08
T09
X-00569352Y-00563843
X-00544048Y-00566057
X-00482038Y-00571178
X-004567Y-0057295
X-00431362Y-00574722
X-00364758Y-00578905
X-00339386Y-00580102
X-00314014Y-00581298
X-00288642Y-00582495
X-00214792Y-00585902
X-00189397Y-00586434
X-00164003Y-00586966
X-00138608Y-00587498
T10
T11
T12
T13
X0065774Y-0034074
X-0064226
Y0016926
X0065774
X-0064226Y0067926
X0065774
Y0118926
X-0064226
T14
X0070524Y0042426
X-0068976
M30
