G04*
G04 #@! TF.GenerationSoftware,Altium Limited,Altium Designer,19.0.11 (319)*
G04*
G04 Layer_Color=16711935*
%FSLAX44Y44*%
%MOMM*%
G71*
G01*
G75*
%ADD10C,0.2000*%
%ADD12C,0.1000*%
%ADD16C,0.1520*%
D10*
X5500Y179000D02*
X63000D01*
Y253000D01*
X5500D02*
X63000D01*
X5500Y179000D02*
Y253000D01*
Y98250D02*
X63000D01*
Y172250D01*
X5500D02*
X63000D01*
X5500Y98250D02*
Y172250D01*
X73750Y443500D02*
X126250D01*
X73750Y420500D02*
Y443500D01*
Y420500D02*
X126250D01*
Y443500D01*
X556000Y465500D02*
Y488500D01*
X503500D02*
X556000D01*
X503500Y465500D02*
Y488500D01*
Y465500D02*
X556000D01*
Y141250D02*
Y164250D01*
X503500D02*
X556000D01*
X503500Y141250D02*
Y164250D01*
Y141250D02*
X556000D01*
X389000Y12000D02*
X644000D01*
Y62000D01*
X389000D02*
X644000D01*
X389000Y12000D02*
Y62000D01*
X211500Y11750D02*
X376500D01*
Y53750D01*
X211500D02*
X376500D01*
X211500Y11750D02*
Y53750D01*
X89750Y90000D02*
Y144500D01*
Y90000D02*
X203750D01*
Y144500D01*
X89750D02*
X203750D01*
X298750Y83500D02*
X351250D01*
X298750Y60500D02*
Y83500D01*
Y60500D02*
X351250D01*
Y83500D01*
X576250Y420500D02*
Y443500D01*
X523750Y420500D02*
X576250D01*
X523750D02*
Y443500D01*
X576250D01*
D12*
X205500Y393000D02*
G03*
X205500Y393000I-5000J0D01*
G01*
X346250Y457750D02*
G03*
X346250Y457750I-5000J0D01*
G01*
X391250Y189500D02*
Y199000D01*
X373750Y189500D02*
Y199000D01*
Y189500D02*
X391250D01*
X373750Y199000D02*
X391250D01*
X191500Y352000D02*
X231500D01*
X191500Y402000D02*
X231500D01*
Y352000D02*
Y402000D01*
X191500Y352000D02*
Y402000D01*
X137250Y204750D02*
X154750D01*
X137250Y195250D02*
X154750D01*
X137250D02*
Y204750D01*
X154750Y195250D02*
Y204750D01*
X109000D02*
X126500D01*
X109000Y195250D02*
X126500D01*
X109000D02*
Y204750D01*
X126500Y195250D02*
Y204750D01*
X208250Y261000D02*
Y270500D01*
X225750Y261000D02*
Y270500D01*
X208250D02*
X225750D01*
X208250Y261000D02*
X225750D01*
X47500Y271750D02*
X65000D01*
X47500Y281250D02*
X65000D01*
Y271750D02*
Y281250D01*
X47500Y271750D02*
Y281250D01*
X298000Y386000D02*
X315500D01*
X298000Y376500D02*
X315500D01*
X298000D02*
Y386000D01*
X315500Y376500D02*
Y386000D01*
X390250Y351000D02*
X399750D01*
X390250Y333500D02*
X399750D01*
Y351000D01*
X390250Y333500D02*
Y351000D01*
X340976D02*
X350476D01*
X340976Y333500D02*
X350476D01*
Y351000D01*
X340976Y333500D02*
Y351000D01*
X359476Y334250D02*
Y347250D01*
X380976Y334250D02*
Y347250D01*
X359476D02*
X380976D01*
X359476Y334250D02*
X380976D01*
X304476Y333500D02*
Y366500D01*
X330476Y333500D02*
Y366500D01*
X304476Y333500D02*
X330476D01*
X304476Y366500D02*
X330476D01*
X320952Y292775D02*
Y310275D01*
X311452Y292775D02*
Y310275D01*
X320952D01*
X311452Y292775D02*
X320952D01*
X391250Y174000D02*
Y183500D01*
X373750Y174000D02*
Y183500D01*
Y174000D02*
X391250D01*
X373750Y183500D02*
X391250D01*
X226452Y292775D02*
Y310275D01*
X216952Y292775D02*
Y310275D01*
X226452D01*
X216952Y292775D02*
X226452D01*
X390452Y292775D02*
X399952D01*
X390452Y310275D02*
X399952D01*
X390452Y292775D02*
Y310275D01*
X399952Y292775D02*
Y310275D01*
X373750Y158250D02*
X391250D01*
X373750Y167750D02*
X391250D01*
Y158250D02*
Y167750D01*
X373750Y158250D02*
Y167750D01*
X391250Y268250D02*
Y277750D01*
X373750Y268250D02*
Y277750D01*
Y268250D02*
X391250D01*
X373750Y277750D02*
X391250D01*
X232702Y310525D02*
X242202D01*
X232702Y293025D02*
X242202D01*
Y310525D01*
X232702Y293025D02*
Y310525D01*
X343202Y293025D02*
Y310525D01*
X352702Y293025D02*
Y310525D01*
X343202Y293025D02*
X352702D01*
X343202Y310525D02*
X352702D01*
X327452Y293025D02*
Y310525D01*
X336952Y293025D02*
Y310525D01*
X327452Y293025D02*
X336952D01*
X327452Y310525D02*
X336952D01*
X373750Y262000D02*
X391250D01*
X373750Y252500D02*
X391250D01*
X373750D02*
Y262000D01*
X391250Y252500D02*
Y262000D01*
X295702Y293025D02*
Y310525D01*
X305202Y293025D02*
Y310525D01*
X295702Y293025D02*
X305202D01*
X295702Y310525D02*
X305202D01*
X279952Y293025D02*
Y310525D01*
X289452Y293025D02*
Y310525D01*
X279952Y293025D02*
X289452D01*
X279952Y310525D02*
X289452D01*
X264202Y293275D02*
Y310775D01*
X273702Y293275D02*
Y310775D01*
X264202Y293275D02*
X273702D01*
X264202Y310775D02*
X273702D01*
X208202Y229525D02*
X225702D01*
X208202Y239025D02*
X225702D01*
Y229525D02*
Y239025D01*
X208202Y229525D02*
Y239025D01*
Y213775D02*
X225702D01*
X208202Y223275D02*
X225702D01*
Y213775D02*
Y223275D01*
X208202Y213775D02*
Y223275D01*
Y198025D02*
X225702D01*
X208202Y207525D02*
X225702D01*
Y198025D02*
Y207525D01*
X208202Y198025D02*
Y207525D01*
Y182275D02*
X225702D01*
X208202Y191775D02*
X225702D01*
Y182275D02*
Y191775D01*
X208202Y182275D02*
Y191775D01*
X268750Y127750D02*
Y145250D01*
X259250Y127750D02*
Y145250D01*
X268750D01*
X259250Y127750D02*
X268750D01*
X284500D02*
Y145250D01*
X275000Y127750D02*
Y145250D01*
X284500D01*
X275000Y127750D02*
X284500D01*
X300250D02*
Y145250D01*
X290750Y127750D02*
Y145250D01*
X300250D01*
X290750Y127750D02*
X300250D01*
X316000D02*
Y145250D01*
X306500Y127750D02*
Y145250D01*
X316000D01*
X306500Y127750D02*
X316000D01*
X331500D02*
Y145250D01*
X322000Y127750D02*
Y145250D01*
X331500D01*
X322000Y127750D02*
X331500D01*
X373750Y214750D02*
X391250D01*
X373750Y205250D02*
X391250D01*
X373750D02*
Y214750D01*
X391250Y205250D02*
Y214750D01*
X373750Y230500D02*
X391250D01*
X373750Y221000D02*
X391250D01*
X373750D02*
Y230500D01*
X391250Y221000D02*
Y230500D01*
X373750Y246250D02*
X391250D01*
X373750Y236750D02*
X391250D01*
X373750D02*
Y246250D01*
X391250Y236750D02*
Y246250D01*
X208250Y245250D02*
X225750D01*
X208250Y254750D02*
X225750D01*
Y245250D02*
Y254750D01*
X208250Y245250D02*
Y254750D01*
X362000Y127750D02*
Y145250D01*
X352500Y127750D02*
Y145250D01*
X362000D01*
X352500Y127750D02*
X362000D01*
X253000D02*
Y145250D01*
X243500Y127750D02*
Y145250D01*
X253000D01*
X243500Y127750D02*
X253000D01*
X246000Y335750D02*
Y345250D01*
X228500Y335750D02*
Y345250D01*
Y335750D02*
X246000D01*
X228500Y345250D02*
X246000D01*
X186000Y224000D02*
Y233500D01*
X168500Y224000D02*
Y233500D01*
Y224000D02*
X186000D01*
X168500Y233500D02*
X186000D01*
X138250Y310000D02*
X147750D01*
X138250Y292500D02*
X147750D01*
Y310000D01*
X138250Y292500D02*
Y310000D01*
X34000Y402500D02*
X51500D01*
X34000Y412000D02*
X51500D01*
Y402500D02*
Y412000D01*
X34000Y402500D02*
Y412000D01*
X147750Y321250D02*
Y338750D01*
X138250Y321250D02*
Y338750D01*
X147750D01*
X138250Y321250D02*
X147750D01*
Y349000D02*
Y366500D01*
X138250Y349000D02*
Y366500D01*
X147750D01*
X138250Y349000D02*
X147750D01*
X164000D02*
Y366500D01*
X154500Y349000D02*
Y366500D01*
X164000D01*
X154500Y349000D02*
X164000D01*
X154500Y321250D02*
Y338750D01*
X164000Y321250D02*
Y338750D01*
X154500Y321250D02*
X164000D01*
X154500Y338750D02*
X164000D01*
X144250Y474500D02*
X153750D01*
X144250Y492000D02*
X153750D01*
X144250Y474500D02*
Y492000D01*
X153750Y474500D02*
Y492000D01*
X144250Y462500D02*
X153750D01*
X144250Y445000D02*
X153750D01*
Y462500D01*
X144250Y445000D02*
Y462500D01*
X264500Y416000D02*
Y425500D01*
X282000Y416000D02*
Y425500D01*
X264500D02*
X282000D01*
X264500Y416000D02*
X282000D01*
X264500Y431750D02*
Y441250D01*
X282000Y431750D02*
Y441250D01*
X264500D02*
X282000D01*
X264500Y431750D02*
X282000D01*
X264500Y447500D02*
Y457000D01*
X282000Y447500D02*
Y457000D01*
X264500D02*
X282000D01*
X264500Y447500D02*
X282000D01*
X264500Y463250D02*
Y472750D01*
X282000Y463250D02*
Y472750D01*
X264500D02*
X282000D01*
X264500Y463250D02*
X282000D01*
X264500Y479000D02*
Y488500D01*
X282000Y479000D02*
Y488500D01*
X264500D02*
X282000D01*
X264500Y479000D02*
X282000D01*
X82500Y66750D02*
Y80750D01*
X52500D02*
X82500D01*
X52500Y66750D02*
X82500D01*
X52500D02*
Y80750D01*
X133000Y286500D02*
Y396500D01*
X3000Y286500D02*
X133000D01*
X3000D02*
Y396500D01*
X133000D01*
X100250D02*
X133000Y363750D01*
X76250Y271750D02*
Y281250D01*
X93750Y271750D02*
Y281250D01*
X76250D02*
X93750D01*
X76250Y271750D02*
X93750D01*
X62750Y402500D02*
Y412000D01*
X80250Y402500D02*
Y412000D01*
X62750D02*
X80250D01*
X62750Y402500D02*
X80250D01*
X36250Y271750D02*
Y281250D01*
X18750Y271750D02*
Y281250D01*
Y271750D02*
X36250D01*
X18750Y281250D02*
X36250D01*
X134000Y448250D02*
Y457750D01*
X116500Y448250D02*
Y457750D01*
Y448250D02*
X134000D01*
X116500Y457750D02*
X134000D01*
X59750Y448250D02*
X77250D01*
X59750Y457750D02*
X77250D01*
Y448250D02*
Y457750D01*
X59750Y448250D02*
Y457750D01*
X87500Y448250D02*
X105000D01*
X87500Y457750D02*
X105000D01*
Y448250D02*
Y457750D01*
X87500Y448250D02*
Y457750D01*
X25250Y436750D02*
X34750D01*
X25250Y454250D02*
X34750D01*
X25250Y436750D02*
Y454250D01*
X34750Y436750D02*
Y454250D01*
X51000Y437000D02*
Y454500D01*
X41500Y437000D02*
Y454500D01*
X51000D01*
X41500Y437000D02*
X51000D01*
X332200Y473400D02*
X349700D01*
X332200Y482900D02*
X349700D01*
Y473400D02*
Y482900D01*
X332200Y473400D02*
Y482900D01*
X392950Y473400D02*
Y482900D01*
X375450Y473400D02*
Y482900D01*
Y473400D02*
X392950D01*
X375450Y482900D02*
X392950D01*
X149000Y232750D02*
X158500D01*
X149000Y215250D02*
X158500D01*
Y232750D01*
X149000Y215250D02*
Y232750D01*
X139750Y167250D02*
Y181250D01*
X109750Y167250D02*
Y181250D01*
X139750D01*
X109750Y167250D02*
X139750D01*
X165750Y197250D02*
Y214750D01*
X175250Y197250D02*
Y214750D01*
X165750Y197250D02*
X175250D01*
X165750Y214750D02*
X175250D01*
X185750Y163250D02*
Y180750D01*
X195250Y163250D02*
Y180750D01*
X185750Y163250D02*
X195250D01*
X185750Y180750D02*
X195250D01*
X138500Y212000D02*
Y221500D01*
X121000Y212000D02*
Y221500D01*
Y212000D02*
X138500D01*
X121000Y221500D02*
X138500D01*
X83000Y210750D02*
X101000D01*
X83000Y241750D02*
X101000D01*
Y210750D02*
Y241750D01*
X83000Y210750D02*
Y241750D01*
X73250Y184500D02*
X82750D01*
X73250Y202000D02*
X82750D01*
X73250Y184500D02*
Y202000D01*
X82750Y184500D02*
Y202000D01*
X189500Y60250D02*
Y77750D01*
X199000Y60250D02*
Y77750D01*
X189500Y60250D02*
X199000D01*
X189500Y77750D02*
X199000D01*
X173750Y60250D02*
Y77750D01*
X183250Y60250D02*
Y77750D01*
X173750Y60250D02*
X183250D01*
X173750Y77750D02*
X183250D01*
X158000Y60250D02*
Y77750D01*
X167500Y60250D02*
Y77750D01*
X158000Y60250D02*
X167500D01*
X158000Y77750D02*
X167500D01*
X142000Y60250D02*
X151500D01*
X142000Y77750D02*
X151500D01*
X142000Y60250D02*
Y77750D01*
X151500Y60250D02*
Y77750D01*
X126250Y60250D02*
Y77750D01*
X135750Y60250D02*
Y77750D01*
X126250Y60250D02*
X135750D01*
X126250Y77750D02*
X135750D01*
X110500Y60250D02*
Y77750D01*
X120000Y60250D02*
Y77750D01*
X110500Y60250D02*
X120000D01*
X110500Y77750D02*
X120000D01*
X94750Y60250D02*
Y77750D01*
X104250Y60250D02*
Y77750D01*
X94750Y60250D02*
X104250D01*
X94750Y77750D02*
X104250D01*
X37000Y71500D02*
Y89000D01*
X46500Y71500D02*
Y89000D01*
X37000Y71500D02*
X46500D01*
X37000Y89000D02*
X46500D01*
X21000Y71500D02*
Y89000D01*
X30500Y71500D02*
Y89000D01*
X21000Y71500D02*
X30500D01*
X21000Y89000D02*
X30500D01*
X14500Y71500D02*
Y89000D01*
X5000Y71500D02*
Y89000D01*
X14500D01*
X5000Y71500D02*
X14500D01*
X146000Y181250D02*
X176000D01*
X146000Y167250D02*
X176000D01*
Y181250D01*
X146000Y167250D02*
Y181250D01*
X332250Y415750D02*
Y466750D01*
X393250Y415750D02*
Y466750D01*
X332250D02*
X393250D01*
X332250Y415750D02*
X393250D01*
X167750Y412750D02*
X247750D01*
Y492750D01*
X175750D02*
X247750D01*
X167750Y484750D02*
X175750Y492750D01*
X167750Y412750D02*
Y484750D01*
X248452Y293275D02*
Y310775D01*
X257952Y293275D02*
Y310775D01*
X248452Y293275D02*
X257952D01*
X248452Y310775D02*
X257952D01*
X358952Y292775D02*
Y310275D01*
X368452Y292775D02*
Y310275D01*
X358952Y292775D02*
X368452D01*
X358952Y310275D02*
X368452D01*
X374702Y292775D02*
Y310275D01*
X384202Y292775D02*
Y310275D01*
X374702Y292775D02*
X384202D01*
X374702Y310275D02*
X384202D01*
X90500Y180750D02*
X100000D01*
X90500Y163250D02*
X100000D01*
Y180750D01*
X90500Y163250D02*
Y180750D01*
X71000Y152750D02*
X80500D01*
X71000Y135250D02*
X80500D01*
Y152750D01*
X71000Y135250D02*
Y152750D01*
X93250Y251750D02*
Y261250D01*
X75750Y251750D02*
Y261250D01*
Y251750D02*
X93250D01*
X75750Y261250D02*
X93250D01*
X326750Y386000D02*
X344250D01*
X326750Y376500D02*
X344250D01*
X326750D02*
Y386000D01*
X344250Y376500D02*
Y386000D01*
X347000Y127750D02*
Y145250D01*
X337500Y127750D02*
Y145250D01*
X347000D01*
X337500Y127750D02*
X347000D01*
X137750Y231000D02*
Y240500D01*
X120250Y231000D02*
Y240500D01*
Y231000D02*
X137750D01*
X120250Y240500D02*
X137750D01*
D16*
X363202Y284524D02*
X365702Y282024D01*
X235702Y154524D02*
Y284524D01*
Y154524D02*
X365702D01*
Y284524D01*
X235702D02*
X365702D01*
M02*
