G04*
G04 #@! TF.GenerationSoftware,Altium Limited,Altium Designer,19.0.11 (319)*
G04*
G04 Layer_Color=8388736*
%FSLAX44Y44*%
%MOMM*%
G71*
G01*
G75*
%ADD32C,0.5000*%
%ADD51C,3.0000*%
G04:AMPARAMS|DCode=52|XSize=1.2032mm|YSize=0.7032mm|CornerRadius=0.2266mm|HoleSize=0mm|Usage=FLASHONLY|Rotation=90.000|XOffset=0mm|YOffset=0mm|HoleType=Round|Shape=RoundedRectangle|*
%AMROUNDEDRECTD52*
21,1,1.2032,0.2500,0,0,90.0*
21,1,0.7500,0.7032,0,0,90.0*
1,1,0.4532,0.1250,0.3750*
1,1,0.4532,0.1250,-0.3750*
1,1,0.4532,-0.1250,-0.3750*
1,1,0.4532,-0.1250,0.3750*
%
%ADD52ROUNDEDRECTD52*%
%ADD53R,1.1032X1.2032*%
%ADD54O,1.7532X0.8032*%
G04:AMPARAMS|DCode=55|XSize=2.6032mm|YSize=5.2032mm|CornerRadius=0.7016mm|HoleSize=0mm|Usage=FLASHONLY|Rotation=0.000|XOffset=0mm|YOffset=0mm|HoleType=Round|Shape=RoundedRectangle|*
%AMROUNDEDRECTD55*
21,1,2.6032,3.8000,0,0,0.0*
21,1,1.2000,5.2032,0,0,0.0*
1,1,1.4032,0.6000,-1.9000*
1,1,1.4032,-0.6000,-1.9000*
1,1,1.4032,-0.6000,1.9000*
1,1,1.4032,0.6000,1.9000*
%
%ADD55ROUNDEDRECTD55*%
%ADD56R,1.0532X1.1532*%
%ADD57R,1.2032X1.1032*%
%ADD58R,0.9532X1.6032*%
%ADD59R,1.4032X1.2032*%
%ADD60R,1.1532X1.0532*%
%ADD61R,0.6932X0.9632*%
%ADD62R,0.3832X0.6832*%
%ADD63R,1.0032X1.1032*%
%ADD64C,0.7032*%
%ADD65R,1.0052X1.1752*%
%ADD66R,1.3032X0.8032*%
%ADD67R,0.5032X1.4032*%
%ADD68R,2.6032X2.6032*%
%ADD69R,0.5032X1.6032*%
%ADD70R,2.8532X2.5032*%
%ADD71R,1.6032X1.1032*%
%ADD72R,1.2032X0.9032*%
%ADD73R,1.6032X1.4032*%
%ADD74R,1.3532X1.4032*%
%ADD75R,0.9032X1.2032*%
%ADD76O,1.2532X0.6532*%
%ADD77R,3.4000X4.3000*%
%ADD78C,0.4760*%
%ADD79C,0.4762*%
%ADD80C,0.6132*%
%ADD81R,2.0032X1.4032*%
%ADD82R,2.1032X2.0032*%
G04:AMPARAMS|DCode=83|XSize=1.8032mm|YSize=1.6032mm|CornerRadius=0.4516mm|HoleSize=0mm|Usage=FLASHONLY|Rotation=0.000|XOffset=0mm|YOffset=0mm|HoleType=Round|Shape=RoundedRectangle|*
%AMROUNDEDRECTD83*
21,1,1.8032,0.7000,0,0,0.0*
21,1,0.9000,1.6032,0,0,0.0*
1,1,0.9032,0.4500,-0.3500*
1,1,0.9032,-0.4500,-0.3500*
1,1,0.9032,-0.4500,0.3500*
1,1,0.9032,0.4500,0.3500*
%
%ADD83ROUNDEDRECTD83*%
%ADD84O,0.6032X1.5532*%
%ADD85O,2.7032X1.9532*%
%ADD86C,1.7032*%
%ADD87R,1.7032X1.7032*%
%ADD88C,2.2032*%
%ADD89O,1.1032X1.8032*%
D32*
X106250Y495500D02*
D03*
Y465900D02*
D03*
X36500Y495500D02*
D03*
Y465900D02*
D03*
D51*
X103510Y18200D02*
G03*
X103510Y18200I-10J0D01*
G01*
X631760Y101750D02*
G03*
X631760Y101750I-10J0D01*
G01*
X633010Y483000D02*
G03*
X633010Y483000I-10J0D01*
G01*
D52*
X383750Y127250D02*
D03*
X376750Y127500D02*
D03*
X390750D02*
D03*
X376750Y139500D02*
D03*
X383750Y139500D02*
D03*
X390750D02*
D03*
D53*
X389250Y194250D02*
D03*
X375750D02*
D03*
X210250Y265750D02*
D03*
X223750D02*
D03*
X389250Y178750D02*
D03*
X375750D02*
D03*
X223702Y234275D02*
D03*
X210202D02*
D03*
X223702Y218525D02*
D03*
X210202D02*
D03*
X223702Y202775D02*
D03*
X210202D02*
D03*
X223702Y187025D02*
D03*
X210202D02*
D03*
X375750Y210000D02*
D03*
X389250D02*
D03*
X375750Y225750D02*
D03*
X389250D02*
D03*
X375750Y241500D02*
D03*
X389250D02*
D03*
X244000Y340500D02*
D03*
X230500D02*
D03*
X184000Y228750D02*
D03*
X170500D02*
D03*
X266500Y420750D02*
D03*
X280000D02*
D03*
X266500Y436500D02*
D03*
X280000D02*
D03*
X266500Y452250D02*
D03*
X280000D02*
D03*
X266500Y468000D02*
D03*
X280000D02*
D03*
X266500Y483750D02*
D03*
X280000D02*
D03*
X78250Y276500D02*
D03*
X91750D02*
D03*
X64750Y407250D02*
D03*
X78250D02*
D03*
X34250Y276500D02*
D03*
X20750D02*
D03*
X132000Y453000D02*
D03*
X118500D02*
D03*
X390950Y478150D02*
D03*
X377450D02*
D03*
X136500Y216750D02*
D03*
X123000D02*
D03*
X328750Y381250D02*
D03*
X342250D02*
D03*
D54*
X238500Y357950D02*
D03*
Y370650D02*
D03*
Y383350D02*
D03*
Y396050D02*
D03*
X184500Y357950D02*
D03*
Y370650D02*
D03*
Y383350D02*
D03*
Y396050D02*
D03*
D55*
X211500Y377000D02*
D03*
D56*
X139500Y200000D02*
D03*
X152500D02*
D03*
X111250D02*
D03*
X124250D02*
D03*
X62750Y276500D02*
D03*
X49750D02*
D03*
X300250Y381250D02*
D03*
X313250D02*
D03*
X389000Y163000D02*
D03*
X376000D02*
D03*
X389000Y273000D02*
D03*
X376000D02*
D03*
Y257250D02*
D03*
X389000D02*
D03*
X223500Y250000D02*
D03*
X210500D02*
D03*
X49250Y407250D02*
D03*
X36250D02*
D03*
X75000Y453000D02*
D03*
X62000D02*
D03*
X102750D02*
D03*
X89750D02*
D03*
X347450Y478150D02*
D03*
X334450D02*
D03*
X91000Y256500D02*
D03*
X78000D02*
D03*
X135500Y235750D02*
D03*
X122500D02*
D03*
D57*
X395000Y349000D02*
D03*
Y335500D02*
D03*
X345726Y349000D02*
D03*
Y335500D02*
D03*
X395202Y294775D02*
D03*
Y308275D02*
D03*
X237452Y308525D02*
D03*
Y295025D02*
D03*
X347952Y295025D02*
D03*
Y308525D02*
D03*
X332202Y295025D02*
D03*
Y308525D02*
D03*
X300452Y295025D02*
D03*
Y308525D02*
D03*
X284702Y295025D02*
D03*
Y308525D02*
D03*
X268952Y295275D02*
D03*
Y308775D02*
D03*
X264000Y143250D02*
D03*
Y129750D02*
D03*
X279750Y143250D02*
D03*
Y129750D02*
D03*
X295500Y143250D02*
D03*
Y129750D02*
D03*
X311250Y143250D02*
D03*
Y129750D02*
D03*
X326750Y143250D02*
D03*
Y129750D02*
D03*
X357250Y143250D02*
D03*
Y129750D02*
D03*
X248250Y143250D02*
D03*
Y129750D02*
D03*
X143000Y308000D02*
D03*
Y294500D02*
D03*
X149000Y476500D02*
D03*
Y490000D02*
D03*
Y460500D02*
D03*
Y447000D02*
D03*
X30000Y438750D02*
D03*
Y452250D02*
D03*
X153750Y230750D02*
D03*
Y217250D02*
D03*
X78000Y186500D02*
D03*
Y200000D02*
D03*
X146750Y62250D02*
D03*
Y75750D02*
D03*
X253202Y295275D02*
D03*
Y308775D02*
D03*
X363702Y294775D02*
D03*
Y308275D02*
D03*
X379452Y294775D02*
D03*
Y308275D02*
D03*
X342250Y143250D02*
D03*
Y129750D02*
D03*
D58*
X377476Y340750D02*
D03*
X362976D02*
D03*
D59*
X325976Y337000D02*
D03*
X308976D02*
D03*
X325976Y363000D02*
D03*
X308976D02*
D03*
D60*
X316202Y308025D02*
D03*
Y295025D02*
D03*
X221702Y308025D02*
D03*
Y295025D02*
D03*
X143000Y336500D02*
D03*
Y323500D02*
D03*
Y364250D02*
D03*
Y351250D02*
D03*
X159250Y364250D02*
D03*
Y351250D02*
D03*
Y323500D02*
D03*
Y336500D02*
D03*
X46250Y452250D02*
D03*
Y439250D02*
D03*
X170500Y199500D02*
D03*
Y212500D02*
D03*
X190500Y165500D02*
D03*
Y178500D02*
D03*
X194250Y62500D02*
D03*
Y75500D02*
D03*
X178500Y62500D02*
D03*
Y75500D02*
D03*
X162750Y62500D02*
D03*
Y75500D02*
D03*
X131000Y62500D02*
D03*
Y75500D02*
D03*
X115250Y62500D02*
D03*
Y75500D02*
D03*
X99500Y62500D02*
D03*
Y75500D02*
D03*
X41750Y73750D02*
D03*
Y86750D02*
D03*
X25750Y73750D02*
D03*
Y86750D02*
D03*
X9750Y86750D02*
D03*
Y73750D02*
D03*
X95250Y178500D02*
D03*
Y165500D02*
D03*
X75750Y150500D02*
D03*
Y137500D02*
D03*
D61*
X503950Y477000D02*
D03*
X555550D02*
D03*
X503950Y152750D02*
D03*
X555550D02*
D03*
D62*
X522750Y466400D02*
D03*
Y487600D02*
D03*
X526250Y466400D02*
D03*
Y487600D02*
D03*
X529750Y466400D02*
D03*
Y487600D02*
D03*
X533250Y466400D02*
D03*
Y487600D02*
D03*
X536750Y466400D02*
D03*
Y487600D02*
D03*
X522750Y142150D02*
D03*
Y163350D02*
D03*
X526250Y142150D02*
D03*
Y163350D02*
D03*
X529750Y142150D02*
D03*
Y163350D02*
D03*
X533250Y142150D02*
D03*
Y163350D02*
D03*
X536750Y142150D02*
D03*
Y163350D02*
D03*
D63*
X67500Y63750D02*
D03*
X58000Y83750D02*
D03*
X77000D02*
D03*
D64*
X103000Y376500D02*
D03*
Y366500D02*
D03*
Y356500D02*
D03*
Y346500D02*
D03*
Y336500D02*
D03*
Y326500D02*
D03*
Y316500D02*
D03*
Y306500D02*
D03*
X93000Y376500D02*
D03*
Y366500D02*
D03*
Y356500D02*
D03*
Y346500D02*
D03*
Y336500D02*
D03*
Y326500D02*
D03*
Y316500D02*
D03*
Y306500D02*
D03*
X83000Y376500D02*
D03*
Y366500D02*
D03*
Y356500D02*
D03*
Y346500D02*
D03*
Y336500D02*
D03*
Y326500D02*
D03*
Y316500D02*
D03*
Y306500D02*
D03*
X73000Y376500D02*
D03*
Y366500D02*
D03*
Y356500D02*
D03*
Y346500D02*
D03*
Y336500D02*
D03*
Y326500D02*
D03*
Y316500D02*
D03*
Y306500D02*
D03*
X63000Y376500D02*
D03*
Y366500D02*
D03*
Y356500D02*
D03*
Y346500D02*
D03*
Y336500D02*
D03*
Y326500D02*
D03*
Y316500D02*
D03*
Y306500D02*
D03*
X53000Y376500D02*
D03*
Y366500D02*
D03*
Y356500D02*
D03*
Y346500D02*
D03*
Y336500D02*
D03*
Y326500D02*
D03*
Y316500D02*
D03*
Y306500D02*
D03*
X43000Y376500D02*
D03*
Y366500D02*
D03*
Y356500D02*
D03*
Y346500D02*
D03*
Y336500D02*
D03*
Y326500D02*
D03*
Y316500D02*
D03*
Y306500D02*
D03*
X33000Y376500D02*
D03*
Y366500D02*
D03*
Y356500D02*
D03*
Y346500D02*
D03*
Y336500D02*
D03*
Y326500D02*
D03*
Y316500D02*
D03*
Y306500D02*
D03*
X352750Y456250D02*
D03*
X362750D02*
D03*
X372750D02*
D03*
X352750Y446250D02*
D03*
X362750D02*
D03*
X372750D02*
D03*
X352750Y436250D02*
D03*
X362750D02*
D03*
X372750D02*
D03*
X352750Y426250D02*
D03*
X362750D02*
D03*
X372750D02*
D03*
D65*
X124750Y183100D02*
D03*
X134250Y165400D02*
D03*
X115250D02*
D03*
X170500Y183100D02*
D03*
X151500D02*
D03*
X161000Y165400D02*
D03*
D66*
X106000Y235750D02*
D03*
Y216750D02*
D03*
X78000D02*
D03*
Y226250D02*
D03*
Y235750D02*
D03*
D67*
X419000Y65000D02*
D03*
X424000D02*
D03*
X429000D02*
D03*
X434000D02*
D03*
X439000D02*
D03*
X444000D02*
D03*
X449000D02*
D03*
X454000D02*
D03*
X459000D02*
D03*
X464000D02*
D03*
X469000D02*
D03*
X474000D02*
D03*
X479000D02*
D03*
X484000D02*
D03*
X489000D02*
D03*
X494000D02*
D03*
X499000D02*
D03*
X504000D02*
D03*
X509000D02*
D03*
X514000D02*
D03*
X519000D02*
D03*
X524000D02*
D03*
X529000D02*
D03*
X534000D02*
D03*
X539000D02*
D03*
X544000D02*
D03*
X549000D02*
D03*
X554000D02*
D03*
X559000D02*
D03*
X564000D02*
D03*
X569000D02*
D03*
X574000D02*
D03*
X579000D02*
D03*
X584000D02*
D03*
X589000D02*
D03*
X594000D02*
D03*
X599000D02*
D03*
X604000D02*
D03*
X609000D02*
D03*
X614000D02*
D03*
D68*
X398000Y38000D02*
D03*
X635000D02*
D03*
D69*
X346500Y57250D02*
D03*
X341500D02*
D03*
X241500D02*
D03*
X246500D02*
D03*
X251500D02*
D03*
X256500D02*
D03*
X261500D02*
D03*
X266500D02*
D03*
X271500D02*
D03*
X276500D02*
D03*
X281500D02*
D03*
X286500D02*
D03*
X291500D02*
D03*
X296500D02*
D03*
X301500D02*
D03*
X306500D02*
D03*
X311500D02*
D03*
X316500D02*
D03*
X321500D02*
D03*
X326500D02*
D03*
X331500D02*
D03*
X336500D02*
D03*
D70*
X223750Y44750D02*
D03*
X364250D02*
D03*
D71*
X198750Y93500D02*
D03*
D72*
X200750Y105000D02*
D03*
D73*
X198750Y116500D02*
D03*
D74*
X94500Y95000D02*
D03*
Y120900D02*
D03*
D75*
X105250Y131400D02*
D03*
X116250D02*
D03*
X127250D02*
D03*
X138250D02*
D03*
X149250D02*
D03*
X160250D02*
D03*
X171250D02*
D03*
X182250D02*
D03*
D76*
X334550Y460300D02*
D03*
Y447600D02*
D03*
Y434900D02*
D03*
Y422200D02*
D03*
X390950Y460300D02*
D03*
Y447600D02*
D03*
Y434900D02*
D03*
Y422200D02*
D03*
D77*
X362750Y441250D02*
D03*
D78*
X356702Y275531D02*
D03*
D79*
Y267530D02*
D03*
Y259529D02*
D03*
Y251528D02*
D03*
Y243527D02*
D03*
Y235526D02*
D03*
Y227525D02*
D03*
Y219524D02*
D03*
Y211523D02*
D03*
Y203522D02*
D03*
Y195521D02*
D03*
Y187520D02*
D03*
Y179519D02*
D03*
Y171518D02*
D03*
Y163517D02*
D03*
X348702Y275531D02*
D03*
Y267530D02*
D03*
Y259529D02*
D03*
Y251528D02*
D03*
Y243527D02*
D03*
Y235526D02*
D03*
Y227525D02*
D03*
Y219524D02*
D03*
Y211523D02*
D03*
Y203522D02*
D03*
Y195521D02*
D03*
Y187520D02*
D03*
Y179519D02*
D03*
Y171518D02*
D03*
Y163517D02*
D03*
X340702Y275531D02*
D03*
Y267530D02*
D03*
Y259529D02*
D03*
Y251528D02*
D03*
Y243527D02*
D03*
Y235526D02*
D03*
Y227525D02*
D03*
Y219524D02*
D03*
Y211523D02*
D03*
Y203522D02*
D03*
Y195521D02*
D03*
Y187520D02*
D03*
Y179519D02*
D03*
Y171518D02*
D03*
Y163517D02*
D03*
X332702Y275531D02*
D03*
Y267530D02*
D03*
Y259529D02*
D03*
Y251528D02*
D03*
Y243527D02*
D03*
Y235526D02*
D03*
Y227525D02*
D03*
Y219524D02*
D03*
Y211523D02*
D03*
Y203522D02*
D03*
Y195521D02*
D03*
Y187520D02*
D03*
Y179519D02*
D03*
Y171518D02*
D03*
Y163517D02*
D03*
X324702Y275531D02*
D03*
Y267530D02*
D03*
Y259529D02*
D03*
Y251528D02*
D03*
Y243527D02*
D03*
Y235526D02*
D03*
Y227525D02*
D03*
Y219524D02*
D03*
Y211523D02*
D03*
Y203522D02*
D03*
Y195521D02*
D03*
Y187520D02*
D03*
Y179519D02*
D03*
Y171518D02*
D03*
Y163517D02*
D03*
X316702Y275531D02*
D03*
Y267530D02*
D03*
Y259529D02*
D03*
Y251528D02*
D03*
Y243527D02*
D03*
Y235526D02*
D03*
Y227525D02*
D03*
Y219524D02*
D03*
Y211523D02*
D03*
Y203522D02*
D03*
Y195521D02*
D03*
Y187520D02*
D03*
Y179519D02*
D03*
Y171518D02*
D03*
Y163517D02*
D03*
X308702Y275531D02*
D03*
Y267530D02*
D03*
Y259529D02*
D03*
Y251528D02*
D03*
Y243527D02*
D03*
Y235526D02*
D03*
Y203522D02*
D03*
Y195521D02*
D03*
Y187520D02*
D03*
Y179519D02*
D03*
Y171518D02*
D03*
Y163517D02*
D03*
X300702Y275531D02*
D03*
Y267530D02*
D03*
Y259529D02*
D03*
Y251528D02*
D03*
Y243527D02*
D03*
Y235526D02*
D03*
Y203522D02*
D03*
Y195521D02*
D03*
Y187520D02*
D03*
Y179519D02*
D03*
Y171518D02*
D03*
Y163517D02*
D03*
X292702Y275531D02*
D03*
Y267530D02*
D03*
Y259529D02*
D03*
Y251528D02*
D03*
Y243527D02*
D03*
Y235526D02*
D03*
Y203522D02*
D03*
Y195521D02*
D03*
Y187520D02*
D03*
Y179519D02*
D03*
Y171518D02*
D03*
Y163517D02*
D03*
X284702Y275531D02*
D03*
Y267530D02*
D03*
Y259529D02*
D03*
Y251528D02*
D03*
Y243527D02*
D03*
Y235526D02*
D03*
Y227525D02*
D03*
Y219524D02*
D03*
Y211523D02*
D03*
Y203522D02*
D03*
Y195521D02*
D03*
Y187520D02*
D03*
Y179519D02*
D03*
Y171518D02*
D03*
Y163517D02*
D03*
X276702Y275531D02*
D03*
Y267530D02*
D03*
Y259529D02*
D03*
Y251528D02*
D03*
Y243527D02*
D03*
Y235526D02*
D03*
Y227525D02*
D03*
Y219524D02*
D03*
Y211523D02*
D03*
Y203522D02*
D03*
Y195521D02*
D03*
Y187520D02*
D03*
Y179519D02*
D03*
Y171518D02*
D03*
Y163517D02*
D03*
X268702Y275531D02*
D03*
Y267530D02*
D03*
Y259529D02*
D03*
Y251528D02*
D03*
Y243527D02*
D03*
Y235526D02*
D03*
Y227525D02*
D03*
Y219524D02*
D03*
Y211523D02*
D03*
Y203522D02*
D03*
Y195521D02*
D03*
Y187520D02*
D03*
Y179519D02*
D03*
Y171518D02*
D03*
Y163517D02*
D03*
X260702Y275531D02*
D03*
Y267530D02*
D03*
Y259529D02*
D03*
Y251528D02*
D03*
Y243527D02*
D03*
Y235526D02*
D03*
Y227525D02*
D03*
Y219524D02*
D03*
Y211523D02*
D03*
Y203522D02*
D03*
Y195521D02*
D03*
Y187520D02*
D03*
Y179519D02*
D03*
Y171518D02*
D03*
Y163517D02*
D03*
X252702Y275531D02*
D03*
Y267530D02*
D03*
Y259529D02*
D03*
Y251528D02*
D03*
Y243527D02*
D03*
Y235526D02*
D03*
Y227525D02*
D03*
Y219524D02*
D03*
Y211523D02*
D03*
Y203522D02*
D03*
Y195521D02*
D03*
Y187520D02*
D03*
Y179519D02*
D03*
Y171518D02*
D03*
Y163517D02*
D03*
X244702Y275531D02*
D03*
Y267530D02*
D03*
Y259529D02*
D03*
Y251528D02*
D03*
Y243527D02*
D03*
Y235526D02*
D03*
Y227525D02*
D03*
Y219524D02*
D03*
Y211523D02*
D03*
Y203522D02*
D03*
Y195521D02*
D03*
Y187520D02*
D03*
Y179519D02*
D03*
Y171518D02*
D03*
Y163517D02*
D03*
D80*
X239750Y420750D02*
D03*
X231750D02*
D03*
X223750D02*
D03*
X191750D02*
D03*
X183750D02*
D03*
X175750D02*
D03*
X239750Y428750D02*
D03*
X231750D02*
D03*
X223750D02*
D03*
X191750D02*
D03*
X183750D02*
D03*
X175750D02*
D03*
X239750Y436750D02*
D03*
X231750D02*
D03*
X223750D02*
D03*
X191750D02*
D03*
X183750D02*
D03*
X175750D02*
D03*
X239750Y444750D02*
D03*
X231750D02*
D03*
X223750D02*
D03*
X191750D02*
D03*
X183750D02*
D03*
X175750D02*
D03*
X239750Y452750D02*
D03*
X231750D02*
D03*
X223750D02*
D03*
X191750D02*
D03*
X183750D02*
D03*
X175750D02*
D03*
X239750Y460750D02*
D03*
X231750D02*
D03*
X223750D02*
D03*
X191750D02*
D03*
X183750D02*
D03*
X175750D02*
D03*
X239750Y468750D02*
D03*
X231750D02*
D03*
X223750D02*
D03*
X191750D02*
D03*
X183750D02*
D03*
X175750D02*
D03*
X239750Y476750D02*
D03*
X231750D02*
D03*
X223750D02*
D03*
X191750D02*
D03*
X183750D02*
D03*
X175750D02*
D03*
X239750Y484750D02*
D03*
X231750D02*
D03*
X223750D02*
D03*
X191750D02*
D03*
X183750D02*
D03*
X175750D02*
D03*
D81*
X84250Y471500D02*
D03*
Y488500D02*
D03*
X127250D02*
D03*
Y471500D02*
D03*
X14500D02*
D03*
Y488500D02*
D03*
X57500D02*
D03*
Y471500D02*
D03*
D82*
X56000Y16250D02*
D03*
X32000D02*
D03*
D83*
X76000Y40750D02*
D03*
X12000D02*
D03*
D84*
X44000Y43000D02*
D03*
X37500D02*
D03*
X31000D02*
D03*
X57000D02*
D03*
X50500D02*
D03*
D85*
X29250Y203500D02*
D03*
Y228500D02*
D03*
Y122750D02*
D03*
Y147750D02*
D03*
D86*
X612300Y175300D02*
D03*
Y200700D02*
D03*
Y226100D02*
D03*
Y251500D02*
D03*
Y276900D02*
D03*
Y302300D02*
D03*
Y327700D02*
D03*
Y353100D02*
D03*
Y378500D02*
D03*
Y403900D02*
D03*
Y429050D02*
D03*
Y454700D02*
D03*
X637700Y302300D02*
D03*
Y276900D02*
D03*
Y251500D02*
D03*
Y226100D02*
D03*
Y175300D02*
D03*
Y200700D02*
D03*
Y429300D02*
D03*
Y403900D02*
D03*
Y378500D02*
D03*
Y353100D02*
D03*
Y327700D02*
D03*
D87*
Y454700D02*
D03*
D88*
X629750Y150000D02*
D03*
X429750Y480000D02*
D03*
D89*
X77000Y16250D02*
D03*
X11000D02*
D03*
M02*
