G04*
G04 #@! TF.GenerationSoftware,Altium Limited,Altium Designer,19.0.11 (319)*
G04*
G04 Layer_Color=32768*
%FSLAX44Y44*%
%MOMM*%
G71*
G01*
G75*
%ADD10C,0.2000*%
%ADD12C,0.1000*%
%ADD16C,0.1520*%
%ADD17C,0.1524*%
%ADD108C,0.0500*%
D10*
X68250Y174000D02*
Y258000D01*
X250D02*
X68250D01*
X250Y174000D02*
Y258000D01*
Y174000D02*
X68250D01*
X24250Y216000D02*
X34250D01*
X29250Y211000D02*
Y221000D01*
X68250Y93250D02*
Y177250D01*
X250D02*
X68250D01*
X250Y93250D02*
Y177250D01*
Y93250D02*
X68250D01*
X24250Y135250D02*
X34250D01*
X29250Y130250D02*
Y140250D01*
X72250Y462500D02*
X139250D01*
X72250D02*
Y497500D01*
X139250Y462500D02*
Y497500D01*
X72250D02*
X139250D01*
X2500Y462500D02*
X69500D01*
X2500D02*
Y497500D01*
X69500Y462500D02*
Y497500D01*
X2500D02*
X69500D01*
X-1000Y-15250D02*
X89000D01*
Y54750D01*
X-1000D02*
X89000D01*
X-1000Y-15250D02*
Y54750D01*
X37650Y16750D02*
X50350D01*
X44000Y10400D02*
Y23100D01*
D12*
X377750Y194250D02*
X387250D01*
X382500Y189500D02*
Y199000D01*
X211500Y372000D02*
Y382000D01*
X206500Y377000D02*
X216500D01*
X62250Y455000D02*
X137750D01*
X62250Y409000D02*
Y455000D01*
Y409000D02*
X137750D01*
Y455000D01*
X146000Y195250D02*
Y204750D01*
X141250Y200000D02*
X150750D01*
X117750Y195250D02*
Y204750D01*
X113000Y200000D02*
X122500D01*
X212250Y265750D02*
X221750D01*
X217000Y261000D02*
Y270500D01*
X56250Y271750D02*
Y281250D01*
X51500Y276500D02*
X61000D01*
X306750Y376500D02*
Y386000D01*
X302000Y381250D02*
X311500D01*
X395000Y337500D02*
Y347000D01*
X390250Y342250D02*
X399750D01*
X345726Y337500D02*
Y347000D01*
X340976Y342250D02*
X350476D01*
X365226Y340750D02*
X375226D01*
X370226Y335750D02*
Y345750D01*
X312476Y350000D02*
X322476D01*
X317476Y345000D02*
Y355000D01*
X311452Y301525D02*
X320952D01*
X316202Y296775D02*
Y306275D01*
X377750Y178750D02*
X387250D01*
X382500Y174000D02*
Y183500D01*
X216952Y301525D02*
X226452D01*
X221702Y296775D02*
Y306275D01*
X395202Y296775D02*
Y306275D01*
X390452Y301525D02*
X399952D01*
X382500Y158250D02*
Y167750D01*
X377750Y163000D02*
X387250D01*
X377750Y273000D02*
X387250D01*
X382500Y268250D02*
Y277750D01*
X237452Y297025D02*
Y306525D01*
X232702Y301775D02*
X242202D01*
X343202Y301775D02*
X352702D01*
X347952Y297025D02*
Y306525D01*
X327452Y301775D02*
X336952D01*
X332202Y297025D02*
Y306525D01*
X382500Y252500D02*
Y262000D01*
X377750Y257250D02*
X387250D01*
X295702Y301775D02*
X305202D01*
X300452Y297025D02*
Y306525D01*
X279952Y301775D02*
X289452D01*
X284702Y297025D02*
Y306525D01*
X264202Y302025D02*
X273702D01*
X268952Y297275D02*
Y306775D01*
X216952Y229525D02*
Y239025D01*
X212202Y234275D02*
X221702D01*
X216952Y213775D02*
Y223275D01*
X212202Y218525D02*
X221702D01*
X216952Y198025D02*
Y207525D01*
X212202Y202775D02*
X221702D01*
X216952Y182275D02*
Y191775D01*
X212202Y187025D02*
X221702D01*
X259250Y136500D02*
X268750D01*
X264000Y131750D02*
Y141250D01*
X275000Y136500D02*
X284500D01*
X279750Y131750D02*
Y141250D01*
X290750Y136500D02*
X300250D01*
X295500Y131750D02*
Y141250D01*
X306500Y136500D02*
X316000D01*
X311250Y131750D02*
Y141250D01*
X322000Y136500D02*
X331500D01*
X326750Y131750D02*
Y141250D01*
X382500Y205250D02*
Y214750D01*
X377750Y210000D02*
X387250D01*
X382500Y221000D02*
Y230500D01*
X377750Y225750D02*
X387250D01*
X382500Y236750D02*
Y246250D01*
X377750Y241500D02*
X387250D01*
X217000Y245250D02*
Y254750D01*
X212250Y250000D02*
X221750D01*
X352500Y136500D02*
X362000D01*
X357250Y131750D02*
Y141250D01*
X243500Y136500D02*
X253000D01*
X248250Y131750D02*
Y141250D01*
X232500Y340500D02*
X242000D01*
X237250Y335750D02*
Y345250D01*
X172500Y228750D02*
X182000D01*
X177250Y224000D02*
Y233500D01*
X567500Y454000D02*
Y500000D01*
X492000D02*
X567500D01*
X492000Y454000D02*
Y500000D01*
Y454000D02*
X567500D01*
Y129750D02*
Y175750D01*
X492000D02*
X567500D01*
X492000Y129750D02*
Y175750D01*
Y129750D02*
X567500D01*
X143000Y296500D02*
Y306000D01*
X138250Y301250D02*
X147750D01*
X42750Y402500D02*
Y412000D01*
X38000Y407250D02*
X47500D01*
X138250Y330000D02*
X147750D01*
X143000Y325250D02*
Y334750D01*
X138250Y357750D02*
X147750D01*
X143000Y353000D02*
Y362500D01*
X154500Y357750D02*
X164000D01*
X159250Y353000D02*
Y362500D01*
X154500Y330000D02*
X164000D01*
X159250Y325250D02*
Y334750D01*
X149000Y478500D02*
Y488000D01*
X144250Y483250D02*
X153750D01*
X149000Y449000D02*
Y458500D01*
X144250Y453750D02*
X153750D01*
X268500Y420750D02*
X278000D01*
X273250Y416000D02*
Y425500D01*
X268500Y436500D02*
X278000D01*
X273250Y431750D02*
Y441250D01*
X268500Y452250D02*
X278000D01*
X273250Y447500D02*
Y457000D01*
X268500Y468000D02*
X278000D01*
X273250Y463250D02*
Y472750D01*
X268500Y483750D02*
X278000D01*
X273250Y479000D02*
Y488500D01*
X62500Y73750D02*
X72500D01*
X67500Y68750D02*
Y78750D01*
X80250Y276500D02*
X89750D01*
X85000Y271750D02*
Y281250D01*
X66750Y407250D02*
X76250D01*
X71500Y402500D02*
Y412000D01*
X22750Y276500D02*
X32250D01*
X27500Y271750D02*
Y281250D01*
X120500Y453000D02*
X130000D01*
X125250Y448250D02*
Y457750D01*
X68500Y448250D02*
Y457750D01*
X63750Y453000D02*
X73250D01*
X96250Y448250D02*
Y457750D01*
X91500Y453000D02*
X101000D01*
X30000Y440750D02*
Y450250D01*
X25250Y445500D02*
X34750D01*
X41500Y445750D02*
X51000D01*
X46250Y441000D02*
Y450500D01*
X340950Y473400D02*
Y482900D01*
X336200Y478150D02*
X345700D01*
X379450D02*
X388950D01*
X384200Y473400D02*
Y482900D01*
X153750Y219250D02*
Y228750D01*
X149000Y224000D02*
X158500D01*
X119750Y174250D02*
X129750D01*
X124750Y169250D02*
Y179250D01*
X165750Y206000D02*
X175250D01*
X170500Y201250D02*
Y210750D01*
X185750Y172000D02*
X195250D01*
X190500Y167250D02*
Y176750D01*
X125000Y216750D02*
X134500D01*
X129750Y212000D02*
Y221500D01*
X92000Y221250D02*
Y231250D01*
X87000Y226250D02*
X97000D01*
X78000Y188500D02*
Y198000D01*
X73250Y193250D02*
X82750D01*
X189500Y69000D02*
X199000D01*
X194250Y64250D02*
Y73750D01*
X173750Y69000D02*
X183250D01*
X178500Y64250D02*
Y73750D01*
X158000Y69000D02*
X167500D01*
X162750Y64250D02*
Y73750D01*
X146750Y64250D02*
Y73750D01*
X142000Y69000D02*
X151500D01*
X126250D02*
X135750D01*
X131000Y64250D02*
Y73750D01*
X110500Y69000D02*
X120000D01*
X115250Y64250D02*
Y73750D01*
X94750Y69000D02*
X104250D01*
X99500Y64250D02*
Y73750D01*
X37000Y80250D02*
X46500D01*
X41750Y75500D02*
Y85000D01*
X21000Y80250D02*
X30500D01*
X25750Y75500D02*
Y85000D01*
X5000Y80250D02*
X14500D01*
X9750Y75500D02*
Y85000D01*
X376000Y83500D02*
X657000D01*
Y2000D02*
Y83500D01*
X376000Y2000D02*
X657000D01*
X376000D02*
Y83500D01*
X200500Y79250D02*
X387500D01*
Y1750D02*
Y79250D01*
X200500Y1750D02*
X387500D01*
X200500D02*
Y79250D01*
X83750Y84000D02*
Y156250D01*
Y84000D02*
X210750D01*
Y156250D01*
X83750D02*
X210750D01*
X287250Y95000D02*
X362750D01*
X287250Y49000D02*
Y95000D01*
Y49000D02*
X362750D01*
Y95000D01*
X587750Y409000D02*
Y455000D01*
X512250Y409000D02*
X587750D01*
X512250D02*
Y455000D01*
X587750D01*
X161000Y169250D02*
Y179250D01*
X156000Y174250D02*
X166000D01*
X357750Y441250D02*
X367750D01*
X362750Y436250D02*
Y446250D01*
X248452Y302025D02*
X257952D01*
X253202Y297275D02*
Y306775D01*
X358952Y301525D02*
X368452D01*
X363702Y296775D02*
Y306275D01*
X374702Y301525D02*
X384202D01*
X379452Y296775D02*
Y306275D01*
X95250Y167250D02*
Y176750D01*
X90500Y172000D02*
X100000D01*
X75750Y139250D02*
Y148750D01*
X71000Y144000D02*
X80500D01*
X79750Y256500D02*
X89250D01*
X84500Y251750D02*
Y261250D01*
X335500Y376500D02*
Y386000D01*
X330750Y381250D02*
X340250D01*
X337500Y136500D02*
X347000D01*
X342250Y131750D02*
Y141250D01*
X124250Y235750D02*
X133750D01*
X129000Y231000D02*
Y240500D01*
D16*
X363202Y284524D02*
X365702Y282024D01*
D17*
X235702Y284524D02*
X365702D01*
Y154524D02*
Y284524D01*
X235702Y154524D02*
X365702D01*
X235702D02*
Y284524D01*
D108*
X396000Y186750D02*
Y201750D01*
X369000Y186750D02*
Y201750D01*
Y186750D02*
X396000D01*
X369000Y201750D02*
X396000D01*
X174750Y349500D02*
X248250D01*
X174750Y404500D02*
X248250D01*
Y349500D02*
Y404500D01*
X174750Y349500D02*
Y404500D01*
X132500Y207500D02*
X159500D01*
X132500Y192500D02*
X159500D01*
X132500D02*
Y207500D01*
X159500Y192500D02*
Y207500D01*
X104250D02*
X131250D01*
X104250Y192500D02*
X131250D01*
X104250D02*
Y207500D01*
X131250Y192500D02*
Y207500D01*
X203500Y258250D02*
Y273250D01*
X230500Y258250D02*
Y273250D01*
X203500D02*
X230500D01*
X203500Y258250D02*
X230500D01*
X42750Y269000D02*
X69750D01*
X42750Y284000D02*
X69750D01*
Y269000D02*
Y284000D01*
X42750Y269000D02*
Y284000D01*
X293250Y388750D02*
X320250D01*
X293250Y373750D02*
X320250D01*
X293250D02*
Y388750D01*
X320250Y373750D02*
Y388750D01*
X387500Y355750D02*
X402500D01*
X387500Y328750D02*
X402500D01*
Y355750D01*
X387500Y328750D02*
Y355750D01*
X338226D02*
X353226D01*
X338226Y328750D02*
X353226D01*
Y355750D01*
X338226Y328750D02*
Y355750D01*
X354226Y328750D02*
Y352750D01*
X386226Y328750D02*
Y352750D01*
X354226D02*
X386226D01*
X354226Y328750D02*
X386226D01*
X298476Y327000D02*
Y373000D01*
X336476Y327000D02*
Y373000D01*
X298476Y327000D02*
X336476D01*
X298476Y373000D02*
X336476D01*
X323702Y288025D02*
Y315025D01*
X308702Y288025D02*
Y315025D01*
X323702D01*
X308702Y288025D02*
X323702D01*
X396000Y171250D02*
Y186250D01*
X369000Y171250D02*
Y186250D01*
Y171250D02*
X396000D01*
X369000Y186250D02*
X396000D01*
X229202Y288025D02*
Y315025D01*
X214202Y288025D02*
Y315025D01*
X229202D01*
X214202Y288025D02*
X229202D01*
X387702Y288025D02*
X402702D01*
X387702Y315025D02*
X402702D01*
X387702Y288025D02*
Y315025D01*
X402702Y288025D02*
Y315025D01*
X369000Y155500D02*
X396000D01*
X369000Y170500D02*
X396000D01*
Y155500D02*
Y170500D01*
X369000Y155500D02*
Y170500D01*
X396000Y265500D02*
Y280500D01*
X369000Y265500D02*
Y280500D01*
Y265500D02*
X396000D01*
X369000Y280500D02*
X396000D01*
X229952Y315275D02*
X244952D01*
X229952Y288275D02*
X244952D01*
Y315275D01*
X229952Y288275D02*
Y315275D01*
X340452Y288275D02*
Y315275D01*
X355452Y288275D02*
Y315275D01*
X340452Y288275D02*
X355452D01*
X340452Y315275D02*
X355452D01*
X324702Y288275D02*
Y315275D01*
X339702Y288275D02*
Y315275D01*
X324702Y288275D02*
X339702D01*
X324702Y315275D02*
X339702D01*
X369000Y264750D02*
X396000D01*
X369000Y249750D02*
X396000D01*
X369000D02*
Y264750D01*
X396000Y249750D02*
Y264750D01*
X292952Y288275D02*
Y315275D01*
X307952Y288275D02*
Y315275D01*
X292952Y288275D02*
X307952D01*
X292952Y315275D02*
X307952D01*
X277202Y288275D02*
Y315275D01*
X292202Y288275D02*
Y315275D01*
X277202Y288275D02*
X292202D01*
X277202Y315275D02*
X292202D01*
X261452Y288525D02*
Y315525D01*
X276452Y288525D02*
Y315525D01*
X261452Y288525D02*
X276452D01*
X261452Y315525D02*
X276452D01*
X203452Y226775D02*
X230452D01*
X203452Y241775D02*
X230452D01*
Y226775D02*
Y241775D01*
X203452Y226775D02*
Y241775D01*
Y211025D02*
X230452D01*
X203452Y226025D02*
X230452D01*
Y211025D02*
Y226025D01*
X203452Y211025D02*
Y226025D01*
Y195275D02*
X230452D01*
X203452Y210275D02*
X230452D01*
Y195275D02*
Y210275D01*
X203452Y195275D02*
Y210275D01*
Y179525D02*
X230452D01*
X203452Y194525D02*
X230452D01*
Y179525D02*
Y194525D01*
X203452Y179525D02*
Y194525D01*
X271500Y123000D02*
Y150000D01*
X256500Y123000D02*
Y150000D01*
X271500D01*
X256500Y123000D02*
X271500D01*
X287250D02*
Y150000D01*
X272250Y123000D02*
Y150000D01*
X287250D01*
X272250Y123000D02*
X287250D01*
X303000D02*
Y150000D01*
X288000Y123000D02*
Y150000D01*
X303000D01*
X288000Y123000D02*
X303000D01*
X318750D02*
Y150000D01*
X303750Y123000D02*
Y150000D01*
X318750D01*
X303750Y123000D02*
X318750D01*
X334250D02*
Y150000D01*
X319250Y123000D02*
Y150000D01*
X334250D01*
X319250Y123000D02*
X334250D01*
X369000Y217500D02*
X396000D01*
X369000Y202500D02*
X396000D01*
X369000D02*
Y217500D01*
X396000Y202500D02*
Y217500D01*
X369000Y233250D02*
X396000D01*
X369000Y218250D02*
X396000D01*
X369000D02*
Y233250D01*
X396000Y218250D02*
Y233250D01*
X369000Y249000D02*
X396000D01*
X369000Y234000D02*
X396000D01*
X369000D02*
Y249000D01*
X396000Y234000D02*
Y249000D01*
X203500Y242500D02*
X230500D01*
X203500Y257500D02*
X230500D01*
Y242500D02*
Y257500D01*
X203500Y242500D02*
Y257500D01*
X364750Y123000D02*
Y150000D01*
X349750Y123000D02*
Y150000D01*
X364750D01*
X349750Y123000D02*
X364750D01*
X255750D02*
Y150000D01*
X240750Y123000D02*
Y150000D01*
X255750D01*
X240750Y123000D02*
X255750D01*
X250750Y333000D02*
Y348000D01*
X223750Y333000D02*
Y348000D01*
Y333000D02*
X250750D01*
X223750Y348000D02*
X250750D01*
X190750Y221250D02*
Y236250D01*
X163750Y221250D02*
Y236250D01*
Y221250D02*
X190750D01*
X163750Y236250D02*
X190750D01*
X135500Y314750D02*
X150500D01*
X135500Y287750D02*
X150500D01*
Y314750D01*
X135500Y287750D02*
Y314750D01*
X29250Y399750D02*
X56250D01*
X29250Y414750D02*
X56250D01*
Y399750D02*
Y414750D01*
X29250Y399750D02*
Y414750D01*
X150500Y316500D02*
Y343500D01*
X135500Y316500D02*
Y343500D01*
X150500D01*
X135500Y316500D02*
X150500D01*
Y344250D02*
Y371250D01*
X135500Y344250D02*
Y371250D01*
X150500D01*
X135500Y344250D02*
X150500D01*
X166750D02*
Y371250D01*
X151750Y344250D02*
Y371250D01*
X166750D01*
X151750Y344250D02*
X166750D01*
X151750Y316500D02*
Y343500D01*
X166750Y316500D02*
Y343500D01*
X151750Y316500D02*
X166750D01*
X151750Y343500D02*
X166750D01*
X141500Y469750D02*
X156500D01*
X141500Y496750D02*
X156500D01*
X141500Y469750D02*
Y496750D01*
X156500Y469750D02*
Y496750D01*
X141500Y467250D02*
X156500D01*
X141500Y440250D02*
X156500D01*
Y467250D01*
X141500Y440250D02*
Y467250D01*
X259750Y413250D02*
Y428250D01*
X286750Y413250D02*
Y428250D01*
X259750D02*
X286750D01*
X259750Y413250D02*
X286750D01*
X259750Y429000D02*
Y444000D01*
X286750Y429000D02*
Y444000D01*
X259750D02*
X286750D01*
X259750Y429000D02*
X286750D01*
X259750Y444750D02*
Y459750D01*
X286750Y444750D02*
Y459750D01*
X259750D02*
X286750D01*
X259750Y444750D02*
X286750D01*
X259750Y460500D02*
Y475500D01*
X286750Y460500D02*
Y475500D01*
X259750D02*
X286750D01*
X259750Y460500D02*
X286750D01*
X259750Y476250D02*
Y491250D01*
X286750Y476250D02*
Y491250D01*
X259750D02*
X286750D01*
X259750Y476250D02*
X286750D01*
X50000Y56750D02*
Y90750D01*
X85000Y56750D02*
Y90750D01*
X50000Y56750D02*
X85000D01*
X50000Y90750D02*
X85000D01*
X153500Y266000D02*
Y417000D01*
X-17500Y266000D02*
X153500D01*
X-17500D02*
Y417000D01*
X153500D01*
X71500Y269000D02*
Y284000D01*
X98500Y269000D02*
Y284000D01*
X71500D02*
X98500D01*
X71500Y269000D02*
X98500D01*
X58000Y399750D02*
Y414750D01*
X85000Y399750D02*
Y414750D01*
X58000D02*
X85000D01*
X58000Y399750D02*
X85000D01*
X41000Y269000D02*
Y284000D01*
X14000Y269000D02*
Y284000D01*
Y269000D02*
X41000D01*
X14000Y284000D02*
X41000D01*
X138750Y445500D02*
Y460500D01*
X111750Y445500D02*
Y460500D01*
Y445500D02*
X138750D01*
X111750Y460500D02*
X138750D01*
X55000Y445500D02*
X82000D01*
X55000Y460500D02*
X82000D01*
Y445500D02*
Y460500D01*
X55000Y445500D02*
Y460500D01*
X82750Y445500D02*
X109750D01*
X82750Y460500D02*
X109750D01*
Y445500D02*
Y460500D01*
X82750Y445500D02*
Y460500D01*
X22500Y432000D02*
X37500D01*
X22500Y459000D02*
X37500D01*
X22500Y432000D02*
Y459000D01*
X37500Y432000D02*
Y459000D01*
X53750Y432250D02*
Y459250D01*
X38750Y432250D02*
Y459250D01*
X53750D01*
X38750Y432250D02*
X53750D01*
X327450Y470650D02*
X354450D01*
X327450Y485650D02*
X354450D01*
Y470650D02*
Y485650D01*
X327450Y470650D02*
Y485650D01*
X397700Y470650D02*
Y485650D01*
X370700Y470650D02*
Y485650D01*
Y470650D02*
X397700D01*
X370700Y485650D02*
X397700D01*
X146250Y237500D02*
X161250D01*
X146250Y210500D02*
X161250D01*
Y237500D01*
X146250Y210500D02*
Y237500D01*
X142250Y158250D02*
Y190250D01*
X107250Y158250D02*
Y190250D01*
X142250D01*
X107250Y158250D02*
X142250D01*
X163000Y192500D02*
Y219500D01*
X178000Y192500D02*
Y219500D01*
X163000Y192500D02*
X178000D01*
X163000Y219500D02*
X178000D01*
X183000Y158500D02*
Y185500D01*
X198000Y158500D02*
Y185500D01*
X183000Y158500D02*
X198000D01*
X183000Y185500D02*
X198000D01*
X143250Y209250D02*
Y224250D01*
X116250Y209250D02*
Y224250D01*
Y209250D02*
X143250D01*
X116250Y224250D02*
X143250D01*
X70000Y208250D02*
X114000D01*
X70000Y244250D02*
X114000D01*
Y208250D02*
Y244250D01*
X70000Y208250D02*
Y244250D01*
X70500Y179750D02*
X85500D01*
X70500Y206750D02*
X85500D01*
X70500Y179750D02*
Y206750D01*
X85500Y179750D02*
Y206750D01*
X186750Y55500D02*
Y82500D01*
X201750Y55500D02*
Y82500D01*
X186750Y55500D02*
X201750D01*
X186750Y82500D02*
X201750D01*
X171000Y55500D02*
Y82500D01*
X186000Y55500D02*
Y82500D01*
X171000Y55500D02*
X186000D01*
X171000Y82500D02*
X186000D01*
X155250Y55500D02*
Y82500D01*
X170250Y55500D02*
Y82500D01*
X155250Y55500D02*
X170250D01*
X155250Y82500D02*
X170250D01*
X139250Y55500D02*
X154250D01*
X139250Y82500D02*
X154250D01*
X139250Y55500D02*
Y82500D01*
X154250Y55500D02*
Y82500D01*
X123500Y55500D02*
Y82500D01*
X138500Y55500D02*
Y82500D01*
X123500Y55500D02*
X138500D01*
X123500Y82500D02*
X138500D01*
X107750Y55500D02*
Y82500D01*
X122750Y55500D02*
Y82500D01*
X107750Y55500D02*
X122750D01*
X107750Y82500D02*
X122750D01*
X92000Y55500D02*
Y82500D01*
X107000Y55500D02*
Y82500D01*
X92000Y55500D02*
X107000D01*
X92000Y82500D02*
X107000D01*
X34250Y66750D02*
Y93750D01*
X49250Y66750D02*
Y93750D01*
X34250Y66750D02*
X49250D01*
X34250Y93750D02*
X49250D01*
X18250Y66750D02*
Y93750D01*
X33250Y66750D02*
Y93750D01*
X18250Y66750D02*
X33250D01*
X18250Y93750D02*
X33250D01*
X17250Y66750D02*
Y93750D01*
X2250Y66750D02*
Y93750D01*
X17250D01*
X2250Y66750D02*
X17250D01*
X143500Y190250D02*
X178500D01*
X143500Y158250D02*
X178500D01*
Y190250D01*
X143500Y158250D02*
Y190250D01*
X326700Y413250D02*
Y469250D01*
X398800Y413250D02*
Y469250D01*
X326700D02*
X398800D01*
X326700Y413250D02*
X398800D01*
X157250Y402250D02*
Y503250D01*
Y402250D02*
X258250D01*
Y503250D01*
X157250D02*
X258250D01*
X245702Y288525D02*
Y315525D01*
X260702Y288525D02*
Y315525D01*
X245702Y288525D02*
X260702D01*
X245702Y315525D02*
X260702D01*
X356202Y288025D02*
Y315025D01*
X371202Y288025D02*
Y315025D01*
X356202Y288025D02*
X371202D01*
X356202Y315025D02*
X371202D01*
X371952Y288025D02*
Y315025D01*
X386952Y288025D02*
Y315025D01*
X371952Y288025D02*
X386952D01*
X371952Y315025D02*
X386952D01*
X87750Y185500D02*
X102750D01*
X87750Y158500D02*
X102750D01*
Y185500D01*
X87750Y158500D02*
Y185500D01*
X68250Y157500D02*
X83250D01*
X68250Y130500D02*
X83250D01*
Y157500D01*
X68250Y130500D02*
Y157500D01*
X98000Y249000D02*
Y264000D01*
X71000Y249000D02*
Y264000D01*
Y249000D02*
X98000D01*
X71000Y264000D02*
X98000D01*
X322000Y388750D02*
X349000D01*
X322000Y373750D02*
X349000D01*
X322000D02*
Y388750D01*
X349000Y373750D02*
Y388750D01*
X349750Y123000D02*
Y150000D01*
X334750Y123000D02*
Y150000D01*
X349750D01*
X334750Y123000D02*
X349750D01*
X142500Y228250D02*
Y243250D01*
X115500Y228250D02*
Y243250D01*
Y228250D02*
X142500D01*
X115500Y243250D02*
X142500D01*
M02*
