M48
;Layer_Color=9474304
;FILE_FORMAT=4:4
METRIC,LZ
;TYPE=PLATED
T1F00S00C0.2000
T2F00S00C0.2000
T3F00S00C0.2500
T4F00S00C0.3000
T5F00S00C0.5000
T7F00S00C0.9000
T8F00S00C1.0000
T9F00S00C3.0000
%
T01
X000252Y000282
X00031Y0005225
X0002875Y000575
Y000645
X000175
Y000575
X0000475
Y000645
X0000975Y000935
X0002575Y000935
X0004175
X000808Y001055
X0010525Y0012
X0011625
X0013Y00117
X00131Y00047
X001289Y000391
X001153Y00047
X000995
X000647Y0003
X001535Y000259
X001628Y00047
X001785Y000467
X001861Y00047
X002027Y000311
X001964Y000082
X00238Y000225
X0024125Y0002575
X002515Y0004775
X002615
X002715
X002815
X002865
X002965
X003015
X003065
X003115
X003165
X003215
X0033175Y0004775
X003365Y0004775
X003415
X00330016Y00041502
X0032525Y0004
X0029575Y0004125
X0029175
X002915Y0006675
X002765
X002665
X00256Y0006675
X002455Y0007275
X00252Y0008025
X002325Y000825
X00228
X002235
X00219011Y00082504
X002145Y000825
X0021125Y000935
X002256Y000924
X002376Y000946
X0027025Y0009875
X002735Y0010175
X0027675Y0010475
X002805Y0010775
X0028375Y00111
X00286764Y00114506
X0029025Y0011775
X0027225
X002575Y0011175
X00239012Y00134257
X002182Y001141
X0018225Y0012
X0017125
X0016
X001495Y0011275
Y0010625
X0013825Y0012
X002775Y00085
X002695Y0007475
X00326Y000745
X003305
X00335
X0033975Y0010275
X0034325Y00106
X0034425Y0011125
X0033975
X0033525
X00330766Y00111255
X0037675Y001275
X0038375Y0012725
X0039075Y001275
X00418Y0012
X00419Y000915
Y00088
X00424Y000745
X00429
X00434
X00439
X00444
X00449
X00454
X00459
X004678Y000912
X004603Y001049
X00495Y001097
X004994Y000928
X00514Y000745
X00519
X00524
X00529
X005239Y000477
X00504Y000555
X00499
X00494
X00489
X00484
X00479
X00474
X00469
X004048Y000036
X003853Y000116
X003601Y000174
X002983Y000065
X005439Y000059
X005416Y000151
X00559Y000555
X00564
X00584
X00589
X00594
X00599
X00604
X00609
X00614
X00574Y000745
X00564Y000785
X005562Y000774
X00549Y000745
X00544
X00539
X00534
X005435Y000982
X005677Y000994
X005557Y001127
X00548Y00124
X005735Y001191
X0062175Y0012275
X005769Y001502
X005816Y001763
X005755Y0019
X005762Y002099
X005685Y0021375
X005428Y002135
X005473Y002041
X00548Y001941
X005549Y001698
X005466Y001514
X005418Y002378
X005366Y002475
X005345Y00262474
X005504Y002735
X005416Y002893
X005366Y00303
X0054725Y003281
X005465Y003432
X005386Y003479
X005469Y003581
X00544Y003671
X005433Y003801
X005733Y0038335
X0057Y003924
X0056875Y00405
X005705Y0043575
X0056675
X00563
X00545Y0046
Y004651
X005509Y00471
X0053425Y0047275
X005729Y003696
X005841Y003656
X00595Y003754
X006293Y003866
X006434Y003938
X006253Y003147
X00621Y002872
X006355Y002883
X005998Y002832
X005854Y00269
X005711Y002673
X005747Y002579
X005744Y002464
X005844Y00242726
X006243Y002352
X006253Y002106
X005715Y002807
X005761Y002981
X005907Y003158
X005799Y003276
X005142Y003244
X005118Y003093
X005027Y003127
X004918Y00315
X004803Y003156
X004626Y00319
X004489Y003082
X0045Y002859
X004584Y002802
X004641Y002731
X004671Y00264
X004741Y002579
X004839Y002484
X005102Y002458
X00514Y002602
X005104Y002942
X004815Y003442
X004672Y003666
X005121Y003788
X004924Y004021
X004363Y004238
X00397176Y004222
Y004349
Y004476
X004036Y004707
X00397176Y0047815
X004031Y004919
X003618Y004879
X00353676Y0047815
X00328324Y004603
Y004476
Y004349
Y004222
X003166Y004118
X00306Y004035
X002665Y004125
X0027075Y0043625
X002715Y004525
X002615Y0045525
X0026175Y0046775
X00261861Y00485
X00271Y004835
X0023575Y0048075
Y0048875
X0022775
X0021975
Y0048075
X0022775
Y0047275
Y0046475
X0021975
Y0047275
Y0045675
X0022775
X00236323Y00457323
X0023575Y0046475
Y0047275
X00235641Y00447495
X00235762Y00439521
Y00431521
X0023575Y0042475
X0022775
X00227177Y00432177
X0021975Y0043275
Y0042475
Y0044075
X00219761Y00448522
X0022775Y0044075
X0018775
Y0044875
X0019575Y0044875
X0017975Y0044875
Y0044075
Y0043275
Y0042475
X0018775
X00187177Y00432177
X0017175Y0043275
Y0044075
Y0044875
Y0042475
X00138Y0043625
X00180509Y00464023
X0018775Y0046475
Y0047275
Y0048075
Y0048875
X0017975
Y0048075
X0017175Y0048875
X00164236Y00491236
X0016925Y00358273
Y003505
X0017725Y0034375
X001745Y00341
X0017175Y0033825
Y0033425
Y0033025
X0017575
X0017975
X0018125Y0033425
X00176036Y0033525
X001785Y00339
X001655Y00336524
X00165476Y003235
X00168Y00314
X0018875Y0030675
Y0030225
Y0029775
Y0029325
Y0028875
Y0028425
X00188759Y00279764
X0018875Y0027525
Y0026525
Y0026075
X0016975Y002385
X00167Y00222
X0016425Y0021975
X0016225Y00217
X0016175Y0022275
X00164Y0022475
X00159Y0022025
X00194441Y00213438
X0019701Y002098
X0021775Y002325
X0023075Y00233
X00240702Y00231525
X00248702
Y00239526
X00256262Y00239262
X00256702Y00231317
Y00223372
X00264702Y00223524
X00272702
X00280702
Y00231525
X00272702
X00264702
Y00239526
X00272702
X00280702
X00288702
Y00247527
X00280702
X00272702
X00264763Y00247512
X00256702Y00247527
X00248702
X00240702
Y00239526
Y00223524
X00248702
Y00207523
X00240702
Y00199522
X00248702
X00256702
Y00207523
X00264702
X00272702
X00280702
Y00199522
X00288702
Y00191521
X00280702
X00272702
X00264702
X00264513Y0019926
X00272702Y00199522
Y0018352
X00264702
X00256702
X00248702
X00240702
Y00175519
X00248702
X00256702
X00264702
X00272702
X00280702
X00288702
Y00167518
X00280702
X00272702
X00264702
X00256702
X00248702
X00240702
X0024Y001595
X00248702Y00159517
X00256702
X00264702
X00272702
X00280702
X00288702
X00304702
X00312702
X00320702
X00328702
X00336702
X00344702
X00352702
X00360702
Y00167518
X00352702
X00344702
X00336702
X00328702
X00320702
X00312702
X00304702
Y00175519
X00312702
X00320702
X00328702
Y0018352
X00320702
X00312702
X00304702
Y00191521
X00312702
X00320702
X00328702
X00336702
X00336766Y00184009
X00344702Y0018352
X00352702
X00360702
Y00191521
X00352702
X00344702
Y00199522
X00336702
X00328702
X00320702
X00312702
X00304702
X00320702Y00207523
X00328702
X00336702
X00344702
X00352702
X00360702
X00367Y002075
X00360702Y00199522
X00352702
Y00223524
X00360702
Y00231525
X00352702
X00344702
X00336702
X00328702
X00320702
Y00223524
X00328702
X00336702
X00344702
Y00239526
X00336702
X00328702
X00320702
X00312702
X00304702
Y00247527
X00312702
X00320702
X00328702
X00336702
X00344702
X00352702
X00360702
Y00239526
X00352702
Y00255528
X00360702
Y00263529
X00352702
X00344702
X00336702
X00328702
X00320702
X00312702
X00305317Y00262913
X00304702Y00255528
X00312702
X00320702
X00328702
X00336702
X00344702
Y0027153
X00336702
X00328702
X00320702
X00312702
X00304086Y00272146
X00288702Y0027153
X00280702
X00272702
X00264702
X00256702
X00248702
Y00263529
X00240702
Y00255528
X00248702
X00256702
X00264702
X00272702
X00280702
X00288702
Y00263529
X00280702
X00272702
X00264702
X00256702
Y00279531
X00264702
X0026575Y00286
X00272702Y00279531
X00280702
X00288702
X00320702
X00328702
X00336702
X00344702
X00352702
X00360702
Y0027153
X00352702
X00363702Y00288549
X003536Y002993
X0035425Y00321062
X0034575Y0032925
X0033975Y0032375
X00336702Y003195
X003244Y002971
X00288699Y00322499
X0028075Y0032175
Y003295
X002775Y00345
X00273
X0026825
X0026325
X00261Y003275
X0022125
Y0033075
X00218
Y00334
X00214637
X0021475Y0033075
Y003275
X00218
X0021125
Y0033075
Y00334
X0020775
Y0033075
Y003275
X002Y0031975
X0022175Y00315
X00240702Y00279531
X002295Y0025
X00240702Y00191521
X00248702
X00256702
X00280702Y0018352
X00288702
X00337267Y00176009
X00344702Y00175519
X00352702
X00360702
X0036775Y001685
X00369Y00182
X00367Y0014875
Y0014325
X0037125Y00145884
Y001405
X0037675Y001395
X0038375Y001395
X0039075
X0041325Y00141
X004175
X004215
X004255
X0041375Y001515
Y00156
Y001605
Y00165
Y001695
Y00174
Y00178603
X004363Y001776
X004523Y001736
X004431Y001599
X004552Y001433
X004746Y001519
X004826Y001422
X004895Y001822
X004769Y001942
X004735Y002237
X004623Y002254
X004524Y002237
X004445Y002253
X004461Y002319
X00446Y002441
X004432Y002518
X004399Y002611
X0042775Y002645
X004206Y002564
X004271Y00249
X004327Y002422
X004388Y002376
X00456Y002382
X004665Y002338
X004446Y001916
X004292Y001925
X004057Y002444
X003965Y00268
Y00273
X003935Y002825
X00391667Y00286874
X003855Y0028525
X0038035Y0025725
X0036875Y0024325
X0036825Y0022475
X00352702Y0015075
X0023375Y001555
X002181Y001587
X002179Y001685
X0022575Y00175519
X0023125Y001725
X001672Y00149
X00143Y00345
X00295Y00358
X0032075Y00355
X0033875Y0037125
X00343763Y00371289
X0034475Y003915
X003545Y00392
Y003965
X003647Y003751
X003862Y003766
X004059Y004118
X004231Y003419
X00395Y00329274
X00401Y00303
X004294Y003002
X004162Y002784
X003166Y004564
X003172Y004862
X003052Y004891
X0052075Y0048125
X0052525
X0052975
Y0047275
X0052525
X0052075
X001335Y0043625
X000974Y00477
X001042Y004902
X000407Y004833
X000275Y004753
X000485Y004625
X000052Y004473
X00030024Y0040725
X00029Y003705
X00039
X00049
X00059
X00069
X00079
Y003605
Y003505
Y003405
X00069
Y003505
X00059
Y003405
Y003305
X00069
Y003205
X00059
Y003105
X00069
X00079Y003205
X00089
Y003305
Y003405
Y003505
X00099
Y003405
Y003305
X00098755Y00320766
X00079Y003305
X00049
X00039
X00029
Y003405
Y003505
X00039
Y003405
X00049
Y003505
Y003605
X00039
X00029
X00059
X00069
X00089
X00089004Y00370268
X00099005
X00099Y003605
X0005725Y0038025
X00039Y003205
X00038Y003125
Y00308
X00023Y0030675
X000185
X00014
X000095
X0000475
X00005Y002945
X000095
X00014
X000185
X00023
Y002503
X0004075Y00256
X00037875Y00261875
X0005225Y00244
X000092Y002309
X000104Y001754
X00055Y001588
T02
X0020975Y000775
X0026575Y0004125
X00604722Y0012275
X00609111
X006135
X00403Y002285
X003994Y00248854
X0037275Y0042625
Y0043625
Y0044625
Y0045625
X0036275
X0035275
Y0044625
Y0043625
X0036275
Y0044625
Y0042625
X0035275
X002905Y0039298
X0027Y003385
X001845Y00330861
X0016675Y0029825
X001613Y003021
X0022075Y0027925
X0020001Y00240012
X0013425Y0017775
X0003075Y0026525
X0004925Y004145
X0005575Y0043925
X0011825Y0043625
T03
X0035075Y0008875
X00350599Y000938
X005555Y00133
Y00138
Y00143
X00504Y00166
Y001695
Y001735
X005242Y004123
Y004173
Y004223
X0050395Y004573
Y004623
Y004673
X00062Y00442
X0006775Y00432
X00096005Y0021576
X00092Y0021175
X001035Y0015125
X00111
T04
X001395Y001715
X0014425Y00176
T05
X000365Y004659
Y004955
X0010625
Y004659
T07
X006123Y001753
Y002007
Y002261
Y002515
Y002769
Y003023
Y003277
Y003531
Y003785
Y004039
Y0042905
Y004547
X006377
Y004293
Y004039
Y003785
Y003531
Y003277
Y003023
Y002769
Y002515
Y002261
Y002007
Y001753
T08
X0002925Y0012275
Y0014775
Y002035
Y002285
T09
X0062975Y0015
X0042975Y0048
M30
