G04*
G04 #@! TF.GenerationSoftware,Altium Limited,Altium Designer,19.0.11 (319)*
G04*
G04 Layer_Physical_Order=2*
G04 Layer_Color=16711680*
%FSLAX44Y44*%
%MOMM*%
G71*
G01*
G75*
%ADD12C,0.2000*%
%ADD15C,0.1270*%
%ADD110C,0.5000*%
%ADD114C,1.5000*%
%ADD115R,1.5000X1.5000*%
%ADD116C,1.6250*%
%ADD117C,2.4000*%
%ADD118C,1.5300*%
%ADD119C,1.4000*%
%ADD120P,1.9799X4X50.0*%
%ADD121C,1.9500*%
G04:AMPARAMS|DCode=122|XSize=1.75mm|YSize=2.5mm|CornerRadius=0mm|HoleSize=0mm|Usage=FLASHONLY|Rotation=178.800|XOffset=0mm|YOffset=0mm|HoleType=Round|Shape=Round|*
%AMOVALD122*
21,1,0.7500,1.7500,0.0000,0.0000,268.8*
1,1,1.7500,0.0079,0.3749*
1,1,1.7500,-0.0079,-0.3749*
%
%ADD122OVALD122*%

%ADD123C,5.0000*%
G04:AMPARAMS|DCode=124|XSize=1.75mm|YSize=2.5mm|CornerRadius=0mm|HoleSize=0mm|Usage=FLASHONLY|Rotation=176.000|XOffset=0mm|YOffset=0mm|HoleType=Round|Shape=Round|*
%AMOVALD124*
21,1,0.7500,1.7500,0.0000,0.0000,266.0*
1,1,1.7500,0.0262,0.3741*
1,1,1.7500,-0.0262,-0.3741*
%
%ADD124OVALD124*%

G04:AMPARAMS|DCode=125|XSize=1.75mm|YSize=2.5mm|CornerRadius=0mm|HoleSize=0mm|Usage=FLASHONLY|Rotation=175.000|XOffset=0mm|YOffset=0mm|HoleType=Round|Shape=Round|*
%AMOVALD125*
21,1,0.7500,1.7500,0.0000,0.0000,265.0*
1,1,1.7500,0.0327,0.3736*
1,1,1.7500,-0.0327,-0.3736*
%
%ADD125OVALD125*%

G04:AMPARAMS|DCode=126|XSize=1.75mm|YSize=2.5mm|CornerRadius=0mm|HoleSize=0mm|Usage=FLASHONLY|Rotation=177.300|XOffset=0mm|YOffset=0mm|HoleType=Round|Shape=Round|*
%AMOVALD126*
21,1,0.7500,1.7500,0.0000,0.0000,267.3*
1,1,1.7500,0.0177,0.3746*
1,1,1.7500,-0.0177,-0.3746*
%
%ADD126OVALD126*%

%ADD127C,0.4500*%
%ADD128C,0.8000*%
%ADD129C,1.0000*%
%ADD130C,0.6000*%
%ADD131C,1.2700*%
G36*
X134493Y1466680D02*
X219015Y1464695D01*
X303507Y1461719D01*
X387959Y1457751D01*
X472358Y1452792D01*
X556693Y1446843D01*
X640953Y1439904D01*
X683039Y1435940D01*
X683039Y1435940D01*
X685462Y1435711D01*
X690268Y1434943D01*
X695015Y1433866D01*
X699185Y1432632D01*
X699067Y1431343D01*
X698653Y1431300D01*
X692140Y1429917D01*
X685884Y1427637D01*
X680009Y1424505D01*
X674629Y1420582D01*
X669850Y1415945D01*
X665767Y1410685D01*
X662460Y1404906D01*
X659993Y1398722D01*
X658415Y1392253D01*
X657757Y1385627D01*
X658032Y1378975D01*
X659234Y1372426D01*
X661341Y1366109D01*
X664310Y1360150D01*
X668083Y1354664D01*
X672587Y1349759D01*
X677732Y1345533D01*
X683417Y1342067D01*
X689531Y1339430D01*
X695954Y1337675D01*
X702559Y1336834D01*
X709217Y1336926D01*
X715796Y1337947D01*
X722168Y1339879D01*
X728208Y1342682D01*
X733796Y1346303D01*
X738822Y1350669D01*
X743189Y1355696D01*
X746811Y1361283D01*
X749615Y1367323D01*
X751547Y1373694D01*
X752803Y1373503D01*
X753486Y1369236D01*
X754164Y1364052D01*
X754692Y1358850D01*
X754882Y1356243D01*
X754882D01*
Y433753D01*
X753612Y433628D01*
X752933Y437039D01*
X750857Y443155D01*
X748001Y448948D01*
X744412Y454318D01*
X740154Y459174D01*
X735298Y463432D01*
X729928Y467021D01*
X724135Y469877D01*
X718019Y471953D01*
X711685Y473213D01*
X705240Y473636D01*
X698795Y473213D01*
X692461Y471953D01*
X686345Y469877D01*
X680552Y467021D01*
X675182Y463432D01*
X670326Y459174D01*
X666068Y454318D01*
X662479Y448948D01*
X659623Y443155D01*
X657547Y437039D01*
X656287Y430705D01*
X655864Y424260D01*
X656287Y417815D01*
X657547Y411481D01*
X659623Y405365D01*
X662479Y399572D01*
X666068Y394202D01*
X670326Y389346D01*
X675182Y385088D01*
X680552Y381499D01*
X686345Y378643D01*
X692461Y376567D01*
X698795Y375307D01*
X705240Y374884D01*
X711685Y375307D01*
X718019Y376567D01*
X724135Y378643D01*
X729928Y381499D01*
X735298Y385088D01*
X740154Y389346D01*
X744412Y394202D01*
X748001Y399572D01*
X750857Y405365D01*
X752933Y411481D01*
X753612Y414892D01*
X754882Y414767D01*
Y-507738D01*
X754995Y-510367D01*
X754768Y-515624D01*
X754089Y-520842D01*
X752963Y-525983D01*
X752959Y-525995D01*
X751691Y-525923D01*
X751557Y-525222D01*
X749631Y-518849D01*
X746833Y-512807D01*
X743217Y-507216D01*
X738855Y-502185D01*
X733832Y-497814D01*
X728247Y-494188D01*
X722211Y-491379D01*
X715840Y-489441D01*
X709262Y-488413D01*
X702604Y-488316D01*
X695998Y-489150D01*
X689574Y-490899D01*
X683457Y-493530D01*
X677768Y-496991D01*
X672620Y-501212D01*
X668112Y-506113D01*
X664333Y-511595D01*
X661358Y-517552D01*
X659246Y-523866D01*
X658037Y-530414D01*
X657756Y-537067D01*
X658408Y-543693D01*
X659980Y-550163D01*
X662441Y-556350D01*
X665743Y-562132D01*
X669821Y-567395D01*
X674595Y-572037D01*
X679971Y-575965D01*
X685844Y-579103D01*
X692098Y-581388D01*
X698610Y-582777D01*
X698509Y-584044D01*
X694892Y-584955D01*
X690169Y-586030D01*
X685423Y-586995D01*
X683039Y-587423D01*
X683039Y-587423D01*
X683039Y-587423D01*
X649394Y-590967D01*
X582035Y-597347D01*
X514612Y-603020D01*
X447134Y-607985D01*
X379607Y-612242D01*
X312039Y-615790D01*
X244438Y-618629D01*
X176810Y-620758D01*
X109164Y-622177D01*
X41507Y-622887D01*
X-26154Y-622886D01*
X-93812Y-622176D01*
X-161458Y-620755D01*
X-229085Y-618624D01*
X-296686Y-615785D01*
X-364254Y-612235D01*
X-431781Y-607977D01*
X-499259Y-603011D01*
X-566682Y-597336D01*
X-634041Y-590955D01*
X-667686Y-587411D01*
X-670090Y-587158D01*
X-674859Y-586366D01*
X-679574Y-585293D01*
X-683643Y-584108D01*
X-683527Y-582819D01*
X-683179Y-582783D01*
X-676666Y-581400D01*
X-670410Y-579120D01*
X-664535Y-575988D01*
X-659155Y-572065D01*
X-654376Y-567428D01*
X-650293Y-562168D01*
X-646986Y-556389D01*
X-644519Y-550205D01*
X-642941Y-543736D01*
X-642283Y-537110D01*
X-642558Y-530457D01*
X-643761Y-523909D01*
X-645868Y-517592D01*
X-648837Y-511632D01*
X-652610Y-506147D01*
X-657113Y-501242D01*
X-662258Y-497015D01*
X-667944Y-493550D01*
X-674058Y-490913D01*
X-680481Y-489158D01*
X-687086Y-488317D01*
X-693744Y-488409D01*
X-700323Y-489431D01*
X-706695Y-491362D01*
X-712735Y-494166D01*
X-718323Y-497787D01*
X-723349Y-502153D01*
X-727716Y-507179D01*
X-731337Y-512767D01*
X-734141Y-518806D01*
X-736074Y-525178D01*
X-736126Y-525454D01*
X-737419Y-525452D01*
X-738312Y-520722D01*
X-738990Y-515500D01*
X-739369Y-510249D01*
X-739408Y-507617D01*
X-739408D01*
Y414796D01*
X-738138Y414921D01*
X-737453Y411481D01*
X-735377Y405365D01*
X-732521Y399572D01*
X-728932Y394202D01*
X-724674Y389346D01*
X-719818Y385088D01*
X-714448Y381499D01*
X-708655Y378643D01*
X-702539Y376567D01*
X-696205Y375307D01*
X-689760Y374884D01*
X-683315Y375307D01*
X-676981Y376567D01*
X-670865Y378643D01*
X-665072Y381499D01*
X-659702Y385088D01*
X-654846Y389346D01*
X-650588Y394202D01*
X-646999Y399572D01*
X-644143Y405365D01*
X-642067Y411481D01*
X-640807Y417815D01*
X-640384Y424260D01*
X-640807Y430705D01*
X-642067Y437039D01*
X-644143Y443155D01*
X-646999Y448948D01*
X-650588Y454318D01*
X-654846Y459174D01*
X-659702Y463432D01*
X-665072Y467021D01*
X-670865Y469877D01*
X-676981Y471953D01*
X-683315Y473213D01*
X-689760Y473636D01*
X-696205Y473213D01*
X-702539Y471953D01*
X-708655Y469877D01*
X-714448Y467021D01*
X-719818Y463432D01*
X-724674Y459174D01*
X-728932Y454318D01*
X-732521Y448948D01*
X-735377Y443155D01*
X-737453Y437039D01*
X-738138Y433598D01*
X-739408Y433723D01*
Y1356133D01*
X-739380Y1358771D01*
X-739014Y1364035D01*
X-738337Y1369269D01*
X-737432Y1374030D01*
X-736139Y1374031D01*
X-736084Y1373739D01*
X-734157Y1367365D01*
X-731359Y1361323D01*
X-727743Y1355732D01*
X-723381Y1350701D01*
X-718359Y1346330D01*
X-712774Y1342704D01*
X-706738Y1339895D01*
X-700367Y1337957D01*
X-693789Y1336929D01*
X-687131Y1336831D01*
X-680525Y1337665D01*
X-674101Y1339415D01*
X-667984Y1342046D01*
X-662295Y1345506D01*
X-657146Y1349728D01*
X-652638Y1354628D01*
X-648860Y1360110D01*
X-645885Y1366067D01*
X-643772Y1372382D01*
X-642564Y1378929D01*
X-642282Y1385582D01*
X-642934Y1392208D01*
X-644506Y1398679D01*
X-646967Y1404866D01*
X-650269Y1410647D01*
X-654347Y1415911D01*
X-659121Y1420552D01*
X-664497Y1424480D01*
X-670370Y1427618D01*
X-676624Y1429904D01*
X-683136Y1431293D01*
X-683400Y1431321D01*
X-683512Y1432610D01*
X-679526Y1433743D01*
X-674823Y1434817D01*
X-670070Y1435642D01*
X-667674Y1435928D01*
X-625588Y1439893D01*
X-541329Y1446834D01*
X-456994Y1452784D01*
X-372595Y1457745D01*
X-288143Y1461714D01*
X-203651Y1464692D01*
X-119129Y1466678D01*
X-34590Y1467671D01*
X49954Y1467671D01*
X134493Y1466680D01*
D02*
G37*
%LPC*%
G36*
X657740Y1220627D02*
X652833Y1220240D01*
X648047Y1219091D01*
X643500Y1217208D01*
X639303Y1214636D01*
X635560Y1211440D01*
X632364Y1207697D01*
X629792Y1203500D01*
X627909Y1198953D01*
X626759Y1194167D01*
X626373Y1189260D01*
X626759Y1184353D01*
X627909Y1179567D01*
X629792Y1175020D01*
X632364Y1170823D01*
X635560Y1167080D01*
X639303Y1163884D01*
X643500Y1161312D01*
X648047Y1159428D01*
X652833Y1158279D01*
X657740Y1157893D01*
X662647Y1158279D01*
X667433Y1159428D01*
X671980Y1161312D01*
X676177Y1163884D01*
X679920Y1167080D01*
X683116Y1170823D01*
X685688Y1175020D01*
X687571Y1179567D01*
X688720Y1184353D01*
X689107Y1189260D01*
X688720Y1194167D01*
X687571Y1198953D01*
X685688Y1203500D01*
X683116Y1207697D01*
X679920Y1211440D01*
X676177Y1214636D01*
X671980Y1217208D01*
X667433Y1219091D01*
X662647Y1220240D01*
X657740Y1220627D01*
D02*
G37*
G36*
X-642260D02*
X-647167Y1220240D01*
X-651953Y1219091D01*
X-656500Y1217208D01*
X-660697Y1214636D01*
X-664440Y1211440D01*
X-667636Y1207697D01*
X-670208Y1203500D01*
X-672092Y1198953D01*
X-673241Y1194167D01*
X-673627Y1189260D01*
X-673241Y1184353D01*
X-672092Y1179567D01*
X-670208Y1175020D01*
X-667636Y1170823D01*
X-664440Y1167080D01*
X-660697Y1163884D01*
X-656500Y1161312D01*
X-651953Y1159428D01*
X-647167Y1158279D01*
X-642260Y1157893D01*
X-637353Y1158279D01*
X-632567Y1159428D01*
X-628020Y1161312D01*
X-623823Y1163884D01*
X-620080Y1167080D01*
X-616884Y1170823D01*
X-614312Y1175020D01*
X-612429Y1179567D01*
X-611279Y1184353D01*
X-610893Y1189260D01*
X-611279Y1194167D01*
X-612429Y1198953D01*
X-614312Y1203500D01*
X-616884Y1207697D01*
X-620080Y1211440D01*
X-623823Y1214636D01*
X-628020Y1217208D01*
X-632567Y1219091D01*
X-637353Y1220240D01*
X-642260Y1220627D01*
D02*
G37*
G36*
X657740Y710627D02*
X652833Y710240D01*
X648047Y709091D01*
X643500Y707208D01*
X639303Y704636D01*
X635560Y701440D01*
X632364Y697697D01*
X629792Y693500D01*
X627909Y688953D01*
X626759Y684167D01*
X626373Y679260D01*
X626759Y674353D01*
X627909Y669567D01*
X629792Y665020D01*
X632364Y660823D01*
X635560Y657080D01*
X639303Y653884D01*
X643500Y651312D01*
X648047Y649428D01*
X652833Y648279D01*
X657740Y647893D01*
X662647Y648279D01*
X667433Y649428D01*
X671980Y651312D01*
X676177Y653884D01*
X679920Y657080D01*
X683116Y660823D01*
X685688Y665020D01*
X687571Y669567D01*
X688720Y674353D01*
X689107Y679260D01*
X688720Y684167D01*
X687571Y688953D01*
X685688Y693500D01*
X683116Y697697D01*
X679920Y701440D01*
X676177Y704636D01*
X671980Y707208D01*
X667433Y709091D01*
X662647Y710240D01*
X657740Y710627D01*
D02*
G37*
G36*
X-642260D02*
X-647167Y710240D01*
X-651953Y709091D01*
X-656500Y707208D01*
X-660697Y704636D01*
X-664440Y701440D01*
X-667636Y697697D01*
X-670208Y693500D01*
X-672092Y688953D01*
X-673241Y684167D01*
X-673627Y679260D01*
X-673241Y674353D01*
X-672092Y669567D01*
X-670208Y665020D01*
X-667636Y660823D01*
X-664440Y657080D01*
X-660697Y653884D01*
X-656500Y651312D01*
X-651953Y649428D01*
X-647167Y648279D01*
X-642260Y647893D01*
X-637353Y648279D01*
X-632567Y649428D01*
X-628020Y651312D01*
X-623823Y653884D01*
X-620080Y657080D01*
X-616884Y660823D01*
X-614312Y665020D01*
X-612429Y669567D01*
X-611279Y674353D01*
X-610893Y679260D01*
X-611279Y684167D01*
X-612429Y688953D01*
X-614312Y693500D01*
X-616884Y697697D01*
X-620080Y701440D01*
X-623823Y704636D01*
X-628020Y707208D01*
X-632567Y709091D01*
X-637353Y710240D01*
X-642260Y710627D01*
D02*
G37*
G36*
X657740Y200627D02*
X652833Y200240D01*
X648047Y199091D01*
X643500Y197208D01*
X639303Y194636D01*
X635560Y191440D01*
X632364Y187697D01*
X629792Y183500D01*
X627909Y178953D01*
X626759Y174167D01*
X626373Y169260D01*
X626759Y164353D01*
X627909Y159567D01*
X629792Y155020D01*
X632364Y150823D01*
X635560Y147080D01*
X639303Y143884D01*
X643500Y141312D01*
X648047Y139429D01*
X652833Y138279D01*
X657740Y137893D01*
X662647Y138279D01*
X667433Y139429D01*
X671980Y141312D01*
X676177Y143884D01*
X679920Y147080D01*
X683116Y150823D01*
X685688Y155020D01*
X687571Y159567D01*
X688720Y164353D01*
X689107Y169260D01*
X688720Y174167D01*
X687571Y178953D01*
X685688Y183500D01*
X683116Y187697D01*
X679920Y191440D01*
X676177Y194636D01*
X671980Y197208D01*
X667433Y199091D01*
X662647Y200240D01*
X657740Y200627D01*
D02*
G37*
G36*
X-642260D02*
X-647167Y200240D01*
X-651953Y199091D01*
X-656500Y197208D01*
X-660697Y194636D01*
X-664440Y191440D01*
X-667636Y187697D01*
X-670208Y183500D01*
X-672092Y178953D01*
X-673241Y174167D01*
X-673627Y169260D01*
X-673241Y164353D01*
X-672092Y159567D01*
X-670208Y155020D01*
X-667636Y150823D01*
X-664440Y147080D01*
X-660697Y143884D01*
X-656500Y141312D01*
X-651953Y139429D01*
X-647167Y138279D01*
X-642260Y137893D01*
X-637353Y138279D01*
X-632567Y139429D01*
X-628020Y141312D01*
X-623823Y143884D01*
X-620080Y147080D01*
X-616884Y150823D01*
X-614312Y155020D01*
X-612429Y159567D01*
X-611279Y164353D01*
X-610893Y169260D01*
X-611279Y174167D01*
X-612429Y178953D01*
X-614312Y183500D01*
X-616884Y187697D01*
X-620080Y191440D01*
X-623823Y194636D01*
X-628020Y197208D01*
X-632567Y199091D01*
X-637353Y200240D01*
X-642260Y200627D01*
D02*
G37*
G36*
X-228300Y-27154D02*
X-230589Y-27456D01*
X-232723Y-28339D01*
X-234555Y-29745D01*
X-235961Y-31577D01*
X-236844Y-33711D01*
X-237146Y-36000D01*
X-236844Y-38289D01*
X-235961Y-40423D01*
X-234555Y-42255D01*
X-232723Y-43661D01*
X-230589Y-44544D01*
X-228300Y-44846D01*
X-226011Y-44544D01*
X-223877Y-43661D01*
X-222045Y-42255D01*
X-220639Y-40423D01*
X-219756Y-38289D01*
X-219454Y-36000D01*
X-219756Y-33711D01*
X-220639Y-31577D01*
X-222045Y-29745D01*
X-223877Y-28339D01*
X-226011Y-27456D01*
X-228300Y-27154D01*
D02*
G37*
G36*
X-253700D02*
X-255989Y-27456D01*
X-258123Y-28339D01*
X-259955Y-29745D01*
X-261361Y-31577D01*
X-262244Y-33711D01*
X-262546Y-36000D01*
X-262244Y-38289D01*
X-261361Y-40423D01*
X-259955Y-42255D01*
X-258123Y-43661D01*
X-255989Y-44544D01*
X-253700Y-44846D01*
X-251411Y-44544D01*
X-249277Y-43661D01*
X-247445Y-42255D01*
X-246039Y-40423D01*
X-245156Y-38289D01*
X-244854Y-36000D01*
X-245156Y-33711D01*
X-246039Y-31577D01*
X-247445Y-29745D01*
X-249277Y-28339D01*
X-251411Y-27456D01*
X-253700Y-27154D01*
D02*
G37*
G36*
X-228300Y-52554D02*
X-230589Y-52856D01*
X-232723Y-53739D01*
X-234555Y-55145D01*
X-235961Y-56977D01*
X-236844Y-59111D01*
X-237146Y-61400D01*
X-236844Y-63689D01*
X-235961Y-65823D01*
X-234555Y-67655D01*
X-232723Y-69061D01*
X-230589Y-69944D01*
X-228300Y-70246D01*
X-226011Y-69944D01*
X-223877Y-69061D01*
X-222045Y-67655D01*
X-220639Y-65823D01*
X-219756Y-63689D01*
X-219454Y-61400D01*
X-219756Y-59111D01*
X-220639Y-56977D01*
X-222045Y-55145D01*
X-223877Y-53739D01*
X-226011Y-52856D01*
X-228300Y-52554D01*
D02*
G37*
G36*
X-253700D02*
X-255989Y-52856D01*
X-258123Y-53739D01*
X-259955Y-55145D01*
X-261361Y-56977D01*
X-262244Y-59111D01*
X-262546Y-61400D01*
X-262244Y-63689D01*
X-261361Y-65823D01*
X-259955Y-67655D01*
X-258123Y-69061D01*
X-255989Y-69944D01*
X-253700Y-70246D01*
X-251411Y-69944D01*
X-249277Y-69061D01*
X-247445Y-67655D01*
X-246039Y-65823D01*
X-245156Y-63689D01*
X-244854Y-61400D01*
X-245156Y-59111D01*
X-246039Y-56977D01*
X-247445Y-55145D01*
X-249277Y-53739D01*
X-251411Y-52856D01*
X-253700Y-52554D01*
D02*
G37*
G36*
X-228300Y-77954D02*
X-230589Y-78256D01*
X-232723Y-79139D01*
X-234555Y-80545D01*
X-235961Y-82377D01*
X-236844Y-84511D01*
X-237146Y-86800D01*
X-236844Y-89089D01*
X-235961Y-91223D01*
X-234555Y-93055D01*
X-232723Y-94461D01*
X-230589Y-95344D01*
X-228300Y-95646D01*
X-226011Y-95344D01*
X-223877Y-94461D01*
X-222045Y-93055D01*
X-220639Y-91223D01*
X-219756Y-89089D01*
X-219454Y-86800D01*
X-219756Y-84511D01*
X-220639Y-82377D01*
X-222045Y-80545D01*
X-223877Y-79139D01*
X-226011Y-78256D01*
X-228300Y-77954D01*
D02*
G37*
G36*
X-253700D02*
X-255989Y-78256D01*
X-258123Y-79139D01*
X-259955Y-80545D01*
X-261361Y-82377D01*
X-262244Y-84511D01*
X-262546Y-86800D01*
X-262244Y-89089D01*
X-261361Y-91223D01*
X-259955Y-93055D01*
X-258123Y-94461D01*
X-255989Y-95344D01*
X-253700Y-95646D01*
X-251411Y-95344D01*
X-249277Y-94461D01*
X-247445Y-93055D01*
X-246039Y-91223D01*
X-245156Y-89089D01*
X-244854Y-86800D01*
X-245156Y-84511D01*
X-246039Y-82377D01*
X-247445Y-80545D01*
X-249277Y-79139D01*
X-251411Y-78256D01*
X-253700Y-77954D01*
D02*
G37*
G36*
X-228300Y-103354D02*
X-230589Y-103656D01*
X-232723Y-104539D01*
X-234555Y-105945D01*
X-235961Y-107777D01*
X-236844Y-109911D01*
X-237146Y-112200D01*
X-236844Y-114489D01*
X-235961Y-116623D01*
X-234555Y-118455D01*
X-232723Y-119861D01*
X-230589Y-120744D01*
X-228300Y-121046D01*
X-226011Y-120744D01*
X-223877Y-119861D01*
X-222045Y-118455D01*
X-220639Y-116623D01*
X-219756Y-114489D01*
X-219454Y-112200D01*
X-219756Y-109911D01*
X-220639Y-107777D01*
X-222045Y-105945D01*
X-223877Y-104539D01*
X-226011Y-103656D01*
X-228300Y-103354D01*
D02*
G37*
G36*
X-253700D02*
X-255989Y-103656D01*
X-258123Y-104539D01*
X-259955Y-105945D01*
X-261361Y-107777D01*
X-262244Y-109911D01*
X-262546Y-112200D01*
X-262244Y-114489D01*
X-261361Y-116623D01*
X-259955Y-118455D01*
X-258123Y-119861D01*
X-255989Y-120744D01*
X-253700Y-121046D01*
X-251411Y-120744D01*
X-249277Y-119861D01*
X-247445Y-118455D01*
X-246039Y-116623D01*
X-245156Y-114489D01*
X-244854Y-112200D01*
X-245156Y-109911D01*
X-246039Y-107777D01*
X-247445Y-105945D01*
X-249277Y-104539D01*
X-251411Y-103656D01*
X-253700Y-103354D01*
D02*
G37*
G36*
X-228300Y-128754D02*
X-230589Y-129056D01*
X-232723Y-129939D01*
X-234555Y-131345D01*
X-235961Y-133177D01*
X-236844Y-135311D01*
X-237146Y-137600D01*
X-236844Y-139889D01*
X-235961Y-142023D01*
X-234555Y-143855D01*
X-232723Y-145261D01*
X-230589Y-146144D01*
X-228300Y-146446D01*
X-226011Y-146144D01*
X-223877Y-145261D01*
X-222045Y-143855D01*
X-220639Y-142023D01*
X-219756Y-139889D01*
X-219454Y-137600D01*
X-219756Y-135311D01*
X-220639Y-133177D01*
X-222045Y-131345D01*
X-223877Y-129939D01*
X-226011Y-129056D01*
X-228300Y-128754D01*
D02*
G37*
G36*
X-253700D02*
X-255989Y-129056D01*
X-258123Y-129939D01*
X-259955Y-131345D01*
X-261361Y-133177D01*
X-262244Y-135311D01*
X-262546Y-137600D01*
X-262244Y-139889D01*
X-261361Y-142023D01*
X-259955Y-143855D01*
X-258123Y-145261D01*
X-255989Y-146144D01*
X-253700Y-146446D01*
X-251411Y-146144D01*
X-249277Y-145261D01*
X-247445Y-143855D01*
X-246039Y-142023D01*
X-245156Y-139889D01*
X-244854Y-137600D01*
X-245156Y-135311D01*
X-246039Y-133177D01*
X-247445Y-131345D01*
X-249277Y-129939D01*
X-251411Y-129056D01*
X-253700Y-128754D01*
D02*
G37*
G36*
X69921Y159875D02*
X69669Y159770D01*
X69395Y159770D01*
X69181Y159681D01*
X69181Y159681D01*
X68972Y159595D01*
X68779Y159401D01*
X68735Y159383D01*
X68735Y159383D01*
X68724Y159358D01*
X68615Y159303D01*
X68587Y159298D01*
X68587Y159298D01*
X68579Y159285D01*
X68460Y159225D01*
X68395Y159151D01*
X68326Y159122D01*
X68165Y158961D01*
X68165Y158961D01*
X67971Y158767D01*
X67867Y158515D01*
X67673Y158321D01*
X67480Y157855D01*
Y157581D01*
X67375Y157329D01*
Y157060D01*
X67375Y-160977D01*
Y-170875D01*
X-140875D01*
Y-153050D01*
X-140875Y34302D01*
Y47320D01*
X-140980Y47573D01*
X-140980Y47846D01*
X-141173Y48313D01*
X-141367Y48506D01*
X-141471Y48759D01*
X-142048Y49335D01*
X-142048Y49335D01*
X-142241Y49529D01*
X-142494Y49633D01*
X-142687Y49827D01*
X-143154Y50020D01*
X-143427D01*
X-143680Y50125D01*
X-177810Y50125D01*
X-182203D01*
X-235372Y50125D01*
X-235372Y50125D01*
X-235431D01*
X-235485Y50102D01*
X-235698D01*
X-235763Y50076D01*
X-235829Y50096D01*
X-235830Y50096D01*
X-236016Y49997D01*
X-236070Y49992D01*
X-236123Y49965D01*
X-236124Y49964D01*
X-236124Y49965D01*
X-236124Y49965D01*
X-236124Y49964D01*
X-236337Y49946D01*
X-236526Y49847D01*
X-236584Y49841D01*
X-236637Y49814D01*
X-236637Y49814D01*
X-236637Y49814D01*
X-236786Y49736D01*
X-236875Y49629D01*
X-236875D01*
X-236989Y49570D01*
X-237075Y49466D01*
X-237204Y49399D01*
X-237292Y49293D01*
X-237399Y49204D01*
X-237466Y49075D01*
X-237570Y48989D01*
X-237629Y48875D01*
Y48875D01*
X-237736Y48786D01*
X-237841Y48584D01*
X-237847Y48526D01*
X-237946Y48336D01*
X-237965Y48122D01*
X-237992Y48069D01*
X-237998Y48011D01*
X-238020Y47957D01*
Y47898D01*
X-238102Y47699D01*
Y47485D01*
X-238125Y47431D01*
Y47372D01*
X-238125Y47371D01*
Y35797D01*
X-238125Y4178D01*
Y-17570D01*
X-238020Y-17823D01*
X-238020Y-18096D01*
X-237827Y-18563D01*
X-237633Y-18756D01*
X-237529Y-19009D01*
X-236952Y-19585D01*
X-236952Y-19585D01*
X-236759Y-19779D01*
X-236506Y-19883D01*
X-236313Y-20077D01*
X-235846Y-20270D01*
X-235573D01*
X-235320Y-20375D01*
X-207294Y-20375D01*
X-202249D01*
X-162625Y-20375D01*
X-162625Y-172250D01*
X-162624Y-246595D01*
X-221658Y-246595D01*
X-221701Y-246468D01*
X-221946Y-245325D01*
X-220639Y-243623D01*
X-219756Y-241489D01*
X-219454Y-239200D01*
X-219756Y-236911D01*
X-220639Y-234777D01*
X-222045Y-232945D01*
X-223877Y-231539D01*
X-226011Y-230656D01*
X-228300Y-230354D01*
X-230589Y-230656D01*
X-232723Y-231539D01*
X-234555Y-232945D01*
X-235961Y-234777D01*
X-236844Y-236911D01*
X-237146Y-239200D01*
X-236844Y-241489D01*
X-235961Y-243623D01*
X-234654Y-245325D01*
X-234899Y-246468D01*
X-234942Y-246595D01*
X-244930D01*
Y-230430D01*
X-260875D01*
Y-228430D01*
X-260980Y-228177D01*
X-260980Y-227904D01*
X-261173Y-227437D01*
X-261367Y-227244D01*
X-261471Y-226992D01*
X-262048Y-226415D01*
X-262048Y-226415D01*
X-262241Y-226221D01*
X-262494Y-226117D01*
X-262687Y-225923D01*
X-263154Y-225730D01*
X-263428D01*
X-263680Y-225625D01*
X-303395D01*
X-535612Y-225625D01*
X-535613Y-225625D01*
X-535669D01*
X-535720Y-225647D01*
X-535720Y-225646D01*
X-535937Y-225647D01*
X-536139Y-225730D01*
X-536195D01*
X-536246Y-225751D01*
X-536246Y-225751D01*
X-536301Y-225756D01*
X-536352Y-225782D01*
X-536569Y-225800D01*
X-536761Y-225900D01*
X-536875Y-226035D01*
X-536909Y-226049D01*
X-536912Y-226058D01*
X-537175Y-226172D01*
X-537990Y-227020D01*
X-538178Y-227498D01*
X-538375Y-227973D01*
X-538375Y-236265D01*
X-538375Y-256320D01*
X-538270Y-256573D01*
X-538270Y-256846D01*
X-538077Y-257313D01*
X-537883Y-257506D01*
X-537779Y-257759D01*
X-537202Y-258335D01*
X-537202Y-258335D01*
X-537009Y-258529D01*
X-536756Y-258633D01*
X-536563Y-258827D01*
X-536096Y-259020D01*
X-535823D01*
X-535570Y-259125D01*
X-424814Y-259125D01*
X-322495Y-259125D01*
X-292875D01*
Y-265964D01*
X-292875Y-396401D01*
X-292875Y-433683D01*
X-292875Y-451293D01*
X-294048Y-451780D01*
X-348906Y-396921D01*
Y-318750D01*
X-349199Y-317279D01*
X-350032Y-316032D01*
X-350032Y-316032D01*
X-389052Y-277012D01*
X-390299Y-276179D01*
X-391770Y-275886D01*
X-391770Y-275886D01*
X-475230D01*
X-475230Y-275886D01*
X-476701Y-276179D01*
X-477948Y-277012D01*
X-477948Y-277012D01*
X-481468Y-280532D01*
X-482301Y-281779D01*
X-482594Y-283250D01*
X-482301Y-284721D01*
X-481468Y-285968D01*
X-480221Y-286801D01*
X-478750Y-287094D01*
X-477279Y-286801D01*
X-476032Y-285968D01*
X-473638Y-283574D01*
X-464306D01*
X-463780Y-284844D01*
X-576101Y-397165D01*
X-576416Y-397228D01*
X-577828Y-398172D01*
X-578772Y-399584D01*
X-579104Y-401250D01*
X-578772Y-402916D01*
X-577828Y-404328D01*
X-576416Y-405272D01*
X-574750Y-405604D01*
X-573084Y-405272D01*
X-571671Y-404328D01*
X-570728Y-402916D01*
X-570665Y-402601D01*
X-458529Y-290465D01*
X-411251D01*
X-411166Y-290522D01*
X-409500Y-290854D01*
X-407834Y-290522D01*
X-406422Y-289578D01*
X-405478Y-288166D01*
X-405146Y-286500D01*
X-405478Y-284834D01*
X-405571Y-284694D01*
X-404973Y-283574D01*
X-393362D01*
X-356594Y-320342D01*
Y-398513D01*
X-356594Y-398514D01*
X-356301Y-399985D01*
X-355468Y-401232D01*
X-267532Y-489168D01*
X-267532Y-489168D01*
X-266285Y-490001D01*
X-264813Y-490294D01*
X-264813Y-490294D01*
X-174527D01*
X-154152Y-510668D01*
X-154152Y-510668D01*
X-152905Y-511501D01*
X-151434Y-511794D01*
X-151434Y-511794D01*
X210800D01*
X210800Y-511794D01*
X212271Y-511501D01*
X213518Y-510668D01*
X414262Y-309924D01*
X415435Y-310410D01*
Y-428500D01*
X415612Y-429386D01*
X416113Y-430137D01*
X425363Y-439387D01*
X426114Y-439888D01*
X427000Y-440065D01*
X450750D01*
X451636Y-439888D01*
X452387Y-439387D01*
X463674Y-428099D01*
X464176Y-427348D01*
X464352Y-426462D01*
Y-384937D01*
X464575Y-384788D01*
X465353Y-383623D01*
X465627Y-382250D01*
X465353Y-380877D01*
X464575Y-379712D01*
X463411Y-378934D01*
X462038Y-378661D01*
X460664Y-378934D01*
X459500Y-379712D01*
X458722Y-380877D01*
X458449Y-382250D01*
X458722Y-383623D01*
X459500Y-384788D01*
X459723Y-384937D01*
Y-425504D01*
X449791Y-435435D01*
X427959D01*
X420065Y-427541D01*
Y-304122D01*
X420468Y-303718D01*
X421301Y-302471D01*
X421594Y-301000D01*
X421301Y-299529D01*
X420468Y-298282D01*
X420065Y-298012D01*
Y-287176D01*
X419888Y-286291D01*
X419883Y-286283D01*
X420089Y-285250D01*
X419816Y-283877D01*
X419038Y-282712D01*
X418815Y-282563D01*
Y-271814D01*
X468500D01*
X469386Y-271638D01*
X470137Y-271137D01*
X480907Y-260367D01*
X481408Y-259616D01*
X481585Y-258730D01*
Y-225470D01*
X481816Y-225123D01*
X482089Y-223750D01*
X483182Y-223089D01*
X507247D01*
X507396Y-223312D01*
X508560Y-224090D01*
X509934Y-224364D01*
X511307Y-224090D01*
X512471Y-223312D01*
X513249Y-222148D01*
X513522Y-220775D01*
X513249Y-219401D01*
X512471Y-218237D01*
X511307Y-217459D01*
X509934Y-217186D01*
X508560Y-217459D01*
X507396Y-218237D01*
X507247Y-218460D01*
X481475D01*
X480590Y-218636D01*
X479839Y-219138D01*
X478763Y-220214D01*
X478500Y-220161D01*
X477127Y-220434D01*
X475962Y-221212D01*
X475813Y-221436D01*
X442117D01*
X441231Y-221612D01*
X440480Y-222113D01*
X427672Y-234922D01*
X427409Y-234869D01*
X426035Y-235142D01*
X424871Y-235921D01*
X424093Y-237085D01*
X423820Y-238458D01*
X424093Y-239832D01*
X424871Y-240996D01*
X426035Y-241774D01*
X427409Y-242047D01*
X428782Y-241774D01*
X429947Y-240996D01*
X430724Y-239832D01*
X430998Y-238458D01*
X430945Y-238195D01*
X443076Y-226064D01*
X475813D01*
X475962Y-226288D01*
X476955Y-226952D01*
Y-250829D01*
X475686Y-251597D01*
X474750Y-251411D01*
X473377Y-251684D01*
X472212Y-252462D01*
X471814Y-253058D01*
X342681D01*
X323171Y-233548D01*
X323657Y-232375D01*
X337343D01*
X337625Y-232258D01*
X337930Y-232243D01*
X339087Y-231696D01*
X339249Y-231517D01*
X339472Y-231425D01*
X339568Y-231194D01*
X339751Y-231022D01*
X339751Y-231022D01*
X339753Y-230962D01*
X339794Y-230917D01*
X339782Y-230676D01*
X339875Y-230453D01*
Y-173680D01*
X339770Y-173427D01*
X339770Y-173154D01*
X339577Y-172687D01*
X339383Y-172494D01*
X339279Y-172241D01*
X338702Y-171665D01*
X338702Y-171665D01*
X338508Y-171471D01*
X338256Y-171367D01*
X338063Y-171173D01*
X337596Y-170980D01*
X337323D01*
X337070Y-170875D01*
X264739Y-170875D01*
X220030D01*
X80625Y-170875D01*
Y-160085D01*
X80625Y157162D01*
X80604Y157211D01*
Y157430D01*
X80520Y157633D01*
Y157688D01*
X80499Y157737D01*
Y157737D01*
X80495Y157791D01*
X80470Y157839D01*
X80452Y158058D01*
X80352Y158253D01*
X80348Y158306D01*
X80323Y158355D01*
X80323Y158355D01*
Y158355D01*
X79987Y159009D01*
X79905Y159078D01*
X79904Y159092D01*
X79903Y159093D01*
X79812Y159170D01*
X79736Y159353D01*
X79653Y159436D01*
X79351Y159561D01*
X79102Y159773D01*
X78990Y159809D01*
X78990Y159809D01*
X78900Y159801D01*
X78793Y159792D01*
X78681Y159839D01*
X78669Y159833D01*
X78569Y159875D01*
X69921Y159875D01*
D02*
G37*
G36*
X-228300Y-154154D02*
X-230589Y-154456D01*
X-232723Y-155339D01*
X-234555Y-156745D01*
X-235961Y-158577D01*
X-236844Y-160711D01*
X-237146Y-163000D01*
X-236844Y-165289D01*
X-235961Y-167423D01*
X-234555Y-169255D01*
X-232723Y-170661D01*
X-230589Y-171544D01*
X-228300Y-171846D01*
X-226011Y-171544D01*
X-223877Y-170661D01*
X-222045Y-169255D01*
X-220639Y-167423D01*
X-219756Y-165289D01*
X-219454Y-163000D01*
X-219756Y-160711D01*
X-220639Y-158577D01*
X-222045Y-156745D01*
X-223877Y-155339D01*
X-226011Y-154456D01*
X-228300Y-154154D01*
D02*
G37*
G36*
X-253700D02*
X-255989Y-154456D01*
X-258123Y-155339D01*
X-259955Y-156745D01*
X-261361Y-158577D01*
X-262244Y-160711D01*
X-262546Y-163000D01*
X-262244Y-165289D01*
X-261361Y-167423D01*
X-259955Y-169255D01*
X-258123Y-170661D01*
X-255989Y-171544D01*
X-253700Y-171846D01*
X-251411Y-171544D01*
X-249277Y-170661D01*
X-247445Y-169255D01*
X-246039Y-167423D01*
X-245156Y-165289D01*
X-244854Y-163000D01*
X-245156Y-160711D01*
X-246039Y-158577D01*
X-247445Y-156745D01*
X-249277Y-155339D01*
X-251411Y-154456D01*
X-253700Y-154154D01*
D02*
G37*
G36*
X-228300Y-179554D02*
X-230589Y-179856D01*
X-232723Y-180739D01*
X-234555Y-182145D01*
X-235961Y-183977D01*
X-236844Y-186111D01*
X-237146Y-188400D01*
X-236844Y-190689D01*
X-235961Y-192823D01*
X-234555Y-194655D01*
X-232723Y-196061D01*
X-230589Y-196944D01*
X-228300Y-197246D01*
X-226011Y-196944D01*
X-223877Y-196061D01*
X-222045Y-194655D01*
X-220639Y-192823D01*
X-219756Y-190689D01*
X-219454Y-188400D01*
X-219756Y-186111D01*
X-220639Y-183977D01*
X-222045Y-182145D01*
X-223877Y-180739D01*
X-226011Y-179856D01*
X-228300Y-179554D01*
D02*
G37*
G36*
X-253700D02*
X-255989Y-179856D01*
X-258123Y-180739D01*
X-259955Y-182145D01*
X-261361Y-183977D01*
X-262244Y-186111D01*
X-262546Y-188400D01*
X-262244Y-190689D01*
X-261361Y-192823D01*
X-259955Y-194655D01*
X-258123Y-196061D01*
X-255989Y-196944D01*
X-253700Y-197246D01*
X-251411Y-196944D01*
X-249277Y-196061D01*
X-247445Y-194655D01*
X-246039Y-192823D01*
X-245156Y-190689D01*
X-244854Y-188400D01*
X-245156Y-186111D01*
X-246039Y-183977D01*
X-247445Y-182145D01*
X-249277Y-180739D01*
X-251411Y-179856D01*
X-253700Y-179554D01*
D02*
G37*
G36*
X-228300Y-204704D02*
X-230589Y-205006D01*
X-232723Y-205889D01*
X-234555Y-207295D01*
X-235961Y-209127D01*
X-236844Y-211261D01*
X-237146Y-213550D01*
X-236844Y-215839D01*
X-235961Y-217973D01*
X-234555Y-219805D01*
X-232723Y-221211D01*
X-230589Y-222094D01*
X-228300Y-222396D01*
X-226011Y-222094D01*
X-223877Y-221211D01*
X-222045Y-219805D01*
X-220639Y-217973D01*
X-219756Y-215839D01*
X-219454Y-213550D01*
X-219756Y-211261D01*
X-220639Y-209127D01*
X-222045Y-207295D01*
X-223877Y-205889D01*
X-226011Y-205006D01*
X-228300Y-204704D01*
D02*
G37*
G36*
X-253700Y-204954D02*
X-255989Y-205256D01*
X-258123Y-206139D01*
X-259955Y-207545D01*
X-261361Y-209377D01*
X-262244Y-211511D01*
X-262546Y-213800D01*
X-262244Y-216089D01*
X-261361Y-218223D01*
X-259955Y-220055D01*
X-258123Y-221461D01*
X-255989Y-222344D01*
X-253700Y-222646D01*
X-251411Y-222344D01*
X-249277Y-221461D01*
X-247445Y-220055D01*
X-246039Y-218223D01*
X-245156Y-216089D01*
X-244854Y-213800D01*
X-245156Y-211511D01*
X-246039Y-209377D01*
X-247445Y-207545D01*
X-249277Y-206139D01*
X-251411Y-205256D01*
X-253700Y-204954D01*
D02*
G37*
G36*
X558750Y-254646D02*
X557084Y-254978D01*
X555672Y-255921D01*
X554728Y-257334D01*
X554396Y-259000D01*
X554576Y-259901D01*
X549041Y-265436D01*
X520589D01*
X520079Y-264671D01*
X518666Y-263728D01*
X517000Y-263396D01*
X515334Y-263728D01*
X513922Y-264671D01*
X512978Y-266084D01*
X512646Y-267750D01*
X512978Y-269416D01*
X513773Y-270606D01*
X513919Y-271826D01*
X513687Y-272199D01*
X512753Y-273597D01*
X512422Y-275263D01*
X512753Y-276929D01*
X513697Y-278342D01*
X514379Y-278798D01*
X515031Y-279505D01*
X514702Y-280425D01*
X514253Y-281098D01*
X513922Y-282764D01*
X514253Y-284430D01*
X514564Y-284895D01*
X513885Y-286166D01*
X472427D01*
X471542Y-286342D01*
X470791Y-286843D01*
X440113Y-317521D01*
X439612Y-318272D01*
X439436Y-319157D01*
Y-425661D01*
X438671Y-426171D01*
X437728Y-427584D01*
X437396Y-429250D01*
X437728Y-430916D01*
X438671Y-432328D01*
X440084Y-433272D01*
X441750Y-433604D01*
X443416Y-433272D01*
X444828Y-432328D01*
X445772Y-430916D01*
X446104Y-429250D01*
X445772Y-427584D01*
X444828Y-426171D01*
X444064Y-425661D01*
Y-320116D01*
X473386Y-290795D01*
X513277D01*
X513503Y-291930D01*
X514447Y-293343D01*
X515859Y-294286D01*
X517525Y-294618D01*
X519191Y-294286D01*
X520604Y-293343D01*
X521548Y-291930D01*
X521879Y-290264D01*
X521548Y-288598D01*
X520813Y-287498D01*
X521029Y-286059D01*
X521354Y-285842D01*
X521864Y-285078D01*
X539055D01*
X567186Y-313209D01*
Y-415161D01*
X566422Y-415672D01*
X565478Y-417084D01*
X565146Y-418750D01*
X565478Y-420416D01*
X566422Y-421828D01*
X567834Y-422772D01*
X569500Y-423104D01*
X571166Y-422772D01*
X572579Y-421828D01*
X573522Y-420416D01*
X573854Y-418750D01*
X573522Y-417084D01*
X572579Y-415672D01*
X571814Y-415161D01*
Y-312250D01*
X571638Y-311364D01*
X571137Y-310613D01*
X541650Y-281127D01*
X540900Y-280625D01*
X540014Y-280449D01*
X521864D01*
X521354Y-279685D01*
X520672Y-279230D01*
X520293Y-278818D01*
X520773Y-277578D01*
X552487D01*
X553372Y-277402D01*
X554123Y-276900D01*
X558099Y-272924D01*
X559000Y-273104D01*
X560666Y-272772D01*
X562079Y-271828D01*
X563022Y-270416D01*
X563354Y-268750D01*
X563022Y-267084D01*
X562079Y-265672D01*
X560666Y-264728D01*
X559509Y-264498D01*
Y-263203D01*
X560416Y-263022D01*
X561828Y-262078D01*
X562772Y-260666D01*
X563104Y-259000D01*
X562772Y-257334D01*
X561828Y-255921D01*
X560416Y-254978D01*
X558750Y-254646D01*
D02*
G37*
G36*
X530250Y-299161D02*
X528877Y-299434D01*
X527712Y-300212D01*
X526934Y-301377D01*
X526661Y-302750D01*
X526713Y-303013D01*
X510041Y-319685D01*
X461437D01*
X461288Y-319462D01*
X460123Y-318684D01*
X458750Y-318411D01*
X457377Y-318684D01*
X456212Y-319462D01*
X455434Y-320627D01*
X455161Y-322000D01*
X455434Y-323373D01*
X456212Y-324538D01*
X457377Y-325316D01*
X458750Y-325589D01*
X460123Y-325316D01*
X461288Y-324538D01*
X461437Y-324314D01*
X511000D01*
X511886Y-324138D01*
X512637Y-323637D01*
X529987Y-306287D01*
X530250Y-306339D01*
X531623Y-306066D01*
X532788Y-305288D01*
X533566Y-304123D01*
X533839Y-302750D01*
X533566Y-301377D01*
X532788Y-300212D01*
X531623Y-299434D01*
X530250Y-299161D01*
D02*
G37*
G36*
X-461485Y-309504D02*
X-464384Y-309630D01*
X-467151Y-310503D01*
X-469598Y-312062D01*
X-471559Y-314201D01*
X-472898Y-316775D01*
X-473526Y-319608D01*
X-473400Y-322507D01*
X-472527Y-325274D01*
X-470968Y-327721D01*
X-468829Y-329682D01*
X-466255Y-331021D01*
X-463422Y-331649D01*
X-460524Y-331523D01*
X-457756Y-330650D01*
X-455309Y-329091D01*
X-453349Y-326952D01*
X-452009Y-324378D01*
X-451381Y-321545D01*
X-451507Y-318647D01*
X-452380Y-315879D01*
X-453939Y-313432D01*
X-456078Y-311472D01*
X-458652Y-310132D01*
X-461485Y-309504D01*
D02*
G37*
G36*
X-385575Y-316145D02*
X-388474Y-316272D01*
X-391241Y-317144D01*
X-393688Y-318703D01*
X-395649Y-320843D01*
X-396988Y-323416D01*
X-397617Y-326249D01*
X-397490Y-329148D01*
X-396617Y-331915D01*
X-395058Y-334362D01*
X-392919Y-336323D01*
X-390345Y-337663D01*
X-387512Y-338291D01*
X-384613Y-338164D01*
X-381846Y-337292D01*
X-379399Y-335732D01*
X-377439Y-333593D01*
X-376099Y-331020D01*
X-375471Y-328187D01*
X-375597Y-325288D01*
X-376470Y-322520D01*
X-378029Y-320073D01*
X-380168Y-318113D01*
X-382742Y-316773D01*
X-385575Y-316145D01*
D02*
G37*
G36*
X657740Y-309373D02*
X652833Y-309760D01*
X648047Y-310909D01*
X643500Y-312792D01*
X639303Y-315364D01*
X635560Y-318560D01*
X632364Y-322303D01*
X629792Y-326500D01*
X627909Y-331047D01*
X626759Y-335833D01*
X626373Y-340740D01*
X626759Y-345647D01*
X627909Y-350433D01*
X629792Y-354980D01*
X632364Y-359177D01*
X635560Y-362920D01*
X639303Y-366116D01*
X643500Y-368688D01*
X648047Y-370572D01*
X652833Y-371721D01*
X657740Y-372107D01*
X662647Y-371721D01*
X667433Y-370572D01*
X671980Y-368688D01*
X676177Y-366116D01*
X679920Y-362920D01*
X683116Y-359177D01*
X685688Y-354980D01*
X687571Y-350433D01*
X688720Y-345647D01*
X689107Y-340740D01*
X688720Y-335833D01*
X687571Y-331047D01*
X685688Y-326500D01*
X683116Y-322303D01*
X679920Y-318560D01*
X676177Y-315364D01*
X671980Y-312792D01*
X667433Y-310909D01*
X662647Y-309760D01*
X657740Y-309373D01*
D02*
G37*
G36*
X-642260D02*
X-647167Y-309760D01*
X-651953Y-310909D01*
X-656500Y-312792D01*
X-660697Y-315364D01*
X-664440Y-318560D01*
X-667636Y-322303D01*
X-670208Y-326500D01*
X-672092Y-331047D01*
X-673241Y-335833D01*
X-673627Y-340740D01*
X-673241Y-345647D01*
X-672092Y-350433D01*
X-670208Y-354980D01*
X-667636Y-359177D01*
X-664440Y-362920D01*
X-660697Y-366116D01*
X-656500Y-368688D01*
X-651953Y-370572D01*
X-647167Y-371721D01*
X-642260Y-372107D01*
X-637353Y-371721D01*
X-632567Y-370572D01*
X-628020Y-368688D01*
X-623823Y-366116D01*
X-620080Y-362920D01*
X-616884Y-359177D01*
X-614312Y-354980D01*
X-612429Y-350433D01*
X-611279Y-345647D01*
X-610893Y-340740D01*
X-611279Y-335833D01*
X-612429Y-331047D01*
X-614312Y-326500D01*
X-616884Y-322303D01*
X-620080Y-318560D01*
X-623823Y-315364D01*
X-628020Y-312792D01*
X-632567Y-310909D01*
X-637353Y-309760D01*
X-642260Y-309373D01*
D02*
G37*
G36*
X-470340Y-410717D02*
X-473239Y-410844D01*
X-476006Y-411716D01*
X-478453Y-413275D01*
X-480414Y-415415D01*
X-481754Y-417988D01*
X-482382Y-420821D01*
X-482255Y-423720D01*
X-481382Y-426487D01*
X-479823Y-428935D01*
X-477684Y-430895D01*
X-475110Y-432235D01*
X-472277Y-432863D01*
X-469379Y-432736D01*
X-466611Y-431864D01*
X-464164Y-430305D01*
X-462204Y-428165D01*
X-460864Y-425592D01*
X-460236Y-422759D01*
X-460363Y-419860D01*
X-461235Y-417093D01*
X-462794Y-414645D01*
X-464933Y-412685D01*
X-467507Y-411345D01*
X-470340Y-410717D01*
D02*
G37*
G36*
X506250Y-347396D02*
X504584Y-347728D01*
X503172Y-348671D01*
X502228Y-350084D01*
X501896Y-351750D01*
X502228Y-353416D01*
X503172Y-354828D01*
X504584Y-355772D01*
X506250Y-356104D01*
X506802Y-355994D01*
X507896Y-357000D01*
X508228Y-358666D01*
X509171Y-360079D01*
X509935Y-360589D01*
Y-437012D01*
X509018Y-437891D01*
X508912Y-437886D01*
X506786Y-438357D01*
X504855Y-439363D01*
X503249Y-440834D01*
X502785Y-441562D01*
X501515Y-441191D01*
Y-426789D01*
X502579Y-426078D01*
X503522Y-424666D01*
X503854Y-423000D01*
X503522Y-421334D01*
X502579Y-419921D01*
X501515Y-419211D01*
Y-362748D01*
X501339Y-361862D01*
X500838Y-361111D01*
X492070Y-352343D01*
X491319Y-351842D01*
X490433Y-351665D01*
X481826D01*
X481329Y-350922D01*
X479916Y-349978D01*
X478250Y-349646D01*
X476584Y-349978D01*
X475172Y-350922D01*
X474228Y-352334D01*
X473896Y-354000D01*
X474228Y-355666D01*
X475172Y-357079D01*
X476584Y-358022D01*
X478250Y-358354D01*
X479916Y-358022D01*
X481329Y-357079D01*
X481852Y-356295D01*
X483742D01*
X484341Y-357415D01*
X484228Y-357584D01*
X483896Y-359250D01*
X484076Y-360151D01*
X472261Y-371966D01*
X471759Y-372717D01*
X471583Y-373602D01*
Y-426161D01*
X470819Y-426671D01*
X469875Y-428084D01*
X469544Y-429750D01*
X469875Y-431416D01*
X470819Y-432828D01*
X471583Y-433339D01*
Y-466721D01*
X464938Y-467302D01*
X466380Y-483779D01*
X482857Y-482337D01*
X481415Y-465860D01*
X477148Y-466234D01*
X476212Y-465376D01*
Y-453465D01*
X477482Y-453154D01*
X477503Y-453194D01*
X478974Y-454799D01*
X480810Y-455969D01*
X482887Y-456624D01*
X485063Y-456719D01*
X487188Y-456248D01*
X489120Y-455242D01*
X490725Y-453771D01*
X491895Y-451935D01*
X492550Y-449858D01*
X492645Y-447682D01*
X492174Y-445556D01*
X491168Y-443625D01*
X489697Y-442020D01*
X487861Y-440849D01*
X485784Y-440195D01*
X483609Y-440100D01*
X481483Y-440571D01*
X479551Y-441576D01*
X477946Y-443048D01*
X477482Y-443775D01*
X476212Y-443405D01*
Y-433339D01*
X476976Y-432828D01*
X477920Y-431416D01*
X478251Y-429750D01*
X477920Y-428084D01*
X476976Y-426671D01*
X476212Y-426161D01*
Y-374561D01*
X487349Y-363424D01*
X488250Y-363604D01*
X489916Y-363272D01*
X491329Y-362328D01*
X492272Y-360916D01*
X492312Y-360716D01*
X493527Y-360348D01*
X496886Y-363707D01*
Y-419611D01*
X496422Y-419921D01*
X495478Y-421334D01*
X495146Y-423000D01*
X495478Y-424666D01*
X496422Y-426078D01*
X496886Y-426389D01*
Y-464648D01*
X496348Y-464767D01*
X494417Y-465773D01*
X492811Y-467244D01*
X491641Y-469081D01*
X490986Y-471157D01*
X490891Y-473333D01*
X491363Y-475459D01*
X492368Y-477390D01*
X493839Y-478996D01*
X495676Y-480166D01*
X497752Y-480821D01*
X499928Y-480915D01*
X502054Y-480444D01*
X503985Y-479439D01*
X505591Y-477967D01*
X506761Y-476131D01*
X507416Y-474054D01*
X507511Y-471879D01*
X507039Y-469753D01*
X506034Y-467821D01*
X504563Y-466216D01*
X502726Y-465046D01*
X501515Y-464664D01*
Y-451251D01*
X502785Y-450940D01*
X502806Y-450980D01*
X504277Y-452585D01*
X506114Y-453755D01*
X508190Y-454410D01*
X510366Y-454505D01*
X512492Y-454034D01*
X514423Y-453028D01*
X516029Y-451557D01*
X517199Y-449721D01*
X517854Y-447644D01*
X517948Y-445469D01*
X517477Y-443343D01*
X516472Y-441411D01*
X515001Y-439806D01*
X514565Y-439528D01*
Y-360589D01*
X515328Y-360079D01*
X516272Y-358666D01*
X516451Y-357770D01*
X517829Y-357352D01*
X532628Y-372151D01*
Y-436024D01*
X532089Y-436143D01*
X530158Y-437149D01*
X528552Y-438620D01*
X527382Y-440457D01*
X526728Y-442533D01*
X526633Y-444709D01*
X527104Y-446835D01*
X528109Y-448766D01*
X529580Y-450372D01*
X531417Y-451542D01*
X533494Y-452197D01*
X535669Y-452291D01*
X537795Y-451820D01*
X539727Y-450815D01*
X541332Y-449344D01*
X542502Y-447507D01*
X543157Y-445430D01*
X543252Y-443255D01*
X542781Y-441129D01*
X541775Y-439197D01*
X540304Y-437592D01*
X538467Y-436422D01*
X537257Y-436040D01*
Y-371192D01*
X537080Y-370307D01*
X536579Y-369556D01*
X517117Y-350093D01*
X516366Y-349592D01*
X515480Y-349416D01*
X509826D01*
X509328Y-348671D01*
X507916Y-347728D01*
X506250Y-347396D01*
D02*
G37*
G36*
X559519Y-433458D02*
X557393Y-433930D01*
X555461Y-434935D01*
X553856Y-436406D01*
X552686Y-438243D01*
X552031Y-440320D01*
X551936Y-442495D01*
X552407Y-444621D01*
X553413Y-446552D01*
X554884Y-448158D01*
X556720Y-449328D01*
X558797Y-449983D01*
X560973Y-450078D01*
X563098Y-449606D01*
X565030Y-448601D01*
X566635Y-447130D01*
X567805Y-445293D01*
X568460Y-443217D01*
X568555Y-441041D01*
X568084Y-438915D01*
X567078Y-436984D01*
X565607Y-435378D01*
X563771Y-434208D01*
X561694Y-433553D01*
X559519Y-433458D01*
D02*
G37*
G36*
X549081Y-459869D02*
X546955Y-460340D01*
X545023Y-461345D01*
X543418Y-462817D01*
X542248Y-464653D01*
X541593Y-466730D01*
X541498Y-468905D01*
X541969Y-471031D01*
X542975Y-472963D01*
X544446Y-474568D01*
X546282Y-475738D01*
X548359Y-476393D01*
X550535Y-476488D01*
X552661Y-476017D01*
X554592Y-475011D01*
X556198Y-473540D01*
X557368Y-471703D01*
X558022Y-469627D01*
X558117Y-467451D01*
X557646Y-465325D01*
X556641Y-463394D01*
X555169Y-461788D01*
X553333Y-460618D01*
X551256Y-459964D01*
X549081Y-459869D01*
D02*
G37*
G36*
X523777Y-462082D02*
X521651Y-462554D01*
X519720Y-463559D01*
X518114Y-465030D01*
X516944Y-466867D01*
X516290Y-468944D01*
X516195Y-471119D01*
X516666Y-473245D01*
X517671Y-475177D01*
X519142Y-476782D01*
X520979Y-477952D01*
X523056Y-478607D01*
X525231Y-478702D01*
X527357Y-478230D01*
X529289Y-477225D01*
X530894Y-475754D01*
X532064Y-473917D01*
X532719Y-471841D01*
X532814Y-469665D01*
X532343Y-467539D01*
X531337Y-465608D01*
X529866Y-464002D01*
X528030Y-462832D01*
X525953Y-462177D01*
X523777Y-462082D01*
D02*
G37*
G36*
X-601500Y-393814D02*
X-603489Y-394076D01*
X-605343Y-394844D01*
X-606935Y-396065D01*
X-608156Y-397657D01*
X-608924Y-399511D01*
X-609186Y-401500D01*
X-608924Y-403489D01*
X-608898Y-403551D01*
X-609551Y-404529D01*
X-609844Y-406000D01*
X-609844Y-406000D01*
Y-467845D01*
X-611435Y-469065D01*
X-612656Y-470657D01*
X-613424Y-472511D01*
X-613686Y-474500D01*
X-613424Y-476489D01*
X-612656Y-478343D01*
X-611435Y-479935D01*
X-609843Y-481156D01*
X-607989Y-481924D01*
X-606000Y-482186D01*
X-604011Y-481924D01*
X-602157Y-481156D01*
X-600565Y-479935D01*
X-599344Y-478343D01*
X-598576Y-476489D01*
X-598314Y-474500D01*
X-598576Y-472511D01*
X-599344Y-470657D01*
X-600565Y-469065D01*
X-602156Y-467845D01*
Y-409761D01*
X-601500Y-409186D01*
X-599511Y-408924D01*
X-597657Y-408156D01*
X-596065Y-406935D01*
X-594844Y-405343D01*
X-594076Y-403489D01*
X-593814Y-401500D01*
X-594076Y-399511D01*
X-594844Y-397657D01*
X-596065Y-396065D01*
X-597657Y-394844D01*
X-599511Y-394076D01*
X-601500Y-393814D01*
D02*
G37*
G36*
X-398857Y-467965D02*
X-401756Y-468092D01*
X-404524Y-468964D01*
X-406971Y-470523D01*
X-408931Y-472663D01*
X-410271Y-475236D01*
X-410899Y-478069D01*
X-410772Y-480968D01*
X-409900Y-483735D01*
X-408341Y-486183D01*
X-406202Y-488143D01*
X-403628Y-489483D01*
X-400795Y-490111D01*
X-397896Y-489984D01*
X-395129Y-489112D01*
X-392682Y-487553D01*
X-390721Y-485413D01*
X-389381Y-482840D01*
X-388753Y-480007D01*
X-388880Y-477108D01*
X-389753Y-474341D01*
X-391311Y-471893D01*
X-393451Y-469933D01*
X-396025Y-468593D01*
X-398857Y-467965D01*
D02*
G37*
G36*
X-476981Y-486627D02*
X-479880Y-486754D01*
X-482647Y-487626D01*
X-485095Y-489185D01*
X-487055Y-491325D01*
X-488395Y-493898D01*
X-489023Y-496731D01*
X-488896Y-499630D01*
X-488024Y-502397D01*
X-486465Y-504845D01*
X-484325Y-506805D01*
X-481752Y-508145D01*
X-478919Y-508773D01*
X-476020Y-508646D01*
X-473252Y-507774D01*
X-470805Y-506215D01*
X-468845Y-504075D01*
X-467505Y-501502D01*
X-466877Y-498669D01*
X-467004Y-495770D01*
X-467876Y-493003D01*
X-469435Y-490555D01*
X-471575Y-488595D01*
X-474148Y-487255D01*
X-476981Y-486627D01*
D02*
G37*
G36*
X580645Y-511618D02*
X579880Y-511693D01*
X579111Y-511685D01*
X578167Y-511862D01*
X577211Y-511956D01*
X576475Y-512180D01*
X575719Y-512322D01*
X574828Y-512679D01*
X573908Y-512958D01*
X573230Y-513321D01*
X572516Y-513607D01*
X571712Y-514132D01*
X570865Y-514585D01*
X570270Y-515073D01*
X569626Y-515493D01*
X568940Y-516165D01*
X568197Y-516774D01*
X567709Y-517369D01*
X567159Y-517907D01*
X566617Y-518700D01*
X566008Y-519442D01*
X565645Y-520120D01*
X565211Y-520755D01*
X564833Y-521639D01*
X564381Y-522486D01*
X564157Y-523222D01*
X563855Y-523929D01*
X563658Y-524869D01*
X563379Y-525788D01*
X563303Y-526554D01*
X563145Y-527306D01*
X563135Y-528267D01*
X563041Y-529223D01*
X563116Y-529988D01*
X563108Y-530757D01*
X563285Y-531702D01*
X563379Y-532657D01*
X563602Y-533393D01*
X563744Y-534149D01*
X564102Y-535041D01*
X564381Y-535960D01*
X564743Y-536638D01*
X565030Y-537352D01*
X565555Y-538156D01*
X566008Y-539004D01*
X566495Y-539598D01*
X566916Y-540242D01*
X567588Y-540929D01*
X568197Y-541671D01*
X568791Y-542159D01*
X569329Y-542709D01*
X570122Y-543251D01*
X570865Y-543861D01*
X571543Y-544223D01*
X572178Y-544658D01*
X573061Y-545035D01*
X573908Y-545488D01*
X574644Y-545711D01*
X575351Y-546013D01*
X576292Y-546211D01*
X577211Y-546489D01*
X577976Y-546565D01*
X578729Y-546723D01*
X579689Y-546734D01*
X580645Y-546828D01*
X581411Y-546752D01*
X582180Y-546761D01*
X583124Y-546584D01*
X584080Y-546489D01*
X584816Y-546266D01*
X585572Y-546124D01*
X586463Y-545766D01*
X587382Y-545488D01*
X588061Y-545125D01*
X588774Y-544838D01*
X589579Y-544314D01*
X590426Y-543861D01*
X591021Y-543373D01*
X591665Y-542953D01*
X592351Y-542281D01*
X593094Y-541671D01*
X593582Y-541077D01*
X594131Y-540539D01*
X594674Y-539746D01*
X595283Y-539004D01*
X595646Y-538325D01*
X596080Y-537691D01*
X596457Y-536807D01*
X596910Y-535960D01*
X597133Y-535224D01*
X597435Y-534517D01*
X597633Y-533577D01*
X597912Y-532657D01*
X597987Y-531892D01*
X598145Y-531139D01*
X598156Y-530179D01*
X598250Y-529223D01*
X598175Y-528458D01*
X598183Y-527688D01*
X598006Y-526744D01*
X597912Y-525788D01*
X597689Y-525052D01*
X597547Y-524297D01*
X597189Y-523405D01*
X596910Y-522486D01*
X596548Y-521808D01*
X596261Y-521094D01*
X595736Y-520289D01*
X595283Y-519442D01*
X594795Y-518848D01*
X594375Y-518204D01*
X593703Y-517517D01*
X593094Y-516774D01*
X592499Y-516287D01*
X591962Y-515737D01*
X591169Y-515195D01*
X590426Y-514585D01*
X589748Y-514223D01*
X589113Y-513788D01*
X588230Y-513411D01*
X587382Y-512958D01*
X586646Y-512735D01*
X585939Y-512433D01*
X584999Y-512235D01*
X584080Y-511956D01*
X583315Y-511881D01*
X582562Y-511723D01*
X581601Y-511712D01*
X580645Y-511618D01*
D02*
G37*
G36*
X466780Y-521580D02*
X466015Y-521655D01*
X465246Y-521647D01*
X464302Y-521824D01*
X463346Y-521918D01*
X462610Y-522142D01*
X461854Y-522283D01*
X460963Y-522641D01*
X460043Y-522920D01*
X459365Y-523283D01*
X458651Y-523569D01*
X457847Y-524094D01*
X457000Y-524547D01*
X456405Y-525035D01*
X455761Y-525455D01*
X455075Y-526127D01*
X454332Y-526736D01*
X453844Y-527331D01*
X453294Y-527869D01*
X452752Y-528662D01*
X452142Y-529404D01*
X451780Y-530082D01*
X451346Y-530717D01*
X450969Y-531600D01*
X450516Y-532448D01*
X450292Y-533184D01*
X449990Y-533891D01*
X449793Y-534831D01*
X449514Y-535750D01*
X449439Y-536516D01*
X449280Y-537268D01*
X449270Y-538229D01*
X449176Y-539185D01*
X449251Y-539950D01*
X449243Y-540719D01*
X449420Y-541663D01*
X449514Y-542619D01*
X449737Y-543355D01*
X449879Y-544111D01*
X450237Y-545002D01*
X450516Y-545922D01*
X450878Y-546600D01*
X451165Y-547314D01*
X451690Y-548118D01*
X452142Y-548965D01*
X452630Y-549560D01*
X453051Y-550204D01*
X453722Y-550891D01*
X454332Y-551633D01*
X454926Y-552121D01*
X455464Y-552671D01*
X456257Y-553213D01*
X457000Y-553823D01*
X457678Y-554185D01*
X458313Y-554619D01*
X459196Y-554997D01*
X460043Y-555449D01*
X460779Y-555673D01*
X461487Y-555975D01*
X462426Y-556172D01*
X463346Y-556451D01*
X464111Y-556527D01*
X464864Y-556685D01*
X465824Y-556695D01*
X466780Y-556790D01*
X467546Y-556714D01*
X468315Y-556723D01*
X469259Y-556545D01*
X470215Y-556451D01*
X470951Y-556228D01*
X471707Y-556086D01*
X472598Y-555728D01*
X473517Y-555449D01*
X474196Y-555087D01*
X474909Y-554800D01*
X475714Y-554275D01*
X476561Y-553823D01*
X477155Y-553335D01*
X477800Y-552914D01*
X478486Y-552243D01*
X479229Y-551633D01*
X479717Y-551039D01*
X480266Y-550501D01*
X480809Y-549708D01*
X481418Y-548965D01*
X481781Y-548287D01*
X482215Y-547653D01*
X482592Y-546769D01*
X483045Y-545922D01*
X483268Y-545186D01*
X483570Y-544479D01*
X483768Y-543539D01*
X484047Y-542619D01*
X484122Y-541854D01*
X484281Y-541101D01*
X484291Y-540141D01*
X484385Y-539185D01*
X484310Y-538419D01*
X484318Y-537650D01*
X484141Y-536706D01*
X484047Y-535750D01*
X483824Y-535014D01*
X483682Y-534258D01*
X483324Y-533367D01*
X483045Y-532448D01*
X482682Y-531769D01*
X482396Y-531056D01*
X481871Y-530251D01*
X481418Y-529404D01*
X480930Y-528810D01*
X480510Y-528166D01*
X479838Y-527479D01*
X479229Y-526736D01*
X478634Y-526249D01*
X478097Y-525699D01*
X477304Y-525156D01*
X476561Y-524547D01*
X475883Y-524184D01*
X475248Y-523750D01*
X474365Y-523373D01*
X473517Y-522920D01*
X472781Y-522697D01*
X472074Y-522395D01*
X471134Y-522197D01*
X470215Y-521918D01*
X469450Y-521843D01*
X468697Y-521685D01*
X467736Y-521674D01*
X466780Y-521580D01*
D02*
G37*
G36*
X588884Y-553400D02*
X586591Y-553908D01*
X584508Y-554993D01*
X582776Y-556580D01*
X581514Y-558560D01*
X580808Y-560800D01*
X580705Y-563147D01*
X581214Y-565440D01*
X582298Y-567523D01*
X583885Y-569255D01*
X585866Y-570517D01*
X588106Y-571223D01*
X590452Y-571325D01*
X592745Y-570817D01*
X594828Y-569733D01*
X596560Y-568146D01*
X597822Y-566165D01*
X598528Y-563925D01*
X598631Y-561578D01*
X598122Y-559286D01*
X597038Y-557202D01*
X595451Y-555471D01*
X593470Y-554209D01*
X591230Y-553502D01*
X588884Y-553400D01*
D02*
G37*
G36*
X-152803Y-565789D02*
X-152803Y-565789D01*
X-219899D01*
X-221370Y-566082D01*
X-222617Y-566915D01*
X-222617Y-566915D01*
X-234176Y-578474D01*
X-278433D01*
X-278591Y-576596D01*
X-279485Y-574114D01*
X-280991Y-571947D01*
X-283006Y-570244D01*
X-285393Y-569121D01*
X-287990Y-568654D01*
X-290619Y-568875D01*
X-293101Y-569768D01*
X-295267Y-571274D01*
X-296970Y-573289D01*
X-298094Y-575676D01*
X-298561Y-578273D01*
X-298914Y-585765D01*
X-298693Y-588394D01*
X-297800Y-590876D01*
X-296294Y-593042D01*
X-294279Y-594745D01*
X-291892Y-595869D01*
X-289295Y-596336D01*
X-286666Y-596115D01*
X-284184Y-595221D01*
X-282017Y-593716D01*
X-280314Y-591701D01*
X-279191Y-589313D01*
X-278724Y-586717D01*
X-278697Y-586162D01*
X-232584D01*
X-232584Y-586162D01*
X-231113Y-585869D01*
X-229866Y-585036D01*
X-218307Y-573477D01*
X-195854D01*
X-195438Y-574747D01*
X-196314Y-575391D01*
X-197963Y-577449D01*
X-199024Y-579865D01*
X-199423Y-582473D01*
X-199580Y-589972D01*
X-199290Y-592594D01*
X-198332Y-595052D01*
X-196770Y-597178D01*
X-194711Y-598828D01*
X-192295Y-599888D01*
X-189687Y-600288D01*
X-187065Y-599998D01*
X-184607Y-599040D01*
X-182481Y-597478D01*
X-180831Y-595419D01*
X-179771Y-593003D01*
X-179371Y-590395D01*
X-179214Y-582896D01*
X-179504Y-580274D01*
X-180462Y-577816D01*
X-182024Y-575690D01*
X-183201Y-574747D01*
X-182755Y-573477D01*
X-169735D01*
X-169319Y-574747D01*
X-170919Y-575922D01*
X-172569Y-577981D01*
X-173629Y-580397D01*
X-174028Y-583005D01*
X-174186Y-590504D01*
X-173896Y-593126D01*
X-172938Y-595584D01*
X-171376Y-597710D01*
X-169317Y-599360D01*
X-166901Y-600420D01*
X-164293Y-600819D01*
X-161671Y-600530D01*
X-159213Y-599571D01*
X-157086Y-598010D01*
X-155437Y-595951D01*
X-154376Y-593535D01*
X-153977Y-590927D01*
X-153820Y-583428D01*
X-154109Y-580806D01*
X-155068Y-578348D01*
X-156630Y-576222D01*
X-158471Y-574747D01*
X-158321Y-573871D01*
X-158113Y-573477D01*
X-154395D01*
X-147841Y-580031D01*
X-148235Y-580929D01*
X-148634Y-583537D01*
X-148791Y-591035D01*
X-148502Y-593658D01*
X-147543Y-596116D01*
X-145981Y-598242D01*
X-143922Y-599892D01*
X-141507Y-600952D01*
X-138898Y-601351D01*
X-136276Y-601062D01*
X-133818Y-600103D01*
X-131692Y-598542D01*
X-130042Y-596483D01*
X-128982Y-594067D01*
X-128583Y-591459D01*
X-128426Y-583960D01*
X-128715Y-581338D01*
X-129673Y-578880D01*
X-131235Y-576754D01*
X-133294Y-575104D01*
X-135710Y-574044D01*
X-138318Y-573644D01*
X-140941Y-573934D01*
X-142469Y-574530D01*
X-150085Y-566915D01*
X-151332Y-566082D01*
X-151576Y-566033D01*
X-152803Y-565789D01*
D02*
G37*
G36*
X-542841Y-552253D02*
X-545476Y-552368D01*
X-547993Y-553162D01*
X-550218Y-554579D01*
X-552000Y-556524D01*
X-553218Y-558865D01*
X-553789Y-561440D01*
X-554443Y-568912D01*
X-554328Y-571548D01*
X-553535Y-574064D01*
X-552117Y-576289D01*
X-550172Y-578071D01*
X-547832Y-579290D01*
X-545256Y-579861D01*
X-542620Y-579746D01*
X-540104Y-578952D01*
X-537879Y-577535D01*
X-536096Y-575589D01*
X-534878Y-573249D01*
X-534307Y-570673D01*
X-533653Y-563202D01*
X-533769Y-560566D01*
X-534562Y-558050D01*
X-535979Y-555825D01*
X-537925Y-554042D01*
X-540265Y-552824D01*
X-542841Y-552253D01*
D02*
G37*
G36*
X488169Y-562211D02*
X485876Y-562720D01*
X483792Y-563804D01*
X482061Y-565391D01*
X480799Y-567372D01*
X480093Y-569612D01*
X479990Y-571958D01*
X480498Y-574251D01*
X481583Y-576334D01*
X483170Y-578066D01*
X485150Y-579328D01*
X487391Y-580034D01*
X489737Y-580137D01*
X492030Y-579628D01*
X494113Y-578544D01*
X495845Y-576957D01*
X497107Y-574976D01*
X497813Y-572736D01*
X497915Y-570390D01*
X497407Y-568097D01*
X496323Y-566014D01*
X494736Y-564282D01*
X492755Y-563020D01*
X490515Y-562314D01*
X488169Y-562211D01*
D02*
G37*
G36*
X-481072Y-557355D02*
X-483705Y-557517D01*
X-486207Y-558354D01*
X-488407Y-559810D01*
X-490155Y-561786D01*
X-491332Y-564147D01*
X-491858Y-566732D01*
X-492382Y-574214D01*
X-492220Y-576847D01*
X-491383Y-579349D01*
X-489927Y-581549D01*
X-487951Y-583298D01*
X-485590Y-584475D01*
X-483005Y-585001D01*
X-480371Y-584840D01*
X-477869Y-584003D01*
X-475669Y-582547D01*
X-473921Y-580570D01*
X-472744Y-578209D01*
X-472218Y-575624D01*
X-471695Y-568142D01*
X-471856Y-565509D01*
X-472693Y-563007D01*
X-474149Y-560807D01*
X-476125Y-559059D01*
X-478486Y-557882D01*
X-481072Y-557355D01*
D02*
G37*
G36*
X-455733Y-559127D02*
X-458367Y-559288D01*
X-460869Y-560126D01*
X-463069Y-561582D01*
X-464817Y-563558D01*
X-465994Y-565919D01*
X-466520Y-568504D01*
X-467043Y-575986D01*
X-466882Y-578619D01*
X-466045Y-581121D01*
X-464589Y-583321D01*
X-462613Y-585070D01*
X-460252Y-586247D01*
X-457667Y-586773D01*
X-455033Y-586612D01*
X-452531Y-585774D01*
X-450331Y-584318D01*
X-448583Y-582342D01*
X-447406Y-579981D01*
X-446880Y-577396D01*
X-446357Y-569914D01*
X-446518Y-567281D01*
X-447355Y-564779D01*
X-448811Y-562579D01*
X-450787Y-560830D01*
X-453148Y-559653D01*
X-455733Y-559127D01*
D02*
G37*
G36*
X-430395Y-560899D02*
X-433029Y-561060D01*
X-435531Y-561897D01*
X-437731Y-563354D01*
X-439479Y-565330D01*
X-440656Y-567691D01*
X-441182Y-570276D01*
X-441705Y-577758D01*
X-441544Y-580391D01*
X-440707Y-582893D01*
X-439251Y-585093D01*
X-437275Y-586841D01*
X-434914Y-588018D01*
X-432328Y-588545D01*
X-429695Y-588383D01*
X-427193Y-587546D01*
X-424993Y-586090D01*
X-423245Y-584114D01*
X-422068Y-581753D01*
X-421542Y-579168D01*
X-421018Y-571686D01*
X-421180Y-569053D01*
X-422017Y-566551D01*
X-423473Y-564351D01*
X-425449Y-562602D01*
X-427810Y-561425D01*
X-430395Y-560899D01*
D02*
G37*
G36*
X565062Y-572549D02*
X562769Y-573057D01*
X560686Y-574142D01*
X558954Y-575729D01*
X557692Y-577709D01*
X556986Y-579949D01*
X556884Y-582296D01*
X557392Y-584589D01*
X558476Y-586672D01*
X560063Y-588404D01*
X562044Y-589666D01*
X564284Y-590372D01*
X566631Y-590474D01*
X568923Y-589966D01*
X571007Y-588882D01*
X572738Y-587295D01*
X574000Y-585314D01*
X574707Y-583074D01*
X574809Y-580728D01*
X574301Y-578434D01*
X573216Y-576351D01*
X571629Y-574620D01*
X569649Y-573358D01*
X567409Y-572651D01*
X565062Y-572549D01*
D02*
G37*
G36*
X-338733Y-566261D02*
X-341362Y-566482D01*
X-343844Y-567375D01*
X-346011Y-568881D01*
X-347714Y-570896D01*
X-348837Y-573283D01*
X-349305Y-575880D01*
X-349658Y-583372D01*
X-349437Y-586001D01*
X-348543Y-588483D01*
X-347038Y-590649D01*
X-345022Y-592352D01*
X-342635Y-593476D01*
X-340039Y-593943D01*
X-337410Y-593722D01*
X-334927Y-592828D01*
X-332761Y-591323D01*
X-331058Y-589308D01*
X-329935Y-586920D01*
X-329467Y-584324D01*
X-329114Y-576832D01*
X-329335Y-574203D01*
X-330228Y-571721D01*
X-331734Y-569554D01*
X-333749Y-567851D01*
X-336137Y-566728D01*
X-338733Y-566261D01*
D02*
G37*
G36*
X-313361Y-567457D02*
X-315990Y-567678D01*
X-318473Y-568572D01*
X-320639Y-570077D01*
X-322342Y-572093D01*
X-323465Y-574480D01*
X-323933Y-577076D01*
X-324286Y-584568D01*
X-324065Y-587197D01*
X-323172Y-589679D01*
X-321666Y-591846D01*
X-319651Y-593549D01*
X-317263Y-594672D01*
X-314667Y-595139D01*
X-312038Y-594919D01*
X-309555Y-594025D01*
X-307389Y-592519D01*
X-305686Y-590504D01*
X-304563Y-588117D01*
X-304095Y-585520D01*
X-303742Y-578028D01*
X-303963Y-575399D01*
X-304857Y-572917D01*
X-306362Y-570751D01*
X-308377Y-569048D01*
X-310765Y-567924D01*
X-313361Y-567457D01*
D02*
G37*
G36*
X464347Y-581360D02*
X462054Y-581869D01*
X459971Y-582953D01*
X458239Y-584540D01*
X456977Y-586521D01*
X456271Y-588761D01*
X456168Y-591107D01*
X456677Y-593400D01*
X457761Y-595484D01*
X459348Y-597215D01*
X461329Y-598477D01*
X463569Y-599183D01*
X465915Y-599286D01*
X468208Y-598778D01*
X470291Y-597693D01*
X472023Y-596106D01*
X473285Y-594125D01*
X473991Y-591885D01*
X474094Y-589539D01*
X473586Y-587246D01*
X472501Y-585163D01*
X470914Y-583431D01*
X468933Y-582169D01*
X466693Y-581463D01*
X464347Y-581360D01*
D02*
G37*
%LPD*%
G36*
X78569Y158500D02*
X78681Y158464D01*
X78764Y158381D01*
X79100Y157727D01*
Y157727D01*
X79125Y157678D01*
X79129Y157625D01*
X79229Y157430D01*
Y157211D01*
X79250Y157162D01*
X79250Y-160085D01*
Y-172250D01*
X80625D01*
X220030Y-172250D01*
X264739D01*
X337070Y-172250D01*
X337537Y-172443D01*
X337730Y-172637D01*
X337730Y-172637D01*
X338307Y-173214D01*
X338411Y-173466D01*
X338411Y-173466D01*
X338500Y-173680D01*
Y-230453D01*
X338500Y-230453D01*
X337343Y-231000D01*
X320623D01*
X317750Y-228127D01*
X317750Y-219902D01*
X317750Y-192875D01*
Y-191500D01*
X-142250D01*
Y-192875D01*
X-142250Y-243902D01*
X-142250Y-275640D01*
X-142250Y-286570D01*
X-142443Y-287037D01*
X-142636Y-287230D01*
X-142637Y-287230D01*
X-143213Y-287807D01*
X-143466Y-287911D01*
X-143466Y-287911D01*
X-143680Y-288000D01*
X-167190Y-288000D01*
X-280366Y-288000D01*
X-287250D01*
Y-291422D01*
X-287250Y-313952D01*
X-287250Y-406096D01*
Y-411250D01*
X-225788Y-411250D01*
X-209310D01*
X-204846D01*
X-204798Y-411270D01*
X-204577D01*
X-204381Y-411370D01*
X-204329Y-411374D01*
X-203500Y-412209D01*
X-203500Y-414579D01*
X-203675Y-415002D01*
X-203846Y-415150D01*
X-203846Y-415150D01*
X-203850Y-415202D01*
X-203887Y-415239D01*
X-203887Y-415239D01*
X-204011Y-415363D01*
X-204011Y-415363D01*
X-204011Y-415363D01*
X-204205Y-415557D01*
X-204419Y-415645D01*
X-204419D01*
X-204671Y-415750D01*
X-204945Y-415750D01*
X-204945Y-415750D01*
X-287250D01*
Y-417125D01*
Y-452000D01*
X-286847Y-452403D01*
X-286847Y-452403D01*
X-283130Y-456120D01*
X-278946Y-460304D01*
X-278930Y-460409D01*
X-278930Y-460410D01*
X-278790Y-460513D01*
X-278724Y-460674D01*
X-278724Y-461321D01*
X-278992Y-462127D01*
X-279091Y-462296D01*
X-279098Y-462348D01*
X-280391Y-463641D01*
X-280391Y-463641D01*
X-280391Y-463641D01*
X-281289Y-464539D01*
X-291500Y-454328D01*
X-291500Y-433683D01*
X-291500Y-396401D01*
X-291500Y-265964D01*
Y-257750D01*
X-322495D01*
X-424814Y-257750D01*
X-535297Y-257750D01*
X-535570D01*
X-536037Y-257557D01*
X-536230Y-257363D01*
X-536230Y-257363D01*
X-536807Y-256786D01*
X-536911Y-256534D01*
X-536911Y-256534D01*
X-537000Y-256320D01*
X-537000Y-236265D01*
X-537000Y-227973D01*
X-536185Y-227126D01*
X-536129Y-227121D01*
X-535937Y-227021D01*
X-535720Y-227021D01*
X-535669Y-227000D01*
X-535613D01*
X-535612Y-227000D01*
X-303395Y-227000D01*
X-268895D01*
X-263680D01*
X-263214Y-227193D01*
X-263020Y-227387D01*
X-263020Y-227387D01*
X-262443Y-227964D01*
X-262339Y-228216D01*
X-262339Y-228216D01*
X-262250Y-228430D01*
Y-230430D01*
X-262470D01*
Y-247970D01*
X-244930D01*
X-244930Y-247970D01*
X-234942D01*
X-228875D01*
X-228300Y-248046D01*
X-227725Y-247970D01*
X-221445D01*
X-162624Y-247970D01*
X-161250D01*
Y-246595D01*
X-161250Y-172250D01*
X-161250Y-19000D01*
X-162625D01*
X-202249Y-19000D01*
X-207294D01*
X-235320Y-19000D01*
X-235787Y-18807D01*
X-235980Y-18613D01*
X-235980Y-18613D01*
X-236557Y-18037D01*
X-236661Y-17784D01*
X-236661Y-17784D01*
X-236750Y-17570D01*
Y4178D01*
X-236750Y35797D01*
Y47371D01*
X-236750Y47372D01*
Y47431D01*
X-236728Y47485D01*
Y47699D01*
X-236628Y47888D01*
X-236623Y47947D01*
X-236518Y48149D01*
X-236411Y48238D01*
X-236351Y48352D01*
X-236238Y48411D01*
X-236149Y48518D01*
X-236000Y48596D01*
X-236000Y48596D01*
X-235947Y48623D01*
X-235889Y48628D01*
X-235700Y48727D01*
X-235698Y48728D01*
X-235485D01*
X-235431Y48750D01*
X-235372D01*
X-235372Y48750D01*
X-182203Y48750D01*
X-177810D01*
X-143680Y48750D01*
X-143214Y48557D01*
X-143020Y48363D01*
X-143020Y48363D01*
X-142443Y47786D01*
X-142339Y47534D01*
X-142339Y47534D01*
X-142250Y47320D01*
Y34302D01*
X-142250Y-153050D01*
Y-172250D01*
X68750D01*
Y-160977D01*
X68750Y157060D01*
Y157329D01*
X68943Y157795D01*
X69137Y157989D01*
X69137Y157989D01*
X69298Y158150D01*
X69350Y158154D01*
X69350Y158154D01*
X69498Y158325D01*
X69707Y158411D01*
X69707Y158411D01*
X69921Y158500D01*
X78569Y158500D01*
D02*
G37*
G36*
X316375Y-219902D02*
X316375Y-225093D01*
X315202Y-225579D01*
X289274Y-199651D01*
X289354Y-199250D01*
X289022Y-197584D01*
X288078Y-196171D01*
X286666Y-195228D01*
X285000Y-194896D01*
X283334Y-195228D01*
X281922Y-196171D01*
X280978Y-197584D01*
X280646Y-199250D01*
X280978Y-200916D01*
X281922Y-202328D01*
X283334Y-203272D01*
X285000Y-203604D01*
X286666Y-203272D01*
X287107Y-202978D01*
X328619Y-244489D01*
X328261Y-245928D01*
X327462Y-246462D01*
X326684Y-247627D01*
X326411Y-249000D01*
X326551Y-249702D01*
X322000Y-254253D01*
X314904D01*
X314417Y-253079D01*
X315798Y-251699D01*
X316500Y-251839D01*
X317873Y-251566D01*
X319038Y-250788D01*
X319816Y-249623D01*
X320089Y-248250D01*
X319816Y-246877D01*
X319038Y-245712D01*
X318729Y-245506D01*
X318592Y-244211D01*
X318671Y-243940D01*
X319522Y-242666D01*
X319854Y-241000D01*
X319522Y-239334D01*
X318578Y-237922D01*
X317166Y-236978D01*
X315500Y-236646D01*
X314160Y-236913D01*
X276087Y-198840D01*
X276354Y-197500D01*
X276022Y-195834D01*
X275079Y-194422D01*
X274664Y-194145D01*
X275049Y-192875D01*
X316376D01*
X316375Y-219902D01*
D02*
G37*
G36*
X269336Y-194145D02*
X268922Y-194422D01*
X267978Y-195834D01*
X267646Y-197500D01*
X267978Y-199166D01*
X268922Y-200578D01*
X270334Y-201522D01*
X272000Y-201854D01*
X273340Y-201587D01*
X311413Y-239660D01*
X311146Y-241000D01*
X311478Y-242666D01*
X312421Y-244079D01*
X313271Y-244646D01*
X313760Y-245400D01*
X313590Y-246269D01*
X313184Y-246877D01*
X312911Y-248250D01*
X313051Y-248952D01*
X310290Y-251713D01*
X303166D01*
X302401Y-250443D01*
X302589Y-249500D01*
X302316Y-248127D01*
X301538Y-246962D01*
X301097Y-246668D01*
Y-243279D01*
X301097Y-243279D01*
X300949Y-242536D01*
X300528Y-241905D01*
X300528Y-241905D01*
X294750Y-236127D01*
X294119Y-235706D01*
X293376Y-235558D01*
X290936D01*
X290538Y-234962D01*
X289373Y-234184D01*
X288000Y-233911D01*
X286627Y-234184D01*
X285462Y-234962D01*
X284538D01*
X283373Y-234184D01*
X282000Y-233911D01*
X280627Y-234184D01*
X279462Y-234962D01*
X278538D01*
X277373Y-234184D01*
X276000Y-233911D01*
X274627Y-234184D01*
X273462Y-234962D01*
X272538D01*
X271373Y-234184D01*
X270000Y-233911D01*
X268627Y-234184D01*
X267462Y-234962D01*
X266684Y-236127D01*
X266411Y-237500D01*
X266684Y-238873D01*
X267462Y-240038D01*
X268627Y-240816D01*
X270000Y-241089D01*
X270702Y-240949D01*
X287322Y-257568D01*
X287952Y-257990D01*
X288695Y-258137D01*
X322805D01*
X323548Y-257990D01*
X324178Y-257568D01*
X329298Y-252449D01*
X330000Y-252589D01*
X331373Y-252316D01*
X332538Y-251538D01*
X333072Y-250739D01*
X334510Y-250381D01*
X340503Y-256373D01*
X341133Y-256794D01*
X341876Y-256942D01*
X471814D01*
X472212Y-257538D01*
X473377Y-258316D01*
X474410Y-258521D01*
X474866Y-259479D01*
X474910Y-259817D01*
X467541Y-267185D01*
X417937D01*
X417788Y-266962D01*
X416623Y-266184D01*
X415250Y-265911D01*
X413877Y-266184D01*
X412712Y-266962D01*
X411934Y-268127D01*
X411661Y-269500D01*
X411934Y-270873D01*
X412712Y-272038D01*
X413877Y-272816D01*
X414185Y-272877D01*
Y-282563D01*
X413962Y-282712D01*
X413184Y-283877D01*
X412911Y-285250D01*
X413184Y-286623D01*
X413962Y-287788D01*
X415127Y-288566D01*
X415435Y-288627D01*
Y-298012D01*
X415032Y-298282D01*
X209208Y-504106D01*
X-149842D01*
X-170216Y-483732D01*
X-171463Y-482899D01*
X-172934Y-482606D01*
X-172935Y-482606D01*
X-263221D01*
X-279419Y-466409D01*
X-279419Y-464613D01*
X-279419Y-464613D01*
X-279419Y-464613D01*
X-278126Y-463320D01*
X-278028Y-463084D01*
X-277903Y-462989D01*
X-277805Y-462820D01*
X-277785Y-462673D01*
X-277688Y-462561D01*
X-277419Y-461755D01*
X-277435Y-461530D01*
X-277349Y-461321D01*
X-277349Y-460674D01*
X-277454Y-460421D01*
Y-460403D01*
X-277431Y-460311D01*
X-277454Y-460273D01*
Y-460148D01*
X-277520Y-459987D01*
X-277700Y-459808D01*
X-277701Y-459795D01*
X-277701Y-459795D01*
X-277720Y-459778D01*
X-277752Y-459702D01*
X-277811Y-459678D01*
X-277876Y-459569D01*
X-277974Y-459332D01*
X-282158Y-455148D01*
X-285875Y-451431D01*
X-285875Y-451431D01*
X-285875Y-451431D01*
Y-417125D01*
X-204945D01*
X-204945Y-417125D01*
X-204672Y-417125D01*
X-204419Y-417020D01*
X-204145Y-417020D01*
X-203893Y-416915D01*
X-203679Y-416827D01*
X-203485Y-416633D01*
X-203233Y-416529D01*
X-203039Y-416335D01*
X-203039Y-416335D01*
X-202915Y-416211D01*
X-202915Y-416211D01*
X-202915Y-416211D01*
X-202878Y-416174D01*
X-202849Y-416105D01*
X-202775Y-416040D01*
X-202631Y-415754D01*
X-202405Y-415528D01*
X-202230Y-415105D01*
X-202230Y-414831D01*
X-202125Y-414579D01*
X-202125Y-412209D01*
X-202327Y-411722D01*
X-202525Y-411241D01*
X-202528Y-411237D01*
X-202528Y-411237D01*
X-202528Y-411237D01*
X-203353Y-410406D01*
X-203604Y-410301D01*
X-203605Y-410298D01*
X-203638Y-410284D01*
X-203756Y-410146D01*
X-203953Y-410045D01*
X-204174Y-410028D01*
X-204220Y-410004D01*
X-204272Y-410000D01*
X-204272Y-410000D01*
X-204272Y-410000D01*
X-204320Y-409980D01*
X-204373D01*
X-204577Y-409895D01*
X-204798D01*
X-204846Y-409875D01*
X-205678D01*
X-205750Y-409861D01*
X-205822Y-409875D01*
X-225788D01*
X-285875Y-409875D01*
Y-406096D01*
X-285875Y-313952D01*
X-285875Y-291422D01*
Y-289375D01*
X-280366D01*
X-167190Y-289375D01*
X-143680Y-289375D01*
X-143427Y-289270D01*
X-143154Y-289270D01*
X-142687Y-289077D01*
X-142494Y-288883D01*
X-142241Y-288779D01*
X-141665Y-288202D01*
X-141664Y-288202D01*
X-141471Y-288009D01*
X-141367Y-287756D01*
X-141173Y-287563D01*
X-140980Y-287096D01*
Y-286823D01*
X-140875Y-286570D01*
X-140875Y-275640D01*
X-140875Y-243902D01*
X-140875Y-192875D01*
X268951D01*
X269336Y-194145D01*
D02*
G37*
D12*
X511000Y-322000D02*
X530250Y-302750D01*
X458750Y-322000D02*
X511000D01*
X472427Y-288480D02*
X515741D01*
X441750Y-319157D02*
X472427Y-288480D01*
X441750Y-429250D02*
Y-319157D01*
X515741Y-288480D02*
X517525Y-290264D01*
X427000Y-437750D02*
X450750D01*
X417750Y-428500D02*
X427000Y-437750D01*
X417750Y-428500D02*
Y-301000D01*
X450750Y-437750D02*
X462038Y-426462D01*
Y-382250D01*
X478500Y-223750D02*
X479270Y-224520D01*
Y-258730D02*
Y-224520D01*
X468500Y-269500D02*
X479270Y-258730D01*
X415250Y-269500D02*
X468500D01*
X415250Y-270177D02*
Y-269500D01*
Y-270177D02*
X416500Y-271427D01*
Y-285250D02*
Y-271427D01*
Y-285926D02*
Y-285250D01*
Y-285926D02*
X417750Y-287176D01*
Y-301000D02*
Y-287176D01*
X481475Y-220775D02*
X509934D01*
X478500Y-223750D02*
X481475Y-220775D01*
X427409Y-238458D02*
X442117Y-223750D01*
X478500D01*
X569500Y-418750D02*
Y-312250D01*
X540014Y-282764D02*
X569500Y-312250D01*
X518275Y-282764D02*
X540014D01*
X499201Y-423000D02*
Y-362748D01*
X512250Y-443585D02*
Y-357000D01*
X534942Y-443982D02*
Y-371192D01*
X506270Y-351730D02*
X515480D01*
X534942Y-371192D01*
X509639Y-446196D02*
X512250Y-443585D01*
X499201Y-472606D02*
Y-423000D01*
X478270Y-353980D02*
X490433D01*
X478250Y-354000D02*
X478270Y-353980D01*
X490433D02*
X499201Y-362748D01*
X473898Y-429750D02*
Y-373602D01*
X488250Y-359250D01*
X473898Y-474819D02*
Y-429750D01*
X506250Y-351750D02*
X506270Y-351730D01*
X552487Y-275263D02*
X559000Y-268750D01*
X516775Y-275263D02*
X552487D01*
X517000Y-267750D02*
X550000D01*
X558750Y-259000D01*
D15*
X341876Y-255000D02*
X474750D01*
X286126Y-199250D02*
X341876Y-255000D01*
X285000Y-199250D02*
X286126D01*
X272000Y-197500D02*
X315500Y-241000D01*
X315500D01*
X322805Y-256195D02*
X330000Y-249000D01*
X288695Y-256195D02*
X322805D01*
X299000Y-249500D02*
X299155Y-249345D01*
Y-243279D01*
X293376Y-237500D02*
X299155Y-243279D01*
X288000Y-237500D02*
X293376D01*
X282000D02*
X289500Y-245000D01*
X295000D01*
X270000Y-237500D02*
X288695Y-256195D01*
X276000Y-237500D02*
X292155Y-253655D01*
X311095D01*
X316500Y-248250D01*
D110*
X-152803Y-569633D02*
X-138608Y-583827D01*
X-219899Y-569633D02*
X-152803D01*
X-232584Y-582318D02*
X-219899Y-569633D01*
X-288466Y-582318D02*
X-232584D01*
X-288642Y-582495D02*
X-288466Y-582318D01*
X-138608Y-587498D02*
Y-583827D01*
X210800Y-507950D02*
X417750Y-301000D01*
X-460122Y-286622D02*
X-409379D01*
X-151434Y-507950D02*
X210800D01*
X-172934Y-486450D02*
X-151434Y-507950D01*
X-233450Y-486450D02*
X-172934D01*
X-391770Y-279730D02*
X-352750Y-318750D01*
Y-398514D02*
Y-318750D01*
Y-398514D02*
X-264813Y-486450D01*
X-475230Y-279730D02*
X-391770D01*
X-478750Y-283250D02*
X-475230Y-279730D01*
X-264813Y-486450D02*
X-233450D01*
X-606000Y-406000D02*
X-601500Y-401500D01*
X-606000Y-474500D02*
Y-406000D01*
X-574750Y-401250D02*
X-460122Y-286622D01*
D114*
X-228300Y40200D02*
D03*
Y14800D02*
D03*
Y-10600D02*
D03*
Y-36000D02*
D03*
Y-61400D02*
D03*
Y-86800D02*
D03*
Y-112200D02*
D03*
Y-137600D02*
D03*
Y-163000D02*
D03*
Y-188400D02*
D03*
Y-213550D02*
D03*
Y-239200D02*
D03*
X-253700Y-86800D02*
D03*
Y-61400D02*
D03*
Y-36000D02*
D03*
Y-10600D02*
D03*
Y40200D02*
D03*
Y14800D02*
D03*
Y-213800D02*
D03*
Y-188400D02*
D03*
Y-163000D02*
D03*
Y-137600D02*
D03*
Y-112200D02*
D03*
D115*
Y-239200D02*
D03*
D116*
X580645Y-529223D02*
D03*
X466780Y-539185D02*
D03*
D117*
X599505Y-496956D02*
D03*
X442604Y-510683D02*
D03*
D118*
X589668Y-562363D02*
D03*
X565846Y-581512D02*
D03*
X488953Y-571174D02*
D03*
X465131Y-590323D02*
D03*
D119*
X560246Y-441768D02*
D03*
X549808Y-468178D02*
D03*
X534942Y-443982D02*
D03*
X524504Y-470392D02*
D03*
X509639Y-446196D02*
D03*
X499201Y-472606D02*
D03*
X484336Y-448409D02*
D03*
D120*
X473898Y-474819D02*
D03*
D121*
X-386544Y-327218D02*
D03*
X-399826Y-479038D02*
D03*
X-477950Y-497700D02*
D03*
X-471309Y-421790D02*
D03*
X-462454Y-320577D02*
D03*
D122*
X-214792Y-585902D02*
D03*
X-138608Y-587498D02*
D03*
X-164003Y-586966D02*
D03*
X-189397Y-586434D02*
D03*
D123*
X657740Y-340740D02*
D03*
X705240Y424260D02*
D03*
X657740Y169260D02*
D03*
Y679260D02*
D03*
Y1189260D02*
D03*
X-642260D02*
D03*
Y679260D02*
D03*
X-689760Y424260D02*
D03*
X-642260Y169260D02*
D03*
Y-340740D02*
D03*
D124*
X-482038Y-571178D02*
D03*
X-456700Y-572950D02*
D03*
X-431362Y-574722D02*
D03*
D125*
X-544048Y-566057D02*
D03*
X-569352Y-563843D02*
D03*
D126*
X-364758Y-578905D02*
D03*
X-288642Y-582495D02*
D03*
X-314014Y-581298D02*
D03*
X-339386Y-580102D02*
D03*
D127*
X530250Y-302750D02*
D03*
X458750Y-322000D02*
D03*
X483300Y-283200D02*
D03*
X472799Y-294500D02*
D03*
X495250Y-293000D02*
D03*
X493511Y-274000D02*
D03*
X472250Y-276474D02*
D03*
X728810Y213230D02*
D03*
X703810Y163230D02*
D03*
X728810Y113230D02*
D03*
X703810Y63230D02*
D03*
X728810Y13230D02*
D03*
X703810Y-36770D02*
D03*
X728810Y-86770D02*
D03*
X703810Y-136770D02*
D03*
X728810Y-186770D02*
D03*
X703810Y-236770D02*
D03*
X728810Y-286770D02*
D03*
X703810Y-336770D02*
D03*
X728810Y-386770D02*
D03*
Y-486770D02*
D03*
X678810Y213230D02*
D03*
Y113230D02*
D03*
X653810Y63230D02*
D03*
X678810Y13230D02*
D03*
X653810Y-36770D02*
D03*
X678810Y-86770D02*
D03*
X653810Y-136770D02*
D03*
X678810Y-186770D02*
D03*
X653810Y-236770D02*
D03*
X678810Y-286770D02*
D03*
Y-386770D02*
D03*
X653810Y-436770D02*
D03*
X678810Y-486770D02*
D03*
X653810Y-536770D02*
D03*
X628810Y213230D02*
D03*
X603810Y163230D02*
D03*
X628810Y113230D02*
D03*
X603810Y63230D02*
D03*
X628810Y13230D02*
D03*
X603810Y-36770D02*
D03*
X628810Y-86770D02*
D03*
X603810Y-136770D02*
D03*
X628810Y-586770D02*
D03*
X578810Y213230D02*
D03*
X553810Y163230D02*
D03*
X578810Y113230D02*
D03*
X553810Y63230D02*
D03*
X578810Y13230D02*
D03*
X553810Y-36770D02*
D03*
X578810Y-86770D02*
D03*
Y-586770D02*
D03*
X528810Y213230D02*
D03*
X503810Y163230D02*
D03*
X528810Y113230D02*
D03*
X503810Y63230D02*
D03*
X528810Y13230D02*
D03*
X503810Y-36770D02*
D03*
X528810Y-86770D02*
D03*
X503810Y-136770D02*
D03*
X528810Y-486770D02*
D03*
X503810Y-536770D02*
D03*
X528810Y-586770D02*
D03*
X478810Y213230D02*
D03*
X453810Y163230D02*
D03*
X478810Y113230D02*
D03*
X453810Y63230D02*
D03*
X478810Y13230D02*
D03*
X453810Y-36770D02*
D03*
X478810Y-86770D02*
D03*
X453810Y-136770D02*
D03*
X478810Y-586770D02*
D03*
X428810Y213230D02*
D03*
X403810Y163230D02*
D03*
X428810Y113230D02*
D03*
X403810Y63230D02*
D03*
X428810Y13230D02*
D03*
X403810Y-36770D02*
D03*
X428810Y-86770D02*
D03*
X403810Y-136770D02*
D03*
X428810Y-186770D02*
D03*
X403810Y-236770D02*
D03*
Y-336770D02*
D03*
X428810Y-586770D02*
D03*
X378810Y213230D02*
D03*
X353810Y163230D02*
D03*
X378810Y113230D02*
D03*
X353810Y63230D02*
D03*
X378810Y13230D02*
D03*
X353810Y-36770D02*
D03*
X378810Y-86770D02*
D03*
X353810Y-136770D02*
D03*
X378810Y-186770D02*
D03*
X353810Y-236770D02*
D03*
X378810Y-286770D02*
D03*
X353810Y-336770D02*
D03*
X378810Y-386770D02*
D03*
X353810Y-436770D02*
D03*
X378810Y-486770D02*
D03*
X353810Y-536770D02*
D03*
X378810Y-586770D02*
D03*
X328810Y213230D02*
D03*
X303810Y163230D02*
D03*
X328810Y113230D02*
D03*
X303810Y63230D02*
D03*
X328810Y13230D02*
D03*
X303810Y-36770D02*
D03*
X328810Y-86770D02*
D03*
X303810Y-136770D02*
D03*
X328810Y-286770D02*
D03*
X303810Y-336770D02*
D03*
Y-436770D02*
D03*
X328810Y-486770D02*
D03*
X303810Y-536770D02*
D03*
X328810Y-586770D02*
D03*
X278810Y213230D02*
D03*
X253810Y163230D02*
D03*
X278810Y113230D02*
D03*
X253810Y63230D02*
D03*
X278810Y13230D02*
D03*
X253810Y-36770D02*
D03*
X278810Y-86770D02*
D03*
X253810Y-136770D02*
D03*
X278810Y-286770D02*
D03*
X253810Y-336770D02*
D03*
X278810Y-386770D02*
D03*
X253810Y-436770D02*
D03*
X278810Y-486770D02*
D03*
X253810Y-536770D02*
D03*
X278810Y-586770D02*
D03*
X228810Y213230D02*
D03*
X203810Y163230D02*
D03*
X228810Y113230D02*
D03*
X203810Y63230D02*
D03*
X228810Y13230D02*
D03*
X203810Y-36770D02*
D03*
X228810Y-86770D02*
D03*
X203810Y-136770D02*
D03*
Y-236770D02*
D03*
X228810Y-286770D02*
D03*
X203810Y-336770D02*
D03*
X228810Y-386770D02*
D03*
X203810Y-436770D02*
D03*
Y-536770D02*
D03*
X228810Y-586770D02*
D03*
X178810Y213230D02*
D03*
X153810Y163230D02*
D03*
X178810Y113230D02*
D03*
X153810Y63230D02*
D03*
X178810Y13230D02*
D03*
X153810Y-36770D02*
D03*
X178810Y-86770D02*
D03*
X153810Y-136770D02*
D03*
Y-236770D02*
D03*
X178810Y-286770D02*
D03*
X153810Y-336770D02*
D03*
X178810Y-386770D02*
D03*
X153810Y-436770D02*
D03*
X178810Y-486770D02*
D03*
X153810Y-536770D02*
D03*
X178810Y-586770D02*
D03*
X128810Y213230D02*
D03*
X103810Y163230D02*
D03*
X128810Y113230D02*
D03*
X103810Y63230D02*
D03*
X128810Y13230D02*
D03*
X103810Y-36770D02*
D03*
X128810Y-86770D02*
D03*
X103810Y-136770D02*
D03*
Y-236770D02*
D03*
X128810Y-286770D02*
D03*
X103810Y-336770D02*
D03*
X128810Y-386770D02*
D03*
X103810Y-436770D02*
D03*
X128810Y-486770D02*
D03*
X103810Y-536770D02*
D03*
X128810Y-586770D02*
D03*
X78810Y213230D02*
D03*
X53810Y63230D02*
D03*
Y-36770D02*
D03*
Y-136770D02*
D03*
Y-236770D02*
D03*
X78810Y-286770D02*
D03*
X53810Y-336770D02*
D03*
X78810Y-386770D02*
D03*
X53810Y-436770D02*
D03*
X78810Y-486770D02*
D03*
X53810Y-536770D02*
D03*
X78810Y-586770D02*
D03*
X28810Y213230D02*
D03*
X3810Y63230D02*
D03*
X28810Y13230D02*
D03*
X3810Y-36770D02*
D03*
X28810Y-86770D02*
D03*
X3810Y-136770D02*
D03*
Y-236770D02*
D03*
X28810Y-286770D02*
D03*
X3810Y-336770D02*
D03*
X28810Y-386770D02*
D03*
X3810Y-436770D02*
D03*
X28810Y-486770D02*
D03*
X3810Y-536770D02*
D03*
X28810Y-586770D02*
D03*
X-21190Y213230D02*
D03*
X-46190Y163230D02*
D03*
X-21190Y113230D02*
D03*
X-46190Y63230D02*
D03*
X-21190Y13230D02*
D03*
X-46190Y-36770D02*
D03*
X-21190Y-86770D02*
D03*
X-46190Y-136770D02*
D03*
Y-236770D02*
D03*
X-21190Y-286770D02*
D03*
X-46190Y-336770D02*
D03*
X-21190Y-386770D02*
D03*
Y-486770D02*
D03*
X-46190Y-536770D02*
D03*
X-21190Y-586770D02*
D03*
X-71190Y213230D02*
D03*
X-96190Y163230D02*
D03*
X-71190Y113230D02*
D03*
X-96190Y63230D02*
D03*
X-71190Y13230D02*
D03*
X-96190Y-36770D02*
D03*
X-71190Y-86770D02*
D03*
X-96190Y-136770D02*
D03*
Y-236770D02*
D03*
X-71190Y-286770D02*
D03*
X-96190Y-336770D02*
D03*
X-71190Y-386770D02*
D03*
X-96190Y-536770D02*
D03*
X-71190Y-586770D02*
D03*
X-121190Y213230D02*
D03*
X-146190Y163230D02*
D03*
X-121190Y113230D02*
D03*
X-146190Y63230D02*
D03*
X-121190Y13230D02*
D03*
Y-86770D02*
D03*
Y-286770D02*
D03*
X-146190Y-336770D02*
D03*
X-121190Y-586770D02*
D03*
X-171190Y213230D02*
D03*
X-196190Y163230D02*
D03*
X-171190Y113230D02*
D03*
X-196190Y63230D02*
D03*
Y-36770D02*
D03*
X-171190Y-86770D02*
D03*
X-196190Y-136770D02*
D03*
Y-336770D02*
D03*
X-221190Y213230D02*
D03*
X-246190Y163230D02*
D03*
Y-336770D02*
D03*
X-271190Y213230D02*
D03*
X-296190Y163230D02*
D03*
X-271190Y113230D02*
D03*
Y-86770D02*
D03*
X-296190Y-136770D02*
D03*
X-271190Y-186770D02*
D03*
X-321190Y213230D02*
D03*
X-346190Y163230D02*
D03*
X-321190Y113230D02*
D03*
X-346190Y63230D02*
D03*
Y-36770D02*
D03*
X-321190Y-86770D02*
D03*
X-346190Y-136770D02*
D03*
X-321190Y-186770D02*
D03*
Y-286770D02*
D03*
X-371190Y213230D02*
D03*
X-396190Y163230D02*
D03*
X-371190Y113230D02*
D03*
X-396190Y63230D02*
D03*
X-371190Y13230D02*
D03*
X-396190Y-36770D02*
D03*
X-371190Y-86770D02*
D03*
X-396190Y-136770D02*
D03*
X-371190Y-186770D02*
D03*
Y-286770D02*
D03*
X-396190Y-336770D02*
D03*
X-371190Y-386770D02*
D03*
X-396190Y-436770D02*
D03*
X-421190Y213230D02*
D03*
X-446190Y163230D02*
D03*
X-421190Y113230D02*
D03*
X-446190Y63230D02*
D03*
X-421190Y13230D02*
D03*
X-446190Y-36770D02*
D03*
Y-136770D02*
D03*
Y-336770D02*
D03*
X-421190Y-386770D02*
D03*
X-446190Y-436770D02*
D03*
X-421190Y-486770D02*
D03*
X-446190Y-536770D02*
D03*
X-471190Y213230D02*
D03*
X-496190Y163230D02*
D03*
X-471190Y113230D02*
D03*
X-496190Y63230D02*
D03*
X-471190Y13230D02*
D03*
X-496190Y-36770D02*
D03*
X-471190Y-86770D02*
D03*
X-496190Y-136770D02*
D03*
X-471190Y-586770D02*
D03*
X-521190Y213230D02*
D03*
X-546190Y163230D02*
D03*
X-521190Y113230D02*
D03*
X-546190Y63230D02*
D03*
X-521190Y13230D02*
D03*
X-546190Y-36770D02*
D03*
X-521190Y-86770D02*
D03*
X-546190Y-136770D02*
D03*
X-571190Y213230D02*
D03*
X-596190Y163230D02*
D03*
X-571190Y113230D02*
D03*
X-596190Y63230D02*
D03*
X-571190Y13230D02*
D03*
X-596190Y-36770D02*
D03*
X-571190Y-86770D02*
D03*
X-596190Y-136770D02*
D03*
X-571190Y-186770D02*
D03*
X-621190Y213230D02*
D03*
Y113230D02*
D03*
X-646190Y63230D02*
D03*
X-621190Y13230D02*
D03*
X-646190Y-36770D02*
D03*
X-621190Y-86770D02*
D03*
X-646190Y-136770D02*
D03*
X-621190Y-186770D02*
D03*
X-646190Y-236770D02*
D03*
Y-436770D02*
D03*
X-621190Y-486770D02*
D03*
X-671190Y213230D02*
D03*
X-696190Y163230D02*
D03*
X-671190Y113230D02*
D03*
X-696190Y63230D02*
D03*
X-671190Y13230D02*
D03*
X-696190Y-36770D02*
D03*
X-671190Y-86770D02*
D03*
X-696190Y-136770D02*
D03*
X-671190Y-186770D02*
D03*
X-696190Y-236770D02*
D03*
X-671190Y-286770D02*
D03*
X-696190Y-336770D02*
D03*
X-671190Y-386770D02*
D03*
Y-486770D02*
D03*
X-721190Y213230D02*
D03*
Y113230D02*
D03*
Y13230D02*
D03*
Y-86770D02*
D03*
Y-186770D02*
D03*
Y-286770D02*
D03*
Y-386770D02*
D03*
Y-486770D02*
D03*
X-319750Y-507500D02*
D03*
X-319651Y-521500D02*
D03*
X-319771Y-494000D02*
D03*
X509934Y-220775D02*
D03*
X478500Y-223750D02*
D03*
X427409Y-238458D02*
D03*
X417750Y-301000D02*
D03*
X416500Y-285250D02*
D03*
X415250Y-269500D02*
D03*
X462038Y-382250D02*
D03*
X-151434Y-507950D02*
D03*
X-233450Y-486450D02*
D03*
X-478750Y-283250D02*
D03*
X-523500Y-232750D02*
D03*
X-524500Y-240000D02*
D03*
X-525480Y-246500D02*
D03*
X-526250Y-253250D02*
D03*
X-518500Y-254000D02*
D03*
X-534000Y-252500D02*
D03*
X-532700Y-246000D02*
D03*
X-517500Y-246750D02*
D03*
X-517246Y-240250D02*
D03*
X-531250Y-239000D02*
D03*
X-530000Y-232000D02*
D03*
X-516750Y-233250D02*
D03*
X-205750Y-413450D02*
D03*
X-281500Y-461250D02*
D03*
X474750Y-255000D02*
D03*
X330000Y-249000D02*
D03*
X295000Y-245000D02*
D03*
X299000Y-249500D02*
D03*
X270000Y-237500D02*
D03*
X288000D02*
D03*
X282000D02*
D03*
X276000D02*
D03*
X316500Y-248250D02*
D03*
D128*
X334250Y-207250D02*
D03*
X322000D02*
D03*
X328250D02*
D03*
Y-226750D02*
D03*
X322000D02*
D03*
X334250D02*
D03*
D129*
X74000Y149250D02*
D03*
Y137750D02*
D03*
X-151000Y-222750D02*
D03*
Y-211250D02*
D03*
D130*
X272000Y-197500D02*
D03*
X285000Y-199250D02*
D03*
X315500Y-241000D02*
D03*
X-409500Y-286500D02*
D03*
X-574750Y-401250D02*
D03*
X506250Y-351750D02*
D03*
X512250Y-357000D02*
D03*
X499500Y-423000D02*
D03*
X473898Y-429750D02*
D03*
X488250Y-359250D02*
D03*
X478250Y-354000D02*
D03*
X441750Y-429250D02*
D03*
X517525Y-290264D02*
D03*
X569500Y-418750D02*
D03*
X518275Y-282764D02*
D03*
X516775Y-275263D02*
D03*
X559000Y-268750D02*
D03*
X517000Y-267750D02*
D03*
X558750Y-259000D02*
D03*
D131*
X-601500Y-401500D02*
D03*
X-606000Y-474500D02*
D03*
M02*
