G04*
G04 #@! TF.GenerationSoftware,Altium Limited,Altium Designer,19.0.11 (319)*
G04*
G04 Layer_Color=32768*
%FSLAX44Y44*%
%MOMM*%
G71*
G01*
G75*
%ADD12C,0.2000*%
%ADD13C,0.1000*%
%ADD133C,0.0500*%
D12*
X-119087Y-624915D02*
X-117622Y-554930D01*
X-234862Y-622490D02*
X-119087Y-624915D01*
X-234862Y-622490D02*
X-233480Y-556504D01*
X-233312Y-548506D01*
X-117538Y-550931D01*
X-117622Y-554930D02*
X-117538Y-550931D01*
X-181699Y-586595D02*
X-171701Y-586805D01*
X-176805Y-591699D02*
X-176595Y-581701D01*
X-457049Y-577938D02*
X-456351Y-567962D01*
X-461688Y-572601D02*
X-451712Y-573299D01*
X-408809Y-543218D02*
X-408530Y-539228D01*
X-498710Y-532922D02*
X-408530Y-539228D01*
X-499268Y-540903D02*
X-498710Y-532922D01*
X-503872Y-606742D02*
X-499268Y-540903D01*
X-503872Y-606742D02*
X-413692Y-613048D01*
X-408809Y-543218D01*
X-527050Y-604685D02*
X-520949Y-534952D01*
X-591803Y-599020D02*
X-527050Y-604685D01*
X-591803Y-599020D02*
X-586051Y-533271D01*
X-585354Y-525302D01*
X-520601Y-530967D01*
X-520949Y-534952D02*
X-520601Y-530967D01*
X-561681Y-564514D02*
X-551719Y-565386D01*
X-557136Y-569931D02*
X-556264Y-559969D01*
X-270108Y-620410D02*
X-266810Y-550488D01*
X-385779Y-614955D02*
X-270108Y-620410D01*
X-385779Y-614955D02*
X-382670Y-549028D01*
X-382293Y-541037D01*
X-266622Y-546492D01*
X-266810Y-550488D02*
X-266622Y-546492D01*
X-331694Y-580465D02*
X-321706Y-580936D01*
X-326935Y-585694D02*
X-326465Y-575706D01*
D13*
X-429865Y-238311D02*
X-420401Y-239139D01*
X-425547Y-243457D02*
X-424719Y-233993D01*
X-448364Y-247432D02*
X-447536Y-237968D01*
X-452682Y-242286D02*
X-443218Y-243114D01*
X-393589Y-292365D02*
X-392761Y-282902D01*
X-397907Y-287220D02*
X-388443Y-288048D01*
X-207700Y-468200D02*
Y-458700D01*
X-212450Y-463450D02*
X-202950D01*
X-207700Y-497950D02*
Y-488450D01*
X-212450Y-493200D02*
X-202950D01*
X-193450Y-411450D02*
Y-401950D01*
X-198200Y-406700D02*
X-188700D01*
X-177381Y-411450D02*
Y-401950D01*
X-182131Y-406700D02*
X-172631D01*
X-134700Y-512700D02*
Y-503200D01*
X-139450Y-507950D02*
X-129950D01*
X-139449Y-481101D02*
X-129951Y-481300D01*
X-134799Y-485949D02*
X-134600Y-476451D01*
X-173555Y-519949D02*
X-173345Y-509951D01*
X-178449Y-514845D02*
X-168451Y-515055D01*
X-173799Y-544699D02*
X-173601Y-535201D01*
X-178449Y-539851D02*
X-168951Y-540050D01*
X413280Y-427924D02*
X433587Y-660038D01*
X634320Y-642476D01*
X614013Y-410362D02*
X634320Y-642476D01*
X413280Y-427924D02*
X614013Y-410362D01*
X-493364Y-294682D02*
X-492536Y-285218D01*
X-497682Y-289536D02*
X-488218Y-290364D01*
X-505808Y-246708D02*
X-504980Y-237244D01*
X-510126Y-241562D02*
X-500662Y-242390D01*
X-484364Y-255682D02*
X-483536Y-246218D01*
X-488682Y-250536D02*
X-479218Y-251364D01*
X-485889Y-272498D02*
X-485061Y-263035D01*
X-490207Y-267353D02*
X-480743Y-268181D01*
X-546864Y-269432D02*
X-546036Y-259968D01*
X-551182Y-264286D02*
X-541718Y-265114D01*
X-282120Y-447952D02*
X-281738Y-438459D01*
X-286675Y-443015D02*
X-277183Y-443396D01*
X-319196Y-369259D02*
X-309704Y-369641D01*
X-314641Y-374196D02*
X-314259Y-364704D01*
X-317472Y-427223D02*
X-317071Y-417231D01*
X-322267Y-422026D02*
X-312276Y-422427D01*
X-305396Y-475457D02*
X-305015Y-465965D01*
X-309951Y-470520D02*
X-300459Y-470901D01*
X-333135Y-474435D02*
X-332754Y-464943D01*
X-337691Y-469498D02*
X-328199Y-469880D01*
X-334903Y-478074D02*
X-302429Y-479378D01*
X-336729Y-523537D02*
X-304255Y-524841D01*
X-302429Y-479378D01*
X-336729Y-523537D02*
X-334903Y-478074D01*
X-319779Y-506453D02*
X-319378Y-496461D01*
X-324575Y-501257D02*
X-314583Y-501658D01*
X-321391Y-539446D02*
X-321009Y-529954D01*
X-325946Y-534509D02*
X-316454Y-534891D01*
X-559932Y-454786D02*
X-550468Y-455614D01*
X-555614Y-459932D02*
X-554786Y-450468D01*
X-575682Y-453286D02*
X-566218Y-454114D01*
X-571364Y-458432D02*
X-570536Y-448968D01*
X-562761Y-268039D02*
X-561933Y-258575D01*
X-567079Y-262893D02*
X-557615Y-263721D01*
X-578539Y-266539D02*
X-577711Y-257075D01*
X-582857Y-261393D02*
X-573393Y-262221D01*
X-587114Y-456932D02*
X-586286Y-447468D01*
X-591432Y-451786D02*
X-581968Y-452614D01*
X-501606Y-516811D02*
X-481647Y-288682D01*
X-501606Y-516811D02*
X-382062Y-527270D01*
X-362104Y-299141D01*
X-481647Y-288682D02*
X-362104Y-299141D01*
X-585865Y-420811D02*
X-576401Y-421639D01*
X-581547Y-425957D02*
X-580719Y-416493D01*
X-588932Y-370536D02*
X-579468Y-371364D01*
X-584614Y-375682D02*
X-583786Y-366218D01*
X-590182Y-386286D02*
X-580718Y-387114D01*
X-585864Y-391432D02*
X-585036Y-381968D01*
X-544584Y-356286D02*
X-535120Y-357114D01*
X-540266Y-361432D02*
X-539438Y-351968D01*
X-539864Y-461182D02*
X-539036Y-451718D01*
X-544182Y-456036D02*
X-534718Y-456864D01*
X-523702Y-462656D02*
X-522874Y-453192D01*
X-528020Y-457510D02*
X-518556Y-458338D01*
X544318Y-334114D02*
X553782Y-333286D01*
X548636Y-328968D02*
X549464Y-338432D01*
X532318Y-291614D02*
X541782Y-290786D01*
X536636Y-286468D02*
X537464Y-295932D01*
X473136Y-321468D02*
X473964Y-330932D01*
X468818Y-326614D02*
X478282Y-325786D01*
X530542Y-275776D02*
X540006Y-274948D01*
X534860Y-270630D02*
X535688Y-280094D01*
X529068Y-260114D02*
X538532Y-259286D01*
X533386Y-254968D02*
X534214Y-264432D01*
X531752Y-236639D02*
X541215Y-235811D01*
X536069Y-231493D02*
X536898Y-240957D01*
X488886Y-235718D02*
X489714Y-245182D01*
X484568Y-240864D02*
X494032Y-240036D01*
X473136Y-237218D02*
X473964Y-246682D01*
X468818Y-242364D02*
X478282Y-241536D01*
X453068Y-243864D02*
X462532Y-243036D01*
X457386Y-238718D02*
X458214Y-248182D01*
X-545498Y-507261D02*
X-536035Y-508089D01*
X-541180Y-512407D02*
X-540353Y-502943D01*
X-569681Y-480764D02*
X-559719Y-481636D01*
X-565136Y-486181D02*
X-564264Y-476219D01*
X-572181Y-507764D02*
X-562219Y-508636D01*
X-567636Y-513181D02*
X-566764Y-503219D01*
X437886Y-295718D02*
X438714Y-305182D01*
X433568Y-300864D02*
X443032Y-300036D01*
X500252Y-239389D02*
X509715Y-238561D01*
X504570Y-234243D02*
X505397Y-243707D01*
X516002Y-237889D02*
X525465Y-237061D01*
X520320Y-232743D02*
X521147Y-242207D01*
X437318Y-245364D02*
X446782Y-244536D01*
X441636Y-240218D02*
X442464Y-249682D01*
X435386Y-264218D02*
X436214Y-273682D01*
X431068Y-269364D02*
X440532Y-268536D01*
X436636Y-279968D02*
X437464Y-289432D01*
X432318Y-285114D02*
X441782Y-284286D01*
X482864Y-278219D02*
X483736Y-288181D01*
X478319Y-283636D02*
X488281Y-282764D01*
X455133Y-259565D02*
X506935Y-255033D01*
X459665Y-311367D02*
X511467Y-306835D01*
X455133Y-259565D02*
X459665Y-311367D01*
X506935Y-255033D02*
X511467Y-306835D01*
X501635Y-322339D02*
X511099Y-321511D01*
X505953Y-317193D02*
X506781Y-326657D01*
X613526Y-231245D02*
X614398Y-241207D01*
X608981Y-236661D02*
X618943Y-235790D01*
X582048Y-277244D02*
X582876Y-286708D01*
X577730Y-282390D02*
X587194Y-281562D01*
X574386Y-191468D02*
X575214Y-200932D01*
X570068Y-196614D02*
X579532Y-195786D01*
X578002Y-398139D02*
X587465Y-397311D01*
X582319Y-392993D02*
X583148Y-402457D01*
X562252Y-399389D02*
X571715Y-398561D01*
X566570Y-394243D02*
X567397Y-403707D01*
X546502Y-400889D02*
X555965Y-400061D01*
X550820Y-395743D02*
X551647Y-405207D01*
X534798Y-395994D02*
X535626Y-405458D01*
X530480Y-401140D02*
X539944Y-400312D01*
X515002Y-403889D02*
X524465Y-403061D01*
X519319Y-398743D02*
X520148Y-408207D01*
X499252Y-405639D02*
X508715Y-404811D01*
X503569Y-400493D02*
X504398Y-409957D01*
X487798Y-401244D02*
X488626Y-410708D01*
X483480Y-406390D02*
X492944Y-405562D01*
X468002Y-409139D02*
X477465Y-408311D01*
X472319Y-403993D02*
X473148Y-413457D01*
X452252Y-410389D02*
X461715Y-409561D01*
X456570Y-405243D02*
X457397Y-414707D01*
X436502Y-411639D02*
X445965Y-410811D01*
X440820Y-406493D02*
X441647Y-415957D01*
D133*
X-418839Y-252827D02*
X-416485Y-225930D01*
X-433782Y-251520D02*
X-431428Y-224622D01*
X-416485Y-225930D01*
X-433782Y-251520D02*
X-418839Y-252827D01*
X-460745Y-234052D02*
X-433848Y-236405D01*
X-462052Y-248995D02*
X-435155Y-251348D01*
X-462052Y-248995D02*
X-460745Y-234052D01*
X-435155Y-251348D02*
X-433848Y-236405D01*
X-405970Y-278986D02*
X-379073Y-281339D01*
X-407277Y-293928D02*
X-380380Y-296282D01*
X-407277Y-293928D02*
X-405970Y-278986D01*
X-380380Y-296282D02*
X-379073Y-281339D01*
X-215200Y-449950D02*
X-200200D01*
X-215200Y-476950D02*
X-200200D01*
Y-449950D01*
X-215200Y-476950D02*
Y-449950D01*
X-215200Y-506700D02*
X-200200D01*
X-215200Y-479700D02*
X-200200D01*
X-215200Y-506700D02*
Y-479700D01*
X-200200Y-506700D02*
Y-479700D01*
X-200950Y-393200D02*
X-185950D01*
X-200950Y-420200D02*
X-185950D01*
Y-393200D01*
X-200950Y-420200D02*
Y-393200D01*
X-184881D02*
X-169881D01*
X-184881Y-420200D02*
X-169881D01*
Y-393200D01*
X-184881Y-420200D02*
Y-393200D01*
X-148200Y-515450D02*
X-121200D01*
X-148200Y-500450D02*
X-121200D01*
Y-515450D02*
Y-500450D01*
X-148200Y-515450D02*
Y-500450D01*
X-142481Y-494540D02*
X-141916Y-467546D01*
X-127484Y-494854D02*
X-126919Y-467860D01*
X-142481Y-494540D02*
X-127484Y-494854D01*
X-141916Y-467546D02*
X-126919Y-467860D01*
X-191302Y-531580D02*
X-156310Y-532313D01*
X-190590Y-497587D02*
X-155598Y-498320D01*
X-191302Y-531580D02*
X-190590Y-497587D01*
X-156310Y-532313D02*
X-155598Y-498320D01*
X-187354Y-547166D02*
X-160360Y-547731D01*
X-187040Y-532169D02*
X-160046Y-532734D01*
X-160360Y-547731D02*
X-160046Y-532734D01*
X-187354Y-547166D02*
X-187040Y-532169D01*
X-145236Y-498018D02*
X-143676Y-423534D01*
X-200224Y-496866D02*
X-145236Y-498018D01*
X-200224Y-496866D02*
X-198664Y-422382D01*
X-143676Y-423534D01*
X-501598Y-302745D02*
X-486655Y-304052D01*
X-499245Y-275848D02*
X-484302Y-277155D01*
X-501598Y-302745D02*
X-499245Y-275848D01*
X-486655Y-304052D02*
X-484302Y-277155D01*
X-511689Y-227873D02*
X-496746Y-229181D01*
X-514042Y-254771D02*
X-499099Y-256078D01*
X-496746Y-229181D01*
X-514042Y-254771D02*
X-511689Y-227873D01*
X-498052Y-257245D02*
X-471155Y-259598D01*
X-496745Y-242302D02*
X-469848Y-244655D01*
X-471155Y-259598D02*
X-469848Y-244655D01*
X-498052Y-257245D02*
X-496745Y-242302D01*
X-499577Y-274061D02*
X-472680Y-276415D01*
X-498270Y-259118D02*
X-471372Y-261472D01*
X-472680Y-276415D02*
X-471372Y-261472D01*
X-499577Y-274061D02*
X-498270Y-259118D01*
X-527884Y-276239D02*
X-526010Y-254821D01*
X-527884Y-276239D02*
X-499990Y-278679D01*
X-498116Y-257261D01*
X-526010Y-254821D02*
X-498116Y-257261D01*
X-552745Y-250598D02*
X-537802Y-251905D01*
X-555098Y-277495D02*
X-540155Y-278802D01*
X-537802Y-251905D01*
X-555098Y-277495D02*
X-552745Y-250598D01*
X-288881Y-429415D02*
X-273893Y-430017D01*
X-289965Y-456394D02*
X-274977Y-456996D01*
X-273893Y-430017D01*
X-289965Y-456394D02*
X-288881Y-429415D01*
X-307498Y-383240D02*
X-306414Y-356262D01*
X-322486Y-382638D02*
X-321402Y-355660D01*
X-306414Y-356262D01*
X-322486Y-382638D02*
X-307498Y-383240D01*
X-343265Y-384153D02*
X-288309Y-386360D01*
X-346234Y-458093D02*
X-291279Y-460300D01*
X-288309Y-386360D01*
X-346234Y-458093D02*
X-343265Y-384153D01*
X-318393Y-462675D02*
X-291415Y-463759D01*
X-318995Y-477663D02*
X-292017Y-478747D01*
X-318995Y-477663D02*
X-318393Y-462675D01*
X-292017Y-478747D02*
X-291415Y-463759D01*
X-346735Y-476641D02*
X-319757Y-477725D01*
X-346133Y-461653D02*
X-319155Y-462737D01*
X-319757Y-477725D02*
X-319155Y-462737D01*
X-346735Y-476641D02*
X-346133Y-461653D01*
X-334990Y-541652D02*
X-308012Y-542736D01*
X-334388Y-526664D02*
X-307410Y-527748D01*
X-308012Y-542736D02*
X-307410Y-527748D01*
X-334990Y-541652D02*
X-334388Y-526664D01*
X-563848Y-467995D02*
X-561495Y-441098D01*
X-548905Y-469302D02*
X-546552Y-442405D01*
X-563848Y-467995D02*
X-548905Y-469302D01*
X-561495Y-441098D02*
X-546552Y-442405D01*
X-564655Y-467802D02*
X-562302Y-440905D01*
X-579598Y-466495D02*
X-577245Y-439598D01*
X-562302Y-440905D01*
X-579598Y-466495D02*
X-564655Y-467802D01*
X-568642Y-249205D02*
X-553699Y-250512D01*
X-570995Y-276102D02*
X-556052Y-277410D01*
X-553699Y-250512D01*
X-570995Y-276102D02*
X-568642Y-249205D01*
X-584420Y-247705D02*
X-569477Y-249012D01*
X-586773Y-274602D02*
X-571830Y-275910D01*
X-569477Y-249012D01*
X-586773Y-274602D02*
X-584420Y-247705D01*
X-592995Y-438098D02*
X-578052Y-439405D01*
X-595348Y-464995D02*
X-580405Y-466302D01*
X-578052Y-439405D01*
X-595348Y-464995D02*
X-592995Y-438098D01*
X-598673Y-343558D02*
X-519475Y-350487D01*
X-598673Y-343558D02*
X-592746Y-275817D01*
X-513549Y-282746D01*
X-519475Y-350487D02*
X-513549Y-282746D01*
X-589781Y-434020D02*
X-587428Y-407122D01*
X-574839Y-435327D02*
X-572485Y-408430D01*
X-589781Y-434020D02*
X-574839Y-435327D01*
X-587428Y-407122D02*
X-572485Y-408430D01*
X-598302Y-377245D02*
X-596995Y-362302D01*
X-571405Y-379598D02*
X-570098Y-364655D01*
X-596995Y-362302D02*
X-570098Y-364655D01*
X-598302Y-377245D02*
X-571405Y-379598D01*
X-599552Y-392995D02*
X-598245Y-378052D01*
X-572655Y-395348D02*
X-571348Y-380405D01*
X-598245Y-378052D02*
X-571348Y-380405D01*
X-599552Y-392995D02*
X-572655Y-395348D01*
X-527057Y-365348D02*
X-525749Y-350405D01*
X-553954Y-362995D02*
X-552647Y-348052D01*
X-553954Y-362995D02*
X-527057Y-365348D01*
X-552647Y-348052D02*
X-525749Y-350405D01*
X-548098Y-469245D02*
X-533155Y-470552D01*
X-545745Y-442348D02*
X-530802Y-443655D01*
X-548098Y-469245D02*
X-545745Y-442348D01*
X-533155Y-470552D02*
X-530802Y-443655D01*
X-531936Y-470719D02*
X-516993Y-472027D01*
X-529583Y-443822D02*
X-514640Y-445129D01*
X-531936Y-470719D02*
X-529583Y-443822D01*
X-516993Y-472027D02*
X-514640Y-445129D01*
X534948Y-327405D02*
X536255Y-342348D01*
X561845Y-325052D02*
X563152Y-339995D01*
X534948Y-327405D02*
X561845Y-325052D01*
X536255Y-342348D02*
X563152Y-339995D01*
X549845Y-282552D02*
X551152Y-297495D01*
X522948Y-284905D02*
X524255Y-299848D01*
X551152Y-297495D01*
X522948Y-284905D02*
X549845Y-282552D01*
X467255Y-340302D02*
X482198Y-338995D01*
X464902Y-313405D02*
X479845Y-312098D01*
X464902Y-313405D02*
X467255Y-340302D01*
X479845Y-312098D02*
X482198Y-338995D01*
X548069Y-266714D02*
X549377Y-281657D01*
X521172Y-269067D02*
X522479Y-284010D01*
X549377Y-281657D01*
X521172Y-269067D02*
X548069Y-266714D01*
X546595Y-251052D02*
X547902Y-265995D01*
X519698Y-253405D02*
X521005Y-268348D01*
X547902Y-265995D01*
X519698Y-253405D02*
X546595Y-251052D01*
X542778Y-222122D02*
X545131Y-249020D01*
X527835Y-223430D02*
X530189Y-250327D01*
X527835Y-223430D02*
X542778Y-222122D01*
X530189Y-250327D02*
X545131Y-249020D01*
X480652Y-227655D02*
X495595Y-226348D01*
X483005Y-254552D02*
X497948Y-253245D01*
X495595Y-226348D02*
X497948Y-253245D01*
X480652Y-227655D02*
X483005Y-254552D01*
X464902Y-229155D02*
X479845Y-227848D01*
X467255Y-256052D02*
X482198Y-254745D01*
X479845Y-227848D02*
X482198Y-254745D01*
X464902Y-229155D02*
X467255Y-256052D01*
X464095Y-229348D02*
X466448Y-256245D01*
X449152Y-230655D02*
X451505Y-257552D01*
X449152Y-230655D02*
X464095Y-229348D01*
X451505Y-257552D02*
X466448Y-256245D01*
X-534472Y-521778D02*
X-532118Y-494880D01*
X-549414Y-520470D02*
X-547061Y-493573D01*
X-532118Y-494880D01*
X-549414Y-520470D02*
X-534472Y-521778D01*
X-548506Y-491149D02*
X-547024Y-474214D01*
X-582376Y-488186D02*
X-580895Y-471251D01*
X-582376Y-488186D02*
X-548506Y-491149D01*
X-580895Y-471251D02*
X-547024Y-474214D01*
X-585617Y-523654D02*
X-582654Y-489783D01*
X-551746Y-526617D02*
X-548783Y-492746D01*
X-585617Y-523654D02*
X-551746Y-526617D01*
X-582654Y-489783D02*
X-548783Y-492746D01*
X424198Y-294155D02*
X451095Y-291802D01*
X425505Y-309098D02*
X452402Y-306745D01*
X424198Y-294155D02*
X425505Y-309098D01*
X451095Y-291802D02*
X452402Y-306745D01*
X511278Y-224872D02*
X513632Y-251770D01*
X496335Y-226180D02*
X498689Y-253077D01*
X496335Y-226180D02*
X511278Y-224872D01*
X498689Y-253077D02*
X513632Y-251770D01*
X512085Y-224680D02*
X514439Y-251577D01*
X527028Y-223372D02*
X529382Y-250270D01*
X514439Y-251577D02*
X529382Y-250270D01*
X512085Y-224680D02*
X527028Y-223372D01*
X433402Y-232155D02*
X435755Y-259052D01*
X448345Y-230848D02*
X450698Y-257745D01*
X435755Y-259052D02*
X450698Y-257745D01*
X433402Y-232155D02*
X448345Y-230848D01*
X423005Y-277598D02*
X449902Y-275245D01*
X421698Y-262655D02*
X448595Y-260302D01*
X449902Y-275245D01*
X421698Y-262655D02*
X423005Y-277598D01*
X424255Y-293348D02*
X451152Y-290995D01*
X422948Y-278405D02*
X449845Y-276052D01*
X451152Y-290995D01*
X422948Y-278405D02*
X424255Y-293348D01*
X512661Y-307823D02*
X515015Y-334720D01*
X497719Y-309130D02*
X500072Y-336028D01*
X497719Y-309130D02*
X512661Y-307823D01*
X500072Y-336028D02*
X515015Y-334720D01*
X582062Y-178536D02*
X635359Y-173874D01*
X592565Y-298578D02*
X645861Y-293915D01*
X635359Y-173874D02*
X645861Y-293915D01*
X582062Y-178536D02*
X592565Y-298578D01*
X573814Y-269181D02*
X588757Y-267873D01*
X576167Y-296078D02*
X591110Y-294771D01*
X588757Y-267873D02*
X591110Y-294771D01*
X573814Y-269181D02*
X576167Y-296078D01*
X566152Y-183405D02*
X581095Y-182098D01*
X568505Y-210302D02*
X583448Y-208995D01*
X581095Y-182098D02*
X583448Y-208995D01*
X566152Y-183405D02*
X568505Y-210302D01*
X574086Y-384930D02*
X576439Y-411827D01*
X589028Y-383623D02*
X591382Y-410520D01*
X576439Y-411827D02*
X591382Y-410520D01*
X574086Y-384930D02*
X589028Y-383623D01*
X573278Y-384873D02*
X575631Y-411770D01*
X558335Y-386180D02*
X560689Y-413077D01*
X558335Y-386180D02*
X573278Y-384873D01*
X560689Y-413077D02*
X575631Y-411770D01*
X557528Y-386372D02*
X559882Y-413270D01*
X542585Y-387680D02*
X544939Y-414577D01*
X542585Y-387680D02*
X557528Y-386372D01*
X544939Y-414577D02*
X559882Y-413270D01*
X526564Y-387931D02*
X541507Y-386623D01*
X528917Y-414828D02*
X543860Y-413521D01*
X541507Y-386623D02*
X543860Y-413521D01*
X526564Y-387931D02*
X528917Y-414828D01*
X526028Y-389372D02*
X528382Y-416270D01*
X511085Y-390680D02*
X513439Y-417577D01*
X511085Y-390680D02*
X526028Y-389372D01*
X513439Y-417577D02*
X528382Y-416270D01*
X510278Y-391123D02*
X512631Y-418020D01*
X495335Y-392430D02*
X497689Y-419327D01*
X495335Y-392430D02*
X510278Y-391123D01*
X497689Y-419327D02*
X512631Y-418020D01*
X479564Y-393181D02*
X494507Y-391873D01*
X481917Y-420078D02*
X496860Y-418771D01*
X494507Y-391873D02*
X496860Y-418771D01*
X479564Y-393181D02*
X481917Y-420078D01*
X479028Y-394622D02*
X481381Y-421520D01*
X464085Y-395930D02*
X466439Y-422827D01*
X464085Y-395930D02*
X479028Y-394622D01*
X466439Y-422827D02*
X481381Y-421520D01*
X448335Y-397180D02*
X450689Y-424077D01*
X463278Y-395872D02*
X465632Y-422770D01*
X450689Y-424077D02*
X465632Y-422770D01*
X448335Y-397180D02*
X463278Y-395872D01*
X447528Y-397122D02*
X449882Y-424020D01*
X432585Y-398430D02*
X434939Y-425327D01*
X432585Y-398430D02*
X447528Y-397122D01*
X434939Y-425327D02*
X449882Y-424020D01*
M02*
