G04*
G04 #@! TF.GenerationSoftware,Altium Limited,Altium Designer,19.0.11 (319)*
G04*
G04 Layer_Physical_Order=1*
G04 Layer_Color=255*
%FSLAX44Y44*%
%MOMM*%
G71*
G01*
G75*
%ADD11C,0.2000*%
%ADD15C,0.1000*%
%ADD16R,0.8500X0.9500*%
%ADD17R,1.2000X1.2000*%
%ADD18R,1.2000X1.2000*%
%ADD19R,0.6000X0.6000*%
%ADD20R,0.9500X0.8500*%
%ADD21R,1.0000X0.9000*%
%ADD22R,0.6500X0.9500*%
%ADD23R,0.9000X1.0000*%
%ADD24R,0.8000X0.5500*%
%ADD25R,0.8000X2.0000*%
%ADD26R,0.9500X0.9000*%
%ADD27R,1.3000X1.4000*%
%ADD28R,1.2000X1.6500*%
%ADD29R,0.7000X0.3000*%
%ADD30R,0.5500X1.3100*%
%ADD31R,2.4000X2.4000*%
%ADD32R,0.3000X1.2000*%
%ADD52C,1.0000*%
%ADD53C,0.3000*%
G04:AMPARAMS|DCode=54|XSize=1mm|YSize=1mm|CornerRadius=0.25mm|HoleSize=0mm|Usage=FLASHONLY|Rotation=0.000|XOffset=0mm|YOffset=0mm|HoleType=Round|Shape=RoundedRectangle|*
%AMROUNDEDRECTD54*
21,1,1.0000,0.5000,0,0,0.0*
21,1,0.5000,1.0000,0,0,0.0*
1,1,0.5000,0.2500,-0.2500*
1,1,0.5000,-0.2500,-0.2500*
1,1,0.5000,-0.2500,0.2500*
1,1,0.5000,0.2500,0.2500*
%
%ADD54ROUNDEDRECTD54*%
%ADD55C,0.4500*%
G36*
X500000Y-0D02*
X402500Y-0D01*
X402500Y70111D01*
X403889D01*
Y81889D01*
X402500D01*
Y105000D01*
X500000Y105000D01*
X500000Y-0D01*
D02*
G37*
%LPC*%
G36*
X479889Y99639D02*
X469611D01*
Y96436D01*
X464889D01*
Y99639D01*
X454611D01*
Y88361D01*
X464889D01*
Y91564D01*
X469611D01*
Y88361D01*
X472314D01*
Y86750D01*
X472500Y85818D01*
X473028Y85028D01*
X473110Y84945D01*
X473293Y84025D01*
X473987Y82987D01*
X475025Y82293D01*
X476250Y82050D01*
X477475Y82293D01*
X478513Y82987D01*
X479207Y84025D01*
X479450Y85250D01*
X479207Y86475D01*
X478795Y87091D01*
X479355Y88358D01*
X479358Y88361D01*
X479889D01*
Y99639D01*
D02*
G37*
G36*
X412000Y96436D02*
X411068Y96250D01*
X410278Y95722D01*
X409750Y94932D01*
X409564Y94000D01*
X409750Y93068D01*
X410278Y92278D01*
X411068Y91750D01*
X412000Y91564D01*
X412932Y91750D01*
X413722Y92278D01*
X414250Y93068D01*
X414436Y94000D01*
X414250Y94932D01*
X413722Y95722D01*
X412932Y96250D01*
X412000Y96436D01*
D02*
G37*
G36*
X487750Y96436D02*
X486818Y96250D01*
X486028Y95722D01*
X485500Y94932D01*
X485314Y94000D01*
X485500Y93068D01*
X486028Y92278D01*
X486818Y91750D01*
X487750Y91564D01*
X488682Y91750D01*
X489472Y92278D01*
X490000Y93068D01*
X490186Y94000D01*
X490000Y94932D01*
X489472Y95722D01*
X488682Y96250D01*
X487750Y96436D01*
D02*
G37*
G36*
X430889Y99889D02*
X420111D01*
Y88111D01*
X422275D01*
X422961Y87096D01*
X423017Y86841D01*
X422799Y85750D01*
X423043Y84525D01*
X423737Y83487D01*
X424775Y82793D01*
X426000Y82549D01*
X427225Y82793D01*
X428263Y83487D01*
X428957Y84525D01*
X429201Y85750D01*
X428983Y86841D01*
X429039Y87096D01*
X429725Y88111D01*
X430889D01*
Y91564D01*
X434745D01*
X435525Y91043D01*
X436750Y90800D01*
X437975Y91043D01*
X438755Y91564D01*
X441611D01*
Y88361D01*
X451889D01*
Y99639D01*
X441611D01*
Y96436D01*
X438755D01*
X437975Y96957D01*
X436750Y97200D01*
X435525Y96957D01*
X434745Y96436D01*
X430889D01*
Y99889D01*
D02*
G37*
G36*
X412000Y78436D02*
X411068Y78250D01*
X410278Y77722D01*
X409750Y76932D01*
X409564Y76000D01*
X409750Y75068D01*
X410278Y74278D01*
X411068Y73750D01*
X412000Y73564D01*
X412932Y73750D01*
X413722Y74278D01*
X414250Y75068D01*
X414436Y76000D01*
X414250Y76932D01*
X413722Y77722D01*
X412932Y78250D01*
X412000Y78436D01*
D02*
G37*
G36*
X454361Y82639D02*
X453139D01*
X453091Y82639D01*
X438361D01*
Y66861D01*
X443064D01*
Y56389D01*
X440611D01*
Y52556D01*
X433653Y45597D01*
X433125Y44807D01*
X432939Y43875D01*
Y20884D01*
X426694Y14639D01*
X418861D01*
Y3861D01*
X430139D01*
Y11194D01*
X437097Y18153D01*
X437341Y18517D01*
X438611Y18132D01*
Y4111D01*
X452389D01*
Y9140D01*
X453659Y10117D01*
X454000Y10050D01*
X455225Y10293D01*
X456263Y10987D01*
X456957Y12025D01*
X457201Y13250D01*
X456957Y14475D01*
X456263Y15513D01*
X455225Y16207D01*
X454000Y16451D01*
X453659Y16383D01*
X452389Y17360D01*
Y22389D01*
X447936D01*
Y30111D01*
X450389D01*
Y37389D01*
X440611D01*
Y30111D01*
X443064D01*
Y22389D01*
X439081D01*
X438611Y22389D01*
X437811Y23328D01*
Y42866D01*
X444056Y49111D01*
X450389D01*
Y56389D01*
X447936D01*
Y66861D01*
X453091D01*
X453139Y66861D01*
X454361D01*
X454409Y66861D01*
X465694D01*
X467064Y65491D01*
Y56389D01*
X464611D01*
Y49111D01*
X474389D01*
Y50314D01*
X482111D01*
Y47361D01*
X493889D01*
Y58139D01*
X482111D01*
Y55186D01*
X474389D01*
Y56389D01*
X471936D01*
Y66500D01*
X471750Y67432D01*
X471222Y68222D01*
X469139Y70306D01*
Y82639D01*
X454409D01*
X454361Y82639D01*
D02*
G37*
G36*
X445500Y45686D02*
X444568Y45500D01*
X443778Y44972D01*
X443250Y44182D01*
X443064Y43250D01*
X443250Y42318D01*
X443778Y41528D01*
X444568Y41000D01*
X445500Y40814D01*
X446432Y41000D01*
X447222Y41528D01*
X447750Y42318D01*
X447936Y43250D01*
X447750Y44182D01*
X447222Y44972D01*
X446432Y45500D01*
X445500Y45686D01*
D02*
G37*
G36*
X474389Y46889D02*
Y46889D01*
X464611D01*
Y39611D01*
X474389D01*
Y39611D01*
X475659Y40167D01*
X476250Y40050D01*
X477475Y40293D01*
X478513Y40987D01*
X479207Y42025D01*
X479450Y43250D01*
X479207Y44475D01*
X478513Y45513D01*
X477475Y46207D01*
X476250Y46451D01*
X475659Y46333D01*
X474389Y46889D01*
D02*
G37*
G36*
X488000Y41686D02*
X487068Y41500D01*
X486278Y40972D01*
X485750Y40182D01*
X485564Y39250D01*
X485750Y38318D01*
X486278Y37528D01*
X487068Y37000D01*
X488000Y36814D01*
X488932Y37000D01*
X489722Y37528D01*
X490250Y38318D01*
X490436Y39250D01*
X490250Y40182D01*
X489722Y40972D01*
X488932Y41500D01*
X488000Y41686D01*
D02*
G37*
G36*
X424500Y53700D02*
X423275Y53457D01*
X422237Y52763D01*
X421543Y51725D01*
X421300Y50500D01*
X421543Y49275D01*
X422064Y48495D01*
Y46139D01*
X418861D01*
Y35361D01*
X430139D01*
Y46139D01*
X426936D01*
Y48495D01*
X427457Y49275D01*
X427701Y50500D01*
X427457Y51725D01*
X426763Y52763D01*
X425725Y53457D01*
X424500Y53700D01*
D02*
G37*
G36*
X474389Y37389D02*
Y37389D01*
X464611D01*
Y30111D01*
X474389D01*
Y30111D01*
X475659Y30667D01*
X476250Y30549D01*
X477475Y30793D01*
X478513Y31487D01*
X479207Y32525D01*
X479450Y33750D01*
X479207Y34975D01*
X478513Y36013D01*
X477475Y36707D01*
X476250Y36951D01*
X475659Y36833D01*
X474389Y37389D01*
D02*
G37*
G36*
X473500Y15686D02*
X472568Y15500D01*
X471778Y14972D01*
X471528Y14722D01*
X471000Y13932D01*
X470814Y13000D01*
X471000Y12068D01*
X471528Y11278D01*
X472318Y10750D01*
X473250Y10564D01*
X474182Y10750D01*
X474972Y11278D01*
X475222Y11528D01*
X475750Y12318D01*
X475936Y13250D01*
X475750Y14182D01*
X475222Y14972D01*
X474432Y15500D01*
X473500Y15686D01*
D02*
G37*
%LPD*%
D11*
X18000Y110000D02*
X21500D01*
X8750Y100750D02*
X18000Y110000D01*
X112500Y73000D02*
X117114Y77614D01*
X140614D01*
X150000Y87000D01*
X150500D01*
X119000Y87000D02*
X134750D01*
X97250Y77000D02*
X109000D01*
X119000Y87000D01*
X68250Y35500D02*
X84500D01*
X93752Y44752D02*
X109755D01*
X84500Y35500D02*
X93752Y44752D01*
X272500Y80500D02*
Y87250D01*
X182000Y87000D02*
X197750D01*
X150500D02*
X150500Y87000D01*
X166250D01*
X119000Y87000D02*
X119000Y87000D01*
X87000Y80000D02*
Y86250D01*
X87500Y86750D01*
X103000D02*
X103250Y87000D01*
X87500Y86750D02*
X103000D01*
X40250Y80000D02*
Y87500D01*
X40250Y87500D02*
X40250Y87500D01*
X24500Y87500D02*
X40250D01*
X52500Y35500D02*
X68250D01*
X52500Y19000D02*
Y35500D01*
Y19000D02*
X55000Y16500D01*
X37000D02*
X55000D01*
X37000D02*
Y32250D01*
X21500Y455250D02*
Y455250D01*
Y455250D02*
X32000Y444750D01*
X399750Y490750D02*
X406750D01*
X399500Y490500D02*
X399750Y490750D01*
X32000Y444750D02*
X33250D01*
X461250Y437250D02*
X477500D01*
Y453000D01*
X462000D02*
X477500D01*
X462000D02*
Y462750D01*
X468750Y469500D01*
X469250D01*
X461250Y437250D02*
X462000Y438000D01*
X400000Y477000D02*
X408500Y468500D01*
X399500Y477000D02*
X400000D01*
X408500Y468500D02*
X425000D01*
X29000Y417500D02*
Y441750D01*
X32000Y444750D01*
X46250Y417500D02*
X52500Y411250D01*
X29000Y417500D02*
X46250D01*
D15*
X251743Y344129D02*
G03*
X251743Y342007I1061J-1061D01*
G01*
X253643Y346029D02*
G03*
X253643Y348150I-1061J1061D01*
G01*
D02*
G03*
X251521Y348150I-1061J-1061D01*
G01*
X247500Y346250D02*
G03*
X249621Y346250I1061J1061D01*
G01*
X302250Y447000D02*
Y462000D01*
X257250Y447000D02*
Y462000D01*
X376250Y61750D02*
X379000Y59000D01*
X376250Y61750D02*
Y75500D01*
X360500Y69250D02*
X364250Y65500D01*
X360500Y69250D02*
Y75500D01*
X165142Y70642D02*
X181500Y87000D01*
X117892Y70642D02*
X165142D01*
X253125Y340625D02*
X257234Y336516D01*
X192250Y401500D02*
X247500Y346250D01*
X252803Y340947D02*
X253125Y340625D01*
X251743Y342007D02*
X252803Y340947D01*
X251743Y344129D02*
X253643Y346029D01*
X249621Y346250D02*
X251521Y348150D01*
X192250Y401500D02*
Y447000D01*
X157250Y405457D02*
Y447000D01*
Y405457D02*
X287457Y275250D01*
X152250Y405250D02*
Y447000D01*
Y405250D02*
X292500Y265000D01*
X287457Y275250D02*
X287500D01*
X162250Y405604D02*
Y447000D01*
Y405604D02*
X282552Y285302D01*
X167250Y405750D02*
X277500Y295500D01*
X167250Y405750D02*
Y447000D01*
X172250Y406000D02*
X272500Y305750D01*
X172250Y406000D02*
Y447000D01*
X182250Y406383D02*
Y447000D01*
Y406383D02*
X262383Y326250D01*
X177250Y406250D02*
Y447000D01*
Y406250D02*
X267500Y316000D01*
X257234Y336516D02*
X257263D01*
X187250Y447000D02*
X187250Y447000D01*
Y427000D02*
Y447000D01*
X197250Y447000D02*
X197250Y447000D01*
X202250Y432000D02*
Y447000D01*
X197250Y427000D02*
Y447000D01*
X207250Y447000D02*
X207250Y447000D01*
X212250Y432000D02*
Y447000D01*
X207250Y427000D02*
Y447000D01*
X327250Y427000D02*
Y447000D01*
X317250Y427000D02*
Y447000D01*
X307250Y427000D02*
Y447000D01*
X312250Y432000D02*
Y447000D01*
X181500Y87000D02*
X182000D01*
X117500Y70250D02*
X117892Y70642D01*
X217250Y427000D02*
Y447000D01*
X227250Y427000D02*
Y447000D01*
X222250Y432000D02*
Y447000D01*
X237250Y427000D02*
Y447000D01*
X242250Y432000D02*
Y447000D01*
X232250Y432000D02*
Y447000D01*
X252250Y432000D02*
Y447000D01*
X247250Y427000D02*
Y447000D01*
X217250D02*
X217250Y447000D01*
X262250Y427000D02*
Y447000D01*
X272250Y427000D02*
Y447000D01*
X337250Y427000D02*
Y447000D01*
X332250Y432000D02*
Y447000D01*
X342250Y432000D02*
Y447000D01*
X322250Y432000D02*
Y447000D01*
X307250Y447000D02*
X307250Y447000D01*
X262250Y447000D02*
X262250Y447000D01*
X267250Y432000D02*
Y447000D01*
X277250Y432000D02*
Y447000D01*
X287250Y432000D02*
Y447000D01*
X282250Y427000D02*
Y447000D01*
X297250Y432000D02*
Y447000D01*
X292250Y427000D02*
Y447000D01*
D16*
X128750Y409250D02*
D03*
X141750D02*
D03*
X128750Y393500D02*
D03*
X141750D02*
D03*
X24000Y32250D02*
D03*
X37000D02*
D03*
X24000Y16500D02*
D03*
X37000D02*
D03*
X449000Y453000D02*
D03*
X462000D02*
D03*
X487750Y94000D02*
D03*
X474750D02*
D03*
X459750D02*
D03*
X446750D02*
D03*
D17*
X83600Y16500D02*
D03*
D18*
X55000D02*
D03*
D19*
X487000Y469500D02*
D03*
Y491500D02*
D03*
D20*
X376250Y88500D02*
D03*
Y75500D02*
D03*
X360500Y88500D02*
D03*
Y75500D02*
D03*
X272500Y100250D02*
D03*
Y87250D02*
D03*
X166250Y100000D02*
D03*
Y87000D02*
D03*
X197750Y100000D02*
D03*
Y87000D02*
D03*
X103250Y87000D02*
D03*
Y100000D02*
D03*
X150500Y100000D02*
D03*
Y87000D02*
D03*
X182000Y100000D02*
D03*
Y87000D02*
D03*
X24500Y100500D02*
D03*
Y87500D02*
D03*
X40250Y87500D02*
D03*
Y100500D02*
D03*
X134750Y87000D02*
D03*
Y100000D02*
D03*
X119000Y100000D02*
D03*
Y87000D02*
D03*
X469250Y482500D02*
D03*
Y469500D02*
D03*
X34000Y479250D02*
D03*
Y492250D02*
D03*
X18250Y479250D02*
D03*
Y492250D02*
D03*
D21*
X87500Y86750D02*
D03*
Y100250D02*
D03*
X71750Y86750D02*
D03*
Y100250D02*
D03*
X56000Y86750D02*
D03*
Y100250D02*
D03*
X8750Y100750D02*
D03*
Y87250D02*
D03*
X9000Y32000D02*
D03*
Y18500D02*
D03*
X52500Y35500D02*
D03*
Y49000D02*
D03*
X68250Y35500D02*
D03*
Y49000D02*
D03*
X453250Y469000D02*
D03*
Y482500D02*
D03*
X84000Y35500D02*
D03*
Y49000D02*
D03*
X399500Y490500D02*
D03*
Y477000D02*
D03*
X488000Y52750D02*
D03*
Y39250D02*
D03*
X82000Y395500D02*
D03*
Y409000D02*
D03*
D22*
X18500Y70750D02*
D03*
X28000Y47750D02*
D03*
X9000D02*
D03*
X425000Y468500D02*
D03*
X415500Y491500D02*
D03*
X434500D02*
D03*
D23*
X461250Y437250D02*
D03*
X447750D02*
D03*
X477500D02*
D03*
X491000D02*
D03*
X477500Y453000D02*
D03*
X491000D02*
D03*
X50500Y475750D02*
D03*
X64000D02*
D03*
X50500Y395250D02*
D03*
X64000D02*
D03*
X22000D02*
D03*
X8500D02*
D03*
X50500Y460000D02*
D03*
X64000D02*
D03*
X412000Y76000D02*
D03*
X398500D02*
D03*
X425500Y94000D02*
D03*
X412000D02*
D03*
X128500Y377750D02*
D03*
X142000D02*
D03*
X113250Y409250D02*
D03*
X99750D02*
D03*
D24*
X33250Y444750D02*
D03*
Y454250D02*
D03*
Y463750D02*
D03*
X9250D02*
D03*
Y444750D02*
D03*
X469500Y52750D02*
D03*
Y43250D02*
D03*
Y33750D02*
D03*
X445500D02*
D03*
Y43250D02*
D03*
Y52750D02*
D03*
D25*
X29000Y417500D02*
D03*
X9000D02*
D03*
D26*
X52500Y442750D02*
D03*
Y411250D02*
D03*
X424500Y40750D02*
D03*
Y9250D02*
D03*
D27*
X445750Y74750D02*
D03*
X461750D02*
D03*
D28*
X445500Y13250D02*
D03*
X473500D02*
D03*
D29*
X97250Y392250D02*
D03*
Y387250D02*
D03*
Y382250D02*
D03*
X113250D02*
D03*
Y387250D02*
D03*
Y392250D02*
D03*
D30*
X105250Y387250D02*
D03*
D31*
X131250Y474000D02*
D03*
X368250D02*
D03*
D32*
X152250Y447000D02*
D03*
X157250D02*
D03*
X162250D02*
D03*
X167250D02*
D03*
X172250D02*
D03*
X177250D02*
D03*
X182250D02*
D03*
X187250D02*
D03*
X192250D02*
D03*
X197250D02*
D03*
X202250D02*
D03*
X207250D02*
D03*
X212250D02*
D03*
X217250D02*
D03*
X222250D02*
D03*
X227250D02*
D03*
X232250D02*
D03*
X237250D02*
D03*
X242250D02*
D03*
X247250D02*
D03*
X252250D02*
D03*
X257250D02*
D03*
X262250D02*
D03*
X267250D02*
D03*
X272250D02*
D03*
X277250D02*
D03*
X282250D02*
D03*
X287250D02*
D03*
X292250D02*
D03*
X297250D02*
D03*
X302250D02*
D03*
X307250D02*
D03*
X312250D02*
D03*
X317250D02*
D03*
X322250D02*
D03*
X327250D02*
D03*
X332250D02*
D03*
X337250D02*
D03*
X342250D02*
D03*
X347250D02*
D03*
D52*
X98501Y479750D02*
G03*
X98501Y479750I-1J0D01*
G01*
X364751Y34500D02*
G03*
X364751Y34500I-1J0D01*
G01*
D53*
X85250Y392250D02*
X97250D01*
X82000Y395500D02*
X85250Y392250D01*
X27750Y103750D02*
X34000Y110000D01*
X27750Y103250D02*
Y103750D01*
X34000Y110000D02*
Y121250D01*
X25000Y100500D02*
X27750Y103250D01*
X24500Y100500D02*
X25000D01*
X40215Y448059D02*
X40502Y447772D01*
X40215Y448059D02*
Y448535D01*
X34500Y454250D02*
X40215Y448535D01*
X33879Y454250D02*
X34500D01*
X8500Y387000D02*
Y395250D01*
X272500Y100250D02*
Y108000D01*
X24000Y8750D02*
Y16500D01*
X9000Y10750D02*
Y18500D01*
X366632Y94132D02*
X370118D01*
X375750Y88500D01*
X376250D01*
X361000D02*
X366632Y94132D01*
X360500Y88500D02*
X361000D01*
X124000Y382250D02*
X128500Y377750D01*
X113250Y382250D02*
X124000D01*
X22000Y395250D02*
X50500D01*
X141750Y409250D02*
Y416250D01*
Y409250D02*
X141750Y409250D01*
X133000Y101750D02*
Y108000D01*
Y101750D02*
X134750Y100000D01*
X132500Y125000D02*
X140750D01*
X165750Y100000D01*
X166250D01*
X132500Y136000D02*
X161750D01*
X197750Y100000D01*
X132500Y130500D02*
X151000D01*
X181500Y100000D01*
X150500D02*
Y101500D01*
X132500Y119500D02*
X150500Y101500D01*
X181500Y100000D02*
X182000D01*
X287250Y66000D02*
X287500Y66250D01*
X469500Y33750D02*
X476250D01*
X445500Y13250D02*
X454000D01*
X426000Y85750D02*
Y93500D01*
X425500Y94000D02*
X426000Y93500D01*
X436750Y94000D02*
X446750D01*
X425500D02*
X436750D01*
X424500Y40750D02*
Y50500D01*
X444250Y52750D02*
X445500D01*
X435375Y43875D02*
X444250Y52750D01*
X435375Y19875D02*
Y43875D01*
X424750Y9250D02*
X435375Y19875D01*
X424500Y9250D02*
X424750D01*
X445500Y13250D02*
Y33750D01*
Y52750D02*
Y74500D01*
X445750Y74750D01*
X474750Y86750D02*
Y94000D01*
Y86750D02*
X476250Y85250D01*
X459750Y94000D02*
X474750D01*
X469500Y43250D02*
X476250D01*
X469500Y52750D02*
X488000D01*
X488000Y52750D01*
X469500Y43250D02*
X469500Y43250D01*
X461750Y74250D02*
Y74750D01*
Y74250D02*
X469500Y66500D01*
Y52750D02*
Y66500D01*
X473250Y13000D02*
X473500Y13250D01*
X473500Y13250D01*
X398500Y76000D02*
X398500Y76000D01*
X391500Y76000D02*
X398500D01*
X412000Y76000D02*
X412000Y76000D01*
Y94000D02*
X412000Y94000D01*
X487750Y94000D02*
X487750Y94000D01*
X445500Y43250D02*
X445500Y43250D01*
X488000Y39250D02*
X488000Y39250D01*
X447750Y437250D02*
X447750Y437250D01*
X440750Y437250D02*
X447750D01*
X142000Y377750D02*
X142000Y377750D01*
X149000D01*
X99750Y409250D02*
X99750Y409250D01*
X99750Y409250D02*
Y416250D01*
X82000Y409000D02*
X82000Y409000D01*
X82000Y409000D02*
Y416000D01*
X64000Y395250D02*
X64000Y395250D01*
X71000D01*
X39500Y492250D02*
X50500Y481250D01*
X34000Y492250D02*
X39500D01*
X76125Y47500D02*
Y49000D01*
Y47500D02*
X76213Y47412D01*
Y44037D02*
Y47412D01*
Y44037D02*
X76500Y43750D01*
X347250Y447000D02*
Y468189D01*
X44252Y56748D02*
Y58253D01*
Y56748D02*
X52000Y49000D01*
X71750Y86750D02*
X71750Y86750D01*
Y79750D02*
Y86750D01*
Y100250D02*
X71750Y100250D01*
X71750Y100250D02*
Y107250D01*
X56000Y100250D02*
X56000Y100250D01*
X56000Y100250D02*
Y107250D01*
X40250Y100500D02*
X40250Y100500D01*
X40250Y100500D02*
Y107500D01*
X87500Y100250D02*
X87500Y100250D01*
X87500Y100250D02*
Y107250D01*
X103250Y100000D02*
X103250Y100000D01*
X103250Y100000D02*
Y107000D01*
X150500Y100000D02*
X150500Y100000D01*
X56000Y80000D02*
Y86750D01*
X71750D01*
X76125Y49000D02*
X84000D01*
X68250D02*
X76125D01*
X83600Y16500D02*
X92750D01*
X9000Y32000D02*
X9250Y32250D01*
X24000D01*
Y42250D02*
X28000Y46250D01*
Y47750D01*
X24000Y32250D02*
Y42250D01*
X9250Y81500D02*
Y87250D01*
Y81500D02*
X18500Y72250D01*
X8750Y87250D02*
X9250D01*
X18500Y70750D02*
Y72250D01*
X52500Y49000D02*
X68250D01*
X52000D02*
X52500D01*
X50500Y444750D02*
Y460000D01*
Y444750D02*
X52500Y442750D01*
X59000Y384000D02*
X70000D01*
X50500Y392500D02*
X59000Y384000D01*
X50500Y392500D02*
Y395250D01*
X46750Y487250D02*
X72000D01*
X45750Y486250D02*
X46750Y487250D01*
X50500Y475750D02*
Y481250D01*
X64000Y475750D02*
X72000D01*
X119000Y100000D02*
Y107250D01*
Y100000D02*
X119000Y100000D01*
X64000Y460000D02*
X72250D01*
X415750Y491750D02*
X421500D01*
X415500Y491500D02*
X415750Y491750D01*
X453250Y482500D02*
Y489500D01*
X469250Y482500D02*
Y489500D01*
X487750Y492250D02*
X493000D01*
X487000Y491500D02*
X487750Y492250D01*
X485250Y445000D02*
X485537Y444713D01*
Y443213D02*
Y444713D01*
Y443213D02*
X490023Y438727D01*
Y438227D02*
Y438727D01*
X485537Y447037D02*
X491000Y452500D01*
Y453000D01*
X490023Y438227D02*
X491000Y437250D01*
X487000Y469500D02*
X493250D01*
X461250Y427750D02*
Y437250D01*
X452750Y456750D02*
Y469000D01*
X449000Y453000D02*
X452750Y456750D01*
X450000Y469000D02*
X453250D01*
X434500Y484500D02*
X450000Y469000D01*
X434500Y484500D02*
Y491500D01*
X9000Y47750D02*
Y55500D01*
X9000Y47750D02*
X9000Y47750D01*
X113250Y409250D02*
X113250Y409250D01*
Y392250D02*
Y409250D01*
X141750Y393500D02*
X149250D01*
X141750Y393500D02*
X141750Y393500D01*
X128500Y363000D02*
Y377750D01*
X128750Y393500D02*
Y409250D01*
X128500Y377750D02*
Y378250D01*
X128750Y393000D02*
Y393500D01*
X123000Y387250D02*
X128750Y393000D01*
X113250Y387250D02*
X123000D01*
X105250Y377750D02*
Y387250D01*
Y396750D01*
X105000Y387500D02*
X105250Y387250D01*
X90000Y387250D02*
X90000Y387250D01*
X97250D01*
X87500Y382250D02*
X97250D01*
X82000Y387750D02*
X87500Y382250D01*
X82000Y387750D02*
Y395500D01*
X7500Y492250D02*
X18250D01*
X32500Y479250D02*
X33250Y478500D01*
X18250Y479250D02*
X32500D01*
X33250Y463750D02*
Y478500D01*
X50500Y460000D02*
Y475750D01*
X9125Y444625D02*
X9250Y444750D01*
Y463750D01*
X9125Y417625D02*
Y444625D01*
X9000Y417500D02*
X9125Y417625D01*
X9000Y408250D02*
X22000Y395250D01*
X9000Y408250D02*
Y417500D01*
X70000Y384000D02*
X81500Y395500D01*
X82000D01*
D54*
X114000Y363000D02*
D03*
X128500D02*
D03*
D55*
X388750Y52500D02*
D03*
X34000Y121250D02*
D03*
X21500Y110000D02*
D03*
X8500Y387000D02*
D03*
X40502Y447772D02*
D03*
X302250Y462000D02*
D03*
X257250D02*
D03*
X272500Y108000D02*
D03*
X24000Y8750D02*
D03*
X9000Y10750D02*
D03*
X368375Y94132D02*
D03*
X379000Y59000D02*
D03*
X364250Y65500D02*
D03*
X59000Y384000D02*
D03*
X141750Y416250D02*
D03*
X292500Y265000D02*
D03*
X287500Y275250D02*
D03*
X282552Y285302D02*
D03*
X277500Y295500D02*
D03*
X272500Y305750D02*
D03*
X267500Y316000D02*
D03*
X262500Y326250D02*
D03*
X257263Y336516D02*
D03*
X187250Y427000D02*
D03*
X202250Y432000D02*
D03*
X197250Y427000D02*
D03*
X212250Y432000D02*
D03*
X207250Y427000D02*
D03*
X327250Y427000D02*
D03*
X317250D02*
D03*
X307250Y427000D02*
D03*
X312250Y432000D02*
D03*
X132500Y136000D02*
D03*
Y130500D02*
D03*
Y125000D02*
D03*
Y119500D02*
D03*
X133000Y108000D02*
D03*
X122500Y67000D02*
D03*
X117500Y70250D02*
D03*
X112500Y73000D02*
D03*
X97250Y77000D02*
D03*
X217250Y427000D02*
D03*
X227250Y427000D02*
D03*
X222250Y432000D02*
D03*
X237250Y427000D02*
D03*
X242250Y432000D02*
D03*
X232250D02*
D03*
X252250D02*
D03*
X247250Y427000D02*
D03*
X262250Y427000D02*
D03*
X272250Y427000D02*
D03*
X337250D02*
D03*
X332250Y432000D02*
D03*
X342250D02*
D03*
X322250D02*
D03*
X267250Y432000D02*
D03*
X277250Y432000D02*
D03*
X282250Y427000D02*
D03*
X287250Y432000D02*
D03*
X292250Y427000D02*
D03*
X297250Y432000D02*
D03*
X287500Y66250D02*
D03*
X280000D02*
D03*
X476250Y33750D02*
D03*
X454000Y13250D02*
D03*
X295000Y41750D02*
D03*
X305000Y66250D02*
D03*
X426000Y85750D02*
D03*
X436750Y94000D02*
D03*
X424500Y50500D02*
D03*
X476250Y85250D02*
D03*
Y43250D02*
D03*
X132500Y44250D02*
D03*
X464500Y13000D02*
D03*
X391500Y76000D02*
D03*
X419000D02*
D03*
X405000Y94000D02*
D03*
X494750D02*
D03*
X452500Y43250D02*
D03*
X488000Y32250D02*
D03*
X440750Y437250D02*
D03*
X149000Y377750D02*
D03*
X99750Y416250D02*
D03*
X82000Y416000D02*
D03*
X71000Y395250D02*
D03*
X347250Y468189D02*
D03*
X76500Y43750D02*
D03*
X44252Y58253D02*
D03*
X109755Y44752D02*
D03*
X102500Y38500D02*
D03*
X71750Y79750D02*
D03*
Y107250D02*
D03*
X56000D02*
D03*
X40250Y107500D02*
D03*
X87500Y107250D02*
D03*
X103250Y107000D02*
D03*
X272500Y80500D02*
D03*
X87000Y80000D02*
D03*
X56000D02*
D03*
X40250D02*
D03*
X92750Y16500D02*
D03*
X21500Y455250D02*
D03*
X72000Y487250D02*
D03*
X406750Y490750D02*
D03*
X72000Y475750D02*
D03*
X119000Y107250D02*
D03*
X72250Y460000D02*
D03*
X421500Y491750D02*
D03*
X453250Y489500D02*
D03*
X469250D02*
D03*
X493000Y492250D02*
D03*
X485250Y445000D02*
D03*
X493250Y469500D02*
D03*
X461250Y427750D02*
D03*
X9000Y55500D02*
D03*
X45750Y486250D02*
D03*
X149250Y393500D02*
D03*
X105250Y377750D02*
D03*
Y396750D02*
D03*
X90000Y387250D02*
D03*
X7500Y492250D02*
D03*
M02*
