G04*
G04 #@! TF.GenerationSoftware,Altium Limited,Altium Designer,19.0.11 (319)*
G04*
G04 Layer_Physical_Order=2*
G04 Layer_Color=36540*
%FSLAX44Y44*%
%MOMM*%
G71*
G01*
G75*
%ADD11C,0.2000*%
%ADD53C,0.3000*%
G04:AMPARAMS|DCode=54|XSize=1mm|YSize=1mm|CornerRadius=0.25mm|HoleSize=0mm|Usage=FLASHONLY|Rotation=0.000|XOffset=0mm|YOffset=0mm|HoleType=Round|Shape=RoundedRectangle|*
%AMROUNDEDRECTD54*
21,1,1.0000,0.5000,0,0,0.0*
21,1,0.5000,1.0000,0,0,0.0*
1,1,0.5000,0.2500,-0.2500*
1,1,0.5000,-0.2500,-0.2500*
1,1,0.5000,-0.2500,0.2500*
1,1,0.5000,0.2500,0.2500*
%
%ADD54ROUNDEDRECTD54*%
%ADD55C,0.4500*%
G36*
X500000Y0D02*
X0D01*
X-0Y500000D01*
X500000Y500000D01*
Y0D01*
D02*
G37*
%LPC*%
G36*
X493000Y495451D02*
X491775Y495207D01*
X490737Y494513D01*
X490043Y493475D01*
X489799Y492250D01*
X490043Y491025D01*
X490737Y489987D01*
X491775Y489293D01*
X493000Y489049D01*
X494225Y489293D01*
X495263Y489987D01*
X495957Y491025D01*
X496200Y492250D01*
X495957Y493475D01*
X495263Y494513D01*
X494225Y495207D01*
X493000Y495451D01*
D02*
G37*
G36*
X7500D02*
X6275Y495207D01*
X5237Y494513D01*
X4543Y493475D01*
X4299Y492250D01*
X4543Y491025D01*
X5237Y489987D01*
X6275Y489293D01*
X7500Y489049D01*
X8725Y489293D01*
X9763Y489987D01*
X10457Y491025D01*
X10701Y492250D01*
X10457Y493475D01*
X9763Y494513D01*
X8725Y495207D01*
X7500Y495451D01*
D02*
G37*
G36*
X421500Y494950D02*
X420275Y494707D01*
X419237Y494013D01*
X418543Y492975D01*
X418299Y491750D01*
X418543Y490525D01*
X419237Y489487D01*
X420275Y488793D01*
X421500Y488549D01*
X422725Y488793D01*
X423763Y489487D01*
X424457Y490525D01*
X424701Y491750D01*
X424457Y492975D01*
X423763Y494013D01*
X422725Y494707D01*
X421500Y494950D01*
D02*
G37*
G36*
X62250Y497926D02*
X61513Y497779D01*
X60888Y497362D01*
X50167Y486641D01*
X48790Y487059D01*
X48707Y487475D01*
X48013Y488513D01*
X46975Y489207D01*
X45750Y489450D01*
X44525Y489207D01*
X43487Y488513D01*
X42793Y487475D01*
X42610Y486555D01*
X14528Y458472D01*
X14000Y457682D01*
X13814Y456750D01*
X13814Y112940D01*
Y63759D01*
X8695Y58640D01*
X7775Y58457D01*
X6737Y57763D01*
X6043Y56725D01*
X5799Y55500D01*
X6043Y54275D01*
X6737Y53237D01*
X7775Y52543D01*
X9000Y52299D01*
X10225Y52543D01*
X11263Y53237D01*
X11957Y54275D01*
X12140Y55195D01*
X17972Y61028D01*
X18500Y61818D01*
X18686Y62750D01*
Y106578D01*
X19956Y107257D01*
X20275Y107043D01*
X21500Y106799D01*
X22433Y106985D01*
X23703Y106286D01*
Y59752D01*
X23889Y58820D01*
X24417Y58030D01*
X45669Y36778D01*
X46459Y36250D01*
X47391Y36064D01*
X100495D01*
X101275Y35543D01*
X102500Y35299D01*
X103725Y35543D01*
X104763Y36237D01*
X105457Y37275D01*
X105701Y38500D01*
X105457Y39725D01*
X104763Y40763D01*
X103725Y41457D01*
X102500Y41701D01*
X101275Y41457D01*
X100495Y40936D01*
X79922D01*
X79243Y42206D01*
X79457Y42525D01*
X79700Y43750D01*
X79457Y44975D01*
X78763Y46013D01*
X77725Y46707D01*
X76500Y46950D01*
X75275Y46707D01*
X74237Y46013D01*
X73543Y44975D01*
X73299Y43750D01*
X73543Y42525D01*
X73757Y42206D01*
X73078Y40936D01*
X48400D01*
X28575Y60761D01*
Y111922D01*
Y192434D01*
X29845Y192960D01*
X115860Y106945D01*
X116043Y106025D01*
X116737Y104987D01*
X117775Y104293D01*
X119000Y104050D01*
X120225Y104293D01*
X121263Y104987D01*
X121957Y106025D01*
X122200Y107250D01*
X121957Y108475D01*
X121263Y109513D01*
X120225Y110207D01*
X119305Y110390D01*
X33436Y196259D01*
Y445241D01*
X36082Y447887D01*
X36316Y447865D01*
X37378Y447387D01*
X37545Y446547D01*
X38239Y445509D01*
X39277Y444815D01*
X40502Y444571D01*
X41727Y444815D01*
X42765Y445509D01*
X43459Y446547D01*
X43703Y447772D01*
X43459Y448997D01*
X42765Y450035D01*
X41727Y450729D01*
X40887Y450896D01*
X40409Y451957D01*
X40386Y452192D01*
X72305Y484110D01*
X73225Y484293D01*
X74263Y484987D01*
X74957Y486025D01*
X75201Y487250D01*
X74957Y488475D01*
X74669Y488905D01*
X75348Y490175D01*
X395380D01*
X458110Y427445D01*
X458293Y426525D01*
X458987Y425487D01*
X460025Y424793D01*
X461250Y424549D01*
X462475Y424793D01*
X463513Y425487D01*
X464207Y426525D01*
X464390Y427445D01*
X480952Y444007D01*
X482051Y443817D01*
X482382Y443642D01*
X482987Y442737D01*
X484025Y442043D01*
X485250Y441800D01*
X486475Y442043D01*
X487513Y442737D01*
X488207Y443775D01*
X488451Y445000D01*
X488207Y446225D01*
X487513Y447263D01*
X486608Y447868D01*
X486433Y448199D01*
X486243Y449298D01*
X494972Y458028D01*
X495500Y458818D01*
X495686Y459750D01*
Y467495D01*
X496207Y468275D01*
X496451Y469500D01*
X496207Y470725D01*
X495513Y471763D01*
X494475Y472457D01*
X493250Y472701D01*
X492025Y472457D01*
X490987Y471763D01*
X490293Y470725D01*
X490050Y469500D01*
X490293Y468275D01*
X490814Y467495D01*
Y460759D01*
X461250Y431195D01*
X406051Y486394D01*
X406677Y487564D01*
X406750Y487550D01*
X407975Y487793D01*
X409013Y488487D01*
X409707Y489525D01*
X409950Y490750D01*
X409707Y491975D01*
X409013Y493013D01*
X407975Y493707D01*
X406750Y493951D01*
X406352Y493871D01*
X402862Y497362D01*
X402237Y497779D01*
X401500Y497926D01*
X62250D01*
X62250Y497926D01*
D02*
G37*
G36*
X469250Y492701D02*
X468025Y492457D01*
X466987Y491763D01*
X466293Y490725D01*
X466049Y489500D01*
X466293Y488275D01*
X466987Y487237D01*
X468025Y486543D01*
X469250Y486300D01*
X470475Y486543D01*
X471513Y487237D01*
X472207Y488275D01*
X472450Y489500D01*
X472207Y490725D01*
X471513Y491763D01*
X470475Y492457D01*
X469250Y492701D01*
D02*
G37*
G36*
X453250D02*
X452025Y492457D01*
X450987Y491763D01*
X450293Y490725D01*
X450050Y489500D01*
X450293Y488275D01*
X450987Y487237D01*
X452025Y486543D01*
X453250Y486300D01*
X454475Y486543D01*
X455513Y487237D01*
X456207Y488275D01*
X456451Y489500D01*
X456207Y490725D01*
X455513Y491763D01*
X454475Y492457D01*
X453250Y492701D01*
D02*
G37*
G36*
X72000Y478951D02*
X70775Y478707D01*
X69737Y478013D01*
X69043Y476975D01*
X68800Y475750D01*
X69043Y474525D01*
X69737Y473487D01*
X70775Y472793D01*
X72000Y472550D01*
X73225Y472793D01*
X74263Y473487D01*
X74957Y474525D01*
X75201Y475750D01*
X74957Y476975D01*
X74263Y478013D01*
X73225Y478707D01*
X72000Y478951D01*
D02*
G37*
G36*
X347250Y471390D02*
X346025Y471146D01*
X345245Y470625D01*
X121189D01*
X120257Y470440D01*
X119467Y469912D01*
X57278Y407722D01*
X56750Y406932D01*
X56564Y406000D01*
Y386005D01*
X56043Y385225D01*
X55799Y384000D01*
X56043Y382775D01*
X56737Y381737D01*
X57775Y381043D01*
X59000Y380799D01*
X60225Y381043D01*
X61263Y381737D01*
X61957Y382775D01*
X62200Y384000D01*
X61957Y385225D01*
X61436Y386005D01*
Y404991D01*
X122198Y465754D01*
X254932D01*
X255317Y464483D01*
X254987Y464263D01*
X254293Y463225D01*
X254049Y462000D01*
X254293Y460775D01*
X254987Y459737D01*
X256025Y459043D01*
X257250Y458800D01*
X258475Y459043D01*
X259513Y459737D01*
X260207Y460775D01*
X260450Y462000D01*
X260207Y463225D01*
X259513Y464263D01*
X259183Y464483D01*
X259568Y465754D01*
X299932D01*
X300317Y464483D01*
X299987Y464263D01*
X299293Y463225D01*
X299049Y462000D01*
X299293Y460775D01*
X299987Y459737D01*
X301025Y459043D01*
X302250Y458800D01*
X303475Y459043D01*
X304513Y459737D01*
X305207Y460775D01*
X305450Y462000D01*
X305207Y463225D01*
X304513Y464263D01*
X304183Y464483D01*
X304568Y465754D01*
X345245D01*
X346025Y465233D01*
X347250Y464989D01*
X348475Y465233D01*
X349513Y465926D01*
X350207Y466965D01*
X350451Y468189D01*
X350207Y469414D01*
X349513Y470452D01*
X348475Y471146D01*
X347250Y471390D01*
D02*
G37*
G36*
X72250Y463200D02*
X71025Y462957D01*
X69987Y462263D01*
X69293Y461225D01*
X69050Y460000D01*
X69293Y458775D01*
X69987Y457737D01*
X71025Y457043D01*
X72250Y456800D01*
X73475Y457043D01*
X74513Y457737D01*
X75207Y458775D01*
X75451Y460000D01*
X75207Y461225D01*
X74513Y462263D01*
X73475Y462957D01*
X72250Y463200D01*
D02*
G37*
G36*
X440750Y440451D02*
X439525Y440207D01*
X438487Y439513D01*
X437793Y438475D01*
X437550Y437250D01*
X437793Y436025D01*
X438487Y434987D01*
X439525Y434293D01*
X440750Y434049D01*
X441975Y434293D01*
X443013Y434987D01*
X443707Y436025D01*
X443951Y437250D01*
X443707Y438475D01*
X443013Y439513D01*
X441975Y440207D01*
X440750Y440451D01*
D02*
G37*
G36*
X342250Y435201D02*
X341025Y434957D01*
X339987Y434263D01*
X339293Y433225D01*
X339049Y432000D01*
X339256Y430962D01*
X338833Y430418D01*
X338288Y429994D01*
X337250Y430201D01*
X336212Y429994D01*
X335667Y430417D01*
X335244Y430962D01*
X335451Y432000D01*
X335207Y433225D01*
X334513Y434263D01*
X333475Y434957D01*
X332250Y435201D01*
X331025Y434957D01*
X329987Y434263D01*
X329293Y433225D01*
X329049Y432000D01*
X329256Y430962D01*
X328833Y430418D01*
X328288Y429994D01*
X327250Y430201D01*
X326212Y429994D01*
X325667Y430417D01*
X325244Y430962D01*
X325451Y432000D01*
X325207Y433225D01*
X324513Y434263D01*
X323475Y434957D01*
X322250Y435201D01*
X321025Y434957D01*
X319987Y434263D01*
X319293Y433225D01*
X319049Y432000D01*
X319256Y430962D01*
X318833Y430418D01*
X318288Y429994D01*
X317250Y430201D01*
X316212Y429994D01*
X315667Y430417D01*
X315244Y430962D01*
X315450Y432000D01*
X315207Y433225D01*
X314513Y434263D01*
X313475Y434957D01*
X312250Y435201D01*
X311025Y434957D01*
X309987Y434263D01*
X309293Y433225D01*
X309049Y432000D01*
X309256Y430962D01*
X308833Y430417D01*
X308288Y429994D01*
X307250Y430200D01*
X306025Y429957D01*
X304987Y429263D01*
X304293Y428225D01*
X304050Y427000D01*
X304293Y425775D01*
X304987Y424737D01*
X306025Y424043D01*
X307250Y423800D01*
X308475Y424043D01*
X309513Y424737D01*
X310207Y425775D01*
X310450Y427000D01*
X310244Y428038D01*
X310667Y428582D01*
X311212Y429006D01*
X312250Y428800D01*
X313288Y429006D01*
X313833Y428583D01*
X314256Y428038D01*
X314049Y427000D01*
X314293Y425775D01*
X314987Y424737D01*
X316025Y424043D01*
X317250Y423800D01*
X318475Y424043D01*
X319513Y424737D01*
X320207Y425775D01*
X320451Y427000D01*
X320244Y428038D01*
X320667Y428583D01*
X321212Y429006D01*
X322250Y428800D01*
X323288Y429006D01*
X323833Y428583D01*
X324256Y428038D01*
X324049Y427000D01*
X324293Y425775D01*
X324987Y424737D01*
X326025Y424043D01*
X327250Y423800D01*
X328475Y424043D01*
X329513Y424737D01*
X330207Y425775D01*
X330451Y427000D01*
X330244Y428038D01*
X330667Y428583D01*
X331212Y429006D01*
X332250Y428800D01*
X333288Y429006D01*
X333833Y428583D01*
X334256Y428038D01*
X334049Y427000D01*
X334293Y425775D01*
X334987Y424737D01*
X336025Y424043D01*
X337250Y423800D01*
X338475Y424043D01*
X339513Y424737D01*
X340207Y425775D01*
X340451Y427000D01*
X340244Y428038D01*
X340667Y428583D01*
X341212Y429006D01*
X342250Y428800D01*
X343475Y429043D01*
X344513Y429737D01*
X345207Y430775D01*
X345451Y432000D01*
X345207Y433225D01*
X344513Y434263D01*
X343475Y434957D01*
X342250Y435201D01*
D02*
G37*
G36*
X297250D02*
X296025Y434957D01*
X294987Y434263D01*
X294293Y433225D01*
X294049Y432000D01*
X294256Y430962D01*
X293833Y430418D01*
X293288Y429994D01*
X292250Y430201D01*
X291212Y429994D01*
X290667Y430417D01*
X290244Y430962D01*
X290450Y432000D01*
X290207Y433225D01*
X289513Y434263D01*
X288475Y434957D01*
X287250Y435201D01*
X286025Y434957D01*
X284987Y434263D01*
X284293Y433225D01*
X284049Y432000D01*
X284256Y430962D01*
X283833Y430418D01*
X283288Y429994D01*
X282250Y430201D01*
X281212Y429994D01*
X280667Y430417D01*
X280244Y430962D01*
X280450Y432000D01*
X280207Y433225D01*
X279513Y434263D01*
X278475Y434957D01*
X277250Y435201D01*
X276025Y434957D01*
X274987Y434263D01*
X274293Y433225D01*
X274049Y432000D01*
X274256Y430962D01*
X273833Y430418D01*
X273288Y429994D01*
X272250Y430201D01*
X271212Y429994D01*
X270667Y430417D01*
X270244Y430962D01*
X270450Y432000D01*
X270207Y433225D01*
X269513Y434263D01*
X268475Y434957D01*
X267250Y435201D01*
X266025Y434957D01*
X264987Y434263D01*
X264293Y433225D01*
X264049Y432000D01*
X264256Y430962D01*
X263833Y430417D01*
X263288Y429994D01*
X262250Y430200D01*
X261025Y429957D01*
X259987Y429263D01*
X259293Y428225D01*
X259049Y427000D01*
X259293Y425775D01*
X259987Y424737D01*
X261025Y424043D01*
X262250Y423800D01*
X263475Y424043D01*
X264513Y424737D01*
X265207Y425775D01*
X265450Y427000D01*
X265244Y428038D01*
X265667Y428582D01*
X266212Y429006D01*
X267250Y428800D01*
X268288Y429006D01*
X268833Y428583D01*
X269256Y428038D01*
X269049Y427000D01*
X269293Y425775D01*
X269987Y424737D01*
X271025Y424043D01*
X272250Y423800D01*
X273475Y424043D01*
X274513Y424737D01*
X275207Y425775D01*
X275450Y427000D01*
X275244Y428038D01*
X275667Y428583D01*
X276212Y429006D01*
X277250Y428800D01*
X278288Y429006D01*
X278833Y428583D01*
X279256Y428038D01*
X279049Y427000D01*
X279293Y425775D01*
X279987Y424737D01*
X281025Y424043D01*
X282250Y423800D01*
X283475Y424043D01*
X284513Y424737D01*
X285207Y425775D01*
X285450Y427000D01*
X285244Y428038D01*
X285667Y428583D01*
X286212Y429006D01*
X287250Y428800D01*
X288288Y429006D01*
X288833Y428583D01*
X289256Y428038D01*
X289049Y427000D01*
X289293Y425775D01*
X289987Y424737D01*
X291025Y424043D01*
X292250Y423800D01*
X293475Y424043D01*
X294513Y424737D01*
X295207Y425775D01*
X295450Y427000D01*
X295244Y428038D01*
X295667Y428583D01*
X296212Y429006D01*
X297250Y428800D01*
X298475Y429043D01*
X299513Y429737D01*
X300207Y430775D01*
X300450Y432000D01*
X300207Y433225D01*
X299513Y434263D01*
X298475Y434957D01*
X297250Y435201D01*
D02*
G37*
G36*
X252250D02*
X251025Y434957D01*
X249987Y434263D01*
X249293Y433225D01*
X249049Y432000D01*
X249256Y430962D01*
X248833Y430418D01*
X248288Y429994D01*
X247250Y430201D01*
X246212Y429994D01*
X245667Y430417D01*
X245244Y430962D01*
X245450Y432000D01*
X245207Y433225D01*
X244513Y434263D01*
X243475Y434957D01*
X242250Y435201D01*
X241025Y434957D01*
X239987Y434263D01*
X239293Y433225D01*
X239049Y432000D01*
X239256Y430962D01*
X238833Y430418D01*
X238288Y429994D01*
X237250Y430201D01*
X236212Y429994D01*
X235667Y430417D01*
X235244Y430962D01*
X235450Y432000D01*
X235207Y433225D01*
X234513Y434263D01*
X233475Y434957D01*
X232250Y435201D01*
X231025Y434957D01*
X229987Y434263D01*
X229293Y433225D01*
X229049Y432000D01*
X229256Y430962D01*
X228833Y430418D01*
X228288Y429994D01*
X227250Y430201D01*
X226212Y429994D01*
X225667Y430417D01*
X225244Y430962D01*
X225450Y432000D01*
X225207Y433225D01*
X224513Y434263D01*
X223475Y434957D01*
X222250Y435201D01*
X221025Y434957D01*
X219987Y434263D01*
X219293Y433225D01*
X219049Y432000D01*
X219256Y430962D01*
X218833Y430417D01*
X218288Y429994D01*
X217250Y430200D01*
X216212Y429994D01*
X215667Y430417D01*
X215244Y430962D01*
X215450Y432000D01*
X215207Y433225D01*
X214513Y434263D01*
X213475Y434957D01*
X212250Y435201D01*
X211025Y434957D01*
X209987Y434263D01*
X209293Y433225D01*
X209049Y432000D01*
X209256Y430962D01*
X208833Y430417D01*
X208288Y429994D01*
X207250Y430200D01*
X206212Y429994D01*
X205667Y430417D01*
X205244Y430962D01*
X205450Y432000D01*
X205207Y433225D01*
X204513Y434263D01*
X203475Y434957D01*
X202250Y435201D01*
X201025Y434957D01*
X199987Y434263D01*
X199293Y433225D01*
X199049Y432000D01*
X199256Y430962D01*
X198833Y430417D01*
X198288Y429994D01*
X197250Y430200D01*
X196025Y429957D01*
X194987Y429263D01*
X194293Y428225D01*
X194049Y427000D01*
X194293Y425775D01*
X194987Y424737D01*
X196025Y424043D01*
X197250Y423800D01*
X198475Y424043D01*
X199513Y424737D01*
X200207Y425775D01*
X200450Y427000D01*
X200244Y428038D01*
X200667Y428582D01*
X201212Y429006D01*
X202250Y428800D01*
X203288Y429006D01*
X203833Y428583D01*
X204256Y428038D01*
X204049Y427000D01*
X204293Y425775D01*
X204987Y424737D01*
X206025Y424043D01*
X207250Y423800D01*
X208475Y424043D01*
X209513Y424737D01*
X210207Y425775D01*
X210450Y427000D01*
X210244Y428038D01*
X210667Y428582D01*
X211212Y429006D01*
X212250Y428800D01*
X213288Y429006D01*
X213833Y428583D01*
X214256Y428038D01*
X214049Y427000D01*
X214293Y425775D01*
X214987Y424737D01*
X216025Y424043D01*
X217250Y423800D01*
X218475Y424043D01*
X219513Y424737D01*
X220207Y425775D01*
X220450Y427000D01*
X220244Y428038D01*
X220667Y428582D01*
X221212Y429006D01*
X222250Y428800D01*
X223288Y429006D01*
X223833Y428583D01*
X224256Y428038D01*
X224049Y427000D01*
X224293Y425775D01*
X224987Y424737D01*
X226025Y424043D01*
X227250Y423800D01*
X228475Y424043D01*
X229513Y424737D01*
X230207Y425775D01*
X230450Y427000D01*
X230244Y428038D01*
X230667Y428583D01*
X231212Y429006D01*
X232250Y428800D01*
X233288Y429006D01*
X233833Y428583D01*
X234256Y428038D01*
X234049Y427000D01*
X234293Y425775D01*
X234987Y424737D01*
X236025Y424043D01*
X237250Y423800D01*
X238475Y424043D01*
X239513Y424737D01*
X240207Y425775D01*
X240450Y427000D01*
X240244Y428038D01*
X240667Y428583D01*
X241212Y429006D01*
X242250Y428800D01*
X243288Y429006D01*
X243833Y428583D01*
X244256Y428038D01*
X244049Y427000D01*
X244293Y425775D01*
X244987Y424737D01*
X246025Y424043D01*
X247250Y423800D01*
X248475Y424043D01*
X249513Y424737D01*
X250207Y425775D01*
X250450Y427000D01*
X250244Y428038D01*
X250667Y428583D01*
X251212Y429006D01*
X252250Y428800D01*
X253475Y429043D01*
X254513Y429737D01*
X255207Y430775D01*
X255450Y432000D01*
X255207Y433225D01*
X254513Y434263D01*
X253475Y434957D01*
X252250Y435201D01*
D02*
G37*
G36*
X187250Y430200D02*
X186025Y429957D01*
X184987Y429263D01*
X184293Y428225D01*
X184049Y427000D01*
X184293Y425775D01*
X184987Y424737D01*
X186025Y424043D01*
X187250Y423800D01*
X188475Y424043D01*
X189513Y424737D01*
X190207Y425775D01*
X190450Y427000D01*
X190207Y428225D01*
X189513Y429263D01*
X188475Y429957D01*
X187250Y430200D01*
D02*
G37*
G36*
X141750Y419450D02*
X140525Y419207D01*
X139487Y418513D01*
X138793Y417475D01*
X138549Y416250D01*
X138793Y415025D01*
X139487Y413987D01*
X140525Y413293D01*
X141750Y413050D01*
X142975Y413293D01*
X144013Y413987D01*
X144707Y415025D01*
X144950Y416250D01*
X144707Y417475D01*
X144013Y418513D01*
X142975Y419207D01*
X141750Y419450D01*
D02*
G37*
G36*
X99750D02*
X98525Y419207D01*
X97487Y418513D01*
X96793Y417475D01*
X96550Y416250D01*
X96793Y415025D01*
X97487Y413987D01*
X98525Y413293D01*
X99750Y413050D01*
X100975Y413293D01*
X102013Y413987D01*
X102707Y415025D01*
X102950Y416250D01*
X102707Y417475D01*
X102013Y418513D01*
X100975Y419207D01*
X99750Y419450D01*
D02*
G37*
G36*
X82000Y419200D02*
X80775Y418957D01*
X79737Y418263D01*
X79043Y417225D01*
X78800Y416000D01*
X79043Y414775D01*
X79737Y413737D01*
X80775Y413043D01*
X82000Y412799D01*
X83225Y413043D01*
X84263Y413737D01*
X84957Y414775D01*
X85201Y416000D01*
X84957Y417225D01*
X84263Y418263D01*
X83225Y418957D01*
X82000Y419200D01*
D02*
G37*
G36*
X105250Y399950D02*
X104025Y399707D01*
X102987Y399013D01*
X102293Y397975D01*
X102050Y396750D01*
X102293Y395525D01*
X102987Y394487D01*
X104025Y393793D01*
X105250Y393549D01*
X106475Y393793D01*
X107513Y394487D01*
X108207Y395525D01*
X108450Y396750D01*
X108207Y397975D01*
X107513Y399013D01*
X106475Y399707D01*
X105250Y399950D01*
D02*
G37*
G36*
X71000Y398451D02*
X69775Y398207D01*
X68737Y397513D01*
X68043Y396475D01*
X67800Y395250D01*
X68043Y394025D01*
X68737Y392987D01*
X69775Y392293D01*
X71000Y392049D01*
X72225Y392293D01*
X73263Y392987D01*
X73957Y394025D01*
X74200Y395250D01*
X73957Y396475D01*
X73263Y397513D01*
X72225Y398207D01*
X71000Y398451D01*
D02*
G37*
G36*
X90000Y390451D02*
X88775Y390207D01*
X87737Y389513D01*
X87043Y388475D01*
X86799Y387250D01*
X87043Y386025D01*
X87737Y384987D01*
X88775Y384293D01*
X90000Y384049D01*
X91225Y384293D01*
X92263Y384987D01*
X92957Y386025D01*
X93201Y387250D01*
X92957Y388475D01*
X92263Y389513D01*
X91225Y390207D01*
X90000Y390451D01*
D02*
G37*
G36*
X8500Y390201D02*
X7275Y389957D01*
X6237Y389263D01*
X5543Y388225D01*
X5300Y387000D01*
X5543Y385775D01*
X6237Y384737D01*
X7275Y384043D01*
X8500Y383800D01*
X9725Y384043D01*
X10763Y384737D01*
X11457Y385775D01*
X11701Y387000D01*
X11457Y388225D01*
X10763Y389263D01*
X9725Y389957D01*
X8500Y390201D01*
D02*
G37*
G36*
X149000Y380951D02*
X147775Y380707D01*
X146737Y380013D01*
X146043Y378975D01*
X145800Y377750D01*
X146043Y376525D01*
X146737Y375487D01*
X147775Y374793D01*
X149000Y374549D01*
X150225Y374793D01*
X151263Y375487D01*
X151957Y376525D01*
X152200Y377750D01*
X151957Y378975D01*
X151263Y380013D01*
X150225Y380707D01*
X149000Y380951D01*
D02*
G37*
G36*
X105250D02*
X104025Y380707D01*
X102987Y380013D01*
X102293Y378975D01*
X102050Y377750D01*
X102293Y376525D01*
X102987Y375487D01*
X104025Y374793D01*
X105250Y374549D01*
X106475Y374793D01*
X107513Y375487D01*
X108207Y376525D01*
X108450Y377750D01*
X108207Y378975D01*
X107513Y380013D01*
X106475Y380707D01*
X105250Y380951D01*
D02*
G37*
G36*
X116500Y368955D02*
X111500D01*
X110178Y368692D01*
X109057Y367943D01*
X108308Y366822D01*
X108045Y365500D01*
Y360500D01*
X108308Y359178D01*
X109057Y358057D01*
X110178Y357308D01*
X111500Y357045D01*
X116500D01*
X117822Y357308D01*
X118943Y358057D01*
X119692Y359178D01*
X119955Y360500D01*
Y365500D01*
X119692Y366822D01*
X118943Y367943D01*
X117822Y368692D01*
X116500Y368955D01*
D02*
G37*
G36*
X257263Y339717D02*
X256038Y339473D01*
X255000Y338779D01*
X254306Y337741D01*
X254062Y336516D01*
X254306Y335292D01*
X255000Y334253D01*
X256038Y333560D01*
X257263Y333316D01*
X258487Y333560D01*
X259526Y334253D01*
X260219Y335292D01*
X260463Y336516D01*
X260219Y337741D01*
X259526Y338779D01*
X258487Y339473D01*
X257263Y339717D01*
D02*
G37*
G36*
X262500Y329450D02*
X261275Y329207D01*
X260237Y328513D01*
X259543Y327475D01*
X259300Y326250D01*
X259543Y325025D01*
X260237Y323987D01*
X261275Y323293D01*
X262500Y323050D01*
X263725Y323293D01*
X264763Y323987D01*
X265457Y325025D01*
X265700Y326250D01*
X265457Y327475D01*
X264763Y328513D01*
X263725Y329207D01*
X262500Y329450D01*
D02*
G37*
G36*
X267500Y319200D02*
X266275Y318957D01*
X265237Y318263D01*
X264543Y317225D01*
X264300Y316000D01*
X264543Y314775D01*
X265237Y313737D01*
X266275Y313043D01*
X267500Y312799D01*
X268725Y313043D01*
X269763Y313737D01*
X270457Y314775D01*
X270700Y316000D01*
X270457Y317225D01*
X269763Y318263D01*
X268725Y318957D01*
X267500Y319200D01*
D02*
G37*
G36*
X272500Y308951D02*
X271275Y308707D01*
X270237Y308013D01*
X269543Y306975D01*
X269300Y305750D01*
X269543Y304525D01*
X270237Y303487D01*
X271275Y302793D01*
X272500Y302549D01*
X273725Y302793D01*
X274763Y303487D01*
X275457Y304525D01*
X275700Y305750D01*
X275457Y306975D01*
X274763Y308013D01*
X273725Y308707D01*
X272500Y308951D01*
D02*
G37*
G36*
X277500Y298701D02*
X276275Y298457D01*
X275237Y297763D01*
X274543Y296725D01*
X274300Y295500D01*
X274543Y294275D01*
X275237Y293237D01*
X276275Y292543D01*
X277500Y292299D01*
X278725Y292543D01*
X279763Y293237D01*
X280457Y294275D01*
X280700Y295500D01*
X280457Y296725D01*
X279763Y297763D01*
X278725Y298457D01*
X277500Y298701D01*
D02*
G37*
G36*
X282552Y288502D02*
X281327Y288259D01*
X280289Y287565D01*
X279595Y286527D01*
X279351Y285302D01*
X279595Y284077D01*
X280289Y283039D01*
X281327Y282345D01*
X282552Y282101D01*
X283777Y282345D01*
X284815Y283039D01*
X285509Y284077D01*
X285752Y285302D01*
X285509Y286527D01*
X284815Y287565D01*
X283777Y288259D01*
X282552Y288502D01*
D02*
G37*
G36*
X287500Y278451D02*
X286275Y278207D01*
X285237Y277513D01*
X284543Y276475D01*
X284300Y275250D01*
X284543Y274025D01*
X285237Y272987D01*
X286275Y272293D01*
X287500Y272050D01*
X288725Y272293D01*
X289763Y272987D01*
X290457Y274025D01*
X290700Y275250D01*
X290457Y276475D01*
X289763Y277513D01*
X288725Y278207D01*
X287500Y278451D01*
D02*
G37*
G36*
X292500Y268200D02*
X291275Y267957D01*
X290237Y267263D01*
X289543Y266225D01*
X289300Y265000D01*
X289543Y263775D01*
X290237Y262737D01*
X291275Y262043D01*
X292500Y261800D01*
X293725Y262043D01*
X294763Y262737D01*
X295457Y263775D01*
X295700Y265000D01*
X295457Y266225D01*
X294763Y267263D01*
X293725Y267957D01*
X292500Y268200D01*
D02*
G37*
G36*
X132500Y139200D02*
X131275Y138957D01*
X130237Y138263D01*
X129543Y137225D01*
X129299Y136000D01*
X129543Y134775D01*
X130237Y133737D01*
X131275Y133043D01*
X132500Y132800D01*
X133725Y133043D01*
X134763Y133737D01*
X135457Y134775D01*
X135701Y136000D01*
X135457Y137225D01*
X134763Y138263D01*
X133725Y138957D01*
X132500Y139200D01*
D02*
G37*
G36*
Y128201D02*
X131275Y127957D01*
X130237Y127263D01*
X129543Y126225D01*
X129299Y125000D01*
X129543Y123775D01*
X130237Y122737D01*
X131275Y122043D01*
X132500Y121799D01*
X133725Y122043D01*
X134763Y122737D01*
X135457Y123775D01*
X135701Y125000D01*
X135457Y126225D01*
X134763Y127263D01*
X133725Y127957D01*
X132500Y128201D01*
D02*
G37*
G36*
X133000Y111201D02*
X131775Y110957D01*
X130737Y110263D01*
X130043Y109225D01*
X129799Y108000D01*
X130043Y106775D01*
X130737Y105737D01*
X131775Y105043D01*
X133000Y104799D01*
X134225Y105043D01*
X135263Y105737D01*
X135957Y106775D01*
X136201Y108000D01*
X135957Y109225D01*
X135263Y110263D01*
X134225Y110957D01*
X133000Y111201D01*
D02*
G37*
G36*
X272500Y111201D02*
X271275Y110957D01*
X270237Y110263D01*
X269543Y109225D01*
X269300Y108000D01*
X269543Y106775D01*
X270237Y105737D01*
X271275Y105043D01*
X272500Y104799D01*
X273725Y105043D01*
X274763Y105737D01*
X275457Y106775D01*
X275700Y108000D01*
X275457Y109225D01*
X274763Y110263D01*
X273725Y110957D01*
X272500Y111201D01*
D02*
G37*
G36*
X40250Y110700D02*
X39025Y110457D01*
X37987Y109763D01*
X37293Y108725D01*
X37050Y107500D01*
X37293Y106275D01*
X37987Y105237D01*
X39025Y104543D01*
X40250Y104299D01*
X41475Y104543D01*
X42513Y105237D01*
X43207Y106275D01*
X43450Y107500D01*
X43207Y108725D01*
X42513Y109763D01*
X41475Y110457D01*
X40250Y110700D01*
D02*
G37*
G36*
X87500Y110450D02*
X86275Y110207D01*
X85237Y109513D01*
X84543Y108475D01*
X84299Y107250D01*
X84543Y106025D01*
X85237Y104987D01*
X86275Y104293D01*
X87500Y104050D01*
X88725Y104293D01*
X89763Y104987D01*
X90457Y106025D01*
X90701Y107250D01*
X90457Y108475D01*
X89763Y109513D01*
X88725Y110207D01*
X87500Y110450D01*
D02*
G37*
G36*
X71750D02*
X70525Y110207D01*
X69487Y109513D01*
X68793Y108475D01*
X68549Y107250D01*
X68793Y106025D01*
X69487Y104987D01*
X70525Y104293D01*
X71750Y104050D01*
X72975Y104293D01*
X74013Y104987D01*
X74707Y106025D01*
X74950Y107250D01*
X74707Y108475D01*
X74013Y109513D01*
X72975Y110207D01*
X71750Y110450D01*
D02*
G37*
G36*
X56000D02*
X54775Y110207D01*
X53737Y109513D01*
X53043Y108475D01*
X52800Y107250D01*
X53043Y106025D01*
X53737Y104987D01*
X54775Y104293D01*
X56000Y104050D01*
X57225Y104293D01*
X58263Y104987D01*
X58957Y106025D01*
X59201Y107250D01*
X58957Y108475D01*
X58263Y109513D01*
X57225Y110207D01*
X56000Y110450D01*
D02*
G37*
G36*
X494750Y97200D02*
X493525Y96957D01*
X492487Y96263D01*
X491793Y95225D01*
X491549Y94000D01*
X491793Y92775D01*
X492487Y91737D01*
X493525Y91043D01*
X494750Y90800D01*
X495975Y91043D01*
X497013Y91737D01*
X497707Y92775D01*
X497950Y94000D01*
X497707Y95225D01*
X497013Y96263D01*
X495975Y96957D01*
X494750Y97200D01*
D02*
G37*
G36*
X405000D02*
X403775Y96957D01*
X402737Y96263D01*
X402043Y95225D01*
X401800Y94000D01*
X402043Y92775D01*
X402737Y91737D01*
X403775Y91043D01*
X405000Y90800D01*
X406225Y91043D01*
X407263Y91737D01*
X407957Y92775D01*
X408200Y94000D01*
X407957Y95225D01*
X407263Y96263D01*
X406225Y96957D01*
X405000Y97200D01*
D02*
G37*
G36*
X426000Y88951D02*
X424775Y88707D01*
X423995Y88186D01*
X324500D01*
X323568Y88000D01*
X322778Y87472D01*
X304695Y69390D01*
X303775Y69207D01*
X302737Y68513D01*
X302043Y67475D01*
X301800Y66250D01*
X302043Y65025D01*
X302737Y63987D01*
X303775Y63293D01*
X305000Y63050D01*
X306225Y63293D01*
X307263Y63987D01*
X307957Y65025D01*
X308140Y65945D01*
X325509Y83314D01*
X423995D01*
X424775Y82793D01*
X426000Y82549D01*
X427225Y82793D01*
X428263Y83487D01*
X428957Y84525D01*
X429201Y85750D01*
X428957Y86975D01*
X428263Y88013D01*
X427225Y88707D01*
X426000Y88951D01*
D02*
G37*
G36*
X476250Y88450D02*
X475025Y88207D01*
X473987Y87513D01*
X473293Y86475D01*
X473050Y85250D01*
X473293Y84025D01*
X473987Y82987D01*
X475025Y82293D01*
X476250Y82050D01*
X477475Y82293D01*
X478513Y82987D01*
X479207Y84025D01*
X479450Y85250D01*
X479207Y86475D01*
X478513Y87513D01*
X477475Y88207D01*
X476250Y88450D01*
D02*
G37*
G36*
X272500Y83701D02*
X271275Y83457D01*
X270237Y82763D01*
X269543Y81725D01*
X269300Y80500D01*
X269543Y79275D01*
X270237Y78237D01*
X271275Y77543D01*
X272500Y77299D01*
X273725Y77543D01*
X274763Y78237D01*
X275457Y79275D01*
X275700Y80500D01*
X275457Y81725D01*
X274763Y82763D01*
X273725Y83457D01*
X272500Y83701D01*
D02*
G37*
G36*
X87000Y83201D02*
X85775Y82957D01*
X84737Y82263D01*
X84043Y81225D01*
X83799Y80000D01*
X84043Y78775D01*
X84737Y77737D01*
X85775Y77043D01*
X87000Y76800D01*
X88225Y77043D01*
X89263Y77737D01*
X89957Y78775D01*
X90201Y80000D01*
X89957Y81225D01*
X89263Y82263D01*
X88225Y82957D01*
X87000Y83201D01*
D02*
G37*
G36*
X40250D02*
X39025Y82957D01*
X37987Y82263D01*
X37293Y81225D01*
X37050Y80000D01*
X37293Y78775D01*
X37987Y77737D01*
X39025Y77043D01*
X40250Y76800D01*
X41475Y77043D01*
X42513Y77737D01*
X43207Y78775D01*
X43450Y80000D01*
X43207Y81225D01*
X42513Y82263D01*
X41475Y82957D01*
X40250Y83201D01*
D02*
G37*
G36*
X97250Y80201D02*
X96025Y79957D01*
X94987Y79263D01*
X94293Y78225D01*
X94050Y77000D01*
X94293Y75775D01*
X94987Y74737D01*
X96025Y74043D01*
X97250Y73800D01*
X98475Y74043D01*
X99513Y74737D01*
X100207Y75775D01*
X100450Y77000D01*
X100207Y78225D01*
X99513Y79263D01*
X98475Y79957D01*
X97250Y80201D01*
D02*
G37*
G36*
X419000Y79201D02*
X417775Y78957D01*
X416737Y78263D01*
X416043Y77225D01*
X415799Y76000D01*
X416043Y74775D01*
X416737Y73737D01*
X417775Y73043D01*
X419000Y72800D01*
X420225Y73043D01*
X421263Y73737D01*
X421957Y74775D01*
X422200Y76000D01*
X421957Y77225D01*
X421263Y78263D01*
X420225Y78957D01*
X419000Y79201D01*
D02*
G37*
G36*
X391500D02*
X390275Y78957D01*
X389237Y78263D01*
X388543Y77225D01*
X388300Y76000D01*
X388543Y74775D01*
X389237Y73737D01*
X390275Y73043D01*
X391500Y72800D01*
X392725Y73043D01*
X393763Y73737D01*
X394457Y74775D01*
X394701Y76000D01*
X394457Y77225D01*
X393763Y78263D01*
X392725Y78957D01*
X391500Y79201D01*
D02*
G37*
G36*
X112500Y76200D02*
X111275Y75957D01*
X110237Y75263D01*
X109543Y74225D01*
X109299Y73000D01*
X109543Y71775D01*
X110237Y70737D01*
X111275Y70043D01*
X112500Y69799D01*
X113725Y70043D01*
X114537Y69058D01*
X114543Y69025D01*
X115237Y67987D01*
X116275Y67293D01*
X117500Y67049D01*
X118071Y67163D01*
X118890Y67054D01*
X119449Y66249D01*
X119543Y65775D01*
X120237Y64737D01*
X121275Y64043D01*
X122500Y63800D01*
X123725Y64043D01*
X124763Y64737D01*
X125457Y65775D01*
X125701Y67000D01*
X125457Y68225D01*
X124763Y69263D01*
X123725Y69957D01*
X122500Y70201D01*
X121929Y70087D01*
X121110Y70196D01*
X120551Y71000D01*
X120457Y71475D01*
X119763Y72513D01*
X118725Y73207D01*
X117500Y73450D01*
X116275Y73207D01*
X115463Y74192D01*
X115457Y74225D01*
X114763Y75263D01*
X113725Y75957D01*
X112500Y76200D01*
D02*
G37*
G36*
X287500Y69450D02*
X286275Y69207D01*
X285237Y68513D01*
X284543Y67475D01*
X284300Y66250D01*
X284543Y65025D01*
X285237Y63987D01*
X286275Y63293D01*
X287500Y63050D01*
X288725Y63293D01*
X289763Y63987D01*
X290457Y65025D01*
X290700Y66250D01*
X290457Y67475D01*
X289763Y68513D01*
X288725Y69207D01*
X287500Y69450D01*
D02*
G37*
G36*
X364250Y68700D02*
X363025Y68457D01*
X361987Y67763D01*
X361293Y66725D01*
X361049Y65500D01*
X361293Y64275D01*
X361987Y63237D01*
X363025Y62543D01*
X364250Y62299D01*
X365475Y62543D01*
X366513Y63237D01*
X367207Y64275D01*
X367450Y65500D01*
X367207Y66725D01*
X366513Y67763D01*
X365475Y68457D01*
X364250Y68700D01*
D02*
G37*
G36*
X379000Y62200D02*
X377775Y61957D01*
X376737Y61263D01*
X376043Y60225D01*
X375799Y59000D01*
X376043Y57775D01*
X376737Y56737D01*
X377775Y56043D01*
X379000Y55799D01*
X380225Y56043D01*
X381263Y56737D01*
X381957Y57775D01*
X382201Y59000D01*
X381957Y60225D01*
X381263Y61263D01*
X380225Y61957D01*
X379000Y62200D01*
D02*
G37*
G36*
X44252Y61453D02*
X43027Y61210D01*
X41989Y60516D01*
X41295Y59478D01*
X41052Y58253D01*
X41295Y57028D01*
X41989Y55990D01*
X43027Y55296D01*
X44252Y55052D01*
X45477Y55296D01*
X46515Y55990D01*
X47209Y57028D01*
X47453Y58253D01*
X47209Y59478D01*
X46515Y60516D01*
X45477Y61210D01*
X44252Y61453D01*
D02*
G37*
G36*
X436750Y97200D02*
X435525Y96957D01*
X434487Y96263D01*
X433793Y95225D01*
X433549Y94000D01*
X433793Y92775D01*
X434314Y91995D01*
Y63759D01*
X424195Y53640D01*
X423275Y53457D01*
X422237Y52763D01*
X421543Y51725D01*
X421300Y50500D01*
X421543Y49275D01*
X422237Y48237D01*
X423275Y47543D01*
X424500Y47299D01*
X425725Y47543D01*
X426763Y48237D01*
X427457Y49275D01*
X427640Y50195D01*
X438472Y61028D01*
X439000Y61818D01*
X439186Y62750D01*
Y91995D01*
X439707Y92775D01*
X439950Y94000D01*
X439707Y95225D01*
X439013Y96263D01*
X437975Y96957D01*
X436750Y97200D01*
D02*
G37*
G36*
X109755Y47953D02*
X108531Y47709D01*
X107492Y47015D01*
X106798Y45977D01*
X106555Y44752D01*
X106798Y43527D01*
X107492Y42489D01*
X108531Y41795D01*
X109755Y41552D01*
X110980Y41795D01*
X112018Y42489D01*
X112712Y43527D01*
X112956Y44752D01*
X112712Y45977D01*
X112018Y47015D01*
X110980Y47709D01*
X109755Y47953D01*
D02*
G37*
G36*
X132500Y47450D02*
X131275Y47207D01*
X130237Y46513D01*
X129543Y45475D01*
X129299Y44250D01*
X129543Y43025D01*
X130237Y41987D01*
X131275Y41293D01*
X132500Y41049D01*
X133725Y41293D01*
X134763Y41987D01*
X135457Y43025D01*
X135701Y44250D01*
X135457Y45475D01*
X134763Y46513D01*
X133725Y47207D01*
X132500Y47450D01*
D02*
G37*
G36*
X476250Y46451D02*
X475025Y46207D01*
X473987Y45513D01*
X473293Y44475D01*
X473050Y43250D01*
X473293Y42025D01*
X473987Y40987D01*
X475025Y40293D01*
X476250Y40050D01*
X477475Y40293D01*
X478513Y40987D01*
X479207Y42025D01*
X479450Y43250D01*
X479207Y44475D01*
X478513Y45513D01*
X477475Y46207D01*
X476250Y46451D01*
D02*
G37*
G36*
X452500Y46451D02*
X451275Y46207D01*
X450237Y45513D01*
X449543Y44475D01*
X449300Y43250D01*
X449543Y42025D01*
X450237Y40987D01*
X451275Y40293D01*
X452500Y40050D01*
X453725Y40293D01*
X454763Y40987D01*
X455457Y42025D01*
X455700Y43250D01*
X455457Y44475D01*
X454763Y45513D01*
X453725Y46207D01*
X452500Y46451D01*
D02*
G37*
G36*
X476250Y36951D02*
X475025Y36707D01*
X473987Y36013D01*
X473293Y34975D01*
X473050Y33750D01*
X473293Y32525D01*
X473987Y31487D01*
X475025Y30793D01*
X476250Y30549D01*
X477475Y30793D01*
X478513Y31487D01*
X479207Y32525D01*
X479450Y33750D01*
X479207Y34975D01*
X478513Y36013D01*
X477475Y36707D01*
X476250Y36951D01*
D02*
G37*
G36*
X488000Y35450D02*
X486775Y35207D01*
X485737Y34513D01*
X485043Y33475D01*
X484799Y32250D01*
X485043Y31025D01*
X485737Y29987D01*
X486775Y29293D01*
X488000Y29050D01*
X489225Y29293D01*
X490263Y29987D01*
X490957Y31025D01*
X491200Y32250D01*
X490957Y33475D01*
X490263Y34513D01*
X489225Y35207D01*
X488000Y35450D01*
D02*
G37*
G36*
X92750Y19700D02*
X91525Y19457D01*
X90487Y18763D01*
X89793Y17725D01*
X89550Y16500D01*
X89793Y15275D01*
X90487Y14237D01*
X91525Y13543D01*
X92750Y13299D01*
X93975Y13543D01*
X95013Y14237D01*
X95707Y15275D01*
X95950Y16500D01*
X95707Y17725D01*
X95013Y18763D01*
X93975Y19457D01*
X92750Y19700D01*
D02*
G37*
G36*
X295000Y44950D02*
X293775Y44707D01*
X292737Y44013D01*
X292043Y42975D01*
X291800Y41750D01*
X292043Y40525D01*
X292737Y39487D01*
X293775Y38793D01*
X294695Y38610D01*
X321778Y11528D01*
X322568Y11000D01*
X323500Y10814D01*
X451995D01*
X452775Y10293D01*
X454000Y10050D01*
X455225Y10293D01*
X456263Y10987D01*
X456957Y12025D01*
X457201Y13250D01*
X456957Y14475D01*
X456263Y15513D01*
X455225Y16207D01*
X454000Y16451D01*
X452775Y16207D01*
X451995Y15686D01*
X324509D01*
X298140Y42055D01*
X297957Y42975D01*
X297263Y44013D01*
X296225Y44707D01*
X295000Y44950D01*
D02*
G37*
G36*
X464500Y16200D02*
X463275Y15957D01*
X462237Y15263D01*
X461543Y14225D01*
X461300Y13000D01*
X461543Y11775D01*
X462237Y10737D01*
X463275Y10043D01*
X464500Y9800D01*
X465725Y10043D01*
X466763Y10737D01*
X467457Y11775D01*
X467701Y13000D01*
X467457Y14225D01*
X466763Y15263D01*
X465725Y15957D01*
X464500Y16200D01*
D02*
G37*
G36*
X9000Y13951D02*
X7775Y13707D01*
X6737Y13013D01*
X6043Y11975D01*
X5799Y10750D01*
X6043Y9525D01*
X6737Y8487D01*
X7775Y7793D01*
X9000Y7549D01*
X10225Y7793D01*
X11263Y8487D01*
X11957Y9525D01*
X12200Y10750D01*
X11957Y11975D01*
X11263Y13013D01*
X10225Y13707D01*
X9000Y13951D01*
D02*
G37*
G36*
X24000Y11951D02*
X22775Y11707D01*
X21737Y11013D01*
X21043Y9975D01*
X20800Y8750D01*
X21043Y7525D01*
X21737Y6487D01*
X22775Y5793D01*
X24000Y5549D01*
X25225Y5793D01*
X26263Y6487D01*
X26957Y7525D01*
X27201Y8750D01*
X26957Y9975D01*
X26263Y11013D01*
X25225Y11707D01*
X24000Y11951D01*
D02*
G37*
%LPD*%
D11*
X21500Y110000D02*
X21500Y110000D01*
X21500Y110000D02*
Y455250D01*
X62250Y496000D01*
X401500D01*
X406750Y490750D01*
D53*
X16250Y62750D02*
Y112940D01*
X16250Y456750D02*
X45750Y486250D01*
X16250Y456750D02*
X16250Y112940D01*
X9000Y55500D02*
X16250Y62750D01*
X31000Y446250D02*
X72000Y487250D01*
X31000Y195250D02*
Y446250D01*
X121189Y468189D02*
X347250D01*
X59000Y406000D02*
X121189Y468189D01*
X59000Y384000D02*
Y406000D01*
X31000Y195250D02*
X119000Y107250D01*
X324500Y85750D02*
X426000D01*
X305000Y66250D02*
X324500Y85750D01*
X493250Y459750D02*
Y469500D01*
X461250Y427750D02*
X493250Y459750D01*
X295000Y41750D02*
X323500Y13250D01*
X454000D01*
X436750Y62750D02*
Y94000D01*
X424500Y50500D02*
X436750Y62750D01*
X67861Y492611D02*
X396389D01*
X26139Y450889D02*
X67861Y492611D01*
X26139Y450889D02*
X26139Y111922D01*
X47391Y38500D02*
X102500D01*
X26139Y59752D02*
X47391Y38500D01*
X26139Y59752D02*
Y111922D01*
X396389Y492611D02*
X461250Y427750D01*
D54*
X128500Y363000D02*
D03*
D55*
X388750Y52500D02*
D03*
X34000Y121250D02*
D03*
X21500Y110000D02*
D03*
X368375Y94132D02*
D03*
X59000Y384000D02*
D03*
X132500Y130500D02*
D03*
Y119500D02*
D03*
X280000Y66250D02*
D03*
X454000Y13250D02*
D03*
X295000Y41750D02*
D03*
X305000Y66250D02*
D03*
X426000Y85750D02*
D03*
X436750Y94000D02*
D03*
X424500Y50500D02*
D03*
X347250Y468189D02*
D03*
X102500Y38500D02*
D03*
X71750Y79750D02*
D03*
X103250Y107000D02*
D03*
X56000Y80000D02*
D03*
X21500Y455250D02*
D03*
X72000Y487250D02*
D03*
X406750Y490750D02*
D03*
X119000Y107250D02*
D03*
X493250Y469500D02*
D03*
X461250Y427750D02*
D03*
X9000Y55500D02*
D03*
X45750Y486250D02*
D03*
X149250Y393500D02*
D03*
M02*
