G04*
G04 #@! TF.GenerationSoftware,Altium Limited,Altium Designer,19.0.11 (319)*
G04*
G04 Layer_Physical_Order=3*
G04 Layer_Color=16440176*
%FSLAX44Y44*%
%MOMM*%
G71*
G01*
G75*
G04:AMPARAMS|DCode=54|XSize=1mm|YSize=1mm|CornerRadius=0.25mm|HoleSize=0mm|Usage=FLASHONLY|Rotation=0.000|XOffset=0mm|YOffset=0mm|HoleType=Round|Shape=RoundedRectangle|*
%AMROUNDEDRECTD54*
21,1,1.0000,0.5000,0,0,0.0*
21,1,0.5000,1.0000,0,0,0.0*
1,1,0.5000,0.2500,-0.2500*
1,1,0.5000,-0.2500,-0.2500*
1,1,0.5000,-0.2500,0.2500*
1,1,0.5000,0.2500,0.2500*
%
%ADD54ROUNDEDRECTD54*%
%ADD55C,0.4500*%
G36*
X500000Y105962D02*
X402500Y105962D01*
X401820Y105680D01*
X401538Y105000D01*
X401538Y0D01*
X0D01*
X-0Y500000D01*
X500000Y500000D01*
Y105962D01*
D02*
G37*
G36*
X500000Y-0D02*
X402500Y-0D01*
X402500Y105000D01*
X500000Y105000D01*
X500000Y-0D01*
D02*
G37*
%LPC*%
G36*
X406750Y493951D02*
X405525Y493707D01*
X404487Y493013D01*
X403793Y491975D01*
X403549Y490750D01*
X403793Y489525D01*
X404487Y488487D01*
X405525Y487793D01*
X406750Y487550D01*
X407975Y487793D01*
X409013Y488487D01*
X409707Y489525D01*
X409950Y490750D01*
X409707Y491975D01*
X409013Y493013D01*
X407975Y493707D01*
X406750Y493951D01*
D02*
G37*
G36*
X72000Y490451D02*
X70775Y490207D01*
X69737Y489513D01*
X69043Y488475D01*
X68800Y487250D01*
X69043Y486025D01*
X69737Y484987D01*
X70775Y484293D01*
X72000Y484049D01*
X73225Y484293D01*
X74263Y484987D01*
X74957Y486025D01*
X75201Y487250D01*
X74957Y488475D01*
X74263Y489513D01*
X73225Y490207D01*
X72000Y490451D01*
D02*
G37*
G36*
X45750Y489450D02*
X44525Y489207D01*
X43487Y488513D01*
X42793Y487475D01*
X42550Y486250D01*
X42793Y485025D01*
X43487Y483987D01*
X44525Y483293D01*
X45750Y483050D01*
X46975Y483293D01*
X48013Y483987D01*
X48707Y485025D01*
X48951Y486250D01*
X48707Y487475D01*
X48013Y488513D01*
X46975Y489207D01*
X45750Y489450D01*
D02*
G37*
G36*
X493250Y472701D02*
X492025Y472457D01*
X490987Y471763D01*
X490293Y470725D01*
X490050Y469500D01*
X490293Y468275D01*
X490987Y467237D01*
X492025Y466543D01*
X493250Y466300D01*
X494475Y466543D01*
X495513Y467237D01*
X496207Y468275D01*
X496451Y469500D01*
X496207Y470725D01*
X495513Y471763D01*
X494475Y472457D01*
X493250Y472701D01*
D02*
G37*
G36*
X347250Y471390D02*
X346025Y471146D01*
X344987Y470452D01*
X344293Y469414D01*
X344049Y468189D01*
X344293Y466965D01*
X344987Y465926D01*
X346025Y465233D01*
X347250Y464989D01*
X348475Y465233D01*
X349513Y465926D01*
X350207Y466965D01*
X350451Y468189D01*
X350207Y469414D01*
X349513Y470452D01*
X348475Y471146D01*
X347250Y471390D01*
D02*
G37*
G36*
X21500Y458451D02*
X20275Y458207D01*
X19237Y457513D01*
X18543Y456475D01*
X18299Y455250D01*
X18543Y454025D01*
X19237Y452987D01*
X20275Y452293D01*
X21500Y452049D01*
X22725Y452293D01*
X23763Y452987D01*
X24457Y454025D01*
X24701Y455250D01*
X24457Y456475D01*
X23763Y457513D01*
X22725Y458207D01*
X21500Y458451D01*
D02*
G37*
G36*
X342250Y435201D02*
X341025Y434957D01*
X339987Y434263D01*
X339293Y433225D01*
X339049Y432000D01*
X339256Y430962D01*
X338833Y430418D01*
X338288Y429994D01*
X337250Y430201D01*
X336212Y429994D01*
X335667Y430417D01*
X335244Y430962D01*
X335451Y432000D01*
X335207Y433225D01*
X334513Y434263D01*
X333475Y434957D01*
X332250Y435201D01*
X331025Y434957D01*
X329987Y434263D01*
X329293Y433225D01*
X329049Y432000D01*
X329256Y430962D01*
X328833Y430418D01*
X328288Y429994D01*
X327250Y430201D01*
X326212Y429994D01*
X325667Y430417D01*
X325244Y430962D01*
X325451Y432000D01*
X325207Y433225D01*
X324513Y434263D01*
X323475Y434957D01*
X322250Y435201D01*
X321025Y434957D01*
X319987Y434263D01*
X319293Y433225D01*
X319049Y432000D01*
X319256Y430962D01*
X318833Y430418D01*
X318288Y429994D01*
X317250Y430201D01*
X316212Y429994D01*
X315667Y430417D01*
X315244Y430962D01*
X315450Y432000D01*
X315207Y433225D01*
X314513Y434263D01*
X313475Y434957D01*
X312250Y435201D01*
X311025Y434957D01*
X309987Y434263D01*
X309293Y433225D01*
X309049Y432000D01*
X309256Y430962D01*
X308833Y430417D01*
X308288Y429994D01*
X307250Y430200D01*
X306025Y429957D01*
X304987Y429263D01*
X304293Y428225D01*
X304050Y427000D01*
X304293Y425775D01*
X304987Y424737D01*
X306025Y424043D01*
X307250Y423800D01*
X308475Y424043D01*
X309513Y424737D01*
X310207Y425775D01*
X310450Y427000D01*
X310244Y428038D01*
X310667Y428582D01*
X311212Y429006D01*
X312250Y428800D01*
X313288Y429006D01*
X313833Y428583D01*
X314256Y428038D01*
X314049Y427000D01*
X314293Y425775D01*
X314987Y424737D01*
X316025Y424043D01*
X317250Y423800D01*
X318475Y424043D01*
X319513Y424737D01*
X320207Y425775D01*
X320451Y427000D01*
X320244Y428038D01*
X320667Y428583D01*
X321212Y429006D01*
X322250Y428800D01*
X323288Y429006D01*
X323833Y428583D01*
X324256Y428038D01*
X324049Y427000D01*
X324293Y425775D01*
X324987Y424737D01*
X326025Y424043D01*
X327250Y423800D01*
X328475Y424043D01*
X329513Y424737D01*
X330207Y425775D01*
X330451Y427000D01*
X330244Y428038D01*
X330667Y428583D01*
X331212Y429006D01*
X332250Y428800D01*
X333288Y429006D01*
X333833Y428583D01*
X334256Y428038D01*
X334049Y427000D01*
X334293Y425775D01*
X334987Y424737D01*
X336025Y424043D01*
X337250Y423800D01*
X338475Y424043D01*
X339513Y424737D01*
X340207Y425775D01*
X340451Y427000D01*
X340244Y428038D01*
X340667Y428583D01*
X341212Y429006D01*
X342250Y428800D01*
X343475Y429043D01*
X344513Y429737D01*
X345207Y430775D01*
X345451Y432000D01*
X345207Y433225D01*
X344513Y434263D01*
X343475Y434957D01*
X342250Y435201D01*
D02*
G37*
G36*
X297250D02*
X296025Y434957D01*
X294987Y434263D01*
X294293Y433225D01*
X294049Y432000D01*
X294256Y430962D01*
X293833Y430418D01*
X293288Y429994D01*
X292250Y430201D01*
X291212Y429994D01*
X290667Y430417D01*
X290244Y430962D01*
X290450Y432000D01*
X290207Y433225D01*
X289513Y434263D01*
X288475Y434957D01*
X287250Y435201D01*
X286025Y434957D01*
X284987Y434263D01*
X284293Y433225D01*
X284049Y432000D01*
X284256Y430962D01*
X283833Y430418D01*
X283288Y429994D01*
X282250Y430201D01*
X281212Y429994D01*
X280667Y430417D01*
X280244Y430962D01*
X280450Y432000D01*
X280207Y433225D01*
X279513Y434263D01*
X278475Y434957D01*
X277250Y435201D01*
X276025Y434957D01*
X274987Y434263D01*
X274293Y433225D01*
X274049Y432000D01*
X274256Y430962D01*
X273833Y430418D01*
X273288Y429994D01*
X272250Y430201D01*
X271212Y429994D01*
X270667Y430417D01*
X270244Y430962D01*
X270450Y432000D01*
X270207Y433225D01*
X269513Y434263D01*
X268475Y434957D01*
X267250Y435201D01*
X266025Y434957D01*
X264987Y434263D01*
X264293Y433225D01*
X264049Y432000D01*
X264256Y430962D01*
X263833Y430417D01*
X263288Y429994D01*
X262250Y430200D01*
X261025Y429957D01*
X259987Y429263D01*
X259293Y428225D01*
X259049Y427000D01*
X259293Y425775D01*
X259987Y424737D01*
X261025Y424043D01*
X262250Y423800D01*
X263475Y424043D01*
X264513Y424737D01*
X265207Y425775D01*
X265450Y427000D01*
X265244Y428038D01*
X265667Y428582D01*
X266212Y429006D01*
X267250Y428800D01*
X268288Y429006D01*
X268833Y428583D01*
X269256Y428038D01*
X269049Y427000D01*
X269293Y425775D01*
X269987Y424737D01*
X271025Y424043D01*
X272250Y423800D01*
X273475Y424043D01*
X274513Y424737D01*
X275207Y425775D01*
X275450Y427000D01*
X275244Y428038D01*
X275667Y428583D01*
X276212Y429006D01*
X277250Y428800D01*
X278288Y429006D01*
X278833Y428583D01*
X279256Y428038D01*
X279049Y427000D01*
X279293Y425775D01*
X279987Y424737D01*
X281025Y424043D01*
X282250Y423800D01*
X283475Y424043D01*
X284513Y424737D01*
X285207Y425775D01*
X285450Y427000D01*
X285244Y428038D01*
X285667Y428583D01*
X286212Y429006D01*
X287250Y428800D01*
X288288Y429006D01*
X288833Y428583D01*
X289256Y428038D01*
X289049Y427000D01*
X289293Y425775D01*
X289987Y424737D01*
X291025Y424043D01*
X292250Y423800D01*
X293475Y424043D01*
X294513Y424737D01*
X295207Y425775D01*
X295450Y427000D01*
X295244Y428038D01*
X295667Y428583D01*
X296212Y429006D01*
X297250Y428800D01*
X298475Y429043D01*
X299513Y429737D01*
X300207Y430775D01*
X300450Y432000D01*
X300207Y433225D01*
X299513Y434263D01*
X298475Y434957D01*
X297250Y435201D01*
D02*
G37*
G36*
X252250D02*
X251025Y434957D01*
X249987Y434263D01*
X249293Y433225D01*
X249049Y432000D01*
X249256Y430962D01*
X248833Y430418D01*
X248288Y429994D01*
X247250Y430201D01*
X246212Y429994D01*
X245667Y430417D01*
X245244Y430962D01*
X245450Y432000D01*
X245207Y433225D01*
X244513Y434263D01*
X243475Y434957D01*
X242250Y435201D01*
X241025Y434957D01*
X239987Y434263D01*
X239293Y433225D01*
X239049Y432000D01*
X239256Y430962D01*
X238833Y430418D01*
X238288Y429994D01*
X237250Y430201D01*
X236212Y429994D01*
X235667Y430417D01*
X235244Y430962D01*
X235450Y432000D01*
X235207Y433225D01*
X234513Y434263D01*
X233475Y434957D01*
X232250Y435201D01*
X231025Y434957D01*
X229987Y434263D01*
X229293Y433225D01*
X229049Y432000D01*
X229256Y430962D01*
X228833Y430418D01*
X228288Y429994D01*
X227250Y430201D01*
X226212Y429994D01*
X225667Y430417D01*
X225244Y430962D01*
X225450Y432000D01*
X225207Y433225D01*
X224513Y434263D01*
X223475Y434957D01*
X222250Y435201D01*
X221025Y434957D01*
X219987Y434263D01*
X219293Y433225D01*
X219049Y432000D01*
X219256Y430962D01*
X218833Y430417D01*
X218288Y429994D01*
X217250Y430200D01*
X216025Y429957D01*
X214987Y429263D01*
X214293Y428225D01*
X214049Y427000D01*
X214293Y425775D01*
X214987Y424737D01*
X216025Y424043D01*
X217250Y423800D01*
X218475Y424043D01*
X219513Y424737D01*
X220207Y425775D01*
X220450Y427000D01*
X220244Y428038D01*
X220667Y428582D01*
X221212Y429006D01*
X222250Y428800D01*
X223288Y429006D01*
X223833Y428583D01*
X224256Y428038D01*
X224049Y427000D01*
X224293Y425775D01*
X224987Y424737D01*
X226025Y424043D01*
X227250Y423800D01*
X228475Y424043D01*
X229513Y424737D01*
X230207Y425775D01*
X230450Y427000D01*
X230244Y428038D01*
X230667Y428583D01*
X231212Y429006D01*
X232250Y428800D01*
X233288Y429006D01*
X233833Y428583D01*
X234256Y428038D01*
X234049Y427000D01*
X234293Y425775D01*
X234987Y424737D01*
X236025Y424043D01*
X237250Y423800D01*
X238475Y424043D01*
X239513Y424737D01*
X240207Y425775D01*
X240450Y427000D01*
X240244Y428038D01*
X240667Y428583D01*
X241212Y429006D01*
X242250Y428800D01*
X243288Y429006D01*
X243833Y428583D01*
X244256Y428038D01*
X244049Y427000D01*
X244293Y425775D01*
X244987Y424737D01*
X246025Y424043D01*
X247250Y423800D01*
X248475Y424043D01*
X249513Y424737D01*
X250207Y425775D01*
X250450Y427000D01*
X250244Y428038D01*
X250667Y428583D01*
X251212Y429006D01*
X252250Y428800D01*
X253475Y429043D01*
X254513Y429737D01*
X255207Y430775D01*
X255450Y432000D01*
X255207Y433225D01*
X254513Y434263D01*
X253475Y434957D01*
X252250Y435201D01*
D02*
G37*
G36*
X461250Y430951D02*
X460025Y430707D01*
X458987Y430013D01*
X458293Y428975D01*
X458050Y427750D01*
X458293Y426525D01*
X458987Y425487D01*
X460025Y424793D01*
X461250Y424549D01*
X462475Y424793D01*
X463513Y425487D01*
X464207Y426525D01*
X464450Y427750D01*
X464207Y428975D01*
X463513Y430013D01*
X462475Y430707D01*
X461250Y430951D01*
D02*
G37*
G36*
X202250Y435201D02*
X201025Y434957D01*
X199987Y434263D01*
X199293Y433225D01*
X199049Y432000D01*
X199293Y430775D01*
X199987Y429737D01*
X201025Y429043D01*
X202250Y428800D01*
X203288Y429006D01*
X203833Y428583D01*
X204256Y428038D01*
X204049Y427000D01*
X204293Y425775D01*
X204987Y424737D01*
X206025Y424043D01*
X207250Y423800D01*
X208475Y424043D01*
X209513Y424737D01*
X210207Y425775D01*
X210450Y427000D01*
X210207Y428225D01*
X209513Y429263D01*
X208475Y429957D01*
X207250Y430200D01*
X206212Y429994D01*
X205667Y430417D01*
X205244Y430962D01*
X205450Y432000D01*
X205207Y433225D01*
X204513Y434263D01*
X203475Y434957D01*
X202250Y435201D01*
D02*
G37*
G36*
X149250Y396701D02*
X148025Y396457D01*
X146987Y395763D01*
X146293Y394725D01*
X146049Y393500D01*
X146293Y392275D01*
X146987Y391237D01*
X148025Y390543D01*
X149250Y390299D01*
X150475Y390543D01*
X151513Y391237D01*
X152207Y392275D01*
X152451Y393500D01*
X152207Y394725D01*
X151513Y395763D01*
X150475Y396457D01*
X149250Y396701D01*
D02*
G37*
G36*
X59000Y387201D02*
X57775Y386957D01*
X56737Y386263D01*
X56043Y385225D01*
X55799Y384000D01*
X56043Y382775D01*
X56737Y381737D01*
X57775Y381043D01*
X59000Y380799D01*
X60225Y381043D01*
X61263Y381737D01*
X61957Y382775D01*
X62200Y384000D01*
X61957Y385225D01*
X61263Y386263D01*
X60225Y386957D01*
X59000Y387201D01*
D02*
G37*
G36*
X131000Y368955D02*
X126000D01*
X124678Y368692D01*
X123557Y367943D01*
X122808Y366822D01*
X122545Y365500D01*
Y360500D01*
X122808Y359178D01*
X123557Y358057D01*
X124678Y357308D01*
X126000Y357045D01*
X131000D01*
X132322Y357308D01*
X133443Y358057D01*
X134192Y359178D01*
X134455Y360500D01*
Y365500D01*
X134192Y366822D01*
X133443Y367943D01*
X132322Y368692D01*
X131000Y368955D01*
D02*
G37*
G36*
X257263Y339717D02*
X256038Y339473D01*
X255000Y338779D01*
X254306Y337741D01*
X254062Y336516D01*
X254306Y335292D01*
X255000Y334253D01*
X256038Y333560D01*
X257263Y333316D01*
X258487Y333560D01*
X259526Y334253D01*
X260219Y335292D01*
X260463Y336516D01*
X260219Y337741D01*
X259526Y338779D01*
X258487Y339473D01*
X257263Y339717D01*
D02*
G37*
G36*
X262500Y329450D02*
X261275Y329207D01*
X260237Y328513D01*
X259543Y327475D01*
X259300Y326250D01*
X259543Y325025D01*
X260237Y323987D01*
X261275Y323293D01*
X262500Y323050D01*
X263725Y323293D01*
X264763Y323987D01*
X265457Y325025D01*
X265700Y326250D01*
X265457Y327475D01*
X264763Y328513D01*
X263725Y329207D01*
X262500Y329450D01*
D02*
G37*
G36*
X267500Y319200D02*
X266275Y318957D01*
X265237Y318263D01*
X264543Y317225D01*
X264300Y316000D01*
X264543Y314775D01*
X265237Y313737D01*
X266275Y313043D01*
X267500Y312799D01*
X268725Y313043D01*
X269763Y313737D01*
X270457Y314775D01*
X270700Y316000D01*
X270457Y317225D01*
X269763Y318263D01*
X268725Y318957D01*
X267500Y319200D01*
D02*
G37*
G36*
X272500Y308951D02*
X271275Y308707D01*
X270237Y308013D01*
X269543Y306975D01*
X269300Y305750D01*
X269543Y304525D01*
X270237Y303487D01*
X271275Y302793D01*
X272500Y302549D01*
X273725Y302793D01*
X274763Y303487D01*
X275457Y304525D01*
X275700Y305750D01*
X275457Y306975D01*
X274763Y308013D01*
X273725Y308707D01*
X272500Y308951D01*
D02*
G37*
G36*
X277500Y298701D02*
X276275Y298457D01*
X275237Y297763D01*
X274543Y296725D01*
X274300Y295500D01*
X274543Y294275D01*
X275237Y293237D01*
X276275Y292543D01*
X277500Y292299D01*
X278725Y292543D01*
X279763Y293237D01*
X280457Y294275D01*
X280700Y295500D01*
X280457Y296725D01*
X279763Y297763D01*
X278725Y298457D01*
X277500Y298701D01*
D02*
G37*
G36*
X282552Y288502D02*
X281327Y288259D01*
X280289Y287565D01*
X279595Y286527D01*
X279351Y285302D01*
X279595Y284077D01*
X280289Y283039D01*
X281327Y282345D01*
X282552Y282101D01*
X283777Y282345D01*
X284815Y283039D01*
X285509Y284077D01*
X285752Y285302D01*
X285509Y286527D01*
X284815Y287565D01*
X283777Y288259D01*
X282552Y288502D01*
D02*
G37*
G36*
X287500Y278451D02*
X286275Y278207D01*
X285237Y277513D01*
X284543Y276475D01*
X284300Y275250D01*
X284543Y274025D01*
X285237Y272987D01*
X286275Y272293D01*
X287500Y272050D01*
X288725Y272293D01*
X289763Y272987D01*
X290457Y274025D01*
X290700Y275250D01*
X290457Y276475D01*
X289763Y277513D01*
X288725Y278207D01*
X287500Y278451D01*
D02*
G37*
G36*
X292500Y268200D02*
X291275Y267957D01*
X290237Y267263D01*
X289543Y266225D01*
X289300Y265000D01*
X289543Y263775D01*
X290237Y262737D01*
X291275Y262043D01*
X292500Y261800D01*
X293725Y262043D01*
X294763Y262737D01*
X295457Y263775D01*
X295700Y265000D01*
X295457Y266225D01*
X294763Y267263D01*
X293725Y267957D01*
X292500Y268200D01*
D02*
G37*
G36*
X132500Y133701D02*
X131275Y133457D01*
X130237Y132763D01*
X129543Y131725D01*
X129299Y130500D01*
X129543Y129275D01*
X130237Y128237D01*
X131275Y127543D01*
X132500Y127299D01*
X133725Y127543D01*
X134763Y128237D01*
X135457Y129275D01*
X135701Y130500D01*
X135457Y131725D01*
X134763Y132763D01*
X133725Y133457D01*
X132500Y133701D01*
D02*
G37*
G36*
X34000Y124451D02*
X32775Y124207D01*
X31737Y123513D01*
X31043Y122475D01*
X30800Y121250D01*
X31043Y120025D01*
X31737Y118987D01*
X32775Y118293D01*
X34000Y118049D01*
X35225Y118293D01*
X36263Y118987D01*
X36957Y120025D01*
X37201Y121250D01*
X36957Y122475D01*
X36263Y123513D01*
X35225Y124207D01*
X34000Y124451D01*
D02*
G37*
G36*
X132500Y122701D02*
X131275Y122457D01*
X130237Y121763D01*
X129543Y120725D01*
X129299Y119500D01*
X129543Y118275D01*
X130237Y117237D01*
X131275Y116543D01*
X132500Y116299D01*
X133725Y116543D01*
X134763Y117237D01*
X135457Y118275D01*
X135701Y119500D01*
X135457Y120725D01*
X134763Y121763D01*
X133725Y122457D01*
X132500Y122701D01*
D02*
G37*
G36*
X21500Y113201D02*
X20275Y112957D01*
X19237Y112263D01*
X18543Y111225D01*
X18299Y110000D01*
X18543Y108775D01*
X19237Y107737D01*
X20275Y107043D01*
X21500Y106799D01*
X22725Y107043D01*
X23763Y107737D01*
X24457Y108775D01*
X24701Y110000D01*
X24457Y111225D01*
X23763Y112263D01*
X22725Y112957D01*
X21500Y113201D01*
D02*
G37*
G36*
X119000Y110450D02*
X117775Y110207D01*
X116737Y109513D01*
X116043Y108475D01*
X115800Y107250D01*
X116043Y106025D01*
X116737Y104987D01*
X117775Y104293D01*
X119000Y104050D01*
X120225Y104293D01*
X121263Y104987D01*
X121957Y106025D01*
X122200Y107250D01*
X121957Y108475D01*
X121263Y109513D01*
X120225Y110207D01*
X119000Y110450D01*
D02*
G37*
G36*
X103250Y110200D02*
X102025Y109957D01*
X100987Y109263D01*
X100293Y108225D01*
X100049Y107000D01*
X100293Y105775D01*
X100987Y104737D01*
X102025Y104043D01*
X103250Y103799D01*
X104475Y104043D01*
X105513Y104737D01*
X106207Y105775D01*
X106451Y107000D01*
X106207Y108225D01*
X105513Y109263D01*
X104475Y109957D01*
X103250Y110200D01*
D02*
G37*
G36*
X368375Y97333D02*
X367150Y97089D01*
X366112Y96396D01*
X365418Y95357D01*
X365174Y94132D01*
X365418Y92908D01*
X366112Y91869D01*
X367150Y91175D01*
X368375Y90932D01*
X369600Y91175D01*
X370638Y91869D01*
X371332Y92908D01*
X371576Y94132D01*
X371332Y95357D01*
X370638Y96396D01*
X369600Y97089D01*
X368375Y97333D01*
D02*
G37*
G36*
X272500Y83701D02*
X271275Y83457D01*
X270237Y82763D01*
X269543Y81725D01*
X269300Y80500D01*
X269543Y79275D01*
X270237Y78237D01*
X271275Y77543D01*
X272500Y77299D01*
X273725Y77543D01*
X274763Y78237D01*
X275457Y79275D01*
X275700Y80500D01*
X275457Y81725D01*
X274763Y82763D01*
X273725Y83457D01*
X272500Y83701D01*
D02*
G37*
G36*
X87000Y83201D02*
X85775Y82957D01*
X84737Y82263D01*
X84043Y81225D01*
X83799Y80000D01*
X84043Y78775D01*
X84737Y77737D01*
X85775Y77043D01*
X87000Y76800D01*
X88225Y77043D01*
X89263Y77737D01*
X89957Y78775D01*
X90201Y80000D01*
X89957Y81225D01*
X89263Y82263D01*
X88225Y82957D01*
X87000Y83201D01*
D02*
G37*
G36*
X56000D02*
X54775Y82957D01*
X53737Y82263D01*
X53043Y81225D01*
X52800Y80000D01*
X53043Y78775D01*
X53737Y77737D01*
X54775Y77043D01*
X56000Y76800D01*
X57225Y77043D01*
X58263Y77737D01*
X58957Y78775D01*
X59201Y80000D01*
X58957Y81225D01*
X58263Y82263D01*
X57225Y82957D01*
X56000Y83201D01*
D02*
G37*
G36*
X40250D02*
X39025Y82957D01*
X37987Y82263D01*
X37293Y81225D01*
X37050Y80000D01*
X37293Y78775D01*
X37987Y77737D01*
X39025Y77043D01*
X40250Y76800D01*
X41475Y77043D01*
X42513Y77737D01*
X43207Y78775D01*
X43450Y80000D01*
X43207Y81225D01*
X42513Y82263D01*
X41475Y82957D01*
X40250Y83201D01*
D02*
G37*
G36*
X71750Y82950D02*
X70525Y82707D01*
X69487Y82013D01*
X68793Y80975D01*
X68549Y79750D01*
X68793Y78525D01*
X69487Y77487D01*
X70525Y76793D01*
X71750Y76550D01*
X72975Y76793D01*
X74013Y77487D01*
X74707Y78525D01*
X74950Y79750D01*
X74707Y80975D01*
X74013Y82013D01*
X72975Y82707D01*
X71750Y82950D01*
D02*
G37*
G36*
X97250Y80201D02*
X96025Y79957D01*
X94987Y79263D01*
X94293Y78225D01*
X94050Y77000D01*
X94293Y75775D01*
X94987Y74737D01*
X96025Y74043D01*
X97250Y73800D01*
X98475Y74043D01*
X99513Y74737D01*
X100207Y75775D01*
X100450Y77000D01*
X100207Y78225D01*
X99513Y79263D01*
X98475Y79957D01*
X97250Y80201D01*
D02*
G37*
G36*
X112500Y76200D02*
X111275Y75957D01*
X110237Y75263D01*
X109543Y74225D01*
X109299Y73000D01*
X109543Y71775D01*
X110237Y70737D01*
X111275Y70043D01*
X112500Y69799D01*
X113725Y70043D01*
X114537Y69058D01*
X114543Y69025D01*
X115237Y67987D01*
X116275Y67293D01*
X117500Y67049D01*
X118725Y67293D01*
X119763Y67987D01*
X120457Y69025D01*
X120701Y70250D01*
X120457Y71475D01*
X119763Y72513D01*
X118725Y73207D01*
X117500Y73450D01*
X116275Y73207D01*
X115463Y74192D01*
X115457Y74225D01*
X114763Y75263D01*
X113725Y75957D01*
X112500Y76200D01*
D02*
G37*
G36*
X305000Y69450D02*
X303775Y69207D01*
X302737Y68513D01*
X302043Y67475D01*
X301800Y66250D01*
X302043Y65025D01*
X302737Y63987D01*
X303775Y63293D01*
X305000Y63050D01*
X306225Y63293D01*
X307263Y63987D01*
X307957Y65025D01*
X308200Y66250D01*
X307957Y67475D01*
X307263Y68513D01*
X306225Y69207D01*
X305000Y69450D01*
D02*
G37*
G36*
X280000D02*
X278775Y69207D01*
X277737Y68513D01*
X277043Y67475D01*
X276800Y66250D01*
X277043Y65025D01*
X277737Y63987D01*
X278775Y63293D01*
X280000Y63050D01*
X281225Y63293D01*
X282263Y63987D01*
X282957Y65025D01*
X283200Y66250D01*
X282957Y67475D01*
X282263Y68513D01*
X281225Y69207D01*
X280000Y69450D01*
D02*
G37*
G36*
X364250Y68700D02*
X363025Y68457D01*
X361987Y67763D01*
X361293Y66725D01*
X361049Y65500D01*
X361293Y64275D01*
X361987Y63237D01*
X363025Y62543D01*
X364250Y62299D01*
X365475Y62543D01*
X366513Y63237D01*
X367207Y64275D01*
X367450Y65500D01*
X367207Y66725D01*
X366513Y67763D01*
X365475Y68457D01*
X364250Y68700D01*
D02*
G37*
G36*
X379000Y62200D02*
X377775Y61957D01*
X376737Y61263D01*
X376043Y60225D01*
X375799Y59000D01*
X376043Y57775D01*
X376737Y56737D01*
X377775Y56043D01*
X379000Y55799D01*
X380225Y56043D01*
X381263Y56737D01*
X381957Y57775D01*
X382201Y59000D01*
X381957Y60225D01*
X381263Y61263D01*
X380225Y61957D01*
X379000Y62200D01*
D02*
G37*
G36*
X9000Y58700D02*
X7775Y58457D01*
X6737Y57763D01*
X6043Y56725D01*
X5799Y55500D01*
X6043Y54275D01*
X6737Y53237D01*
X7775Y52543D01*
X9000Y52299D01*
X10225Y52543D01*
X11263Y53237D01*
X11957Y54275D01*
X12200Y55500D01*
X11957Y56725D01*
X11263Y57763D01*
X10225Y58457D01*
X9000Y58700D01*
D02*
G37*
G36*
X388750Y55700D02*
X387525Y55457D01*
X386487Y54763D01*
X385793Y53725D01*
X385550Y52500D01*
X385793Y51275D01*
X386487Y50237D01*
X387525Y49543D01*
X388750Y49300D01*
X389975Y49543D01*
X391013Y50237D01*
X391707Y51275D01*
X391950Y52500D01*
X391707Y53725D01*
X391013Y54763D01*
X389975Y55457D01*
X388750Y55700D01*
D02*
G37*
G36*
X109755Y47953D02*
X108531Y47709D01*
X107492Y47015D01*
X106798Y45977D01*
X106555Y44752D01*
X106798Y43527D01*
X107492Y42489D01*
X108531Y41795D01*
X109755Y41552D01*
X110980Y41795D01*
X112018Y42489D01*
X112712Y43527D01*
X112956Y44752D01*
X112712Y45977D01*
X112018Y47015D01*
X110980Y47709D01*
X109755Y47953D01*
D02*
G37*
G36*
X295000Y44950D02*
X293775Y44707D01*
X292737Y44013D01*
X292043Y42975D01*
X291800Y41750D01*
X292043Y40525D01*
X292737Y39487D01*
X293775Y38793D01*
X295000Y38549D01*
X296225Y38793D01*
X297263Y39487D01*
X297957Y40525D01*
X298200Y41750D01*
X297957Y42975D01*
X297263Y44013D01*
X296225Y44707D01*
X295000Y44950D01*
D02*
G37*
G36*
X102500Y41701D02*
X101275Y41457D01*
X100237Y40763D01*
X99543Y39725D01*
X99299Y38500D01*
X99543Y37275D01*
X100237Y36237D01*
X101275Y35543D01*
X102500Y35299D01*
X103725Y35543D01*
X104763Y36237D01*
X105457Y37275D01*
X105701Y38500D01*
X105457Y39725D01*
X104763Y40763D01*
X103725Y41457D01*
X102500Y41701D01*
D02*
G37*
G36*
X436750Y97200D02*
X435525Y96957D01*
X434487Y96263D01*
X433793Y95225D01*
X433549Y94000D01*
X433793Y92775D01*
X434487Y91737D01*
X435525Y91043D01*
X436750Y90800D01*
X437975Y91043D01*
X439013Y91737D01*
X439707Y92775D01*
X439950Y94000D01*
X439707Y95225D01*
X439013Y96263D01*
X437975Y96957D01*
X436750Y97200D01*
D02*
G37*
G36*
X426000Y88951D02*
X424775Y88707D01*
X423737Y88013D01*
X423043Y86975D01*
X422799Y85750D01*
X423043Y84525D01*
X423737Y83487D01*
X424775Y82793D01*
X426000Y82549D01*
X427225Y82793D01*
X428263Y83487D01*
X428957Y84525D01*
X429201Y85750D01*
X428957Y86975D01*
X428263Y88013D01*
X427225Y88707D01*
X426000Y88951D01*
D02*
G37*
G36*
X476250Y88450D02*
X475025Y88207D01*
X473987Y87513D01*
X473293Y86475D01*
X473050Y85250D01*
X473293Y84025D01*
X473987Y82987D01*
X475025Y82293D01*
X476250Y82050D01*
X477475Y82293D01*
X478513Y82987D01*
X479207Y84025D01*
X479450Y85250D01*
X479207Y86475D01*
X478513Y87513D01*
X477475Y88207D01*
X476250Y88450D01*
D02*
G37*
G36*
X424500Y53700D02*
X423275Y53457D01*
X422237Y52763D01*
X421543Y51725D01*
X421300Y50500D01*
X421543Y49275D01*
X422237Y48237D01*
X423275Y47543D01*
X424500Y47299D01*
X425725Y47543D01*
X426763Y48237D01*
X427457Y49275D01*
X427701Y50500D01*
X427457Y51725D01*
X426763Y52763D01*
X425725Y53457D01*
X424500Y53700D01*
D02*
G37*
G36*
X476250Y46451D02*
X475025Y46207D01*
X473987Y45513D01*
X473293Y44475D01*
X473050Y43250D01*
X473293Y42025D01*
X473987Y40987D01*
X475025Y40293D01*
X476250Y40050D01*
X477475Y40293D01*
X478513Y40987D01*
X479207Y42025D01*
X479450Y43250D01*
X479207Y44475D01*
X478513Y45513D01*
X477475Y46207D01*
X476250Y46451D01*
D02*
G37*
G36*
Y36951D02*
X475025Y36707D01*
X473987Y36013D01*
X473293Y34975D01*
X473050Y33750D01*
X473293Y32525D01*
X473987Y31487D01*
X475025Y30793D01*
X476250Y30549D01*
X477475Y30793D01*
X478513Y31487D01*
X479207Y32525D01*
X479450Y33750D01*
X479207Y34975D01*
X478513Y36013D01*
X477475Y36707D01*
X476250Y36951D01*
D02*
G37*
G36*
X454000Y16451D02*
X452775Y16207D01*
X451737Y15513D01*
X451043Y14475D01*
X450799Y13250D01*
X451043Y12025D01*
X451737Y10987D01*
X452775Y10293D01*
X454000Y10050D01*
X455225Y10293D01*
X456263Y10987D01*
X456957Y12025D01*
X457201Y13250D01*
X456957Y14475D01*
X456263Y15513D01*
X455225Y16207D01*
X454000Y16451D01*
D02*
G37*
%LPD*%
D54*
X114000Y363000D02*
D03*
D55*
X8500Y387000D02*
D03*
X40502Y447772D02*
D03*
X302250Y462000D02*
D03*
X257250D02*
D03*
X272500Y108000D02*
D03*
X24000Y8750D02*
D03*
X9000Y10750D02*
D03*
X141750Y416250D02*
D03*
X187250Y427000D02*
D03*
X197250D02*
D03*
X212250Y432000D02*
D03*
X132500Y136000D02*
D03*
Y125000D02*
D03*
X133000Y108000D02*
D03*
X122500Y67000D02*
D03*
X287500Y66250D02*
D03*
X132500Y44250D02*
D03*
X464500Y13000D02*
D03*
X391500Y76000D02*
D03*
X419000D02*
D03*
X405000Y94000D02*
D03*
X494750D02*
D03*
X452500Y43250D02*
D03*
X488000Y32250D02*
D03*
X440750Y437250D02*
D03*
X149000Y377750D02*
D03*
X99750Y416250D02*
D03*
X82000Y416000D02*
D03*
X71000Y395250D02*
D03*
X76500Y43750D02*
D03*
X44252Y58253D02*
D03*
X71750Y107250D02*
D03*
X56000D02*
D03*
X40250Y107500D02*
D03*
X87500Y107250D02*
D03*
X92750Y16500D02*
D03*
X72000Y475750D02*
D03*
X72250Y460000D02*
D03*
X421500Y491750D02*
D03*
X453250Y489500D02*
D03*
X469250D02*
D03*
X493000Y492250D02*
D03*
X485250Y445000D02*
D03*
X105250Y377750D02*
D03*
Y396750D02*
D03*
X90000Y387250D02*
D03*
X7500Y492250D02*
D03*
M02*
