G04*
G04 #@! TF.GenerationSoftware,Altium Limited,Altium Designer,19.0.11 (319)*
G04*
G04 Layer_Physical_Order=4*
G04 Layer_Color=16711680*
%FSLAX44Y44*%
%MOMM*%
G71*
G01*
G75*
%ADD11C,0.2000*%
%ADD15C,0.1000*%
%ADD32R,0.3000X1.2000*%
%ADD53C,0.3000*%
G04:AMPARAMS|DCode=54|XSize=1mm|YSize=1mm|CornerRadius=0.25mm|HoleSize=0mm|Usage=FLASHONLY|Rotation=0.000|XOffset=0mm|YOffset=0mm|HoleType=Round|Shape=RoundedRectangle|*
%AMROUNDEDRECTD54*
21,1,1.0000,0.5000,0,0,0.0*
21,1,0.5000,1.0000,0,0,0.0*
1,1,0.5000,0.2500,-0.2500*
1,1,0.5000,-0.2500,-0.2500*
1,1,0.5000,-0.2500,0.2500*
1,1,0.5000,0.2500,0.2500*
%
%ADD54ROUNDEDRECTD54*%
%ADD55C,0.4500*%
%ADD56R,0.3000X1.2500*%
G04:AMPARAMS|DCode=57|XSize=0.3mm|YSize=1.25mm|CornerRadius=0.075mm|HoleSize=0mm|Usage=FLASHONLY|Rotation=0.000|XOffset=0mm|YOffset=0mm|HoleType=Round|Shape=RoundedRectangle|*
%AMROUNDEDRECTD57*
21,1,0.3000,1.1000,0,0,0.0*
21,1,0.1500,1.2500,0,0,0.0*
1,1,0.1500,0.0750,-0.5500*
1,1,0.1500,-0.0750,-0.5500*
1,1,0.1500,-0.0750,0.5500*
1,1,0.1500,0.0750,0.5500*
%
%ADD57ROUNDEDRECTD57*%
%ADD58R,2.4000X2.4000*%
D11*
X112500Y54000D02*
Y73000D01*
X97250Y77000D02*
X97375Y76875D01*
Y54125D02*
Y76875D01*
Y54125D02*
X97500Y54000D01*
X92500D02*
Y74500D01*
X87000Y80000D02*
X92500Y74500D01*
X77500Y54000D02*
Y60250D01*
X61889Y75861D02*
X77500Y60250D01*
X44389Y75861D02*
X61889D01*
X40250Y80000D02*
X44389Y75861D01*
X272500Y54000D02*
Y80500D01*
Y54000D02*
X272500Y54000D01*
D15*
X257263Y336516D02*
X257500Y336279D01*
Y54000D02*
Y336279D01*
X121000Y131000D02*
Y341250D01*
X87000Y97000D02*
X121000Y131000D01*
X87000Y80000D02*
Y97000D01*
X202250Y422500D02*
Y432000D01*
X121000Y341250D02*
X202250Y422500D01*
X207250Y422500D02*
Y427000D01*
X127500Y342750D02*
X207250Y422500D01*
X127500Y342750D02*
X127500Y54000D01*
X398750Y43500D02*
Y56000D01*
X292500Y162250D02*
X398750Y56000D01*
X292500Y162250D02*
Y265000D01*
X393750Y43500D02*
Y52750D01*
X287500Y159000D02*
X393750Y52750D01*
X287500Y159000D02*
Y275250D01*
X383750Y43500D02*
Y54250D01*
X282500Y155500D02*
X383750Y54250D01*
X282500Y155500D02*
Y285500D01*
X242500Y337104D02*
X332250Y426854D01*
X242500Y54000D02*
Y337104D01*
X232500D02*
X322250Y426854D01*
X232500Y54000D02*
Y337104D01*
X212500Y342104D02*
X297250Y426854D01*
X212500Y54000D02*
Y342104D01*
X172500Y347104D02*
X252250Y426854D01*
X172500Y347104D02*
X172500Y54000D01*
X192500Y342104D02*
X277250Y426854D01*
X192500Y54000D02*
Y342104D01*
X378750Y43500D02*
Y51000D01*
X277500Y152250D02*
X378750Y51000D01*
X277500Y152250D02*
Y295500D01*
X332250Y426854D02*
Y432000D01*
X322250Y426854D02*
Y432000D01*
X297250Y426854D02*
Y432000D01*
X277250Y426854D02*
Y432000D01*
X252250Y426854D02*
Y432000D01*
X359750Y33750D02*
X476250D01*
X272500Y121000D02*
X359750Y33750D01*
X272500Y121000D02*
Y305750D01*
X267500Y54000D02*
Y316000D01*
X262500Y54000D02*
Y326250D01*
X342250Y426854D02*
Y432000D01*
X252500Y337104D02*
X342250Y426854D01*
X252500Y54000D02*
Y337104D01*
X312250Y426750D02*
Y432000D01*
X222500Y337000D02*
X312250Y426750D01*
X222500Y54000D02*
Y337000D01*
X267250Y426750D02*
Y432000D01*
X182500Y342000D02*
X267250Y426750D01*
X182500Y54000D02*
Y342000D01*
X242250Y426500D02*
Y432000D01*
X162500Y346750D02*
X242250Y426500D01*
X162500Y346750D02*
X162500Y54000D01*
X232250Y426500D02*
Y432000D01*
X152500Y346750D02*
X232250Y426500D01*
X152500Y346750D02*
X152500Y54000D01*
X222250Y426750D02*
Y432000D01*
X142500Y347000D02*
X222250Y426750D01*
X142500Y347000D02*
X142500Y54000D01*
X167500D02*
Y347250D01*
X247250Y427000D01*
X247500Y337250D02*
X337250Y427000D01*
X247500Y54000D02*
Y337250D01*
X237500D02*
X327250Y427000D01*
X237500Y54000D02*
Y337250D01*
X227639Y337389D02*
X317250Y427000D01*
X217500Y337250D02*
X307250Y427000D01*
X227639Y54139D02*
Y337389D01*
X217500Y54000D02*
Y337250D01*
X207500Y342250D02*
X292250Y427000D01*
X207500Y54000D02*
Y342250D01*
X287250Y426750D02*
Y432000D01*
X202500Y342000D02*
X287250Y426750D01*
X202500Y54000D02*
Y342000D01*
X197500Y342250D02*
X282250Y427000D01*
X197500Y54000D02*
Y342250D01*
X187500D02*
X272250Y427000D01*
X187500Y54000D02*
Y342250D01*
X177500Y342250D02*
X262250Y427000D01*
X177500Y54000D02*
Y342250D01*
X157500Y347250D02*
X237250Y427000D01*
X157500Y54000D02*
Y347250D01*
X147500D02*
X227250Y427000D01*
X147500Y54000D02*
Y347250D01*
X137500Y347250D02*
X217250Y427000D01*
X137500Y54000D02*
Y347250D01*
X117500Y54000D02*
Y70250D01*
Y54000D02*
X117500Y54000D01*
X217500Y54000D02*
X217500Y54000D01*
X227500D02*
X227639Y54139D01*
D32*
X307500Y54000D02*
D03*
X302500D02*
D03*
X297500D02*
D03*
X292500D02*
D03*
X287500D02*
D03*
X282500D02*
D03*
X277500D02*
D03*
X272500D02*
D03*
X267500D02*
D03*
X262500D02*
D03*
X257500D02*
D03*
X252500D02*
D03*
X247500D02*
D03*
X242500D02*
D03*
X237500D02*
D03*
X232500D02*
D03*
X227500D02*
D03*
X222500D02*
D03*
X217500D02*
D03*
X212500D02*
D03*
X207500D02*
D03*
X202500D02*
D03*
X197500D02*
D03*
X192500D02*
D03*
X187500D02*
D03*
X182500D02*
D03*
X177500D02*
D03*
X172500D02*
D03*
X167500D02*
D03*
X162500D02*
D03*
X157500D02*
D03*
X152500D02*
D03*
X147500D02*
D03*
X142500D02*
D03*
X137500D02*
D03*
X132500D02*
D03*
X127500D02*
D03*
X122500D02*
D03*
X117500D02*
D03*
X112500D02*
D03*
X107500D02*
D03*
X102500D02*
D03*
X97500D02*
D03*
X92500D02*
D03*
X87500D02*
D03*
X82500D02*
D03*
X77500D02*
D03*
X72500D02*
D03*
X67500D02*
D03*
X62500D02*
D03*
D53*
X388750Y43500D02*
Y52500D01*
X122500Y55012D02*
Y67000D01*
X287500Y54000D02*
Y66250D01*
X282500Y54000D02*
Y63344D01*
X280000Y65844D02*
X282500Y63344D01*
X277500Y54000D02*
Y63344D01*
X280000Y65844D01*
Y66250D01*
X476000Y33500D02*
X476250Y33750D01*
X292500Y44656D02*
Y54000D01*
Y44656D02*
X295000Y42156D01*
X297500Y44656D02*
Y54000D01*
X295000Y42156D02*
X297500Y44656D01*
X305000Y65844D02*
Y66250D01*
X302500Y63344D02*
X305000Y65844D01*
X302500Y54000D02*
Y63344D01*
X305000Y65844D02*
X307500Y63344D01*
Y54000D02*
Y63344D01*
X476250Y43250D02*
Y85250D01*
X132500Y44250D02*
X132500Y44250D01*
Y54000D01*
X72500Y47750D02*
Y54000D01*
Y47750D02*
X76500Y43750D01*
X107500Y47007D02*
X109755Y44752D01*
X102500Y38500D02*
X102500Y38500D01*
X82500Y54000D02*
Y61750D01*
X64250Y80000D02*
X82500Y61750D01*
X56000Y80000D02*
X64250D01*
X107500Y47007D02*
Y54000D01*
X102500Y38500D02*
Y54000D01*
D54*
X114000Y363000D02*
D03*
X128500D02*
D03*
D55*
X388750Y52500D02*
D03*
X34000Y121250D02*
D03*
X21500Y110000D02*
D03*
X8500Y387000D02*
D03*
X40502Y447772D02*
D03*
X302250Y462000D02*
D03*
X257250D02*
D03*
X272500Y108000D02*
D03*
X24000Y8750D02*
D03*
X9000Y10750D02*
D03*
X368375Y94132D02*
D03*
X379000Y59000D02*
D03*
X364250Y65500D02*
D03*
X59000Y384000D02*
D03*
X141750Y416250D02*
D03*
X292500Y265000D02*
D03*
X287500Y275250D02*
D03*
X282552Y285302D02*
D03*
X277500Y295500D02*
D03*
X272500Y305750D02*
D03*
X267500Y316000D02*
D03*
X262500Y326250D02*
D03*
X257263Y336516D02*
D03*
X187250Y427000D02*
D03*
X202250Y432000D02*
D03*
X197250Y427000D02*
D03*
X212250Y432000D02*
D03*
X207250Y427000D02*
D03*
X327250Y427000D02*
D03*
X317250D02*
D03*
X307250Y427000D02*
D03*
X312250Y432000D02*
D03*
X132500Y136000D02*
D03*
Y130500D02*
D03*
Y125000D02*
D03*
Y119500D02*
D03*
X133000Y108000D02*
D03*
X122500Y67000D02*
D03*
X117500Y70250D02*
D03*
X112500Y73000D02*
D03*
X97250Y77000D02*
D03*
X217250Y427000D02*
D03*
X227250Y427000D02*
D03*
X222250Y432000D02*
D03*
X237250Y427000D02*
D03*
X242250Y432000D02*
D03*
X232250D02*
D03*
X252250D02*
D03*
X247250Y427000D02*
D03*
X262250Y427000D02*
D03*
X272250Y427000D02*
D03*
X337250D02*
D03*
X332250Y432000D02*
D03*
X342250D02*
D03*
X322250D02*
D03*
X267250Y432000D02*
D03*
X277250Y432000D02*
D03*
X282250Y427000D02*
D03*
X287250Y432000D02*
D03*
X292250Y427000D02*
D03*
X297250Y432000D02*
D03*
X287500Y66250D02*
D03*
X280000D02*
D03*
X476250Y33750D02*
D03*
X454000Y13250D02*
D03*
X295000Y41750D02*
D03*
X305000Y66250D02*
D03*
X426000Y85750D02*
D03*
X436750Y94000D02*
D03*
X424500Y50500D02*
D03*
X476250Y85250D02*
D03*
Y43250D02*
D03*
X132500Y44250D02*
D03*
X464500Y13000D02*
D03*
X391500Y76000D02*
D03*
X419000D02*
D03*
X405000Y94000D02*
D03*
X494750D02*
D03*
X452500Y43250D02*
D03*
X488000Y32250D02*
D03*
X440750Y437250D02*
D03*
X149000Y377750D02*
D03*
X99750Y416250D02*
D03*
X82000Y416000D02*
D03*
X71000Y395250D02*
D03*
X347250Y468189D02*
D03*
X76500Y43750D02*
D03*
X44252Y58253D02*
D03*
X109755Y44752D02*
D03*
X102500Y38500D02*
D03*
X71750Y79750D02*
D03*
Y107250D02*
D03*
X56000D02*
D03*
X40250Y107500D02*
D03*
X87500Y107250D02*
D03*
X103250Y107000D02*
D03*
X272500Y80500D02*
D03*
X87000Y80000D02*
D03*
X56000D02*
D03*
X40250D02*
D03*
X92750Y16500D02*
D03*
X21500Y455250D02*
D03*
X72000Y487250D02*
D03*
X406750Y490750D02*
D03*
X72000Y475750D02*
D03*
X119000Y107250D02*
D03*
X72250Y460000D02*
D03*
X421500Y491750D02*
D03*
X453250Y489500D02*
D03*
X469250D02*
D03*
X493000Y492250D02*
D03*
X485250Y445000D02*
D03*
X493250Y469500D02*
D03*
X461250Y427750D02*
D03*
X9000Y55500D02*
D03*
X45750Y486250D02*
D03*
X149250Y393500D02*
D03*
X105250Y377750D02*
D03*
Y396750D02*
D03*
X90000Y387250D02*
D03*
X7500Y492250D02*
D03*
D56*
X378750Y43500D02*
D03*
D57*
X383750D02*
D03*
X388750D02*
D03*
X393750D02*
D03*
X398750D02*
D03*
X403750D02*
D03*
D58*
X328500Y27000D02*
D03*
X41500D02*
D03*
M02*
