G04*
G04 #@! TF.GenerationSoftware,Altium Limited,Altium Designer,19.0.11 (319)*
G04*
G04 Layer_Color=8388736*
%FSLAX44Y44*%
%MOMM*%
G71*
G01*
G75*
%ADD33C,3.0000*%
%ADD34R,1.0532X1.1532*%
%ADD35R,1.4032X1.4032*%
%ADD36R,1.4032X1.4032*%
%ADD37R,0.8032X0.8032*%
%ADD38R,1.1532X1.0532*%
%ADD39R,1.2032X1.1032*%
%ADD40R,0.8532X1.1532*%
%ADD41R,1.1032X1.2032*%
%ADD42R,1.0032X0.7532*%
%ADD43R,1.0032X2.2032*%
%ADD44R,1.1532X1.1032*%
%ADD45R,1.5032X1.6032*%
%ADD46R,1.4032X1.8532*%
%ADD47R,0.9032X0.5032*%
%ADD48R,0.7532X1.5132*%
%ADD49R,2.6032X2.6032*%
%ADD50R,0.5032X1.4032*%
G04:AMPARAMS|DCode=51|XSize=1.2032mm|YSize=1.2032mm|CornerRadius=0.3516mm|HoleSize=0mm|Usage=FLASHONLY|Rotation=0.000|XOffset=0mm|YOffset=0mm|HoleType=Round|Shape=RoundedRectangle|*
%AMROUNDEDRECTD51*
21,1,1.2032,0.5000,0,0,0.0*
21,1,0.5000,1.2032,0,0,0.0*
1,1,0.7032,0.2500,-0.2500*
1,1,0.7032,-0.2500,-0.2500*
1,1,0.7032,-0.2500,0.2500*
1,1,0.7032,0.2500,0.2500*
%
%ADD51ROUNDEDRECTD51*%
D33*
X98510Y479750D02*
G03*
X98510Y479750I-10J0D01*
G01*
X364760Y34500D02*
G03*
X364760Y34500I-10J0D01*
G01*
D34*
X128750Y409250D02*
D03*
X141750D02*
D03*
X128750Y393500D02*
D03*
X141750D02*
D03*
X24000Y32250D02*
D03*
X37000D02*
D03*
X24000Y16500D02*
D03*
X37000D02*
D03*
X449000Y453000D02*
D03*
X462000D02*
D03*
X487750Y94000D02*
D03*
X474750D02*
D03*
X459750D02*
D03*
X446750D02*
D03*
D35*
X83600Y16500D02*
D03*
D36*
X55000D02*
D03*
D37*
X487000Y469500D02*
D03*
Y491500D02*
D03*
D38*
X376250Y88500D02*
D03*
Y75500D02*
D03*
X360500Y88500D02*
D03*
Y75500D02*
D03*
X272500Y100250D02*
D03*
Y87250D02*
D03*
X166250Y100000D02*
D03*
Y87000D02*
D03*
X197750Y100000D02*
D03*
Y87000D02*
D03*
X103250Y87000D02*
D03*
Y100000D02*
D03*
X150500Y100000D02*
D03*
Y87000D02*
D03*
X182000Y100000D02*
D03*
Y87000D02*
D03*
X24500Y100500D02*
D03*
Y87500D02*
D03*
X40250Y87500D02*
D03*
Y100500D02*
D03*
X134750Y87000D02*
D03*
Y100000D02*
D03*
X119000Y100000D02*
D03*
Y87000D02*
D03*
X469250Y482500D02*
D03*
Y469500D02*
D03*
X34000Y479250D02*
D03*
Y492250D02*
D03*
X18250Y479250D02*
D03*
Y492250D02*
D03*
D39*
X87500Y86750D02*
D03*
Y100250D02*
D03*
X71750Y86750D02*
D03*
Y100250D02*
D03*
X56000Y86750D02*
D03*
Y100250D02*
D03*
X8750Y100750D02*
D03*
Y87250D02*
D03*
X9000Y32000D02*
D03*
Y18500D02*
D03*
X52500Y35500D02*
D03*
Y49000D02*
D03*
X68250Y35500D02*
D03*
Y49000D02*
D03*
X453250Y469000D02*
D03*
Y482500D02*
D03*
X84000Y35500D02*
D03*
Y49000D02*
D03*
X399500Y490500D02*
D03*
Y477000D02*
D03*
X488000Y52750D02*
D03*
Y39250D02*
D03*
X82000Y395500D02*
D03*
Y409000D02*
D03*
D40*
X18500Y70750D02*
D03*
X28000Y47750D02*
D03*
X9000D02*
D03*
X425000Y468500D02*
D03*
X415500Y491500D02*
D03*
X434500D02*
D03*
D41*
X461250Y437250D02*
D03*
X447750D02*
D03*
X477500D02*
D03*
X491000D02*
D03*
X477500Y453000D02*
D03*
X491000D02*
D03*
X50500Y475750D02*
D03*
X64000D02*
D03*
X50500Y395250D02*
D03*
X64000D02*
D03*
X22000D02*
D03*
X8500D02*
D03*
X50500Y460000D02*
D03*
X64000D02*
D03*
X412000Y76000D02*
D03*
X398500D02*
D03*
X425500Y94000D02*
D03*
X412000D02*
D03*
X128500Y377750D02*
D03*
X142000D02*
D03*
X113250Y409250D02*
D03*
X99750D02*
D03*
D42*
X33250Y444750D02*
D03*
Y454250D02*
D03*
Y463750D02*
D03*
X9250D02*
D03*
Y444750D02*
D03*
X469500Y52750D02*
D03*
Y43250D02*
D03*
Y33750D02*
D03*
X445500D02*
D03*
Y43250D02*
D03*
Y52750D02*
D03*
D43*
X29000Y417500D02*
D03*
X9000D02*
D03*
D44*
X52500Y442750D02*
D03*
Y411250D02*
D03*
X424500Y40750D02*
D03*
Y9250D02*
D03*
D45*
X445750Y74750D02*
D03*
X461750D02*
D03*
D46*
X445500Y13250D02*
D03*
X473500D02*
D03*
D47*
X97250Y392250D02*
D03*
Y387250D02*
D03*
Y382250D02*
D03*
X113250D02*
D03*
Y387250D02*
D03*
Y392250D02*
D03*
D48*
X105250Y387250D02*
D03*
D49*
X131250Y474000D02*
D03*
X368250D02*
D03*
D50*
X152250Y447000D02*
D03*
X157250D02*
D03*
X162250D02*
D03*
X167250D02*
D03*
X172250D02*
D03*
X177250D02*
D03*
X182250D02*
D03*
X187250D02*
D03*
X192250D02*
D03*
X197250D02*
D03*
X202250D02*
D03*
X207250D02*
D03*
X212250D02*
D03*
X217250D02*
D03*
X222250D02*
D03*
X227250D02*
D03*
X232250D02*
D03*
X237250D02*
D03*
X242250D02*
D03*
X247250D02*
D03*
X252250D02*
D03*
X257250D02*
D03*
X262250D02*
D03*
X267250D02*
D03*
X272250D02*
D03*
X277250D02*
D03*
X282250D02*
D03*
X287250D02*
D03*
X292250D02*
D03*
X297250D02*
D03*
X302250D02*
D03*
X307250D02*
D03*
X312250D02*
D03*
X317250D02*
D03*
X322250D02*
D03*
X327250D02*
D03*
X332250D02*
D03*
X337250D02*
D03*
X342250D02*
D03*
X347250D02*
D03*
D51*
X114000Y363000D02*
D03*
X128500D02*
D03*
M02*
