G04*
G04 #@! TF.GenerationSoftware,Altium Limited,Altium Designer,19.0.11 (319)*
G04*
G04 Layer_Color=32768*
%FSLAX44Y44*%
%MOMM*%
G71*
G01*
G75*
%ADD11C,0.2000*%
%ADD15C,0.1000*%
%ADD63C,0.0500*%
D11*
X348000Y400D02*
X433750D01*
Y400D02*
Y45400D01*
X348000Y400D02*
Y45400D01*
X433750D01*
D15*
X130500Y409250D02*
X140000D01*
X135250Y404500D02*
Y414000D01*
X130500Y393500D02*
X140000D01*
X135250Y388750D02*
Y398250D01*
X64300Y16500D02*
X74300D01*
X69300Y11500D02*
Y21500D01*
X487000Y475500D02*
Y485500D01*
X482000Y480500D02*
X492000D01*
X376250Y77250D02*
Y86750D01*
X371500Y82000D02*
X381000D01*
X360500Y77250D02*
Y86750D01*
X355750Y82000D02*
X365250D01*
X272500Y89000D02*
Y98500D01*
X267750Y93750D02*
X277250D01*
X166250Y88750D02*
Y98250D01*
X161500Y93500D02*
X171000D01*
X197750Y88750D02*
Y98250D01*
X193000Y93500D02*
X202500D01*
X103250Y88750D02*
Y98250D01*
X98500Y93500D02*
X108000D01*
X150500Y88750D02*
Y98250D01*
X145750Y93500D02*
X155250D01*
X182000Y88750D02*
Y98250D01*
X177250Y93500D02*
X186750D01*
X24500Y89250D02*
Y98750D01*
X19750Y94000D02*
X29250D01*
X40250Y89250D02*
Y98750D01*
X35500Y94000D02*
X45000D01*
X82750Y93500D02*
X92250D01*
X87500Y88750D02*
Y98250D01*
X67000Y93500D02*
X76500D01*
X71750Y88750D02*
Y98250D01*
X51250Y93500D02*
X60750D01*
X56000Y88750D02*
Y98250D01*
X134750Y88750D02*
Y98250D01*
X130000Y93500D02*
X139500D01*
X119000Y88750D02*
Y98250D01*
X114250Y93500D02*
X123750D01*
X13500Y59250D02*
X23500D01*
X18500Y54250D02*
Y64250D01*
X4000Y94000D02*
X13500D01*
X8750Y89250D02*
Y98750D01*
X4250Y25250D02*
X13750D01*
X9000Y20500D02*
Y30000D01*
X25750Y32250D02*
X35250D01*
X30500Y27500D02*
Y37000D01*
X25750Y16500D02*
X35250D01*
X30500Y11750D02*
Y21250D01*
X47750Y42250D02*
X57250D01*
X52500Y37500D02*
Y47000D01*
X63500Y42250D02*
X73000D01*
X68250Y37500D02*
Y47000D01*
X448500Y475750D02*
X458000D01*
X453250Y471000D02*
Y480500D01*
X79250Y42250D02*
X88750D01*
X84000Y37500D02*
Y47000D01*
X394750Y483750D02*
X404250D01*
X399500Y479000D02*
Y488500D01*
X454500Y432500D02*
Y442000D01*
X449750Y437250D02*
X459250D01*
X484250Y432500D02*
Y442000D01*
X479500Y437250D02*
X489000D01*
X484250Y448250D02*
Y457750D01*
X479500Y453000D02*
X489000D01*
X469250Y471250D02*
Y480750D01*
X464500Y476000D02*
X474000D01*
X450750Y453000D02*
X460250D01*
X455500Y448250D02*
Y457750D01*
X420000Y480000D02*
X430000D01*
X425000Y475000D02*
Y485000D01*
X57250Y471000D02*
Y480500D01*
X52500Y475750D02*
X62000D01*
X34000Y481000D02*
Y490500D01*
X29250Y485750D02*
X38750D01*
X18250Y481000D02*
Y490500D01*
X13500Y485750D02*
X23000D01*
X57250Y390500D02*
Y400000D01*
X52500Y395250D02*
X62000D01*
X15250Y390500D02*
Y400000D01*
X10500Y395250D02*
X20000D01*
X16250Y454250D02*
X26250D01*
X21250Y449250D02*
Y459250D01*
X57250Y455250D02*
Y464750D01*
X52500Y460000D02*
X62000D01*
X19000Y412500D02*
Y422500D01*
X14000Y417500D02*
X24000D01*
X47500Y427000D02*
X57500D01*
X52500Y422000D02*
Y432000D01*
X405250Y71250D02*
Y80750D01*
X400500Y76000D02*
X410000D01*
X483250Y46000D02*
X492750D01*
X488000Y41250D02*
Y50750D01*
X453750Y69750D02*
Y79750D01*
X448750Y74750D02*
X458750D01*
X459500Y8250D02*
Y18250D01*
X454500Y13250D02*
X464500D01*
X419500Y25000D02*
X429500D01*
X424500Y20000D02*
Y30000D01*
X457500Y38250D02*
Y48250D01*
X452500Y43250D02*
X462500D01*
X476500Y94000D02*
X486000D01*
X481250Y89250D02*
Y98750D01*
X448500Y94000D02*
X458000D01*
X453250Y89250D02*
Y98750D01*
X418750Y89250D02*
Y98750D01*
X414000Y94000D02*
X423500D01*
X77250Y402250D02*
X86750D01*
X82000Y397500D02*
Y407000D01*
X135250Y373000D02*
Y382500D01*
X130500Y377750D02*
X140000D01*
X106500Y404500D02*
Y414000D01*
X101750Y409250D02*
X111250D01*
X390250Y428500D02*
Y510000D01*
X109250D02*
X390250D01*
X109250Y428500D02*
Y510000D01*
Y428500D02*
X390250D01*
X19500Y70000D02*
X350500D01*
X19500Y-10000D02*
Y70000D01*
Y-10000D02*
X350500D01*
Y70000D01*
D63*
X121750Y401750D02*
Y416750D01*
X148750Y401750D02*
Y416750D01*
X121750D02*
X148750D01*
X121750Y401750D02*
X148750D01*
X121750Y386000D02*
Y401000D01*
X148750Y386000D02*
Y401000D01*
X121750D02*
X148750D01*
X121750Y386000D02*
X148750D01*
X91300Y6500D02*
Y26500D01*
X47300Y6500D02*
Y26500D01*
Y6500D02*
X91300D01*
X47300Y26500D02*
X91300D01*
X478500Y463500D02*
X495500D01*
X478500Y497500D02*
X495500D01*
X478500Y463500D02*
Y497500D01*
X495500Y463500D02*
Y497500D01*
X368750Y95500D02*
X383750D01*
X368750Y68500D02*
X383750D01*
Y95500D01*
X368750Y68500D02*
Y95500D01*
X353000D02*
X368000D01*
X353000Y68500D02*
X368000D01*
Y95500D01*
X353000Y68500D02*
Y95500D01*
X265000Y107250D02*
X280000D01*
X265000Y80250D02*
X280000D01*
Y107250D01*
X265000Y80250D02*
Y107250D01*
X158750Y107000D02*
X173750D01*
X158750Y80000D02*
X173750D01*
Y107000D01*
X158750Y80000D02*
Y107000D01*
X190250Y107000D02*
X205250D01*
X190250Y80000D02*
X205250D01*
Y107000D01*
X190250Y80000D02*
Y107000D01*
X95750Y80000D02*
X110750D01*
X95750Y107000D02*
X110750D01*
X95750Y80000D02*
Y107000D01*
X110750Y80000D02*
Y107000D01*
X143000Y107000D02*
X158000D01*
X143000Y80000D02*
X158000D01*
Y107000D01*
X143000Y80000D02*
Y107000D01*
X174500D02*
X189500D01*
X174500Y80000D02*
X189500D01*
Y107000D01*
X174500Y80000D02*
Y107000D01*
X17000Y107500D02*
X32000D01*
X17000Y80500D02*
X32000D01*
Y107500D01*
X17000Y80500D02*
Y107500D01*
X32750Y80500D02*
X47750D01*
X32750Y107500D02*
X47750D01*
X32750Y80500D02*
Y107500D01*
X47750Y80500D02*
Y107500D01*
X80000Y80000D02*
Y107000D01*
X95000Y80000D02*
Y107000D01*
X80000Y80000D02*
X95000D01*
X80000Y107000D02*
X95000D01*
X64250Y80000D02*
Y107000D01*
X79250Y80000D02*
Y107000D01*
X64250Y80000D02*
X79250D01*
X64250Y107000D02*
X79250D01*
X48500Y80000D02*
Y107000D01*
X63500Y80000D02*
Y107000D01*
X48500Y80000D02*
X63500D01*
X48500Y107000D02*
X63500D01*
X127250Y80000D02*
X142250D01*
X127250Y107000D02*
X142250D01*
X127250Y80000D02*
Y107000D01*
X142250Y80000D02*
Y107000D01*
X111500Y107000D02*
X126500D01*
X111500Y80000D02*
X126500D01*
Y107000D01*
X111500Y80000D02*
Y107000D01*
X36000Y40500D02*
Y78000D01*
X1000Y40500D02*
Y78000D01*
X36000D01*
X1000Y40500D02*
X36000D01*
X16250Y80500D02*
Y107500D01*
X1250Y80500D02*
Y107500D01*
X16250D01*
X1250Y80500D02*
X16250D01*
X16500Y11750D02*
Y38750D01*
X1500Y11750D02*
Y38750D01*
X16500D01*
X1500Y11750D02*
X16500D01*
X17000Y24750D02*
Y39750D01*
X44000Y24750D02*
Y39750D01*
X17000D02*
X44000D01*
X17000Y24750D02*
X44000D01*
X17000Y9000D02*
Y24000D01*
X44000Y9000D02*
Y24000D01*
X17000D02*
X44000D01*
X17000Y9000D02*
X44000D01*
X45000Y28750D02*
Y55750D01*
X60000Y28750D02*
Y55750D01*
X45000Y28750D02*
X60000D01*
X45000Y55750D02*
X60000D01*
X60750Y28750D02*
Y55750D01*
X75750Y28750D02*
Y55750D01*
X60750Y28750D02*
X75750D01*
X60750Y55750D02*
X75750D01*
X445750Y462250D02*
Y489250D01*
X460750Y462250D02*
Y489250D01*
X445750Y462250D02*
X460750D01*
X445750Y489250D02*
X460750D01*
X76500Y28750D02*
Y55750D01*
X91500Y28750D02*
Y55750D01*
X76500Y28750D02*
X91500D01*
X76500Y55750D02*
X91500D01*
X407000Y470250D02*
Y497250D01*
X392000Y470250D02*
Y497250D01*
X407000D01*
X392000Y470250D02*
X407000D01*
X441000Y429750D02*
X468000D01*
X441000Y444750D02*
X468000D01*
Y429750D02*
Y444750D01*
X441000Y429750D02*
Y444750D01*
X470750Y444750D02*
X497750D01*
X470750Y429750D02*
X497750D01*
X470750D02*
Y444750D01*
X497750Y429750D02*
Y444750D01*
X470750Y460500D02*
X497750D01*
X470750Y445500D02*
X497750D01*
X470750D02*
Y460500D01*
X497750Y445500D02*
Y460500D01*
X461750Y489500D02*
X476750D01*
X461750Y462500D02*
X476750D01*
Y489500D01*
X461750Y462500D02*
Y489500D01*
X442000Y445500D02*
Y460500D01*
X469000Y445500D02*
Y460500D01*
X442000D02*
X469000D01*
X442000Y445500D02*
X469000D01*
X407500Y461250D02*
Y498750D01*
X442500Y461250D02*
Y498750D01*
X407500Y461250D02*
X442500D01*
X407500Y498750D02*
X442500D01*
X43750Y483250D02*
X70750D01*
X43750Y468250D02*
X70750D01*
X43750D02*
Y483250D01*
X70750Y468250D02*
Y483250D01*
X26500Y472250D02*
X41500D01*
X26500Y499250D02*
X41500D01*
X26500Y472250D02*
Y499250D01*
X41500Y472250D02*
Y499250D01*
X10750Y472250D02*
X25750D01*
X10750Y499250D02*
X25750D01*
X10750Y472250D02*
Y499250D01*
X25750Y472250D02*
Y499250D01*
X43750Y402750D02*
X70750D01*
X43750Y387750D02*
X70750D01*
X43750D02*
Y402750D01*
X70750Y387750D02*
Y402750D01*
X1750Y387750D02*
X28750D01*
X1750Y402750D02*
X28750D01*
Y387750D02*
Y402750D01*
X1750Y387750D02*
Y402750D01*
X42500Y436250D02*
Y472250D01*
X0Y436250D02*
Y472250D01*
Y436250D02*
X42500D01*
X0Y472250D02*
X42500D01*
X43750Y467500D02*
X70750D01*
X43750Y452500D02*
X70750D01*
X43750D02*
Y467500D01*
X70750Y452500D02*
Y467500D01*
X1000Y404000D02*
X37000D01*
X1000Y431000D02*
X37000D01*
Y404000D02*
Y431000D01*
X1000Y404000D02*
Y431000D01*
X62500Y404000D02*
Y450000D01*
X43500Y404000D02*
Y450000D01*
X42500D02*
X62500D01*
X42500Y404000D02*
X62500D01*
X391750Y68500D02*
X418750D01*
X391750Y83500D02*
X418750D01*
Y68500D02*
Y83500D01*
X391750Y68500D02*
Y83500D01*
X495500Y32500D02*
Y59500D01*
X480500Y32500D02*
Y59500D01*
X495500D01*
X480500Y32500D02*
X495500D01*
X436750Y84250D02*
X470750D01*
X436750Y65250D02*
X470750D01*
X436750D02*
Y84250D01*
X470750Y65250D02*
Y84250D01*
X437000Y24250D02*
X482000D01*
X437000Y2250D02*
X482000D01*
X437000D02*
Y24250D01*
X482000Y2250D02*
Y24250D01*
X434500Y2000D02*
Y48000D01*
X415500Y2000D02*
Y48000D01*
X414500D02*
X434500D01*
X414500Y2000D02*
X434500D01*
X436250Y25250D02*
X478750D01*
X436250Y61250D02*
X478750D01*
Y25250D02*
Y61250D01*
X436250Y25250D02*
Y61250D01*
X494750Y86500D02*
Y101500D01*
X467750Y86500D02*
Y101500D01*
Y86500D02*
X494750D01*
X467750Y101500D02*
X494750D01*
X466750Y86500D02*
Y101500D01*
X439750Y86500D02*
Y101500D01*
Y86500D02*
X466750D01*
X439750Y101500D02*
X466750D01*
X405250Y86500D02*
X432250D01*
X405250Y101500D02*
X432250D01*
Y86500D02*
Y101500D01*
X405250Y86500D02*
Y101500D01*
X74500Y388750D02*
Y415750D01*
X89500Y388750D02*
Y415750D01*
X74500Y388750D02*
X89500D01*
X74500Y415750D02*
X89500D01*
X121750Y385250D02*
X148750D01*
X121750Y370250D02*
X148750D01*
X121750D02*
Y385250D01*
X148750Y370250D02*
Y385250D01*
X93000Y401750D02*
X120000D01*
X93000Y416750D02*
X120000D01*
Y401750D02*
Y416750D01*
X93000Y401750D02*
Y416750D01*
X91250Y398000D02*
X119250D01*
Y376500D02*
Y398000D01*
X91250Y376500D02*
X119250D01*
X91250D02*
Y398000D01*
M02*
