G04*
G04 #@! TF.GenerationSoftware,Altium Limited,Altium Designer,19.0.11 (319)*
G04*
G04 Layer_Color=16711935*
%FSLAX44Y44*%
%MOMM*%
G71*
G01*
G75*
%ADD12C,0.2000*%
%ADD13C,0.1000*%
%ADD133C,0.0500*%
%ADD134C,0.0762*%
D12*
X434822Y-436078D02*
X453386Y-648267D01*
X612778Y-634322D01*
X594213Y-422133D02*
X612778Y-634322D01*
X434822Y-436078D02*
X594213Y-422133D01*
X-490772Y-507721D02*
X-473341Y-308482D01*
X-490772Y-507721D02*
X-391153Y-516436D01*
X-373722Y-317197D01*
X-473341Y-308482D02*
X-373722Y-317197D01*
X-124291Y-620305D02*
X-122929Y-555319D01*
X-230468Y-618081D02*
X-124291Y-620305D01*
X-230468Y-618081D02*
X-229106Y-553095D01*
X-122929Y-555319D01*
X-494733Y-537711D02*
X-414130Y-543348D01*
X-499267Y-602552D02*
X-494733Y-537711D01*
X-499267Y-602552D02*
X-418664Y-608189D01*
X-414130Y-543348D01*
X-531936Y-599740D02*
X-526271Y-534988D01*
X-587126Y-594912D02*
X-531936Y-599740D01*
X-587126Y-594912D02*
X-581461Y-530160D01*
X-526271Y-534988D01*
X-275188Y-615665D02*
X-272126Y-550738D01*
X-381271Y-610662D02*
X-275188Y-615665D01*
X-381271Y-610662D02*
X-378209Y-545735D01*
X-272126Y-550738D01*
D13*
X-295843Y-411878D02*
G03*
X-295843Y-411878I-5000J0D01*
G01*
X500217Y-293199D02*
G03*
X500217Y-293199I-5000J0D01*
G01*
X-421164Y-247855D02*
X-419639Y-230422D01*
X-430628Y-247027D02*
X-429103Y-229594D01*
X-419639Y-230422D01*
X-430628Y-247027D02*
X-421164Y-247855D01*
X-456253Y-237206D02*
X-438819Y-238731D01*
X-457081Y-246669D02*
X-439647Y-248195D01*
X-457081Y-246669D02*
X-456253Y-237206D01*
X-439647Y-248195D02*
X-438819Y-238731D01*
X-401478Y-282139D02*
X-384044Y-283664D01*
X-402306Y-291603D02*
X-384873Y-293128D01*
X-402306Y-291603D02*
X-401478Y-282139D01*
X-384873Y-293128D02*
X-384044Y-283664D01*
X-212450Y-454700D02*
X-202950D01*
X-212450Y-472200D02*
X-202950D01*
Y-454700D01*
X-212450Y-472200D02*
Y-454700D01*
X-212450Y-501950D02*
X-202950D01*
X-212450Y-484450D02*
X-202950D01*
X-212450Y-501950D02*
Y-484450D01*
X-202950Y-501950D02*
Y-484450D01*
X-198200Y-397950D02*
X-188700D01*
X-198200Y-415450D02*
X-188700D01*
Y-397950D01*
X-198200Y-415450D02*
Y-397950D01*
X-182131D02*
X-172631D01*
X-182131Y-415450D02*
X-172631D01*
Y-397950D01*
X-182131Y-415450D02*
Y-397950D01*
X-143450Y-512700D02*
X-125950D01*
X-143450Y-503200D02*
X-125950D01*
Y-512700D02*
Y-503200D01*
X-143450Y-512700D02*
Y-503200D01*
X-139632Y-489849D02*
X-139266Y-472352D01*
X-130134Y-490048D02*
X-129768Y-472551D01*
X-139632Y-489849D02*
X-130134Y-490048D01*
X-139266Y-472352D02*
X-129768Y-472551D01*
X-158600Y-522263D02*
X-158307Y-508266D01*
X-188300Y-507637D02*
X-158307Y-508266D01*
X-188593Y-521634D02*
X-158600Y-522263D01*
X-188593Y-521634D02*
X-188300Y-507637D01*
X-182547Y-544516D02*
X-165051Y-544882D01*
X-182349Y-535018D02*
X-164852Y-535384D01*
X-165051Y-544882D02*
X-164852Y-535384D01*
X-182547Y-544516D02*
X-182349Y-535018D01*
X-147864Y-480209D02*
X-147047Y-441217D01*
X-196853Y-479183D02*
X-147864Y-480209D01*
X-196853Y-479183D02*
X-196036Y-440191D01*
X-147047Y-441217D01*
X-159744Y-440951D02*
X-147313Y-453915D01*
X-498445Y-298253D02*
X-488981Y-299081D01*
X-496919Y-280819D02*
X-487455Y-281647D01*
X-498445Y-298253D02*
X-496919Y-280819D01*
X-488981Y-299081D02*
X-487455Y-281647D01*
X-509363Y-232845D02*
X-499899Y-233673D01*
X-510888Y-250278D02*
X-501425Y-251106D01*
X-499899Y-233673D01*
X-510888Y-250278D02*
X-509363Y-232845D01*
X-493081Y-254919D02*
X-475647Y-256444D01*
X-492253Y-245455D02*
X-474819Y-246981D01*
X-475647Y-256444D02*
X-474819Y-246981D01*
X-493081Y-254919D02*
X-492253Y-245455D01*
X-494605Y-271736D02*
X-477172Y-273261D01*
X-493777Y-262272D02*
X-476344Y-263797D01*
X-477172Y-273261D02*
X-476344Y-263797D01*
X-494605Y-271736D02*
X-493777Y-262272D01*
X-520621Y-262068D02*
X-516287Y-258432D01*
X-521667Y-274022D02*
X-520272Y-258083D01*
X-521667Y-274022D02*
X-505728Y-275417D01*
X-504333Y-259478D01*
X-520272Y-258083D02*
X-504333Y-259478D01*
X-550419Y-255569D02*
X-540956Y-256397D01*
X-551945Y-273003D02*
X-542481Y-273831D01*
X-540956Y-256397D01*
X-551945Y-273003D02*
X-550419Y-255569D01*
X-286324Y-434272D02*
X-276832Y-434653D01*
X-287026Y-451758D02*
X-277534Y-452139D01*
X-276832Y-434653D01*
X-287026Y-451758D02*
X-286324Y-434272D01*
X-310055Y-378384D02*
X-309353Y-360898D01*
X-319547Y-378002D02*
X-318845Y-360517D01*
X-309353Y-360898D01*
X-319547Y-378002D02*
X-310055Y-378384D01*
X-341449Y-401240D02*
X-291489Y-403246D01*
X-343054Y-441207D02*
X-293094Y-443214D01*
X-291489Y-403246D01*
X-343054Y-441207D02*
X-341449Y-401240D01*
X-313757Y-465614D02*
X-296272Y-466316D01*
X-314139Y-475106D02*
X-296653Y-475808D01*
X-314139Y-475106D02*
X-313757Y-465614D01*
X-296653Y-475808D02*
X-296272Y-466316D01*
X-341878Y-474084D02*
X-324392Y-474786D01*
X-341497Y-464592D02*
X-324011Y-465294D01*
X-324392Y-474786D02*
X-324011Y-465294D01*
X-341878Y-474084D02*
X-341497Y-464592D01*
X-330549Y-494261D02*
X-308067Y-495164D01*
X-331091Y-507751D02*
X-308609Y-508653D01*
X-308067Y-495164D01*
X-331091Y-507751D02*
X-330549Y-494261D01*
X-330134Y-539095D02*
X-312648Y-539797D01*
X-329752Y-529603D02*
X-312266Y-530305D01*
X-312648Y-539797D02*
X-312266Y-530305D01*
X-330134Y-539095D02*
X-329752Y-529603D01*
X-560695Y-463503D02*
X-559169Y-446069D01*
X-551231Y-464331D02*
X-549705Y-446897D01*
X-560695Y-463503D02*
X-551231Y-464331D01*
X-559169Y-446069D02*
X-549705Y-446897D01*
X-566981Y-462831D02*
X-565455Y-445397D01*
X-576445Y-462003D02*
X-574919Y-444569D01*
X-565455Y-445397D01*
X-576445Y-462003D02*
X-566981Y-462831D01*
X-566316Y-254177D02*
X-556852Y-255005D01*
X-567841Y-271610D02*
X-558378Y-272438D01*
X-556852Y-255005D01*
X-567841Y-271610D02*
X-566316Y-254177D01*
X-582095Y-252677D02*
X-572631Y-253505D01*
X-583620Y-270110D02*
X-574156Y-270938D01*
X-572631Y-253505D01*
X-583620Y-270110D02*
X-582095Y-252677D01*
X-590669Y-443069D02*
X-581205Y-443897D01*
X-592195Y-460503D02*
X-582731Y-461331D01*
X-581205Y-443897D01*
X-592195Y-460503D02*
X-590669Y-443069D01*
X-590105Y-340292D02*
X-527345Y-345783D01*
X-590105Y-340292D02*
X-584876Y-280521D01*
X-522116Y-286011D01*
X-527345Y-345783D02*
X-522116Y-286011D01*
X-586628Y-429528D02*
X-585103Y-412094D01*
X-577164Y-430355D02*
X-575639Y-412922D01*
X-586628Y-429528D02*
X-577164Y-430355D01*
X-585103Y-412094D02*
X-575639Y-412922D01*
X-593331Y-374919D02*
X-592503Y-365456D01*
X-575897Y-376445D02*
X-575069Y-366981D01*
X-592503Y-365456D02*
X-575069Y-366981D01*
X-593331Y-374919D02*
X-575897Y-376445D01*
X-594581Y-390669D02*
X-593753Y-381205D01*
X-577147Y-392195D02*
X-576319Y-382731D01*
X-593753Y-381205D02*
X-576319Y-382731D01*
X-594581Y-390669D02*
X-577147Y-392195D01*
X-531549Y-362195D02*
X-530721Y-352731D01*
X-548982Y-360669D02*
X-548154Y-351205D01*
X-548982Y-360669D02*
X-531549Y-362195D01*
X-548154Y-351205D02*
X-530721Y-352731D01*
X-544944Y-464753D02*
X-535481Y-465581D01*
X-543419Y-447319D02*
X-533955Y-448147D01*
X-544944Y-464753D02*
X-543419Y-447319D01*
X-535481Y-465581D02*
X-533955Y-448147D01*
X-528783Y-466227D02*
X-519319Y-467055D01*
X-527257Y-448794D02*
X-517794Y-449622D01*
X-528783Y-466227D02*
X-527257Y-448794D01*
X-519319Y-467055D02*
X-517794Y-449622D01*
X539919Y-329731D02*
X540747Y-339194D01*
X557353Y-328205D02*
X558181Y-337669D01*
X539919Y-329731D02*
X557353Y-328205D01*
X540747Y-339194D02*
X558181Y-337669D01*
X545353Y-285706D02*
X546181Y-295169D01*
X527919Y-287231D02*
X528747Y-296695D01*
X546181Y-295169D01*
X527919Y-287231D02*
X545353Y-285706D01*
X469581Y-335331D02*
X479045Y-334503D01*
X468055Y-317897D02*
X477519Y-317069D01*
X468055Y-317897D02*
X469581Y-335331D01*
X477519Y-317069D02*
X479045Y-334503D01*
X543577Y-269867D02*
X544405Y-279331D01*
X526144Y-271392D02*
X526972Y-280856D01*
X544405Y-279331D01*
X526144Y-271392D02*
X543577Y-269867D01*
X542103Y-254205D02*
X542931Y-263669D01*
X524669Y-255731D02*
X525497Y-265194D01*
X542931Y-263669D01*
X524669Y-255731D02*
X542103Y-254205D01*
X540453Y-227094D02*
X541978Y-244527D01*
X530989Y-227922D02*
X532514Y-245355D01*
X530989Y-227922D02*
X540453Y-227094D01*
X532514Y-245355D02*
X541978Y-244527D01*
X483806Y-232147D02*
X493269Y-231319D01*
X485331Y-249581D02*
X494795Y-248753D01*
X493269Y-231319D02*
X494795Y-248753D01*
X483806Y-232147D02*
X485331Y-249581D01*
X468055Y-233647D02*
X477519Y-232819D01*
X469581Y-251081D02*
X479045Y-250253D01*
X477519Y-232819D02*
X479045Y-250253D01*
X468055Y-233647D02*
X469581Y-251081D01*
X461769Y-234319D02*
X463295Y-251753D01*
X452305Y-235147D02*
X453831Y-252581D01*
X452305Y-235147D02*
X461769Y-234319D01*
X453831Y-252581D02*
X463295Y-251753D01*
X-536797Y-516806D02*
X-535272Y-499373D01*
X-546261Y-515978D02*
X-544736Y-498545D01*
X-535272Y-499373D01*
X-546261Y-515978D02*
X-536797Y-516806D01*
X-556323Y-488709D02*
X-555146Y-475260D01*
X-574254Y-487140D02*
X-573077Y-473691D01*
X-574254Y-487140D02*
X-556323Y-488709D01*
X-573077Y-473691D02*
X-555146Y-475260D01*
X-581757Y-513953D02*
X-580537Y-500006D01*
X-553863Y-516394D02*
X-552643Y-502447D01*
X-581757Y-513953D02*
X-553863Y-516394D01*
X-580537Y-500006D02*
X-552643Y-502447D01*
X429169Y-296481D02*
X446603Y-294956D01*
X429997Y-305944D02*
X447431Y-304419D01*
X429169Y-296481D02*
X429997Y-305944D01*
X446603Y-294956D02*
X447431Y-304419D01*
X508953Y-229844D02*
X510478Y-247278D01*
X499489Y-230672D02*
X501014Y-248106D01*
X499489Y-230672D02*
X508953Y-229844D01*
X501014Y-248106D02*
X510478Y-247278D01*
X515239Y-229172D02*
X516764Y-246605D01*
X524703Y-228344D02*
X526228Y-245777D01*
X516764Y-246605D02*
X526228Y-245777D01*
X515239Y-229172D02*
X524703Y-228344D01*
X436555Y-236647D02*
X438081Y-254081D01*
X446019Y-235819D02*
X447545Y-253253D01*
X438081Y-254081D02*
X447545Y-253253D01*
X436555Y-236647D02*
X446019Y-235819D01*
X427497Y-274445D02*
X444931Y-272919D01*
X426669Y-264981D02*
X444103Y-263456D01*
X444931Y-272919D01*
X426669Y-264981D02*
X427497Y-274445D01*
X428747Y-290195D02*
X446181Y-288669D01*
X427919Y-280731D02*
X445353Y-279205D01*
X446181Y-288669D01*
X427919Y-280731D02*
X428747Y-290195D01*
X461091Y-264565D02*
X501935Y-260991D01*
X464665Y-305409D02*
X505509Y-301835D01*
X461091Y-264565D02*
X464665Y-305409D01*
X501935Y-260991D02*
X505509Y-301835D01*
X510336Y-312795D02*
X511861Y-330228D01*
X500872Y-313623D02*
X502397Y-331056D01*
X500872Y-313623D02*
X510336Y-312795D01*
X502397Y-331056D02*
X511861Y-330228D01*
X584771Y-180809D02*
X633086Y-176582D01*
X594837Y-295869D02*
X643153Y-291642D01*
X633086Y-176582D02*
X643153Y-291642D01*
X584771Y-180809D02*
X594837Y-295869D01*
X576967Y-273673D02*
X586431Y-272845D01*
X578492Y-291106D02*
X587956Y-290278D01*
X586431Y-272845D02*
X587956Y-290278D01*
X576967Y-273673D02*
X578492Y-291106D01*
X569305Y-187897D02*
X578769Y-187069D01*
X570831Y-205331D02*
X580294Y-204503D01*
X578769Y-187069D02*
X580294Y-204503D01*
X569305Y-187897D02*
X570831Y-205331D01*
X577239Y-389422D02*
X578764Y-406855D01*
X586703Y-388594D02*
X588228Y-406027D01*
X578764Y-406855D02*
X588228Y-406027D01*
X577239Y-389422D02*
X586703Y-388594D01*
X570953Y-389844D02*
X572478Y-407277D01*
X561489Y-390672D02*
X563014Y-408106D01*
X561489Y-390672D02*
X570953Y-389844D01*
X563014Y-408106D02*
X572478Y-407277D01*
X555203Y-391344D02*
X556728Y-408778D01*
X545739Y-392172D02*
X547264Y-409605D01*
X545739Y-392172D02*
X555203Y-391344D01*
X547264Y-409605D02*
X556728Y-408778D01*
X529717Y-392423D02*
X539181Y-391595D01*
X531242Y-409856D02*
X540706Y-409028D01*
X539181Y-391595D02*
X540706Y-409028D01*
X529717Y-392423D02*
X531242Y-409856D01*
X523703Y-394344D02*
X525228Y-411777D01*
X514239Y-395172D02*
X515764Y-412605D01*
X514239Y-395172D02*
X523703Y-394344D01*
X515764Y-412605D02*
X525228Y-411777D01*
X507953Y-396094D02*
X509478Y-413527D01*
X498489Y-396922D02*
X500014Y-414356D01*
X498489Y-396922D02*
X507953Y-396094D01*
X500014Y-414356D02*
X509478Y-413527D01*
X482717Y-397673D02*
X492181Y-396845D01*
X484242Y-415106D02*
X493706Y-414278D01*
X492181Y-396845D02*
X493706Y-414278D01*
X482717Y-397673D02*
X484242Y-415106D01*
X476703Y-399594D02*
X478228Y-417028D01*
X467239Y-400422D02*
X468764Y-417855D01*
X467239Y-400422D02*
X476703Y-399594D01*
X468764Y-417855D02*
X478228Y-417028D01*
X451489Y-401672D02*
X453014Y-419105D01*
X460953Y-400844D02*
X462478Y-418278D01*
X453014Y-419105D02*
X462478Y-418278D01*
X451489Y-401672D02*
X460953Y-400844D01*
X445203Y-402094D02*
X446728Y-419528D01*
X435739Y-402922D02*
X437264Y-420355D01*
X435739Y-402922D02*
X445203Y-402094D01*
X437264Y-420355D02*
X446728Y-419528D01*
D133*
X-439473Y-269328D02*
G03*
X-439473Y-269328I-1689J0D01*
G01*
X-465155Y-264054D02*
X-437736Y-266453D01*
X-438740Y-277934D02*
X-437736Y-266453D01*
X-466160Y-275535D02*
X-438740Y-277934D01*
X-466160Y-275535D02*
X-465155Y-264054D01*
X-438069Y-278733D02*
X-436936Y-265782D01*
X-438740Y-277934D02*
X-438069Y-278733D01*
X-437736Y-266453D02*
X-436936Y-265782D01*
X-466959Y-276205D02*
X-438069Y-278733D01*
X-466959Y-276205D02*
X-466160Y-275535D01*
X-465826Y-263255D02*
X-465155Y-264054D01*
X-465826Y-263255D02*
X-436936Y-265782D01*
X-466959Y-276205D02*
X-465826Y-263255D01*
X-444156Y-263392D02*
X-439374Y-263811D01*
X-439526Y-265556D02*
X-438873Y-258084D01*
X-444308Y-265137D02*
X-443655Y-257666D01*
X-463083Y-261736D02*
X-458302Y-262155D01*
X-463236Y-263481D02*
X-462582Y-256010D01*
X-462866Y-259255D02*
X-458084Y-259674D01*
X-458454Y-263900D02*
X-457800Y-256428D01*
X-455275Y-281486D02*
X-450493Y-281904D01*
X-455559Y-284731D02*
X-454905Y-277260D01*
X-455058Y-279005D02*
X-450276Y-279423D01*
X-450777Y-285150D02*
X-450123Y-277678D01*
X-443938Y-260911D02*
X-439157Y-261330D01*
X-443917Y-260660D02*
X-439135Y-261078D01*
X-455297Y-281737D02*
X-450515Y-282155D01*
X-462844Y-259004D02*
X-458063Y-259422D01*
X-443837Y-259755D02*
X-439055Y-260173D01*
X-462765Y-258099D02*
X-457983Y-258517D01*
X-455376Y-282643D02*
X-450594Y-283061D01*
X-455559Y-284731D02*
X-450777Y-285150D01*
X-462582Y-256010D02*
X-457800Y-256428D01*
X-443655Y-257666D02*
X-438873Y-258084D01*
X558374Y-307424D02*
X559376Y-307336D01*
X559167Y-304945D02*
X560213Y-316900D01*
X558165Y-305033D02*
X559167Y-304945D01*
X559211Y-316987D02*
X560213Y-316900D01*
X559001Y-314597D02*
X560004Y-314509D01*
X528125Y-317298D02*
X529127Y-317210D01*
X527289Y-307734D02*
X528334Y-319689D01*
X529336Y-319601D01*
X527289Y-307734D02*
X528290Y-307647D01*
X527498Y-310125D02*
X528500Y-310037D01*
X529505Y-321594D02*
X559391Y-318979D01*
X528110Y-305655D02*
X529505Y-321594D01*
X530077Y-320912D01*
X558709Y-318407D02*
X559391Y-318979D01*
X557996Y-303040D02*
X559391Y-318979D01*
X528792Y-306227D02*
X530077Y-320912D01*
X552443Y-304158D02*
X553728Y-318843D01*
X530077Y-320912D02*
X558709Y-318407D01*
X557424Y-303722D02*
X558709Y-318407D01*
X528110Y-305655D02*
X557996Y-303040D01*
X528110Y-305655D02*
X528792Y-306227D01*
X557424Y-303722D01*
X557996Y-303040D01*
D134*
X-119798Y-516584D02*
X-89325Y-517223D01*
X-88102Y-458816D01*
X-118575Y-458177D02*
X-88102Y-458816D01*
X-119798Y-516584D02*
X-118575Y-458177D01*
M02*
