G04*
G04 #@! TF.GenerationSoftware,Altium Limited,Altium Designer,19.0.11 (319)*
G04*
G04 Layer_Color=32896*
%FSLAX44Y44*%
%MOMM*%
G71*
G01*
G75*
%ADD16C,0.0640*%
%ADD17C,0.0300*%
G36*
X76344Y-458758D02*
X72901D01*
Y-455704D01*
X76344D01*
Y-458758D01*
D02*
G37*
G36*
X181091Y-460396D02*
X179369D01*
X179258Y-459980D01*
X179147Y-459591D01*
X179092Y-459452D01*
X179064Y-459341D01*
X179036Y-459258D01*
Y-459230D01*
X178953Y-459008D01*
X178870Y-458814D01*
X178786Y-458619D01*
X178703Y-458480D01*
X178647Y-458369D01*
X178592Y-458286D01*
X178536Y-458258D01*
Y-458231D01*
X178287Y-457981D01*
X178064Y-457814D01*
X177898Y-457703D01*
X177870Y-457675D01*
X177842D01*
X177676Y-457620D01*
X177481Y-457564D01*
X177093Y-457509D01*
X176926Y-457481D01*
X175677D01*
Y-469946D01*
Y-470335D01*
Y-470668D01*
X175705Y-470779D01*
Y-470863D01*
Y-470918D01*
Y-470946D01*
X175732Y-471223D01*
X175816Y-471418D01*
X175871Y-471557D01*
X175899Y-471612D01*
X176038Y-471779D01*
X176177Y-471917D01*
X176288Y-472001D01*
X176315Y-472029D01*
X176343D01*
X176593Y-472112D01*
X176871Y-472195D01*
X176982Y-472223D01*
X177093D01*
X177148Y-472251D01*
X177176D01*
Y-473056D01*
X170291D01*
Y-472251D01*
X170597Y-472195D01*
X170791Y-472140D01*
X170930Y-472112D01*
X170985Y-472084D01*
X171152Y-472001D01*
X171263Y-471917D01*
X171346Y-471862D01*
X171374Y-471834D01*
X171540Y-471612D01*
X171596Y-471529D01*
X171624Y-471501D01*
X171679Y-471307D01*
X171735Y-471140D01*
X171763Y-471001D01*
Y-470946D01*
X171790Y-470640D01*
Y-470307D01*
Y-470168D01*
Y-470057D01*
Y-469974D01*
Y-469946D01*
Y-457481D01*
X170541D01*
X170291Y-457509D01*
X170124Y-457537D01*
X170069D01*
X169847Y-457592D01*
X169680Y-457648D01*
X169569Y-457675D01*
X169541Y-457703D01*
X169375Y-457786D01*
X169264Y-457897D01*
X169181Y-457981D01*
X169153Y-458009D01*
X169014Y-458175D01*
X168903Y-458314D01*
X168820Y-458425D01*
X168792Y-458480D01*
X168681Y-458703D01*
X168570Y-458925D01*
X168514Y-459091D01*
X168486Y-459147D01*
Y-459175D01*
X168431Y-459341D01*
X168375Y-459535D01*
X168237Y-459924D01*
X168181Y-460118D01*
X168126Y-460257D01*
X168098Y-460368D01*
Y-460396D01*
X166404D01*
Y-456037D01*
X181091D01*
Y-460396D01*
D02*
G37*
G36*
X21097Y-460396D02*
X19376D01*
X19265Y-459980D01*
X19154Y-459591D01*
X19098Y-459452D01*
X19070Y-459341D01*
X19043Y-459258D01*
Y-459230D01*
X18959Y-459008D01*
X18876Y-458814D01*
X18793Y-458619D01*
X18709Y-458480D01*
X18654Y-458369D01*
X18598Y-458286D01*
X18543Y-458258D01*
Y-458231D01*
X18293Y-457981D01*
X18071Y-457814D01*
X17904Y-457703D01*
X17877Y-457675D01*
X17849D01*
X17682Y-457620D01*
X17488Y-457564D01*
X17099Y-457509D01*
X16933Y-457481D01*
X15683D01*
Y-469946D01*
Y-470335D01*
Y-470668D01*
X15711Y-470779D01*
Y-470863D01*
Y-470918D01*
Y-470946D01*
X15739Y-471223D01*
X15822Y-471418D01*
X15878Y-471557D01*
X15905Y-471612D01*
X16044Y-471779D01*
X16183Y-471917D01*
X16294Y-472001D01*
X16322Y-472029D01*
X16350D01*
X16600Y-472112D01*
X16877Y-472195D01*
X16988Y-472223D01*
X17099D01*
X17155Y-472251D01*
X17183D01*
Y-473056D01*
X10297D01*
Y-472251D01*
X10603Y-472195D01*
X10797Y-472140D01*
X10936Y-472112D01*
X10992Y-472084D01*
X11158Y-472001D01*
X11269Y-471917D01*
X11352Y-471862D01*
X11380Y-471834D01*
X11547Y-471612D01*
X11602Y-471529D01*
X11630Y-471501D01*
X11686Y-471307D01*
X11741Y-471140D01*
X11769Y-471001D01*
Y-470946D01*
X11797Y-470640D01*
Y-470307D01*
Y-470168D01*
Y-470057D01*
Y-469974D01*
Y-469946D01*
Y-457481D01*
X10547D01*
X10297Y-457509D01*
X10131Y-457537D01*
X10075D01*
X9853Y-457592D01*
X9687Y-457648D01*
X9576Y-457675D01*
X9548Y-457703D01*
X9381Y-457786D01*
X9270Y-457897D01*
X9187Y-457981D01*
X9159Y-458009D01*
X9021Y-458175D01*
X8909Y-458314D01*
X8826Y-458425D01*
X8798Y-458480D01*
X8687Y-458703D01*
X8576Y-458925D01*
X8521Y-459091D01*
X8493Y-459147D01*
Y-459175D01*
X8437Y-459341D01*
X8382Y-459535D01*
X8243Y-459924D01*
X8188Y-460118D01*
X8132Y-460257D01*
X8104Y-460368D01*
Y-460396D01*
X6411D01*
Y-456037D01*
X21097D01*
Y-460396D01*
D02*
G37*
G36*
X149886Y-461201D02*
X148442D01*
X148387Y-460979D01*
X148331Y-460757D01*
X148276Y-460590D01*
X148248Y-460452D01*
X148220Y-460368D01*
X148192Y-460285D01*
X148165Y-460229D01*
X148054Y-460035D01*
X147942Y-459869D01*
X147859Y-459758D01*
X147831Y-459730D01*
X147637Y-459591D01*
X147471Y-459508D01*
X147332Y-459480D01*
X147276Y-459452D01*
X146971Y-459397D01*
X146693Y-459369D01*
X140808D01*
Y-459535D01*
X147082Y-472251D01*
Y-473083D01*
X144528D01*
X137587Y-456842D01*
Y-456037D01*
X149553D01*
X149886Y-461201D01*
D02*
G37*
G36*
X35478Y-456843D02*
X35172Y-456954D01*
X34950Y-457037D01*
X34811Y-457120D01*
X34756Y-457148D01*
X34562Y-457259D01*
X34451Y-457398D01*
X34367Y-457481D01*
X34340Y-457537D01*
X34256Y-457759D01*
X34201Y-457953D01*
X34173Y-458120D01*
Y-458175D01*
Y-458203D01*
X34145Y-458508D01*
Y-458841D01*
Y-458980D01*
Y-459063D01*
Y-459147D01*
Y-459175D01*
Y-469946D01*
Y-470335D01*
X34173Y-470668D01*
Y-470779D01*
X34201Y-470863D01*
Y-470918D01*
Y-470946D01*
X34228Y-471196D01*
X34284Y-471418D01*
X34340Y-471529D01*
X34367Y-471584D01*
X34478Y-471751D01*
X34589Y-471862D01*
X34701Y-471945D01*
X34756Y-471973D01*
X34978Y-472084D01*
X35228Y-472167D01*
X35394Y-472223D01*
X35450Y-472251D01*
X35478D01*
Y-473056D01*
X23207D01*
X22985Y-468503D01*
X24678D01*
X24762Y-468780D01*
X24845Y-469030D01*
X24900Y-469252D01*
X24956Y-469419D01*
X25011Y-469558D01*
X25067Y-469669D01*
X25095Y-469724D01*
Y-469752D01*
X25234Y-470057D01*
X25345Y-470280D01*
X25428Y-470418D01*
X25456Y-470474D01*
X25594Y-470668D01*
X25705Y-470835D01*
X25817Y-470946D01*
X25844Y-471001D01*
X26011Y-471140D01*
X26150Y-471251D01*
X26261Y-471334D01*
X26316Y-471362D01*
X26483Y-471446D01*
X26649Y-471501D01*
X26788Y-471557D01*
X26844D01*
X27066Y-471584D01*
X27316Y-471612D01*
X30286D01*
Y-464949D01*
X28426D01*
X28232Y-464977D01*
X28093Y-465005D01*
X27982Y-465032D01*
X27815Y-465088D01*
X27760Y-465116D01*
X27566Y-465255D01*
X27399Y-465421D01*
X27288Y-465588D01*
X27260Y-465615D01*
Y-465643D01*
X27177Y-465810D01*
X27094Y-465976D01*
X26983Y-466337D01*
X26927Y-466504D01*
X26899Y-466643D01*
X26872Y-466726D01*
Y-466754D01*
X25456D01*
Y-461673D01*
X26872D01*
X26927Y-461951D01*
X27010Y-462173D01*
X27066Y-462367D01*
X27121Y-462534D01*
X27177Y-462645D01*
X27232Y-462728D01*
X27260Y-462784D01*
Y-462811D01*
X27427Y-463033D01*
X27593Y-463200D01*
X27732Y-463311D01*
X27760Y-463339D01*
X27788D01*
X28038Y-463422D01*
X28315Y-463450D01*
X28426Y-463478D01*
X30286D01*
Y-457481D01*
X27232D01*
X26955Y-457509D01*
X26705Y-457564D01*
X26511Y-457592D01*
X26372Y-457648D01*
X26288Y-457703D01*
X26233Y-457731D01*
X26205D01*
X25928Y-457953D01*
X25705Y-458147D01*
X25567Y-458314D01*
X25511Y-458369D01*
Y-458397D01*
X25400Y-458592D01*
X25289Y-458814D01*
X25067Y-459369D01*
X24956Y-459619D01*
X24873Y-459813D01*
X24845Y-459952D01*
X24817Y-459980D01*
Y-460008D01*
X23096D01*
Y-456037D01*
X35478D01*
Y-456843D01*
D02*
G37*
G36*
X-36038Y-455454D02*
X-35926Y-455621D01*
X-35871Y-455732D01*
X-35843Y-455760D01*
X-35732Y-455843D01*
X-35621Y-455926D01*
X-35510Y-455954D01*
X-35482Y-455982D01*
X-35288Y-456010D01*
X-35066Y-456037D01*
X-27459D01*
Y-464561D01*
X-28570Y-465255D01*
X-29014Y-465144D01*
X-29402Y-465060D01*
X-29569Y-465032D01*
X-29708Y-465005D01*
X-29791Y-464977D01*
X-29819D01*
X-30346Y-464921D01*
X-30568Y-464894D01*
X-30763Y-464866D01*
X-31151D01*
X-31707Y-464894D01*
X-32206Y-465005D01*
X-32623Y-465144D01*
X-32956Y-465310D01*
X-33234Y-465504D01*
X-33400Y-465643D01*
X-33539Y-465754D01*
X-33567Y-465782D01*
X-33844Y-466171D01*
X-34039Y-466587D01*
X-34205Y-467031D01*
X-34289Y-467448D01*
X-34344Y-467836D01*
X-34400Y-468142D01*
Y-468253D01*
Y-468336D01*
Y-468392D01*
Y-468419D01*
X-34372Y-469030D01*
X-34289Y-469585D01*
X-34177Y-470030D01*
X-34067Y-470391D01*
X-33955Y-470668D01*
X-33844Y-470863D01*
X-33761Y-471001D01*
X-33733Y-471029D01*
X-33456Y-471307D01*
X-33150Y-471501D01*
X-32817Y-471668D01*
X-32484Y-471751D01*
X-32206Y-471806D01*
X-31957Y-471834D01*
X-31790Y-471862D01*
X-31734D01*
X-31346Y-471834D01*
X-31013Y-471751D01*
X-30707Y-471640D01*
X-30430Y-471529D01*
X-30235Y-471418D01*
X-30096Y-471307D01*
X-29985Y-471223D01*
X-29958Y-471196D01*
X-29736Y-470918D01*
X-29513Y-470585D01*
X-29347Y-470252D01*
X-29236Y-469919D01*
X-29125Y-469641D01*
X-29042Y-469391D01*
X-29014Y-469225D01*
X-28986Y-469197D01*
Y-469169D01*
X-26709D01*
Y-472306D01*
X-27098Y-472473D01*
X-27487Y-472612D01*
X-27875Y-472723D01*
X-28236Y-472806D01*
X-28570Y-472889D01*
X-28819Y-472945D01*
X-28986Y-473000D01*
X-29042D01*
X-29541Y-473083D01*
X-30041Y-473139D01*
X-30485Y-473195D01*
X-30874Y-473222D01*
X-31235D01*
X-31485Y-473250D01*
X-31707D01*
X-32456Y-473222D01*
X-33123Y-473167D01*
X-33706Y-473083D01*
X-34233Y-472972D01*
X-34650Y-472861D01*
X-34816Y-472834D01*
X-34955Y-472778D01*
X-35066Y-472750D01*
X-35149Y-472723D01*
X-35177Y-472695D01*
X-35205D01*
X-35732Y-472445D01*
X-36176Y-472167D01*
X-36565Y-471890D01*
X-36871Y-471612D01*
X-37120Y-471334D01*
X-37315Y-471140D01*
X-37426Y-471001D01*
X-37453Y-470946D01*
X-37703Y-470474D01*
X-37898Y-470002D01*
X-38036Y-469530D01*
X-38147Y-469058D01*
X-38203Y-468669D01*
X-38231Y-468336D01*
Y-468225D01*
Y-468142D01*
Y-468086D01*
Y-468059D01*
X-38203Y-467531D01*
X-38120Y-467031D01*
X-38009Y-466615D01*
X-37898Y-466226D01*
X-37787Y-465921D01*
X-37676Y-465699D01*
X-37592Y-465560D01*
X-37564Y-465504D01*
X-37315Y-465116D01*
X-37009Y-464783D01*
X-36704Y-464477D01*
X-36426Y-464255D01*
X-36176Y-464061D01*
X-35954Y-463950D01*
X-35815Y-463866D01*
X-35760Y-463839D01*
X-35316Y-463644D01*
X-34844Y-463506D01*
X-34400Y-463395D01*
X-33983Y-463339D01*
X-33622Y-463283D01*
X-33317Y-463256D01*
X-32651D01*
X-32290Y-463283D01*
X-31957D01*
X-31679Y-463311D01*
X-31429Y-463339D01*
X-31263D01*
X-31151Y-463367D01*
X-31124D01*
X-30568Y-463450D01*
X-30291Y-463506D01*
X-30069Y-463561D01*
X-29874Y-463589D01*
X-29736Y-463644D01*
X-29625Y-463672D01*
X-29597D01*
Y-459175D01*
X-37287D01*
X-37537Y-455205D01*
X-36149D01*
X-36038Y-455454D01*
D02*
G37*
G36*
X164350Y-456842D02*
X164045Y-456954D01*
X163822Y-457037D01*
X163684Y-457120D01*
X163628Y-457148D01*
X163434Y-457259D01*
X163323Y-457398D01*
X163239Y-457481D01*
X163212Y-457537D01*
X163128Y-457759D01*
X163073Y-457953D01*
X163045Y-458120D01*
Y-458175D01*
Y-458203D01*
X163017Y-458508D01*
Y-458841D01*
Y-458980D01*
Y-459063D01*
Y-459147D01*
Y-459175D01*
Y-469919D01*
Y-470335D01*
X163045Y-470502D01*
Y-470668D01*
Y-470779D01*
X163073Y-470863D01*
Y-470918D01*
Y-470946D01*
X163101Y-471196D01*
X163156Y-471418D01*
X163212Y-471529D01*
X163239Y-471584D01*
X163351Y-471751D01*
X163462Y-471890D01*
X163573Y-471973D01*
X163628Y-472001D01*
X163850Y-472084D01*
X164100Y-472167D01*
X164267Y-472223D01*
X164322Y-472251D01*
X164350D01*
Y-473056D01*
X157632D01*
Y-472251D01*
X157937Y-472195D01*
X158159Y-472140D01*
X158298Y-472112D01*
X158353Y-472084D01*
X158520Y-472001D01*
X158631Y-471917D01*
X158714Y-471862D01*
X158742Y-471834D01*
X158909Y-471612D01*
X158964Y-471529D01*
X158992Y-471501D01*
X159047Y-471307D01*
X159103Y-471140D01*
X159131Y-471001D01*
Y-470946D01*
X159158Y-470640D01*
Y-470307D01*
Y-470168D01*
Y-470057D01*
Y-469974D01*
Y-469946D01*
Y-465310D01*
X157548D01*
X157187Y-465338D01*
X156910Y-465393D01*
X156743Y-465449D01*
X156688Y-465477D01*
X156466Y-465643D01*
X156299Y-465838D01*
X156188Y-466004D01*
X156160Y-466060D01*
Y-466087D01*
X156077Y-466254D01*
X155993Y-466448D01*
X155883Y-466865D01*
X155827Y-467031D01*
X155799Y-467170D01*
X155771Y-467281D01*
Y-467309D01*
X154383D01*
Y-461867D01*
X155771D01*
X155827Y-462145D01*
X155883Y-462367D01*
X155938Y-462589D01*
X155993Y-462756D01*
X156049Y-462895D01*
X156105Y-462978D01*
X156132Y-463033D01*
Y-463061D01*
X156299Y-463339D01*
X156466Y-463533D01*
X156604Y-463644D01*
X156632Y-463672D01*
X156660D01*
X156938Y-463755D01*
X157215Y-463811D01*
X157354Y-463839D01*
X159158D01*
Y-457481D01*
X156410D01*
X156132Y-457509D01*
X155883Y-457564D01*
X155688Y-457592D01*
X155549Y-457648D01*
X155466Y-457703D01*
X155410Y-457731D01*
X155383D01*
X155105Y-457953D01*
X154911Y-458147D01*
X154772Y-458314D01*
X154717Y-458369D01*
Y-458397D01*
X154605Y-458592D01*
X154467Y-458814D01*
X154244Y-459369D01*
X154134Y-459619D01*
X154050Y-459813D01*
X154022Y-459952D01*
X153995Y-459980D01*
Y-460007D01*
X152273D01*
Y-456037D01*
X164350D01*
Y-456842D01*
D02*
G37*
G36*
X109214Y-460507D02*
X109409D01*
X109547Y-460535D01*
X109658D01*
X109742Y-460563D01*
X109769D01*
X110214Y-460646D01*
X110658Y-460729D01*
X110824Y-460785D01*
X110963Y-460813D01*
X111074Y-460840D01*
X111102D01*
X111629Y-460979D01*
X111879Y-461062D01*
X112129Y-461118D01*
X112324Y-461174D01*
X112462Y-461229D01*
X112573Y-461284D01*
X112601D01*
X112907Y-461396D01*
X113212Y-461507D01*
X113545Y-461645D01*
X113850Y-461757D01*
X114100Y-461867D01*
X114323Y-461979D01*
X114461Y-462034D01*
X114517Y-462062D01*
Y-464338D01*
X112157D01*
X112074Y-463978D01*
X112018Y-463672D01*
X111935Y-463395D01*
X111852Y-463172D01*
X111768Y-463006D01*
X111713Y-462895D01*
X111657Y-462811D01*
Y-462784D01*
X111518Y-462589D01*
X111380Y-462423D01*
X111241Y-462312D01*
X111130Y-462201D01*
X111019Y-462117D01*
X110963Y-462062D01*
X110908Y-462034D01*
X110880D01*
X110547Y-461923D01*
X110241Y-461867D01*
X110103Y-461840D01*
X109908D01*
X109492Y-461867D01*
X109186Y-461951D01*
X109075Y-462006D01*
X108992Y-462062D01*
X108937Y-462090D01*
X108909D01*
X108770Y-462201D01*
X108631Y-462340D01*
X108409Y-462617D01*
X108354Y-462756D01*
X108298Y-462867D01*
X108243Y-462950D01*
Y-462978D01*
X108159Y-463228D01*
X108076Y-463533D01*
X108020Y-463811D01*
X107993Y-464116D01*
X107965Y-464366D01*
Y-464561D01*
Y-464699D01*
Y-464755D01*
Y-465949D01*
X108631Y-466004D01*
X109270Y-466087D01*
X109853Y-466171D01*
X110380Y-466282D01*
X110880Y-466393D01*
X111324Y-466504D01*
X111741Y-466615D01*
X112101Y-466726D01*
X112407Y-466837D01*
X112684Y-466920D01*
X112934Y-467031D01*
X113129Y-467115D01*
X113267Y-467170D01*
X113379Y-467226D01*
X113434Y-467281D01*
X113462D01*
X113767Y-467476D01*
X114045Y-467698D01*
X114295Y-467948D01*
X114517Y-468170D01*
X114683Y-468419D01*
X114822Y-468669D01*
X115044Y-469114D01*
X115183Y-469530D01*
X115239Y-469863D01*
X115266Y-470002D01*
Y-470085D01*
Y-470141D01*
Y-470168D01*
X115239Y-470502D01*
X115211Y-470807D01*
X115128Y-471085D01*
X115044Y-471307D01*
X114989Y-471501D01*
X114906Y-471668D01*
X114878Y-471751D01*
X114850Y-471779D01*
X114683Y-472029D01*
X114489Y-472251D01*
X114295Y-472417D01*
X114100Y-472584D01*
X113934Y-472695D01*
X113795Y-472778D01*
X113684Y-472834D01*
X113656Y-472861D01*
X113351Y-473000D01*
X113018Y-473083D01*
X112712Y-473167D01*
X112407Y-473195D01*
X112157Y-473222D01*
X111963Y-473250D01*
X111768D01*
X111380Y-473222D01*
X110991Y-473167D01*
X110658Y-473111D01*
X110352Y-473028D01*
X110103Y-472945D01*
X109908Y-472861D01*
X109797Y-472834D01*
X109742Y-472806D01*
X109381Y-472612D01*
X109020Y-472389D01*
X108687Y-472140D01*
X108381Y-471917D01*
X108132Y-471695D01*
X107909Y-471529D01*
X107798Y-471418D01*
X107743Y-471362D01*
X107549Y-471446D01*
X107660Y-473056D01*
X103023D01*
Y-472251D01*
X103190Y-472195D01*
X103329Y-472167D01*
X103551Y-472084D01*
X103690Y-472056D01*
X103717Y-472029D01*
X103828Y-471973D01*
X103939Y-471890D01*
X103995Y-471862D01*
X104023Y-471834D01*
X104106Y-471723D01*
X104162Y-471612D01*
X104189Y-471501D01*
X104217Y-471473D01*
X104273Y-471279D01*
X104300Y-471057D01*
X104328Y-470890D01*
Y-470835D01*
Y-470807D01*
Y-470613D01*
X104356Y-470418D01*
Y-470002D01*
Y-469808D01*
Y-469669D01*
Y-469558D01*
Y-469530D01*
Y-464672D01*
X104384Y-464116D01*
X104439Y-463616D01*
X104495Y-463200D01*
X104578Y-462839D01*
X104689Y-462562D01*
X104745Y-462367D01*
X104800Y-462228D01*
X104828Y-462201D01*
X105022Y-461867D01*
X105217Y-461618D01*
X105466Y-461396D01*
X105661Y-461201D01*
X105883Y-461062D01*
X106049Y-460979D01*
X106160Y-460924D01*
X106188Y-460896D01*
X106549Y-460757D01*
X106938Y-460646D01*
X107326Y-460591D01*
X107715Y-460535D01*
X108048Y-460507D01*
X108326Y-460479D01*
X109020D01*
X109214Y-460507D01*
D02*
G37*
G36*
X4912Y-466781D02*
Y-468114D01*
X-1779D01*
Y-469974D01*
Y-470391D01*
X-1751Y-470557D01*
Y-470696D01*
Y-470807D01*
X-1724Y-470890D01*
Y-470946D01*
Y-470974D01*
X-1696Y-471223D01*
X-1640Y-471418D01*
X-1585Y-471529D01*
X-1557Y-471584D01*
X-1446Y-471751D01*
X-1307Y-471862D01*
X-1196Y-471945D01*
X-1141Y-471973D01*
X-918Y-472084D01*
X-696Y-472167D01*
X-530Y-472223D01*
X-474Y-472251D01*
X-446D01*
Y-473056D01*
X-6832D01*
Y-472251D01*
X-6554Y-472167D01*
X-6332Y-472084D01*
X-6193Y-472056D01*
X-6138Y-472029D01*
X-5971Y-471917D01*
X-5860Y-471806D01*
X-5777Y-471695D01*
X-5749Y-471668D01*
X-5666Y-471473D01*
X-5583Y-471279D01*
X-5555Y-471112D01*
X-5527Y-471085D01*
Y-471057D01*
X-5499Y-470724D01*
X-5471Y-470363D01*
Y-470196D01*
Y-470085D01*
Y-470002D01*
Y-469974D01*
Y-468114D01*
X-8664D01*
X-8803Y-465366D01*
X-7498D01*
X-7442Y-465560D01*
X-7359Y-465727D01*
X-7304Y-465865D01*
X-7248Y-465976D01*
X-7165Y-466115D01*
X-7137Y-466171D01*
X-6998Y-466310D01*
X-6859Y-466393D01*
X-6776Y-466448D01*
X-6721Y-466476D01*
X-6610Y-466504D01*
X-6471Y-466532D01*
X-6193Y-466559D01*
X-5471D01*
Y-455926D01*
X-2667D01*
X4912Y-466781D01*
D02*
G37*
G36*
X43945Y-467559D02*
X38032D01*
Y-464949D01*
X43945D01*
Y-467559D01*
D02*
G37*
G36*
X64073Y-460507D02*
X64684Y-460591D01*
X65239Y-460729D01*
X65711Y-460868D01*
X66100Y-461007D01*
X66377Y-461146D01*
X66488Y-461174D01*
X66571Y-461229D01*
X66599Y-461257D01*
X66627D01*
X67127Y-461562D01*
X67543Y-461923D01*
X67932Y-462284D01*
X68237Y-462645D01*
X68459Y-462978D01*
X68654Y-463228D01*
X68709Y-463339D01*
X68765Y-463422D01*
X68793Y-463450D01*
Y-463478D01*
X69042Y-464033D01*
X69237Y-464616D01*
X69348Y-465199D01*
X69459Y-465754D01*
X69514Y-466226D01*
Y-466421D01*
X69542Y-466615D01*
Y-466754D01*
Y-466865D01*
Y-466920D01*
Y-466948D01*
X69514Y-467503D01*
X69486Y-468059D01*
X69403Y-468558D01*
X69320Y-469002D01*
X69209Y-469419D01*
X69070Y-469808D01*
X68931Y-470168D01*
X68793Y-470474D01*
X68681Y-470751D01*
X68543Y-471001D01*
X68404Y-471196D01*
X68293Y-471362D01*
X68210Y-471501D01*
X68126Y-471584D01*
X68098Y-471640D01*
X68071Y-471668D01*
X67765Y-471945D01*
X67460Y-472195D01*
X67127Y-472389D01*
X66766Y-472584D01*
X66405Y-472723D01*
X66044Y-472861D01*
X65322Y-473056D01*
X64989Y-473111D01*
X64684Y-473167D01*
X64406Y-473195D01*
X64156Y-473222D01*
X63962Y-473250D01*
X63684D01*
X63101Y-473222D01*
X62546Y-473167D01*
X62074Y-473083D01*
X61658Y-472972D01*
X61297Y-472861D01*
X61047Y-472778D01*
X60880Y-472723D01*
X60825Y-472695D01*
X60353Y-472445D01*
X59909Y-472167D01*
X59464Y-471862D01*
X59103Y-471529D01*
X58770Y-471251D01*
X58520Y-471029D01*
X58354Y-470863D01*
X58298Y-470835D01*
Y-470807D01*
X59298Y-469697D01*
X59631Y-470002D01*
X59936Y-470252D01*
X60214Y-470474D01*
X60464Y-470640D01*
X60658Y-470779D01*
X60825Y-470863D01*
X60936Y-470918D01*
X60964Y-470946D01*
X61241Y-471057D01*
X61547Y-471140D01*
X61824Y-471223D01*
X62102Y-471251D01*
X62324Y-471279D01*
X62491Y-471307D01*
X62657D01*
X63240Y-471251D01*
X63740Y-471140D01*
X64156Y-470974D01*
X64489Y-470779D01*
X64767Y-470585D01*
X64961Y-470418D01*
X65072Y-470307D01*
X65100Y-470252D01*
X65350Y-469808D01*
X65544Y-469280D01*
X65683Y-468725D01*
X65766Y-468170D01*
X65822Y-467698D01*
X65850Y-467476D01*
X65877Y-467281D01*
Y-467142D01*
Y-467031D01*
Y-466948D01*
Y-466920D01*
X57965D01*
X57993Y-466393D01*
X58021Y-465893D01*
X58076Y-465477D01*
X58104Y-465116D01*
X58159Y-464810D01*
X58215Y-464588D01*
X58243Y-464449D01*
Y-464394D01*
X58326Y-464033D01*
X58437Y-463700D01*
X58548Y-463395D01*
X58659Y-463117D01*
X58770Y-462923D01*
X58854Y-462756D01*
X58909Y-462645D01*
X58937Y-462617D01*
X59270Y-462145D01*
X59437Y-461951D01*
X59603Y-461784D01*
X59742Y-461673D01*
X59853Y-461562D01*
X59936Y-461507D01*
X59964Y-461479D01*
X60464Y-461174D01*
X60686Y-461035D01*
X60936Y-460951D01*
X61130Y-460868D01*
X61297Y-460813D01*
X61408Y-460757D01*
X61435D01*
X61769Y-460674D01*
X62102Y-460591D01*
X62435Y-460535D01*
X62740Y-460507D01*
X62990Y-460479D01*
X63407D01*
X64073Y-460507D01*
D02*
G37*
G36*
X122374Y-455871D02*
X123206Y-455982D01*
X123928Y-456176D01*
X124261Y-456259D01*
X124539Y-456371D01*
X124817Y-456482D01*
X125066Y-456565D01*
X125261Y-456676D01*
X125427Y-456759D01*
X125566Y-456815D01*
X125677Y-456870D01*
X125733Y-456926D01*
X125760D01*
X126399Y-457370D01*
X126926Y-457870D01*
X127399Y-458369D01*
X127759Y-458869D01*
X128065Y-459313D01*
X128176Y-459508D01*
X128287Y-459674D01*
X128370Y-459813D01*
X128398Y-459924D01*
X128453Y-459980D01*
Y-460007D01*
X128759Y-460785D01*
X128981Y-461590D01*
X129148Y-462367D01*
X129258Y-463117D01*
X129286Y-463450D01*
X129314Y-463755D01*
X129342Y-464033D01*
Y-464283D01*
X129370Y-464449D01*
Y-464616D01*
Y-464699D01*
Y-464727D01*
X129342Y-465754D01*
X129286Y-466226D01*
X129258Y-466698D01*
X129175Y-467115D01*
X129120Y-467503D01*
X129064Y-467864D01*
X128981Y-468197D01*
X128898Y-468503D01*
X128842Y-468753D01*
X128759Y-468975D01*
X128703Y-469169D01*
X128675Y-469308D01*
X128620Y-469419D01*
X128592Y-469474D01*
Y-469502D01*
X128259Y-470168D01*
X127898Y-470751D01*
X127482Y-471223D01*
X127093Y-471612D01*
X126732Y-471945D01*
X126455Y-472167D01*
X126343Y-472223D01*
X126260Y-472278D01*
X126205Y-472334D01*
X126177D01*
X125511Y-472639D01*
X124817Y-472861D01*
X124122Y-473028D01*
X123428Y-473139D01*
X123123Y-473167D01*
X122845Y-473195D01*
X122596Y-473222D01*
X122374D01*
X122179Y-473250D01*
X121485D01*
X121041Y-473222D01*
X120652Y-473195D01*
X120291Y-473167D01*
X119986D01*
X119764Y-473139D01*
X119625Y-473111D01*
X119570D01*
X118709Y-472972D01*
X118265Y-472889D01*
X117904Y-472834D01*
X117571Y-472750D01*
X117293Y-472695D01*
X117127Y-472639D01*
X117071D01*
Y-468864D01*
X118764D01*
X118848Y-469252D01*
X118959Y-469613D01*
X119070Y-469891D01*
X119153Y-470141D01*
X119236Y-470335D01*
X119320Y-470474D01*
X119347Y-470557D01*
X119375Y-470585D01*
X119514Y-470807D01*
X119653Y-470974D01*
X119819Y-471140D01*
X119958Y-471279D01*
X120097Y-471362D01*
X120180Y-471446D01*
X120264Y-471473D01*
X120291Y-471501D01*
X120513Y-471612D01*
X120763Y-471668D01*
X121235Y-471779D01*
X121430Y-471779D01*
X121596Y-471806D01*
X121763D01*
X122096Y-471779D01*
X122401Y-471723D01*
X122679Y-471640D01*
X122956Y-471529D01*
X123428Y-471251D01*
X123789Y-470918D01*
X124095Y-470585D01*
X124317Y-470307D01*
X124372Y-470196D01*
X124428Y-470113D01*
X124483Y-470057D01*
Y-470030D01*
X124650Y-469669D01*
X124789Y-469280D01*
X125011Y-468447D01*
X125177Y-467587D01*
X125288Y-466726D01*
X125316Y-466337D01*
X125344Y-465976D01*
X125372Y-465643D01*
Y-465338D01*
X125400Y-465116D01*
Y-464921D01*
Y-464810D01*
Y-464782D01*
Y-464116D01*
X125344Y-463478D01*
X125316Y-462895D01*
X125233Y-462340D01*
X125177Y-461840D01*
X125094Y-461368D01*
X124983Y-460951D01*
X124900Y-460590D01*
X124817Y-460257D01*
X124705Y-459980D01*
X124622Y-459730D01*
X124567Y-459535D01*
X124483Y-459369D01*
X124456Y-459258D01*
X124400Y-459202D01*
Y-459175D01*
X124206Y-458841D01*
X123984Y-458564D01*
X123734Y-458286D01*
X123484Y-458092D01*
X123262Y-457897D01*
X123012Y-457759D01*
X122512Y-457509D01*
X122068Y-457398D01*
X121902Y-457342D01*
X121735Y-457314D01*
X121596Y-457287D01*
X121402D01*
X121013Y-457314D01*
X120680Y-457398D01*
X120402Y-457509D01*
X120153Y-457620D01*
X119958Y-457731D01*
X119819Y-457842D01*
X119736Y-457925D01*
X119708Y-457953D01*
X119486Y-458231D01*
X119292Y-458564D01*
X119125Y-458897D01*
X118987Y-459230D01*
X118903Y-459563D01*
X118820Y-459813D01*
X118764Y-459980D01*
Y-460008D01*
Y-460035D01*
X117071D01*
Y-456426D01*
X117487Y-456315D01*
X117876Y-456204D01*
X118237Y-456121D01*
X118542Y-456065D01*
X118820Y-456010D01*
X119042Y-455982D01*
X119153Y-455954D01*
X119209D01*
X119986Y-455871D01*
X120375Y-455843D01*
X120736D01*
X121041Y-455815D01*
X121485Y-455815D01*
X122374Y-455871D01*
D02*
G37*
G36*
X-48197Y-455871D02*
X-47365Y-455982D01*
X-46643Y-456176D01*
X-46310Y-456260D01*
X-46032Y-456371D01*
X-45754Y-456482D01*
X-45504Y-456565D01*
X-45310Y-456676D01*
X-45144Y-456759D01*
X-45005Y-456815D01*
X-44894Y-456870D01*
X-44838Y-456926D01*
X-44811D01*
X-44172Y-457370D01*
X-43644Y-457870D01*
X-43172Y-458369D01*
X-42812Y-458869D01*
X-42506Y-459313D01*
X-42395Y-459508D01*
X-42284Y-459674D01*
X-42201Y-459813D01*
X-42173Y-459924D01*
X-42118Y-459980D01*
Y-460008D01*
X-41812Y-460785D01*
X-41590Y-461590D01*
X-41424Y-462367D01*
X-41312Y-463117D01*
X-41285Y-463450D01*
X-41257Y-463755D01*
X-41229Y-464033D01*
Y-464283D01*
X-41201Y-464449D01*
Y-464616D01*
Y-464699D01*
Y-464727D01*
X-41229Y-465754D01*
X-41285Y-466226D01*
X-41312Y-466698D01*
X-41396Y-467115D01*
X-41451Y-467503D01*
X-41507Y-467864D01*
X-41590Y-468197D01*
X-41673Y-468503D01*
X-41729Y-468753D01*
X-41812Y-468975D01*
X-41868Y-469169D01*
X-41895Y-469308D01*
X-41951Y-469419D01*
X-41979Y-469474D01*
Y-469502D01*
X-42312Y-470168D01*
X-42673Y-470751D01*
X-43089Y-471223D01*
X-43478Y-471612D01*
X-43839Y-471945D01*
X-44116Y-472167D01*
X-44227Y-472223D01*
X-44311Y-472278D01*
X-44366Y-472334D01*
X-44394D01*
X-45060Y-472639D01*
X-45754Y-472861D01*
X-46448Y-473028D01*
X-47143Y-473139D01*
X-47448Y-473167D01*
X-47726Y-473195D01*
X-47975Y-473222D01*
X-48197D01*
X-48392Y-473250D01*
X-49086D01*
X-49530Y-473222D01*
X-49919Y-473195D01*
X-50280Y-473167D01*
X-50585D01*
X-50807Y-473139D01*
X-50946Y-473111D01*
X-51001D01*
X-51862Y-472972D01*
X-52306Y-472889D01*
X-52667Y-472834D01*
X-53000Y-472750D01*
X-53278Y-472695D01*
X-53444Y-472639D01*
X-53500D01*
Y-468864D01*
X-51807D01*
X-51723Y-469252D01*
X-51612Y-469613D01*
X-51501Y-469891D01*
X-51418Y-470141D01*
X-51335Y-470335D01*
X-51251Y-470474D01*
X-51224Y-470557D01*
X-51196Y-470585D01*
X-51057Y-470807D01*
X-50918Y-470974D01*
X-50752Y-471140D01*
X-50613Y-471279D01*
X-50474Y-471362D01*
X-50391Y-471446D01*
X-50307Y-471473D01*
X-50280Y-471501D01*
X-50058Y-471612D01*
X-49808Y-471668D01*
X-49336Y-471779D01*
X-49141D01*
X-48975Y-471806D01*
X-48808D01*
X-48475Y-471779D01*
X-48170Y-471723D01*
X-47892Y-471640D01*
X-47614Y-471529D01*
X-47143Y-471251D01*
X-46782Y-470918D01*
X-46476Y-470585D01*
X-46254Y-470307D01*
X-46199Y-470196D01*
X-46143Y-470113D01*
X-46087Y-470057D01*
Y-470030D01*
X-45921Y-469669D01*
X-45782Y-469280D01*
X-45560Y-468447D01*
X-45394Y-467587D01*
X-45282Y-466726D01*
X-45255Y-466337D01*
X-45227Y-465976D01*
X-45199Y-465643D01*
Y-465338D01*
X-45171Y-465116D01*
Y-464921D01*
Y-464810D01*
Y-464783D01*
Y-464116D01*
X-45227Y-463478D01*
X-45255Y-462895D01*
X-45338Y-462340D01*
X-45394Y-461840D01*
X-45477Y-461368D01*
X-45588Y-460951D01*
X-45671Y-460591D01*
X-45754Y-460257D01*
X-45865Y-459980D01*
X-45949Y-459730D01*
X-46004Y-459535D01*
X-46087Y-459369D01*
X-46115Y-459258D01*
X-46171Y-459202D01*
Y-459175D01*
X-46365Y-458842D01*
X-46587Y-458564D01*
X-46837Y-458286D01*
X-47087Y-458092D01*
X-47309Y-457898D01*
X-47559Y-457759D01*
X-48059Y-457509D01*
X-48503Y-457398D01*
X-48669Y-457342D01*
X-48836Y-457315D01*
X-48975Y-457287D01*
X-49169D01*
X-49558Y-457315D01*
X-49891Y-457398D01*
X-50169Y-457509D01*
X-50418Y-457620D01*
X-50613Y-457731D01*
X-50752Y-457842D01*
X-50835Y-457925D01*
X-50863Y-457953D01*
X-51085Y-458231D01*
X-51279Y-458564D01*
X-51446Y-458897D01*
X-51584Y-459230D01*
X-51668Y-459563D01*
X-51751Y-459813D01*
X-51807Y-459980D01*
Y-460008D01*
Y-460035D01*
X-53500D01*
Y-456426D01*
X-53084Y-456315D01*
X-52695Y-456204D01*
X-52334Y-456121D01*
X-52029Y-456065D01*
X-51751Y-456010D01*
X-51529Y-455982D01*
X-51418Y-455954D01*
X-51362D01*
X-50585Y-455871D01*
X-50196Y-455843D01*
X-49835D01*
X-49530Y-455815D01*
X-49086D01*
X-48197Y-455871D01*
D02*
G37*
G36*
X92890Y-460507D02*
X93279Y-460563D01*
X93612Y-460618D01*
X93917Y-460701D01*
X94195Y-460813D01*
X94389Y-460868D01*
X94500Y-460924D01*
X94556Y-460951D01*
X94917Y-461146D01*
X95250Y-461396D01*
X95555Y-461645D01*
X95833Y-461895D01*
X96083Y-462145D01*
X96249Y-462340D01*
X96360Y-462450D01*
X96416Y-462506D01*
X96582Y-462478D01*
X96416Y-460591D01*
X97971D01*
X101413Y-460674D01*
Y-461534D01*
X101191Y-461590D01*
X101024Y-461618D01*
X100886Y-461673D01*
X100774Y-461729D01*
X100691Y-461784D01*
X100636Y-461812D01*
X100580Y-461840D01*
X100414Y-461979D01*
X100303Y-462117D01*
X100247Y-462228D01*
X100219Y-462284D01*
X100136Y-462506D01*
X100080Y-462728D01*
X100053Y-462895D01*
Y-462950D01*
Y-462978D01*
Y-463172D01*
X100025Y-463367D01*
Y-463811D01*
Y-464033D01*
Y-464200D01*
Y-464311D01*
Y-464338D01*
Y-469474D01*
Y-469891D01*
Y-470224D01*
X100053Y-470529D01*
Y-470751D01*
X100080Y-470918D01*
Y-471029D01*
X100108Y-471085D01*
Y-471112D01*
X100191Y-471418D01*
X100303Y-471640D01*
X100386Y-471779D01*
X100414Y-471834D01*
X100525Y-471917D01*
X100636Y-472001D01*
X100913Y-472140D01*
X101052Y-472195D01*
X101135Y-472223D01*
X101219Y-472251D01*
X101247D01*
Y-473056D01*
X95083D01*
Y-472251D01*
X95305Y-472195D01*
X95500Y-472140D01*
X95639Y-472084D01*
X95777Y-472001D01*
X95861Y-471945D01*
X95916Y-471917D01*
X95972Y-471862D01*
X96138Y-471640D01*
X96249Y-471390D01*
X96277Y-471279D01*
X96305Y-471196D01*
X96333Y-471140D01*
Y-471112D01*
X96360Y-470918D01*
X96388Y-470668D01*
X96416Y-470113D01*
Y-469863D01*
Y-469669D01*
Y-469530D01*
Y-469474D01*
Y-465477D01*
Y-465255D01*
Y-465060D01*
Y-464894D01*
X96388Y-464755D01*
Y-464644D01*
Y-464561D01*
Y-464533D01*
Y-464505D01*
X96333Y-464255D01*
X96277Y-464061D01*
X96249Y-463922D01*
X96222Y-463866D01*
X96110Y-463616D01*
X95972Y-463422D01*
X95888Y-463283D01*
X95833Y-463228D01*
X95611Y-463033D01*
X95389Y-462867D01*
X95250Y-462784D01*
X95222Y-462756D01*
X95194D01*
X94972Y-462645D01*
X94778Y-462617D01*
X94667Y-462589D01*
X94611D01*
X94417Y-462617D01*
X94223Y-462645D01*
X93945Y-462784D01*
X93834Y-462867D01*
X93751Y-462923D01*
X93723Y-462950D01*
X93695Y-462978D01*
X93556Y-463145D01*
X93445Y-463311D01*
X93279Y-463672D01*
X93223Y-463839D01*
X93168Y-463978D01*
X93140Y-464061D01*
Y-464089D01*
X90863D01*
Y-460646D01*
X91474Y-460535D01*
X91752Y-460507D01*
X91974D01*
X92196Y-460479D01*
X92474D01*
X92890Y-460507D01*
D02*
G37*
G36*
X81091D02*
X81480Y-460563D01*
X81813Y-460618D01*
X82118Y-460701D01*
X82396Y-460813D01*
X82590Y-460868D01*
X82701Y-460924D01*
X82757Y-460951D01*
X83118Y-461146D01*
X83451Y-461396D01*
X83756Y-461645D01*
X84034Y-461895D01*
X84284Y-462145D01*
X84450Y-462340D01*
X84561Y-462450D01*
X84617Y-462506D01*
X84783Y-462478D01*
X84617Y-460591D01*
X86172D01*
X89614Y-460674D01*
Y-461534D01*
X89392Y-461590D01*
X89226Y-461618D01*
X89087Y-461673D01*
X88976Y-461729D01*
X88892Y-461784D01*
X88837Y-461812D01*
X88781Y-461840D01*
X88615Y-461979D01*
X88504Y-462117D01*
X88448Y-462228D01*
X88420Y-462284D01*
X88337Y-462506D01*
X88281Y-462728D01*
X88254Y-462895D01*
Y-462950D01*
Y-462978D01*
Y-463172D01*
X88226Y-463367D01*
Y-463811D01*
Y-464033D01*
Y-464200D01*
Y-464311D01*
Y-464338D01*
Y-469474D01*
Y-469891D01*
Y-470224D01*
X88254Y-470529D01*
Y-470751D01*
X88281Y-470918D01*
Y-471029D01*
X88309Y-471085D01*
Y-471112D01*
X88393Y-471418D01*
X88504Y-471640D01*
X88587Y-471779D01*
X88615Y-471834D01*
X88726Y-471917D01*
X88837Y-472001D01*
X89114Y-472140D01*
X89253Y-472195D01*
X89337Y-472223D01*
X89420Y-472251D01*
X89447D01*
Y-473056D01*
X83284D01*
Y-472251D01*
X83506Y-472195D01*
X83701Y-472140D01*
X83840Y-472084D01*
X83978Y-472001D01*
X84062Y-471945D01*
X84117Y-471917D01*
X84173Y-471862D01*
X84339Y-471640D01*
X84450Y-471390D01*
X84478Y-471279D01*
X84506Y-471196D01*
X84534Y-471140D01*
Y-471112D01*
X84561Y-470918D01*
X84589Y-470668D01*
X84617Y-470113D01*
Y-469863D01*
Y-469669D01*
Y-469530D01*
Y-469474D01*
Y-465477D01*
Y-465255D01*
Y-465060D01*
Y-464894D01*
X84589Y-464755D01*
Y-464644D01*
Y-464561D01*
Y-464533D01*
Y-464505D01*
X84534Y-464255D01*
X84478Y-464061D01*
X84450Y-463922D01*
X84423Y-463866D01*
X84312Y-463616D01*
X84173Y-463422D01*
X84089Y-463283D01*
X84034Y-463228D01*
X83812Y-463033D01*
X83590Y-462867D01*
X83451Y-462784D01*
X83423Y-462756D01*
X83395D01*
X83173Y-462645D01*
X82979Y-462617D01*
X82868Y-462589D01*
X82812D01*
X82618Y-462617D01*
X82424Y-462645D01*
X82146Y-462784D01*
X82035Y-462867D01*
X81952Y-462923D01*
X81924Y-462950D01*
X81896Y-462978D01*
X81757Y-463145D01*
X81646Y-463311D01*
X81480Y-463672D01*
X81424Y-463839D01*
X81369Y-463978D01*
X81341Y-464061D01*
Y-464089D01*
X79064D01*
Y-460646D01*
X79675Y-460535D01*
X79953Y-460507D01*
X80175D01*
X80397Y-460479D01*
X80675D01*
X81091Y-460507D01*
D02*
G37*
G36*
X77815Y-460674D02*
Y-461534D01*
X77510Y-461590D01*
X77288Y-461673D01*
X77177Y-461729D01*
X77121Y-461757D01*
X76927Y-461867D01*
X76816Y-461951D01*
X76733Y-462062D01*
X76705Y-462090D01*
X76594Y-462284D01*
X76538Y-462478D01*
X76483Y-462645D01*
Y-462673D01*
Y-462700D01*
X76455Y-463006D01*
X76427Y-463311D01*
Y-463450D01*
Y-463561D01*
Y-463644D01*
Y-463672D01*
Y-469474D01*
Y-469891D01*
Y-470224D01*
X76455Y-470529D01*
Y-470751D01*
X76483Y-470918D01*
Y-471029D01*
X76510Y-471085D01*
Y-471112D01*
X76594Y-471418D01*
X76705Y-471640D01*
X76788Y-471779D01*
X76816Y-471834D01*
X76927Y-471917D01*
X77038Y-472001D01*
X77316Y-472140D01*
X77454Y-472195D01*
X77538Y-472223D01*
X77621Y-472251D01*
X77649D01*
Y-473056D01*
X71569D01*
Y-472251D01*
X71791Y-472195D01*
X71957Y-472112D01*
X72096Y-472084D01*
X72124Y-472056D01*
X72263Y-471973D01*
X72374Y-471890D01*
X72429Y-471834D01*
X72457Y-471806D01*
X72596Y-471612D01*
X72624Y-471529D01*
X72651Y-471501D01*
X72679Y-471362D01*
X72707Y-471251D01*
X72735Y-471168D01*
Y-471140D01*
X72762Y-470946D01*
Y-470751D01*
X72790Y-470613D01*
Y-470585D01*
Y-470557D01*
Y-470391D01*
X72818Y-470224D01*
Y-469863D01*
Y-469724D01*
Y-469585D01*
Y-469502D01*
Y-469474D01*
Y-460591D01*
X74373D01*
X77815Y-460674D01*
D02*
G37*
G36*
X47665Y-460507D02*
X48054Y-460563D01*
X48387Y-460618D01*
X48693Y-460701D01*
X48970Y-460813D01*
X49165Y-460868D01*
X49276Y-460924D01*
X49331Y-460951D01*
X49692Y-461146D01*
X50025Y-461396D01*
X50331Y-461645D01*
X50608Y-461895D01*
X50858Y-462145D01*
X51025Y-462340D01*
X51136Y-462450D01*
X51191Y-462506D01*
X51358Y-462478D01*
X51191Y-460591D01*
X52746D01*
X56188Y-460674D01*
Y-461534D01*
X55966Y-461590D01*
X55800Y-461618D01*
X55661Y-461673D01*
X55550Y-461729D01*
X55467Y-461784D01*
X55411Y-461812D01*
X55356Y-461840D01*
X55189Y-461979D01*
X55078Y-462117D01*
X55022Y-462228D01*
X54995Y-462284D01*
X54911Y-462506D01*
X54856Y-462728D01*
X54828Y-462895D01*
Y-462950D01*
Y-462978D01*
Y-463172D01*
X54800Y-463367D01*
Y-463811D01*
Y-464033D01*
Y-464200D01*
Y-464311D01*
Y-464338D01*
Y-469474D01*
Y-469891D01*
Y-470224D01*
X54828Y-470529D01*
Y-470751D01*
X54856Y-470918D01*
Y-471029D01*
X54884Y-471085D01*
Y-471112D01*
X54967Y-471418D01*
X55078Y-471640D01*
X55161Y-471779D01*
X55189Y-471834D01*
X55300Y-471917D01*
X55411Y-472001D01*
X55689Y-472140D01*
X55827Y-472195D01*
X55911Y-472223D01*
X55994Y-472251D01*
X56022D01*
Y-473056D01*
X49859D01*
Y-472251D01*
X50081Y-472195D01*
X50275Y-472140D01*
X50414Y-472084D01*
X50553Y-472001D01*
X50636Y-471945D01*
X50691Y-471917D01*
X50747Y-471862D01*
X50914Y-471640D01*
X51025Y-471390D01*
X51052Y-471279D01*
X51080Y-471196D01*
X51108Y-471140D01*
Y-471112D01*
X51136Y-470918D01*
X51164Y-470668D01*
X51191Y-470113D01*
Y-469863D01*
Y-469669D01*
Y-469530D01*
Y-469474D01*
Y-465477D01*
Y-465255D01*
Y-465060D01*
Y-464894D01*
X51164Y-464755D01*
Y-464644D01*
Y-464561D01*
Y-464533D01*
Y-464505D01*
X51108Y-464255D01*
X51052Y-464061D01*
X51025Y-463922D01*
X50997Y-463866D01*
X50886Y-463616D01*
X50747Y-463422D01*
X50664Y-463283D01*
X50608Y-463228D01*
X50386Y-463033D01*
X50164Y-462867D01*
X50025Y-462784D01*
X49998Y-462756D01*
X49970D01*
X49748Y-462645D01*
X49553Y-462617D01*
X49442Y-462589D01*
X49387D01*
X49192Y-462617D01*
X48998Y-462645D01*
X48720Y-462784D01*
X48609Y-462867D01*
X48526Y-462923D01*
X48498Y-462950D01*
X48471Y-462978D01*
X48332Y-463145D01*
X48221Y-463311D01*
X48054Y-463672D01*
X47999Y-463839D01*
X47943Y-463978D01*
X47915Y-464061D01*
Y-464089D01*
X45639D01*
Y-460646D01*
X46250Y-460535D01*
X46527Y-460507D01*
X46749D01*
X46971Y-460479D01*
X47249D01*
X47665Y-460507D01*
D02*
G37*
G36*
X188114Y-455843D02*
X188753Y-455899D01*
X189336Y-455982D01*
X189808Y-456093D01*
X190224Y-456204D01*
X190391Y-456232D01*
X190530Y-456287D01*
X190641Y-456315D01*
X190724Y-456343D01*
X190752Y-456371D01*
X190780D01*
X191279Y-456593D01*
X191723Y-456870D01*
X192084Y-457120D01*
X192418Y-457398D01*
X192640Y-457648D01*
X192834Y-457842D01*
X192945Y-457953D01*
X192973Y-458009D01*
X193223Y-458425D01*
X193417Y-458869D01*
X193528Y-459313D01*
X193639Y-459730D01*
X193695Y-460091D01*
X193722Y-460368D01*
Y-460479D01*
Y-460563D01*
Y-460590D01*
Y-460618D01*
X193695Y-460951D01*
X193667Y-461284D01*
X193611Y-461562D01*
X193556Y-461812D01*
X193500Y-462034D01*
X193472Y-462173D01*
X193417Y-462284D01*
Y-462312D01*
X193139Y-462839D01*
X193001Y-463089D01*
X192862Y-463283D01*
X192751Y-463450D01*
X192640Y-463589D01*
X192584Y-463672D01*
X192556Y-463700D01*
X192112Y-464144D01*
X191890Y-464338D01*
X191668Y-464505D01*
X191501Y-464644D01*
X191363Y-464755D01*
X191252Y-464810D01*
X191224Y-464838D01*
X190613Y-465227D01*
X190308Y-465393D01*
X190030Y-465560D01*
X189808Y-465671D01*
X189614Y-465782D01*
X189503Y-465838D01*
X189447Y-465865D01*
X189058Y-466060D01*
X188697Y-466254D01*
X188392Y-466448D01*
X188142Y-466615D01*
X187948Y-466754D01*
X187809Y-466865D01*
X187726Y-466920D01*
X187698Y-466948D01*
X187476Y-467142D01*
X187281Y-467337D01*
X187115Y-467503D01*
X187004Y-467670D01*
X186893Y-467809D01*
X186837Y-467920D01*
X186782Y-468003D01*
Y-468031D01*
X186671Y-468253D01*
X186615Y-468475D01*
X186504Y-468891D01*
Y-469086D01*
X186476Y-469225D01*
Y-469336D01*
Y-469363D01*
X186504Y-469669D01*
X186532Y-469919D01*
X186588Y-470168D01*
X186643Y-470363D01*
X186726Y-470529D01*
X186782Y-470640D01*
X186810Y-470724D01*
X186837Y-470751D01*
X186976Y-470946D01*
X187143Y-471112D01*
X187448Y-471362D01*
X187587Y-471446D01*
X187670Y-471501D01*
X187754Y-471557D01*
X187781D01*
X188225Y-471695D01*
X188642Y-471779D01*
X188836D01*
X188975Y-471806D01*
X189086D01*
X189586Y-471779D01*
X190030Y-471695D01*
X190391Y-471584D01*
X190696Y-471446D01*
X190946Y-471307D01*
X191113Y-471196D01*
X191224Y-471112D01*
X191252Y-471085D01*
X191501Y-470779D01*
X191723Y-470418D01*
X191890Y-470057D01*
X192029Y-469696D01*
X192140Y-469363D01*
X192223Y-469113D01*
X192251Y-469002D01*
Y-468919D01*
X192279Y-468891D01*
Y-468864D01*
X194000D01*
Y-472695D01*
X193084Y-472889D01*
X192640Y-472945D01*
X192251Y-473000D01*
X191918Y-473056D01*
X191640Y-473083D01*
X191474Y-473111D01*
X191418D01*
X190891Y-473167D01*
X190419Y-473195D01*
X189974Y-473222D01*
X189558D01*
X189225Y-473250D01*
X188753D01*
X188114Y-473222D01*
X187504Y-473167D01*
X186976Y-473056D01*
X186504Y-472945D01*
X186143Y-472861D01*
X185866Y-472750D01*
X185755Y-472723D01*
X185671Y-472695D01*
X185644Y-472667D01*
X185616D01*
X185116Y-472417D01*
X184700Y-472140D01*
X184339Y-471862D01*
X184061Y-471584D01*
X183839Y-471334D01*
X183673Y-471140D01*
X183561Y-471001D01*
X183534Y-470946D01*
X183284Y-470502D01*
X183117Y-470057D01*
X182978Y-469585D01*
X182895Y-469169D01*
X182840Y-468808D01*
X182812Y-468503D01*
Y-468392D01*
Y-468308D01*
Y-468281D01*
Y-468253D01*
X182840Y-467809D01*
X182867Y-467420D01*
X182951Y-467059D01*
X183006Y-466754D01*
X183089Y-466504D01*
X183173Y-466337D01*
X183200Y-466198D01*
X183228Y-466171D01*
X183395Y-465838D01*
X183617Y-465532D01*
X183811Y-465227D01*
X184033Y-465005D01*
X184228Y-464782D01*
X184394Y-464644D01*
X184505Y-464533D01*
X184533Y-464505D01*
X184894Y-464199D01*
X185283Y-463922D01*
X185699Y-463672D01*
X186060Y-463422D01*
X186421Y-463228D01*
X186698Y-463061D01*
X186810Y-463006D01*
X186893Y-462950D01*
X186921Y-462923D01*
X186948D01*
X187393Y-462673D01*
X187781Y-462450D01*
X188114Y-462256D01*
X188392Y-462090D01*
X188614Y-461951D01*
X188753Y-461840D01*
X188864Y-461784D01*
X188892Y-461757D01*
X189114Y-461562D01*
X189308Y-461395D01*
X189475Y-461201D01*
X189586Y-461062D01*
X189697Y-460924D01*
X189752Y-460812D01*
X189780Y-460757D01*
X189808Y-460729D01*
X189974Y-460313D01*
X190058Y-459896D01*
Y-459730D01*
X190086Y-459591D01*
Y-459508D01*
Y-459480D01*
X190058Y-459230D01*
X190030Y-459008D01*
X189974Y-458786D01*
X189919Y-458619D01*
X189863Y-458480D01*
X189836Y-458369D01*
X189780Y-458314D01*
Y-458286D01*
X189503Y-457953D01*
X189197Y-457731D01*
X189086Y-457648D01*
X188975Y-457592D01*
X188920Y-457537D01*
X188892D01*
X188448Y-457398D01*
X188031Y-457314D01*
X187864Y-457287D01*
X187309D01*
X187032Y-457342D01*
X186810Y-457370D01*
X186615Y-457426D01*
X186449Y-457481D01*
X186338Y-457509D01*
X186254Y-457564D01*
X186227D01*
X186032Y-457675D01*
X185838Y-457814D01*
X185560Y-458092D01*
X185449Y-458231D01*
X185366Y-458342D01*
X185338Y-458397D01*
X185310Y-458425D01*
X185172Y-458647D01*
X185061Y-458925D01*
X184866Y-459424D01*
X184811Y-459646D01*
X184755Y-459813D01*
X184700Y-459924D01*
Y-459980D01*
X183006D01*
Y-456371D01*
X183478Y-456259D01*
X183895Y-456176D01*
X184283Y-456093D01*
X184644Y-456037D01*
X184922Y-456010D01*
X185116Y-455982D01*
X185255Y-455954D01*
X185310D01*
X186060Y-455871D01*
X186421Y-455843D01*
X186726D01*
X187004Y-455815D01*
X187420D01*
X188114Y-455843D01*
D02*
G37*
G36*
X-16632Y-455843D02*
X-16021Y-455899D01*
X-15466Y-456010D01*
X-14994Y-456093D01*
X-14577Y-456204D01*
X-14411Y-456260D01*
X-14272Y-456315D01*
X-14161Y-456343D01*
X-14078Y-456371D01*
X-14050Y-456398D01*
X-14022D01*
X-13522Y-456620D01*
X-13051Y-456898D01*
X-12690Y-457176D01*
X-12356Y-457426D01*
X-12107Y-457648D01*
X-11912Y-457842D01*
X-11801Y-457953D01*
X-11773Y-458009D01*
X-11524Y-458397D01*
X-11329Y-458786D01*
X-11190Y-459175D01*
X-11107Y-459508D01*
X-11052Y-459841D01*
X-10996Y-460063D01*
Y-460230D01*
Y-460257D01*
Y-460285D01*
X-11024Y-460785D01*
X-11107Y-461257D01*
X-11246Y-461673D01*
X-11440Y-462062D01*
X-11635Y-462423D01*
X-11857Y-462756D01*
X-12107Y-463061D01*
X-12384Y-463311D01*
X-12634Y-463533D01*
X-12884Y-463728D01*
X-13106Y-463894D01*
X-13328Y-464033D01*
X-13495Y-464116D01*
X-13634Y-464200D01*
X-13717Y-464227D01*
X-13744Y-464255D01*
X-13772Y-464422D01*
X-13439Y-464588D01*
X-13134Y-464755D01*
X-12884Y-464921D01*
X-12662Y-465060D01*
X-12467Y-465199D01*
X-12329Y-465310D01*
X-12245Y-465366D01*
X-12218Y-465393D01*
X-11801Y-465810D01*
X-11607Y-466060D01*
X-11468Y-466254D01*
X-11357Y-466448D01*
X-11274Y-466587D01*
X-11218Y-466698D01*
X-11190Y-466726D01*
X-11052Y-467031D01*
X-10968Y-467364D01*
X-10885Y-467670D01*
X-10857Y-467948D01*
X-10829Y-468197D01*
X-10802Y-468419D01*
Y-468531D01*
Y-468586D01*
X-10829Y-469114D01*
X-10913Y-469585D01*
X-11052Y-470030D01*
X-11190Y-470391D01*
X-11301Y-470696D01*
X-11440Y-470918D01*
X-11524Y-471057D01*
X-11551Y-471112D01*
X-11857Y-471473D01*
X-12218Y-471806D01*
X-12579Y-472084D01*
X-12939Y-472306D01*
X-13245Y-472500D01*
X-13522Y-472612D01*
X-13689Y-472695D01*
X-13717Y-472723D01*
X-13744D01*
X-14300Y-472889D01*
X-14855Y-473028D01*
X-15410Y-473111D01*
X-15938Y-473195D01*
X-16382Y-473222D01*
X-16576D01*
X-16743Y-473250D01*
X-17048D01*
X-17770Y-473222D01*
X-18409Y-473167D01*
X-18992Y-473056D01*
X-19519Y-472945D01*
X-19935Y-472861D01*
X-20102Y-472806D01*
X-20241Y-472750D01*
X-20352Y-472723D01*
X-20435Y-472695D01*
X-20463Y-472667D01*
X-20491D01*
X-21018Y-472417D01*
X-21490Y-472167D01*
X-21879Y-471862D01*
X-22184Y-471612D01*
X-22434Y-471362D01*
X-22629Y-471168D01*
X-22740Y-471029D01*
X-22767Y-470974D01*
X-23017Y-470529D01*
X-23212Y-470113D01*
X-23350Y-469669D01*
X-23461Y-469252D01*
X-23517Y-468919D01*
X-23545Y-468642D01*
Y-468531D01*
Y-468447D01*
Y-468419D01*
Y-468392D01*
X-23517Y-467864D01*
X-23434Y-467364D01*
X-23295Y-466948D01*
X-23184Y-466587D01*
X-23045Y-466282D01*
X-22906Y-466060D01*
X-22823Y-465921D01*
X-22795Y-465865D01*
X-22490Y-465477D01*
X-22157Y-465144D01*
X-21796Y-464866D01*
X-21435Y-464644D01*
X-21129Y-464449D01*
X-20879Y-464338D01*
X-20685Y-464255D01*
X-20657Y-464227D01*
X-20630D01*
X-20602Y-464061D01*
X-21102Y-463811D01*
X-21518Y-463561D01*
X-21879Y-463283D01*
X-22184Y-463033D01*
X-22406Y-462811D01*
X-22573Y-462617D01*
X-22684Y-462506D01*
X-22712Y-462450D01*
X-22962Y-462062D01*
X-23128Y-461645D01*
X-23267Y-461257D01*
X-23350Y-460896D01*
X-23406Y-460563D01*
X-23434Y-460313D01*
Y-460146D01*
Y-460118D01*
Y-460091D01*
X-23406Y-459702D01*
X-23378Y-459369D01*
X-23184Y-458730D01*
X-22934Y-458175D01*
X-22656Y-457731D01*
X-22379Y-457398D01*
X-22129Y-457120D01*
X-21934Y-456981D01*
X-21907Y-456926D01*
X-21879D01*
X-21574Y-456731D01*
X-21240Y-456565D01*
X-20519Y-456287D01*
X-19741Y-456093D01*
X-19019Y-455954D01*
X-18658Y-455899D01*
X-18325Y-455871D01*
X-18048Y-455843D01*
X-17798D01*
X-17576Y-455815D01*
X-17298D01*
X-16632Y-455843D01*
D02*
G37*
G36*
X-677163Y-194888D02*
X-676515Y-194980D01*
X-675960Y-195165D01*
X-675589Y-195351D01*
X-675219Y-195536D01*
X-675034Y-195628D01*
X-674941Y-195721D01*
X-674571Y-195906D01*
X-674386Y-195999D01*
X-673552Y-196739D01*
X-672812Y-197573D01*
X-672441Y-198128D01*
X-672256Y-198313D01*
Y-198406D01*
X-644389Y-246734D01*
X-644296D01*
Y-246827D01*
Y-246919D01*
X-644111Y-247290D01*
X-643926Y-247567D01*
X-643833Y-247753D01*
Y-247845D01*
X-643741Y-248123D01*
X-643648Y-248493D01*
X-643556Y-248771D01*
Y-248864D01*
X-643463Y-249882D01*
Y-250808D01*
X-643556Y-251641D01*
X-643741Y-252382D01*
X-644018Y-253030D01*
X-644204Y-253493D01*
X-644296Y-253771D01*
X-644389Y-253863D01*
X-644759Y-254511D01*
X-644852Y-254696D01*
X-644944Y-254789D01*
X-645407Y-255252D01*
X-645592Y-255437D01*
X-645685Y-255530D01*
X-646518Y-256178D01*
X-647351Y-256641D01*
X-648185Y-257011D01*
X-649018Y-257196D01*
X-649666Y-257381D01*
X-650221Y-257474D01*
X-706605D01*
X-707067Y-257381D01*
X-707438D01*
X-707530Y-257289D01*
X-707901D01*
X-708271Y-257196D01*
X-708549Y-257104D01*
X-708641D01*
X-709567Y-256733D01*
X-710400Y-256270D01*
X-711049Y-255715D01*
X-711604Y-255159D01*
X-712067Y-254696D01*
X-712345Y-254233D01*
X-712530Y-253956D01*
X-712622Y-253863D01*
X-712715D01*
X-712900Y-253400D01*
X-713085Y-253122D01*
X-713178Y-252937D01*
Y-252845D01*
X-713270Y-252474D01*
X-713363Y-252104D01*
X-713456Y-251919D01*
Y-251826D01*
X-713548Y-250808D01*
Y-249882D01*
X-713456Y-248956D01*
X-713270Y-248216D01*
X-712993Y-247567D01*
X-712808Y-247012D01*
X-712715Y-246734D01*
X-712622Y-246642D01*
X-684662Y-198221D01*
X-684292Y-197665D01*
X-684199Y-197480D01*
X-684107Y-197387D01*
X-683644Y-196924D01*
X-683459Y-196739D01*
X-683366Y-196647D01*
X-682533Y-195999D01*
X-681792Y-195536D01*
X-680959Y-195165D01*
X-680218Y-194980D01*
X-679570Y-194795D01*
X-679015Y-194702D01*
X-677811D01*
X-677163Y-194888D01*
D02*
G37*
G36*
X-676052Y-267473D02*
X-677163D01*
Y-260436D01*
X-681885Y-267473D01*
X-683088D01*
Y-258585D01*
X-681977D01*
Y-265529D01*
X-677256Y-258585D01*
X-676052D01*
Y-267473D01*
D02*
G37*
G36*
X-705679D02*
X-706790D01*
Y-260436D01*
X-711419Y-267473D01*
X-712622D01*
Y-258585D01*
X-711511D01*
Y-265529D01*
X-706882Y-258585D01*
X-705679D01*
Y-267473D01*
D02*
G37*
G36*
X-644389D02*
X-645592D01*
X-646611Y-264788D01*
X-650314D01*
X-651332Y-267473D01*
X-652629D01*
X-649018Y-258585D01*
X-647722D01*
X-644389Y-267473D01*
D02*
G37*
G36*
X-651981Y-259603D02*
X-654943D01*
Y-267473D01*
X-656147D01*
Y-259603D01*
X-659017D01*
Y-258585D01*
X-651981D01*
Y-259603D01*
D02*
G37*
G36*
X-659572D02*
X-662535D01*
Y-267473D01*
X-663646D01*
Y-259603D01*
X-666609D01*
Y-258585D01*
X-659572D01*
Y-259603D01*
D02*
G37*
G36*
X-667812Y-267473D02*
X-674478D01*
Y-266454D01*
X-669016D01*
Y-263399D01*
X-673923D01*
Y-262381D01*
X-669016D01*
Y-259603D01*
X-674293D01*
Y-258585D01*
X-667812D01*
Y-267473D01*
D02*
G37*
G36*
X-684385Y-259603D02*
X-687255D01*
Y-267473D01*
X-688458D01*
Y-259603D01*
X-691421D01*
Y-258585D01*
X-684385D01*
Y-259603D01*
D02*
G37*
G36*
X-692810Y-267473D02*
X-694013D01*
Y-258585D01*
X-692810D01*
Y-267473D01*
D02*
G37*
G36*
X-699290Y-258492D02*
X-698642Y-258585D01*
X-697717Y-259048D01*
X-697346Y-259326D01*
X-697068Y-259511D01*
X-696976Y-259603D01*
X-696883Y-259696D01*
X-696513Y-260159D01*
X-696235Y-260714D01*
X-695865Y-261825D01*
X-695772Y-262381D01*
X-695680Y-262751D01*
Y-263029D01*
Y-263121D01*
X-695772Y-263955D01*
X-695957Y-264695D01*
X-696050Y-265158D01*
X-696143Y-265251D01*
Y-265343D01*
X-696606Y-266084D01*
X-697161Y-266547D01*
X-697531Y-266917D01*
X-697717Y-267010D01*
X-698457Y-267288D01*
X-699198Y-267473D01*
X-699753Y-267565D01*
X-699939D01*
X-700772Y-267473D01*
X-701420Y-267288D01*
X-701883Y-267102D01*
X-702068Y-267010D01*
X-702716Y-266547D01*
X-703271Y-266084D01*
X-703549Y-265621D01*
X-703642Y-265436D01*
X-704012Y-264603D01*
X-704105Y-263862D01*
X-704197Y-263214D01*
Y-263121D01*
Y-263029D01*
X-704105Y-262103D01*
X-703920Y-261362D01*
X-703735Y-260807D01*
X-703642Y-260714D01*
Y-260622D01*
X-703179Y-259974D01*
X-702716Y-259418D01*
X-702346Y-259140D01*
X-702160Y-259048D01*
X-701420Y-258677D01*
X-700679Y-258492D01*
X-700124Y-258400D01*
X-699939D01*
X-699290Y-258492D01*
D02*
G37*
G36*
X-667072Y-268862D02*
X-666886Y-268954D01*
X-666794Y-269047D01*
X-666516Y-269324D01*
X-666238Y-269602D01*
X-666146Y-269787D01*
X-666053Y-269880D01*
X-665868Y-270250D01*
X-665775Y-270621D01*
Y-270991D01*
Y-271084D01*
Y-271546D01*
X-665868Y-271917D01*
X-665961Y-272194D01*
Y-272287D01*
X-666238Y-272565D01*
X-666423Y-272750D01*
X-666609Y-272935D01*
X-666701D01*
X-667072Y-273120D01*
X-667442Y-273213D01*
X-667812Y-273305D01*
X-667905D01*
X-668275Y-273213D01*
X-668645Y-273028D01*
X-668923Y-272935D01*
X-669016Y-272843D01*
X-669294Y-272657D01*
X-669479Y-272287D01*
X-669664Y-272009D01*
Y-271917D01*
X-669108Y-271732D01*
X-668923Y-272102D01*
X-668831Y-272380D01*
X-668738Y-272565D01*
X-668645D01*
X-668368Y-272657D01*
X-668090Y-272750D01*
X-667812D01*
X-667349Y-272657D01*
X-667072D01*
X-666794Y-272472D01*
X-666701Y-272287D01*
X-666516Y-272102D01*
Y-272009D01*
X-666331Y-271361D01*
Y-271176D01*
Y-271084D01*
X-666423Y-270528D01*
X-666516Y-270343D01*
Y-270250D01*
X-666794Y-269695D01*
X-666979Y-269602D01*
Y-269510D01*
X-667627Y-269324D01*
X-667905D01*
X-668368Y-269417D01*
X-668553Y-269510D01*
X-668831Y-269695D01*
X-668923Y-269972D01*
X-669016Y-270158D01*
Y-270250D01*
X-669571Y-270065D01*
X-669386Y-269695D01*
X-669201Y-269417D01*
X-669108Y-269232D01*
X-669016Y-269139D01*
X-668645Y-268954D01*
X-668275Y-268769D01*
X-667442D01*
X-667072Y-268862D01*
D02*
G37*
G36*
X-701327D02*
X-701050Y-268954D01*
X-700957Y-269047D01*
X-700679Y-269324D01*
X-700402Y-269602D01*
X-700309Y-269787D01*
X-700216Y-269880D01*
X-700031Y-270250D01*
X-699939Y-270621D01*
Y-270991D01*
Y-271084D01*
X-700031Y-271546D01*
X-700124Y-271917D01*
X-700216Y-272194D01*
Y-272287D01*
X-700402Y-272565D01*
X-700587Y-272750D01*
X-700772Y-272935D01*
X-700864D01*
X-701235Y-273120D01*
X-701605Y-273213D01*
X-701975Y-273305D01*
X-702068D01*
X-702531Y-273213D01*
X-702901Y-273028D01*
X-703086Y-272935D01*
X-703179Y-272843D01*
X-703549Y-272657D01*
X-703735Y-272287D01*
X-703920Y-272009D01*
Y-271917D01*
X-703271Y-271732D01*
X-703179Y-272102D01*
X-702994Y-272380D01*
X-702901Y-272472D01*
X-702809Y-272565D01*
X-702531Y-272657D01*
X-702253Y-272750D01*
X-701975D01*
X-701513Y-272657D01*
X-701235D01*
X-700957Y-272472D01*
X-700864Y-272287D01*
X-700679Y-272102D01*
Y-272009D01*
X-700587Y-271361D01*
Y-271176D01*
Y-271084D01*
X-700679Y-270528D01*
Y-270343D01*
Y-270250D01*
X-700957Y-269695D01*
X-701142Y-269602D01*
Y-269510D01*
X-701790Y-269324D01*
X-702068D01*
X-702624Y-269417D01*
X-702716Y-269510D01*
X-702809D01*
X-702994Y-269695D01*
X-703179Y-269972D01*
X-703271Y-270158D01*
Y-270250D01*
X-703827Y-270065D01*
X-703642Y-269695D01*
X-703457Y-269417D01*
X-703271Y-269232D01*
X-703179Y-269139D01*
X-702809Y-268954D01*
X-702438Y-268769D01*
X-701698D01*
X-701327Y-268862D01*
D02*
G37*
G36*
X-654203Y-273213D02*
X-657535D01*
Y-272750D01*
X-654851D01*
Y-271269D01*
X-657258D01*
Y-270713D01*
X-654851D01*
Y-269417D01*
X-657443D01*
Y-268862D01*
X-654203D01*
Y-273213D01*
D02*
G37*
G36*
X-658369D02*
X-661146D01*
Y-272750D01*
X-658924D01*
Y-268862D01*
X-658369D01*
Y-273213D01*
D02*
G37*
G36*
X-661794D02*
X-665127D01*
Y-272750D01*
X-662442D01*
Y-271269D01*
X-664850D01*
Y-270713D01*
X-662442D01*
Y-269417D01*
X-665035D01*
Y-268862D01*
X-661794D01*
Y-273213D01*
D02*
G37*
G36*
X-670127Y-269417D02*
X-671516D01*
Y-273213D01*
X-672164D01*
Y-269417D01*
X-673645D01*
Y-268862D01*
X-670127D01*
Y-269417D01*
D02*
G37*
G36*
X-674201Y-273213D02*
X-674849D01*
Y-271361D01*
X-675774D01*
X-675960Y-271454D01*
X-676052D01*
X-676237Y-271639D01*
X-676330Y-271732D01*
X-676515Y-271917D01*
X-676608Y-272102D01*
X-676793Y-272287D01*
Y-272380D01*
X-677348Y-273213D01*
X-678089D01*
X-677348Y-272102D01*
X-676978Y-271639D01*
X-676885Y-271546D01*
X-676608Y-271361D01*
X-676515Y-271269D01*
X-676978Y-271176D01*
X-677256Y-271084D01*
X-677348Y-270898D01*
X-677441D01*
X-677626Y-270621D01*
X-677719Y-270343D01*
Y-270158D01*
Y-270065D01*
X-677626Y-269602D01*
X-677533Y-269510D01*
Y-269417D01*
X-677441Y-269232D01*
X-677256Y-269047D01*
X-677163Y-268954D01*
X-677071D01*
X-676515Y-268862D01*
X-674201D01*
Y-273213D01*
D02*
G37*
G36*
X-687255Y-269417D02*
X-688736D01*
Y-273213D01*
X-689292D01*
Y-269417D01*
X-690773D01*
Y-268862D01*
X-687255D01*
Y-269417D01*
D02*
G37*
G36*
X-690495Y-273213D02*
X-691051D01*
X-691606Y-272009D01*
X-693458D01*
X-693921Y-273213D01*
X-694661D01*
X-692810Y-268862D01*
X-692162D01*
X-690495Y-273213D01*
D02*
G37*
G36*
X-694291Y-269417D02*
X-695772D01*
Y-273213D01*
X-696328D01*
Y-269417D01*
X-697809D01*
Y-268862D01*
X-694291D01*
Y-269417D01*
D02*
G37*
G36*
X-698457Y-273213D02*
X-699105D01*
Y-268862D01*
X-698457D01*
Y-273213D01*
D02*
G37*
G36*
X-679941Y-268862D02*
X-679478Y-269047D01*
X-679200Y-269324D01*
X-679107Y-269417D01*
X-678830Y-269972D01*
X-678644Y-270528D01*
X-678552Y-270991D01*
Y-271084D01*
Y-271176D01*
Y-271639D01*
X-678644Y-272009D01*
X-678737Y-272194D01*
Y-272287D01*
X-678922Y-272565D01*
X-679200Y-272750D01*
X-679385Y-272935D01*
X-679478D01*
X-679848Y-273120D01*
X-680218Y-273213D01*
X-680496Y-273305D01*
X-680589D01*
X-681052Y-273213D01*
X-681422Y-273120D01*
X-681607Y-273028D01*
X-681700D01*
X-682255Y-272565D01*
X-682348Y-272380D01*
X-682440Y-272287D01*
X-682626Y-271917D01*
X-682718Y-271546D01*
Y-271176D01*
Y-271084D01*
Y-270621D01*
X-682626Y-270250D01*
X-682533Y-269972D01*
X-682440Y-269880D01*
X-682255Y-269510D01*
X-681977Y-269324D01*
X-681792Y-269139D01*
X-681700D01*
X-681329Y-268954D01*
X-680959Y-268769D01*
X-680589D01*
X-679941Y-268862D01*
D02*
G37*
G36*
X-684477D02*
X-684292Y-268954D01*
X-684199D01*
X-683829Y-269232D01*
X-683644Y-269324D01*
Y-269417D01*
X-683459Y-269880D01*
Y-269972D01*
Y-270065D01*
X-683551Y-270435D01*
X-683644Y-270528D01*
X-683736Y-270713D01*
X-683922Y-270898D01*
X-684014Y-270991D01*
X-684107D01*
X-684292Y-271084D01*
X-684570Y-271176D01*
X-684847Y-271269D01*
X-684940D01*
X-685310Y-271361D01*
X-685588Y-271454D01*
X-685773D01*
X-686051Y-271639D01*
X-686144Y-271732D01*
X-686236Y-272009D01*
Y-272102D01*
Y-272380D01*
X-686144Y-272472D01*
X-685866Y-272657D01*
X-685773Y-272750D01*
X-684477D01*
X-684292Y-272565D01*
X-684107Y-272472D01*
X-684014Y-272380D01*
X-683829Y-272009D01*
Y-271824D01*
X-683274Y-271917D01*
X-683366Y-272194D01*
X-683459Y-272472D01*
X-683551Y-272565D01*
Y-272657D01*
X-684014Y-273028D01*
X-684107Y-273120D01*
X-684199D01*
X-684477Y-273213D01*
X-684847Y-273305D01*
X-685218D01*
X-685773Y-273213D01*
X-685958Y-273120D01*
X-686051D01*
X-686421Y-272843D01*
X-686607Y-272750D01*
X-686792Y-272287D01*
Y-272102D01*
X-686699Y-271639D01*
X-686607Y-271454D01*
X-686236Y-271084D01*
X-686144Y-270991D01*
X-686051D01*
X-685773Y-270898D01*
X-685496Y-270806D01*
X-685218Y-270713D01*
X-685125D01*
X-684662Y-270621D01*
X-684385Y-270528D01*
X-684199Y-270435D01*
X-684014Y-270158D01*
Y-269972D01*
X-684107Y-269787D01*
X-684199Y-269602D01*
X-684292Y-269510D01*
X-684477Y-269417D01*
X-684755Y-269324D01*
X-685403D01*
X-685588Y-269417D01*
X-685773Y-269510D01*
X-685958Y-269695D01*
X-686051Y-269880D01*
X-686144Y-270065D01*
Y-270158D01*
X-686699D01*
X-686607Y-269602D01*
X-686514Y-269510D01*
Y-269417D01*
X-686051Y-269047D01*
X-685958Y-268954D01*
X-685866D01*
X-685310Y-268769D01*
X-685033D01*
X-684477Y-268862D01*
D02*
G37*
G36*
X-659109Y-279231D02*
X-659665D01*
Y-275713D01*
X-661980Y-279231D01*
X-662628D01*
Y-274787D01*
X-662072D01*
Y-278305D01*
X-659665Y-274787D01*
X-659109D01*
Y-279231D01*
D02*
G37*
G36*
X-676237D02*
X-676793D01*
X-678552Y-274787D01*
X-677904D01*
X-676793Y-278027D01*
X-676608Y-278490D01*
X-676515Y-278675D01*
Y-278768D01*
X-676423Y-278398D01*
X-676330Y-278120D01*
X-676237Y-278027D01*
X-675126Y-274787D01*
X-674478D01*
X-676237Y-279231D01*
D02*
G37*
G36*
X-694846D02*
X-695402D01*
X-697161Y-274787D01*
X-696513D01*
X-695309Y-278027D01*
X-695124Y-278490D01*
Y-278675D01*
Y-278768D01*
X-694939Y-278305D01*
X-694846Y-278120D01*
Y-278027D01*
X-693736Y-274787D01*
X-693087D01*
X-694846Y-279231D01*
D02*
G37*
G36*
X-700494Y-274787D02*
X-700309Y-274879D01*
X-700216Y-274972D01*
X-699939Y-275250D01*
X-699661Y-275527D01*
X-699568Y-275713D01*
X-699476Y-275805D01*
X-699290Y-276176D01*
X-699198Y-276546D01*
Y-276916D01*
Y-277009D01*
X-699290Y-277472D01*
X-699383Y-277842D01*
X-699476Y-278027D01*
Y-278120D01*
X-699661Y-278490D01*
X-699846Y-278768D01*
X-700031Y-278953D01*
X-700124Y-279046D01*
X-700494Y-279231D01*
X-700864Y-279323D01*
X-701327D01*
X-701790Y-279231D01*
X-702160Y-279138D01*
X-702346Y-279046D01*
X-702438Y-278953D01*
X-702716Y-278583D01*
X-702901Y-278212D01*
X-703086Y-277935D01*
Y-277842D01*
X-702531Y-277657D01*
X-702438Y-278027D01*
X-702253Y-278305D01*
X-702160Y-278398D01*
X-702068Y-278490D01*
X-701790Y-278675D01*
X-701513Y-278768D01*
X-701235D01*
X-700772Y-278675D01*
X-700587Y-278583D01*
X-700494D01*
X-700309Y-278398D01*
X-700124Y-278212D01*
X-700031Y-278027D01*
Y-277935D01*
X-699846Y-277287D01*
Y-277101D01*
Y-277009D01*
X-699939Y-276361D01*
Y-276176D01*
Y-276083D01*
X-700031Y-275805D01*
X-700216Y-275620D01*
X-700402Y-275435D01*
X-700494D01*
X-700772Y-275250D01*
X-701050Y-275157D01*
X-701605D01*
X-701883Y-275250D01*
X-701975Y-275342D01*
X-702068Y-275435D01*
X-702253Y-275620D01*
X-702438Y-275898D01*
X-702531Y-276083D01*
Y-276176D01*
X-703086Y-275990D01*
X-702901Y-275527D01*
X-702716Y-275250D01*
X-702531Y-275157D01*
X-702438Y-275065D01*
X-702068Y-274879D01*
X-701698Y-274694D01*
X-700864D01*
X-700494Y-274787D01*
D02*
G37*
G36*
X-655036Y-279231D02*
X-658276D01*
Y-278675D01*
X-655591D01*
Y-277194D01*
X-657999D01*
Y-276639D01*
X-655591D01*
Y-275342D01*
X-658184D01*
Y-274787D01*
X-655036D01*
Y-279231D01*
D02*
G37*
G36*
X-667812D02*
X-668368D01*
Y-274787D01*
X-667812D01*
Y-279231D01*
D02*
G37*
G36*
X-669108Y-275342D02*
X-670590D01*
Y-279231D01*
X-671145D01*
Y-275342D01*
X-672627D01*
Y-274787D01*
X-669108D01*
Y-275342D01*
D02*
G37*
G36*
X-673275Y-279231D02*
X-673923D01*
Y-274787D01*
X-673275D01*
Y-279231D01*
D02*
G37*
G36*
X-679107D02*
X-682348D01*
Y-278675D01*
X-679663D01*
Y-277194D01*
X-682070D01*
Y-276639D01*
X-679663D01*
Y-275342D01*
X-682255D01*
Y-274787D01*
X-679107D01*
Y-279231D01*
D02*
G37*
G36*
X-684940D02*
X-686514D01*
X-687069Y-279138D01*
X-687255D01*
X-687625Y-279046D01*
X-687810Y-278953D01*
X-687995Y-278675D01*
X-688180Y-278490D01*
X-688366Y-278027D01*
X-688458Y-277935D01*
Y-277842D01*
X-688551Y-277564D01*
Y-277287D01*
Y-277101D01*
Y-277009D01*
Y-276546D01*
Y-276176D01*
X-688458Y-275990D01*
Y-275898D01*
X-688088Y-275342D01*
X-687995Y-275250D01*
X-687903Y-275157D01*
X-687440Y-274972D01*
X-687347Y-274879D01*
X-687255D01*
X-686699Y-274787D01*
X-684940D01*
Y-279231D01*
D02*
G37*
G36*
X-689384D02*
X-692717D01*
Y-278675D01*
X-690032D01*
Y-277194D01*
X-692439D01*
Y-276639D01*
X-690032D01*
Y-275342D01*
X-692625D01*
Y-274787D01*
X-689384D01*
Y-279231D01*
D02*
G37*
G36*
X-697809D02*
X-698365D01*
Y-274787D01*
X-697809D01*
Y-279231D01*
D02*
G37*
G36*
X-703920D02*
X-707160D01*
Y-278675D01*
X-704475D01*
Y-277194D01*
X-706882D01*
Y-276639D01*
X-704475D01*
Y-275342D01*
X-707067D01*
Y-274787D01*
X-703920D01*
Y-279231D01*
D02*
G37*
G36*
X-651888Y-274787D02*
X-651703Y-274879D01*
X-651610D01*
X-651332Y-274972D01*
X-651147Y-275157D01*
X-651055Y-275250D01*
X-650962Y-275342D01*
X-650777Y-275713D01*
Y-275805D01*
Y-275898D01*
X-650870Y-276268D01*
X-650962Y-276453D01*
X-651240Y-276824D01*
X-651425Y-276916D01*
X-651703Y-277009D01*
X-651981Y-277101D01*
X-652166Y-277194D01*
X-652258D01*
X-652814Y-277287D01*
X-652999Y-277379D01*
X-653092D01*
X-653369Y-277564D01*
X-653462Y-277657D01*
X-653647Y-277935D01*
Y-278027D01*
X-653555Y-278305D01*
X-653462Y-278398D01*
X-653277Y-278583D01*
X-653184Y-278675D01*
X-653092D01*
X-652721Y-278768D01*
X-652536D01*
X-652073Y-278675D01*
X-651795D01*
X-651518Y-278398D01*
X-651425Y-278305D01*
X-651240Y-277935D01*
Y-277842D01*
Y-277750D01*
X-650684D01*
X-650777Y-278305D01*
X-650870Y-278490D01*
Y-278583D01*
X-651332Y-278953D01*
X-651425Y-279138D01*
X-651518D01*
X-652166Y-279323D01*
X-652536D01*
X-653092Y-279231D01*
X-653277Y-279138D01*
X-653369D01*
X-653832Y-278860D01*
X-654017Y-278675D01*
X-654203Y-278120D01*
Y-278027D01*
Y-277935D01*
X-654110Y-277472D01*
X-654017Y-277379D01*
X-653832Y-277101D01*
X-653555Y-277009D01*
X-653462Y-276916D01*
X-653369D01*
X-652814Y-276731D01*
X-652536Y-276639D01*
X-652443D01*
X-651981Y-276453D01*
X-651703Y-276361D01*
X-651518Y-276268D01*
X-651332Y-275990D01*
Y-275898D01*
X-651425Y-275713D01*
X-651518Y-275527D01*
X-651610Y-275435D01*
X-651795Y-275342D01*
X-652073Y-275250D01*
X-652721D01*
X-652999Y-275342D01*
X-653092Y-275435D01*
X-653184D01*
X-653369Y-275620D01*
X-653462Y-275805D01*
Y-275990D01*
Y-276083D01*
X-654017D01*
X-653925Y-275527D01*
X-653832Y-275435D01*
Y-275342D01*
X-653462Y-274972D01*
X-653369Y-274879D01*
X-653277D01*
X-652629Y-274694D01*
X-652351D01*
X-651888Y-274787D01*
D02*
G37*
G36*
X-664572D02*
X-664387Y-274879D01*
X-664294D01*
X-664016Y-274972D01*
X-663924Y-275157D01*
X-663739Y-275250D01*
Y-275342D01*
X-663553Y-275713D01*
Y-275805D01*
Y-275898D01*
X-663646Y-276268D01*
X-663739Y-276453D01*
X-663831Y-276639D01*
X-664016Y-276824D01*
X-664109Y-276916D01*
X-664202D01*
X-664387Y-277009D01*
X-664664Y-277101D01*
X-664942Y-277194D01*
X-665035D01*
X-665590Y-277287D01*
X-665683Y-277379D01*
X-665775D01*
X-666146Y-277564D01*
X-666238Y-277657D01*
X-666331Y-277842D01*
Y-277935D01*
Y-278027D01*
Y-278305D01*
X-666238Y-278398D01*
X-665961Y-278583D01*
X-665868Y-278675D01*
X-665405Y-278768D01*
X-665220D01*
X-664757Y-278675D01*
X-664572D01*
X-664387Y-278490D01*
X-664202Y-278398D01*
X-664109Y-278305D01*
X-663924Y-277935D01*
Y-277750D01*
X-663368D01*
X-663461Y-278027D01*
X-663553Y-278305D01*
X-663646Y-278490D01*
Y-278583D01*
X-663831Y-278860D01*
X-664016Y-278953D01*
X-664202Y-279138D01*
X-664294D01*
X-664572Y-279231D01*
X-664942Y-279323D01*
X-665312D01*
X-665868Y-279231D01*
X-666053Y-279138D01*
X-666146D01*
X-666609Y-278860D01*
X-666701Y-278675D01*
X-666886Y-278120D01*
Y-278027D01*
Y-277935D01*
X-666794Y-277472D01*
X-666701Y-277379D01*
X-666516Y-277101D01*
X-666331Y-277009D01*
X-666238Y-276916D01*
X-666146D01*
X-665498Y-276731D01*
X-665312Y-276639D01*
X-665220D01*
X-664757Y-276453D01*
X-664479Y-276361D01*
X-664294Y-276268D01*
X-664109Y-276083D01*
Y-275898D01*
X-664202Y-275713D01*
X-664294Y-275527D01*
X-664387Y-275435D01*
X-664572Y-275342D01*
X-664850Y-275250D01*
X-665127D01*
X-665683Y-275342D01*
X-665775Y-275435D01*
X-665868D01*
X-666053Y-275620D01*
X-666146Y-275805D01*
X-666238Y-275990D01*
Y-276083D01*
X-666794D01*
X-666701Y-275527D01*
X-666609Y-275435D01*
Y-275342D01*
X-666146Y-274972D01*
X-666053Y-274879D01*
X-665961D01*
X-665405Y-274694D01*
X-665127D01*
X-664572Y-274787D01*
D02*
G37*
G36*
X-694114Y-376878D02*
X-692679Y-377063D01*
X-691337Y-377341D01*
X-690041Y-377711D01*
X-688838Y-378128D01*
X-687727Y-378637D01*
X-686663Y-379146D01*
X-685737Y-379655D01*
X-684858Y-380210D01*
X-684117Y-380719D01*
X-683469Y-381182D01*
X-682914Y-381645D01*
X-682451Y-382015D01*
X-682174Y-382293D01*
X-681942Y-382478D01*
X-681896Y-382524D01*
X-680924Y-383635D01*
X-680045Y-384746D01*
X-679258Y-385902D01*
X-678656Y-387060D01*
X-678101Y-388217D01*
X-677638Y-389373D01*
X-677268Y-390438D01*
X-676944Y-391502D01*
X-676713Y-392474D01*
X-676528Y-393400D01*
X-676435Y-394186D01*
X-676343Y-394881D01*
X-676296Y-395436D01*
X-676250Y-395853D01*
Y-396130D01*
Y-396176D01*
Y-396223D01*
X-676296Y-397704D01*
X-676481Y-399092D01*
X-676759Y-400480D01*
X-677129Y-401730D01*
X-677546Y-402933D01*
X-678055Y-404090D01*
X-678564Y-405108D01*
X-679073Y-406080D01*
X-679582Y-406913D01*
X-680091Y-407700D01*
X-680600Y-408348D01*
X-681017Y-408903D01*
X-681387Y-409320D01*
X-681665Y-409644D01*
X-681850Y-409875D01*
X-681896Y-409921D01*
X-682960Y-410893D01*
X-684117Y-411772D01*
X-685274Y-412559D01*
X-686431Y-413161D01*
X-687588Y-413716D01*
X-688699Y-414179D01*
X-689810Y-414549D01*
X-690874Y-414873D01*
X-691846Y-415104D01*
X-692772Y-415290D01*
X-693558Y-415382D01*
X-694252Y-415475D01*
X-694808Y-415521D01*
X-695224Y-415567D01*
X-695594D01*
X-697076Y-415521D01*
X-698464Y-415336D01*
X-699806Y-415058D01*
X-701102Y-414688D01*
X-702305Y-414271D01*
X-703416Y-413762D01*
X-704480Y-413253D01*
X-705406Y-412744D01*
X-706285Y-412235D01*
X-707025Y-411726D01*
X-707673Y-411217D01*
X-708229Y-410801D01*
X-708691Y-410430D01*
X-708969Y-410153D01*
X-709201Y-409967D01*
X-709247Y-409921D01*
X-710265Y-408811D01*
X-711144Y-407700D01*
X-711885Y-406543D01*
X-712533Y-405386D01*
X-713088Y-404229D01*
X-713551Y-403072D01*
X-713921Y-401961D01*
X-714245Y-400943D01*
X-714476Y-399971D01*
X-714661Y-399046D01*
X-714754Y-398259D01*
X-714846Y-397565D01*
X-714893Y-397009D01*
X-714939Y-396593D01*
Y-396315D01*
Y-396223D01*
X-714893Y-394742D01*
X-714708Y-393353D01*
X-714430Y-391965D01*
X-714060Y-390715D01*
X-713643Y-389512D01*
X-713134Y-388355D01*
X-712625Y-387337D01*
X-712116Y-386365D01*
X-711561Y-385486D01*
X-711052Y-384746D01*
X-710589Y-384098D01*
X-710126Y-383542D01*
X-709756Y-383079D01*
X-709478Y-382802D01*
X-709293Y-382570D01*
X-709247Y-382524D01*
X-708182Y-381506D01*
X-707025Y-380627D01*
X-705915Y-379886D01*
X-704712Y-379238D01*
X-703601Y-378683D01*
X-702444Y-378220D01*
X-701333Y-377850D01*
X-700315Y-377526D01*
X-699343Y-377295D01*
X-698418Y-377110D01*
X-697631Y-377017D01*
X-696937Y-376924D01*
X-696381Y-376878D01*
X-695965Y-376832D01*
X-695594D01*
X-694114Y-376878D01*
D02*
G37*
G36*
X681500Y-394388D02*
X665854Y-410683D01*
X665391Y-415127D01*
X664372Y-425774D01*
X663632Y-433458D01*
X680389Y-450771D01*
X679278Y-451882D01*
X663446Y-435680D01*
X662521Y-445587D01*
X662058D01*
Y-449383D01*
X658539D01*
Y-445587D01*
X647615D01*
X647244Y-446327D01*
X646689Y-447068D01*
X645948Y-447901D01*
X644930Y-448642D01*
X643726Y-449012D01*
X642615Y-449105D01*
X641504D01*
X640671Y-448827D01*
X639652Y-448457D01*
X638819Y-447901D01*
X638171Y-447253D01*
X637523Y-446327D01*
X637060Y-445309D01*
X636782Y-444383D01*
X636690Y-443550D01*
X636782Y-442624D01*
X636968Y-441883D01*
X637245Y-441143D01*
X637616Y-440402D01*
X638079Y-439754D01*
X638727Y-439106D01*
X639467Y-438643D01*
X640115Y-438365D01*
X640023Y-437532D01*
X626135Y-451882D01*
X625024Y-450679D01*
X639838Y-435310D01*
X638634Y-421885D01*
X637801Y-412164D01*
X633357D01*
Y-405961D01*
X634560D01*
X623265Y-394388D01*
X624469Y-393277D01*
X635023Y-404202D01*
Y-403369D01*
X634838Y-403184D01*
X634560Y-402998D01*
X634283Y-402721D01*
X634005Y-402443D01*
X633820Y-401980D01*
X633727Y-401610D01*
X633635Y-401147D01*
X633727Y-400591D01*
X633912Y-400221D01*
X634283Y-399573D01*
X634746Y-399202D01*
X635394Y-398925D01*
X636042Y-398832D01*
X636690Y-398925D01*
X637245Y-399110D01*
X637708Y-399388D01*
X637893Y-399665D01*
X638356Y-399295D01*
X639004Y-398832D01*
X639838Y-398462D01*
X641041Y-397999D01*
X642337Y-397629D01*
X643634Y-397351D01*
X645022Y-397073D01*
X646133Y-396981D01*
Y-395592D01*
X655021D01*
Y-396795D01*
X655762D01*
X656873Y-396888D01*
X658076Y-397073D01*
X659280Y-397258D01*
Y-396518D01*
X663076D01*
Y-398277D01*
X663539Y-398554D01*
X664187Y-398832D01*
X664835Y-399202D01*
X665391Y-399573D01*
X665946Y-400036D01*
X666316Y-400406D01*
X666502Y-400684D01*
X666687Y-401054D01*
X666594Y-401702D01*
X668816D01*
Y-404572D01*
X666409D01*
X666039Y-408183D01*
X680389Y-393277D01*
X681500Y-394388D01*
D02*
G37*
G36*
X678167Y-464659D02*
Y-464844D01*
Y-465214D01*
Y-465584D01*
Y-465955D01*
Y-466325D01*
Y-466510D01*
Y-466603D01*
Y-468084D01*
Y-469473D01*
Y-470121D01*
Y-470584D01*
Y-470862D01*
Y-470954D01*
Y-472621D01*
Y-473362D01*
Y-474010D01*
Y-474565D01*
Y-474935D01*
Y-475213D01*
Y-475306D01*
Y-475954D01*
Y-476417D01*
Y-476787D01*
Y-476972D01*
Y-477250D01*
X627524D01*
Y-477157D01*
Y-476972D01*
Y-476232D01*
Y-475583D01*
Y-475398D01*
Y-475306D01*
Y-473824D01*
Y-472436D01*
Y-471788D01*
Y-471325D01*
Y-471047D01*
Y-470954D01*
Y-469288D01*
Y-468547D01*
Y-467899D01*
Y-467344D01*
Y-466973D01*
Y-466696D01*
Y-466603D01*
Y-465955D01*
Y-465399D01*
Y-465029D01*
Y-464844D01*
Y-464659D01*
Y-464566D01*
X678167D01*
Y-464659D01*
D02*
G37*
G36*
X710892Y-242303D02*
X711262Y-242489D01*
X711540Y-242581D01*
X711633Y-242674D01*
X711910Y-242859D01*
X712003Y-242952D01*
X712096D01*
X713670Y-243970D01*
X715151Y-245081D01*
X716632Y-246285D01*
X717836Y-247395D01*
X718947Y-248321D01*
X719780Y-249154D01*
X720336Y-249710D01*
X720428Y-249803D01*
X720521Y-249895D01*
X722002Y-251562D01*
X723391Y-253136D01*
X724687Y-254524D01*
X725705Y-255821D01*
X726539Y-256931D01*
X727094Y-257672D01*
X727557Y-258228D01*
X727650Y-258320D01*
Y-258413D01*
X728112Y-259153D01*
X728576Y-259709D01*
X729223Y-260727D01*
X729779Y-261376D01*
X730057Y-261931D01*
X730242Y-262209D01*
X730334Y-262301D01*
X730427Y-262394D01*
Y-262301D01*
X730520Y-262116D01*
X730797Y-261653D01*
X731075Y-261098D01*
X731168Y-261005D01*
Y-260913D01*
X731723Y-259709D01*
X732371Y-258691D01*
X732649Y-258228D01*
X732834Y-257857D01*
X732927Y-257672D01*
X733019Y-257580D01*
X733575Y-257024D01*
X734038Y-256654D01*
X734408Y-256469D01*
X734593Y-256376D01*
X734964Y-256283D01*
X735427Y-256376D01*
X735890Y-256561D01*
X736260Y-256746D01*
X736630Y-257024D01*
X736908Y-257302D01*
X737093Y-257394D01*
X737186Y-257487D01*
X737741Y-257950D01*
X738111Y-258320D01*
X738389Y-258598D01*
X738574Y-258783D01*
X738760Y-258968D01*
X738389D01*
X738019Y-259153D01*
X737649Y-259339D01*
X737278Y-259709D01*
X736630Y-260542D01*
X735890Y-261561D01*
X735334Y-262486D01*
X734871Y-263412D01*
X734686Y-263783D01*
X734593Y-263968D01*
X734501Y-264153D01*
Y-264246D01*
X734038Y-265171D01*
X733668Y-266005D01*
X733390Y-266745D01*
X733112Y-267301D01*
X732834Y-267856D01*
X732649Y-268319D01*
X732371Y-268967D01*
X732186Y-269338D01*
X732094Y-269523D01*
Y-269615D01*
X727742Y-266282D01*
X727187Y-264986D01*
X726446Y-263598D01*
X725705Y-262301D01*
X724965Y-261005D01*
X724317Y-259894D01*
X723761Y-258968D01*
X723483Y-258598D01*
X723298Y-258320D01*
X723206Y-258228D01*
Y-258135D01*
X721909Y-256283D01*
X720613Y-254524D01*
X719410Y-252950D01*
X718206Y-251562D01*
X717188Y-250451D01*
X716447Y-249525D01*
X715892Y-248969D01*
X715706Y-248877D01*
Y-248784D01*
X714318Y-247395D01*
X713114Y-246192D01*
X712651Y-245636D01*
X712281Y-245266D01*
X712003Y-245081D01*
X711910Y-244988D01*
X711262Y-244340D01*
X710799Y-243877D01*
X710429Y-243600D01*
X710244Y-243322D01*
X709966Y-243137D01*
Y-243044D01*
X710059Y-242952D01*
X710151Y-242859D01*
X710244Y-242766D01*
X710429Y-242489D01*
X710522Y-242303D01*
Y-242211D01*
X710892Y-242303D01*
D02*
G37*
G36*
X724872Y-279799D02*
X723946D01*
Y-274893D01*
X718114D01*
Y-279799D01*
X717188D01*
Y-269523D01*
X718114D01*
Y-273967D01*
X723946D01*
Y-269523D01*
X724872D01*
Y-279799D01*
D02*
G37*
G36*
X742000D02*
X741074D01*
Y-275263D01*
X737278D01*
X736815Y-275355D01*
X736630Y-275448D01*
X736538Y-275541D01*
X736260Y-276004D01*
X736075Y-276652D01*
X735982Y-277207D01*
Y-277300D01*
Y-277392D01*
X735890Y-278689D01*
Y-278966D01*
Y-279059D01*
X735797Y-279244D01*
Y-279337D01*
X735704Y-279522D01*
Y-279707D01*
Y-279799D01*
X734593D01*
Y-279614D01*
X734779Y-279429D01*
X734871Y-279244D01*
Y-279151D01*
X734964Y-279059D01*
Y-278781D01*
Y-278689D01*
X735149Y-277115D01*
X735241Y-276281D01*
X735334Y-275726D01*
X735427Y-275448D01*
Y-275355D01*
X735982Y-274893D01*
X736260Y-274800D01*
X736352D01*
X735890Y-274522D01*
X735519Y-274244D01*
X735241Y-273967D01*
X735149Y-273874D01*
X734871Y-273319D01*
X734779Y-272763D01*
X734686Y-272393D01*
Y-272208D01*
X734779Y-271652D01*
X734871Y-271282D01*
X734964Y-271004D01*
X735056Y-270912D01*
X735334Y-270541D01*
X735612Y-270264D01*
X735890Y-270078D01*
X735982Y-269986D01*
X736260Y-269801D01*
X736538Y-269708D01*
X736815Y-269615D01*
X737093D01*
X737278Y-269523D01*
X742000D01*
Y-279799D01*
D02*
G37*
G36*
X731075Y-272393D02*
X731816Y-272671D01*
X732279Y-273041D01*
X732464Y-273134D01*
Y-273226D01*
X733019Y-274059D01*
X733297Y-275078D01*
Y-275448D01*
X733390Y-275818D01*
Y-276004D01*
Y-276096D01*
X733205Y-277300D01*
X732927Y-278226D01*
X732649Y-278781D01*
X732464Y-278874D01*
Y-278966D01*
X732094Y-279337D01*
X731723Y-279522D01*
X730890Y-279892D01*
X730520D01*
X730242Y-279985D01*
X729964D01*
X729409Y-279892D01*
X728946Y-279799D01*
X728112Y-279429D01*
X727650Y-279151D01*
X727465Y-278966D01*
X727001Y-278040D01*
X726724Y-277115D01*
X726631Y-276744D01*
Y-276374D01*
Y-276189D01*
Y-276096D01*
X726724Y-274893D01*
X727001Y-273967D01*
X727187Y-273689D01*
X727372Y-273411D01*
X727465Y-273319D01*
Y-273226D01*
X727835Y-272856D01*
X728205Y-272671D01*
X729038Y-272300D01*
X729409D01*
X729687Y-272208D01*
X730520D01*
X731075Y-272393D01*
D02*
G37*
G36*
X712744Y-269338D02*
X713577Y-269615D01*
X714040Y-269986D01*
X714133Y-270078D01*
X714225D01*
X714781Y-270726D01*
X715058Y-271282D01*
X715151Y-271837D01*
Y-271930D01*
Y-272022D01*
X715058Y-272763D01*
X714873Y-273319D01*
X714688Y-273689D01*
X714595Y-273782D01*
X714318Y-273967D01*
X714040Y-274244D01*
X713299Y-274522D01*
X712651Y-274708D01*
X712466Y-274800D01*
X712373D01*
X711448Y-275078D01*
X710522Y-275355D01*
X709874Y-275633D01*
X709503Y-275818D01*
X709411Y-275911D01*
X709133Y-276281D01*
X709040Y-276744D01*
X708948Y-277022D01*
Y-277207D01*
X709040Y-277855D01*
X709318Y-278318D01*
X709596Y-278596D01*
X709688Y-278689D01*
X710337Y-278966D01*
X710892Y-279151D01*
X711355Y-279244D01*
X711540D01*
X712373Y-279151D01*
X713114Y-278874D01*
X713484Y-278596D01*
X713670Y-278503D01*
X714133Y-277948D01*
X714318Y-277300D01*
X714410Y-276837D01*
Y-276744D01*
Y-276652D01*
X715336D01*
Y-276744D01*
X715151Y-277763D01*
X714873Y-278503D01*
X714595Y-278966D01*
X714410Y-279151D01*
X713484Y-279707D01*
X712559Y-279985D01*
X712188D01*
X711818Y-280077D01*
X711540D01*
X710429Y-279985D01*
X709596Y-279614D01*
X709133Y-279337D01*
X708948Y-279244D01*
X708392Y-278596D01*
X708115Y-277855D01*
X708022Y-277300D01*
Y-277207D01*
Y-277115D01*
X708115Y-276374D01*
X708392Y-275818D01*
X708763Y-275448D01*
X708855Y-275263D01*
X709503Y-274800D01*
X710337Y-274430D01*
X710707Y-274337D01*
X710985Y-274244D01*
X711170Y-274152D01*
X711262D01*
X712466Y-273782D01*
X713021Y-273596D01*
X713392Y-273411D01*
X713670Y-273319D01*
X713762Y-273226D01*
X713947Y-272856D01*
X714040Y-272486D01*
X714133Y-272208D01*
Y-272115D01*
X714040Y-271467D01*
X713855Y-270912D01*
X713670Y-270634D01*
X713577Y-270541D01*
X713021Y-270356D01*
X712466Y-270171D01*
X711818D01*
X710985Y-270264D01*
X710429Y-270449D01*
X710059Y-270634D01*
X709966Y-270726D01*
X709596Y-271282D01*
X709411Y-271837D01*
X709318Y-272208D01*
Y-272300D01*
Y-272393D01*
X708392D01*
X708577Y-271374D01*
X708855Y-270726D01*
X709133Y-270264D01*
X709318Y-270171D01*
X710059Y-269615D01*
X710892Y-269338D01*
X711262Y-269245D01*
X711818D01*
X712744Y-269338D01*
D02*
G37*
%LPC*%
G36*
X108159Y-467170D02*
X107965D01*
Y-469252D01*
Y-469474D01*
X108020Y-469669D01*
X108104Y-470002D01*
X108159Y-470141D01*
X108215Y-470252D01*
X108243Y-470307D01*
X108270Y-470335D01*
X108520Y-470668D01*
X108770Y-470918D01*
X108881Y-471029D01*
X108992Y-471085D01*
X109048Y-471112D01*
X109075Y-471140D01*
X109270Y-471251D01*
X109464Y-471307D01*
X109797Y-471418D01*
X109936D01*
X110047Y-471446D01*
X110158D01*
X110436Y-471418D01*
X110658Y-471390D01*
X110852Y-471334D01*
X111046Y-471251D01*
X111158Y-471168D01*
X111269Y-471112D01*
X111324Y-471085D01*
X111352Y-471057D01*
X111491Y-470890D01*
X111602Y-470696D01*
X111657Y-470502D01*
X111713Y-470307D01*
X111741Y-470141D01*
X111768Y-470002D01*
Y-469891D01*
Y-469863D01*
X111741Y-469419D01*
X111629Y-469030D01*
X111491Y-468697D01*
X111296Y-468419D01*
X111130Y-468197D01*
X110991Y-468031D01*
X110880Y-467948D01*
X110852Y-467920D01*
X110463Y-467698D01*
X109992Y-467503D01*
X109520Y-467364D01*
X109048Y-467281D01*
X108631Y-467226D01*
X108437Y-467198D01*
X108270D01*
X108159Y-467170D01*
D02*
G37*
G36*
X-1779Y-459924D02*
X-1890D01*
X-1862Y-460646D01*
X-1835Y-461340D01*
X-1807Y-461979D01*
Y-462562D01*
X-1779Y-462811D01*
Y-463033D01*
Y-463228D01*
Y-463395D01*
Y-463533D01*
Y-463616D01*
Y-463672D01*
Y-463700D01*
Y-466559D01*
X2496D01*
Y-466337D01*
X-1779Y-459924D01*
D02*
G37*
G36*
X63657Y-461784D02*
X63601D01*
X63240Y-461812D01*
X62962Y-461923D01*
X62712Y-462090D01*
X62491Y-462256D01*
X62352Y-462423D01*
X62241Y-462589D01*
X62185Y-462700D01*
X62157Y-462728D01*
X62018Y-463117D01*
X61880Y-463561D01*
X61796Y-464033D01*
X61741Y-464477D01*
X61685Y-464894D01*
Y-465088D01*
Y-465255D01*
X61658Y-465366D01*
Y-465477D01*
Y-465532D01*
Y-465560D01*
X65822D01*
X65766Y-464921D01*
X65683Y-464338D01*
X65572Y-463866D01*
X65433Y-463478D01*
X65350Y-463172D01*
X65239Y-462923D01*
X65183Y-462811D01*
X65156Y-462756D01*
X64934Y-462423D01*
X64656Y-462201D01*
X64406Y-462034D01*
X64156Y-461895D01*
X63934Y-461840D01*
X63767Y-461812D01*
X63657Y-461784D01*
D02*
G37*
G36*
X-17048Y-457231D02*
X-17243D01*
X-17659Y-457259D01*
X-18020Y-457370D01*
X-18325Y-457481D01*
X-18575Y-457648D01*
X-18797Y-457786D01*
X-18936Y-457925D01*
X-19019Y-458036D01*
X-19047Y-458064D01*
X-19269Y-458397D01*
X-19408Y-458758D01*
X-19519Y-459147D01*
X-19602Y-459535D01*
X-19658Y-459869D01*
X-19686Y-460146D01*
Y-460257D01*
Y-460341D01*
Y-460368D01*
Y-460396D01*
X-19658Y-460924D01*
X-19602Y-461396D01*
X-19491Y-461812D01*
X-19380Y-462145D01*
X-19269Y-462423D01*
X-19158Y-462589D01*
X-19103Y-462728D01*
X-19075Y-462756D01*
X-18825Y-463033D01*
X-18547Y-463228D01*
X-18242Y-463367D01*
X-17937Y-463450D01*
X-17687Y-463506D01*
X-17465Y-463561D01*
X-17270D01*
X-16826Y-463533D01*
X-16437Y-463422D01*
X-16132Y-463283D01*
X-15855Y-463117D01*
X-15660Y-462978D01*
X-15494Y-462839D01*
X-15410Y-462728D01*
X-15382Y-462700D01*
X-15160Y-462340D01*
X-15022Y-461923D01*
X-14911Y-461507D01*
X-14827Y-461090D01*
X-14772Y-460729D01*
X-14744Y-460452D01*
Y-460341D01*
Y-460257D01*
Y-460202D01*
Y-460174D01*
X-14772Y-459674D01*
X-14827Y-459230D01*
X-14938Y-458841D01*
X-15049Y-458536D01*
X-15160Y-458286D01*
X-15272Y-458120D01*
X-15327Y-458009D01*
X-15355Y-457981D01*
X-15632Y-457731D01*
X-15910Y-457537D01*
X-16243Y-457426D01*
X-16549Y-457314D01*
X-16826Y-457259D01*
X-17048Y-457231D01*
D02*
G37*
G36*
X-17020Y-464921D02*
X-17159D01*
X-17465Y-464949D01*
X-17715Y-464977D01*
X-17964Y-465060D01*
X-18159Y-465144D01*
X-18325Y-465227D01*
X-18436Y-465282D01*
X-18520Y-465338D01*
X-18547Y-465366D01*
X-18742Y-465532D01*
X-18936Y-465727D01*
X-19214Y-466143D01*
X-19297Y-466310D01*
X-19380Y-466448D01*
X-19436Y-466559D01*
Y-466587D01*
X-19547Y-466893D01*
X-19630Y-467226D01*
X-19686Y-467559D01*
X-19741Y-467836D01*
Y-468114D01*
X-19769Y-468308D01*
Y-468447D01*
Y-468503D01*
Y-468891D01*
X-19713Y-469252D01*
X-19686Y-469558D01*
X-19630Y-469835D01*
X-19575Y-470057D01*
X-19519Y-470224D01*
X-19491Y-470335D01*
X-19464Y-470363D01*
X-19325Y-470613D01*
X-19186Y-470863D01*
X-19047Y-471057D01*
X-18908Y-471223D01*
X-18770Y-471334D01*
X-18658Y-471418D01*
X-18603Y-471473D01*
X-18575Y-471501D01*
X-18353Y-471612D01*
X-18131Y-471695D01*
X-17687Y-471806D01*
X-17492Y-471834D01*
X-17326Y-471862D01*
X-17187D01*
X-16743Y-471834D01*
X-16354Y-471723D01*
X-16021Y-471584D01*
X-15743Y-471418D01*
X-15521Y-471251D01*
X-15382Y-471112D01*
X-15272Y-471001D01*
X-15244Y-470974D01*
X-15022Y-470613D01*
X-14855Y-470168D01*
X-14744Y-469724D01*
X-14661Y-469280D01*
X-14605Y-468891D01*
X-14577Y-468586D01*
Y-468447D01*
Y-468364D01*
Y-468308D01*
Y-468281D01*
Y-467920D01*
X-14605Y-467614D01*
X-14661Y-467309D01*
X-14716Y-467059D01*
X-14744Y-466837D01*
X-14799Y-466698D01*
X-14827Y-466587D01*
Y-466559D01*
X-14938Y-466282D01*
X-15077Y-466060D01*
X-15188Y-465838D01*
X-15327Y-465671D01*
X-15466Y-465532D01*
X-15577Y-465449D01*
X-15632Y-465393D01*
X-15660Y-465366D01*
X-15882Y-465227D01*
X-16132Y-465116D01*
X-16382Y-465032D01*
X-16632Y-464977D01*
X-16826Y-464949D01*
X-17020Y-464921D01*
D02*
G37*
G36*
X-678367Y-199424D02*
X-678552D01*
Y-199517D01*
X-679107D01*
X-679570Y-199702D01*
X-680404Y-199980D01*
X-680959Y-200350D01*
X-681052Y-200443D01*
X-681144Y-200535D01*
X-681329Y-200720D01*
X-681515Y-200813D01*
Y-200906D01*
X-681700Y-201276D01*
X-681792Y-201369D01*
X-681885D01*
X-690958Y-217108D01*
X-687810Y-218404D01*
X-686792Y-218682D01*
X-685958Y-218867D01*
X-685588Y-218959D01*
X-683922D01*
X-683088Y-218867D01*
X-681422D01*
X-680959Y-218774D01*
X-679848D01*
X-678922Y-218867D01*
X-678089Y-218959D01*
X-677441Y-219052D01*
X-676885Y-219144D01*
X-676423Y-219330D01*
X-676145Y-219422D01*
X-676052D01*
X-675312Y-219700D01*
X-674571Y-220070D01*
X-673182Y-220903D01*
X-672534Y-221274D01*
X-672071Y-221552D01*
X-671793Y-221737D01*
X-671701Y-221829D01*
X-671423Y-222015D01*
X-670960Y-222292D01*
X-670590Y-222570D01*
X-670497Y-222663D01*
X-670405D01*
X-670127Y-222848D01*
X-670034Y-222940D01*
X-669942D01*
X-669664Y-223125D01*
X-669571Y-223218D01*
X-668923Y-223588D01*
X-668460Y-223959D01*
X-668090Y-224144D01*
X-667997Y-224237D01*
X-667442Y-224699D01*
X-666979Y-225070D01*
X-666794Y-225347D01*
X-666701Y-225440D01*
X-662628Y-223125D01*
X-675126Y-201461D01*
X-675497Y-200906D01*
X-675867Y-200535D01*
X-676145Y-200257D01*
X-676237Y-200165D01*
X-676330D01*
X-676423Y-200072D01*
X-676515Y-199980D01*
X-677256Y-199609D01*
X-677904Y-199517D01*
X-678367Y-199424D01*
D02*
G37*
G36*
X-691421Y-218033D02*
X-696791Y-227292D01*
X-696328Y-227662D01*
X-696143Y-227755D01*
X-696050Y-227847D01*
X-695587Y-228403D01*
X-695217Y-228866D01*
X-694939Y-229236D01*
X-694846Y-229421D01*
X-694569Y-230069D01*
X-694384Y-230625D01*
X-694198Y-231180D01*
X-694106Y-231273D01*
Y-231365D01*
X-693736Y-232199D01*
X-693458Y-232754D01*
X-693365Y-233032D01*
X-693273Y-233125D01*
X-692902Y-233587D01*
X-692810Y-233680D01*
X-692717Y-233773D01*
X-692254Y-234328D01*
X-692162Y-234421D01*
X-692069Y-234513D01*
X-691143Y-235347D01*
X-690310Y-236087D01*
X-689569Y-236643D01*
X-688921Y-237013D01*
X-688366Y-237291D01*
X-687995Y-237476D01*
X-687718Y-237568D01*
X-687625D01*
X-667627Y-225996D01*
X-667997Y-225625D01*
X-668275Y-225347D01*
X-668553Y-225162D01*
X-668645Y-225070D01*
X-669201Y-224699D01*
X-669664Y-224329D01*
X-670034Y-224144D01*
X-670127Y-224051D01*
X-670497Y-223774D01*
X-670775Y-223681D01*
X-670960Y-223588D01*
X-671608Y-223125D01*
X-671979Y-222848D01*
X-672256Y-222755D01*
X-672349Y-222663D01*
X-673182Y-222107D01*
X-673923Y-221552D01*
X-674663Y-221181D01*
X-675219Y-220903D01*
X-675774Y-220626D01*
X-676145Y-220441D01*
X-676330Y-220348D01*
X-676423D01*
X-677811Y-220070D01*
X-679200Y-219885D01*
X-682070D01*
X-683274Y-219978D01*
X-684199Y-220070D01*
X-685218D01*
X-686329Y-219885D01*
X-687255Y-219700D01*
X-687625Y-219515D01*
X-687903Y-219422D01*
X-688088Y-219330D01*
X-688180D01*
X-691421Y-218033D01*
D02*
G37*
G36*
X-677071Y-235069D02*
X-679570Y-236458D01*
X-679015Y-236920D01*
X-678459Y-237383D01*
X-677996Y-237661D01*
X-677904Y-237846D01*
X-677811D01*
X-677626Y-237568D01*
X-677441Y-237198D01*
X-677348Y-236920D01*
X-677256Y-236828D01*
X-677163Y-236643D01*
Y-236550D01*
X-676978Y-235994D01*
Y-235809D01*
Y-235717D01*
Y-235532D01*
X-677071Y-235347D01*
Y-235161D01*
Y-235069D01*
D02*
G37*
G36*
X-674386Y-233495D02*
X-676145Y-234513D01*
X-676052Y-234976D01*
X-675960Y-235439D01*
Y-235717D01*
Y-235809D01*
X-676052Y-236272D01*
X-676145Y-236643D01*
X-676237Y-236920D01*
Y-237013D01*
X-676330Y-237198D01*
X-676608Y-237754D01*
X-676885Y-238216D01*
X-676978Y-238402D01*
X-677071Y-238494D01*
X-676423Y-239050D01*
X-675867Y-239605D01*
X-675497Y-239976D01*
X-675312Y-240161D01*
X-675219Y-240253D01*
X-675126Y-240346D01*
X-675034Y-240438D01*
Y-240531D01*
X-674663Y-239976D01*
X-674478Y-239513D01*
X-674293Y-239235D01*
Y-239142D01*
X-674201Y-238957D01*
X-674108Y-238772D01*
X-674015Y-238494D01*
Y-238402D01*
X-673923Y-237939D01*
X-673830Y-237476D01*
Y-237106D01*
Y-236920D01*
Y-236828D01*
Y-236643D01*
Y-236087D01*
Y-235532D01*
Y-235347D01*
Y-235254D01*
Y-234884D01*
X-673923Y-234513D01*
Y-234328D01*
Y-234235D01*
X-674201Y-233680D01*
X-674386Y-233587D01*
Y-233495D01*
D02*
G37*
G36*
X-671886Y-232106D02*
X-673460Y-232939D01*
X-673090Y-233587D01*
X-672904Y-233865D01*
Y-233958D01*
X-672812Y-234421D01*
Y-234791D01*
Y-235161D01*
Y-235254D01*
Y-235902D01*
Y-236087D01*
Y-236180D01*
Y-236643D01*
Y-236828D01*
Y-236920D01*
Y-237661D01*
X-672904Y-238216D01*
X-672997Y-238494D01*
Y-238587D01*
Y-238680D01*
X-673090Y-238957D01*
Y-239050D01*
Y-239142D01*
X-673182D01*
X-673275Y-239328D01*
X-673367Y-239513D01*
Y-239605D01*
X-673645Y-240253D01*
X-674015Y-240809D01*
X-674201Y-241179D01*
X-674293Y-241364D01*
X-673830Y-242105D01*
X-673552Y-242661D01*
X-673367Y-243031D01*
X-673275Y-243216D01*
X-672904Y-243031D01*
X-672812Y-242846D01*
X-672719D01*
X-672349Y-242661D01*
X-672164Y-242475D01*
X-672071Y-242383D01*
X-671886Y-242198D01*
X-671793Y-242105D01*
X-671701D01*
X-671516Y-241920D01*
X-671330Y-241827D01*
X-671238Y-241735D01*
X-671145D01*
X-671053Y-241642D01*
Y-241457D01*
Y-240716D01*
X-671145Y-240068D01*
X-671238Y-239698D01*
Y-239513D01*
Y-239235D01*
Y-238957D01*
X-671053Y-238124D01*
X-670960Y-237754D01*
X-670867Y-237476D01*
X-670775Y-237291D01*
Y-237198D01*
X-670590Y-236643D01*
X-670497Y-236180D01*
X-670405Y-235624D01*
Y-235254D01*
Y-235161D01*
X-670497Y-234791D01*
X-670775Y-234328D01*
X-670960Y-233958D01*
X-671053Y-233865D01*
X-671516Y-233125D01*
X-671793Y-232569D01*
X-671886Y-232199D01*
Y-232106D01*
D02*
G37*
G36*
X-683366Y-241272D02*
X-683459D01*
X-683644Y-241457D01*
X-684107Y-241827D01*
X-684385Y-242198D01*
X-684570Y-242290D01*
Y-242383D01*
Y-242475D01*
X-684662D01*
Y-242568D01*
X-684847Y-242753D01*
Y-242938D01*
Y-243031D01*
Y-243123D01*
Y-243309D01*
X-684755Y-243586D01*
X-684662Y-243864D01*
Y-243957D01*
Y-244049D01*
X-684385Y-244234D01*
X-684014Y-244327D01*
X-683551D01*
X-682811Y-244234D01*
X-682255Y-244142D01*
X-681885Y-244049D01*
X-681700D01*
X-681237Y-243771D01*
X-681144Y-243679D01*
X-681052D01*
Y-243586D01*
X-681144Y-243494D01*
Y-243401D01*
X-681515Y-242846D01*
X-681885Y-242383D01*
X-682163Y-242105D01*
X-682255Y-242012D01*
X-682533Y-241827D01*
X-682903Y-241549D01*
X-683274Y-241364D01*
X-683366Y-241272D01*
D02*
G37*
G36*
X-665683Y-228403D02*
X-670960Y-231458D01*
X-670867Y-232013D01*
X-670590Y-232662D01*
X-670312Y-233125D01*
X-670219Y-233217D01*
Y-233310D01*
X-669756Y-233958D01*
X-669479Y-234513D01*
X-669294Y-234884D01*
Y-234976D01*
Y-235254D01*
X-669386Y-235717D01*
X-669571Y-236550D01*
X-669664Y-236920D01*
X-669756Y-237291D01*
X-669849Y-237476D01*
Y-237568D01*
X-670034Y-238031D01*
X-670127Y-238402D01*
X-670219Y-238957D01*
Y-239142D01*
Y-239235D01*
X-670034Y-240068D01*
Y-240716D01*
Y-241272D01*
Y-241364D01*
Y-241457D01*
Y-241735D01*
Y-241827D01*
X-670127Y-242012D01*
Y-242105D01*
X-670219Y-242383D01*
Y-242568D01*
X-670312Y-242661D01*
X-670405Y-243031D01*
Y-243216D01*
X-670497Y-243309D01*
X-670775Y-244234D01*
X-670960Y-244975D01*
X-671145Y-245623D01*
Y-246086D01*
X-671238Y-246364D01*
Y-246549D01*
Y-246734D01*
X-671053Y-247382D01*
X-670775Y-247845D01*
X-670497Y-248216D01*
X-670405Y-248308D01*
X-670219Y-248401D01*
X-670127Y-248493D01*
Y-248401D01*
Y-248216D01*
Y-248123D01*
Y-248030D01*
Y-247660D01*
Y-247475D01*
X-669849Y-246827D01*
X-669756Y-246642D01*
X-669664Y-246549D01*
X-669479Y-246364D01*
X-669386Y-246179D01*
X-669016Y-245716D01*
X-668738Y-245345D01*
X-668368Y-245160D01*
X-667997Y-244975D01*
X-667442Y-244790D01*
X-666886D01*
X-666794Y-244883D01*
X-666609D01*
X-666423Y-244512D01*
X-666331Y-244142D01*
X-666238Y-243771D01*
X-666146Y-243679D01*
X-665868Y-243031D01*
X-665590Y-242475D01*
X-665498Y-242105D01*
X-665405Y-241920D01*
X-665220Y-241179D01*
X-665127Y-240531D01*
X-665035Y-239883D01*
Y-239790D01*
Y-239698D01*
X-664850Y-238494D01*
X-664664Y-237661D01*
X-664572Y-237198D01*
Y-237013D01*
Y-236920D01*
X-664479Y-236643D01*
X-664387Y-236365D01*
X-664294Y-236087D01*
Y-235994D01*
X-664109Y-235254D01*
X-663924Y-234606D01*
Y-234143D01*
X-663831Y-233680D01*
Y-233402D01*
X-663924Y-233217D01*
Y-233032D01*
X-664109Y-232569D01*
X-664294Y-231921D01*
X-664572Y-231365D01*
X-664664Y-231273D01*
Y-231180D01*
X-665220Y-230069D01*
X-665498Y-229143D01*
X-665683Y-228588D01*
Y-228495D01*
Y-228403D01*
D02*
G37*
G36*
X-680589Y-237013D02*
X-684385Y-239235D01*
X-683922Y-239605D01*
X-683459Y-239976D01*
X-682996Y-240346D01*
X-682903Y-240438D01*
X-682811D01*
X-682255Y-240809D01*
X-681885Y-241087D01*
X-681700Y-241272D01*
X-681607D01*
X-681052Y-241827D01*
X-680589Y-242383D01*
X-680311Y-242753D01*
X-680218Y-242846D01*
Y-242938D01*
X-680033Y-243309D01*
X-679941Y-243679D01*
X-679848Y-243771D01*
Y-243864D01*
X-679755Y-244142D01*
X-679663Y-244234D01*
Y-244327D01*
X-679107Y-244142D01*
X-678830D01*
X-678459Y-244049D01*
X-678367Y-243957D01*
X-677071D01*
X-676515Y-244049D01*
X-676330D01*
X-676145Y-244142D01*
X-676052D01*
X-675960Y-244234D01*
X-675682D01*
X-675589Y-244327D01*
X-675497D01*
X-674941Y-244605D01*
X-674478Y-244883D01*
X-674201Y-245068D01*
X-674108Y-245160D01*
X-674015Y-245253D01*
X-673923Y-245438D01*
X-673842Y-245519D01*
X-673830Y-245623D01*
Y-245531D01*
X-673842Y-245519D01*
X-673923Y-244790D01*
X-674201Y-243957D01*
X-674571Y-243123D01*
X-675034Y-242383D01*
X-675404Y-241735D01*
X-675774Y-241272D01*
X-676052Y-240901D01*
X-676145Y-240809D01*
X-676885Y-239976D01*
X-677626Y-239328D01*
X-678182Y-238865D01*
X-678274Y-238680D01*
X-678367D01*
X-679293Y-238031D01*
X-679941Y-237476D01*
X-680404Y-237106D01*
X-680589Y-237013D01*
D02*
G37*
G36*
X-680681Y-244697D02*
X-680866Y-244790D01*
X-681144Y-244883D01*
X-681329Y-244975D01*
X-681422D01*
X-681515Y-245068D01*
X-681700D01*
X-681792Y-245160D01*
X-681885D01*
X-682163Y-245623D01*
Y-245993D01*
Y-246271D01*
Y-246364D01*
Y-246549D01*
X-682070Y-246642D01*
Y-246827D01*
X-681977Y-246919D01*
X-681885D01*
X-681607Y-247104D01*
X-681329Y-247197D01*
X-680959D01*
X-680496Y-247104D01*
X-680126Y-247012D01*
X-679941Y-246919D01*
X-679848Y-246827D01*
X-680218Y-246179D01*
X-680404Y-245623D01*
X-680589Y-245253D01*
Y-245160D01*
X-680681Y-244790D01*
Y-244697D01*
D02*
G37*
G36*
X-677996Y-244420D02*
X-678274D01*
X-678830Y-244605D01*
X-679293Y-244697D01*
X-679478Y-244790D01*
X-679570Y-244883D01*
X-679385Y-245438D01*
X-679107Y-245993D01*
X-678737Y-246456D01*
X-678644Y-246549D01*
Y-246642D01*
X-678089Y-247382D01*
X-677719Y-247753D01*
X-677441Y-248030D01*
X-677348Y-248123D01*
X-677071Y-248308D01*
X-676885Y-248401D01*
X-676700Y-248493D01*
X-676330Y-248678D01*
X-675219D01*
X-674849Y-248586D01*
X-674663Y-248493D01*
X-674478Y-248401D01*
X-674201Y-248030D01*
X-674015Y-247567D01*
X-673830Y-247197D01*
Y-247012D01*
X-673923Y-246549D01*
X-674015Y-246456D01*
X-674201Y-245993D01*
X-674386Y-245716D01*
X-674478Y-245531D01*
X-674849Y-245253D01*
X-675219Y-244975D01*
X-675497Y-244883D01*
X-675589Y-244790D01*
X-675774D01*
X-675867Y-244697D01*
X-676237D01*
X-676608Y-244605D01*
X-677071Y-244512D01*
X-677441D01*
X-677996Y-244420D01*
D02*
G37*
G36*
X-667164Y-245253D02*
X-667627D01*
X-667905Y-245438D01*
X-668460Y-245808D01*
X-668831Y-246179D01*
X-668923Y-246271D01*
Y-246364D01*
X-669016Y-246549D01*
X-669108Y-246642D01*
X-669201Y-246734D01*
Y-246827D01*
X-669479Y-247382D01*
X-669571Y-247567D01*
Y-247660D01*
X-669664Y-247753D01*
Y-247845D01*
Y-247938D01*
Y-248030D01*
Y-248308D01*
X-669571Y-248401D01*
Y-248493D01*
Y-248678D01*
Y-248771D01*
X-669479Y-248864D01*
X-669108D01*
X-668645Y-248678D01*
X-668275Y-248493D01*
X-668090Y-248308D01*
X-667997Y-248216D01*
X-667812Y-247938D01*
X-667627Y-247567D01*
X-667257Y-246734D01*
X-667164Y-246364D01*
X-666979Y-245993D01*
X-666886Y-245808D01*
Y-245716D01*
X-666794Y-245345D01*
X-666886D01*
X-667164Y-245253D01*
D02*
G37*
G36*
X-661054Y-225810D02*
X-664664Y-227847D01*
X-664479Y-228773D01*
X-664202Y-229792D01*
X-664016Y-230162D01*
X-663831Y-230532D01*
X-663739Y-230717D01*
Y-230810D01*
X-663368Y-231643D01*
X-663091Y-232291D01*
X-662905Y-232662D01*
Y-232754D01*
X-662813Y-233217D01*
Y-233773D01*
X-662998Y-234884D01*
X-663091Y-235439D01*
X-663183Y-235902D01*
X-663276Y-236180D01*
Y-236272D01*
X-663368Y-236643D01*
X-663461Y-237013D01*
X-663553Y-237106D01*
Y-237198D01*
Y-237291D01*
X-663739Y-238031D01*
X-663831Y-238865D01*
X-663924Y-239235D01*
X-664016Y-239513D01*
Y-239698D01*
Y-239790D01*
X-664109Y-240438D01*
X-664202Y-240994D01*
Y-241364D01*
X-664294Y-241735D01*
X-664479Y-242198D01*
Y-242290D01*
X-664664Y-242846D01*
X-664850Y-243401D01*
X-665035Y-243957D01*
X-665127Y-244049D01*
Y-244142D01*
X-665312Y-244605D01*
X-665498Y-244883D01*
X-665683Y-245345D01*
X-665775Y-245531D01*
Y-245623D01*
Y-245716D01*
X-665868Y-245808D01*
Y-245901D01*
Y-245993D01*
X-666146Y-246734D01*
X-666423Y-247382D01*
X-666609Y-247845D01*
X-666886Y-248216D01*
X-666979Y-248493D01*
X-667164Y-248678D01*
X-667257Y-248864D01*
X-667812Y-249419D01*
X-668460Y-249697D01*
X-668831Y-249882D01*
X-669386D01*
X-669756Y-249789D01*
X-670034Y-249697D01*
X-670127D01*
X-670775Y-249326D01*
X-670960Y-249234D01*
X-671053Y-249141D01*
X-671423Y-248771D01*
X-671701Y-248401D01*
X-672071Y-247660D01*
X-672256Y-247012D01*
Y-246919D01*
Y-246827D01*
Y-246456D01*
X-672164Y-245901D01*
X-671979Y-244790D01*
X-671886Y-244234D01*
X-671701Y-243771D01*
X-671608Y-243494D01*
Y-243401D01*
X-671979Y-243586D01*
X-672071Y-243679D01*
X-672164Y-243771D01*
X-672627Y-244049D01*
X-672812Y-244234D01*
X-672904Y-244327D01*
X-672812Y-244883D01*
X-672719Y-245345D01*
Y-245716D01*
Y-245808D01*
Y-245901D01*
Y-245993D01*
Y-246086D01*
X-672812Y-246827D01*
X-672904Y-247382D01*
X-673090Y-247938D01*
X-673275Y-248401D01*
X-673460Y-248678D01*
X-673645Y-248956D01*
X-673830Y-249049D01*
Y-249141D01*
X-674201Y-249419D01*
X-674663Y-249604D01*
X-675034Y-249697D01*
X-676237D01*
X-676885Y-249512D01*
X-677071Y-249419D01*
X-677163D01*
X-677533Y-249234D01*
X-677811Y-249141D01*
X-677904Y-248956D01*
X-677996D01*
X-678459Y-248586D01*
X-678830Y-248123D01*
X-679107Y-247753D01*
X-679200Y-247660D01*
X-679755Y-248030D01*
X-680311Y-248216D01*
X-680681Y-248308D01*
X-680866D01*
X-681607Y-248216D01*
X-682163Y-248030D01*
X-682533Y-247753D01*
X-682626Y-247660D01*
X-682718Y-247567D01*
X-682811Y-247475D01*
X-682996Y-247290D01*
X-683088Y-247104D01*
X-683181Y-246827D01*
Y-246734D01*
Y-246642D01*
X-683274Y-246179D01*
Y-245716D01*
X-683181Y-245438D01*
Y-245345D01*
X-683644D01*
X-684477Y-245253D01*
X-685033Y-244975D01*
X-685403Y-244790D01*
X-685496Y-244697D01*
X-685588Y-244420D01*
X-685681Y-244327D01*
X-685773Y-243864D01*
X-685866Y-243494D01*
X-685958Y-243216D01*
Y-243123D01*
X-685866Y-242661D01*
X-685773Y-242198D01*
X-685588Y-241920D01*
X-685496Y-241827D01*
X-685403Y-241735D01*
X-684940Y-241272D01*
X-684570Y-240901D01*
X-684385Y-240809D01*
X-684292Y-240716D01*
X-684662Y-240346D01*
X-685033Y-240068D01*
X-685218Y-239883D01*
X-685310Y-239790D01*
X-707253Y-252474D01*
X-706605Y-252845D01*
X-706327Y-253030D01*
X-705956D01*
X-705771Y-253122D01*
X-705123D01*
Y-253215D01*
X-651981D01*
X-651425Y-253122D01*
X-650870Y-253030D01*
X-650036Y-252659D01*
X-649481Y-252382D01*
X-649388Y-252197D01*
X-649296D01*
X-649018Y-251826D01*
X-648925Y-251734D01*
X-648740Y-251456D01*
X-648648Y-251271D01*
X-648555D01*
X-648185Y-250345D01*
X-648092Y-249512D01*
Y-249141D01*
X-648185Y-248864D01*
Y-248678D01*
Y-248586D01*
X-648277Y-248123D01*
X-648370Y-248030D01*
X-648462Y-247660D01*
X-648555Y-247567D01*
Y-247475D01*
Y-247382D01*
X-661054Y-225810D01*
D02*
G37*
G36*
X-697254Y-228125D02*
X-697346D01*
X-708364Y-247290D01*
Y-247382D01*
X-708641Y-247938D01*
X-708827Y-248401D01*
X-708919Y-248771D01*
Y-248956D01*
Y-249234D01*
Y-249326D01*
Y-249697D01*
Y-249882D01*
X-688829Y-238216D01*
X-689477Y-237846D01*
X-690217Y-237383D01*
X-691514Y-236458D01*
X-691976Y-235994D01*
X-692439Y-235624D01*
X-692717Y-235347D01*
X-692810Y-235254D01*
X-693273Y-234698D01*
X-693458Y-234513D01*
X-693550Y-234421D01*
X-693921Y-233958D01*
X-694106Y-233773D01*
Y-233680D01*
X-694476Y-233125D01*
X-694754Y-232476D01*
X-694939Y-231921D01*
X-695032Y-231828D01*
Y-231736D01*
X-695309Y-230903D01*
X-695587Y-230347D01*
X-695680Y-230069D01*
X-695772Y-229977D01*
X-696143Y-229329D01*
X-696513Y-228958D01*
X-696698Y-228680D01*
X-696791Y-228588D01*
X-697161Y-228310D01*
X-697254Y-228125D01*
D02*
G37*
G36*
X-648370Y-259511D02*
X-648555Y-260159D01*
X-648740Y-260714D01*
X-648925Y-261177D01*
X-649018Y-261270D01*
Y-261362D01*
X-649944Y-263769D01*
X-646889D01*
X-647907Y-261177D01*
X-648092Y-260529D01*
X-648277Y-260066D01*
X-648370Y-259696D01*
Y-259511D01*
D02*
G37*
G36*
X-699753Y-259418D02*
X-699939D01*
X-700494Y-259511D01*
X-701050Y-259603D01*
X-701420Y-259788D01*
X-701513Y-259881D01*
X-701975Y-260251D01*
X-702346Y-260714D01*
X-702531Y-260992D01*
X-702624Y-261177D01*
X-702809Y-261825D01*
X-702994Y-262381D01*
Y-262844D01*
Y-262936D01*
Y-263029D01*
X-702809Y-264140D01*
X-702531Y-264973D01*
X-702253Y-265529D01*
X-702068Y-265621D01*
Y-265714D01*
X-701420Y-266269D01*
X-700679Y-266547D01*
X-700124Y-266639D01*
X-699939D01*
X-699013Y-266454D01*
X-698365Y-266177D01*
X-697902Y-265899D01*
X-697717Y-265714D01*
X-697254Y-264880D01*
X-696976Y-264047D01*
Y-263677D01*
X-696883Y-263399D01*
Y-263214D01*
Y-263121D01*
Y-262473D01*
X-697068Y-261825D01*
X-697161Y-261362D01*
X-697346Y-260992D01*
X-697624Y-260436D01*
X-697809Y-260251D01*
X-698457Y-259788D01*
X-699198Y-259511D01*
X-699753Y-259418D01*
D02*
G37*
G36*
X-674849Y-269324D02*
X-676515D01*
X-676700Y-269417D01*
X-676885Y-269510D01*
Y-269602D01*
X-677071Y-269787D01*
X-677163Y-269880D01*
Y-269972D01*
Y-270065D01*
Y-270343D01*
X-677071Y-270435D01*
X-676793Y-270621D01*
X-676700Y-270713D01*
X-676237Y-270806D01*
X-674849D01*
Y-269324D01*
D02*
G37*
G36*
X-692439D02*
X-692625Y-269880D01*
X-692810Y-270158D01*
Y-270250D01*
X-693273Y-271454D01*
X-691699D01*
X-692254Y-270158D01*
X-692439Y-269602D01*
Y-269417D01*
Y-269324D01*
D02*
G37*
G36*
X-680218D02*
X-680589D01*
X-681144Y-269417D01*
X-681329Y-269510D01*
X-681422D01*
X-681700Y-269695D01*
X-681885Y-269880D01*
X-681977Y-270065D01*
Y-270158D01*
X-682163Y-270806D01*
Y-270991D01*
Y-271084D01*
X-682070Y-271639D01*
X-681977Y-272009D01*
X-681792Y-272287D01*
X-681700Y-272380D01*
X-681329Y-272565D01*
X-680959Y-272657D01*
X-680681Y-272750D01*
X-680589D01*
X-680126Y-272657D01*
X-679848Y-272565D01*
X-679663Y-272472D01*
X-679570D01*
X-679293Y-272102D01*
X-679200Y-271639D01*
X-679107Y-271269D01*
Y-271176D01*
X-679200Y-270528D01*
X-679385Y-270065D01*
X-679478Y-269787D01*
X-679570Y-269695D01*
X-679848Y-269510D01*
X-680218Y-269324D01*
D02*
G37*
G36*
X-685496Y-275342D02*
X-686977D01*
X-687162Y-275435D01*
X-687440Y-275527D01*
X-687625Y-275713D01*
X-687810Y-275805D01*
Y-275898D01*
X-687903Y-276268D01*
X-687995Y-276546D01*
Y-276916D01*
Y-277009D01*
X-687903Y-277564D01*
X-687810Y-277750D01*
Y-277842D01*
X-687625Y-278212D01*
X-687532Y-278305D01*
Y-278398D01*
X-687347Y-278490D01*
X-687255Y-278583D01*
X-687162D01*
X-686699Y-278675D01*
X-685496D01*
Y-275342D01*
D02*
G37*
G36*
X-695271Y-378776D02*
X-695594D01*
X-696937Y-378822D01*
X-698186Y-379007D01*
X-699436Y-379238D01*
X-700546Y-379562D01*
X-701657Y-379979D01*
X-702675Y-380395D01*
X-703601Y-380858D01*
X-704480Y-381321D01*
X-705220Y-381830D01*
X-705915Y-382293D01*
X-706516Y-382709D01*
X-706979Y-383126D01*
X-707396Y-383450D01*
X-707673Y-383681D01*
X-707858Y-383866D01*
X-707905Y-383913D01*
X-708784Y-384884D01*
X-709571Y-385902D01*
X-710265Y-386921D01*
X-710866Y-387985D01*
X-711329Y-389003D01*
X-711746Y-390021D01*
X-712070Y-391040D01*
X-712347Y-391965D01*
X-712579Y-392844D01*
X-712718Y-393677D01*
X-712857Y-394372D01*
X-712903Y-395019D01*
X-712949Y-395528D01*
X-712995Y-395899D01*
Y-396130D01*
Y-396223D01*
X-712949Y-397565D01*
X-712764Y-398814D01*
X-712533Y-400018D01*
X-712209Y-401175D01*
X-711838Y-402285D01*
X-711376Y-403303D01*
X-710913Y-404229D01*
X-710450Y-405062D01*
X-709987Y-405849D01*
X-709525Y-406543D01*
X-709108Y-407145D01*
X-708691Y-407607D01*
X-708570Y-407763D01*
X-708599Y-407792D01*
X-708252Y-408163D01*
X-708136Y-408302D01*
X-707951Y-408487D01*
X-707905Y-408533D01*
X-708252Y-408163D01*
X-708367Y-408024D01*
X-708570Y-407763D01*
X-703231Y-402424D01*
X-703508Y-402239D01*
X-703740Y-402054D01*
X-703925Y-401915D01*
X-703971Y-401869D01*
X-704480Y-401313D01*
X-704850Y-400666D01*
X-705128Y-400064D01*
X-705313Y-399462D01*
X-705406Y-398953D01*
X-705498Y-398537D01*
Y-398259D01*
Y-398213D01*
Y-398166D01*
X-705452Y-397472D01*
X-705359Y-396824D01*
X-705174Y-396315D01*
X-705035Y-395853D01*
X-704850Y-395482D01*
X-704665Y-395251D01*
X-704573Y-395066D01*
X-704526Y-395019D01*
X-704156Y-394649D01*
X-703740Y-394372D01*
X-703369Y-394140D01*
X-702999Y-394001D01*
X-702675Y-393909D01*
X-702444Y-393862D01*
X-702212D01*
X-701657Y-393955D01*
X-701148Y-394140D01*
X-700685Y-394418D01*
X-700315Y-394742D01*
X-699945Y-395066D01*
X-699713Y-395343D01*
X-699528Y-395528D01*
X-699482Y-395621D01*
Y-389373D01*
X-699065D01*
X-696474Y-390438D01*
X-696613Y-390762D01*
X-696890Y-390669D01*
X-697076Y-390623D01*
X-697261D01*
X-697538Y-390669D01*
X-697585Y-390715D01*
X-697631D01*
X-697723Y-390854D01*
X-697816Y-390993D01*
X-697862Y-391132D01*
Y-391178D01*
Y-391363D01*
X-697908Y-391595D01*
Y-392196D01*
Y-392520D01*
Y-392752D01*
Y-392937D01*
Y-392983D01*
Y-397148D01*
X-695641Y-394834D01*
X-695733Y-394372D01*
X-695826Y-393955D01*
Y-393770D01*
Y-393677D01*
Y-393585D01*
Y-393539D01*
X-695780Y-393122D01*
X-695733Y-392752D01*
X-695594Y-392382D01*
X-695502Y-392104D01*
X-695363Y-391872D01*
X-695224Y-391687D01*
X-695178Y-391595D01*
X-695132Y-391549D01*
X-694854Y-391225D01*
X-694576Y-390993D01*
X-694299Y-390762D01*
X-694021Y-390623D01*
X-693790Y-390484D01*
X-693651Y-390392D01*
X-693512Y-390345D01*
X-693466D01*
X-693049Y-390206D01*
X-692633Y-390114D01*
X-692170Y-390068D01*
X-691753Y-390021D01*
X-691383Y-389975D01*
X-690781D01*
X-683979Y-383218D01*
X-683284Y-383913D01*
X-682775Y-384422D01*
X-683007Y-384144D01*
X-683192Y-383959D01*
X-683238Y-383913D01*
X-684210Y-382987D01*
X-685228Y-382200D01*
X-686292Y-381552D01*
X-687357Y-380951D01*
X-688375Y-380442D01*
X-689393Y-380025D01*
X-690411Y-379701D01*
X-691337Y-379423D01*
X-692216Y-379192D01*
X-693049Y-379053D01*
X-693743Y-378914D01*
X-694391Y-378868D01*
X-694900Y-378822D01*
X-695271Y-378776D01*
D02*
G37*
G36*
X-691615Y-390808D02*
X-691892Y-390901D01*
X-692124Y-390993D01*
X-692309Y-391086D01*
X-692355Y-391132D01*
X-692772Y-391456D01*
X-693049Y-391780D01*
X-693281Y-392058D01*
X-693327Y-392150D01*
Y-392196D01*
X-693466Y-392428D01*
X-693512Y-392613D01*
X-693558Y-392705D01*
Y-392752D01*
X-691615Y-390808D01*
D02*
G37*
G36*
X-689717Y-391687D02*
X-693281Y-395251D01*
X-693188Y-395436D01*
X-693049Y-395575D01*
X-693003Y-395621D01*
X-692957Y-395667D01*
X-692679Y-395945D01*
X-692401Y-396130D01*
X-692124Y-396269D01*
X-691846Y-396362D01*
X-691615Y-396408D01*
X-691430Y-396454D01*
X-691059D01*
X-690828Y-396408D01*
X-690596D01*
X-690319Y-396362D01*
X-690041Y-396315D01*
X-689810Y-396269D01*
X-689717D01*
Y-391687D01*
D02*
G37*
G36*
X-701379Y-395251D02*
X-701472D01*
X-701796Y-395297D01*
X-702120Y-395390D01*
X-702675Y-395667D01*
X-702860Y-395853D01*
X-702999Y-395991D01*
X-703092Y-396084D01*
X-703138Y-396130D01*
X-703369Y-396500D01*
X-703555Y-396917D01*
X-703693Y-397333D01*
X-703786Y-397750D01*
X-703832Y-398120D01*
X-703878Y-398398D01*
Y-398583D01*
Y-398675D01*
X-703832Y-399323D01*
X-703786Y-399879D01*
X-703647Y-400341D01*
X-703508Y-400712D01*
X-703369Y-401036D01*
X-703277Y-401221D01*
X-703184Y-401360D01*
X-703138Y-401406D01*
X-702999Y-401637D01*
X-702860Y-401776D01*
X-702721Y-401869D01*
X-702675Y-401915D01*
X-699482Y-398722D01*
Y-396223D01*
X-699899Y-395853D01*
X-700176Y-395621D01*
X-700407Y-395528D01*
X-700454Y-395482D01*
X-700824Y-395343D01*
X-701148Y-395297D01*
X-701379Y-395251D01*
D02*
G37*
G36*
X-682775Y-384422D02*
X-682654Y-384578D01*
X-688051Y-389975D01*
X-686061D01*
Y-390345D01*
X-686570D01*
X-687033Y-390392D01*
X-687357Y-390530D01*
X-687588Y-390715D01*
X-687635Y-390762D01*
X-687727Y-390901D01*
X-687820Y-391086D01*
X-687866Y-391595D01*
X-687912Y-391826D01*
Y-392058D01*
Y-392196D01*
Y-392243D01*
Y-400527D01*
Y-400897D01*
X-687866Y-401221D01*
Y-401452D01*
X-687820Y-401637D01*
X-687773Y-401776D01*
Y-401869D01*
X-687727Y-401915D01*
X-687588Y-402100D01*
X-687403Y-402193D01*
X-687033Y-402378D01*
X-686709Y-402424D01*
X-686061D01*
Y-402794D01*
X-691568D01*
Y-402424D01*
X-691059D01*
X-690596Y-402378D01*
X-690273Y-402239D01*
X-690087Y-402100D01*
X-689995Y-402054D01*
X-689902Y-401915D01*
X-689856Y-401684D01*
X-689763Y-401175D01*
X-689717Y-400943D01*
Y-400712D01*
Y-400573D01*
Y-400527D01*
Y-396824D01*
X-690180Y-396917D01*
X-690550Y-396963D01*
X-690781Y-397009D01*
X-690874D01*
X-691291Y-397056D01*
X-691892D01*
X-692448Y-397009D01*
X-692957Y-396963D01*
X-693373Y-396824D01*
X-693743Y-396685D01*
X-694067Y-396593D01*
X-694252Y-396454D01*
X-694391Y-396408D01*
X-694438Y-396362D01*
X-697908Y-399879D01*
Y-401961D01*
X-698510Y-402332D01*
X-699019Y-402563D01*
X-699251Y-402655D01*
X-699389Y-402748D01*
X-699482Y-402794D01*
X-699528D01*
X-700084Y-402933D01*
X-700546Y-403026D01*
X-700778Y-403072D01*
X-701102D01*
X-707200Y-409170D01*
X-707905Y-408533D01*
X-707210Y-409181D01*
X-707200Y-409170D01*
X-706933Y-409412D01*
X-705915Y-410199D01*
X-704897Y-410893D01*
X-703832Y-411495D01*
X-702814Y-411958D01*
X-701796Y-412374D01*
X-700778Y-412698D01*
X-699852Y-412976D01*
X-698973Y-413207D01*
X-698140Y-413346D01*
X-697446Y-413485D01*
X-696798Y-413531D01*
X-696289Y-413577D01*
X-695919Y-413624D01*
X-695594D01*
X-694252Y-413577D01*
X-693003Y-413392D01*
X-691753Y-413161D01*
X-690643Y-412837D01*
X-689532Y-412420D01*
X-688514Y-412004D01*
X-687588Y-411541D01*
X-686709Y-411078D01*
X-685922Y-410615D01*
X-685228Y-410153D01*
X-684673Y-409690D01*
X-684164Y-409320D01*
X-683747Y-408996D01*
X-683469Y-408764D01*
X-683284Y-408579D01*
X-683238Y-408533D01*
X-682359Y-407561D01*
X-681572Y-406543D01*
X-680878Y-405525D01*
X-680276Y-404460D01*
X-679814Y-403442D01*
X-679397Y-402378D01*
X-679073Y-401406D01*
X-678795Y-400480D01*
X-678564Y-399601D01*
X-678425Y-398768D01*
X-678286Y-398074D01*
X-678240Y-397426D01*
X-678194Y-396917D01*
X-678147Y-396547D01*
Y-396315D01*
Y-396223D01*
X-678194Y-394881D01*
X-678379Y-393631D01*
X-678610Y-392382D01*
X-678934Y-391271D01*
X-679351Y-390160D01*
X-679767Y-389142D01*
X-680230Y-388217D01*
X-680693Y-387337D01*
X-681156Y-386597D01*
X-681618Y-385902D01*
X-682081Y-385301D01*
X-682451Y-384838D01*
X-682654Y-384578D01*
X-682636Y-384560D01*
X-682775Y-384422D01*
D02*
G37*
G36*
X653355Y-397166D02*
X647707D01*
Y-398092D01*
X653355D01*
Y-397166D01*
D02*
G37*
G36*
X655021Y-398462D02*
Y-399665D01*
X646133D01*
Y-398647D01*
X644282Y-398925D01*
X642615Y-399295D01*
X641226Y-399665D01*
X640115Y-400221D01*
X639282Y-400684D01*
X638634Y-401332D01*
Y-401702D01*
X659280D01*
Y-399017D01*
X657984Y-398740D01*
X656595Y-398554D01*
X655021Y-398462D01*
D02*
G37*
G36*
X661502Y-398092D02*
X660854D01*
Y-400221D01*
X661502D01*
Y-398092D01*
D02*
G37*
G36*
X663076Y-400128D02*
Y-401702D01*
X665020D01*
Y-401424D01*
X664557Y-400962D01*
X664002Y-400591D01*
X663076Y-400128D01*
D02*
G37*
G36*
X636227Y-400406D02*
X636134D01*
X635671Y-400499D01*
X635394Y-400776D01*
X635301Y-401147D01*
Y-401239D01*
X635394Y-401702D01*
X635671Y-401887D01*
X636042Y-401980D01*
X636134D01*
X636597Y-401887D01*
X636782Y-401610D01*
X636875Y-401332D01*
Y-401239D01*
X636782Y-400776D01*
X636505Y-400499D01*
X636227Y-400406D01*
D02*
G37*
G36*
X638079Y-407535D02*
X635023D01*
Y-410590D01*
X638079D01*
Y-407535D01*
D02*
G37*
G36*
X653633Y-414479D02*
X645300D01*
Y-415034D01*
X653633D01*
Y-414479D01*
D02*
G37*
G36*
X664743Y-404572D02*
X638819D01*
X639004Y-405961D01*
X639652D01*
Y-408924D01*
X643541Y-412905D01*
X655206D01*
Y-416608D01*
X647152D01*
X652522Y-422163D01*
X664280Y-409942D01*
X664743Y-404572D01*
D02*
G37*
G36*
X664002Y-412534D02*
X653633Y-423274D01*
X662150Y-432070D01*
X664002Y-412534D01*
D02*
G37*
G36*
X639652Y-411238D02*
Y-412164D01*
X639467D01*
X641319Y-433736D01*
X651411Y-423274D01*
X644930Y-416608D01*
X643541D01*
Y-415219D01*
X639652Y-411238D01*
D02*
G37*
G36*
X652522Y-424478D02*
X641504Y-435865D01*
X641689Y-437902D01*
X642430Y-437810D01*
X643263Y-437902D01*
X644282Y-438180D01*
X645300Y-438643D01*
X646041Y-439198D01*
X646689Y-439846D01*
X647337Y-440772D01*
X647800Y-441883D01*
X648077Y-443087D01*
X647985Y-443920D01*
X661039D01*
X661965Y-434199D01*
X652522Y-424478D01*
D02*
G37*
G36*
X642893Y-440680D02*
X642430D01*
X641504Y-440772D01*
X640856Y-441143D01*
X640301Y-441513D01*
X640023Y-442068D01*
X639838Y-442531D01*
X639652Y-442994D01*
Y-443365D01*
Y-443457D01*
X639745Y-444383D01*
X640115Y-445031D01*
X640486Y-445587D01*
X641041Y-445864D01*
X641504Y-446049D01*
X641967Y-446142D01*
X642337Y-446235D01*
X642430D01*
X643356Y-446142D01*
X644004Y-445772D01*
X644559Y-445309D01*
X644837Y-444846D01*
X645022Y-444290D01*
X645115Y-443920D01*
X645208Y-443550D01*
Y-443457D01*
X645115Y-442531D01*
X644745Y-441883D01*
X644282Y-441328D01*
X643819Y-441050D01*
X643263Y-440865D01*
X642893Y-440680D01*
D02*
G37*
G36*
X660484Y-445587D02*
X660113D01*
Y-447809D01*
X660484D01*
Y-445587D01*
D02*
G37*
%LPD*%
G36*
X643078Y-441698D02*
X643541Y-441883D01*
X643819Y-442161D01*
X644004Y-442531D01*
X644282Y-443180D01*
Y-443365D01*
Y-443457D01*
X644189Y-444105D01*
X644004Y-444568D01*
X643726Y-444846D01*
X643356Y-445031D01*
X642708Y-445309D01*
X642430D01*
X641782Y-445216D01*
X641319Y-445031D01*
X641041Y-444753D01*
X640763Y-444383D01*
X640578Y-443735D01*
Y-443550D01*
Y-443457D01*
X640671Y-442809D01*
X640856Y-442346D01*
X641134Y-442068D01*
X641504Y-441791D01*
X642152Y-441605D01*
X642430D01*
X643078Y-441698D01*
D02*
G37*
%LPC*%
G36*
X642523Y-443180D02*
X642245D01*
X642152Y-443272D01*
Y-443365D01*
Y-443457D01*
Y-443642D01*
X642245Y-443735D01*
X642430D01*
X642615Y-443642D01*
X642708Y-443550D01*
Y-443457D01*
X642615Y-443272D01*
X642523Y-443180D01*
D02*
G37*
G36*
X741074Y-270356D02*
X737834D01*
X737463Y-270449D01*
X737278Y-270541D01*
X737186D01*
X736630Y-270634D01*
X736538Y-270726D01*
X736445D01*
X735982Y-271189D01*
X735890Y-271282D01*
Y-271374D01*
X735797Y-271745D01*
X735704Y-272022D01*
Y-272208D01*
Y-272300D01*
X735797Y-273041D01*
X735982Y-273504D01*
X736167Y-273782D01*
X736260Y-273874D01*
X736908Y-274152D01*
X737556Y-274244D01*
X738111Y-274337D01*
X741074D01*
Y-270356D01*
D02*
G37*
G36*
X730149Y-272948D02*
X729964D01*
X729223Y-273041D01*
X728668Y-273319D01*
X728298Y-273689D01*
X728205Y-273782D01*
X727742Y-274430D01*
X727557Y-275170D01*
X727465Y-275818D01*
Y-276004D01*
Y-276096D01*
X727557Y-277022D01*
X727835Y-277763D01*
X728112Y-278226D01*
X728205Y-278411D01*
X728668Y-278874D01*
X729316Y-279151D01*
X729779Y-279244D01*
X729964D01*
X730797Y-279151D01*
X731353Y-278781D01*
X731723Y-278503D01*
X731816Y-278411D01*
X732186Y-277670D01*
X732371Y-276929D01*
X732464Y-276374D01*
Y-276189D01*
Y-276096D01*
X732371Y-275078D01*
X732094Y-274337D01*
X731908Y-273967D01*
X731816Y-273782D01*
X731260Y-273319D01*
X730612Y-273041D01*
X730149Y-272948D01*
D02*
G37*
%LPD*%
D16*
X74181Y-421915D02*
X74900D01*
X73618D02*
X74181D01*
X107682Y-406613D02*
X108032D01*
X106758D02*
X107682D01*
X105451D02*
X106758D01*
X103953D02*
X105451D01*
X102456D02*
X103953D01*
X101149D02*
X102456D01*
X100225D02*
X101149D01*
X99874D02*
X100225D01*
X99874D02*
X100009Y-406853D01*
X100390Y-407531D01*
X100981Y-408584D01*
X101750Y-409950D01*
X102658Y-411566D01*
X103672Y-413370D01*
X104756Y-415299D01*
X105876Y-417291D01*
X106996Y-419282D01*
X108080Y-421212D01*
X109094Y-423016D01*
X110003Y-424632D01*
X110771Y-425998D01*
X111363Y-427051D01*
X111744Y-427729D01*
X111878Y-427969D01*
X111835Y-427729D02*
X111878Y-427969D01*
X111713Y-427051D02*
X111835Y-427729D01*
X111523Y-425998D02*
X111713Y-427051D01*
X111278Y-424632D02*
X111523Y-425998D01*
X110986Y-423016D02*
X111278Y-424632D01*
X110661Y-421212D02*
X110986Y-423016D01*
X110314Y-419282D02*
X110661Y-421212D01*
X109956Y-417291D02*
X110314Y-419282D01*
X109597Y-415299D02*
X109956Y-417291D01*
X109250Y-413370D02*
X109597Y-415299D01*
X108925Y-411566D02*
X109250Y-413370D01*
X108633Y-409950D02*
X108925Y-411566D01*
X108388Y-408584D02*
X108633Y-409950D01*
X108198Y-407531D02*
X108388Y-408584D01*
X108076Y-406853D02*
X108198Y-407531D01*
X108032Y-406613D02*
X108076Y-406853D01*
X111934Y-408630D02*
X111993Y-408310D01*
X111778Y-409474D02*
X111934Y-408630D01*
X111558Y-410667D02*
X111778Y-409474D01*
X111305Y-412036D02*
X111558Y-410667D01*
X111053Y-413404D02*
X111305Y-412036D01*
X110833Y-414597D02*
X111053Y-413404D01*
X110676Y-415441D02*
X110833Y-414597D01*
X110617Y-415761D02*
X110676Y-415441D01*
X110617Y-415761D02*
X110743Y-415658D01*
X111096Y-415368D01*
X111646Y-414916D01*
X112359Y-414332D01*
X113203Y-413639D01*
X114144Y-412866D01*
X115151Y-412040D01*
X116190Y-411187D01*
X117230Y-410334D01*
X118237Y-409507D01*
X119179Y-408734D01*
X120022Y-408042D01*
X120735Y-407457D01*
X121285Y-407006D01*
X121638Y-406716D01*
X121763Y-406613D01*
X121416D02*
X121763D01*
X120500D02*
X121416D01*
X119204D02*
X120500D01*
X117719D02*
X119204D01*
X116234D02*
X117719D01*
X114939D02*
X116234D01*
X114022D02*
X114939D01*
X113675D02*
X114022D01*
X113554D02*
X113675D01*
X113191Y-406714D02*
X113554Y-406613D01*
X113147Y-406734D02*
X113191Y-406714D01*
X113103Y-406754D02*
X113147Y-406734D01*
X112709Y-407020D02*
X113103Y-406754D01*
X112674Y-407053D02*
X112709Y-407020D01*
X112639Y-407086D02*
X112674Y-407053D01*
X112337Y-407462D02*
X112639Y-407086D01*
X112311Y-407504D02*
X112337Y-407462D01*
X112285Y-407546D02*
X112311Y-407504D01*
X112102Y-407958D02*
X112285Y-407546D01*
X112091Y-407999D02*
X112102Y-407958D01*
X112076Y-408047D02*
X112091Y-407999D01*
X112042Y-408154D02*
X112076Y-408047D01*
X112008Y-408261D02*
X112042Y-408154D01*
X111993Y-408310D02*
X112008Y-408261D01*
X18851Y-406584D02*
X19008Y-406713D01*
X19450Y-407081D01*
X20137Y-407653D01*
X21029Y-408394D01*
X22083Y-409271D01*
X23260Y-410250D01*
X24519Y-411297D01*
X25818Y-412378D01*
X27118Y-413458D01*
X28376Y-414505D01*
X29553Y-415484D01*
X30608Y-416360D01*
X31499Y-417101D01*
X32186Y-417673D01*
X32628Y-418041D01*
X32784Y-418171D01*
X32637Y-418215D02*
X32784Y-418171D01*
X32218Y-418337D02*
X32637Y-418215D01*
X31569Y-418528D02*
X32218Y-418337D01*
X30727Y-418776D02*
X31569Y-418528D01*
X29730Y-419068D02*
X30727Y-418776D01*
X28618Y-419395D02*
X29730Y-419068D01*
X27428Y-419745D02*
X28618Y-419395D01*
X26200Y-420105D02*
X27428Y-419745D01*
X24972Y-420466D02*
X26200Y-420105D01*
X23782Y-420816D02*
X24972Y-420466D01*
X22669Y-421143D02*
X23782Y-420816D01*
X21673Y-421435D02*
X22669Y-421143D01*
X20831Y-421683D02*
X21673Y-421435D01*
X20181Y-421874D02*
X20831Y-421683D01*
X19763Y-421996D02*
X20181Y-421874D01*
X19615Y-422040D02*
X19763Y-421996D01*
X19615Y-422040D02*
X19898Y-422039D01*
X20695Y-422039D01*
X21935Y-422038D01*
X23543Y-422037D01*
X25445Y-422035D01*
X27569Y-422034D01*
X29839Y-422032D01*
X32184Y-422030D01*
X34528Y-422029D01*
X36799Y-422027D01*
X38922Y-422025D01*
X40825Y-422024D01*
X42433Y-422023D01*
X43672Y-422021D01*
X44470Y-422021D01*
X44752D01*
X44591Y-421895D02*
X44752Y-422021D01*
X44135Y-421538D02*
X44591Y-421895D01*
X43426Y-420983D02*
X44135Y-421538D01*
X42507Y-420264D02*
X43426Y-420983D01*
X41420Y-419414D02*
X42507Y-420264D01*
X40206Y-418464D02*
X41420Y-419414D01*
X38908Y-417449D02*
X40206Y-418464D01*
X37568Y-416400D02*
X38908Y-417449D01*
X36228Y-415352D02*
X37568Y-416400D01*
X34930Y-414337D02*
X36228Y-415352D01*
X33716Y-413387D02*
X34930Y-414337D01*
X32629Y-412536D02*
X33716Y-413387D01*
X31710Y-411818D02*
X32629Y-412536D01*
X31001Y-411263D02*
X31710Y-411818D01*
X30545Y-410906D02*
X31001Y-411263D01*
X30384Y-410780D02*
X30545Y-410906D01*
X30384Y-410780D02*
X30392Y-410780D01*
X30511Y-410733D01*
X30847Y-410601D01*
X31370Y-410396D01*
X32049Y-410131D01*
X32851Y-409817D01*
X33747Y-409466D01*
X34704Y-409091D01*
X35693Y-408703D01*
X36682Y-408316D01*
X37639Y-407941D01*
X38535Y-407590D01*
X39337Y-407276D01*
X40016Y-407011D01*
X40539Y-406806D01*
X40875Y-406674D01*
X40994Y-406628D01*
X40888D02*
X40994D01*
X40781D02*
X40888D01*
X40769Y-406584D02*
X40781Y-406628D01*
X40368Y-406584D02*
X40769D01*
X39310D02*
X40368D01*
X37814D02*
X39310D01*
X36100D02*
X37814D01*
X34385D02*
X36100D01*
X32890D02*
X34385D01*
X31832D02*
X32890D01*
X31430D02*
X31832D01*
X31289D02*
X31430D01*
X30890D02*
X31289D01*
X30270D02*
X30890D01*
X29465D02*
X30270D01*
X28513D02*
X29465D01*
X27451D02*
X28513D01*
X26314D02*
X27451D01*
X25141D02*
X26314D01*
X23968D02*
X25141D01*
X22831D02*
X23968D01*
X21769D02*
X22831D01*
X20817D02*
X21769D01*
X20013D02*
X20817D01*
X19392D02*
X20013D01*
X18993D02*
X19392D01*
X18851D02*
X18993D01*
X83224Y-406628D02*
X83266Y-406760D01*
X83385Y-407132D01*
X83571Y-407711D01*
X83811Y-408462D01*
X84096Y-409351D01*
X84414Y-410343D01*
X84754Y-411404D01*
X85104Y-412499D01*
X85455Y-413594D01*
X85794Y-414655D01*
X86112Y-415647D01*
X86397Y-416535D01*
X86637Y-417287D01*
X86823Y-417866D01*
X86942Y-418238D01*
X86984Y-418371D01*
X86545Y-418374D02*
X86984Y-418371D01*
X85387Y-418381D02*
X86545Y-418374D01*
X83750Y-418391D02*
X85387Y-418381D01*
X81873Y-418403D02*
X83750Y-418391D01*
X79996Y-418415D02*
X81873Y-418403D01*
X78359Y-418425D02*
X79996Y-418415D01*
X77201Y-418432D02*
X78359Y-418425D01*
X76762Y-418435D02*
X77201Y-418432D01*
X76711Y-418589D02*
X76762Y-418435D01*
X76576Y-418995D02*
X76711Y-418589D01*
X76386Y-419570D02*
X76576Y-418995D01*
X76167Y-420228D02*
X76386Y-419570D01*
X75949Y-420886D02*
X76167Y-420228D01*
X75760Y-421461D02*
X75949Y-420886D01*
X75625Y-421867D02*
X75760Y-421461D01*
X75574Y-422021D02*
X75625Y-421867D01*
X75574Y-422021D02*
X75729D01*
X76170D01*
X76853D01*
X77740D01*
X78789D01*
X79960D01*
X81213D01*
X82505D01*
X83799D01*
X85051D01*
X86222D01*
X87271D01*
X88158D01*
X88842D01*
X89282D01*
X89437D01*
X89468Y-422024D01*
X89559Y-422035D01*
X89607Y-422040D01*
X89696Y-422036D01*
X89882Y-422024D01*
X89944Y-422021D01*
X90012D01*
X90161D01*
X90309D01*
X90377D01*
X90538D01*
X91021Y-421941D01*
X91079Y-421926D01*
X91132Y-421918D01*
X91607Y-421819D01*
X91650Y-421807D01*
X91657Y-421806D01*
X91727Y-421790D01*
X91734Y-421789D01*
X91868Y-421756D01*
X92414Y-421481D01*
X92816Y-421084D01*
X92878Y-420990D01*
X92881Y-420984D01*
X92912Y-420935D01*
X92914Y-420930D01*
X92922Y-420918D01*
X92991Y-420792D01*
X92997Y-420780D01*
X93001Y-420772D01*
X93036Y-420701D01*
X93039Y-420694D01*
X93106Y-420544D01*
X93235Y-420061D01*
X93311Y-419374D01*
X93297Y-418675D02*
X93311Y-419374D01*
X93220Y-418007D02*
X93297Y-418675D01*
X93111Y-417414D02*
X93220Y-418007D01*
X92997Y-416937D02*
X93111Y-417414D01*
X92907Y-416620D02*
X92997Y-416937D01*
X92871Y-416505D02*
X92907Y-416620D01*
X92840Y-416394D02*
X92871Y-416505D01*
X92752Y-416080D02*
X92840Y-416394D01*
X92614Y-415593D02*
X92752Y-416080D01*
X92436Y-414962D02*
X92614Y-415593D01*
X92225Y-414214D02*
X92436Y-414962D01*
X91989Y-413380D02*
X92225Y-414214D01*
X91738Y-412487D02*
X91989Y-413380D01*
X91478Y-411566D02*
X91738Y-412487D01*
X91219Y-410645D02*
X91478Y-411566D01*
X90967Y-409753D02*
X91219Y-410645D01*
X90731Y-408918D02*
X90967Y-409753D01*
X90520Y-408171D02*
X90731Y-408918D01*
X90342Y-407539D02*
X90520Y-408171D01*
X90205Y-407052D02*
X90342Y-407539D01*
X90116Y-406738D02*
X90205Y-407052D01*
X90085Y-406628D02*
X90116Y-406738D01*
X89790Y-406628D02*
X90085D01*
X89013D02*
X89790D01*
X87914D02*
X89013D01*
X86654D02*
X87914D01*
X85395D02*
X86654D01*
X84296D02*
X85395D01*
X83519D02*
X84296D01*
X83224D02*
X83519D01*
X42467Y-409014D02*
X42523Y-409195D01*
X43145Y-411247D01*
X43215Y-411477D01*
X43284Y-411706D01*
X43999Y-414060D01*
X44072Y-414302D01*
X44249Y-414867D01*
X45189Y-417925D01*
X46210Y-421299D01*
X46426Y-422021D01*
X46700D01*
X47422D01*
X48444D01*
X49614D01*
X50785D01*
X51807D01*
X52529D01*
X52803D01*
X52752Y-421848D02*
X52803Y-422021D01*
X52609Y-421359D02*
X52752Y-421848D01*
X52387Y-420600D02*
X52609Y-421359D01*
X52098Y-419615D02*
X52387Y-420600D01*
X51757Y-418451D02*
X52098Y-419615D01*
X51376Y-417150D02*
X51757Y-418451D01*
X50969Y-415760D02*
X51376Y-417150D01*
X50549Y-414324D02*
X50969Y-415760D01*
X50129Y-412889D02*
X50549Y-414324D01*
X49722Y-411498D02*
X50129Y-412889D01*
X49341Y-410198D02*
X49722Y-411498D01*
X49000Y-409033D02*
X49341Y-410198D01*
X48711Y-408048D02*
X49000Y-409033D01*
X48489Y-407289D02*
X48711Y-408048D01*
X48346Y-406800D02*
X48489Y-407289D01*
X48295Y-406628D02*
X48346Y-406800D01*
X47991Y-406631D02*
X48295Y-406628D01*
X45837Y-406650D02*
X47991Y-406631D01*
X45018Y-406650D02*
X45837D01*
X44829D02*
X45018D01*
X44413D02*
X44829D01*
X43998D02*
X44413D01*
X43809D02*
X43998D01*
X43644D02*
X43809D01*
X43281D02*
X43644D01*
X42918D02*
X43281D01*
X42753D02*
X42918D01*
X42636D02*
X42753D01*
X42379D02*
X42636D01*
X42122D02*
X42379D01*
X42005D02*
X42122D01*
X41952D02*
X42005D01*
X41791Y-406644D02*
X41952Y-406650D01*
X41720Y-406632D02*
X41791Y-406644D01*
X41720Y-406632D02*
Y-406628D01*
X41790Y-406844D01*
X42413Y-408832D01*
X42467Y-409014D01*
X92481D02*
X92537Y-409195D01*
X93160Y-411247D01*
X93230Y-411477D01*
X93300Y-411706D01*
X94014Y-414060D01*
X94087Y-414302D01*
X94263Y-414867D01*
X95204Y-417925D01*
X96224Y-421299D01*
X96440Y-422021D01*
X96714D01*
X97437D01*
X98458D01*
X99629D01*
X100800D01*
X101821D01*
X102543D01*
X102817D01*
X102767Y-421848D02*
X102817Y-422021D01*
X102624Y-421359D02*
X102767Y-421848D01*
X102402Y-420600D02*
X102624Y-421359D01*
X102113Y-419615D02*
X102402Y-420600D01*
X101772Y-418451D02*
X102113Y-419615D01*
X101391Y-417150D02*
X101772Y-418451D01*
X100984Y-415760D02*
X101391Y-417150D01*
X100564Y-414324D02*
X100984Y-415760D01*
X100143Y-412889D02*
X100564Y-414324D01*
X99736Y-411498D02*
X100143Y-412889D01*
X99355Y-410198D02*
X99736Y-411498D01*
X99014Y-409033D02*
X99355Y-410198D01*
X98726Y-408048D02*
X99014Y-409033D01*
X98504Y-407289D02*
X98726Y-408048D01*
X98360Y-406800D02*
X98504Y-407289D01*
X98309Y-406628D02*
X98360Y-406800D01*
X98006Y-406631D02*
X98309Y-406628D01*
X95852Y-406650D02*
X98006Y-406631D01*
X95033Y-406650D02*
X95852D01*
X94844D02*
X95033D01*
X94428D02*
X94844D01*
X94013D02*
X94428D01*
X93823D02*
X94013D01*
X93658D02*
X93823D01*
X93295D02*
X93658D01*
X92933D02*
X93295D01*
X92767D02*
X92933D01*
X92651D02*
X92767D01*
X92394D02*
X92651D01*
X92137D02*
X92394D01*
X92020D02*
X92137D01*
X91967D02*
X92020D01*
X91806Y-406644D02*
X91967Y-406650D01*
X91734Y-406632D02*
X91806Y-406644D01*
X91734Y-406632D02*
Y-406628D01*
X91804Y-406844D01*
X92427Y-408832D01*
X92481Y-409014D01*
X53993Y-406553D02*
X54168Y-406531D01*
X53538Y-406649D02*
X53993Y-406553D01*
X52919Y-406857D02*
X53538Y-406649D01*
X52246Y-407217D02*
X52919Y-406857D01*
X51631Y-407771D02*
X52246Y-407217D01*
X51188Y-408559D02*
X51631Y-407771D01*
X51027Y-409621D02*
X51188Y-408559D01*
X51027Y-409621D02*
X51159Y-410665D01*
X51260Y-410997D01*
X51276Y-411047D01*
X51427Y-411513D01*
X51442Y-411557D01*
X51455Y-411597D01*
X51594Y-412036D01*
X51610Y-412083D01*
X51646Y-412194D01*
X52039Y-413419D01*
X52082Y-413554D01*
X52125Y-413688D01*
X52573Y-415056D01*
X52619Y-415196D01*
X52707Y-415464D01*
X53679Y-418397D01*
X53785Y-418714D01*
X53813Y-418805D01*
X53879Y-419001D01*
X53898Y-419053D01*
X53907Y-419080D01*
X53997Y-419352D01*
X54007Y-419380D01*
X54008Y-419379D01*
X54021Y-419370D01*
X54022Y-419369D01*
X54102Y-419558D01*
X54386Y-420107D01*
X54933Y-420890D01*
X55673Y-421543D01*
X56377Y-421859D01*
X56621Y-421891D01*
Y-421893D02*
Y-421891D01*
X56617Y-421913D02*
X56621Y-421893D01*
X56617Y-421915D02*
X56617Y-421913D01*
X56617Y-421915D02*
X56816D01*
X57380D01*
X58256D01*
X59392D01*
X60737D01*
X62237D01*
X63842D01*
X65499D01*
X67156D01*
X68760D01*
X70261D01*
X71605D01*
X72741D01*
X73618D01*
X65957Y-415071D02*
X66143Y-415673D01*
X66356Y-416363D01*
X66570Y-417054D01*
X66756Y-417656D01*
X66888Y-418082D01*
X66938Y-418244D01*
X66660D02*
X66938D01*
X65925D02*
X66660D01*
X64887D02*
X65925D01*
X63696D02*
X64887D01*
X62506D02*
X63696D01*
X61468D02*
X62506D01*
X60733D02*
X61468D01*
X60455D02*
X60733D01*
X60347D02*
X60455D01*
X60022Y-418110D02*
X60347Y-418244D01*
X59982Y-418083D02*
X60022Y-418110D01*
X59943Y-418056D02*
X59982Y-418083D01*
X59657Y-417743D02*
X59943Y-418056D01*
X59639Y-417707D02*
X59657Y-417743D01*
X59635Y-417700D02*
X59639Y-417707D01*
X59596Y-417597D02*
X59635Y-417700D01*
X59528Y-417405D02*
X59596Y-417597D01*
X59510Y-417353D02*
X59528Y-417405D01*
X59492Y-417301D02*
X59510Y-417353D01*
X59269Y-416639D02*
X59492Y-417301D01*
X59241Y-416559D02*
X59269Y-416639D01*
X59215Y-416478D02*
X59241Y-416559D01*
X58911Y-415584D02*
X59215Y-416478D01*
X58876Y-415486D02*
X58911Y-415584D01*
X58843Y-415387D02*
X58876Y-415486D01*
X58512Y-414376D02*
X58843Y-415387D01*
X58479Y-414272D02*
X58512Y-414376D01*
X58401Y-414033D02*
X58479Y-414272D01*
X57542Y-411331D02*
X58401Y-414033D01*
X57449Y-411031D02*
X57542Y-411331D01*
X57439Y-411016D02*
X57449Y-411031D01*
X57439Y-411016D02*
X57528Y-410864D01*
X57556Y-410849D01*
X57585Y-410832D01*
X57766Y-410752D01*
X57835D01*
X57905D01*
X58115Y-410749D01*
X58509Y-410743D01*
X58608Y-410741D01*
X58709Y-410739D01*
X59647Y-410730D01*
X59993D01*
X60368D01*
X61493Y-410721D01*
X61635Y-410719D01*
X61778Y-410718D01*
X62795Y-410709D01*
X63181D01*
X64576D01*
X64601Y-410787D01*
X64666Y-410991D01*
X64758Y-411281D01*
X64863Y-411613D01*
X64969Y-411944D01*
X65061Y-412233D01*
X65250Y-412750D01*
X65150Y-412516D02*
X65250Y-412750D01*
X69430Y-406516D02*
X69750Y-406500D01*
X68921Y-406515D02*
X69750Y-406500D01*
X68751Y-406515D02*
X68921D01*
X68340D02*
X68751D01*
X67436D02*
X68340D01*
X66533D02*
X67436D01*
X66122D02*
X66533D01*
X65966D02*
X66122D01*
X65556D02*
X65966D01*
X64974D02*
X65556D01*
X64308D02*
X64974D01*
X63642D02*
X64308D01*
X63061D02*
X63642D01*
X62650D02*
X63061D01*
X62494D02*
X62650D01*
X62001D02*
X62494D01*
X60520Y-406516D02*
X62001Y-406515D01*
X58598Y-406520D02*
X60520Y-406516D01*
X56543Y-406526D02*
X58598Y-406520D01*
X54762Y-406533D02*
X56543Y-406526D01*
X54168Y-406535D02*
X54762Y-406533D01*
X54168Y-406535D02*
Y-406531D01*
X64105Y-413883D02*
X64394Y-413678D01*
X65155Y-413137D01*
X66232Y-412373D01*
X67466Y-411497D01*
X68700Y-410621D01*
X69777Y-409856D01*
X70538Y-409315D01*
X70827Y-409111D01*
X70722Y-408772D02*
X70827Y-409111D01*
X70442Y-407882D02*
X70722Y-408772D01*
X70048Y-406621D02*
X70442Y-407882D01*
X69596Y-405177D02*
X70048Y-406621D01*
X69144Y-403733D02*
X69596Y-405177D01*
X68750Y-402472D02*
X69144Y-403733D01*
X68471Y-401581D02*
X68750Y-402472D01*
X68365Y-401244D02*
X68471Y-401581D01*
X68365Y-401244D02*
X68650Y-401455D01*
X69399Y-402012D01*
X70458Y-402799D01*
X71673Y-403702D01*
X72888Y-404605D01*
X73948Y-405392D01*
X74697Y-405950D01*
X74981Y-406161D01*
X75270Y-405956D01*
X76031Y-405415D01*
X77108Y-404651D01*
X78342Y-403775D01*
X79576Y-402899D01*
X80653Y-402134D02*
X81414Y-401594D01*
X81702Y-401389D01*
X81590Y-401724D02*
X81702Y-401389D01*
X81291Y-402609D02*
X81590Y-401724D01*
X80870Y-403860D02*
X81291Y-402609D01*
X79903Y-406729D02*
X80386Y-405295D01*
X79481Y-407980D02*
X79903Y-406729D01*
X79183Y-408865D02*
X79481Y-407980D01*
X79070Y-409201D02*
X79183Y-408865D01*
X79000Y-409408D02*
X79070Y-409201D01*
X78816Y-409955D02*
X79000Y-409408D01*
X78555Y-410728D02*
X78816Y-409955D01*
X78256Y-411615D02*
X78555Y-410728D01*
X77957Y-412501D02*
X78256Y-411615D01*
X77697Y-413274D02*
X77957Y-412501D01*
X77512Y-413821D02*
X77697Y-413274D01*
X77442Y-414029D02*
X77512Y-413821D01*
X77338Y-414367D02*
X77442Y-414029D01*
X77063Y-415261D02*
X77338Y-414367D01*
X76673Y-416524D02*
X77063Y-415261D01*
X76226Y-417971D02*
X76673Y-416524D01*
X75780Y-419420D02*
X76226Y-417971D01*
X75390Y-420683D02*
X75780Y-419420D01*
X75010Y-421914D02*
X75390Y-420683D01*
X74594Y-420674D02*
X75010Y-421914D01*
X74168Y-419402D02*
X74594Y-420674D01*
X73679Y-417944D02*
X74168Y-419402D01*
X73191Y-416486D02*
X73679Y-417944D01*
X72764Y-415214D02*
X73191Y-416486D01*
X72463Y-414314D02*
X72764Y-415214D01*
X72348Y-413973D02*
X72463Y-414314D01*
X71994Y-413969D02*
X72348Y-413973D01*
X71060Y-413959D02*
X71994Y-413969D01*
X69740Y-413944D02*
X71060Y-413959D01*
X68226Y-413928D02*
X69740Y-413944D01*
X66713Y-413911D02*
X68226Y-413928D01*
X65393Y-413896D02*
X66713Y-413911D01*
X64459Y-413887D02*
X65393Y-413896D01*
X64105Y-413883D02*
X64459Y-413887D01*
X79576Y-402899D02*
X80653Y-402134D01*
X80386Y-405295D02*
X80870Y-403860D01*
X65691Y-414015D02*
X65957Y-415071D01*
D17*
X42995Y-425419D02*
X43084D01*
X43089Y-425430D01*
X43137Y-425500D01*
X43141Y-425503D01*
X43145Y-425506D01*
X43192Y-425522D01*
X43209D01*
X43249D01*
X43370Y-425488D01*
X43393Y-425481D01*
X43427Y-425471D01*
X43658Y-425419D01*
X43747D01*
X43823D01*
X44049Y-425471D01*
X44254Y-425590D01*
X44289Y-425625D01*
X44324Y-425659D01*
X44446Y-425855D01*
X44498Y-426065D01*
Y-426136D02*
Y-426065D01*
Y-426226D02*
Y-426136D01*
X44397Y-426499D02*
X44498Y-426226D01*
X44377Y-426525D02*
X44397Y-426499D01*
X44356Y-426551D02*
X44377Y-426525D01*
X44187Y-426691D02*
X44356Y-426551D01*
X43928Y-426844D02*
X44187Y-426691D01*
X43863Y-426877D02*
X43928Y-426844D01*
X43798Y-426909D02*
X43863Y-426877D01*
X43536Y-427054D02*
X43798Y-426909D01*
X43362Y-427177D02*
X43536Y-427054D01*
X43340Y-427198D02*
X43362Y-427177D01*
X43318Y-427220D02*
X43340Y-427198D01*
X43209Y-427433D02*
X43318Y-427220D01*
X43209Y-427512D02*
Y-427433D01*
Y-427573D02*
Y-427512D01*
Y-427573D02*
X43306Y-427757D01*
X43326Y-427776D01*
X43346Y-427794D01*
X43555Y-427885D01*
X43631D01*
X43741D01*
X44073Y-427725D01*
X44109Y-427693D01*
X44144Y-427661D01*
X44288Y-427454D01*
X44386Y-427186D01*
X44398Y-427123D01*
X44487D01*
Y-427261D02*
Y-427123D01*
Y-427565D02*
Y-427261D01*
Y-427868D02*
Y-427565D01*
Y-428007D02*
Y-427868D01*
X44398Y-428007D02*
X44487D01*
X44393Y-427995D02*
X44398Y-428007D01*
X44325Y-427936D02*
X44393Y-427995D01*
X44301Y-427936D02*
X44325D01*
X44268D02*
X44301D01*
X44170Y-427959D02*
X44268Y-427936D01*
X44155Y-427963D02*
X44170Y-427959D01*
X44106Y-427977D02*
X44155Y-427963D01*
X43766Y-428045D02*
X44106Y-427977D01*
X43636Y-428045D02*
X43766D01*
X43504D02*
X43636D01*
X43106Y-427872D02*
X43504Y-428045D01*
X43064Y-427837D02*
X43106Y-427872D01*
X43021Y-427803D02*
X43064Y-427837D01*
X42872Y-427598D02*
X43021Y-427803D01*
X42808Y-427369D02*
X42872Y-427598D01*
X42808Y-427369D02*
Y-427293D01*
Y-427194D01*
X42946Y-426897D01*
X43266Y-426632D01*
X43357Y-426588D01*
X43419Y-426557D01*
X43555Y-426492D01*
X43691Y-426425D01*
X43752Y-426395D01*
X43795Y-426374D01*
X44079Y-426179D01*
X44093Y-426160D01*
X44107Y-426142D01*
X44179Y-425965D01*
Y-425901D01*
Y-425849D01*
X44083Y-425695D02*
X44179Y-425849D01*
X44063Y-425679D02*
X44083Y-425695D01*
X44044Y-425662D02*
X44063Y-425679D01*
X43834Y-425579D02*
X44044Y-425662D01*
X43758Y-425579D02*
X43834D01*
X43662D02*
X43758D01*
X43375Y-425698D02*
X43662Y-425579D01*
X43348Y-425722D02*
X43375Y-425698D01*
X43321Y-425746D02*
X43348Y-425722D01*
X43201Y-425929D02*
X43321Y-425746D01*
X43101Y-426196D02*
X43201Y-425929D01*
X43084Y-426263D02*
X43101Y-426196D01*
X42995Y-426263D02*
X43084D01*
X42995D02*
Y-426131D01*
Y-425840D01*
Y-425550D01*
Y-425419D01*
X47256Y-427066D02*
X47302Y-427105D01*
X47484Y-427272D01*
X47599Y-427404D01*
X47611Y-427426D01*
X47624Y-427447D01*
X47688Y-427592D01*
Y-427647D02*
Y-427592D01*
Y-427682D02*
Y-427647D01*
X47640Y-427786D02*
X47688Y-427682D01*
X47630Y-427797D02*
X47640Y-427786D01*
X47620Y-427808D02*
X47630Y-427797D01*
X47455Y-427934D02*
X47620Y-427808D01*
X47432Y-427948D02*
X47455Y-427934D01*
X47432Y-427948D02*
X47474Y-427992D01*
X47629Y-428154D01*
X47705Y-428235D01*
X47707Y-428240D01*
X47731Y-428269D01*
X47889Y-428501D01*
X47896Y-428518D01*
X47902Y-428529D01*
X47926Y-428615D01*
Y-428648D02*
Y-428615D01*
Y-428712D02*
Y-428648D01*
X47758Y-428906D02*
X47926Y-428712D01*
X47723Y-428929D02*
X47758Y-428906D01*
X47664Y-428968D02*
X47723Y-428929D01*
X47324Y-429105D02*
X47664Y-428968D01*
X46962Y-429164D02*
X47324Y-429105D01*
X46842Y-429164D02*
X46962D01*
X46688D02*
X46842D01*
X46228Y-429065D02*
X46688Y-429164D01*
X45812Y-428835D02*
X46228Y-429065D01*
X45742Y-428769D02*
X45812Y-428835D01*
X45694Y-428724D02*
X45742Y-428769D01*
X45527Y-428492D02*
X45694Y-428724D01*
X45455Y-428270D02*
X45527Y-428492D01*
X45455Y-428270D02*
Y-428196D01*
Y-428109D01*
X45580Y-427848D01*
X45605Y-427823D01*
X45630Y-427797D01*
X45965Y-427642D01*
X46006Y-427636D01*
X46034Y-427632D01*
X46270Y-427615D01*
X46636Y-427601D01*
X46729Y-427599D01*
X46779Y-427597D01*
X47095Y-427581D01*
X47107Y-427579D01*
X47129Y-427576D01*
X47274Y-427524D01*
X47281Y-427518D01*
X47289Y-427510D01*
X47326Y-427451D01*
Y-427429D01*
Y-427399D01*
X47291Y-427310D02*
X47326Y-427399D01*
X47284Y-427297D02*
X47291Y-427310D01*
X47277Y-427284D02*
X47284Y-427297D01*
X47143Y-427134D02*
X47277Y-427284D01*
X47123Y-427117D02*
X47143Y-427134D01*
X47091Y-427126D02*
X47123Y-427117D01*
X46841Y-427171D02*
X47091Y-427126D01*
X46747Y-427171D02*
X46841D01*
X46648D02*
X46747D01*
X46347Y-427109D02*
X46648Y-427171D01*
X46081Y-426966D02*
X46347Y-427109D01*
X46036Y-426925D02*
X46081Y-426966D01*
X45992Y-426884D02*
X46036Y-426925D01*
X45838Y-426654D02*
X45992Y-426884D01*
X45771Y-426413D02*
X45838Y-426654D01*
X45771Y-426413D02*
Y-426333D01*
Y-426217D01*
X45898Y-425868D01*
X45923Y-425836D01*
X45762D02*
X45923D01*
X45601D02*
X45762D01*
X45567D02*
X45601D01*
X45468Y-425829D02*
X45567Y-425836D01*
X45464Y-425827D02*
X45468Y-425829D01*
X45461Y-425826D02*
X45464Y-425827D01*
X45438Y-425808D02*
X45461Y-425826D01*
X45436Y-425806D02*
X45438Y-425808D01*
X45434Y-425801D02*
X45436Y-425806D01*
X45423Y-425732D02*
X45434Y-425801D01*
X45423Y-425732D02*
Y-425709D01*
Y-425687D01*
X45436Y-425626D01*
X45438Y-425622D01*
X45440Y-425619D01*
X45463Y-425600D01*
X45466Y-425599D01*
X45469Y-425598D01*
X45567Y-425592D01*
X45601D01*
X45683D01*
X45863D01*
X46043D01*
X46125D01*
X46169Y-425563D01*
X46586Y-425419D01*
X46739D01*
X46838D01*
X47133Y-425485D01*
X47403Y-425640D01*
X47449Y-425684D01*
X47496Y-425728D01*
X47657Y-425975D01*
X47726Y-426231D01*
Y-426317D02*
Y-426231D01*
Y-426418D02*
Y-426317D01*
X47625Y-426723D02*
X47726Y-426418D01*
X47605Y-426756D02*
X47625Y-426723D01*
X47585Y-426789D02*
X47605Y-426756D01*
X47294Y-427047D02*
X47585Y-426789D01*
X47256Y-427066D02*
X47294Y-427047D01*
X47228Y-427976D02*
X47283Y-427969D01*
X46885Y-428007D02*
X47228Y-427976D01*
X46449Y-428028D02*
X46885Y-428007D01*
X46347Y-428031D02*
X46449Y-428028D01*
X46278Y-428033D02*
X46347Y-428031D01*
X46000Y-428054D02*
X46278Y-428033D01*
X45814Y-428092D02*
X46000Y-428054D01*
X45790Y-428102D02*
X45814Y-428092D01*
X45767Y-428111D02*
X45790Y-428102D01*
X45652Y-428251D02*
X45767Y-428111D01*
X45652Y-428301D02*
Y-428251D01*
Y-428386D02*
Y-428301D01*
Y-428386D02*
X45845Y-428639D01*
X45883Y-428668D01*
X45922Y-428696D01*
X46179Y-428796D01*
X46496Y-428840D01*
X46602D01*
X46714D01*
X47052Y-428797D01*
X47338Y-428700D01*
X47383Y-428672D01*
X47409Y-428656D01*
X47540Y-428501D01*
Y-428445D01*
Y-428395D01*
X47485Y-428246D02*
X47540Y-428395D01*
X47474Y-428226D02*
X47485Y-428246D01*
X47464Y-428206D02*
X47474Y-428226D01*
X47304Y-427992D02*
X47464Y-428206D01*
X47283Y-427969D02*
X47304Y-427992D01*
X46703Y-425549D02*
X46785D01*
X46454Y-425697D02*
X46703Y-425549D01*
X46431Y-425727D02*
X46454Y-425697D01*
X46400Y-425768D02*
X46431Y-425727D01*
X46291Y-426017D02*
X46400Y-425768D01*
X46245Y-426305D02*
X46291Y-426017D01*
X46245Y-426401D02*
Y-426305D01*
Y-426472D02*
Y-426401D01*
Y-426472D02*
X46278Y-426686D01*
X46355Y-426859D01*
X46377Y-426885D01*
X46399Y-426910D01*
X46631Y-427039D01*
X46715D01*
X46799D01*
X47049Y-426890D01*
X47072Y-426861D01*
X47103Y-426821D01*
X47210Y-426577D01*
X47256Y-426292D01*
Y-426198D01*
Y-426126D01*
X47222Y-425910D02*
X47256Y-426126D01*
X47144Y-425735D02*
X47222Y-425910D01*
X47121Y-425709D02*
X47144Y-425735D01*
X47098Y-425682D02*
X47121Y-425709D01*
X46870Y-425549D02*
X47098Y-425682D01*
X46785Y-425549D02*
X46870D01*
X50519Y-425944D02*
Y-425861D01*
Y-425681D01*
Y-425501D01*
Y-425419D01*
X50577D01*
X50635D01*
X50752Y-425466D01*
X51009Y-425570D01*
X51265Y-425675D01*
X51381Y-425722D01*
X51361Y-425770D02*
X51381Y-425722D01*
X51341Y-425819D02*
X51361Y-425770D01*
X51324Y-425812D02*
X51341Y-425819D01*
X51206Y-425779D02*
X51324Y-425812D01*
X51160Y-425779D02*
X51206D01*
X51134D02*
X51160D01*
X51055Y-425808D02*
X51134Y-425779D01*
X51048Y-425814D02*
X51055Y-425808D01*
X51041Y-425819D02*
X51048Y-425814D01*
X50989Y-425930D02*
X51041Y-425819D01*
X50985Y-425946D02*
X50989Y-425930D01*
X50982Y-425963D02*
X50985Y-425946D01*
X50971Y-426131D02*
X50982Y-425963D01*
X50965Y-426400D02*
X50971Y-426131D01*
X50965Y-426490D02*
Y-426400D01*
Y-426633D02*
Y-426490D01*
Y-426949D02*
Y-426633D01*
Y-427266D02*
Y-426949D01*
Y-427410D02*
Y-427266D01*
Y-427497D02*
Y-427410D01*
Y-427497D02*
X51021Y-427759D01*
X51031Y-427776D01*
X51043Y-427791D01*
X51224Y-427872D01*
X51287D01*
X51341D01*
Y-427920D02*
Y-427872D01*
Y-427969D02*
Y-427920D01*
X51150Y-427969D02*
X51341D01*
X50729D02*
X51150D01*
X50308D02*
X50729D01*
X50116D02*
X50308D01*
X50116D02*
Y-427920D01*
Y-427872D01*
X50181D01*
X50374Y-427841D01*
X50385Y-427835D01*
X50396Y-427829D01*
X50483Y-427733D01*
X50489Y-427720D01*
X50494Y-427710D01*
X50519Y-427487D01*
Y-427410D01*
Y-427205D01*
Y-426756D01*
Y-426307D01*
Y-426103D01*
X50466Y-426045D02*
X50519Y-426103D01*
X50199Y-425839D02*
X50466Y-426045D01*
X49958Y-425751D02*
X50199Y-425839D01*
X49878Y-425751D02*
X49958D01*
X49808D02*
X49878D01*
X49596Y-425879D02*
X49808Y-425751D01*
X49582Y-425905D02*
X49596Y-425879D01*
X49567Y-425930D02*
X49582Y-425905D01*
X49494Y-426272D02*
X49567Y-425930D01*
X49494Y-426395D02*
Y-426272D01*
Y-426554D02*
Y-426395D01*
Y-426902D02*
Y-426554D01*
Y-427251D02*
Y-426902D01*
Y-427410D02*
Y-427251D01*
Y-427471D02*
Y-427410D01*
Y-427471D02*
X49503Y-427656D01*
X49505Y-427663D01*
X49510Y-427680D01*
X49589Y-427810D01*
X49601Y-427819D01*
X49613Y-427828D01*
X49783Y-427872D01*
X49843D01*
X49894D01*
Y-427920D02*
Y-427872D01*
Y-427969D02*
Y-427920D01*
X49703Y-427969D02*
X49894D01*
X49282D02*
X49703D01*
X48861D02*
X49282D01*
X48670D02*
X48861D01*
X48670D02*
Y-427920D01*
Y-427872D01*
X48728D01*
X48903Y-427840D01*
X48914Y-427834D01*
X48926Y-427827D01*
X49006Y-427739D01*
X49010Y-427729D01*
X49017Y-427714D01*
X49048Y-427489D01*
Y-427410D01*
Y-427244D01*
Y-426880D01*
Y-426517D01*
Y-426352D01*
Y-426234D01*
X49098Y-425881D01*
X49107Y-425855D01*
X49122Y-425816D01*
X49316Y-425537D01*
X49340Y-425520D01*
X49364Y-425504D01*
X49602Y-425419D01*
X49689D01*
X49790D01*
X50094Y-425550D01*
X50447Y-425856D01*
X50519Y-425944D01*
X52479Y-425419D02*
X52538D01*
X52598D01*
X52714Y-425466D01*
X52971Y-425570D01*
X53228Y-425675D01*
X53344Y-425722D01*
X53325Y-425770D02*
X53344Y-425722D01*
X53306Y-425819D02*
X53325Y-425770D01*
X53288Y-425812D02*
X53306Y-425819D01*
X53168Y-425779D02*
X53288Y-425812D01*
X53122Y-425779D02*
X53168D01*
X53096D02*
X53122D01*
X53018Y-425807D02*
X53096Y-425779D01*
X53011Y-425813D02*
X53018Y-425807D01*
X53005Y-425818D02*
X53011Y-425813D01*
X52955Y-425919D02*
X53005Y-425818D01*
X52952Y-425933D02*
X52955Y-425919D01*
X52948Y-425953D02*
X52952Y-425933D01*
X52934Y-426123D02*
X52948Y-425953D01*
X52927Y-426372D02*
X52934Y-426123D01*
X52927Y-426455D02*
Y-426372D01*
Y-426604D02*
Y-426455D01*
Y-426932D02*
Y-426604D01*
Y-427260D02*
Y-426932D01*
Y-427410D02*
Y-427260D01*
Y-427484D02*
Y-427410D01*
Y-427484D02*
X52958Y-427707D01*
X52964Y-427720D01*
X52970Y-427733D01*
X53052Y-427831D01*
X53063Y-427836D01*
X53074Y-427842D01*
X53245Y-427872D01*
X53306D01*
Y-427920D02*
Y-427872D01*
Y-427969D02*
Y-427920D01*
X53119Y-427969D02*
X53306D01*
X52705D02*
X53119D01*
X52291D02*
X52705D01*
X52103D02*
X52291D01*
X52103D02*
Y-427920D01*
Y-427872D01*
X52161D01*
X52334Y-427840D01*
X52345Y-427834D01*
X52356Y-427827D01*
X52439Y-427731D01*
X52445Y-427719D01*
X52451Y-427706D01*
X52479Y-427486D01*
Y-427410D01*
Y-427324D01*
Y-427098D01*
Y-426780D01*
Y-426414D01*
Y-426048D01*
Y-425730D01*
Y-425504D01*
Y-425419D01*
X52703Y-424124D02*
X52749D01*
X52886Y-424190D01*
X52899Y-424204D01*
X52912Y-424217D01*
X52979Y-424348D01*
Y-424397D02*
Y-424348D01*
Y-424442D02*
Y-424397D01*
X52911Y-424578D02*
X52979Y-424442D01*
X52898Y-424592D02*
X52911Y-424578D01*
X52884Y-424605D02*
X52898Y-424592D01*
X52752Y-424673D02*
X52884Y-424605D01*
X52703Y-424673D02*
X52752D01*
X52659D02*
X52703D01*
X52523Y-424605D02*
X52659Y-424673D01*
X52510Y-424592D02*
X52523Y-424605D01*
X52497Y-424578D02*
X52510Y-424592D01*
X52430Y-424446D02*
X52497Y-424578D01*
X52430Y-424446D02*
Y-424397D01*
Y-424352D01*
X52497Y-424217D01*
X52510Y-424204D01*
X52523Y-424190D01*
X52655Y-424124D01*
X52703D01*
X55928D02*
X55991D01*
X56052D01*
X56169Y-424171D01*
X56423Y-424275D01*
X56678Y-424379D01*
X56794Y-424427D01*
X56775Y-424474D02*
X56794Y-424427D01*
X56756Y-424522D02*
X56775Y-424474D01*
X56734Y-424514D02*
X56756Y-424522D01*
X56618Y-424478D02*
X56734Y-424514D01*
X56572Y-424478D02*
X56618D01*
X56546D02*
X56572D01*
X56467Y-424507D02*
X56546Y-424478D01*
X56460Y-424514D02*
X56467Y-424507D01*
X56453Y-424519D02*
X56460Y-424514D01*
X56401Y-424630D02*
X56453Y-424519D01*
X56398Y-424646D02*
X56401Y-424630D01*
X56394Y-424662D02*
X56398Y-424646D01*
X56382Y-424825D02*
X56394Y-424662D01*
X56377Y-425082D02*
X56382Y-424825D01*
X56377Y-425168D02*
Y-425082D01*
Y-425518D02*
Y-425168D01*
Y-426289D02*
Y-425518D01*
Y-427059D02*
Y-426289D01*
Y-427410D02*
Y-427059D01*
Y-427483D02*
Y-427410D01*
Y-427483D02*
X56404Y-427705D01*
X56409Y-427718D01*
X56415Y-427730D01*
X56488Y-427815D01*
X56496Y-427820D01*
X56512Y-427829D01*
X56691Y-427872D01*
X56756D01*
Y-427920D02*
Y-427872D01*
Y-427969D02*
Y-427920D01*
X56564Y-427969D02*
X56756D01*
X56142D02*
X56564D01*
X55720D02*
X56142D01*
X55528D02*
X55720D01*
X55528D02*
Y-427920D01*
Y-427872D01*
X55592D01*
X55782Y-427836D01*
X55795Y-427829D01*
X55808Y-427822D01*
X55896Y-427736D01*
X55900Y-427726D01*
X55905Y-427715D01*
X55928Y-427488D01*
Y-427410D01*
Y-427204D01*
Y-426755D01*
Y-426305D01*
Y-426100D01*
X55895Y-426065D02*
X55928Y-426100D01*
X55609Y-425828D02*
X55895Y-426065D01*
X55585Y-425817D02*
X55609Y-425828D01*
X55561Y-425805D02*
X55585Y-425817D01*
X55378Y-425747D02*
X55561Y-425805D01*
X55309Y-425747D02*
X55378D01*
X55258D02*
X55309D01*
X55103Y-425799D02*
X55258Y-425747D01*
X55087Y-425810D02*
X55103Y-425799D01*
X55072Y-425820D02*
X55087Y-425810D01*
X54960Y-425979D02*
X55072Y-425820D01*
X54953Y-426001D02*
X54960Y-425979D01*
X54947Y-426022D02*
X54953Y-426001D01*
X54922Y-426197D02*
X54947Y-426022D01*
X54911Y-426449D02*
X54922Y-426197D01*
X54911Y-426533D02*
Y-426449D01*
Y-426670D02*
Y-426533D01*
Y-426971D02*
Y-426670D01*
Y-427272D02*
Y-426971D01*
Y-427410D02*
Y-427272D01*
Y-427471D02*
Y-427410D01*
Y-427471D02*
X54919Y-427656D01*
X54920Y-427663D01*
X54925Y-427680D01*
X55004Y-427810D01*
X55015Y-427819D01*
X55026Y-427828D01*
X55195Y-427872D01*
X55255D01*
X55312D01*
Y-427920D02*
Y-427872D01*
Y-427969D02*
Y-427920D01*
X55122Y-427969D02*
X55312D01*
X54704D02*
X55122D01*
X54285D02*
X54704D01*
X54095D02*
X54285D01*
X54095D02*
Y-427920D01*
Y-427872D01*
X54152D01*
X54322Y-427840D01*
X54333Y-427834D01*
X54344Y-427827D01*
X54421Y-427742D01*
X54425Y-427731D01*
X54431Y-427717D01*
X54463Y-427490D01*
Y-427410D01*
Y-427272D01*
Y-426971D01*
Y-426670D01*
Y-426533D01*
Y-426436D01*
X54476Y-426145D01*
X54506Y-425929D01*
X54514Y-425901D01*
X54527Y-425859D01*
X54714Y-425555D01*
X54738Y-425536D01*
X54764Y-425516D01*
X55010Y-425419D01*
X55101D01*
X55182D01*
X55423Y-425496D01*
X55452Y-425512D01*
X55482Y-425527D01*
X55660Y-425665D01*
X55878Y-425880D01*
X55928Y-425935D01*
Y-425857D01*
Y-425652D01*
Y-425362D01*
Y-425029D01*
Y-424697D01*
Y-424407D01*
Y-424202D01*
Y-424124D01*
X58028Y-424678D02*
X58113D01*
X58131Y-424724D01*
X58275Y-425037D01*
X58286Y-425054D01*
X58306Y-425086D01*
X58537Y-425367D01*
X58563Y-425391D01*
X58589Y-425414D01*
X58843Y-425582D01*
X58867Y-425592D01*
Y-425681D02*
Y-425592D01*
X58806Y-425681D02*
X58867D01*
X58671D02*
X58806D01*
X58536D02*
X58671D01*
X58475D02*
X58536D01*
X58475Y-425753D02*
Y-425681D01*
Y-425941D02*
Y-425753D01*
Y-426208D02*
Y-425941D01*
Y-426514D02*
Y-426208D01*
Y-426820D02*
Y-426514D01*
Y-427087D02*
Y-426820D01*
Y-427276D02*
Y-427087D01*
Y-427347D02*
Y-427276D01*
Y-427440D02*
Y-427347D01*
X58428Y-427721D02*
X58475Y-427440D01*
X58418Y-427743D02*
X58428Y-427721D01*
X58409Y-427764D02*
X58418Y-427743D01*
X58262Y-427929D02*
X58409Y-427764D01*
X58242Y-427941D02*
X58262Y-427929D01*
X58223Y-427952D02*
X58242Y-427941D01*
X58060Y-428009D02*
X58223Y-427952D01*
X57999Y-428009D02*
X58060D01*
X57917D02*
X57999D01*
X57671Y-427898D02*
X57917Y-428009D01*
X57642Y-427876D02*
X57671Y-427898D01*
X57613Y-427853D02*
X57642Y-427876D01*
X57390Y-427521D02*
X57613Y-427853D01*
X57374Y-427477D02*
X57390Y-427521D01*
X57374Y-427477D02*
X57427D01*
X57480D01*
X57488Y-427495D01*
X57596Y-427631D01*
X57610Y-427641D01*
X57624Y-427650D01*
X57740Y-427696D01*
X57783D01*
X57824D01*
X57948Y-427625D01*
X57960Y-427612D01*
X57972Y-427598D01*
X58028Y-427368D01*
Y-427287D01*
Y-427218D01*
Y-427036D01*
Y-426779D01*
Y-426484D01*
Y-426189D01*
Y-425932D01*
Y-425750D01*
Y-425681D01*
X57938D02*
X58028D01*
X57739D02*
X57938D01*
X57541D02*
X57739D01*
X57450D02*
X57541D01*
X57450D02*
Y-425587D01*
Y-425492D01*
X57541D01*
X57739D01*
X57938D01*
X58028D01*
Y-425365D01*
Y-425085D01*
Y-424805D01*
Y-424678D01*
X63209Y-426425D02*
X63282D01*
X63015D02*
X63209D01*
X62740D02*
X63015D01*
X62426D02*
X62740D01*
X62112D02*
X62426D01*
X61838D02*
X62112D01*
X61644D02*
X61838D01*
X61570D02*
X61644D01*
X61570D02*
Y-426322D01*
X61637Y-426011D01*
X61793Y-425736D01*
X61838Y-425691D01*
X61883Y-425645D01*
X62143Y-425485D01*
X62427Y-425417D01*
X62522D01*
X62635D01*
X62972Y-425505D01*
X63286Y-425713D01*
X63340Y-425772D01*
X63394Y-425831D01*
X63584Y-426198D01*
X63665Y-426621D01*
Y-426763D02*
Y-426621D01*
Y-426894D02*
Y-426763D01*
X63586Y-427290D02*
X63665Y-426894D01*
X63401Y-427639D02*
X63586Y-427290D01*
X63348Y-427697D02*
X63401Y-427639D01*
X63295Y-427755D02*
X63348Y-427697D01*
X62998Y-427958D02*
X63295Y-427755D01*
X62688Y-428045D02*
X62998Y-427958D01*
X62584Y-428045D02*
X62688D01*
X62490D02*
X62584D01*
X62208Y-427968D02*
X62490Y-428045D01*
X61946Y-427791D02*
X62208Y-427968D01*
X61900Y-427740D02*
X61946Y-427791D01*
X61854Y-427689D02*
X61900Y-427740D01*
X61681Y-427419D02*
X61854Y-427689D01*
X61580Y-427127D02*
X61681Y-427419D01*
X61570Y-427066D02*
X61580Y-427127D01*
X61570Y-427066D02*
X61612Y-427038D01*
X61654Y-427012D01*
X61674Y-427066D01*
X61925Y-427448D01*
X61955Y-427470D01*
X61986Y-427492D01*
X62273Y-427604D01*
X62379D01*
X62464D01*
X62720Y-427526D01*
X62969Y-427342D01*
X63014Y-427290D01*
X63059Y-427238D01*
X63216Y-426917D01*
X63282Y-426517D01*
X63282Y-426425D02*
X63282Y-426517D01*
X63277Y-426216D02*
X63282Y-426268D01*
X63215Y-425991D02*
X63277Y-426216D01*
X63104Y-425812D02*
X63215Y-425991D01*
X63075Y-425783D02*
X63104Y-425812D01*
X63045Y-425754D02*
X63075Y-425783D01*
X62773Y-425608D02*
X63045Y-425754D01*
X62673Y-425608D02*
X62773D01*
X62609D02*
X62673D01*
X62416Y-425680D02*
X62609Y-425608D01*
X62393Y-425695D02*
X62416Y-425680D01*
X62371Y-425709D02*
X62393Y-425695D01*
X62203Y-425907D02*
X62371Y-425709D01*
X62192Y-425933D02*
X62203Y-425907D01*
X62185Y-425949D02*
X62192Y-425933D01*
X62138Y-426228D02*
X62185Y-425949D01*
X62135Y-426268D02*
X62138Y-426228D01*
X62135Y-426268D02*
X62314D01*
X62708D01*
X63103D01*
X63282D01*
X64938Y-424124D02*
X64999D01*
X65060D01*
X65176Y-424171D01*
X65429Y-424275D01*
X65683Y-424379D01*
X65798Y-424427D01*
X65775Y-424474D02*
X65798Y-424427D01*
X65752Y-424522D02*
X65775Y-424474D01*
X65734Y-424514D02*
X65752Y-424522D01*
X65619Y-424478D02*
X65734Y-424514D01*
X65574Y-424478D02*
X65619D01*
X65549D02*
X65574D01*
X65474Y-424507D02*
X65549Y-424478D01*
X65467Y-424514D02*
X65474Y-424507D01*
X65460Y-424519D02*
X65467Y-424514D01*
X65410Y-424628D02*
X65460Y-424519D01*
X65406Y-424645D02*
X65410Y-424628D01*
X65404Y-424660D02*
X65406Y-424645D01*
X65392Y-424821D02*
X65404Y-424660D01*
X65387Y-425075D02*
X65392Y-424821D01*
X65387Y-425160D02*
Y-425075D01*
Y-425511D02*
Y-425160D01*
Y-426284D02*
Y-425511D01*
Y-427058D02*
Y-426284D01*
Y-427410D02*
Y-427058D01*
Y-427484D02*
Y-427410D01*
Y-427484D02*
X65417Y-427707D01*
X65422Y-427720D01*
X65428Y-427733D01*
X65509Y-427831D01*
X65520Y-427836D01*
X65530Y-427842D01*
X65694Y-427872D01*
X65752D01*
Y-427920D02*
Y-427872D01*
Y-427969D02*
Y-427920D01*
X65563Y-427969D02*
X65752D01*
X65145D02*
X65563D01*
X64728D02*
X65145D01*
X64538D02*
X64728D01*
X64538D02*
Y-427920D01*
Y-427872D01*
X64601D01*
X64789Y-427839D01*
X64800Y-427832D01*
X64812Y-427826D01*
X64899Y-427730D01*
X64904Y-427718D01*
X64910Y-427705D01*
X64938Y-427486D01*
Y-427410D01*
Y-427268D01*
Y-426896D01*
Y-426370D01*
Y-425767D01*
Y-425163D01*
Y-424637D01*
Y-424265D01*
Y-424124D01*
X68434Y-425920D02*
Y-425842D01*
Y-425639D01*
Y-425351D01*
Y-425022D01*
Y-424692D01*
Y-424404D01*
Y-424201D01*
Y-424124D01*
X68495D01*
X68556D01*
X68672Y-424171D01*
X68927Y-424275D01*
X69183Y-424379D01*
X69299Y-424427D01*
X69281Y-424474D02*
X69299Y-424427D01*
X69262Y-424522D02*
X69281Y-424474D01*
X69243Y-424514D02*
X69262Y-424522D01*
X69120Y-424478D02*
X69243Y-424514D01*
X69072Y-424478D02*
X69120D01*
X69047D02*
X69072D01*
X68972Y-424507D02*
X69047Y-424478D01*
X68964Y-424514D02*
X68972Y-424507D01*
X68957Y-424519D02*
X68964Y-424514D01*
X68905Y-424630D02*
X68957Y-424519D01*
X68901Y-424646D02*
X68905Y-424630D01*
X68898Y-424662D02*
X68901Y-424646D01*
X68886Y-424824D02*
X68898Y-424662D01*
X68880Y-425080D02*
X68886Y-424824D01*
X68880Y-425165D02*
Y-425080D01*
Y-425566D02*
Y-425165D01*
Y-426448D02*
Y-425566D01*
Y-427330D02*
Y-426448D01*
Y-427731D02*
Y-427330D01*
X68842Y-427757D02*
X68880Y-427731D01*
X68462Y-427953D02*
X68842Y-427757D01*
X68424Y-427966D02*
X68462Y-427953D01*
X68388Y-427979D02*
X68424Y-427966D01*
X68095Y-428045D02*
X68388Y-427979D01*
X67985Y-428045D02*
X68095D01*
X67875D02*
X67985D01*
X67544Y-427958D02*
X67875Y-428045D01*
X67210Y-427756D02*
X67544Y-427958D01*
X67147Y-427699D02*
X67210Y-427756D01*
X67075Y-427631D02*
X67147Y-427699D01*
X66819Y-427232D02*
X67075Y-427631D01*
X66709Y-426785D02*
X66819Y-427232D01*
X66709Y-426785D02*
Y-426636D01*
Y-426509D01*
X66780Y-426130D01*
X66946Y-425799D01*
X66993Y-425745D01*
X67040Y-425691D01*
X67301Y-425500D01*
X67569Y-425419D01*
X67658D01*
X67759D01*
X68060Y-425544D01*
X68375Y-425836D01*
X68434Y-425920D01*
X68407Y-426066D02*
X68434Y-426093D01*
X68176Y-425885D02*
X68407Y-426066D01*
X68158Y-425876D02*
X68176Y-425885D01*
X68134Y-425864D02*
X68158Y-425876D01*
X67943Y-425803D02*
X68134Y-425864D01*
X67872Y-425803D02*
X67943D01*
X67808D02*
X67872D01*
X67616Y-425867D02*
X67808Y-425803D01*
X67425Y-426016D02*
X67616Y-425867D01*
X67389Y-426059D02*
X67425Y-426016D01*
X67354Y-426101D02*
X67389Y-426059D01*
X67230Y-426369D02*
X67354Y-426101D01*
X67177Y-426685D02*
X67230Y-426369D01*
X67177Y-426790D02*
Y-426685D01*
Y-426903D02*
Y-426790D01*
Y-426903D02*
X67230Y-427245D01*
X67354Y-427532D01*
X67389Y-427577D01*
X67425Y-427622D01*
X67610Y-427780D01*
X67788Y-427847D01*
X67847D01*
X67917D01*
X68124Y-427790D01*
X68149Y-427778D01*
X68174Y-427766D01*
X68411Y-427597D01*
X68434Y-427574D01*
Y-427510D01*
Y-427343D01*
Y-427105D01*
Y-426833D01*
Y-426562D01*
Y-426324D01*
Y-426156D01*
Y-426093D01*
X70721Y-427649D02*
Y-427612D01*
X70653Y-427910D02*
X70721Y-427649D01*
X70640Y-427926D02*
X70653Y-427910D01*
X70627Y-427941D02*
X70640Y-427926D01*
X70482Y-428018D02*
X70627Y-427941D01*
X70429Y-428018D02*
X70482D01*
X70359D02*
X70429D01*
X70146Y-427916D02*
X70359Y-428018D01*
X69901Y-427680D02*
X70146Y-427916D01*
X69850Y-427612D02*
X69901Y-427680D01*
X69850Y-427612D02*
Y-427537D01*
Y-427461D01*
X69877Y-427488D01*
X70060Y-427652D01*
X70069Y-427658D01*
X70075Y-427661D01*
X70126Y-427677D01*
X70145D01*
X70162D01*
X70212Y-427654D01*
X70217Y-427650D01*
X70223Y-427645D01*
X70259Y-427556D01*
X70262Y-427543D01*
X70264Y-427529D01*
X70272Y-427394D01*
X70275Y-427180D01*
Y-427109D01*
Y-426977D01*
Y-426688D01*
Y-426399D01*
Y-426268D01*
Y-426193D01*
X70287Y-425969D01*
X70316Y-425811D01*
X70323Y-425792D01*
X70336Y-425762D01*
X70532Y-425544D01*
X70559Y-425530D01*
X70594Y-425512D01*
X70965Y-425419D01*
X71100D01*
X71195D01*
X71482Y-425468D01*
X71728Y-425582D01*
X71768Y-425614D01*
X71807Y-425646D01*
X71946Y-425818D01*
X72005Y-425985D01*
Y-426041D02*
Y-425985D01*
Y-426086D02*
Y-426041D01*
X71953Y-426221D02*
X72005Y-426086D01*
X71942Y-426233D02*
X71953Y-426221D01*
X71931Y-426245D02*
X71942Y-426233D01*
X71820Y-426303D02*
X71931Y-426245D01*
X71778Y-426303D02*
X71820D01*
X71740D02*
X71778D01*
X71623Y-426246D02*
X71740Y-426303D01*
X71612Y-426235D02*
X71623Y-426246D01*
X71602Y-426224D02*
X71612Y-426235D01*
X71548Y-426091D02*
X71602Y-426224D01*
X71548Y-426091D02*
Y-426043D01*
X71551Y-425965D01*
X71554Y-425887D01*
Y-425838D01*
X71469Y-425691D02*
X71554Y-425838D01*
X71451Y-425676D02*
X71469Y-425691D01*
X71435Y-425660D02*
X71451Y-425676D01*
X71249Y-425584D02*
X71435Y-425660D01*
X71181Y-425584D02*
X71249D01*
X71101D02*
X71181D01*
X70858Y-425699D02*
X71101Y-425584D01*
X70839Y-425722D02*
X70858Y-425699D01*
X70819Y-425745D02*
X70839Y-425722D01*
X70751Y-425918D02*
X70819Y-425745D01*
X70721Y-426152D02*
X70751Y-425918D01*
X70721Y-426230D02*
Y-426152D01*
Y-426279D02*
Y-426230D01*
Y-426328D02*
Y-426279D01*
Y-426328D02*
X70828Y-426366D01*
X71269Y-426543D01*
X71588Y-426695D01*
X71634Y-426722D01*
X71680Y-426749D01*
X72000Y-427037D01*
X72019Y-427068D01*
X72032Y-427090D01*
X72100Y-427304D01*
Y-427382D02*
Y-427304D01*
Y-427490D02*
Y-427382D01*
X71962Y-427815D02*
X72100Y-427490D01*
X71934Y-427845D02*
X71962Y-427815D01*
X71906Y-427874D02*
X71934Y-427845D01*
X71617Y-428020D02*
X71906Y-427874D01*
X71511Y-428020D02*
X71617D01*
X71439D02*
X71511D01*
X71224Y-427963D02*
X71439Y-428020D01*
X71200Y-427953D02*
X71224Y-427963D01*
X71184Y-427945D02*
X71200Y-427953D01*
X71032Y-427844D02*
X71184Y-427945D01*
X70785Y-427661D02*
X71032Y-427844D01*
X70721Y-427612D02*
X70785Y-427661D01*
X70721Y-427437D02*
X70777Y-427482D01*
X71024Y-427639D01*
X71203Y-427707D01*
X71262D01*
X71324D01*
X71510Y-427599D01*
X71529Y-427578D01*
X71549Y-427556D01*
X71646Y-427336D01*
Y-427255D01*
Y-427189D01*
X71570Y-426992D02*
X71646Y-427189D01*
X71554Y-426971D02*
X71570Y-426992D01*
X71539Y-426949D02*
X71554Y-426971D01*
X71284Y-426742D02*
X71539Y-426949D01*
X71248Y-426722D02*
X71284Y-426742D01*
X71229Y-426711D02*
X71248Y-426722D01*
X71057Y-426631D02*
X71229Y-426711D01*
X70789Y-426519D02*
X71057Y-426631D01*
X70721Y-426493D02*
X70789Y-426519D01*
X70721Y-426640D02*
Y-426493D01*
Y-426965D02*
Y-426640D01*
Y-427289D02*
Y-426965D01*
Y-427437D02*
Y-427289D01*
X73497Y-424678D02*
X73581D01*
X73600Y-424724D01*
X73744Y-425037D01*
X73754Y-425054D01*
X73775Y-425086D01*
X74006Y-425367D01*
X74032Y-425391D01*
X74058Y-425414D01*
X74311Y-425582D01*
X74336Y-425592D01*
Y-425681D02*
Y-425592D01*
X74275Y-425681D02*
X74336D01*
X74140D02*
X74275D01*
X74005D02*
X74140D01*
X73944D02*
X74005D01*
X73944Y-425753D02*
Y-425681D01*
Y-425941D02*
Y-425753D01*
Y-426208D02*
Y-425941D01*
Y-426514D02*
Y-426208D01*
Y-426820D02*
Y-426514D01*
Y-427087D02*
Y-426820D01*
Y-427276D02*
Y-427087D01*
Y-427347D02*
Y-427276D01*
Y-427440D02*
Y-427347D01*
X73896Y-427721D02*
X73944Y-427440D01*
X73887Y-427743D02*
X73896Y-427721D01*
X73878Y-427764D02*
X73887Y-427743D01*
X73731Y-427929D02*
X73878Y-427764D01*
X73711Y-427941D02*
X73731Y-427929D01*
X73691Y-427952D02*
X73711Y-427941D01*
X73529Y-428009D02*
X73691Y-427952D01*
X73468Y-428009D02*
X73529D01*
X73386D02*
X73468D01*
X73140Y-427898D02*
X73386Y-428009D01*
X73111Y-427876D02*
X73140Y-427898D01*
X73082Y-427853D02*
X73111Y-427876D01*
X72859Y-427521D02*
X73082Y-427853D01*
X72843Y-427477D02*
X72859Y-427521D01*
X72843Y-427477D02*
X72896D01*
X72949D01*
X72956Y-427495D01*
X73065Y-427631D01*
X73078Y-427641D01*
X73092Y-427650D01*
X73209Y-427696D01*
X73251D01*
X73293D01*
X73417Y-427625D01*
X73428Y-427612D01*
X73440Y-427598D01*
X73497Y-427368D01*
Y-427287D01*
Y-427218D01*
Y-427036D01*
Y-426779D01*
Y-426484D01*
Y-426189D01*
Y-425932D01*
Y-425750D01*
Y-425681D01*
X73407D02*
X73497D01*
X73208D02*
X73407D01*
X73009D02*
X73208D01*
X72919D02*
X73009D01*
X72919D02*
Y-425587D01*
Y-425492D01*
X73009D01*
X73208D01*
X73407D01*
X73497D01*
Y-425365D01*
Y-425085D01*
Y-424805D01*
Y-424678D01*
X75125Y-427028D02*
X75164Y-427009D01*
X75203Y-426990D01*
X75227Y-427044D01*
X75468Y-427420D01*
X75493Y-427441D01*
X75528Y-427471D01*
X75850Y-427623D01*
X75968D01*
X76052D01*
X76301Y-427537D01*
X76520Y-427340D01*
X76557Y-427284D01*
X76593Y-427227D01*
X76720Y-426918D01*
X76774Y-426605D01*
Y-426501D01*
Y-426403D01*
X76719Y-426108D02*
X76774Y-426403D01*
X76592Y-425844D02*
X76719Y-426108D01*
X76555Y-425800D02*
X76592Y-425844D01*
X76528Y-425767D02*
X76555Y-425800D01*
X76364Y-425650D02*
X76528Y-425767D01*
X76181Y-425600D02*
X76364Y-425650D01*
X76120Y-425600D02*
X76181D01*
X76059D02*
X76120D01*
X75873Y-425668D02*
X76059Y-425600D01*
X75858Y-425681D02*
X75873Y-425668D01*
X75842Y-425695D02*
X75858Y-425681D01*
X75751Y-425898D02*
X75842Y-425695D01*
X75748Y-425925D02*
X75751Y-425898D01*
X75746Y-425951D02*
X75748Y-425925D01*
X75695Y-426131D02*
X75746Y-425951D01*
X75687Y-426141D02*
X75695Y-426131D01*
X75674Y-426158D02*
X75687Y-426141D01*
X75507Y-426244D02*
X75674Y-426158D01*
X75447Y-426244D02*
X75507D01*
X75403D02*
X75447D01*
X75273Y-426190D02*
X75403Y-426244D01*
X75262Y-426180D02*
X75273Y-426190D01*
X75251Y-426169D02*
X75262Y-426180D01*
X75195Y-426055D02*
X75251Y-426169D01*
X75195Y-426055D02*
Y-426014D01*
Y-425921D01*
X75391Y-425645D01*
X75430Y-425613D01*
X75470Y-425580D01*
X75698Y-425467D01*
X75948Y-425419D01*
X76031D01*
X76144D01*
X76483Y-425510D01*
X76807Y-425723D01*
X76865Y-425784D01*
X76923Y-425845D01*
X77126Y-426204D01*
X77212Y-426601D01*
Y-426734D02*
Y-426601D01*
Y-426869D02*
Y-426734D01*
X77134Y-427274D02*
X77212Y-426869D01*
X76951Y-427631D02*
X77134Y-427274D01*
X76898Y-427691D02*
X76951Y-427631D01*
X76846Y-427749D02*
X76898Y-427691D01*
X76558Y-427956D02*
X76846Y-427749D01*
X76262Y-428045D02*
X76558Y-427956D01*
X76163Y-428045D02*
X76262D01*
X76079D02*
X76163D01*
X75825Y-427979D02*
X76079Y-428045D01*
X75566Y-427825D02*
X75825Y-427979D01*
X75517Y-427781D02*
X75566Y-427825D01*
X75469Y-427737D02*
X75517Y-427781D01*
X75273Y-427461D02*
X75469Y-427737D01*
X75142Y-427109D02*
X75273Y-427461D01*
X75125Y-427028D02*
X75142Y-427109D01*
X79750Y-426425D02*
X79824D01*
X79557D02*
X79750D01*
X79282D02*
X79557D01*
X78968D02*
X79282D01*
X78654D02*
X78968D01*
X78379D02*
X78654D01*
X78186D02*
X78379D01*
X78112D02*
X78186D01*
X78112D02*
Y-426322D01*
X78179Y-426011D01*
X78336Y-425736D01*
X78380Y-425691D01*
X78425Y-425645D01*
X78685Y-425485D01*
X78970Y-425417D01*
X79064D01*
X79177D01*
X79514Y-425505D01*
X79827Y-425713D01*
X79882Y-425772D01*
X79936Y-425831D01*
X80126Y-426198D01*
X80207Y-426621D01*
Y-426763D02*
Y-426621D01*
Y-426894D02*
Y-426763D01*
X80129Y-427290D02*
X80207Y-426894D01*
X79943Y-427639D02*
X80129Y-427290D01*
X79890Y-427697D02*
X79943Y-427639D01*
X79837Y-427755D02*
X79890Y-427697D01*
X79540Y-427958D02*
X79837Y-427755D01*
X79230Y-428045D02*
X79540Y-427958D01*
X79126Y-428045D02*
X79230D01*
X79032D02*
X79126D01*
X78750Y-427968D02*
X79032Y-428045D01*
X78487Y-427791D02*
X78750Y-427968D01*
X78442Y-427740D02*
X78487Y-427791D01*
X78397Y-427689D02*
X78442Y-427740D01*
X78223Y-427419D02*
X78397Y-427689D01*
X78122Y-427127D02*
X78223Y-427419D01*
X78112Y-427066D02*
X78122Y-427127D01*
X78112Y-427066D02*
X78154Y-427038D01*
X78196Y-427012D01*
X78217Y-427066D01*
X78467Y-427448D01*
X78497Y-427470D01*
X78527Y-427492D01*
X78815Y-427604D01*
X78920D01*
X79006D01*
X79262Y-427526D01*
X79511Y-427342D01*
X79556Y-427290D01*
X79601Y-427238D01*
X79759Y-426917D01*
X79824Y-426517D01*
X79824Y-426425D02*
X79824Y-426517D01*
X79819Y-426216D02*
X79824Y-426268D01*
X79757Y-425991D02*
X79819Y-426216D01*
X79647Y-425812D02*
X79757Y-425991D01*
X79617Y-425783D02*
X79647Y-425812D01*
X79588Y-425754D02*
X79617Y-425783D01*
X79316Y-425608D02*
X79588Y-425754D01*
X79216Y-425608D02*
X79316D01*
X79152D02*
X79216D01*
X78958Y-425680D02*
X79152Y-425608D01*
X78936Y-425695D02*
X78958Y-425680D01*
X78913Y-425709D02*
X78936Y-425695D01*
X78745Y-425907D02*
X78913Y-425709D01*
X78734Y-425933D02*
X78745Y-425907D01*
X78727Y-425949D02*
X78734Y-425933D01*
X78679Y-426228D02*
X78727Y-425949D01*
X78677Y-426268D02*
X78679Y-426228D01*
X78677Y-426268D02*
X78857D01*
X79251D01*
X79645D01*
X79824D01*
X82841Y-425944D02*
Y-425861D01*
Y-425681D01*
Y-425501D01*
Y-425419D01*
X82899D01*
X82957D01*
X83074Y-425466D01*
X83330Y-425570D01*
X83587Y-425675D01*
X83703Y-425722D01*
X83683Y-425770D02*
X83703Y-425722D01*
X83663Y-425819D02*
X83683Y-425770D01*
X83645Y-425812D02*
X83663Y-425819D01*
X83527Y-425779D02*
X83645Y-425812D01*
X83481Y-425779D02*
X83527D01*
X83455D02*
X83481D01*
X83376Y-425808D02*
X83455Y-425779D01*
X83369Y-425814D02*
X83376Y-425808D01*
X83363Y-425819D02*
X83369Y-425814D01*
X83311Y-425930D02*
X83363Y-425819D01*
X83307Y-425946D02*
X83311Y-425930D01*
X83303Y-425963D02*
X83307Y-425946D01*
X83292Y-426131D02*
X83303Y-425963D01*
X83287Y-426400D02*
X83292Y-426131D01*
X83287Y-426490D02*
Y-426400D01*
Y-426633D02*
Y-426490D01*
Y-426949D02*
Y-426633D01*
Y-427266D02*
Y-426949D01*
Y-427410D02*
Y-427266D01*
Y-427497D02*
Y-427410D01*
Y-427497D02*
X83342Y-427759D01*
X83353Y-427776D01*
X83364Y-427791D01*
X83545Y-427872D01*
X83608D01*
X83663D01*
Y-427920D02*
Y-427872D01*
Y-427969D02*
Y-427920D01*
X83472Y-427969D02*
X83663D01*
X83050D02*
X83472D01*
X82629D02*
X83050D01*
X82438D02*
X82629D01*
X82438D02*
Y-427920D01*
Y-427872D01*
X82502D01*
X82696Y-427841D01*
X82707Y-427835D01*
X82718Y-427829D01*
X82805Y-427733D01*
X82811Y-427720D01*
X82816Y-427710D01*
X82841Y-427487D01*
Y-427410D01*
Y-427205D01*
Y-426756D01*
Y-426307D01*
Y-426103D01*
X82788Y-426045D02*
X82841Y-426103D01*
X82521Y-425839D02*
X82788Y-426045D01*
X82280Y-425751D02*
X82521Y-425839D01*
X82200Y-425751D02*
X82280D01*
X82130D02*
X82200D01*
X81918Y-425879D02*
X82130Y-425751D01*
X81904Y-425905D02*
X81918Y-425879D01*
X81889Y-425930D02*
X81904Y-425905D01*
X81816Y-426272D02*
X81889Y-425930D01*
X81816Y-426395D02*
Y-426272D01*
Y-426554D02*
Y-426395D01*
Y-426902D02*
Y-426554D01*
Y-427251D02*
Y-426902D01*
Y-427410D02*
Y-427251D01*
Y-427471D02*
Y-427410D01*
Y-427471D02*
X81825Y-427656D01*
X81827Y-427663D01*
X81832Y-427680D01*
X81911Y-427810D01*
X81923Y-427819D01*
X81935Y-427828D01*
X82104Y-427872D01*
X82165D01*
X82216D01*
Y-427920D02*
Y-427872D01*
Y-427969D02*
Y-427920D01*
X82025Y-427969D02*
X82216D01*
X81604D02*
X82025D01*
X81183D02*
X81604D01*
X80991D02*
X81183D01*
X80991D02*
Y-427920D01*
Y-427872D01*
X81050D01*
X81225Y-427840D01*
X81236Y-427834D01*
X81247Y-427827D01*
X81327Y-427739D01*
X81332Y-427729D01*
X81339Y-427714D01*
X81370Y-427489D01*
Y-427410D01*
Y-427244D01*
Y-426880D01*
Y-426517D01*
Y-426352D01*
Y-426234D01*
X81419Y-425881D01*
X81429Y-425855D01*
X81444Y-425816D01*
X81637Y-425537D01*
X81662Y-425520D01*
X81686Y-425504D01*
X81924Y-425419D01*
X82011D01*
X82112D01*
X82416Y-425550D01*
X82769Y-425856D01*
X82841Y-425944D01*
X86163D02*
Y-425861D01*
Y-425681D01*
Y-425501D01*
Y-425419D01*
X86222D01*
X86280D01*
X86397Y-425466D01*
X86653Y-425570D01*
X86910Y-425675D01*
X87026Y-425722D01*
X87006Y-425770D02*
X87026Y-425722D01*
X86986Y-425819D02*
X87006Y-425770D01*
X86968Y-425812D02*
X86986Y-425819D01*
X86849Y-425779D02*
X86968Y-425812D01*
X86804Y-425779D02*
X86849D01*
X86778D02*
X86804D01*
X86699Y-425808D02*
X86778Y-425779D01*
X86692Y-425814D02*
X86699Y-425808D01*
X86685Y-425819D02*
X86692Y-425814D01*
X86634Y-425930D02*
X86685Y-425819D01*
X86630Y-425946D02*
X86634Y-425930D01*
X86627Y-425963D02*
X86630Y-425946D01*
X86615Y-426131D02*
X86627Y-425963D01*
X86609Y-426400D02*
X86615Y-426131D01*
X86609Y-426490D02*
Y-426400D01*
Y-426633D02*
Y-426490D01*
Y-426949D02*
Y-426633D01*
Y-427266D02*
Y-426949D01*
Y-427410D02*
Y-427266D01*
Y-427497D02*
Y-427410D01*
Y-427497D02*
X86664Y-427759D01*
X86675Y-427776D01*
X86687Y-427791D01*
X86867Y-427872D01*
X86931D01*
X86986D01*
Y-427920D02*
Y-427872D01*
Y-427969D02*
Y-427920D01*
X86795Y-427969D02*
X86986D01*
X86373D02*
X86795D01*
X85952D02*
X86373D01*
X85761D02*
X85952D01*
X85761D02*
Y-427920D01*
Y-427872D01*
X85825D01*
X86018Y-427841D01*
X86029Y-427835D01*
X86041Y-427829D01*
X86127Y-427733D01*
X86133Y-427720D01*
X86139Y-427710D01*
X86163Y-427487D01*
Y-427410D01*
Y-427205D01*
Y-426756D01*
Y-426307D01*
Y-426103D01*
X86110Y-426045D02*
X86163Y-426103D01*
X85844Y-425839D02*
X86110Y-426045D01*
X85603Y-425751D02*
X85844Y-425839D01*
X85522Y-425751D02*
X85603D01*
X85452D02*
X85522D01*
X85241Y-425879D02*
X85452Y-425751D01*
X85226Y-425905D02*
X85241Y-425879D01*
X85211Y-425930D02*
X85226Y-425905D01*
X85138Y-426272D02*
X85211Y-425930D01*
X85138Y-426395D02*
Y-426272D01*
Y-426554D02*
Y-426395D01*
Y-426902D02*
Y-426554D01*
Y-427251D02*
Y-426902D01*
Y-427410D02*
Y-427251D01*
Y-427471D02*
Y-427410D01*
Y-427471D02*
X85147Y-427656D01*
X85149Y-427663D01*
X85154Y-427680D01*
X85234Y-427810D01*
X85245Y-427819D01*
X85257Y-427828D01*
X85427Y-427872D01*
X85487D01*
X85539D01*
Y-427920D02*
Y-427872D01*
Y-427969D02*
Y-427920D01*
X85348Y-427969D02*
X85539D01*
X84926D02*
X85348D01*
X84505D02*
X84926D01*
X84314D02*
X84505D01*
X84314D02*
Y-427920D01*
Y-427872D01*
X84372D01*
X84548Y-427840D01*
X84558Y-427834D01*
X84570Y-427827D01*
X84650Y-427739D01*
X84654Y-427729D01*
X84661Y-427714D01*
X84692Y-427489D01*
Y-427410D01*
Y-427244D01*
Y-426880D01*
Y-426517D01*
Y-426352D01*
Y-426234D01*
X84742Y-425881D01*
X84752Y-425855D01*
X84767Y-425816D01*
X84960Y-425537D01*
X84984Y-425520D01*
X85009Y-425504D01*
X85246Y-425419D01*
X85333D01*
X85435D01*
X85738Y-425550D01*
X86091Y-425856D01*
X86163Y-425944D01*
X88997Y-425419D02*
X89131D01*
X89535Y-425553D01*
X89581Y-425580D01*
X89627Y-425607D01*
X89830Y-425785D01*
X89997Y-426021D01*
X90026Y-426078D01*
X90054Y-426133D01*
X90194Y-426585D01*
Y-426755D02*
Y-426585D01*
Y-426866D02*
Y-426755D01*
X90125Y-427200D02*
X90194Y-426866D01*
X89963Y-427536D02*
X90125Y-427200D01*
X89916Y-427599D02*
X89963Y-427536D01*
X89861Y-427673D02*
X89916Y-427599D01*
X89529Y-427933D02*
X89861Y-427673D01*
X89152Y-428045D02*
X89529Y-427933D01*
X89026Y-428045D02*
X89152D01*
X88882D02*
X89026D01*
X88450Y-427901D02*
X88882Y-428045D01*
X88403Y-427872D02*
X88450Y-427901D01*
X88357Y-427842D02*
X88403Y-427872D01*
X88153Y-427656D02*
X88357Y-427842D01*
X87990Y-427414D02*
X88153Y-427656D01*
X87963Y-427358D02*
X87990Y-427414D01*
X87937Y-427301D02*
X87963Y-427358D01*
X87804Y-426853D02*
X87937Y-427301D01*
X87804Y-426853D02*
Y-426685D01*
Y-426573D01*
X87877Y-426238D01*
X88045Y-425907D01*
X88094Y-425846D01*
X88151Y-425775D01*
X88490Y-425526D01*
X88870Y-425419D01*
X88997D01*
X89013Y-425595D02*
X89080D01*
X88810Y-425660D02*
X89013Y-425595D01*
X88623Y-425811D02*
X88810Y-425660D01*
X88591Y-425855D02*
X88623Y-425811D01*
X88544Y-425918D02*
X88591Y-425855D01*
X88378Y-426303D02*
X88544Y-425918D01*
X88307Y-426745D02*
X88378Y-426303D01*
X88307Y-426893D02*
Y-426745D01*
Y-427005D02*
Y-426893D01*
Y-427005D02*
X88350Y-427342D01*
X88449Y-427600D01*
X88478Y-427636D01*
X88506Y-427672D01*
X88671Y-427799D01*
X88850Y-427853D01*
X88910D01*
X88990D01*
X89227Y-427755D01*
X89441Y-427526D01*
X89476Y-427461D01*
X89512Y-427395D01*
X89638Y-427031D01*
X89691Y-426654D01*
Y-426528D01*
Y-426399D01*
X89618Y-426014D02*
X89691Y-426399D01*
X89602Y-425979D02*
X89618Y-426014D01*
X89588Y-425943D02*
X89602Y-425979D01*
X89393Y-425694D02*
X89588Y-425943D01*
X89368Y-425680D02*
X89393Y-425694D01*
X89345Y-425666D02*
X89368Y-425680D01*
X89152Y-425595D02*
X89345Y-425666D01*
X89080Y-425595D02*
X89152D01*
X91294Y-424219D02*
X91342D01*
X91389D01*
X91394Y-424240D01*
X91477Y-424409D01*
X91489Y-424421D01*
X91498Y-424430D01*
X91585Y-424473D01*
X91616D01*
X91652D01*
X91759Y-424423D01*
X91778Y-424413D01*
X91843Y-424380D01*
X92367Y-424219D01*
X92562D01*
X92686D01*
X93054Y-424282D01*
X93433Y-424429D01*
X93505Y-424472D01*
X93577Y-424514D01*
X93890Y-424776D01*
X94141Y-425107D01*
X94182Y-425184D01*
X94223Y-425261D01*
X94367Y-425666D01*
X94428Y-426061D01*
Y-426193D02*
Y-426061D01*
Y-426352D02*
Y-426193D01*
X94335Y-426829D02*
X94428Y-426352D01*
X94117Y-427293D02*
X94335Y-426829D01*
X94055Y-427377D02*
X94117Y-427293D01*
X93972Y-427489D02*
X94055Y-427377D01*
X93452Y-427884D02*
X93972Y-427489D01*
X92846Y-428052D02*
X93452Y-427884D01*
X92643Y-428052D02*
X92846D01*
X92526D02*
X92643D01*
X92173Y-427995D02*
X92526Y-428052D01*
X91832Y-427863D02*
X92173Y-427995D01*
X91770Y-427826D02*
X91832Y-427863D01*
X91709Y-427788D02*
X91770Y-427826D01*
X91426Y-427533D02*
X91709Y-427788D01*
X91172Y-427191D02*
X91426Y-427533D01*
X91126Y-427109D02*
X91172Y-427191D01*
X91126Y-427109D02*
X91169Y-427082D01*
X91210Y-427055D01*
X91265Y-427131D01*
X91525Y-427434D01*
X91765Y-427637D01*
X91810Y-427662D01*
X91856Y-427687D01*
X92283Y-427815D01*
X92441D01*
X92538D01*
X92829Y-427766D01*
X93119Y-427653D01*
X93172Y-427621D01*
X93226Y-427588D01*
X93453Y-427383D01*
X93626Y-427121D01*
X93652Y-427061D01*
X93679Y-426999D01*
X93772Y-426662D01*
X93812Y-426314D01*
Y-426198D01*
Y-426059D01*
X93770Y-425644D02*
X93812Y-426059D01*
X93671Y-425257D02*
X93770Y-425644D01*
X93643Y-425190D02*
X93671Y-425257D01*
X93614Y-425122D02*
X93643Y-425190D01*
X93442Y-424838D02*
X93614Y-425122D01*
X93228Y-424629D02*
X93442Y-424838D01*
X93179Y-424599D02*
X93228Y-424629D01*
X93130Y-424568D02*
X93179Y-424599D01*
X92684Y-424413D02*
X93130Y-424568D01*
X92519Y-424413D02*
X92684D01*
X92418D02*
X92519D01*
X92115Y-424474D02*
X92418Y-424413D01*
X91825Y-424618D02*
X92115Y-424474D01*
X91773Y-424659D02*
X91825Y-424618D01*
X91721Y-424700D02*
X91773Y-424659D01*
X91498Y-424984D02*
X91721Y-424700D01*
X91323Y-425372D02*
X91498Y-424984D01*
X91294Y-425465D02*
X91323Y-425372D01*
X91210Y-425465D02*
X91294D01*
X91210D02*
X91224Y-425270D01*
X91253Y-424842D01*
X91281Y-424413D01*
X91294Y-424219D01*
M02*
