G04*
G04 #@! TF.GenerationSoftware,Altium Limited,Altium Designer,19.0.11 (319)*
G04*
G04 Layer_Color=255*
%FSLAX44Y44*%
%MOMM*%
G71*
G01*
G75*
%ADD18R,0.7300X0.4900*%
%ADD19R,0.1800X0.6900*%
G04:AMPARAMS|DCode=20|XSize=0.25mm|YSize=0.65mm|CornerRadius=0.0625mm|HoleSize=0mm|Usage=FLASHONLY|Rotation=185.000|XOffset=0mm|YOffset=0mm|HoleType=Round|Shape=RoundedRectangle|*
%AMROUNDEDRECTD20*
21,1,0.2500,0.5250,0,0,185.0*
21,1,0.1250,0.6500,0,0,185.0*
1,1,0.1250,-0.0851,0.2561*
1,1,0.1250,0.0394,0.2670*
1,1,0.1250,0.0851,-0.2561*
1,1,0.1250,-0.0394,-0.2670*
%
%ADD20ROUNDEDRECTD20*%
G04:AMPARAMS|DCode=21|XSize=0.8mm|YSize=0.9mm|CornerRadius=0mm|HoleSize=0mm|Usage=FLASHONLY|Rotation=178.800|XOffset=0mm|YOffset=0mm|HoleType=Round|Shape=Rectangle|*
%AMROTATEDRECTD21*
4,1,4,0.4093,0.4415,0.3905,-0.4583,-0.4093,-0.4415,-0.3905,0.4583,0.4093,0.4415,0.0*
%
%ADD21ROTATEDRECTD21*%

G04:AMPARAMS|DCode=22|XSize=0.95mm|YSize=0.85mm|CornerRadius=0mm|HoleSize=0mm|Usage=FLASHONLY|Rotation=87.700|XOffset=0mm|YOffset=0mm|HoleType=Round|Shape=Rectangle|*
%AMROTATEDRECTD22*
4,1,4,0.4056,-0.4917,-0.4437,-0.4576,-0.4056,0.4917,0.4437,0.4576,0.4056,-0.4917,0.0*
%
%ADD22ROTATEDRECTD22*%

G04:AMPARAMS|DCode=23|XSize=0.95mm|YSize=0.85mm|CornerRadius=0mm|HoleSize=0mm|Usage=FLASHONLY|Rotation=175.000|XOffset=0mm|YOffset=0mm|HoleType=Round|Shape=Rectangle|*
%AMROTATEDRECTD23*
4,1,4,0.5102,0.3820,0.4361,-0.4648,-0.5102,-0.3820,-0.4361,0.4648,0.5102,0.3820,0.0*
%
%ADD23ROTATEDRECTD23*%

G04:AMPARAMS|DCode=24|XSize=0.95mm|YSize=0.85mm|CornerRadius=0mm|HoleSize=0mm|Usage=FLASHONLY|Rotation=265.000|XOffset=0mm|YOffset=0mm|HoleType=Round|Shape=Rectangle|*
%AMROTATEDRECTD24*
4,1,4,-0.3820,0.5102,0.4648,0.4361,0.3820,-0.5102,-0.4648,-0.4361,-0.3820,0.5102,0.0*
%
%ADD24ROTATEDRECTD24*%

G04:AMPARAMS|DCode=25|XSize=0.6mm|YSize=1mm|CornerRadius=0.075mm|HoleSize=0mm|Usage=FLASHONLY|Rotation=175.000|XOffset=0mm|YOffset=0mm|HoleType=Round|Shape=RoundedRectangle|*
%AMROUNDEDRECTD25*
21,1,0.6000,0.8500,0,0,175.0*
21,1,0.4500,1.0000,0,0,175.0*
1,1,0.1500,-0.1871,0.4430*
1,1,0.1500,0.2612,0.4038*
1,1,0.1500,0.1871,-0.4430*
1,1,0.1500,-0.2612,-0.4038*
%
%ADD25ROUNDEDRECTD25*%
%ADD26R,1.0000X0.9000*%
%ADD27R,0.8500X0.9500*%
G04:AMPARAMS|DCode=28|XSize=1.27mm|YSize=2.54mm|CornerRadius=0.1588mm|HoleSize=0mm|Usage=FLASHONLY|Rotation=88.800|XOffset=0mm|YOffset=0mm|HoleType=Round|Shape=RoundedRectangle|*
%AMROUNDEDRECTD28*
21,1,1.2700,2.2225,0,0,88.8*
21,1,0.9525,2.5400,0,0,88.8*
1,1,0.3175,1.1210,0.4529*
1,1,0.3175,1.1010,-0.4994*
1,1,0.3175,-1.1210,-0.4529*
1,1,0.3175,-1.1010,0.4994*
%
%ADD28ROUNDEDRECTD28*%
G04:AMPARAMS|DCode=29|XSize=2.032mm|YSize=2.54mm|CornerRadius=0.254mm|HoleSize=0mm|Usage=FLASHONLY|Rotation=88.800|XOffset=0mm|YOffset=0mm|HoleType=Round|Shape=RoundedRectangle|*
%AMROUNDEDRECTD29*
21,1,2.0320,2.0320,0,0,88.8*
21,1,1.5240,2.5400,0,0,88.8*
1,1,0.5080,1.0317,0.7406*
1,1,0.5080,0.9998,-0.7831*
1,1,0.5080,-1.0317,-0.7406*
1,1,0.5080,-0.9998,0.7831*
%
%ADD29ROUNDEDRECTD29*%
G04:AMPARAMS|DCode=30|XSize=0.95mm|YSize=0.85mm|CornerRadius=0mm|HoleSize=0mm|Usage=FLASHONLY|Rotation=358.800|XOffset=0mm|YOffset=0mm|HoleType=Round|Shape=Rectangle|*
%AMROTATEDRECTD30*
4,1,4,-0.4838,-0.4150,-0.4660,0.4349,0.4838,0.4150,0.4660,-0.4349,-0.4838,-0.4150,0.0*
%
%ADD30ROTATEDRECTD30*%

G04:AMPARAMS|DCode=31|XSize=0.95mm|YSize=0.85mm|CornerRadius=0mm|HoleSize=0mm|Usage=FLASHONLY|Rotation=88.800|XOffset=0mm|YOffset=0mm|HoleType=Round|Shape=Rectangle|*
%AMROTATEDRECTD31*
4,1,4,0.4150,-0.4838,-0.4349,-0.4660,-0.4150,0.4838,0.4349,0.4660,0.4150,-0.4838,0.0*
%
%ADD31ROTATEDRECTD31*%

G04:AMPARAMS|DCode=32|XSize=1.525mm|YSize=0.65mm|CornerRadius=0mm|HoleSize=0mm|Usage=FLASHONLY|Rotation=268.800|XOffset=0mm|YOffset=0mm|HoleType=Round|Shape=Rectangle|*
%AMROTATEDRECTD32*
4,1,4,-0.3090,0.7691,0.3409,0.7555,0.3090,-0.7691,-0.3409,-0.7555,-0.3090,0.7691,0.0*
%
%ADD32ROTATEDRECTD32*%

G04:AMPARAMS|DCode=33|XSize=1mm|YSize=0.9mm|CornerRadius=0mm|HoleSize=0mm|Usage=FLASHONLY|Rotation=175.000|XOffset=0mm|YOffset=0mm|HoleType=Round|Shape=Rectangle|*
%AMROTATEDRECTD33*
4,1,4,0.5373,0.4047,0.4589,-0.4919,-0.5373,-0.4047,-0.4589,0.4919,0.5373,0.4047,0.0*
%
%ADD33ROTATEDRECTD33*%

G04:AMPARAMS|DCode=34|XSize=1.31mm|YSize=0.55mm|CornerRadius=0mm|HoleSize=0mm|Usage=FLASHONLY|Rotation=85.000|XOffset=0mm|YOffset=0mm|HoleType=Round|Shape=Rectangle|*
%AMROTATEDRECTD34*
4,1,4,0.2169,-0.6765,-0.3310,-0.6285,-0.2169,0.6765,0.3310,0.6285,0.2169,-0.6765,0.0*
%
%ADD34ROTATEDRECTD34*%

G04:AMPARAMS|DCode=35|XSize=0.7mm|YSize=0.3mm|CornerRadius=0mm|HoleSize=0mm|Usage=FLASHONLY|Rotation=355.000|XOffset=0mm|YOffset=0mm|HoleType=Round|Shape=Rectangle|*
%AMROTATEDRECTD35*
4,1,4,-0.3617,-0.1189,-0.3356,0.1799,0.3617,0.1189,0.3356,-0.1799,-0.3617,-0.1189,0.0*
%
%ADD35ROTATEDRECTD35*%

G04:AMPARAMS|DCode=36|XSize=1mm|YSize=0.9mm|CornerRadius=0mm|HoleSize=0mm|Usage=FLASHONLY|Rotation=357.700|XOffset=0mm|YOffset=0mm|HoleType=Round|Shape=Rectangle|*
%AMROTATEDRECTD36*
4,1,4,-0.5177,-0.4296,-0.4815,0.4697,0.5177,0.4296,0.4815,-0.4697,-0.5177,-0.4296,0.0*
%
%ADD36ROTATEDRECTD36*%

G04:AMPARAMS|DCode=37|XSize=0.95mm|YSize=0.85mm|CornerRadius=0mm|HoleSize=0mm|Usage=FLASHONLY|Rotation=177.700|XOffset=0mm|YOffset=0mm|HoleType=Round|Shape=Rectangle|*
%AMROTATEDRECTD37*
4,1,4,0.4917,0.4056,0.4576,-0.4437,-0.4917,-0.4056,-0.4576,0.4437,0.4917,0.4056,0.0*
%
%ADD37ROTATEDRECTD37*%

G04:AMPARAMS|DCode=38|XSize=0.6mm|YSize=1.55mm|CornerRadius=0mm|HoleSize=0mm|Usage=FLASHONLY|Rotation=357.700|XOffset=0mm|YOffset=0mm|HoleType=Round|Shape=Round|*
%AMOVALD38*
21,1,0.9500,0.6000,0.0000,0.0000,87.7*
1,1,0.6000,-0.0191,-0.4746*
1,1,0.6000,0.0191,0.4746*
%
%ADD38OVALD38*%

G04:AMPARAMS|DCode=39|XSize=0.4mm|YSize=1.75mm|CornerRadius=0.08mm|HoleSize=0mm|Usage=FLASHONLY|Rotation=357.700|XOffset=0mm|YOffset=0mm|HoleType=Round|Shape=RoundedRectangle|*
%AMROUNDEDRECTD39*
21,1,0.4000,1.5900,0,0,357.7*
21,1,0.2400,1.7500,0,0,357.7*
1,1,0.1600,0.0880,-0.7992*
1,1,0.1600,-0.1518,-0.7895*
1,1,0.1600,-0.0880,0.7992*
1,1,0.1600,0.1518,0.7895*
%
%ADD39ROUNDEDRECTD39*%
G04:AMPARAMS|DCode=40|XSize=0.95mm|YSize=0.85mm|CornerRadius=0mm|HoleSize=0mm|Usage=FLASHONLY|Rotation=87.700|XOffset=0mm|YOffset=0mm|HoleType=Round|Shape=Rectangle|*
%AMROTATEDRECTD40*
4,1,4,0.4056,-0.4917,-0.4437,-0.4576,-0.4056,0.4917,0.4437,0.4576,0.4056,-0.4917,0.0*
%
%ADD40ROTATEDRECTD40*%

G04:AMPARAMS|DCode=41|XSize=5.7mm|YSize=1.6mm|CornerRadius=0mm|HoleSize=0mm|Usage=FLASHONLY|Rotation=265.000|XOffset=0mm|YOffset=0mm|HoleType=Round|Shape=Rectangle|*
%AMROTATEDRECTD41*
4,1,4,-0.5486,2.9089,1.0454,2.7694,0.5486,-2.9089,-1.0454,-2.7694,-0.5486,2.9089,0.0*
%
%ADD41ROTATEDRECTD41*%

G04:AMPARAMS|DCode=42|XSize=1mm|YSize=0.9mm|CornerRadius=0mm|HoleSize=0mm|Usage=FLASHONLY|Rotation=85.000|XOffset=0mm|YOffset=0mm|HoleType=Round|Shape=Rectangle|*
%AMROTATEDRECTD42*
4,1,4,0.4047,-0.5373,-0.4919,-0.4589,-0.4047,0.5373,0.4919,0.4589,0.4047,-0.5373,0.0*
%
%ADD42ROTATEDRECTD42*%

G04:AMPARAMS|DCode=43|XSize=1.5mm|YSize=0.65mm|CornerRadius=0mm|HoleSize=0mm|Usage=FLASHONLY|Rotation=85.000|XOffset=0mm|YOffset=0mm|HoleType=Round|Shape=Rectangle|*
%AMROTATEDRECTD43*
4,1,4,0.2584,-0.7755,-0.3891,-0.7188,-0.2584,0.7755,0.3891,0.7188,0.2584,-0.7755,0.0*
%
%ADD43ROTATEDRECTD43*%

G04:AMPARAMS|DCode=44|XSize=1.5mm|YSize=0.65mm|CornerRadius=0mm|HoleSize=0mm|Usage=FLASHONLY|Rotation=85.000|XOffset=0mm|YOffset=0mm|HoleType=Round|Shape=Round|*
%AMOVALD44*
21,1,0.8500,0.6500,0.0000,0.0000,85.0*
1,1,0.6500,-0.0370,-0.4234*
1,1,0.6500,0.0370,0.4234*
%
%ADD44OVALD44*%

G04:AMPARAMS|DCode=45|XSize=2.7mm|YSize=3.6mm|CornerRadius=0.675mm|HoleSize=0mm|Usage=FLASHONLY|Rotation=85.000|XOffset=0mm|YOffset=0mm|HoleType=Round|Shape=RoundedRectangle|*
%AMROUNDEDRECTD45*
21,1,2.7000,2.2500,0,0,85.0*
21,1,1.3500,3.6000,0,0,85.0*
1,1,1.3500,1.1795,0.5744*
1,1,1.3500,1.0619,-0.7705*
1,1,1.3500,-1.1795,-0.5744*
1,1,1.3500,-1.0619,0.7705*
%
%ADD45ROUNDEDRECTD45*%
G04:AMPARAMS|DCode=46|XSize=1mm|YSize=0.9mm|CornerRadius=0mm|HoleSize=0mm|Usage=FLASHONLY|Rotation=95.000|XOffset=0mm|YOffset=0mm|HoleType=Round|Shape=Rectangle|*
%AMROTATEDRECTD46*
4,1,4,0.4919,-0.4589,-0.4047,-0.5373,-0.4919,0.4589,0.4047,0.5373,0.4919,-0.4589,0.0*
%
%ADD46ROTATEDRECTD46*%

G04:AMPARAMS|DCode=47|XSize=1.8mm|YSize=1.2mm|CornerRadius=0.15mm|HoleSize=0mm|Usage=FLASHONLY|Rotation=185.000|XOffset=0mm|YOffset=0mm|HoleType=Round|Shape=RoundedRectangle|*
%AMROUNDEDRECTD47*
21,1,1.8000,0.9000,0,0,185.0*
21,1,1.5000,1.2000,0,0,185.0*
1,1,0.3000,-0.7864,0.3829*
1,1,0.3000,0.7079,0.5137*
1,1,0.3000,0.7864,-0.3829*
1,1,0.3000,-0.7079,-0.5137*
%
%ADD47ROUNDEDRECTD47*%
G04:AMPARAMS|DCode=48|XSize=1mm|YSize=0.9mm|CornerRadius=0mm|HoleSize=0mm|Usage=FLASHONLY|Rotation=185.000|XOffset=0mm|YOffset=0mm|HoleType=Round|Shape=Rectangle|*
%AMROTATEDRECTD48*
4,1,4,0.4589,0.4919,0.5373,-0.4047,-0.4589,-0.4919,-0.5373,0.4047,0.4589,0.4919,0.0*
%
%ADD48ROTATEDRECTD48*%

G04:AMPARAMS|DCode=49|XSize=0.95mm|YSize=0.85mm|CornerRadius=0mm|HoleSize=0mm|Usage=FLASHONLY|Rotation=185.000|XOffset=0mm|YOffset=0mm|HoleType=Round|Shape=Rectangle|*
%AMROTATEDRECTD49*
4,1,4,0.4361,0.4648,0.5102,-0.3820,-0.4361,-0.4648,-0.5102,0.3820,0.4361,0.4648,0.0*
%
%ADD49ROTATEDRECTD49*%

G04:AMPARAMS|DCode=50|XSize=0.83mm|YSize=0.625mm|CornerRadius=0mm|HoleSize=0mm|Usage=FLASHONLY|Rotation=265.000|XOffset=0mm|YOffset=0mm|HoleType=Round|Shape=Rectangle|*
%AMROTATEDRECTD50*
4,1,4,-0.2751,0.4407,0.3475,0.3862,0.2751,-0.4407,-0.3475,-0.3862,-0.2751,0.4407,0.0*
%
%ADD50ROTATEDRECTD50*%

G04:AMPARAMS|DCode=51|XSize=0.8mm|YSize=0.9mm|CornerRadius=0mm|HoleSize=0mm|Usage=FLASHONLY|Rotation=355.000|XOffset=0mm|YOffset=0mm|HoleType=Round|Shape=Rectangle|*
%AMROTATEDRECTD51*
4,1,4,-0.4377,-0.4134,-0.3593,0.4832,0.4377,0.4134,0.3593,-0.4832,-0.4377,-0.4134,0.0*
%
%ADD51ROTATEDRECTD51*%

G04:AMPARAMS|DCode=52|XSize=0.95mm|YSize=0.85mm|CornerRadius=0mm|HoleSize=0mm|Usage=FLASHONLY|Rotation=275.000|XOffset=0mm|YOffset=0mm|HoleType=Round|Shape=Rectangle|*
%AMROTATEDRECTD52*
4,1,4,-0.4648,0.4361,0.3820,0.5102,0.4648,-0.4361,-0.3820,-0.5102,-0.4648,0.4361,0.0*
%
%ADD52ROTATEDRECTD52*%

%ADD53P,3.9598X4X230.0*%
G04:AMPARAMS|DCode=54|XSize=0.25mm|YSize=0.65mm|CornerRadius=0.0625mm|HoleSize=0mm|Usage=FLASHONLY|Rotation=275.000|XOffset=0mm|YOffset=0mm|HoleType=Round|Shape=RoundedRectangle|*
%AMROUNDEDRECTD54*
21,1,0.2500,0.5250,0,0,275.0*
21,1,0.1250,0.6500,0,0,275.0*
1,1,0.1250,-0.2561,-0.0851*
1,1,0.1250,-0.2670,0.0394*
1,1,0.1250,0.2561,0.0851*
1,1,0.1250,0.2670,-0.0394*
%
%ADD54ROUNDEDRECTD54*%
G04:AMPARAMS|DCode=55|XSize=5.6mm|YSize=2.1mm|CornerRadius=0mm|HoleSize=0mm|Usage=FLASHONLY|Rotation=275.000|XOffset=0mm|YOffset=0mm|HoleType=Round|Shape=Rectangle|*
%AMROTATEDRECTD55*
4,1,4,-1.2900,2.6978,0.8020,2.8809,1.2900,-2.6978,-0.8020,-2.8809,-1.2900,2.6978,0.0*
%
%ADD55ROTATEDRECTD55*%

%ADD114C,1.5000*%
%ADD115R,1.5000X1.5000*%
%ADD116C,1.6250*%
%ADD117C,2.4000*%
%ADD118C,1.5300*%
%ADD119C,1.4000*%
%ADD120P,1.9799X4X50.0*%
%ADD121C,1.9500*%
G04:AMPARAMS|DCode=122|XSize=1.75mm|YSize=2.5mm|CornerRadius=0mm|HoleSize=0mm|Usage=FLASHONLY|Rotation=178.800|XOffset=0mm|YOffset=0mm|HoleType=Round|Shape=Round|*
%AMOVALD122*
21,1,0.7500,1.7500,0.0000,0.0000,268.8*
1,1,1.7500,0.0079,0.3749*
1,1,1.7500,-0.0079,-0.3749*
%
%ADD122OVALD122*%

%ADD123C,5.0000*%
G04:AMPARAMS|DCode=124|XSize=1.75mm|YSize=2.5mm|CornerRadius=0mm|HoleSize=0mm|Usage=FLASHONLY|Rotation=176.000|XOffset=0mm|YOffset=0mm|HoleType=Round|Shape=Round|*
%AMOVALD124*
21,1,0.7500,1.7500,0.0000,0.0000,266.0*
1,1,1.7500,0.0262,0.3741*
1,1,1.7500,-0.0262,-0.3741*
%
%ADD124OVALD124*%

G04:AMPARAMS|DCode=125|XSize=1.75mm|YSize=2.5mm|CornerRadius=0mm|HoleSize=0mm|Usage=FLASHONLY|Rotation=175.000|XOffset=0mm|YOffset=0mm|HoleType=Round|Shape=Round|*
%AMOVALD125*
21,1,0.7500,1.7500,0.0000,0.0000,265.0*
1,1,1.7500,0.0327,0.3736*
1,1,1.7500,-0.0327,-0.3736*
%
%ADD125OVALD125*%

G04:AMPARAMS|DCode=126|XSize=1.75mm|YSize=2.5mm|CornerRadius=0mm|HoleSize=0mm|Usage=FLASHONLY|Rotation=177.300|XOffset=0mm|YOffset=0mm|HoleType=Round|Shape=Round|*
%AMOVALD126*
21,1,0.7500,1.7500,0.0000,0.0000,267.3*
1,1,1.7500,0.0177,0.3746*
1,1,1.7500,-0.0177,-0.3746*
%
%ADD126OVALD126*%

D18*
X44000Y133750D02*
D03*
Y153250D02*
D03*
X74000Y133750D02*
D03*
Y153250D02*
D03*
X299500Y-207250D02*
D03*
Y-226750D02*
D03*
X269500Y-207250D02*
D03*
Y-226750D02*
D03*
X-151000Y-207250D02*
D03*
Y-226750D02*
D03*
X-181000Y-207250D02*
D03*
Y-226750D02*
D03*
D19*
X52000Y134750D02*
D03*
Y152250D02*
D03*
X55500Y134750D02*
D03*
Y152250D02*
D03*
X59000Y134750D02*
D03*
Y152250D02*
D03*
X62500Y134750D02*
D03*
Y152250D02*
D03*
X66000Y134750D02*
D03*
Y152250D02*
D03*
X291500Y-208250D02*
D03*
Y-225750D02*
D03*
X288000Y-208250D02*
D03*
Y-225750D02*
D03*
X284500Y-208250D02*
D03*
Y-225750D02*
D03*
X281000Y-208250D02*
D03*
Y-225750D02*
D03*
X277500Y-208250D02*
D03*
Y-225750D02*
D03*
X-159000Y-208250D02*
D03*
Y-225750D02*
D03*
X-162500Y-208250D02*
D03*
Y-225750D02*
D03*
X-166000Y-208250D02*
D03*
Y-225750D02*
D03*
X-169500Y-208250D02*
D03*
Y-225750D02*
D03*
X-173000Y-208250D02*
D03*
Y-225750D02*
D03*
D20*
X492536Y-302719D02*
D03*
X497517Y-302283D02*
D03*
X487555Y-303155D02*
D03*
X482574Y-303591D02*
D03*
X477593Y-304027D02*
D03*
X472612Y-304462D02*
D03*
X469083Y-264116D02*
D03*
X474064Y-263681D02*
D03*
X479045Y-263245D02*
D03*
X484026Y-262809D02*
D03*
X489007Y-262373D02*
D03*
X493988Y-261938D02*
D03*
D21*
X-183157Y-524749D02*
D03*
X-164161Y-525147D02*
D03*
X-173241Y-504952D02*
D03*
D22*
X-326450Y-469950D02*
D03*
X-311700Y-470450D02*
D03*
X-298710Y-470972D02*
D03*
X-339440Y-469428D02*
D03*
D23*
X-424567Y-232250D02*
D03*
X-425700Y-245200D02*
D03*
X-555766Y-461675D02*
D03*
X-554633Y-448725D02*
D03*
X-570383Y-447225D02*
D03*
X-571516Y-460175D02*
D03*
X-581700Y-427700D02*
D03*
X-580567Y-414749D02*
D03*
X-540200Y-501200D02*
D03*
X-541333Y-514151D02*
D03*
D24*
X-454425Y-242134D02*
D03*
X-441475Y-243267D02*
D03*
X-399650Y-287067D02*
D03*
X-386700Y-288200D02*
D03*
X-477475Y-251516D02*
D03*
X-490425Y-250383D02*
D03*
X-478999Y-268333D02*
D03*
X-491950Y-267200D02*
D03*
D25*
X-452950Y-282450D02*
D03*
X-460409Y-258710D02*
D03*
X-441482Y-260366D02*
D03*
D26*
X-207700Y-456700D02*
D03*
Y-470200D02*
D03*
Y-499950D02*
D03*
Y-486450D02*
D03*
X-193450Y-399950D02*
D03*
Y-413450D02*
D03*
X-177381Y-399950D02*
D03*
Y-413450D02*
D03*
D27*
X-128200Y-507950D02*
D03*
X-141200D02*
D03*
D28*
X-103524Y-467384D02*
D03*
X-104375Y-508016D02*
D03*
D29*
X-103950Y-487700D02*
D03*
D30*
X-134836Y-487699D02*
D03*
X-134564Y-474701D02*
D03*
D31*
X-167201Y-540086D02*
D03*
X-180198Y-539814D02*
D03*
D32*
X-152336Y-433485D02*
D03*
X-165033Y-433219D02*
D03*
X-177731Y-432953D02*
D03*
X-190428Y-432687D02*
D03*
X-191564Y-486915D02*
D03*
X-178867Y-487181D02*
D03*
X-166169Y-487447D02*
D03*
X-153472Y-487713D02*
D03*
D33*
X-493538Y-296674D02*
D03*
X-492362Y-283226D02*
D03*
X-504806Y-235251D02*
D03*
X-505982Y-248700D02*
D03*
X-545862Y-257976D02*
D03*
X-547038Y-271424D02*
D03*
X-561759Y-256583D02*
D03*
X-562935Y-270032D02*
D03*
X-577537Y-255083D02*
D03*
X-578714Y-268532D02*
D03*
X-586112Y-445476D02*
D03*
X-587288Y-458924D02*
D03*
X-540038Y-463174D02*
D03*
X-538862Y-449726D02*
D03*
X-523876Y-464649D02*
D03*
X-522700Y-451200D02*
D03*
D34*
X-513000Y-266750D02*
D03*
D35*
X-504595Y-262466D02*
D03*
X-505030Y-267447D02*
D03*
X-505466Y-272428D02*
D03*
X-521405Y-271034D02*
D03*
X-520970Y-266053D02*
D03*
X-520534Y-261072D02*
D03*
D36*
X-281658Y-436461D02*
D03*
X-282200Y-449950D02*
D03*
D37*
X-314189Y-362955D02*
D03*
X-314711Y-375945D02*
D03*
D38*
X-297153Y-396013D02*
D03*
X-309843Y-395503D02*
D03*
X-322533Y-394994D02*
D03*
X-335223Y-394484D02*
D03*
X-299320Y-449969D02*
D03*
X-312010Y-449460D02*
D03*
X-324700Y-448950D02*
D03*
X-337390Y-448440D02*
D03*
D39*
X-312613Y-492480D02*
D03*
X-325802Y-491950D02*
D03*
X-319950Y-510700D02*
D03*
D40*
X-314705Y-534961D02*
D03*
X-327695Y-534439D02*
D03*
D41*
X-532700Y-315200D02*
D03*
X-579521Y-311104D02*
D03*
D42*
X-590924Y-370362D02*
D03*
X-577476Y-371538D02*
D03*
X-592174Y-386112D02*
D03*
X-578726Y-387288D02*
D03*
X-533127Y-357288D02*
D03*
X-546576Y-356112D02*
D03*
D43*
X-565307Y-427633D02*
D03*
D44*
X-552656Y-428740D02*
D03*
X-540004Y-429846D02*
D03*
X-527352Y-430953D02*
D03*
X-560601Y-373838D02*
D03*
X-547949Y-374945D02*
D03*
X-535298Y-376052D02*
D03*
X-522646Y-377159D02*
D03*
D45*
X-544026Y-402392D02*
D03*
D46*
X542326Y-334288D02*
D03*
X555774Y-333112D02*
D03*
X543774Y-290612D02*
D03*
X530326Y-291788D02*
D03*
X541999Y-274773D02*
D03*
X528550Y-275950D02*
D03*
X540524Y-259112D02*
D03*
X527076Y-260288D02*
D03*
D47*
X530800Y-313450D02*
D03*
X556701Y-311184D02*
D03*
D48*
X474138Y-332924D02*
D03*
X472962Y-319476D02*
D03*
X581874Y-275251D02*
D03*
X583050Y-288700D02*
D03*
X574212Y-189476D02*
D03*
X575388Y-202924D02*
D03*
X534623Y-394001D02*
D03*
X535800Y-407450D02*
D03*
X487623Y-399251D02*
D03*
X488800Y-412700D02*
D03*
D49*
X535917Y-229750D02*
D03*
X537050Y-242700D02*
D03*
X488733Y-233975D02*
D03*
X489866Y-246925D02*
D03*
X472984Y-235475D02*
D03*
X474117Y-248425D02*
D03*
X457234Y-236975D02*
D03*
X458367Y-249925D02*
D03*
X504417Y-232500D02*
D03*
X505550Y-245450D02*
D03*
X521300Y-243950D02*
D03*
X520167Y-231000D02*
D03*
X442617Y-251425D02*
D03*
X441483Y-238475D02*
D03*
X505800Y-315450D02*
D03*
X506933Y-328400D02*
D03*
X583300Y-404200D02*
D03*
X582167Y-391250D02*
D03*
X566417Y-392500D02*
D03*
X567550Y-405450D02*
D03*
X550667Y-393999D02*
D03*
X551800Y-406950D02*
D03*
X519167Y-397000D02*
D03*
X520300Y-409950D02*
D03*
X503417Y-398750D02*
D03*
X504550Y-411700D02*
D03*
X472167Y-402249D02*
D03*
X473300Y-415200D02*
D03*
X457550Y-416450D02*
D03*
X456417Y-403499D02*
D03*
X440667Y-404749D02*
D03*
X441800Y-417700D02*
D03*
D50*
X-553617Y-482170D02*
D03*
X-575783Y-480230D02*
D03*
D51*
X-568072Y-518162D02*
D03*
X-575792Y-497410D02*
D03*
X-556865Y-499066D02*
D03*
D52*
X431825Y-301017D02*
D03*
X444775Y-299883D02*
D03*
X442275Y-268384D02*
D03*
X429325Y-269517D02*
D03*
X443525Y-284133D02*
D03*
X430575Y-285266D02*
D03*
D53*
X483300Y-283200D02*
D03*
D54*
X464216Y-297417D02*
D03*
X463781Y-292436D02*
D03*
X463345Y-287455D02*
D03*
X462909Y-282474D02*
D03*
X462473Y-277493D02*
D03*
X462038Y-272512D02*
D03*
X502383Y-268983D02*
D03*
X502819Y-273964D02*
D03*
X503255Y-278945D02*
D03*
X503691Y-283926D02*
D03*
X504127Y-288907D02*
D03*
X504562Y-293888D02*
D03*
D55*
X618102Y-283545D02*
D03*
X609822Y-188906D02*
D03*
D114*
X-228300Y40200D02*
D03*
Y14800D02*
D03*
Y-10600D02*
D03*
Y-36000D02*
D03*
Y-61400D02*
D03*
Y-86800D02*
D03*
Y-112200D02*
D03*
Y-137600D02*
D03*
Y-163000D02*
D03*
Y-188400D02*
D03*
Y-213550D02*
D03*
Y-239200D02*
D03*
X-253700Y-86800D02*
D03*
Y-61400D02*
D03*
Y-36000D02*
D03*
Y-10600D02*
D03*
Y40200D02*
D03*
Y14800D02*
D03*
Y-213800D02*
D03*
Y-188400D02*
D03*
Y-163000D02*
D03*
Y-137600D02*
D03*
Y-112200D02*
D03*
D115*
Y-239200D02*
D03*
D116*
X580645Y-529223D02*
D03*
X466780Y-539185D02*
D03*
D117*
X599505Y-496956D02*
D03*
X442604Y-510683D02*
D03*
D118*
X589668Y-562363D02*
D03*
X565846Y-581512D02*
D03*
X488953Y-571174D02*
D03*
X465131Y-590323D02*
D03*
D119*
X560246Y-441768D02*
D03*
X549808Y-468178D02*
D03*
X534942Y-443982D02*
D03*
X524504Y-470392D02*
D03*
X509639Y-446196D02*
D03*
X499201Y-472606D02*
D03*
X484336Y-448409D02*
D03*
D120*
X473898Y-474819D02*
D03*
D121*
X-386544Y-327218D02*
D03*
X-399826Y-479038D02*
D03*
X-477950Y-497700D02*
D03*
X-471309Y-421790D02*
D03*
X-462454Y-320577D02*
D03*
D122*
X-214792Y-585902D02*
D03*
X-138608Y-587498D02*
D03*
X-164003Y-586966D02*
D03*
X-189397Y-586434D02*
D03*
D123*
X657740Y-340740D02*
D03*
X705240Y424260D02*
D03*
X657740Y169260D02*
D03*
Y679260D02*
D03*
Y1189260D02*
D03*
X-642260D02*
D03*
Y679260D02*
D03*
X-689760Y424260D02*
D03*
X-642260Y169260D02*
D03*
Y-340740D02*
D03*
D124*
X-482038Y-571178D02*
D03*
X-456700Y-572950D02*
D03*
X-431362Y-574722D02*
D03*
D125*
X-544048Y-566057D02*
D03*
X-569352Y-563843D02*
D03*
D126*
X-364758Y-578905D02*
D03*
X-288642Y-582495D02*
D03*
X-314014Y-581298D02*
D03*
X-339386Y-580102D02*
D03*
M02*
