M48
;Layer_Color=9474304
;FILE_FORMAT=4:4
METRIC,LZ
;TYPE=PLATED
T1F00S00C0.2500
T2F00S00C0.3000
T3F00S00C0.5000
%
T01
X00009Y0001075
X00024Y0000875
X00009Y000555
X00044252Y00058253
X0004025Y0008
X00056
X0007175Y0007975
X00087Y0008
X0009725Y00077
X001125Y00073
X001225Y00067
X001325Y0004425
X00109755Y00044752
X001025Y000385
X000765Y0004375
X0009275Y000165
X000875Y0010725
X0007175
X00056
X0004025Y001075
X00034Y0012125
X000215Y0011
X0010325Y00107
X00119Y0010725
X00133Y00108
X001325Y001195
Y00125
Y001305
Y00136
X002725Y00108
Y000805
X0028Y0006625
X002875
X00305
X00295Y0004175
X0038875Y000525
X003915Y00076
X00419
X00426Y0008575
X00405Y00094
X0047625Y0008525
X0049475Y00094
X00488Y0003225
X0047625Y0003375
Y0004325
X004525Y0004325
X00454Y0001325
X004645Y00013
X0046125Y0042775
X0044075Y0043725
X0048525Y00445
X0049325Y004695
X00493Y0049225
X0046925Y004895
X0045325
X004215Y0049175
X0040675Y0049075
X0034725Y00468189
X002675Y00316
X002875Y0027525
X00149Y0037775
X0014925Y003935
X0014175Y0041625
X0009975
X00082Y00416
X00071Y0039525
X0010525Y0039675
Y0037775
X000085Y00387
X000215Y0045525
X00040502Y00447772
X0007225Y0046
X00072Y0047575
Y0048725
X000075Y0049225
T02
X001175Y0007025
X0036425Y000655
X00379Y00059
X00368375Y00094132
X0043675Y00094
X004245Y000505
X0033725Y00427
X0032725
X0031725
X0031225Y00432
X0032225Y00432
X0033225
X0034225
X0030725Y00427
X0029225Y00427
X0028225
X0027225
X0026225Y00427
X0026725Y00432
X0027725Y00432
X0028725
X0029725
X0030225Y00462
X0025725
X0025225Y00432
X0024225
X0023225
X0022225Y00432
X0021225
X0020225
X0019725Y00427
X0018725
X0020725
X0021725
X0022725Y00427
X0023725
X0024725
X00257263Y00336516
X002625Y0032625
X002725Y0030575
X002775Y002955
X00282552Y00285302
X002925Y00265
X0009Y0038725
X00059Y00384
X0004575Y0048625
T03
X00114Y00363
X001285
M30
