G04*
G04 #@! TF.GenerationSoftware,Altium Limited,Altium Designer,19.0.11 (319)*
G04*
G04 Layer_Physical_Order=3*
G04 Layer_Color=16440176*
%FSLAX44Y44*%
%MOMM*%
G71*
G01*
G75*
%ADD90C,0.0889*%
%ADD96C,0.0890*%
%ADD101C,1.5000*%
%ADD105C,0.3500*%
D90*
X150513Y465467D02*
G03*
X151957Y464023I1444J0D01*
G01*
X150513Y470361D02*
G03*
X149068Y471805I-1444J0D01*
G01*
D02*
G03*
X147624Y470361I0J-1444D01*
G01*
X146179Y459528D02*
G03*
X147624Y460972I0J1444D01*
G01*
X144735D02*
G03*
X146179Y459528I1444J0D01*
G01*
X144735Y470361D02*
G03*
X143290Y471805I-1444J0D01*
G01*
D02*
G03*
X141846Y470361I0J-1444D01*
G01*
X140401Y459528D02*
G03*
X141846Y460972I0J1444D01*
G01*
X138957D02*
G03*
X140401Y459528I1444J0D01*
G01*
X138957Y470361D02*
G03*
X137512Y471805I-1444J0D01*
G01*
D02*
G03*
X136068Y470361I0J-1444D01*
G01*
X134623Y459528D02*
G03*
X136068Y460972I0J1444D01*
G01*
X133179D02*
G03*
X134623Y459528I1444J0D01*
G01*
X133179Y470361D02*
G03*
X131734Y471805I-1444J0D01*
G01*
D02*
G03*
X130290Y470361I0J-1444D01*
G01*
X128845Y459528D02*
G03*
X130290Y460972I0J1444D01*
G01*
X127401D02*
G03*
X128845Y459528I1444J0D01*
G01*
X127401Y470361D02*
G03*
X125956Y471805I-1444J0D01*
G01*
D02*
G03*
X124512Y470361I0J-1444D01*
G01*
X123067Y459528D02*
G03*
X124512Y460972I0J1444D01*
G01*
X121623D02*
G03*
X123067Y459528I1444J0D01*
G01*
X121623Y462578D02*
G03*
X120178Y464023I-1444J0D01*
G01*
X173417Y459194D02*
G03*
X174862Y457750I1444J0D01*
G01*
X173417Y460801D02*
G03*
X171973Y462245I-1444J0D01*
G01*
D02*
G03*
X170528Y460801I0J-1444D01*
G01*
X169473Y456694D02*
G03*
X170528Y457750I0J1055D01*
G01*
X167639D02*
G03*
X168695Y456694I1055J0D01*
G01*
X167639Y460801D02*
G03*
X166195Y462245I-1444J0D01*
G01*
D02*
G03*
X164750Y460801I0J-1444D01*
G01*
X163695Y456694D02*
G03*
X164750Y457750I0J1055D01*
G01*
X161861D02*
G03*
X162917Y456694I1055J0D01*
G01*
X161861Y460801D02*
G03*
X160417Y462245I-1444J0D01*
G01*
D02*
G03*
X158973Y460801I0J-1444D01*
G01*
X157917Y456694D02*
G03*
X158973Y457750I0J1055D01*
G01*
X156083D02*
G03*
X157139Y456694I1055J0D01*
G01*
X156083Y460801D02*
G03*
X154639Y462245I-1444J0D01*
G01*
D02*
G03*
X153195Y460801I0J-1444D01*
G01*
X151750Y457750D02*
G03*
X153195Y459194I0J1444D01*
G01*
X137904Y454500D02*
G03*
X136459Y453055I0J-1444D01*
G01*
X135015Y444695D02*
G03*
X136459Y446139I0J1444D01*
G01*
X133570D02*
G03*
X135015Y444695I1444J0D01*
G01*
X133570Y453055D02*
G03*
X132126Y454500I-1444J0D01*
G01*
D02*
G03*
X130681Y453055I0J-1444D01*
G01*
X129237Y444695D02*
G03*
X130681Y446139I0J1444D01*
G01*
X127792D02*
G03*
X129237Y444695I1444J0D01*
G01*
X127792Y453055D02*
G03*
X126348Y454500I-1444J0D01*
G01*
D02*
G03*
X124903Y453055I0J-1444D01*
G01*
X123459Y444695D02*
G03*
X124903Y446139I0J1444D01*
G01*
X122014D02*
G03*
X123459Y444695I1444J0D01*
G01*
X122014Y453055D02*
G03*
X120570Y454500I-1444J0D01*
G01*
D02*
G03*
X119125Y453055I0J-1444D01*
G01*
X117681Y444695D02*
G03*
X119125Y446139I0J1444D01*
G01*
X116236D02*
G03*
X117681Y444695I1444J0D01*
G01*
X116236Y453055D02*
G03*
X114792Y454500I-1444J0D01*
G01*
D02*
G03*
X113347Y453055I0J-1444D01*
G01*
X111903Y444695D02*
G03*
X113347Y446139I0J1444D01*
G01*
X110458D02*
G03*
X111903Y444695I1444J0D01*
G01*
X110458Y453055D02*
G03*
X109014Y454500I-1444J0D01*
G01*
X323139Y127278D02*
G03*
X324250Y126167I1111J0D01*
G01*
X323139Y127610D02*
G03*
X321695Y129054I-1444J0D01*
G01*
D02*
G03*
X320251Y127610I0J-1444D01*
G01*
X318808Y126167D02*
G03*
X320251Y127610I0J1442D01*
G01*
X317362D02*
G03*
X318804Y126167I1442J0D01*
G01*
X317362Y127610D02*
G03*
X315917Y129054I-1444J0D01*
G01*
D02*
G03*
X314473Y127610I0J-1444D01*
G01*
X313030Y126167D02*
G03*
X314473Y127610I0J1442D01*
G01*
X311583Y127578D02*
G03*
X312994Y126167I1410J0D01*
G01*
X311583Y127578D02*
G03*
X310139Y129022I-1444J0D01*
G01*
D02*
G03*
X308694Y127578I0J-1444D01*
G01*
X307284Y126167D02*
G03*
X308694Y127578I0J1410D01*
G01*
X332714Y126167D02*
G03*
X334124Y127578I0J1410D01*
G01*
X335569Y129022D02*
G03*
X334124Y127578I0J-1444D01*
G01*
X337013D02*
G03*
X335569Y129022I-1444J0D01*
G01*
X337013Y127578D02*
G03*
X338424Y126167I1410J0D01*
G01*
X305466Y128570D02*
G03*
X305466Y127236I667J-667D01*
G01*
X305466Y128570D02*
G03*
X305466Y130613I-1021J1021D01*
G01*
D02*
G03*
X303423Y130613I-1021J-1021D01*
G01*
X300420Y129652D02*
G03*
X302463Y129652I1021J1021D01*
G01*
X300420Y131695D02*
G03*
X300420Y129652I1021J-1021D01*
G01*
X301380Y132655D02*
G03*
X301380Y134698I-1021J1021D01*
G01*
D02*
G03*
X299338Y134698I-1021J-1021D01*
G01*
X296334Y133738D02*
G03*
X298377Y133738I1021J1021D01*
G01*
X296334Y135781D02*
G03*
X296334Y133738I1021J-1021D01*
G01*
Y135781D02*
G03*
X296334Y136368I-294J294D01*
G01*
X332349Y132245D02*
G03*
X333794Y130800I1444J0D01*
G01*
X332349Y136011D02*
G03*
X330905Y137456I-1444J0D01*
G01*
D02*
G03*
X329460Y136011I0J-1444D01*
G01*
X328016Y128547D02*
G03*
X329460Y129992I0J1444D01*
G01*
X326571D02*
G03*
X328016Y128547I1444J0D01*
G01*
X326571Y136011D02*
G03*
X325127Y137456I-1444J0D01*
G01*
D02*
G03*
X323682Y136011I0J-1444D01*
G01*
X322238Y130800D02*
G03*
X323682Y132245I0J1444D01*
G01*
X320793D02*
G03*
X322238Y130800I1444J0D01*
G01*
X320793Y136011D02*
G03*
X319349Y137456I-1444J0D01*
G01*
D02*
G03*
X317904Y136011I0J-1444D01*
G01*
X316460Y130800D02*
G03*
X317904Y132245I0J1444D01*
G01*
X315015D02*
G03*
X316460Y130800I1444J0D01*
G01*
X315015Y136011D02*
G03*
X313571Y137456I-1444J0D01*
G01*
D02*
G03*
X312126Y136011I0J-1444D01*
G01*
X310682Y130800D02*
G03*
X312126Y132245I0J1444D01*
G01*
X322011Y147556D02*
G03*
X323456Y146112I1444J0D01*
G01*
X322011Y147742D02*
G03*
X320567Y149186I-1444J0D01*
G01*
D02*
G03*
X319123Y147742I0J-1444D01*
G01*
X317678Y139195D02*
G03*
X319123Y140639I0J1444D01*
G01*
X316234D02*
G03*
X317678Y139195I1444J0D01*
G01*
X316234Y147742D02*
G03*
X314789Y149186I-1444J0D01*
G01*
D02*
G03*
X313344Y147742I0J-1444D01*
G01*
X311900Y146112D02*
G03*
X313344Y147556I0J1444D01*
G01*
X392943Y54800D02*
G03*
X392943Y52757I1021J-1021D01*
G01*
X397028Y58885D02*
G03*
X397028Y60928I-1021J1021D01*
G01*
D02*
G03*
X394985Y60928I-1021J-1021D01*
G01*
X383075Y51061D02*
G03*
X385118Y51061I1021J1021D01*
G01*
X383075Y53104D02*
G03*
X383075Y51061I1021J-1021D01*
G01*
X392907Y62936D02*
G03*
X392907Y64979I-1021J1021D01*
G01*
D02*
G03*
X390864Y64979I-1021J-1021D01*
G01*
X384771Y60929D02*
G03*
X386814Y60929I1021J1021D01*
G01*
X384771Y62972D02*
G03*
X384771Y60929I1021J-1021D01*
G01*
X388821Y67022D02*
G03*
X388821Y69065I-1021J1021D01*
G01*
D02*
G03*
X386779Y69065I-1021J-1021D01*
G01*
X380686Y65014D02*
G03*
X382729Y65014I1021J1021D01*
G01*
X380686Y67057D02*
G03*
X380686Y65014I1021J-1021D01*
G01*
X385103Y71475D02*
G03*
X385103Y73518I-1021J1021D01*
G01*
D02*
G03*
X383061Y73518I-1021J-1021D01*
G01*
X376600Y69100D02*
G03*
X378643Y69100I1021J1021D01*
G01*
X376100Y101251D02*
G03*
X377545Y99806I1444J0D01*
G01*
X387358Y98362D02*
G03*
X385914Y99806I-1444J0D01*
G01*
Y96917D02*
G03*
X387358Y98362I0J1444D01*
G01*
X377545Y96917D02*
G03*
X376100Y95473I0J-1444D01*
G01*
D02*
G03*
X377545Y94029I1444J0D01*
G01*
X387358Y92584D02*
G03*
X385914Y94029I-1444J0D01*
G01*
Y91139D02*
G03*
X387358Y92584I0J1444D01*
G01*
X377545Y91139D02*
G03*
X376100Y89695I0J-1444D01*
G01*
D02*
G03*
X377545Y88251I1444J0D01*
G01*
X387358Y86806D02*
G03*
X385914Y88251I-1444J0D01*
G01*
Y85361D02*
G03*
X387358Y86806I0J1444D01*
G01*
X377545Y85361D02*
G03*
X376100Y83917I0J-1444D01*
G01*
D02*
G03*
X377545Y82472I1444J0D01*
G01*
X387358Y81028D02*
G03*
X385914Y82472I-1444J0D01*
G01*
Y79584D02*
G03*
X387358Y81028I0J1444D01*
G01*
X377545Y79584D02*
G03*
X376100Y78139I0J-1444D01*
G01*
X331219Y149695D02*
G03*
X330231Y149695I-494J-494D01*
G01*
X328189D02*
G03*
X330231Y149695I1021J1021D01*
G01*
X328189Y151737D02*
G03*
X328189Y149695I1021J-1021D01*
G01*
Y151737D02*
G03*
X328189Y152726I-494J494D01*
G01*
X138001Y351945D02*
G03*
X139446Y350500I1444J0D01*
G01*
X138001Y359111D02*
G03*
X136557Y360555I-1444J0D01*
G01*
D02*
G03*
X135112Y359111I0J-1444D01*
G01*
X133668Y344194D02*
G03*
X135112Y345639I0J1444D01*
G01*
X132224D02*
G03*
X133668Y344194I1444J0D01*
G01*
X132224Y359111D02*
G03*
X130779Y360555I-1444J0D01*
G01*
D02*
G03*
X129334Y359111I0J-1444D01*
G01*
X127890Y344194D02*
G03*
X129334Y345639I0J1444D01*
G01*
X126446D02*
G03*
X127890Y344194I1444J0D01*
G01*
X126446Y359111D02*
G03*
X125001Y360555I-1444J0D01*
G01*
D02*
G03*
X123556Y359111I0J-1444D01*
G01*
X122112Y344194D02*
G03*
X123556Y345639I0J1444D01*
G01*
X120667D02*
G03*
X122112Y344194I1444J0D01*
G01*
X120667Y359111D02*
G03*
X119223Y360555I-1444J0D01*
G01*
D02*
G03*
X117779Y359111I0J-1444D01*
G01*
X116334Y344194D02*
G03*
X117779Y345639I0J1444D01*
G01*
X114889D02*
G03*
X116334Y344194I1444J0D01*
G01*
X114889Y359111D02*
G03*
X113445Y360555I-1444J0D01*
G01*
D02*
G03*
X112001Y359111I0J-1444D01*
G01*
X110556Y344194D02*
G03*
X112001Y345639I0J1444D01*
G01*
X109111D02*
G03*
X110556Y344194I1444J0D01*
G01*
X109111Y359111D02*
G03*
X107667Y360555I-1444J0D01*
G01*
D02*
G03*
X106222Y359111I0J-1444D01*
G01*
X104778Y344194D02*
G03*
X106222Y345639I0J1444D01*
G01*
X103334D02*
G03*
X104778Y344194I1444J0D01*
G01*
X103334Y349055D02*
G03*
X101889Y350500I-1444J0D01*
G01*
X238145Y348500D02*
G03*
X236700Y347056I0J-1444D01*
G01*
X235256Y337695D02*
G03*
X236700Y339139I0J1444D01*
G01*
X233811D02*
G03*
X235256Y337695I1444J0D01*
G01*
X233811Y347056D02*
G03*
X232367Y348500I-1444J0D01*
G01*
D02*
G03*
X230922Y347056I0J-1444D01*
G01*
X229478Y337695D02*
G03*
X230922Y339139I0J1444D01*
G01*
X228033D02*
G03*
X229478Y337695I1444J0D01*
G01*
X228033Y347056D02*
G03*
X226589Y348500I-1444J0D01*
G01*
D02*
G03*
X225144Y347056I0J-1444D01*
G01*
X223700Y337695D02*
G03*
X225144Y339139I0J1444D01*
G01*
X222255D02*
G03*
X223700Y337695I1444J0D01*
G01*
X222255Y347056D02*
G03*
X220811Y348500I-1444J0D01*
G01*
D02*
G03*
X219366Y347056I0J-1444D01*
G01*
X217922Y337695D02*
G03*
X219366Y339139I0J1444D01*
G01*
X216477D02*
G03*
X217922Y337695I1444J0D01*
G01*
X216477Y347056D02*
G03*
X215033Y348500I-1444J0D01*
G01*
D02*
G03*
X213588Y347056I0J-1444D01*
G01*
X212144Y337695D02*
G03*
X213588Y339139I0J1444D01*
G01*
X210699D02*
G03*
X212144Y337695I1444J0D01*
G01*
X210699Y347056D02*
G03*
X209255Y348500I-1444J0D01*
G01*
D02*
G03*
X207810Y347056I0J-1444D01*
G01*
X206366Y337695D02*
G03*
X207810Y339139I0J1444D01*
G01*
X204921D02*
G03*
X206366Y337695I1444J0D01*
G01*
X204921Y347056D02*
G03*
X203477Y348500I-1444J0D01*
G01*
D02*
G03*
X202032Y347056I0J-1444D01*
G01*
X200588Y337695D02*
G03*
X202032Y339139I0J1444D01*
G01*
X199143D02*
G03*
X200588Y337695I1444J0D01*
G01*
X199143Y347056D02*
G03*
X197699Y348500I-1444J0D01*
G01*
D02*
G03*
X196254Y347056I0J-1444D01*
G01*
X194810Y337695D02*
G03*
X196254Y339139I0J1444D01*
G01*
X193365D02*
G03*
X194810Y337695I1444J0D01*
G01*
X193365Y347056D02*
G03*
X191921Y348500I-1444J0D01*
G01*
D02*
G03*
X190476Y347056I0J-1444D01*
G01*
X189032Y337695D02*
G03*
X190476Y339139I0J1444D01*
G01*
X187587D02*
G03*
X189032Y337695I1444J0D01*
G01*
X187587Y347056D02*
G03*
X186143Y348500I-1444J0D01*
G01*
D02*
G03*
X184698Y347056I0J-1444D01*
G01*
X183254Y337695D02*
G03*
X184698Y339139I0J1444D01*
G01*
X181809D02*
G03*
X183254Y337695I1444J0D01*
G01*
X181809Y347056D02*
G03*
X180365Y348500I-1444J0D01*
G01*
X231841Y275250D02*
G03*
X230397Y273806I0J-1444D01*
G01*
X228952Y271774D02*
G03*
X230397Y273218I0J1444D01*
G01*
X227508D02*
G03*
X228952Y271774I1444J0D01*
G01*
X227508Y281028D02*
G03*
X226063Y282472I-1444J0D01*
G01*
D02*
G03*
X224619Y281028I0J-1444D01*
G01*
X223174Y271774D02*
G03*
X224619Y273218I0J1444D01*
G01*
X221730D02*
G03*
X223174Y271774I1444J0D01*
G01*
X221730Y275250D02*
G03*
X220813Y276167I-917J0D01*
G01*
X219758D02*
G03*
X218841Y275250I0J-917D01*
G01*
X210427Y281028D02*
G03*
X211691Y279764I1264J0D01*
G01*
X210427Y281028D02*
G03*
X208982Y282472I-1444J0D01*
G01*
D02*
G03*
X207538Y281028I0J-1444D01*
G01*
X206093Y277026D02*
G03*
X207538Y278470I0J1444D01*
G01*
X204649D02*
G03*
X206093Y277026I1444J0D01*
G01*
X204649Y281028D02*
G03*
X203204Y282472I-1444J0D01*
G01*
D02*
G03*
X201760Y281028I0J-1444D01*
G01*
X200315Y277026D02*
G03*
X201760Y278470I0J1444D01*
G01*
X198871D02*
G03*
X200315Y277026I1444J0D01*
G01*
X198871Y281028D02*
G03*
X197426Y282472I-1444J0D01*
G01*
D02*
G03*
X195982Y281028I0J-1444D01*
G01*
X194537Y277028D02*
G03*
X195982Y278472I0J1444D01*
G01*
X193093D02*
G03*
X194537Y277028I1444J0D01*
G01*
X193093Y278472D02*
G03*
X191801Y279764I-1292J0D01*
G01*
X275087Y123034D02*
G03*
X273153Y123034I-967J-967D01*
G01*
X275087D02*
G03*
X277130Y123034I1021J1021D01*
G01*
D02*
G03*
X277130Y125077I-1021J1021D01*
G01*
X277130Y127012D02*
G03*
X277130Y125077I967J-967D01*
G01*
X279008Y145388D02*
G03*
X277563Y143944I0J-1444D01*
G01*
X281528Y145388D02*
G03*
X282972Y146833I0J1444D01*
G01*
D02*
G03*
X281528Y148278I-1444J0D01*
G01*
X277563Y149722D02*
G03*
X279008Y148278I1444J0D01*
G01*
Y151166D02*
G03*
X277563Y149722I0J-1444D01*
G01*
X281528Y151166D02*
G03*
X282972Y152611I0J1444D01*
G01*
D02*
G03*
X281528Y154056I-1444J0D01*
G01*
X277563Y155500D02*
G03*
X279008Y154056I1444J0D01*
G01*
X248702Y58402D02*
G03*
X247257Y59847I-1444J0D01*
G01*
X244194Y61291D02*
G03*
X245639Y59847I1444J0D01*
G01*
Y62736D02*
G03*
X244194Y61291I0J-1444D01*
G01*
X252272Y62736D02*
G03*
X253717Y64180I0J1444D01*
G01*
D02*
G03*
X252272Y65625I-1444J0D01*
G01*
X244194Y67069D02*
G03*
X245639Y65625I1444J0D01*
G01*
Y68514D02*
G03*
X244194Y67069I0J-1444D01*
G01*
X252805Y68514D02*
G03*
X254250Y69958I0J1444D01*
G01*
D02*
G03*
X252805Y71403I-1444J0D01*
G01*
X248702Y72847D02*
G03*
X250146Y71403I1444J0D01*
G01*
Y74292D02*
G03*
X248702Y72847I0J-1444D01*
G01*
X251650Y74292D02*
G03*
X253095Y75736I0J1444D01*
G01*
D02*
G03*
X251650Y77181I-1444J0D01*
G01*
X244194Y78625D02*
G03*
X245639Y77181I1444J0D01*
G01*
Y80070D02*
G03*
X244194Y78625I0J-1444D01*
G01*
X247257Y80070D02*
G03*
X248702Y81514I0J1444D01*
G01*
D02*
G03*
X247257Y82959I-1444J0D01*
G01*
X244194Y84403D02*
G03*
X245639Y82959I1444J0D01*
G01*
Y85848D02*
G03*
X244194Y84403I0J-1444D01*
G01*
X248778Y85848D02*
G03*
X250222Y87292I0J1444D01*
G01*
D02*
G03*
X248778Y88737I-1444J0D01*
G01*
X244194Y90181D02*
G03*
X245639Y88737I1444J0D01*
G01*
Y91625D02*
G03*
X244194Y90181I0J-1444D01*
G01*
X248778Y91625D02*
G03*
X250222Y93070I0J1444D01*
G01*
D02*
G03*
X248778Y94515I-1444J0D01*
G01*
X244194Y95959D02*
G03*
X245639Y94515I1444J0D01*
G01*
Y97403D02*
G03*
X244194Y95959I0J-1444D01*
G01*
X248778Y97403D02*
G03*
X250222Y98848I0J1444D01*
G01*
D02*
G03*
X248778Y100293I-1444J0D01*
G01*
X244194Y101737D02*
G03*
X245639Y100293I1444J0D01*
G01*
Y103181D02*
G03*
X244194Y101737I0J-1444D01*
G01*
X248778Y103181D02*
G03*
X250222Y104626I0J1444D01*
G01*
D02*
G03*
X248778Y106070I-1444J0D01*
G01*
X244194Y107515D02*
G03*
X245639Y106070I1444J0D01*
G01*
Y108960D02*
G03*
X244194Y107515I0J-1444D01*
G01*
X248778Y108960D02*
G03*
X250222Y110404I0J1444D01*
G01*
D02*
G03*
X248778Y111848I-1444J0D01*
G01*
X244194Y113293D02*
G03*
X245639Y111848I1444J0D01*
G01*
Y114738D02*
G03*
X244194Y113293I0J-1444D01*
G01*
X248778Y114738D02*
G03*
X250222Y116182I0J1444D01*
G01*
D02*
G03*
X248778Y117626I-1444J0D01*
G01*
X244194Y119071D02*
G03*
X245639Y117626I1444J0D01*
G01*
Y120515D02*
G03*
X244194Y119071I0J-1444D01*
G01*
X248778Y120515D02*
G03*
X250222Y121960I0J1444D01*
G01*
D02*
G03*
X248778Y123405I-1444J0D01*
G01*
X244194Y124849D02*
G03*
X245639Y123405I1444J0D01*
G01*
Y126293D02*
G03*
X244194Y124849I0J-1444D01*
G01*
X248778Y126293D02*
G03*
X250222Y127738I0J1444D01*
G01*
D02*
G03*
X248778Y129183I-1444J0D01*
G01*
X244194Y130627D02*
G03*
X245639Y129183I1444J0D01*
G01*
Y132072D02*
G03*
X244194Y130627I0J-1444D01*
G01*
X248778Y132072D02*
G03*
X250222Y133516I0J1444D01*
G01*
D02*
G03*
X248778Y134960I-1444J0D01*
G01*
X244194Y136405D02*
G03*
X245639Y134960I1444J0D01*
G01*
Y137850D02*
G03*
X244194Y136405I0J-1444D01*
G01*
X248778Y137850D02*
G03*
X250222Y139294I0J1444D01*
G01*
D02*
G03*
X248778Y140738I-1444J0D01*
G01*
X244194Y142183D02*
G03*
X245639Y140738I1444J0D01*
G01*
Y143628D02*
G03*
X244194Y142183I0J-1444D01*
G01*
X248778Y143628D02*
G03*
X250222Y145072I0J1444D01*
G01*
D02*
G03*
X248778Y146517I-1444J0D01*
G01*
X244194Y147961D02*
G03*
X245639Y146517I1444J0D01*
G01*
Y149405D02*
G03*
X244194Y147961I0J-1444D01*
G01*
X248778Y149405D02*
G03*
X250222Y150850I0J1444D01*
G01*
D02*
G03*
X248778Y152295I-1444J0D01*
G01*
X244194Y153739D02*
G03*
X245639Y152295I1444J0D01*
G01*
Y155183D02*
G03*
X244194Y153739I0J-1444D01*
G01*
X247257Y155183D02*
G03*
X248702Y156628I0J1444D01*
G01*
X557889Y201112D02*
G03*
X559333Y202556I0J1444D01*
G01*
X556989Y201112D02*
G03*
X555545Y199667I0J-1444D01*
G01*
D02*
G03*
X556989Y198223I1444J0D01*
G01*
X559333Y196778D02*
G03*
X557889Y198223I-1444J0D01*
G01*
Y195333D02*
G03*
X559333Y196778I0J1444D01*
G01*
X556989Y195333D02*
G03*
X555545Y193889I0J-1444D01*
G01*
D02*
G03*
X556989Y192444I1444J0D01*
G01*
X559333Y191000D02*
G03*
X557889Y192444I-1444J0D01*
G01*
X408409Y87534D02*
G03*
X408409Y85491I1021J-1021D01*
G01*
X411499Y90625D02*
G03*
X411499Y92668I-1021J1021D01*
G01*
D02*
G03*
X409456Y92668I-1021J-1021D01*
G01*
X404323Y89577D02*
G03*
X406366Y89577I1021J1021D01*
G01*
X404323Y91620D02*
G03*
X404323Y89577I1021J-1021D01*
G01*
X411499Y98796D02*
G03*
X411499Y100839I-1021J1021D01*
G01*
D02*
G03*
X409456Y100839I-1021J-1021D01*
G01*
X400237Y93663D02*
G03*
X402280Y93663I1021J1021D01*
G01*
X400237Y95705D02*
G03*
X400237Y93663I1021J-1021D01*
G01*
X410630Y106098D02*
G03*
X410630Y108141I-1021J1021D01*
G01*
D02*
G03*
X408587Y108141I-1021J-1021D01*
G01*
X396152Y97748D02*
G03*
X398195Y97748I1021J1021D01*
G01*
X396152Y99791D02*
G03*
X396152Y97748I1021J-1021D01*
G01*
X406544Y110184D02*
G03*
X406544Y112227I-1021J1021D01*
G01*
D02*
G03*
X404502Y112227I-1021J-1021D01*
G01*
X391254Y100813D02*
G03*
X393087Y100813I917J917D01*
G01*
X391045Y102855D02*
G03*
X391045Y101022I917J-917D01*
G01*
X402459Y114270D02*
G03*
X402459Y116312I-1021J1021D01*
G01*
D02*
G03*
X400416Y116312I-1021J-1021D01*
G01*
X387980Y105920D02*
G03*
X390023Y105920I1021J1021D01*
G01*
X387980Y107963D02*
G03*
X387980Y105920I1021J-1021D01*
G01*
X398373Y118355D02*
G03*
X398373Y120398I-1021J1021D01*
G01*
D02*
G03*
X396330Y120398I-1021J-1021D01*
G01*
X383895Y110005D02*
G03*
X385938Y110005I1021J1021D01*
G01*
X383895Y112048D02*
G03*
X383895Y110005I1021J-1021D01*
G01*
X394287Y122441D02*
G03*
X394287Y124484I-1021J1021D01*
G01*
D02*
G03*
X392245Y124484I-1021J-1021D01*
G01*
X379809Y114091D02*
G03*
X381852Y114091I1021J1021D01*
G01*
X379809Y116134D02*
G03*
X379809Y114091I1021J-1021D01*
G01*
X385424Y121748D02*
G03*
X385424Y123791I-1021J1021D01*
G01*
D02*
G03*
X383381Y123791I-1021J-1021D01*
G01*
X375723Y118177D02*
G03*
X377766Y118177I1021J1021D01*
G01*
X375723Y120219D02*
G03*
X375723Y118177I1021J-1021D01*
G01*
X377465Y121961D02*
G03*
X377465Y124004I-1021J1021D01*
G01*
D02*
G03*
X375423Y124004I-1021J-1021D01*
G01*
X371638Y122262D02*
G03*
X373681Y122262I1021J1021D01*
G01*
X371638Y124305D02*
G03*
X371638Y122262I1021J-1021D01*
G01*
X373276Y125943D02*
G03*
X373276Y127986I-1021J1021D01*
G01*
D02*
G03*
X371233Y127986I-1021J-1021D01*
G01*
X367552Y126348D02*
G03*
X369595Y126348I1021J1021D01*
G01*
X367552Y128391D02*
G03*
X367552Y126348I1021J-1021D01*
G01*
X369556Y130395D02*
G03*
X369556Y132438I-1021J1021D01*
G01*
D02*
G03*
X367513Y132438I-1021J-1021D01*
G01*
X363466Y130434D02*
G03*
X365509Y130434I1021J1021D01*
G01*
X423873Y53861D02*
G03*
X425317Y52417I1444J0D01*
G01*
X423873Y55811D02*
G03*
X422429Y57255I-1444J0D01*
G01*
D02*
G03*
X420984Y55811I0J-1444D01*
G01*
X419539Y52417D02*
G03*
X420984Y53861I0J1444D01*
G01*
X418095D02*
G03*
X419539Y52417I1444J0D01*
G01*
X418095Y55811D02*
G03*
X416651Y57255I-1444J0D01*
G01*
D02*
G03*
X415206Y55811I0J-1444D01*
G01*
X413761Y52417D02*
G03*
X415206Y53861I0J1444D01*
G01*
X412317D02*
G03*
X413761Y52417I1444J0D01*
G01*
X412317Y55811D02*
G03*
X410872Y57255I-1444J0D01*
G01*
D02*
G03*
X409428Y55811I0J-1444D01*
G01*
X407984Y52417D02*
G03*
X409428Y53861I0J1444D01*
G01*
X397769Y62631D02*
G03*
X399812Y62631I1021J1021D01*
G01*
X414399Y75175D02*
G03*
X412356Y75175I-1021J-1021D01*
G01*
X414399Y73132D02*
G03*
X414399Y75175I-1021J1021D01*
G01*
X400293Y59026D02*
G03*
X400293Y56983I1021J-1021D01*
G01*
D02*
G03*
X402336Y56983I1021J1021D01*
G01*
X416698Y69303D02*
G03*
X414655Y69303I-1021J-1021D01*
G01*
X416698Y67260D02*
G03*
X416698Y69303I-1021J1021D01*
G01*
X405941Y56502D02*
G03*
X405941Y54459I1021J-1021D01*
G01*
X390244Y78432D02*
G03*
X388800Y76988I0J-1444D01*
G01*
X409466Y78432D02*
G03*
X410911Y79877I0J1444D01*
G01*
D02*
G03*
X409466Y81321I-1444J0D01*
G01*
X388800Y82766D02*
G03*
X390244Y81321I1444J0D01*
G01*
Y84211D02*
G03*
X388800Y82766I0J-1444D01*
G01*
X403688Y84211D02*
G03*
X405133Y85655I0J1444D01*
G01*
D02*
G03*
X403688Y87100I-1444J0D01*
G01*
X388800Y88544D02*
G03*
X390244Y87100I1444J0D01*
G01*
Y89988D02*
G03*
X388800Y88544I0J-1444D01*
G01*
X397910Y89988D02*
G03*
X399355Y91433I0J1444D01*
G01*
D02*
G03*
X397910Y92878I-1444J0D01*
G01*
X388800Y94322D02*
G03*
X390244Y92878I1444J0D01*
G01*
Y95766D02*
G03*
X388800Y94322I0J-1444D01*
G01*
X392132Y95766D02*
G03*
X393577Y97211I0J1444D01*
G01*
D02*
G03*
X392132Y98656I-1444J0D01*
G01*
X388800Y100100D02*
G03*
X390244Y98656I1444J0D01*
G01*
X385932Y103411D02*
G03*
X385932Y102968I222J-222D01*
G01*
Y103411D02*
G03*
X385932Y105454I-1021J1021D01*
G01*
D02*
G03*
X383889Y105454I-1021J-1021D01*
G01*
X378528Y102135D02*
G03*
X380570Y102135I1021J1021D01*
G01*
X378528Y104178D02*
G03*
X378528Y102135I1021J-1021D01*
G01*
X381847Y107497D02*
G03*
X381847Y109540I-1021J1021D01*
G01*
D02*
G03*
X379804Y109540I-1021J-1021D01*
G01*
X375823Y107601D02*
G03*
X377865Y107601I1021J1021D01*
G01*
X375823Y109644D02*
G03*
X375823Y107601I1021J-1021D01*
G01*
X377761Y111582D02*
G03*
X377761Y113625I-1021J1021D01*
G01*
D02*
G03*
X375718Y113625I-1021J-1021D01*
G01*
X375275D02*
G03*
X375718Y113625I222J222D01*
G01*
X373675Y115668D02*
G03*
X373675Y115225I222J-222D01*
G01*
Y115668D02*
G03*
X373675Y117711I-1021J1021D01*
G01*
D02*
G03*
X371632Y117711I-1021J-1021D01*
G01*
X371189D02*
G03*
X371632Y117711I222J222D01*
G01*
X369590Y119754D02*
G03*
X369590Y119310I222J-222D01*
G01*
X369590Y119754D02*
G03*
X369590Y121797I-1021J1021D01*
G01*
D02*
G03*
X367547Y121797I-1021J-1021D01*
G01*
X367103Y121797D02*
G03*
X367547Y121797I222J222D01*
G01*
X365504Y123840D02*
G03*
X365504Y123396I222J-222D01*
G01*
Y123840D02*
G03*
X365504Y125882I-1021J1021D01*
G01*
D02*
G03*
X363461Y125882I-1021J-1021D01*
G01*
X363018D02*
G03*
X363461Y125882I222J222D01*
G01*
X361418Y127925D02*
G03*
X361418Y127482I222J-222D01*
G01*
Y127925D02*
G03*
X361418Y129968I-1021J1021D01*
G01*
D02*
G03*
X359375Y129968I-1021J-1021D01*
G01*
X358932D02*
G03*
X359375Y129968I222J222D01*
G01*
X357333Y132011D02*
G03*
X357333Y131567I222J-222D01*
G01*
X357333Y132011D02*
G03*
X357333Y134054I-1021J1021D01*
G01*
D02*
G03*
X355290Y134054I-1021J-1021D01*
G01*
X354846Y134054D02*
G03*
X355290Y134054I222J222D01*
G01*
X353247Y136096D02*
G03*
X353247Y135653I222J-222D01*
G01*
Y136096D02*
G03*
X353247Y138139I-1021J1021D01*
G01*
D02*
G03*
X351204Y138139I-1021J-1021D01*
G01*
X350761D02*
G03*
X351204Y138139I222J222D01*
G01*
X349161Y140182D02*
G03*
X349161Y139739I222J-222D01*
G01*
Y140182D02*
G03*
X349161Y142225I-1021J1021D01*
G01*
D02*
G03*
X347118Y142225I-1021J-1021D01*
G01*
X346675D02*
G03*
X347118Y142225I222J222D01*
G01*
X345076Y144268D02*
G03*
X345076Y143824I222J-222D01*
G01*
X345076Y144268D02*
G03*
X345076Y146311I-1021J1021D01*
G01*
D02*
G03*
X343033Y146311I-1021J-1021D01*
G01*
X342589Y146311D02*
G03*
X343033Y146311I222J222D01*
G01*
X340990Y148353D02*
G03*
X340990Y147910I222J-222D01*
G01*
Y148353D02*
G03*
X340990Y150396I-1021J1021D01*
G01*
D02*
G03*
X338947Y150396I-1021J-1021D01*
G01*
X334968Y148460D02*
G03*
X337011Y148460I1021J1021D01*
G01*
X334968Y150503D02*
G03*
X334968Y148460I1021J-1021D01*
G01*
X335661Y151196D02*
G03*
X335661Y153239I-1021J1021D01*
G01*
X374685Y106229D02*
G03*
X372642Y106229I-1021J-1021D01*
G01*
X369801Y105431D02*
G03*
X371843Y105431I1021J1021D01*
G01*
X369801Y107474D02*
G03*
X369801Y105431I1021J-1021D01*
G01*
X373335Y111008D02*
G03*
X373335Y113051I-1021J1021D01*
G01*
D02*
G03*
X371292Y113051I-1021J-1021D01*
G01*
X367229Y111030D02*
G03*
X369272Y111030I1021J1021D01*
G01*
X367229Y113073D02*
G03*
X367229Y111030I1021J-1021D01*
G01*
X369249Y115094D02*
G03*
X369249Y117137I-1021J1021D01*
G01*
D02*
G03*
X367207Y117137I-1021J-1021D01*
G01*
X364471Y116444D02*
G03*
X366513Y116444I1021J1021D01*
G01*
X364471Y118486D02*
G03*
X364471Y116444I1021J-1021D01*
G01*
X365164Y119179D02*
G03*
X365164Y121222I-1021J1021D01*
G01*
D02*
G03*
X363121Y121222I-1021J-1021D01*
G01*
X360385Y120529D02*
G03*
X362428Y120529I1021J1021D01*
G01*
X360385Y122572D02*
G03*
X360385Y120529I1021J-1021D01*
G01*
X361078Y123265D02*
G03*
X361078Y125308I-1021J1021D01*
G01*
D02*
G03*
X359035Y125308I-1021J-1021D01*
G01*
X356299Y124615D02*
G03*
X358342Y124615I1021J1021D01*
G01*
X356299Y126658D02*
G03*
X356299Y124615I1021J-1021D01*
G01*
X356992Y127351D02*
G03*
X356992Y129394I-1021J1021D01*
G01*
D02*
G03*
X354950Y129394I-1021J-1021D01*
G01*
X352214Y128701D02*
G03*
X354257Y128701I1021J1021D01*
G01*
X352214Y130743D02*
G03*
X352214Y128701I1021J-1021D01*
G01*
X352907Y131437D02*
G03*
X352907Y133479I-1021J1021D01*
G01*
D02*
G03*
X350864Y133479I-1021J-1021D01*
G01*
X348128Y132786D02*
G03*
X350171Y132786I1021J1021D01*
G01*
X348128Y134829D02*
G03*
X348128Y132786I1021J-1021D01*
G01*
X348821Y135522D02*
G03*
X348821Y137565I-1021J1021D01*
G01*
D02*
G03*
X346778Y137565I-1021J-1021D01*
G01*
X344042Y136872D02*
G03*
X346085Y136872I1021J1021D01*
G01*
X344042Y138915D02*
G03*
X344042Y136872I1021J-1021D01*
G01*
X344736Y139608D02*
G03*
X344736Y141651I-1021J1021D01*
G01*
D02*
G03*
X342693Y141651I-1021J-1021D01*
G01*
X339957Y140957D02*
G03*
X342000Y140957I1021J1021D01*
G01*
X339957Y143000D02*
G03*
X339957Y140957I1021J-1021D01*
G01*
X340650Y143694D02*
G03*
X340650Y145736I-1021J1021D01*
G01*
D02*
G03*
X338607Y145736I-1021J-1021D01*
G01*
X335871Y145043D02*
G03*
X337914Y145043I1021J1021D01*
G01*
X367144Y72113D02*
G03*
X367600Y71657I456J0D01*
G01*
Y74546D02*
G03*
X367144Y74090I0J-456D01*
G01*
X372878Y74546D02*
G03*
X374322Y75990I0J1444D01*
G01*
D02*
G03*
X372878Y77435I-1444J0D01*
G01*
X367144Y77891D02*
G03*
X367600Y77435I456J0D01*
G01*
Y80324D02*
G03*
X367144Y79868I0J-456D01*
G01*
X372878Y80324D02*
G03*
X374322Y81768I0J1444D01*
G01*
D02*
G03*
X372878Y83213I-1444J0D01*
G01*
X367144Y83669D02*
G03*
X367600Y83213I456J0D01*
G01*
Y86102D02*
G03*
X367144Y85646I0J-456D01*
G01*
X372878Y86102D02*
G03*
X374322Y87546I0J1444D01*
G01*
D02*
G03*
X372878Y88991I-1444J0D01*
G01*
X367144Y89447D02*
G03*
X367600Y88991I456J0D01*
G01*
Y91880D02*
G03*
X367144Y91424I0J-456D01*
G01*
X372878Y91880D02*
G03*
X374322Y93324I0J1444D01*
G01*
D02*
G03*
X372878Y94769I-1444J0D01*
G01*
X367144Y95225D02*
G03*
X367600Y94769I456J0D01*
G01*
Y97658D02*
G03*
X367144Y97202I0J-456D01*
G01*
X372878Y97658D02*
G03*
X374322Y99102I0J1444D01*
G01*
D02*
G03*
X372878Y100547I-1444J0D01*
G01*
X367144Y101003D02*
G03*
X367600Y100547I456J0D01*
G01*
Y103436D02*
G03*
X367144Y102980I0J-456D01*
G01*
X368040Y63160D02*
G03*
X370083Y63160I1021J1021D01*
G01*
X376076Y67111D02*
G03*
X374033Y67111I-1021J-1021D01*
G01*
X376076Y65068D02*
G03*
X376076Y67111I-1021J1021D01*
G01*
X372125Y61118D02*
G03*
X372125Y59075I1021J-1021D01*
G01*
X372125Y59075D02*
G03*
X374168Y59075I1021J1021D01*
G01*
X380161Y63025D02*
G03*
X378118Y63025I-1021J-1021D01*
G01*
X380161Y60982D02*
G03*
X380161Y63025I-1021J1021D01*
G01*
X372018Y52839D02*
G03*
X372018Y50796I1021J-1021D01*
G01*
D02*
G03*
X374061Y50796I1021J1021D01*
G01*
X384247Y58939D02*
G03*
X382204Y58939I-1021J-1021D01*
G01*
X384247Y56896D02*
G03*
X384247Y58939I-1021J1021D01*
G01*
X380297Y52946D02*
G03*
X380297Y50903I1021J-1021D01*
G01*
X366835Y108535D02*
G03*
X365732Y108535I-551J-551D01*
G01*
X363549Y108395D02*
G03*
X365592Y108395I1021J1021D01*
G01*
X363549Y110438D02*
G03*
X363549Y108395I1021J-1021D01*
G01*
X364631Y111519D02*
G03*
X364631Y113562I-1021J1021D01*
G01*
D02*
G03*
X362588Y113562I-1021J-1021D01*
G01*
X361808D02*
G03*
X362588Y113562I390J390D01*
G01*
X360545Y115605D02*
G03*
X360545Y114824I390J-390D01*
G01*
X360545Y115605D02*
G03*
X360545Y117647I-1021J1021D01*
G01*
D02*
G03*
X358502Y117647I-1021J-1021D01*
G01*
X357722Y117647D02*
G03*
X358502Y117647I390J390D01*
G01*
X356459Y119690D02*
G03*
X356459Y118910I390J-390D01*
G01*
Y119690D02*
G03*
X356459Y121733I-1021J1021D01*
G01*
D02*
G03*
X354417Y121733I-1021J-1021D01*
G01*
X353636Y121733D02*
G03*
X354417Y121733I390J390D01*
G01*
X352374Y123776D02*
G03*
X352374Y122996I390J-390D01*
G01*
Y123776D02*
G03*
X352374Y125819I-1021J1021D01*
G01*
D02*
G03*
X350331Y125819I-1021J-1021D01*
G01*
X349551D02*
G03*
X350331Y125819I390J390D01*
G01*
X348288Y127862D02*
G03*
X348288Y127081I390J-390D01*
G01*
X348288Y127862D02*
G03*
X348288Y129904I-1021J1021D01*
G01*
D02*
G03*
X346245Y129904I-1021J-1021D01*
G01*
X345465Y129904D02*
G03*
X346245Y129904I390J390D01*
G01*
X344202Y131947D02*
G03*
X344202Y131167I390J-390D01*
G01*
Y131947D02*
G03*
X344202Y133990I-1021J1021D01*
G01*
D02*
G03*
X342160Y133990I-1021J-1021D01*
G01*
X341379Y133990D02*
G03*
X342160Y133990I390J390D01*
G01*
X340117Y136033D02*
G03*
X340117Y135253I390J-390D01*
G01*
Y136033D02*
G03*
X340117Y138076I-1021J1021D01*
G01*
D02*
G03*
X338074Y138076I-1021J-1021D01*
G01*
X337294D02*
G03*
X338074Y138076I390J390D01*
G01*
X336031Y140119D02*
G03*
X336031Y139338I390J-390D01*
G01*
X336031Y140119D02*
G03*
X336031Y142162I-1021J1021D01*
G01*
D02*
G03*
X333988Y142162I-1021J-1021D01*
G01*
X333208Y142162D02*
G03*
X333988Y142162I390J390D01*
G01*
X331945Y144204D02*
G03*
X331945Y143424I390J-390D01*
G01*
Y144204D02*
G03*
X331945Y146247I-1021J1021D01*
G01*
D02*
G03*
X329903Y146247I-1021J-1021D01*
G01*
X329122D02*
G03*
X329903Y146247I390J390D01*
G01*
X369337Y53006D02*
G03*
X369337Y50963I1021J-1021D01*
G01*
X371487Y55156D02*
G03*
X371487Y57199I-1021J1021D01*
G01*
D02*
G03*
X369444Y57199I-1021J-1021D01*
G01*
X362140Y51938D02*
G03*
X364183Y51938I1021J1021D01*
G01*
X362140Y53980D02*
G03*
X362140Y51938I1021J-1021D01*
G01*
X367401Y59242D02*
G03*
X367401Y61285I-1021J1021D01*
G01*
D02*
G03*
X365359Y61285I-1021J-1021D01*
G01*
X361165Y59135D02*
G03*
X363208Y59135I1021J1021D01*
G01*
X360567Y68641D02*
G03*
X359123Y67197I0J-1444D01*
G01*
X364378Y68641D02*
G03*
X365822Y70086I0J1444D01*
G01*
D02*
G03*
X364378Y71530I-1444J0D01*
G01*
X359123Y72975D02*
G03*
X360567Y71530I1444J0D01*
G01*
Y74419D02*
G03*
X359123Y72975I0J-1444D01*
G01*
X364378Y74419D02*
G03*
X365822Y75864I0J1444D01*
G01*
D02*
G03*
X364378Y77308I-1444J0D01*
G01*
X359123Y78753D02*
G03*
X360567Y77308I1444J0D01*
G01*
Y80197D02*
G03*
X359123Y78753I0J-1444D01*
G01*
X364378Y80197D02*
G03*
X365822Y81642I0J1444D01*
G01*
D02*
G03*
X364378Y83086I-1444J0D01*
G01*
X359123Y84531D02*
G03*
X360567Y83086I1444J0D01*
G01*
Y85975D02*
G03*
X359123Y84531I0J-1444D01*
G01*
X364378Y85975D02*
G03*
X365822Y87420I0J1444D01*
G01*
D02*
G03*
X364378Y88864I-1444J0D01*
G01*
X359123Y90309D02*
G03*
X360567Y88864I1444J0D01*
G01*
Y91753D02*
G03*
X359123Y90309I0J-1444D01*
G01*
X364378Y91753D02*
G03*
X365822Y93198I0J1444D01*
G01*
D02*
G03*
X364378Y94642I-1444J0D01*
G01*
X359123Y96087D02*
G03*
X360567Y94642I1444J0D01*
G01*
Y97531D02*
G03*
X359123Y96087I0J-1444D01*
G01*
X364378Y97531D02*
G03*
X365822Y98976I0J1444D01*
G01*
D02*
G03*
X364378Y100420I-1444J0D01*
G01*
X359123Y101865D02*
G03*
X360567Y100420I1444J0D01*
G01*
Y103309D02*
G03*
X359123Y101865I0J-1444D01*
G01*
X364378Y103309D02*
G03*
X365822Y104754I0J1444D01*
G01*
D02*
G03*
X364378Y106198I-1444J0D01*
G01*
X359123Y107643D02*
G03*
X360567Y106198I1444J0D01*
G01*
X310054Y147289D02*
G03*
X308012Y147289I-1021J-1021D01*
G01*
X299893Y141214D02*
G03*
X301936Y141214I1021J1021D01*
G01*
X299893Y143256D02*
G03*
X299893Y141214I1021J-1021D01*
G01*
X305969Y149332D02*
G03*
X305969Y151375I-1021J1021D01*
G01*
D02*
G03*
X303926Y151375I-1021J-1021D01*
G01*
X297542Y147034D02*
G03*
X299585Y147034I1021J1021D01*
G01*
X297542Y149076D02*
G03*
X297542Y147034I1021J-1021D01*
G01*
X301883Y153418D02*
G03*
X301883Y155461I-1021J1021D01*
G01*
X354584Y109496D02*
G03*
X355711Y108368I1127J0D01*
G01*
X357155Y106924D02*
G03*
X355711Y108368I-1444J0D01*
G01*
Y105479D02*
G03*
X357155Y106924I0J1444D01*
G01*
X355711Y105479D02*
G03*
X354584Y104352I0J-1127D01*
G01*
Y103718D02*
G03*
X355711Y102590I1127J0D01*
G01*
X357155Y101146D02*
G03*
X355711Y102590I-1444J0D01*
G01*
Y99701D02*
G03*
X357155Y101146I0J1444D01*
G01*
X353869Y99701D02*
G03*
X352425Y98257I0J-1444D01*
G01*
D02*
G03*
X353869Y96812I1444J0D01*
G01*
X357155Y95368D02*
G03*
X355711Y96812I-1444J0D01*
G01*
Y93924D02*
G03*
X357155Y95368I0J1444D01*
G01*
X355711Y93924D02*
G03*
X354584Y92796I0J-1127D01*
G01*
Y92162D02*
G03*
X355711Y91034I1127J0D01*
G01*
X357155Y89590D02*
G03*
X355711Y91034I-1444J0D01*
G01*
Y88146D02*
G03*
X357155Y89590I0J1444D01*
G01*
X355711Y88146D02*
G03*
X354584Y87018I0J-1127D01*
G01*
Y86384D02*
G03*
X355711Y85257I1127J0D01*
G01*
X357155Y83812D02*
G03*
X355711Y85257I-1444J0D01*
G01*
Y82367D02*
G03*
X357155Y83812I0J1444D01*
G01*
X351401Y82367D02*
G03*
X349957Y80923I0J-1444D01*
G01*
D02*
G03*
X351401Y79479I1444J0D01*
G01*
X357155Y78034D02*
G03*
X355711Y79479I-1444J0D01*
G01*
Y76589D02*
G03*
X357155Y78034I0J1444D01*
G01*
X351401Y76589D02*
G03*
X349957Y75145I0J-1444D01*
G01*
D02*
G03*
X351401Y73700I1444J0D01*
G01*
X357155Y72256D02*
G03*
X355711Y73700I-1444J0D01*
G01*
Y70812D02*
G03*
X357155Y72256I0J1444D01*
G01*
X351401Y70812D02*
G03*
X349957Y69367I0J-1444D01*
G01*
D02*
G03*
X351401Y67923I1444J0D01*
G01*
X357155Y66478D02*
G03*
X355711Y67923I-1444J0D01*
G01*
Y65033D02*
G03*
X357155Y66478I0J1444D01*
G01*
X351138Y65033D02*
G03*
X349693Y63589I0J-1444D01*
G01*
D02*
G03*
X351138Y62144I1444J0D01*
G01*
X354584Y60700D02*
G03*
X353139Y62144I-1444J0D01*
G01*
X356300Y45300D02*
G03*
X354257Y45300I-1021J-1021D01*
G01*
X350863Y43949D02*
G03*
X352906Y43949I1021J1021D01*
G01*
X350863Y45992D02*
G03*
X350863Y43949I1021J-1021D01*
G01*
X355835Y50964D02*
G03*
X355835Y53007I-1021J1021D01*
G01*
D02*
G03*
X353792Y53007I-1021J-1021D01*
G01*
X348222Y49479D02*
G03*
X350265Y49479I1021J1021D01*
G01*
X348222Y51522D02*
G03*
X348222Y49479I1021J-1021D01*
G01*
X351749Y55050D02*
G03*
X351749Y57092I-1021J1021D01*
G01*
D02*
G03*
X349706Y57092I-1021J-1021D01*
G01*
X343746Y53175D02*
G03*
X345789Y53175I1021J1021D01*
G01*
X343746Y55218D02*
G03*
X343746Y53175I1021J-1021D01*
G01*
X344043Y55514D02*
G03*
X344043Y57557I-1021J1021D01*
G01*
X343245Y65201D02*
G03*
X341800Y63756I0J-1444D01*
G01*
X347611Y65201D02*
G03*
X349055Y66645I0J1444D01*
G01*
D02*
G03*
X347611Y68089I-1444J0D01*
G01*
X341800Y69534D02*
G03*
X343245Y68089I1444J0D01*
G01*
Y70978D02*
G03*
X341800Y69534I0J-1444D01*
G01*
X347611Y70978D02*
G03*
X349055Y72423I0J1444D01*
G01*
D02*
G03*
X347611Y73867I-1444J0D01*
G01*
X341800Y75312D02*
G03*
X343245Y73867I1444J0D01*
G01*
Y76756D02*
G03*
X341800Y75312I0J-1444D01*
G01*
X347611Y76756D02*
G03*
X349055Y78201I0J1444D01*
G01*
D02*
G03*
X347611Y79645I-1444J0D01*
G01*
X341800Y81090D02*
G03*
X343245Y79645I1444J0D01*
G01*
Y82534D02*
G03*
X341800Y81090I0J-1444D01*
G01*
X347611Y82534D02*
G03*
X349055Y83979I0J1444D01*
G01*
D02*
G03*
X347611Y85423I-1444J0D01*
G01*
X341800Y86868D02*
G03*
X343245Y85423I1444J0D01*
G01*
X509027Y161363D02*
G03*
X510472Y162808I0J1444D01*
G01*
X505639Y161363D02*
G03*
X504195Y159919I0J-1444D01*
G01*
D02*
G03*
X505639Y158474I1444J0D01*
G01*
X510472Y157030D02*
G03*
X509027Y158474I-1444J0D01*
G01*
Y155585D02*
G03*
X510472Y157030I0J1444D01*
G01*
X505639Y155585D02*
G03*
X504195Y154141I0J-1444D01*
G01*
D02*
G03*
X505639Y152696I1444J0D01*
G01*
X510472Y151252D02*
G03*
X509027Y152696I-1444J0D01*
G01*
Y149807D02*
G03*
X510472Y151252I0J1444D01*
G01*
X505639Y149807D02*
G03*
X504195Y148363I0J-1444D01*
G01*
D02*
G03*
X505639Y146918I1444J0D01*
G01*
X510472Y145474D02*
G03*
X509027Y146918I-1444J0D01*
G01*
Y144029D02*
G03*
X510472Y145474I0J1444D01*
G01*
X505639Y144029D02*
G03*
X504195Y142585I0J-1444D01*
G01*
D02*
G03*
X505639Y141140I1444J0D01*
G01*
X510472Y139696D02*
G03*
X509027Y141140I-1444J0D01*
G01*
Y138251D02*
G03*
X510472Y139696I0J1444D01*
G01*
X505639Y138251D02*
G03*
X504195Y136807I0J-1444D01*
G01*
D02*
G03*
X505639Y135362I1444J0D01*
G01*
X510472Y133918D02*
G03*
X509027Y135362I-1444J0D01*
G01*
Y132473D02*
G03*
X510472Y133918I0J1444D01*
G01*
X505639Y132473D02*
G03*
X504195Y131029I0J-1444D01*
G01*
D02*
G03*
X505639Y129584I1444J0D01*
G01*
X510472Y128140D02*
G03*
X509027Y129584I-1444J0D01*
G01*
Y126695D02*
G03*
X510472Y128140I0J1444D01*
G01*
X505639Y126695D02*
G03*
X504195Y125251I0J-1444D01*
G01*
D02*
G03*
X505639Y123806I1444J0D01*
G01*
X510472Y122362D02*
G03*
X509027Y123806I-1444J0D01*
G01*
Y120918D02*
G03*
X510472Y122362I0J1444D01*
G01*
X505639Y120918D02*
G03*
X504195Y119473I0J-1444D01*
G01*
D02*
G03*
X505639Y118028I1444J0D01*
G01*
X510472Y116584D02*
G03*
X509027Y118028I-1444J0D01*
G01*
Y115140D02*
G03*
X510472Y116584I0J1444D01*
G01*
X505639Y115140D02*
G03*
X504195Y113695I0J-1444D01*
G01*
D02*
G03*
X505639Y112250I1444J0D01*
G01*
X510472Y110806D02*
G03*
X509027Y112250I-1444J0D01*
G01*
Y109361D02*
G03*
X510472Y110806I0J1444D01*
G01*
X505639Y109361D02*
G03*
X504195Y107917I0J-1444D01*
G01*
D02*
G03*
X505639Y106473I1444J0D01*
G01*
X510472Y105028D02*
G03*
X509027Y106473I-1444J0D01*
G01*
Y103583D02*
G03*
X510472Y105028I0J1444D01*
G01*
X505639Y103583D02*
G03*
X504195Y102139I0J-1444D01*
G01*
D02*
G03*
X505639Y100695I1444J0D01*
G01*
X510472Y99250D02*
G03*
X509027Y100695I-1444J0D01*
G01*
X439225Y202638D02*
G03*
X437780Y201194I0J-1444D01*
G01*
X436336Y196112D02*
G03*
X437780Y197556I0J1444D01*
G01*
X434891D02*
G03*
X436336Y196112I1444J0D01*
G01*
X434891Y201194D02*
G03*
X433447Y202638I-1444J0D01*
G01*
D02*
G03*
X432002Y201194I0J-1444D01*
G01*
X430558Y196112D02*
G03*
X432002Y197556I0J1444D01*
G01*
X429113D02*
G03*
X430558Y196112I1444J0D01*
G01*
X429113Y201194D02*
G03*
X427669Y202638I-1444J0D01*
G01*
D02*
G03*
X426224Y201194I0J-1444D01*
G01*
X424780Y196112D02*
G03*
X426224Y197556I0J1444D01*
G01*
X423335D02*
G03*
X424780Y196112I1444J0D01*
G01*
X423335Y201194D02*
G03*
X421891Y202638I-1444J0D01*
G01*
D02*
G03*
X420446Y201194I0J-1444D01*
G01*
X419002Y196112D02*
G03*
X420446Y197556I0J1444D01*
G01*
X417557D02*
G03*
X419002Y196112I1444J0D01*
G01*
X417557Y201194D02*
G03*
X416113Y202638I-1444J0D01*
G01*
D02*
G03*
X414668Y201194I0J-1444D01*
G01*
X413224Y196112D02*
G03*
X414668Y197556I0J1444D01*
G01*
X411779D02*
G03*
X413224Y196112I1444J0D01*
G01*
X411779Y201194D02*
G03*
X410335Y202638I-1444J0D01*
G01*
D02*
G03*
X408890Y201194I0J-1444D01*
G01*
X407446Y196112D02*
G03*
X408890Y197556I0J1444D01*
G01*
X406001D02*
G03*
X407446Y196112I1444J0D01*
G01*
X406001Y201194D02*
G03*
X404557Y202638I-1444J0D01*
G01*
D02*
G03*
X403112Y201194I0J-1444D01*
G01*
X401668Y196112D02*
G03*
X403112Y197556I0J1444D01*
G01*
X400224D02*
G03*
X401668Y196112I1444J0D01*
G01*
X400224Y201194D02*
G03*
X398779Y202638I-1444J0D01*
G01*
D02*
G03*
X397335Y201194I0J-1444D01*
G01*
X395890Y196112D02*
G03*
X397335Y197556I0J1444D01*
G01*
X394445D02*
G03*
X395890Y196112I1444J0D01*
G01*
X394445Y201194D02*
G03*
X393001Y202638I-1444J0D01*
G01*
D02*
G03*
X391557Y201194I0J-1444D01*
G01*
X390112Y196112D02*
G03*
X391557Y197556I0J1444D01*
G01*
X388667D02*
G03*
X390112Y196112I1444J0D01*
G01*
X388667Y201194D02*
G03*
X387223Y202638I-1444J0D01*
G01*
D02*
G03*
X385779Y201194I0J-1444D01*
G01*
X384334Y196112D02*
G03*
X385779Y197556I0J1444D01*
G01*
X382890D02*
G03*
X384334Y196112I1444J0D01*
G01*
X382890Y201194D02*
G03*
X381445Y202638I-1444J0D01*
G01*
D02*
G03*
X380000Y201194I0J-1444D01*
G01*
X378556Y196112D02*
G03*
X380000Y197556I0J1444D01*
G01*
X377112D02*
G03*
X378556Y196112I1444J0D01*
G01*
X377112Y201194D02*
G03*
X375667Y202638I-1444J0D01*
G01*
D02*
G03*
X374222Y201194I0J-1444D01*
G01*
X372778Y196112D02*
G03*
X374222Y197556I0J1444D01*
G01*
X371334D02*
G03*
X372778Y196112I1444J0D01*
G01*
X371334Y201194D02*
G03*
X369889Y202638I-1444J0D01*
G01*
X443852Y204417D02*
G03*
X445297Y205861I0J1444D01*
G01*
X446741Y209472D02*
G03*
X445297Y208028I0J-1444D01*
G01*
X448186D02*
G03*
X446741Y209472I-1444J0D01*
G01*
X448186Y205861D02*
G03*
X449630Y204417I1444J0D01*
G01*
D02*
G03*
X451075Y205861I0J1444D01*
G01*
X452519Y209472D02*
G03*
X451075Y208028I0J-1444D01*
G01*
X453964D02*
G03*
X452519Y209472I-1444J0D01*
G01*
X453964Y205861D02*
G03*
X455408Y204417I1444J0D01*
G01*
D02*
G03*
X456853Y205861I0J1444D01*
G01*
X458297Y209472D02*
G03*
X456853Y208028I0J-1444D01*
G01*
X459742D02*
G03*
X458297Y209472I-1444J0D01*
G01*
X459742Y205861D02*
G03*
X461186Y204417I1444J0D01*
G01*
D02*
G03*
X462631Y205861I0J1444D01*
G01*
X464075Y209472D02*
G03*
X462631Y208028I0J-1444D01*
G01*
X465520D02*
G03*
X464075Y209472I-1444J0D01*
G01*
X465520Y205861D02*
G03*
X466964Y204417I1444J0D01*
G01*
D02*
G03*
X468409Y205861I0J1444D01*
G01*
X469853Y209472D02*
G03*
X468409Y208028I0J-1444D01*
G01*
X471298D02*
G03*
X469853Y209472I-1444J0D01*
G01*
X471298Y205861D02*
G03*
X472742Y204417I1444J0D01*
G01*
D02*
G03*
X474187Y205861I0J1444D01*
G01*
X475631Y209472D02*
G03*
X474187Y208028I0J-1444D01*
G01*
X477076D02*
G03*
X475631Y209472I-1444J0D01*
G01*
X477076Y205861D02*
G03*
X478520Y204417I1444J0D01*
G01*
D02*
G03*
X479965Y205861I0J1444D01*
G01*
X481409Y209472D02*
G03*
X479965Y208028I0J-1444D01*
G01*
X482854D02*
G03*
X481409Y209472I-1444J0D01*
G01*
X482854Y205861D02*
G03*
X484298Y204417I1444J0D01*
G01*
D02*
G03*
X485743Y205861I0J1444D01*
G01*
X487187Y209472D02*
G03*
X485743Y208028I0J-1444D01*
G01*
X488632D02*
G03*
X487187Y209472I-1444J0D01*
G01*
X488632Y205861D02*
G03*
X490076Y204417I1444J0D01*
G01*
D02*
G03*
X491521Y205861I0J1444D01*
G01*
X492965Y209472D02*
G03*
X491521Y208028I0J-1444D01*
G01*
X494410D02*
G03*
X492965Y209472I-1444J0D01*
G01*
X494410Y205861D02*
G03*
X495854Y204417I1444J0D01*
G01*
D02*
G03*
X497299Y205861I0J1444D01*
G01*
X498743Y209472D02*
G03*
X497299Y208028I0J-1444D01*
G01*
X500188D02*
G03*
X498743Y209472I-1444J0D01*
G01*
X500188Y205861D02*
G03*
X501632Y204417I1444J0D01*
G01*
D02*
G03*
X503077Y205861I0J1444D01*
G01*
X504521Y209472D02*
G03*
X503077Y208028I0J-1444D01*
G01*
X505966D02*
G03*
X504521Y209472I-1444J0D01*
G01*
X505966Y205861D02*
G03*
X507410Y204417I1444J0D01*
G01*
X514250Y135407D02*
G03*
X515695Y133963I1444J0D01*
G01*
X517472Y132518D02*
G03*
X516028Y133963I-1444J0D01*
G01*
Y131074D02*
G03*
X517472Y132518I0J1444D01*
G01*
X515695Y131074D02*
G03*
X514250Y129629I0J-1444D01*
G01*
D02*
G03*
X515695Y128185I1444J0D01*
G01*
X517472Y126740D02*
G03*
X516028Y128185I-1444J0D01*
G01*
Y125296D02*
G03*
X517472Y126740I0J1444D01*
G01*
X515695Y125296D02*
G03*
X514250Y123851I0J-1444D01*
G01*
D02*
G03*
X515695Y122407I1444J0D01*
G01*
X517472Y120962D02*
G03*
X516028Y122407I-1444J0D01*
G01*
Y119518D02*
G03*
X517472Y120962I0J1444D01*
G01*
X515695Y119518D02*
G03*
X514250Y118073I0J-1444D01*
G01*
D02*
G03*
X515695Y116629I1444J0D01*
G01*
X517472Y115184D02*
G03*
X516028Y116629I-1444J0D01*
G01*
Y113740D02*
G03*
X517472Y115184I0J1444D01*
G01*
X515695Y113740D02*
G03*
X514250Y112295I0J-1444D01*
G01*
D02*
G03*
X515695Y110851I1444J0D01*
G01*
X517472Y109406D02*
G03*
X516028Y110851I-1444J0D01*
G01*
Y107962D02*
G03*
X517472Y109406I0J1444D01*
G01*
X515695Y107962D02*
G03*
X514250Y106517I0J-1444D01*
G01*
D02*
G03*
X515695Y105073I1444J0D01*
G01*
X517472Y103628D02*
G03*
X516028Y105073I-1444J0D01*
G01*
Y102184D02*
G03*
X517472Y103628I0J1444D01*
G01*
X515695Y102184D02*
G03*
X514250Y100739I0J-1444D01*
G01*
D02*
G03*
X515695Y99295I1444J0D01*
G01*
X517472Y97850D02*
G03*
X516028Y99295I-1444J0D01*
G01*
Y96406D02*
G03*
X517472Y97850I0J1444D01*
G01*
X515695Y96406D02*
G03*
X514250Y94961I0J-1444D01*
G01*
X530000Y148306D02*
G03*
X530750Y147556I750J0D01*
G01*
X532194Y146112D02*
G03*
X530750Y147556I-1444J0D01*
G01*
Y144668D02*
G03*
X532194Y146112I0J1444D01*
G01*
X528584Y144668D02*
G03*
X527139Y143223I0J-1444D01*
G01*
D02*
G03*
X528584Y141778I1444J0D01*
G01*
X532194Y140334D02*
G03*
X530750Y141778I-1444J0D01*
G01*
Y138890D02*
G03*
X532194Y140334I0J1444D01*
G01*
X528584Y138890D02*
G03*
X527139Y137445I0J-1444D01*
G01*
D02*
G03*
X528584Y136000I1444J0D01*
G01*
X532194Y134556D02*
G03*
X530750Y136000I-1444J0D01*
G01*
Y133111D02*
G03*
X532194Y134556I0J1444D01*
G01*
X528584Y133111D02*
G03*
X527139Y131667I0J-1444D01*
G01*
D02*
G03*
X528584Y130223I1444J0D01*
G01*
X532194Y128778D02*
G03*
X530750Y130223I-1444J0D01*
G01*
Y127333D02*
G03*
X532194Y128778I0J1444D01*
G01*
X528584Y127333D02*
G03*
X527139Y125889I0J-1444D01*
G01*
D02*
G03*
X528584Y124445I1444J0D01*
G01*
X530000Y123028D02*
G03*
X528584Y124445I-1416J0D01*
G01*
X517805Y198863D02*
G03*
X519250Y200308I0J1444D01*
G01*
X517528Y198863D02*
G03*
X516084Y197419I0J-1444D01*
G01*
D02*
G03*
X517528Y195974I1444J0D01*
G01*
X523472Y194530D02*
G03*
X522028Y195974I-1444J0D01*
G01*
Y193085D02*
G03*
X523472Y194530I0J1444D01*
G01*
X517528Y193085D02*
G03*
X516084Y191641I0J-1444D01*
G01*
D02*
G03*
X517528Y190196I1444J0D01*
G01*
X523472Y188752D02*
G03*
X522028Y190196I-1444J0D01*
G01*
Y187307D02*
G03*
X523472Y188752I0J1444D01*
G01*
X517528Y187307D02*
G03*
X516084Y185863I0J-1444D01*
G01*
D02*
G03*
X517528Y184418I1444J0D01*
G01*
X523472Y182974D02*
G03*
X522028Y184418I-1444J0D01*
G01*
Y181529D02*
G03*
X523472Y182974I0J1444D01*
G01*
X517528Y181529D02*
G03*
X516084Y180085I0J-1444D01*
G01*
D02*
G03*
X517528Y178640I1444J0D01*
G01*
X519250Y177196D02*
G03*
X517805Y178640I-1444J0D01*
G01*
Y175751D02*
G03*
X519250Y177196I0J1444D01*
G01*
X517528Y175751D02*
G03*
X516084Y174307I0J-1444D01*
G01*
D02*
G03*
X517528Y172862I1444J0D01*
G01*
X519250Y171418D02*
G03*
X517805Y172862I-1444J0D01*
G01*
Y169973D02*
G03*
X519250Y171418I0J1444D01*
G01*
X517528Y169973D02*
G03*
X516084Y168529I0J-1444D01*
G01*
D02*
G03*
X517528Y167085I1444J0D01*
G01*
X519250Y165640D02*
G03*
X517805Y167085I-1444J0D01*
G01*
Y164195D02*
G03*
X519250Y165640I0J1444D01*
G01*
X517528Y164195D02*
G03*
X516084Y162751I0J-1444D01*
G01*
D02*
G03*
X517528Y161306I1444J0D01*
G01*
X519250Y159862D02*
G03*
X517805Y161306I-1444J0D01*
G01*
Y158418D02*
G03*
X519250Y159862I0J1444D01*
G01*
X517528Y158418D02*
G03*
X516084Y156973I0J-1444D01*
G01*
D02*
G03*
X517528Y155528I1444J0D01*
G01*
X519250Y154084D02*
G03*
X517805Y155528I-1444J0D01*
G01*
Y152640D02*
G03*
X519250Y154084I0J1444D01*
G01*
X517528Y152640D02*
G03*
X516084Y151195I0J-1444D01*
G01*
D02*
G03*
X517528Y149750I1444J0D01*
G01*
X523472Y148306D02*
G03*
X522028Y149750I-1444J0D01*
G01*
Y146861D02*
G03*
X523472Y148306I0J1444D01*
G01*
X517528Y146861D02*
G03*
X516084Y145417I0J-1444D01*
G01*
D02*
G03*
X517528Y143973I1444J0D01*
G01*
X523472Y142528D02*
G03*
X522028Y143973I-1444J0D01*
G01*
Y141083D02*
G03*
X523472Y142528I0J1444D01*
G01*
X517528Y141083D02*
G03*
X516084Y139639I0J-1444D01*
G01*
D02*
G03*
X517528Y138195I1444J0D01*
G01*
X519250Y136750D02*
G03*
X517805Y138195I-1444J0D01*
G01*
X523806Y178195D02*
G03*
X525250Y179640I0J1444D01*
G01*
X522639Y178195D02*
G03*
X521195Y176751I0J-1444D01*
G01*
D02*
G03*
X522639Y175306I1444J0D01*
G01*
X528223Y173862D02*
G03*
X526778Y175306I-1444J0D01*
G01*
Y172418D02*
G03*
X528223Y173862I0J1444D01*
G01*
X522639Y172418D02*
G03*
X521195Y170973I0J-1444D01*
G01*
D02*
G03*
X522639Y169529I1444J0D01*
G01*
X528223Y168084D02*
G03*
X526778Y169529I-1444J0D01*
G01*
Y166639D02*
G03*
X528223Y168084I0J1444D01*
G01*
X522639Y166639D02*
G03*
X521195Y165195I0J-1444D01*
G01*
D02*
G03*
X522639Y163750I1444J0D01*
G01*
X528223Y162306D02*
G03*
X526778Y163750I-1444J0D01*
G01*
Y160861D02*
G03*
X528223Y162306I0J1444D01*
G01*
X522639Y160861D02*
G03*
X521195Y159417I0J-1444D01*
G01*
D02*
G03*
X522639Y157972I1444J0D01*
G01*
X528223Y156528D02*
G03*
X526778Y157972I-1444J0D01*
G01*
Y155084D02*
G03*
X528223Y156528I0J1444D01*
G01*
X522639Y155084D02*
G03*
X521195Y153639I0J-1444D01*
G01*
D02*
G03*
X522639Y152194I1444J0D01*
G01*
X525250Y150750D02*
G03*
X523806Y152194I-1444J0D01*
G01*
X533972Y121071D02*
G03*
X534528Y120515I556J0D01*
G01*
X535972Y119070D02*
G03*
X534528Y120515I-1444J0D01*
G01*
Y117626D02*
G03*
X535972Y119070I0J1444D01*
G01*
X533222Y117626D02*
G03*
X531778Y116181I0J-1444D01*
G01*
D02*
G03*
X533222Y114737I1444J0D01*
G01*
X535972Y113292D02*
G03*
X534528Y114737I-1444J0D01*
G01*
Y111848D02*
G03*
X535972Y113292I0J1444D01*
G01*
X533222Y111848D02*
G03*
X531778Y110403I0J-1444D01*
G01*
D02*
G03*
X533222Y108959I1444J0D01*
G01*
X535972Y107514D02*
G03*
X534528Y108959I-1444J0D01*
G01*
Y106070D02*
G03*
X535972Y107514I0J1444D01*
G01*
X534528Y106070D02*
G03*
X533972Y105514I0J-556D01*
G01*
X274723Y425277D02*
G03*
X272680Y425277I-1021J-1021D01*
G01*
X270245Y424884D02*
G03*
X272288Y424884I1021J1021D01*
G01*
X270245Y426927D02*
G03*
X270245Y424884I1021J-1021D01*
G01*
X271698Y428380D02*
G03*
X271698Y430423I-1021J1021D01*
G01*
D02*
G03*
X269655Y430423I-1021J-1021D01*
G01*
X266159Y428970D02*
G03*
X268202Y428970I1021J1021D01*
G01*
X266159Y431012D02*
G03*
X266159Y428970I1021J-1021D01*
G01*
X267613Y432466D02*
G03*
X267613Y434509I-1021J1021D01*
G01*
D02*
G03*
X265570Y434509I-1021J-1021D01*
G01*
X262074Y433055D02*
G03*
X264116Y433055I1021J1021D01*
G01*
X262074Y435098D02*
G03*
X262074Y433055I1021J-1021D01*
G01*
X263527Y436552D02*
G03*
X263527Y438594I-1021J1021D01*
G01*
D02*
G03*
X261484Y438594I-1021J-1021D01*
G01*
X257988Y437141D02*
G03*
X260031Y437141I1021J1021D01*
G01*
X257988Y439184D02*
G03*
X257988Y437141I1021J-1021D01*
G01*
X259441Y440637D02*
G03*
X259441Y442680I-1021J1021D01*
G01*
D02*
G03*
X257398Y442680I-1021J-1021D01*
G01*
X253902Y441227D02*
G03*
X255945Y441227I1021J1021D01*
G01*
X253902Y443269D02*
G03*
X253902Y441227I1021J-1021D01*
G01*
X255356Y444723D02*
G03*
X255356Y446766I-1021J1021D01*
G01*
D02*
G03*
X253313Y446766I-1021J-1021D01*
G01*
X249817Y445312D02*
G03*
X251859Y445312I1021J1021D01*
G01*
X249817Y447355D02*
G03*
X249817Y445312I1021J-1021D01*
G01*
X250209Y447748D02*
G03*
X250209Y449791I-1021J1021D01*
G01*
X196113Y273806D02*
G03*
X194669Y275250I-1444J0D01*
G01*
X196113Y263612D02*
G03*
X197558Y262167I1444J0D01*
G01*
D02*
G03*
X199002Y263612I0J1444D01*
G01*
X200447Y275250D02*
G03*
X199002Y273806I0J-1444D01*
G01*
X201891D02*
G03*
X200447Y275250I-1444J0D01*
G01*
X201891Y263612D02*
G03*
X203336Y262167I1444J0D01*
G01*
D02*
G03*
X204780Y263612I0J1444D01*
G01*
X206225Y275250D02*
G03*
X204780Y273806I0J-1444D01*
G01*
X231151Y270547D02*
G03*
X229706Y269102I0J-1444D01*
G01*
X228262Y262167D02*
G03*
X229706Y263612I0J1444D01*
G01*
X226817D02*
G03*
X228262Y262167I1444J0D01*
G01*
X226817Y269102D02*
G03*
X225373Y270547I-1444J0D01*
G01*
D02*
G03*
X223929Y269102I0J-1444D01*
G01*
X222484Y262167D02*
G03*
X223929Y263612I0J1444D01*
G01*
X221040D02*
G03*
X222484Y262167I1444J0D01*
G01*
X221040Y269102D02*
G03*
X219595Y270547I-1444J0D01*
G01*
X261500Y78500D02*
G03*
X260243Y79757I-1257J0D01*
G01*
X254982Y81201D02*
G03*
X256427Y79757I1444J0D01*
G01*
Y82646D02*
G03*
X254982Y81201I0J-1444D01*
G01*
X261500Y82646D02*
G03*
X262472Y83618I0J972D01*
G01*
Y84562D02*
G03*
X261500Y85535I-972J0D01*
G01*
X253945Y86979D02*
G03*
X255389Y85535I1444J0D01*
G01*
Y88424D02*
G03*
X253945Y86979I0J-1444D01*
G01*
X261500Y88424D02*
G03*
X262472Y89396I0J972D01*
G01*
Y90340D02*
G03*
X261500Y91313I-972J0D01*
G01*
X253945Y92757D02*
G03*
X255389Y91313I1444J0D01*
G01*
Y94202D02*
G03*
X253945Y92757I0J-1444D01*
G01*
X261500Y94202D02*
G03*
X262472Y95174I0J972D01*
G01*
Y96118D02*
G03*
X261500Y97091I-972J0D01*
G01*
X253945Y98535D02*
G03*
X255389Y97091I1444J0D01*
G01*
Y99980D02*
G03*
X253945Y98535I0J-1444D01*
G01*
X261500Y99980D02*
G03*
X262472Y100952I0J972D01*
G01*
Y101896D02*
G03*
X261500Y102869I-972J0D01*
G01*
X253945Y104313D02*
G03*
X255389Y102869I1444J0D01*
G01*
Y105758D02*
G03*
X253945Y104313I0J-1444D01*
G01*
X261500Y105758D02*
G03*
X262472Y106730I0J972D01*
G01*
Y107674D02*
G03*
X261500Y108647I-972J0D01*
G01*
X260360Y109787D02*
G03*
X261500Y108647I1140J0D01*
G01*
Y111536D02*
G03*
X260360Y110395I0J-1140D01*
G01*
X261500Y111536D02*
G03*
X262472Y112508I0J972D01*
G01*
Y113452D02*
G03*
X261500Y114425I-972J0D01*
G01*
X257935Y115869D02*
G03*
X259379Y114425I1444J0D01*
G01*
Y117314D02*
G03*
X257935Y115869I0J-1444D01*
G01*
X261500Y117314D02*
G03*
X262472Y118286I0J972D01*
G01*
Y119230D02*
G03*
X261500Y120203I-972J0D01*
G01*
X253945Y121647D02*
G03*
X255389Y120203I1444J0D01*
G01*
Y123091D02*
G03*
X253945Y121647I0J-1444D01*
G01*
X261500Y123091D02*
G03*
X262472Y124064I0J972D01*
G01*
Y125008D02*
G03*
X261500Y125981I-972J0D01*
G01*
X253945Y127425D02*
G03*
X255389Y125981I1444J0D01*
G01*
Y128869D02*
G03*
X253945Y127425I0J-1444D01*
G01*
X261500Y128869D02*
G03*
X262472Y129842I0J972D01*
G01*
Y130786D02*
G03*
X261500Y131758I-972J0D01*
G01*
X253945Y133203D02*
G03*
X255389Y131758I1444J0D01*
G01*
Y134648D02*
G03*
X253945Y133203I0J-1444D01*
G01*
X261500Y134648D02*
G03*
X262472Y135620I0J972D01*
G01*
Y136564D02*
G03*
X261500Y137536I-972J0D01*
G01*
X253945Y138981D02*
G03*
X255389Y137536I1444J0D01*
G01*
Y140426D02*
G03*
X253945Y138981I0J-1444D01*
G01*
X261500Y140426D02*
G03*
X262472Y141398I0J972D01*
G01*
Y142342D02*
G03*
X261500Y143315I-972J0D01*
G01*
X253945Y144759D02*
G03*
X255389Y143315I1444J0D01*
G01*
Y146203D02*
G03*
X253945Y144759I0J-1444D01*
G01*
X261500Y146203D02*
G03*
X262472Y147176I0J972D01*
G01*
Y148120D02*
G03*
X261500Y149093I-972J0D01*
G01*
X253945Y150537D02*
G03*
X255389Y149093I1444J0D01*
G01*
Y151981D02*
G03*
X253945Y150537I0J-1444D01*
G01*
X260056Y151981D02*
G03*
X261500Y153426I0J1444D01*
G01*
X121287Y245895D02*
G03*
X121287Y243852I1021J-1021D01*
G01*
X128235Y252843D02*
G03*
X128235Y254886I-1021J1021D01*
G01*
D02*
G03*
X126192Y254886I-1021J-1021D01*
G01*
X117201Y247938D02*
G03*
X119244Y247938I1021J1021D01*
G01*
X117201Y249981D02*
G03*
X117201Y247938I1021J-1021D01*
G01*
X124150Y256929D02*
G03*
X124150Y258972I-1021J1021D01*
G01*
D02*
G03*
X122107Y258972I-1021J-1021D01*
G01*
X113116Y252024D02*
G03*
X115159Y252024I1021J1021D01*
G01*
X113116Y254066D02*
G03*
X113116Y252024I1021J-1021D01*
G01*
X120064Y261015D02*
G03*
X120064Y263057I-1021J1021D01*
G01*
D02*
G03*
X118021Y263057I-1021J-1021D01*
G01*
X109030Y256109D02*
G03*
X111073Y256109I1021J1021D01*
G01*
X109030Y258152D02*
G03*
X109030Y256109I1021J-1021D01*
G01*
X115978Y265100D02*
G03*
X115978Y267143I-1021J1021D01*
G01*
D02*
G03*
X113935Y267143I-1021J-1021D01*
G01*
X104944Y260195D02*
G03*
X106987Y260195I1021J1021D01*
G01*
X104944Y262238D02*
G03*
X104944Y260195I1021J-1021D01*
G01*
X111893Y269186D02*
G03*
X111893Y271229I-1021J1021D01*
G01*
D02*
G03*
X109850Y271229I-1021J-1021D01*
G01*
X100859Y264280D02*
G03*
X102901Y264280I1021J1021D01*
G01*
X100859Y266323D02*
G03*
X100859Y264280I1021J-1021D01*
G01*
X107807Y273272D02*
G03*
X107807Y275314I-1021J1021D01*
G01*
D02*
G03*
X105764Y275314I-1021J-1021D01*
G01*
X96773Y268366D02*
G03*
X98816Y268366I1021J1021D01*
G01*
X96773Y270409D02*
G03*
X96773Y268366I1021J-1021D01*
G01*
X103721Y277357D02*
G03*
X103721Y279400I-1021J1021D01*
G01*
D02*
G03*
X101678Y279400I-1021J-1021D01*
G01*
X92687Y272452D02*
G03*
X94730Y272452I1021J1021D01*
G01*
X92687Y274495D02*
G03*
X92687Y272452I1021J-1021D01*
G01*
X99636Y281443D02*
G03*
X99636Y283486I-1021J1021D01*
G01*
D02*
G03*
X97593Y283486I-1021J-1021D01*
G01*
X88602Y276537D02*
G03*
X90645Y276537I1021J1021D01*
G01*
X88602Y278580D02*
G03*
X88602Y276537I1021J-1021D01*
G01*
X95550Y285529D02*
G03*
X95550Y287571I-1021J1021D01*
G01*
D02*
G03*
X93507Y287571I-1021J-1021D01*
G01*
X84516Y280623D02*
G03*
X86559Y280623I1021J1021D01*
G01*
X84516Y282666D02*
G03*
X84516Y280623I1021J-1021D01*
G01*
X91464Y289614D02*
G03*
X91464Y291657I-1021J1021D01*
G01*
D02*
G03*
X89421Y291657I-1021J-1021D01*
G01*
X80430Y284709D02*
G03*
X82473Y284709I1021J1021D01*
G01*
X80430Y286752D02*
G03*
X80430Y284709I1021J-1021D01*
G01*
X87379Y293700D02*
G03*
X87379Y295743I-1021J1021D01*
G01*
D02*
G03*
X85336Y295743I-1021J-1021D01*
G01*
X76345Y288794D02*
G03*
X78388Y288794I1021J1021D01*
G01*
X76345Y290837D02*
G03*
X76345Y288794I1021J-1021D01*
G01*
X83293Y297785D02*
G03*
X83293Y299828I-1021J1021D01*
G01*
D02*
G03*
X81250Y299828I-1021J-1021D01*
G01*
X72259Y292880D02*
G03*
X74302Y292880I1021J1021D01*
G01*
X72259Y294923D02*
G03*
X72259Y292880I1021J-1021D01*
G01*
X79207Y301871D02*
G03*
X79207Y303914I-1021J1021D01*
G01*
D02*
G03*
X77165Y303914I-1021J-1021D01*
G01*
X68173Y296966D02*
G03*
X70216Y296966I1021J1021D01*
G01*
X68173Y299009D02*
G03*
X68173Y296966I1021J-1021D01*
G01*
X75122Y305957D02*
G03*
X75122Y308000I-1021J1021D01*
G01*
D02*
G03*
X73079Y308000I-1021J-1021D01*
G01*
X64088Y301052D02*
G03*
X66131Y301052I1021J1021D01*
G01*
X64088Y303094D02*
G03*
X64088Y301052I1021J-1021D01*
G01*
X67053Y306060D02*
G03*
X67053Y308102I-1021J1021D01*
G01*
D02*
G03*
X65010Y308102I-1021J-1021D01*
G01*
X60002Y305137D02*
G03*
X62045Y305137I1021J1021D01*
G01*
X146025Y487111D02*
G03*
X147469Y485667I1444J0D01*
G01*
X146025Y488861D02*
G03*
X144580Y490305I-1444J0D01*
G01*
D02*
G03*
X143136Y488861I0J-1444D01*
G01*
X141691Y482528D02*
G03*
X143136Y483972I0J1444D01*
G01*
X140247D02*
G03*
X141691Y482528I1444J0D01*
G01*
X140247Y488861D02*
G03*
X138802Y490305I-1444J0D01*
G01*
D02*
G03*
X137358Y488861I0J-1444D01*
G01*
X135913Y482528D02*
G03*
X137358Y483972I0J1444D01*
G01*
X134469D02*
G03*
X135913Y482528I1444J0D01*
G01*
X134469Y488861D02*
G03*
X133024Y490305I-1444J0D01*
G01*
D02*
G03*
X131580Y488861I0J-1444D01*
G01*
X130135Y482528D02*
G03*
X131580Y483972I0J1444D01*
G01*
X128691D02*
G03*
X130135Y482528I1444J0D01*
G01*
X128691Y488861D02*
G03*
X127246Y490305I-1444J0D01*
G01*
D02*
G03*
X125802Y488861I0J-1444D01*
G01*
X124357Y482528D02*
G03*
X125802Y483972I0J1444D01*
G01*
X122913D02*
G03*
X124357Y482528I1444J0D01*
G01*
X122913Y488861D02*
G03*
X121468Y490305I-1444J0D01*
G01*
D02*
G03*
X120024Y488861I0J-1444D01*
G01*
X118579Y482528D02*
G03*
X120024Y483972I0J1444D01*
G01*
X117135D02*
G03*
X118579Y482528I1444J0D01*
G01*
X117135Y484222D02*
G03*
X115690Y485667I-1444J0D01*
G01*
X97876Y467737D02*
G03*
X97876Y465694I1021J-1021D01*
G01*
X102199Y459328D02*
G03*
X102199Y461371I-1021J1021D01*
G01*
X100157Y459328D02*
G03*
X102199Y459328I1021J1021D01*
G01*
X95834Y463651D02*
G03*
X93791Y463651I-1021J-1021D01*
G01*
X93791Y463651D02*
G03*
X93791Y461609I1021J-1021D01*
G01*
X98114Y455243D02*
G03*
X98114Y457285I-1021J1021D01*
G01*
X96071Y455243D02*
G03*
X98114Y455243I1021J1021D01*
G01*
X91748Y459566D02*
G03*
X89705Y459566I-1021J-1021D01*
G01*
D02*
G03*
X89705Y457523I1021J-1021D01*
G01*
X94028Y451157D02*
G03*
X94028Y453200I-1021J1021D01*
G01*
X91985Y451157D02*
G03*
X94028Y451157I1021J1021D01*
G01*
X87662Y455480D02*
G03*
X85619Y455480I-1021J-1021D01*
G01*
D02*
G03*
X85619Y453437I1021J-1021D01*
G01*
X89943Y447071D02*
G03*
X89943Y449114I-1021J1021D01*
G01*
X87900Y447071D02*
G03*
X89943Y447071I1021J1021D01*
G01*
X83577Y451395D02*
G03*
X81534Y451395I-1021J-1021D01*
G01*
X81534Y451394D02*
G03*
X81534Y449352I1021J-1021D01*
G01*
X85857Y442986D02*
G03*
X85857Y445028I-1021J1021D01*
G01*
X83814Y442986D02*
G03*
X85857Y442986I1021J1021D01*
G01*
X79491Y447309D02*
G03*
X77448Y447309I-1021J-1021D01*
G01*
D02*
G03*
X77448Y445266I1021J-1021D01*
G01*
X81771Y438900D02*
G03*
X81771Y440943I-1021J1021D01*
G01*
X79728Y438900D02*
G03*
X81771Y438900I1021J1021D01*
G01*
X75405Y443223D02*
G03*
X73362Y443223I-1021J-1021D01*
G01*
X97978Y243679D02*
G03*
X95935Y243679I-1021J-1021D01*
G01*
X90046Y239833D02*
G03*
X92089Y239833I1021J1021D01*
G01*
X90046Y241876D02*
G03*
X90046Y239833I1021J-1021D01*
G01*
X93892Y245722D02*
G03*
X93892Y247765I-1021J1021D01*
G01*
D02*
G03*
X91849Y247765I-1021J-1021D01*
G01*
X85960Y243918D02*
G03*
X88003Y243918I1021J1021D01*
G01*
X85960Y245961D02*
G03*
X85960Y243918I1021J-1021D01*
G01*
X89807Y249808D02*
G03*
X89807Y251850I-1021J1021D01*
G01*
X89807Y251850D02*
G03*
X87764Y251850I-1021J-1021D01*
G01*
X81875Y248004D02*
G03*
X83917Y248004I1021J1021D01*
G01*
X81875Y250047D02*
G03*
X81875Y248004I1021J-1021D01*
G01*
X85721Y253893D02*
G03*
X85721Y255936I-1021J1021D01*
G01*
D02*
G03*
X83678Y255936I-1021J-1021D01*
G01*
X77789Y252090D02*
G03*
X79832Y252090I1021J1021D01*
G01*
X77789Y254133D02*
G03*
X77789Y252090I1021J-1021D01*
G01*
X81635Y257979D02*
G03*
X81635Y260022I-1021J1021D01*
G01*
D02*
G03*
X79592Y260022I-1021J-1021D01*
G01*
X73703Y256175D02*
G03*
X75746Y256175I1021J1021D01*
G01*
X73703Y258218D02*
G03*
X73703Y256175I1021J-1021D01*
G01*
X77550Y262065D02*
G03*
X77550Y264107I-1021J1021D01*
G01*
X77550Y264107D02*
G03*
X75507Y264107I-1021J-1021D01*
G01*
X69618Y260261D02*
G03*
X71660Y260261I1021J1021D01*
G01*
X69618Y262304D02*
G03*
X69618Y260261I1021J-1021D01*
G01*
X73464Y266150D02*
G03*
X73464Y268193I-1021J1021D01*
G01*
D02*
G03*
X71421Y268193I-1021J-1021D01*
G01*
X65532Y264347D02*
G03*
X67575Y264347I1021J1021D01*
G01*
X65532Y266390D02*
G03*
X65532Y264347I1021J-1021D01*
G01*
X69378Y270236D02*
G03*
X69378Y272279I-1021J1021D01*
G01*
D02*
G03*
X67336Y272279I-1021J-1021D01*
G01*
X61446Y268433D02*
G03*
X63489Y268433I1021J1021D01*
G01*
X61446Y270475D02*
G03*
X61446Y268433I1021J-1021D01*
G01*
X65293Y274321D02*
G03*
X65293Y276364I-1021J1021D01*
G01*
X65293Y276364D02*
G03*
X63250Y276364I-1021J-1021D01*
G01*
X57361Y272518D02*
G03*
X59404Y272518I1021J1021D01*
G01*
X57361Y274561D02*
G03*
X57361Y272518I1021J-1021D01*
G01*
X61207Y278407D02*
G03*
X61207Y280450I-1021J1021D01*
G01*
D02*
G03*
X59164Y280450I-1021J-1021D01*
G01*
X53275Y276604D02*
G03*
X55318Y276604I1021J1021D01*
G01*
X53275Y278647D02*
G03*
X53275Y276604I1021J-1021D01*
G01*
X57121Y282493D02*
G03*
X57121Y284536I-1021J1021D01*
G01*
X199500Y370500D02*
G03*
X198670Y369670I0J-830D01*
G01*
X197226Y367631D02*
G03*
X198670Y369075I0J1444D01*
G01*
X195781D02*
G03*
X197226Y367631I1444J0D01*
G01*
X195781Y371925D02*
G03*
X194337Y373369I-1444J0D01*
G01*
D02*
G03*
X192892Y371925I0J-1444D01*
G01*
X191448Y367631D02*
G03*
X192892Y369075I0J1444D01*
G01*
X190003D02*
G03*
X191448Y367631I1444J0D01*
G01*
X190003Y371925D02*
G03*
X188559Y373369I-1444J0D01*
G01*
D02*
G03*
X187114Y371925I0J-1444D01*
G01*
X185670Y367631D02*
G03*
X187114Y369075I0J1444D01*
G01*
X184225D02*
G03*
X185670Y367631I1444J0D01*
G01*
X184225Y371925D02*
G03*
X182781Y373369I-1444J0D01*
G01*
D02*
G03*
X181336Y371925I0J-1444D01*
G01*
X179892Y367631D02*
G03*
X181336Y369075I0J1444D01*
G01*
X178447D02*
G03*
X179892Y367631I1444J0D01*
G01*
X178447Y371925D02*
G03*
X177003Y373369I-1444J0D01*
G01*
D02*
G03*
X175558Y371925I0J-1444D01*
G01*
X174114Y367631D02*
G03*
X175558Y369075I0J1444D01*
G01*
X172669D02*
G03*
X174114Y367631I1444J0D01*
G01*
X172669Y371925D02*
G03*
X171225Y373369I-1444J0D01*
G01*
D02*
G03*
X169780Y371925I0J-1444D01*
G01*
X168355Y370500D02*
G03*
X169780Y371925I0J1425D01*
G01*
X166891D02*
G03*
X168316Y370500I1425J0D01*
G01*
X166891Y371925D02*
G03*
X165447Y373369I-1444J0D01*
G01*
D02*
G03*
X164002Y371925I0J-1444D01*
G01*
X162577Y370500D02*
G03*
X164002Y371925I0J1425D01*
G01*
X161113D02*
G03*
X162538Y370500I1425J0D01*
G01*
X161113Y371925D02*
G03*
X159669Y373369I-1444J0D01*
G01*
D02*
G03*
X158224Y371925I0J-1444D01*
G01*
X156799Y370500D02*
G03*
X158224Y371925I0J1425D01*
G01*
X155335D02*
G03*
X156760Y370500I1425J0D01*
G01*
X155335Y371925D02*
G03*
X153891Y373369I-1444J0D01*
G01*
D02*
G03*
X152446Y371925I0J-1444D01*
G01*
X151021Y370500D02*
G03*
X152446Y371925I0J1425D01*
G01*
X149557Y371945D02*
G03*
X151002Y370500I1444J0D01*
G01*
X149557Y372014D02*
G03*
X148113Y373459I-1444J0D01*
G01*
D02*
G03*
X146668Y372014I0J-1444D01*
G01*
X145224Y370500D02*
G03*
X146668Y371945I0J1444D01*
G01*
X143779D02*
G03*
X145224Y370500I1444J0D01*
G01*
X143779Y372014D02*
G03*
X142335Y373459I-1444J0D01*
G01*
D02*
G03*
X140890Y372014I0J-1444D01*
G01*
X139446Y370500D02*
G03*
X140890Y371945I0J1444D01*
G01*
X138001D02*
G03*
X139446Y370500I1444J0D01*
G01*
X138001Y372014D02*
G03*
X136557Y373459I-1444J0D01*
G01*
D02*
G03*
X135112Y372014I0J-1444D01*
G01*
X133668Y370500D02*
G03*
X135112Y371945I0J1444D01*
G01*
X132224D02*
G03*
X133668Y370500I1444J0D01*
G01*
X132224Y372014D02*
G03*
X130779Y373459I-1444J0D01*
G01*
D02*
G03*
X129334Y372014I0J-1444D01*
G01*
X127890Y370500D02*
G03*
X129334Y371945I0J1444D01*
G01*
X126446D02*
G03*
X127890Y370500I1444J0D01*
G01*
X126446Y372014D02*
G03*
X125001Y373459I-1444J0D01*
G01*
D02*
G03*
X123556Y372014I0J-1444D01*
G01*
X122112Y370500D02*
G03*
X123556Y371945I0J1444D01*
G01*
X120667D02*
G03*
X122112Y370500I1444J0D01*
G01*
X120667Y372014D02*
G03*
X119223Y373459I-1444J0D01*
G01*
D02*
G03*
X117779Y372014I0J-1444D01*
G01*
X116334Y370500D02*
G03*
X117779Y371945I0J1444D01*
G01*
X114889D02*
G03*
X116334Y370500I1444J0D01*
G01*
X114889Y372014D02*
G03*
X113445Y373459I-1444J0D01*
G01*
D02*
G03*
X112001Y372014I0J-1444D01*
G01*
X110556Y370500D02*
G03*
X112001Y371945I0J1444D01*
G01*
X109111D02*
G03*
X110556Y370500I1444J0D01*
G01*
X109111Y372014D02*
G03*
X107667Y373459I-1444J0D01*
G01*
D02*
G03*
X106222Y372014I0J-1444D01*
G01*
X104778Y370500D02*
G03*
X106222Y371945I0J1444D01*
G01*
X186578Y215840D02*
G03*
X184535Y215840I-1021J-1021D01*
G01*
X181513Y214861D02*
G03*
X183556Y214861I1021J1021D01*
G01*
X181513Y216904D02*
G03*
X181513Y214861I1021J-1021D01*
G01*
X184256Y219646D02*
G03*
X184256Y221689I-1021J1021D01*
G01*
D02*
G03*
X182213Y221689I-1021J-1021D01*
G01*
X177428Y218947D02*
G03*
X179471Y218947I1021J1021D01*
G01*
X177428Y220990D02*
G03*
X177428Y218947I1021J-1021D01*
G01*
X180066Y223628D02*
G03*
X180066Y225671I-1021J1021D01*
G01*
D02*
G03*
X178023Y225671I-1021J-1021D01*
G01*
X173342Y223032D02*
G03*
X175385Y223032I1021J1021D01*
G01*
X173342Y225075D02*
G03*
X173342Y223032I1021J-1021D01*
G01*
X175980Y227713D02*
G03*
X175980Y229756I-1021J1021D01*
G01*
D02*
G03*
X173937Y229756I-1021J-1021D01*
G01*
X169256Y227118D02*
G03*
X171299Y227118I1021J1021D01*
G01*
X169256Y229161D02*
G03*
X169256Y227118I1021J-1021D01*
G01*
X171894Y231799D02*
G03*
X171894Y233842I-1021J1021D01*
G01*
D02*
G03*
X169851Y233842I-1021J-1021D01*
G01*
X165171Y231204D02*
G03*
X167213Y231204I1021J1021D01*
G01*
X165171Y233247D02*
G03*
X165171Y231204I1021J-1021D01*
G01*
X167171Y235247D02*
G03*
X167171Y236782I-768J768D01*
G01*
X166664Y237290D02*
G03*
X165128Y237290I-768J-768D01*
G01*
X161085Y235289D02*
G03*
X163128Y235289I1021J1021D01*
G01*
X161085Y237332D02*
G03*
X161085Y235289I1021J-1021D01*
G01*
X163085Y239333D02*
G03*
X163085Y241134I-901J901D01*
G01*
X162843Y241375D02*
G03*
X161042Y241375I-901J-901D01*
G01*
X156999Y239375D02*
G03*
X159042Y239375I1021J1021D01*
G01*
X156999Y241418D02*
G03*
X156999Y239375I1021J-1021D01*
G01*
X157978Y242397D02*
G03*
X157978Y244440I-1021J1021D01*
G01*
D02*
G03*
X155935Y244440I-1021J-1021D01*
G01*
X152914Y243461D02*
G03*
X154957Y243461I1021J1021D01*
G01*
X152914Y245504D02*
G03*
X152914Y243461I1021J-1021D01*
G01*
X153892Y246482D02*
G03*
X153892Y248525I-1021J1021D01*
G01*
D02*
G03*
X151850Y248525I-1021J-1021D01*
G01*
X148828Y247547D02*
G03*
X150871Y247547I1021J1021D01*
G01*
X148828Y249589D02*
G03*
X148828Y247547I1021J-1021D01*
G01*
X149807Y250568D02*
G03*
X149807Y252611I-1021J1021D01*
G01*
D02*
G03*
X147764Y252611I-1021J-1021D01*
G01*
X144742Y251632D02*
G03*
X146785Y251632I1021J1021D01*
G01*
X144742Y253675D02*
G03*
X144742Y251632I1021J-1021D01*
G01*
X145721Y254654D02*
G03*
X145721Y256696I-1021J1021D01*
G01*
X145721D02*
G03*
X143678Y256696I-1021J-1021D01*
G01*
X140657Y255718D02*
G03*
X142699Y255718I1021J1021D01*
G01*
X140657Y257761D02*
G03*
X140657Y255718I1021J-1021D01*
G01*
X141636Y258739D02*
G03*
X141636Y260782I-1021J1021D01*
G01*
D02*
G03*
X139593Y260782I-1021J-1021D01*
G01*
X136571Y259804D02*
G03*
X138614Y259804I1021J1021D01*
G01*
X136571Y261846D02*
G03*
X136571Y259804I1021J-1021D01*
G01*
X137550Y262825D02*
G03*
X137550Y264868I-1021J1021D01*
G01*
D02*
G03*
X135507Y264868I-1021J-1021D01*
G01*
X132485Y263889D02*
G03*
X134528Y263889I1021J1021D01*
G01*
X132485Y265932D02*
G03*
X132485Y263889I1021J-1021D01*
G01*
X133464Y266911D02*
G03*
X133464Y268953I-1021J1021D01*
G01*
X133464D02*
G03*
X131421Y268953I-1021J-1021D01*
G01*
X128400Y267975D02*
G03*
X130443Y267975I1021J1021D01*
G01*
X128400Y270018D02*
G03*
X128400Y267975I1021J-1021D01*
G01*
X129378Y270996D02*
G03*
X129378Y273039I-1021J1021D01*
G01*
D02*
G03*
X127336Y273039I-1021J-1021D01*
G01*
X124314Y272060D02*
G03*
X126357Y272060I1021J1021D01*
G01*
X124314Y274103D02*
G03*
X124314Y272060I1021J-1021D01*
G01*
X125293Y275082D02*
G03*
X125293Y277125I-1021J1021D01*
G01*
X139210Y385314D02*
G03*
X137766Y383869I0J-1444D01*
G01*
X136321Y381924D02*
G03*
X137766Y383369I0J1444D01*
G01*
X134877D02*
G03*
X136321Y381924I1444J0D01*
G01*
X134877Y383869D02*
G03*
X133432Y385314I-1444J0D01*
G01*
D02*
G03*
X131988Y383869I0J-1444D01*
G01*
X130543Y381924D02*
G03*
X131988Y383369I0J1444D01*
G01*
X129099D02*
G03*
X130543Y381924I1444J0D01*
G01*
X129099Y383869D02*
G03*
X127654Y385314I-1444J0D01*
G01*
D02*
G03*
X126210Y383869I0J-1444D01*
G01*
X124765Y381924D02*
G03*
X126210Y383369I0J1444D01*
G01*
X123321D02*
G03*
X124765Y381924I1444J0D01*
G01*
X123321Y383869D02*
G03*
X121876Y385314I-1444J0D01*
G01*
X117648Y381591D02*
G03*
X119093Y380147I1444J0D01*
G01*
X117648Y382091D02*
G03*
X116204Y383536I-1444J0D01*
G01*
D02*
G03*
X114759Y382091I0J-1444D01*
G01*
X113315Y380147D02*
G03*
X114759Y381591I0J1444D01*
G01*
X111870D02*
G03*
X113315Y380147I1444J0D01*
G01*
X111870Y382091D02*
G03*
X110426Y383536I-1444J0D01*
G01*
D02*
G03*
X108981Y382091I0J-1444D01*
G01*
X107537Y380147D02*
G03*
X108981Y381591I0J1444D01*
G01*
X106092D02*
G03*
X107537Y380147I1444J0D01*
G01*
X106092Y382091D02*
G03*
X104648Y383536I-1444J0D01*
G01*
D02*
G03*
X103203Y382091I0J-1444D01*
G01*
X101759Y380147D02*
G03*
X103203Y381591I0J1444D01*
G01*
X100314D02*
G03*
X101759Y380147I1444J0D01*
G01*
X100314Y382091D02*
G03*
X98870Y383536I-1444J0D01*
G01*
D02*
G03*
X97425Y382091I0J-1444D01*
G01*
X95981Y380147D02*
G03*
X97425Y381591I0J1444D01*
G01*
X94536D02*
G03*
X95981Y380147I1444J0D01*
G01*
X94536Y382091D02*
G03*
X93092Y383536I-1444J0D01*
G01*
D02*
G03*
X91647Y382091I0J-1444D01*
G01*
X90203Y380147D02*
G03*
X91647Y381591I0J1444D01*
G01*
X88758D02*
G03*
X90203Y380147I1444J0D01*
G01*
X88758Y382091D02*
G03*
X87314Y383536I-1444J0D01*
G01*
D02*
G03*
X85869Y382091I0J-1444D01*
G01*
X84425Y376925D02*
G03*
X85869Y378369I0J1444D01*
G01*
X82980D02*
G03*
X84425Y376925I1444J0D01*
G01*
X82980Y378702D02*
G03*
X81536Y380147I-1444J0D01*
G01*
X151538Y376591D02*
G03*
X152983Y375147I1444J0D01*
G01*
X151538Y376925D02*
G03*
X150094Y378369I-1444J0D01*
G01*
D02*
G03*
X148649Y376925I0J-1444D01*
G01*
X147205Y375147D02*
G03*
X148649Y376591I0J1444D01*
G01*
X145760D02*
G03*
X147205Y375147I1444J0D01*
G01*
X145760Y376925D02*
G03*
X144316Y378369I-1444J0D01*
G01*
D02*
G03*
X142871Y376925I0J-1444D01*
G01*
X141427Y375147D02*
G03*
X142871Y376591I0J1444D01*
G01*
X139982D02*
G03*
X141427Y375147I1444J0D01*
G01*
X139982Y376925D02*
G03*
X138538Y378369I-1444J0D01*
G01*
D02*
G03*
X137093Y376925I0J-1444D01*
G01*
X135649Y375147D02*
G03*
X137093Y376591I0J1444D01*
G01*
X134204D02*
G03*
X135649Y375147I1444J0D01*
G01*
X134204Y376925D02*
G03*
X132760Y378369I-1444J0D01*
G01*
D02*
G03*
X131315Y376925I0J-1444D01*
G01*
X129871Y375147D02*
G03*
X131315Y376591I0J1444D01*
G01*
X128426D02*
G03*
X129871Y375147I1444J0D01*
G01*
X128426Y376925D02*
G03*
X126982Y378369I-1444J0D01*
G01*
D02*
G03*
X125537Y376925I0J-1444D01*
G01*
X124093Y375147D02*
G03*
X125537Y376591I0J1444D01*
G01*
X122648D02*
G03*
X124093Y375147I1444J0D01*
G01*
X122648Y376925D02*
G03*
X121204Y378369I-1444J0D01*
G01*
D02*
G03*
X119759Y376925I0J-1444D01*
G01*
X118315Y375147D02*
G03*
X119759Y376591I0J1444D01*
G01*
X116870D02*
G03*
X118315Y375147I1444J0D01*
G01*
X116870Y376925D02*
G03*
X115426Y378369I-1444J0D01*
G01*
D02*
G03*
X113981Y376925I0J-1444D01*
G01*
X112537Y375147D02*
G03*
X113981Y376591I0J1444D01*
G01*
X111092D02*
G03*
X112537Y375147I1444J0D01*
G01*
X111092Y376925D02*
G03*
X109648Y378369I-1444J0D01*
G01*
D02*
G03*
X108203Y376925I0J-1444D01*
G01*
X106759Y375147D02*
G03*
X108203Y376591I0J1444D01*
G01*
X105314D02*
G03*
X106759Y375147I1444J0D01*
G01*
X105314Y376925D02*
G03*
X103870Y378369I-1444J0D01*
G01*
D02*
G03*
X102425Y376925I0J-1444D01*
G01*
X100981Y372897D02*
G03*
X102425Y374342I0J1444D01*
G01*
X99537D02*
G03*
X100981Y372897I1444J0D01*
G01*
X99537Y376925D02*
G03*
X98092Y378369I-1444J0D01*
G01*
D02*
G03*
X96648Y376925I0J-1444D01*
G01*
X95203Y371282D02*
G03*
X96648Y372727I0J1444D01*
G01*
X93758D02*
G03*
X95203Y371282I1444J0D01*
G01*
X93758Y376925D02*
G03*
X92314Y378369I-1444J0D01*
G01*
D02*
G03*
X90870Y376925I0J-1444D01*
G01*
X89425Y373563D02*
G03*
X90870Y375008I0J1444D01*
G01*
X87980D02*
G03*
X89425Y373563I1444J0D01*
G01*
X43808Y271806D02*
G03*
X43808Y273849I-1021J1021D01*
G01*
X39836Y267835D02*
G03*
X39836Y265792I1021J-1021D01*
G01*
D02*
G03*
X41879Y265792I1021J1021D01*
G01*
X51433Y273303D02*
G03*
X49390Y273303I-1021J-1021D01*
G01*
X51433Y271260D02*
G03*
X51433Y273303I-1021J1021D01*
G01*
X43922Y263749D02*
G03*
X43922Y261707I1021J-1021D01*
G01*
D02*
G03*
X45965Y261707I1021J1021D01*
G01*
X55519Y269217D02*
G03*
X53476Y269217I-1021J-1021D01*
G01*
X55519Y267175D02*
G03*
X55519Y269217I-1021J1021D01*
G01*
X48008Y259664D02*
G03*
X48008Y257621I1021J-1021D01*
G01*
D02*
G03*
X50051Y257621I1021J1021D01*
G01*
X59604Y265132D02*
G03*
X57561Y265132I-1021J-1021D01*
G01*
X59604Y263089D02*
G03*
X59604Y265132I-1021J1021D01*
G01*
X52093Y255578D02*
G03*
X52093Y253535I1021J-1021D01*
G01*
D02*
G03*
X54136Y253535I1021J1021D01*
G01*
X63690Y261046D02*
G03*
X61647Y261046I-1021J-1021D01*
G01*
X63690Y259003D02*
G03*
X63690Y261046I-1021J1021D01*
G01*
X56179Y251492D02*
G03*
X56179Y249450I1021J-1021D01*
G01*
D02*
G03*
X58222Y249450I1021J1021D01*
G01*
X67776Y256961D02*
G03*
X65733Y256961I-1021J-1021D01*
G01*
X67776Y254918D02*
G03*
X67776Y256961I-1021J1021D01*
G01*
X60265Y247407D02*
G03*
X60265Y245364I1021J-1021D01*
G01*
D02*
G03*
X62308Y245364I1021J1021D01*
G01*
X71861Y252875D02*
G03*
X69819Y252875I-1021J-1021D01*
G01*
X71861Y250832D02*
G03*
X71861Y252875I-1021J1021D01*
G01*
X64350Y243321D02*
G03*
X64350Y241278I1021J-1021D01*
G01*
D02*
G03*
X66393Y241278I1021J1021D01*
G01*
X75947Y248789D02*
G03*
X73904Y248789I-1021J-1021D01*
G01*
X75947Y246746D02*
G03*
X75947Y248789I-1021J1021D01*
G01*
X68436Y239235D02*
G03*
X68436Y237193I1021J-1021D01*
G01*
D02*
G03*
X70479Y237193I1021J1021D01*
G01*
X80033Y244704D02*
G03*
X77990Y244704I-1021J-1021D01*
G01*
X80033Y242661D02*
G03*
X80033Y244704I-1021J1021D01*
G01*
X72522Y235150D02*
G03*
X72522Y233107I1021J-1021D01*
G01*
D02*
G03*
X74564Y233107I1021J1021D01*
G01*
X84118Y240618D02*
G03*
X82076Y240618I-1021J-1021D01*
G01*
X84118Y238575D02*
G03*
X84118Y240618I-1021J1021D01*
G01*
X76607Y231064D02*
G03*
X76607Y229021I1021J-1021D01*
G01*
D02*
G03*
X78650Y229021I1021J1021D01*
G01*
X88204Y236532D02*
G03*
X86161Y236532I-1021J-1021D01*
G01*
X88204Y234489D02*
G03*
X88204Y236532I-1021J1021D01*
G01*
X80693Y226978D02*
G03*
X80693Y224936I1021J-1021D01*
G01*
D02*
G03*
X82736Y224936I1021J1021D01*
G01*
X88750Y228907D02*
G03*
X86707Y228907I-1021J-1021D01*
G01*
X141370Y187923D02*
G03*
X141370Y185880I1021J-1021D01*
G01*
X145274Y191826D02*
G03*
X145274Y193869I-1021J1021D01*
G01*
D02*
G03*
X143231Y193869I-1021J-1021D01*
G01*
X133849Y186530D02*
G03*
X135892Y186530I1021J1021D01*
G01*
X133849Y188573D02*
G03*
X133849Y186530I1021J-1021D01*
G01*
X141188Y195912D02*
G03*
X141188Y197955I-1021J1021D01*
G01*
D02*
G03*
X139145Y197955I-1021J-1021D01*
G01*
X129763Y190616D02*
G03*
X131806Y190616I1021J1021D01*
G01*
X129763Y192658D02*
G03*
X129763Y190616I1021J-1021D01*
G01*
X137102Y199998D02*
G03*
X137102Y202041I-1021J1021D01*
G01*
D02*
G03*
X135060Y202041I-1021J-1021D01*
G01*
X125677Y194701D02*
G03*
X127720Y194701I1021J1021D01*
G01*
X125677Y196744D02*
G03*
X125677Y194701I1021J-1021D01*
G01*
X133017Y204083D02*
G03*
X133017Y206126I-1021J1021D01*
G01*
D02*
G03*
X130974Y206126I-1021J-1021D01*
G01*
X121592Y198787D02*
G03*
X123635Y198787I1021J1021D01*
G01*
X121592Y200830D02*
G03*
X121592Y198787I1021J-1021D01*
G01*
X128931Y208169D02*
G03*
X128931Y210212I-1021J1021D01*
G01*
D02*
G03*
X126888Y210212I-1021J-1021D01*
G01*
X117506Y202873D02*
G03*
X119549Y202873I1021J1021D01*
G01*
X117506Y204915D02*
G03*
X117506Y202873I1021J-1021D01*
G01*
X124846Y212255D02*
G03*
X124846Y214298I-1021J1021D01*
G01*
D02*
G03*
X122803Y214298I-1021J-1021D01*
G01*
X113421Y206958D02*
G03*
X115463Y206958I1021J1021D01*
G01*
X113421Y209001D02*
G03*
X113421Y206958I1021J-1021D01*
G01*
X120760Y216340D02*
G03*
X120760Y218383I-1021J1021D01*
G01*
D02*
G03*
X118717Y218383I-1021J-1021D01*
G01*
X109335Y211044D02*
G03*
X111378Y211044I1021J1021D01*
G01*
X109335Y213087D02*
G03*
X109335Y211044I1021J-1021D01*
G01*
X116674Y220426D02*
G03*
X116674Y222469I-1021J1021D01*
G01*
D02*
G03*
X114631Y222469I-1021J-1021D01*
G01*
X105249Y215130D02*
G03*
X107292Y215130I1021J1021D01*
G01*
X105249Y217172D02*
G03*
X105249Y215130I1021J-1021D01*
G01*
X112589Y224512D02*
G03*
X112589Y226555I-1021J1021D01*
G01*
D02*
G03*
X110546Y226555I-1021J-1021D01*
G01*
X101164Y219215D02*
G03*
X103206Y219215I1021J1021D01*
G01*
X101164Y221258D02*
G03*
X101164Y219215I1021J-1021D01*
G01*
X108503Y228597D02*
G03*
X108503Y230640I-1021J1021D01*
G01*
D02*
G03*
X106460Y230640I-1021J-1021D01*
G01*
X97078Y223301D02*
G03*
X99121Y223301I1021J1021D01*
G01*
X97078Y225344D02*
G03*
X97078Y223301I1021J-1021D01*
G01*
X104417Y232683D02*
G03*
X104417Y234726I-1021J1021D01*
G01*
D02*
G03*
X102374Y234726I-1021J-1021D01*
G01*
X92992Y227386D02*
G03*
X95035Y227386I1021J1021D01*
G01*
X92992Y229429D02*
G03*
X92992Y227386I1021J-1021D01*
G01*
X100332Y236769D02*
G03*
X100332Y238811I-1021J1021D01*
G01*
D02*
G03*
X98289Y238811I-1021J-1021D01*
G01*
X92342Y234908D02*
G03*
X94385Y234908I1021J1021D01*
G01*
X185493Y388028D02*
G03*
X186283Y387238I790J0D01*
G01*
X185493Y388028D02*
G03*
X184048Y389472I-1444J0D01*
G01*
D02*
G03*
X182604Y388028I0J-1444D01*
G01*
X181814Y387238D02*
G03*
X182604Y388028I0J790D01*
G01*
X179715D02*
G03*
X180504Y387238I790J0D01*
G01*
X179715Y388028D02*
G03*
X178270Y389472I-1444J0D01*
G01*
D02*
G03*
X176826Y388028I0J-1444D01*
G01*
X176036Y387238D02*
G03*
X176826Y388028I0J790D01*
G01*
X173937D02*
G03*
X174727Y387238I790J0D01*
G01*
X173937Y388028D02*
G03*
X172492Y389472I-1444J0D01*
G01*
D02*
G03*
X171048Y388028I0J-1444D01*
G01*
X170258Y387238D02*
G03*
X171048Y388028I0J790D01*
G01*
X168159D02*
G03*
X168949Y387238I790J0D01*
G01*
X168159Y388028D02*
G03*
X166714Y389472I-1444J0D01*
G01*
D02*
G03*
X165270Y388028I0J-1444D01*
G01*
X164480Y387238D02*
G03*
X165270Y388028I0J790D01*
G01*
X162381D02*
G03*
X163171Y387238I790J0D01*
G01*
X162381Y388028D02*
G03*
X160936Y389472I-1444J0D01*
G01*
D02*
G03*
X159492Y388028I0J-1444D01*
G01*
X158702Y387238D02*
G03*
X159492Y388028I0J790D01*
G01*
X156603D02*
G03*
X157393Y387238I790J0D01*
G01*
X156603Y388028D02*
G03*
X155158Y389472I-1444J0D01*
G01*
D02*
G03*
X153714Y388028I0J-1444D01*
G01*
X152924Y387238D02*
G03*
X153714Y388028I0J790D01*
G01*
X150825D02*
G03*
X151615Y387238I790J0D01*
G01*
X150825Y388028D02*
G03*
X149380Y389472I-1444J0D01*
G01*
D02*
G03*
X147936Y388028I0J-1444D01*
G01*
X147146Y387238D02*
G03*
X147936Y388028I0J790D01*
G01*
X145047D02*
G03*
X145837Y387238I790J0D01*
G01*
X145047Y388028D02*
G03*
X143602Y389472I-1444J0D01*
G01*
D02*
G03*
X142158Y388028I0J-1444D01*
G01*
X141368Y387238D02*
G03*
X142158Y388028I0J790D01*
G01*
X139269D02*
G03*
X140059Y387238I790J0D01*
G01*
X139269Y388028D02*
G03*
X137824Y389472I-1444J0D01*
G01*
D02*
G03*
X136380Y388028I0J-1444D01*
G01*
X135590Y387238D02*
G03*
X136380Y388028I0J790D01*
G01*
X133491D02*
G03*
X134281Y387238I790J0D01*
G01*
X133491Y388028D02*
G03*
X132046Y389472I-1444J0D01*
G01*
D02*
G03*
X130602Y388028I0J-1444D01*
G01*
X129812Y387238D02*
G03*
X130602Y388028I0J790D01*
G01*
X127713D02*
G03*
X128503Y387238I790J0D01*
G01*
X127713Y388028D02*
G03*
X126268Y389472I-1444J0D01*
G01*
D02*
G03*
X124824Y388028I0J-1444D01*
G01*
X124034Y387238D02*
G03*
X124824Y388028I0J790D01*
G01*
X121935D02*
G03*
X122725Y387238I790J0D01*
G01*
X121935Y388028D02*
G03*
X120490Y389472I-1444J0D01*
G01*
D02*
G03*
X119046Y388028I0J-1444D01*
G01*
X118256Y387238D02*
G03*
X119046Y388028I0J790D01*
G01*
X116157D02*
G03*
X116947Y387238I790J0D01*
G01*
X116157Y388028D02*
G03*
X114712Y389472I-1444J0D01*
G01*
D02*
G03*
X113268Y388028I0J-1444D01*
G01*
X112478Y387238D02*
G03*
X113268Y388028I0J790D01*
G01*
X110379D02*
G03*
X111169Y387238I790J0D01*
G01*
X110379Y388028D02*
G03*
X108934Y389472I-1444J0D01*
G01*
D02*
G03*
X107490Y388028I0J-1444D01*
G01*
X106700Y387238D02*
G03*
X107490Y388028I0J790D01*
G01*
X104601D02*
G03*
X105391Y387238I790J0D01*
G01*
X104601Y388028D02*
G03*
X103156Y389472I-1444J0D01*
G01*
D02*
G03*
X101712Y388028I0J-1444D01*
G01*
X100922Y387238D02*
G03*
X101712Y388028I0J790D01*
G01*
X98823D02*
G03*
X99613Y387238I790J0D01*
G01*
X98823Y388028D02*
G03*
X97378Y389472I-1444J0D01*
G01*
D02*
G03*
X95934Y388028I0J-1444D01*
G01*
X95144Y387238D02*
G03*
X95934Y388028I0J790D01*
G01*
X93045D02*
G03*
X93835Y387238I790J0D01*
G01*
X93045Y388028D02*
G03*
X91600Y389472I-1444J0D01*
G01*
D02*
G03*
X90156Y388028I0J-1444D01*
G01*
X89366Y387238D02*
G03*
X90156Y388028I0J790D01*
G01*
X87267D02*
G03*
X88057Y387238I790J0D01*
G01*
X87267Y388028D02*
G03*
X85822Y389472I-1444J0D01*
G01*
D02*
G03*
X84378Y388028I0J-1444D01*
G01*
X83588Y387238D02*
G03*
X84378Y388028I0J790D01*
G01*
X81489D02*
G03*
X82279Y387238I790J0D01*
G01*
X81489Y388028D02*
G03*
X80044Y389472I-1444J0D01*
G01*
D02*
G03*
X78600Y388028I0J-1444D01*
G01*
X77810Y387238D02*
G03*
X78600Y388028I0J790D01*
G01*
X155330Y189930D02*
G03*
X153885Y191374I-1444J0D01*
G01*
X155330Y186742D02*
G03*
X156774Y185298I1444J0D01*
G01*
D02*
G03*
X158219Y186742I0J1444D01*
G01*
X158976Y192132D02*
G03*
X158219Y191374I0J-758D01*
G01*
X161108D02*
G03*
X160350Y192132I-758J0D01*
G01*
X161108Y186742D02*
G03*
X162552Y185298I1444J0D01*
G01*
D02*
G03*
X163997Y186742I0J1444D01*
G01*
X164755Y192132D02*
G03*
X163997Y191374I0J-758D01*
G01*
X166886D02*
G03*
X166128Y192132I-758J0D01*
G01*
X166886Y186742D02*
G03*
X168330Y185298I1444J0D01*
G01*
D02*
G03*
X169775Y186742I0J1444D01*
G01*
X170532Y192132D02*
G03*
X169775Y191374I0J-758D01*
G01*
X172664D02*
G03*
X171906Y192132I-758J0D01*
G01*
X172664Y186742D02*
G03*
X174108Y185298I1444J0D01*
G01*
D02*
G03*
X175553Y186742I0J1444D01*
G01*
X176311Y192132D02*
G03*
X175553Y191374I0J-758D01*
G01*
X178442D02*
G03*
X177684Y192132I-758J0D01*
G01*
X178442Y186742D02*
G03*
X179886Y185298I1444J0D01*
G01*
D02*
G03*
X181331Y186742I0J1444D01*
G01*
X182089Y192132D02*
G03*
X181331Y191374I0J-758D01*
G01*
X184220D02*
G03*
X183462Y192132I-758J0D01*
G01*
X184220Y186742D02*
G03*
X185664Y185298I1444J0D01*
G01*
D02*
G03*
X187109Y186742I0J1444D01*
G01*
X187866Y192132D02*
G03*
X187109Y191374I0J-758D01*
G01*
X189998D02*
G03*
X189240Y192132I-758J0D01*
G01*
X189998Y186742D02*
G03*
X191442Y185298I1444J0D01*
G01*
D02*
G03*
X192887Y186742I0J1444D01*
G01*
X193645Y192132D02*
G03*
X192887Y191374I0J-758D01*
G01*
X195776D02*
G03*
X195018Y192132I-758J0D01*
G01*
X195776Y186742D02*
G03*
X197220Y185298I1444J0D01*
G01*
D02*
G03*
X198665Y186742I0J1444D01*
G01*
X199422Y192132D02*
G03*
X198665Y191374I0J-758D01*
G01*
X201553D02*
G03*
X200796Y192132I-758J0D01*
G01*
X201553Y186742D02*
G03*
X202998Y185298I1444J0D01*
G01*
D02*
G03*
X204443Y186742I0J1444D01*
G01*
X205201Y192132D02*
G03*
X204443Y191374I0J-758D01*
G01*
X207332D02*
G03*
X206574Y192132I-758J0D01*
G01*
X207332Y186742D02*
G03*
X208776Y185298I1444J0D01*
G01*
D02*
G03*
X210221Y186742I0J1444D01*
G01*
X210978Y192132D02*
G03*
X210221Y191374I0J-758D01*
G01*
X213109D02*
G03*
X212352Y192132I-758J0D01*
G01*
X213109Y186742D02*
G03*
X214554Y185298I1444J0D01*
G01*
D02*
G03*
X215998Y186742I0J1444D01*
G01*
X216756Y192132D02*
G03*
X215998Y191374I0J-758D01*
G01*
X218888D02*
G03*
X218130Y192132I-758J0D01*
G01*
X218888Y186742D02*
G03*
X220332Y185298I1444J0D01*
G01*
D02*
G03*
X221777Y186742I0J1444D01*
G01*
X222534Y192132D02*
G03*
X221777Y191374I0J-758D01*
G01*
X224666D02*
G03*
X223908Y192132I-758J0D01*
G01*
X224666Y186742D02*
G03*
X226110Y185298I1444J0D01*
G01*
D02*
G03*
X227554Y186742I0J1444D01*
G01*
X228312Y192132D02*
G03*
X227554Y191374I0J-758D01*
G01*
X230443D02*
G03*
X229686Y192132I-758J0D01*
G01*
X230443Y186742D02*
G03*
X231888Y185298I1444J0D01*
G01*
D02*
G03*
X233333Y186742I0J1444D01*
G01*
X234090Y192132D02*
G03*
X233333Y191374I0J-758D01*
G01*
X236222D02*
G03*
X235464Y192132I-758J0D01*
G01*
X56229Y291386D02*
G03*
X56229Y293428I-1021J1021D01*
G01*
X55632Y290789D02*
G03*
X55632Y288747I1021J-1021D01*
G01*
D02*
G03*
X57675Y288747I1021J1021D01*
G01*
X60314Y289343D02*
G03*
X58271Y289343I-1021J-1021D01*
G01*
X60314Y287300D02*
G03*
X60314Y289343I-1021J1021D01*
G01*
X59718Y286704D02*
G03*
X59718Y284661I1021J-1021D01*
G01*
D02*
G03*
X61761Y284661I1021J1021D01*
G01*
X64400Y285257D02*
G03*
X62357Y285257I-1021J-1021D01*
G01*
X64400Y283214D02*
G03*
X64400Y285257I-1021J1021D01*
G01*
X63804Y282618D02*
G03*
X63804Y280575I1021J-1021D01*
G01*
D02*
G03*
X65846Y280575I1021J1021D01*
G01*
X68486Y281171D02*
G03*
X66443Y281171I-1021J-1021D01*
G01*
X68486Y279129D02*
G03*
X68486Y281171I-1021J1021D01*
G01*
X67889Y278532D02*
G03*
X67889Y276490I1021J-1021D01*
G01*
D02*
G03*
X69932Y276490I1021J1021D01*
G01*
X72571Y277086D02*
G03*
X70528Y277086I-1021J-1021D01*
G01*
X72571Y275043D02*
G03*
X72571Y277086I-1021J1021D01*
G01*
X71975Y274447D02*
G03*
X71975Y272404I1021J-1021D01*
G01*
D02*
G03*
X74018Y272404I1021J1021D01*
G01*
X76657Y273000D02*
G03*
X74614Y273000I-1021J-1021D01*
G01*
X76657Y270957D02*
G03*
X76657Y273000I-1021J1021D01*
G01*
X76061Y270361D02*
G03*
X76061Y268318I1021J-1021D01*
G01*
D02*
G03*
X78103Y268318I1021J1021D01*
G01*
X80743Y268915D02*
G03*
X78700Y268915I-1021J-1021D01*
G01*
X80743Y266872D02*
G03*
X80743Y268915I-1021J1021D01*
G01*
X80146Y266275D02*
G03*
X80146Y264233I1021J-1021D01*
G01*
D02*
G03*
X82189Y264233I1021J1021D01*
G01*
X84828Y264829D02*
G03*
X82785Y264829I-1021J-1021D01*
G01*
X84828Y262786D02*
G03*
X84828Y264829I-1021J1021D01*
G01*
X84232Y262190D02*
G03*
X84232Y260147I1021J-1021D01*
G01*
D02*
G03*
X86275Y260147I1021J1021D01*
G01*
X88914Y260743D02*
G03*
X86871Y260743I-1021J-1021D01*
G01*
X88914Y258700D02*
G03*
X88914Y260743I-1021J1021D01*
G01*
X88318Y258104D02*
G03*
X88318Y256061I1021J-1021D01*
G01*
D02*
G03*
X90360Y256061I1021J1021D01*
G01*
X92999Y256658D02*
G03*
X90957Y256658I-1021J-1021D01*
G01*
X92999Y254615D02*
G03*
X92999Y256658I-1021J1021D01*
G01*
X92403Y254018D02*
G03*
X92403Y251976I1021J-1021D01*
G01*
D02*
G03*
X94446Y251976I1021J1021D01*
G01*
X97085Y252572D02*
G03*
X95042Y252572I-1021J-1021D01*
G01*
X97085Y250529D02*
G03*
X97085Y252572I-1021J1021D01*
G01*
X96489Y249933D02*
G03*
X96489Y247890I1021J-1021D01*
G01*
D02*
G03*
X98532Y247890I1021J1021D01*
G01*
X101171Y248486D02*
G03*
X99128Y248486I-1021J-1021D01*
G01*
X101171Y246444D02*
G03*
X101171Y248486I-1021J1021D01*
G01*
X100575Y245847D02*
G03*
X100575Y243804I1021J-1021D01*
G01*
D02*
G03*
X102617Y243804I1021J1021D01*
G01*
X105257Y244401D02*
G03*
X103214Y244401I-1021J-1021D01*
G01*
X105257Y242358D02*
G03*
X105257Y244401I-1021J1021D01*
G01*
X104660Y241761D02*
G03*
X104660Y239719I1021J-1021D01*
G01*
D02*
G03*
X106703Y239719I1021J1021D01*
G01*
X109342Y240315D02*
G03*
X107299Y240315I-1021J-1021D01*
G01*
X109342Y238272D02*
G03*
X109342Y240315I-1021J1021D01*
G01*
X108746Y237676D02*
G03*
X108746Y235633I1021J-1021D01*
G01*
D02*
G03*
X110789Y235633I1021J1021D01*
G01*
X113428Y236229D02*
G03*
X111385Y236229I-1021J-1021D01*
G01*
X113428Y234186D02*
G03*
X113428Y236229I-1021J1021D01*
G01*
X112831Y233590D02*
G03*
X112831Y231547I1021J-1021D01*
G01*
D02*
G03*
X114874Y231547I1021J1021D01*
G01*
X117514Y232144D02*
G03*
X115471Y232144I-1021J-1021D01*
G01*
X117514Y230101D02*
G03*
X117514Y232144I-1021J1021D01*
G01*
X116917Y229505D02*
G03*
X116917Y227462I1021J-1021D01*
G01*
D02*
G03*
X118960Y227462I1021J1021D01*
G01*
X121599Y228058D02*
G03*
X119556Y228058I-1021J-1021D01*
G01*
X121599Y226015D02*
G03*
X121599Y228058I-1021J1021D01*
G01*
X121003Y225419D02*
G03*
X121003Y223376I1021J-1021D01*
G01*
D02*
G03*
X123046Y223376I1021J1021D01*
G01*
X125685Y223972D02*
G03*
X123642Y223972I-1021J-1021D01*
G01*
X125685Y221929D02*
G03*
X125685Y223972I-1021J1021D01*
G01*
X125088Y221333D02*
G03*
X125088Y219290I1021J-1021D01*
G01*
D02*
G03*
X127131Y219290I1021J1021D01*
G01*
X129770Y219887D02*
G03*
X127728Y219887I-1021J-1021D01*
G01*
X129770Y217844D02*
G03*
X129770Y219887I-1021J1021D01*
G01*
X129174Y217247D02*
G03*
X129174Y215205I1021J-1021D01*
G01*
D02*
G03*
X131217Y215205I1021J1021D01*
G01*
X133856Y215801D02*
G03*
X131813Y215801I-1021J-1021D01*
G01*
X133856Y213758D02*
G03*
X133856Y215801I-1021J1021D01*
G01*
X133260Y213162D02*
G03*
X133260Y211119I1021J-1021D01*
G01*
D02*
G03*
X135302Y211119I1021J1021D01*
G01*
X137942Y211715D02*
G03*
X135899Y211715I-1021J-1021D01*
G01*
X137942Y209673D02*
G03*
X137942Y211715I-1021J1021D01*
G01*
X137345Y209076D02*
G03*
X137345Y207033I1021J-1021D01*
G01*
D02*
G03*
X139388Y207033I1021J1021D01*
G01*
X142027Y207630D02*
G03*
X139985Y207630I-1021J-1021D01*
G01*
X142027Y205587D02*
G03*
X142027Y207630I-1021J1021D01*
G01*
X141431Y204990D02*
G03*
X141431Y202948I1021J-1021D01*
G01*
D02*
G03*
X143474Y202948I1021J1021D01*
G01*
X146113Y203544D02*
G03*
X144070Y203544I-1021J-1021D01*
G01*
X146113Y201501D02*
G03*
X146113Y203544I-1021J1021D01*
G01*
X145517Y200905D02*
G03*
X145517Y198862I1021J-1021D01*
G01*
D02*
G03*
X147559Y198862I1021J1021D01*
G01*
X150199Y199458D02*
G03*
X148156Y199458I-1021J-1021D01*
G01*
X155413Y198014D02*
G03*
X153968Y199458I-1444J0D01*
G01*
X155413Y194743D02*
G03*
X156858Y193298I1444J0D01*
G01*
D02*
G03*
X158302Y194743I0J1444D01*
G01*
X159747Y199458D02*
G03*
X158302Y198014I0J-1444D01*
G01*
X161191D02*
G03*
X159747Y199458I-1444J0D01*
G01*
X161191Y194743D02*
G03*
X162635Y193298I1444J0D01*
G01*
D02*
G03*
X164080Y194743I0J1444D01*
G01*
X165525Y199458D02*
G03*
X164080Y198014I0J-1444D01*
G01*
X166969D02*
G03*
X165525Y199458I-1444J0D01*
G01*
X166969Y194743D02*
G03*
X168414Y193298I1444J0D01*
G01*
D02*
G03*
X169858Y194743I0J1444D01*
G01*
X171303Y199458D02*
G03*
X169858Y198014I0J-1444D01*
G01*
X172747D02*
G03*
X171303Y199458I-1444J0D01*
G01*
X172747Y194743D02*
G03*
X174191Y193298I1444J0D01*
G01*
D02*
G03*
X175636Y194743I0J1444D01*
G01*
X177080Y199458D02*
G03*
X175636Y198014I0J-1444D01*
G01*
X178525D02*
G03*
X177080Y199458I-1444J0D01*
G01*
X178525Y194743D02*
G03*
X179970Y193298I1444J0D01*
G01*
D02*
G03*
X181414Y194743I0J1444D01*
G01*
X182859Y199458D02*
G03*
X181414Y198014I0J-1444D01*
G01*
X184303D02*
G03*
X182859Y199458I-1444J0D01*
G01*
X184303Y194743D02*
G03*
X185748Y193298I1444J0D01*
G01*
D02*
G03*
X187192Y194743I0J1444D01*
G01*
X188636Y199458D02*
G03*
X187192Y198014I0J-1444D01*
G01*
X190081D02*
G03*
X188636Y199458I-1444J0D01*
G01*
X190081Y194743D02*
G03*
X191525Y193298I1444J0D01*
G01*
D02*
G03*
X192970Y194743I0J1444D01*
G01*
X194415Y199458D02*
G03*
X192970Y198014I0J-1444D01*
G01*
X195859D02*
G03*
X194415Y199458I-1444J0D01*
G01*
X195859Y194743D02*
G03*
X197304Y193298I1444J0D01*
G01*
D02*
G03*
X198748Y194743I0J1444D01*
G01*
X200193Y199458D02*
G03*
X198748Y198014I0J-1444D01*
G01*
X201637D02*
G03*
X200193Y199458I-1444J0D01*
G01*
X201637Y194743D02*
G03*
X203081Y193298I1444J0D01*
G01*
D02*
G03*
X204526Y194743I0J1444D01*
G01*
X205970Y202472D02*
G03*
X204526Y201028I0J-1444D01*
G01*
X207415D02*
G03*
X205970Y202472I-1444J0D01*
G01*
X207415Y194743D02*
G03*
X208860Y193298I1444J0D01*
G01*
D02*
G03*
X210304Y194743I0J1444D01*
G01*
X211748Y202472D02*
G03*
X210304Y201028I0J-1444D01*
G01*
X213193D02*
G03*
X211748Y202472I-1444J0D01*
G01*
X213193Y194743D02*
G03*
X214637Y193298I1444J0D01*
G01*
D02*
G03*
X216082Y194743I0J1444D01*
G01*
X217526Y202472D02*
G03*
X216082Y201028I0J-1444D01*
G01*
X218971D02*
G03*
X217526Y202472I-1444J0D01*
G01*
X218971Y194743D02*
G03*
X220415Y193298I1444J0D01*
G01*
D02*
G03*
X221860Y194743I0J1444D01*
G01*
X223304Y202472D02*
G03*
X221860Y201028I0J-1444D01*
G01*
X224749D02*
G03*
X223304Y202472I-1444J0D01*
G01*
X224749Y194743D02*
G03*
X226193Y193298I1444J0D01*
G01*
D02*
G03*
X227638Y194743I0J1444D01*
G01*
X229082Y202472D02*
G03*
X227638Y201028I0J-1444D01*
G01*
X230527D02*
G03*
X229082Y202472I-1444J0D01*
G01*
X230527Y194743D02*
G03*
X231971Y193298I1444J0D01*
G01*
D02*
G03*
X233416Y194743I0J1444D01*
G01*
X234860Y202472D02*
G03*
X233416Y201028I0J-1444D01*
G01*
X236305D02*
G03*
X234860Y202472I-1444J0D01*
G01*
X236305Y200903D02*
G03*
X237749Y199458I1444J0D01*
G01*
X158323Y204302D02*
G03*
X156280Y204302I-1021J-1021D01*
G01*
X151658Y201723D02*
G03*
X153701Y201723I1021J1021D01*
G01*
X151658Y203766D02*
G03*
X151658Y201723I1021J-1021D01*
G01*
X154237Y206345D02*
G03*
X154237Y208388I-1021J1021D01*
G01*
D02*
G03*
X152194Y208388I-1021J-1021D01*
G01*
X147071Y205308D02*
G03*
X149114Y205308I1021J1021D01*
G01*
X147071Y207350D02*
G03*
X147071Y205308I1021J-1021D01*
G01*
X150151Y210431D02*
G03*
X150151Y212473I-1021J1021D01*
G01*
D02*
G03*
X148109Y212473I-1021J-1021D01*
G01*
X142986Y209393D02*
G03*
X145028Y209393I1021J1021D01*
G01*
X142986Y211436D02*
G03*
X142986Y209393I1021J-1021D01*
G01*
X146066Y214516D02*
G03*
X146066Y216559I-1021J1021D01*
G01*
X146066Y216559D02*
G03*
X144023Y216559I-1021J-1021D01*
G01*
X138900Y213479D02*
G03*
X140943Y213479I1021J1021D01*
G01*
X138900Y215522D02*
G03*
X138900Y213479I1021J-1021D01*
G01*
X141980Y218602D02*
G03*
X141980Y220645I-1021J1021D01*
G01*
D02*
G03*
X139937Y220645I-1021J-1021D01*
G01*
X134814Y217565D02*
G03*
X136857Y217565I1021J1021D01*
G01*
X134814Y219607D02*
G03*
X134814Y217565I1021J-1021D01*
G01*
X137894Y222687D02*
G03*
X137894Y224730I-1021J1021D01*
G01*
D02*
G03*
X135852Y224730I-1021J-1021D01*
G01*
X130729Y221650D02*
G03*
X132771Y221650I1021J1021D01*
G01*
X130729Y223693D02*
G03*
X130729Y221650I1021J-1021D01*
G01*
X133809Y226773D02*
G03*
X133809Y228816I-1021J1021D01*
G01*
D02*
G03*
X131766Y228816I-1021J-1021D01*
G01*
X126643Y225736D02*
G03*
X128686Y225736I1021J1021D01*
G01*
X126643Y227779D02*
G03*
X126643Y225736I1021J-1021D01*
G01*
X129723Y230859D02*
G03*
X129723Y232902I-1021J1021D01*
G01*
D02*
G03*
X127680Y232902I-1021J-1021D01*
G01*
X122557Y229821D02*
G03*
X124600Y229821I1021J1021D01*
G01*
X122557Y231864D02*
G03*
X122557Y229821I1021J-1021D01*
G01*
X125638Y234944D02*
G03*
X125638Y236987I-1021J1021D01*
G01*
X125638Y236987D02*
G03*
X123595Y236987I-1021J-1021D01*
G01*
X118472Y233907D02*
G03*
X120514Y233907I1021J1021D01*
G01*
X118472Y235950D02*
G03*
X118472Y233907I1021J-1021D01*
G01*
X121552Y239030D02*
G03*
X121552Y241073I-1021J1021D01*
G01*
D02*
G03*
X119509Y241073I-1021J-1021D01*
G01*
X114386Y237993D02*
G03*
X116429Y237993I1021J1021D01*
G01*
X114386Y240036D02*
G03*
X114386Y237993I1021J-1021D01*
G01*
X117466Y243116D02*
G03*
X117466Y245159I-1021J1021D01*
G01*
D02*
G03*
X115423Y245159I-1021J-1021D01*
G01*
X110300Y242078D02*
G03*
X112343Y242078I1021J1021D01*
G01*
X110300Y244121D02*
G03*
X110300Y242078I1021J-1021D01*
G01*
X113380Y247201D02*
G03*
X113380Y249244I-1021J1021D01*
G01*
X113380Y249244D02*
G03*
X111338Y249244I-1021J-1021D01*
G01*
X106215Y246164D02*
G03*
X108258Y246164I1021J1021D01*
G01*
X106215Y248207D02*
G03*
X106215Y246164I1021J-1021D01*
G01*
X109295Y251287D02*
G03*
X109295Y253330I-1021J1021D01*
G01*
D02*
G03*
X107252Y253330I-1021J-1021D01*
G01*
X102129Y250250D02*
G03*
X104172Y250250I1021J1021D01*
G01*
X102129Y252293D02*
G03*
X102129Y250250I1021J-1021D01*
G01*
X105209Y255373D02*
G03*
X105209Y257416I-1021J1021D01*
G01*
D02*
G03*
X103166Y257416I-1021J-1021D01*
G01*
X98043Y254335D02*
G03*
X100086Y254335I1021J1021D01*
G01*
X98043Y256378D02*
G03*
X98043Y254335I1021J-1021D01*
G01*
X101124Y259458D02*
G03*
X101124Y261501I-1021J1021D01*
G01*
X101124Y261501D02*
G03*
X99081Y261501I-1021J-1021D01*
G01*
X93958Y258421D02*
G03*
X96000Y258421I1021J1021D01*
G01*
X93958Y260464D02*
G03*
X93958Y258421I1021J-1021D01*
G01*
X97038Y263544D02*
G03*
X97038Y265587I-1021J1021D01*
G01*
D02*
G03*
X94995Y265587I-1021J-1021D01*
G01*
X89872Y262507D02*
G03*
X91915Y262507I1021J1021D01*
G01*
X89872Y264550D02*
G03*
X89872Y262507I1021J-1021D01*
G01*
X92952Y267630D02*
G03*
X92952Y269673I-1021J1021D01*
G01*
D02*
G03*
X90909Y269673I-1021J-1021D01*
G01*
X85786Y266592D02*
G03*
X87829Y266592I1021J1021D01*
G01*
X85786Y268635D02*
G03*
X85786Y266592I1021J-1021D01*
G01*
X88867Y271715D02*
G03*
X88867Y273758I-1021J1021D01*
G01*
X88867Y273758D02*
G03*
X86824Y273758I-1021J-1021D01*
G01*
X81701Y270678D02*
G03*
X83743Y270678I1021J1021D01*
G01*
X81701Y272721D02*
G03*
X81701Y270678I1021J-1021D01*
G01*
X84781Y275801D02*
G03*
X84781Y277844I-1021J1021D01*
G01*
D02*
G03*
X82738Y277844I-1021J-1021D01*
G01*
X77615Y274764D02*
G03*
X79658Y274764I1021J1021D01*
G01*
X77615Y276807D02*
G03*
X77615Y274764I1021J-1021D01*
G01*
X80695Y279887D02*
G03*
X80695Y281930I-1021J1021D01*
G01*
D02*
G03*
X78652Y281930I-1021J-1021D01*
G01*
X73529Y278849D02*
G03*
X75572Y278849I1021J1021D01*
G01*
X73529Y280892D02*
G03*
X73529Y278849I1021J-1021D01*
G01*
X76610Y283972D02*
G03*
X76610Y286015I-1021J1021D01*
G01*
X76610Y286015D02*
G03*
X74567Y286015I-1021J-1021D01*
G01*
X69444Y282935D02*
G03*
X71487Y282935I1021J1021D01*
G01*
X69444Y284978D02*
G03*
X69444Y282935I1021J-1021D01*
G01*
X72524Y288058D02*
G03*
X72524Y290101I-1021J1021D01*
G01*
D02*
G03*
X70481Y290101I-1021J-1021D01*
G01*
X65358Y287021D02*
G03*
X67401Y287021I1021J1021D01*
G01*
X65358Y289063D02*
G03*
X65358Y287021I1021J-1021D01*
G01*
X68438Y292144D02*
G03*
X68438Y294186I-1021J1021D01*
G01*
D02*
G03*
X66396Y294186I-1021J-1021D01*
G01*
X61272Y291106D02*
G03*
X63315Y291106I1021J1021D01*
G01*
X61272Y293149D02*
G03*
X61272Y291106I1021J-1021D01*
G01*
X64353Y296229D02*
G03*
X64353Y298272I-1021J1021D01*
G01*
X64353Y298272D02*
G03*
X62310Y298272I-1021J-1021D01*
G01*
X57187Y295192D02*
G03*
X59230Y295192I1021J1021D01*
G01*
X57187Y297235D02*
G03*
X57187Y295192I1021J-1021D01*
G01*
X60267Y300315D02*
G03*
X60267Y302358I-1021J1021D01*
G01*
D02*
G03*
X58224Y302358I-1021J-1021D01*
G01*
X54561Y300738D02*
G03*
X56604Y300738I1021J1021D01*
G01*
X54561Y302780D02*
G03*
X54561Y300738I1021J-1021D01*
G01*
X56181Y304401D02*
G03*
X56181Y306444I-1021J1021D01*
G01*
X170141Y367282D02*
G03*
X171423Y366000I1282J0D01*
G01*
X170141Y367282D02*
G03*
X168697Y368727I-1444J0D01*
G01*
D02*
G03*
X167252Y367282I0J-1444D01*
G01*
X165808Y363445D02*
G03*
X167252Y364889I0J1444D01*
G01*
X164363D02*
G03*
X165808Y363445I1444J0D01*
G01*
X164363Y367282D02*
G03*
X162919Y368727I-1444J0D01*
G01*
D02*
G03*
X161474Y367282I0J-1444D01*
G01*
X160030Y363445D02*
G03*
X161474Y364889I0J1444D01*
G01*
X158585D02*
G03*
X160030Y363445I1444J0D01*
G01*
X158585Y367282D02*
G03*
X157141Y368727I-1444J0D01*
G01*
D02*
G03*
X155696Y367282I0J-1444D01*
G01*
X154252Y363445D02*
G03*
X155696Y364889I0J1444D01*
G01*
X152807D02*
G03*
X154252Y363445I1444J0D01*
G01*
X152807Y367282D02*
G03*
X151363Y368727I-1444J0D01*
G01*
D02*
G03*
X149918Y367282I0J-1444D01*
G01*
X148474Y363445D02*
G03*
X149918Y364889I0J1444D01*
G01*
X147029D02*
G03*
X148474Y363445I1444J0D01*
G01*
X147029Y367282D02*
G03*
X145585Y368727I-1444J0D01*
G01*
D02*
G03*
X144141Y367282I0J-1444D01*
G01*
X142696Y363445D02*
G03*
X144141Y364889I0J1444D01*
G01*
X141251D02*
G03*
X142696Y363445I1444J0D01*
G01*
X141251Y367282D02*
G03*
X139807Y368727I-1444J0D01*
G01*
D02*
G03*
X138363Y367282I0J-1444D01*
G01*
X136918Y363445D02*
G03*
X138363Y364889I0J1444D01*
G01*
X135473D02*
G03*
X136918Y363445I1444J0D01*
G01*
X135473Y367282D02*
G03*
X134029Y368727I-1444J0D01*
G01*
D02*
G03*
X132584Y367282I0J-1444D01*
G01*
X131140Y363445D02*
G03*
X132584Y364889I0J1444D01*
G01*
X129696D02*
G03*
X131140Y363445I1444J0D01*
G01*
X129696Y367282D02*
G03*
X128251Y368727I-1444J0D01*
G01*
D02*
G03*
X126806Y367282I0J-1444D01*
G01*
X125362Y363445D02*
G03*
X126806Y364889I0J1444D01*
G01*
X123918D02*
G03*
X125362Y363445I1444J0D01*
G01*
X123918Y367282D02*
G03*
X122473Y368727I-1444J0D01*
G01*
D02*
G03*
X121028Y367282I0J-1444D01*
G01*
X119584Y363445D02*
G03*
X121028Y364889I0J1444D01*
G01*
X118139D02*
G03*
X119584Y363445I1444J0D01*
G01*
X118139Y367282D02*
G03*
X116695Y368727I-1444J0D01*
G01*
D02*
G03*
X115251Y367282I0J-1444D01*
G01*
X113806Y363445D02*
G03*
X115251Y364889I0J1444D01*
G01*
X112361D02*
G03*
X113806Y363445I1444J0D01*
G01*
X112361Y367282D02*
G03*
X110917Y368727I-1444J0D01*
G01*
D02*
G03*
X109473Y367282I0J-1444D01*
G01*
X108028Y363445D02*
G03*
X109473Y364889I0J1444D01*
G01*
X106583D02*
G03*
X108028Y363445I1444J0D01*
G01*
X106583Y367282D02*
G03*
X105139Y368727I-1444J0D01*
G01*
D02*
G03*
X103694Y367282I0J-1444D01*
G01*
X102413Y366000D02*
G03*
X103694Y367282I0J1282D01*
G01*
X157801Y249381D02*
G03*
X157801Y247338I1021J-1021D01*
G01*
X162624Y254204D02*
G03*
X162624Y256247I-1021J1021D01*
G01*
D02*
G03*
X160582Y256247I-1021J-1021D01*
G01*
X153715Y251424D02*
G03*
X155758Y251424I1021J1021D01*
G01*
X153715Y253466D02*
G03*
X153715Y251424I1021J-1021D01*
G01*
X158539Y258290D02*
G03*
X158539Y260333I-1021J1021D01*
G01*
D02*
G03*
X156496Y260333I-1021J-1021D01*
G01*
X149630Y255509D02*
G03*
X151673Y255509I1021J1021D01*
G01*
X149630Y257552D02*
G03*
X149630Y255509I1021J-1021D01*
G01*
X154453Y262375D02*
G03*
X154453Y264418I-1021J1021D01*
G01*
D02*
G03*
X152410Y264418I-1021J-1021D01*
G01*
X145544Y259595D02*
G03*
X147587Y259595I1021J1021D01*
G01*
X145544Y261638D02*
G03*
X145544Y259595I1021J-1021D01*
G01*
X150367Y266461D02*
G03*
X150367Y268504I-1021J1021D01*
G01*
D02*
G03*
X148325Y268504I-1021J-1021D01*
G01*
X141459Y263681D02*
G03*
X143501Y263681I1021J1021D01*
G01*
X141459Y265723D02*
G03*
X141459Y263681I1021J-1021D01*
G01*
X146282Y270547D02*
G03*
X146282Y272589I-1021J1021D01*
G01*
D02*
G03*
X144239Y272589I-1021J-1021D01*
G01*
X137373Y267766D02*
G03*
X139416Y267766I1021J1021D01*
G01*
X137373Y269809D02*
G03*
X137373Y267766I1021J-1021D01*
G01*
X142196Y274632D02*
G03*
X142196Y276675I-1021J1021D01*
G01*
D02*
G03*
X140153Y276675I-1021J-1021D01*
G01*
X133287Y271852D02*
G03*
X135330Y271852I1021J1021D01*
G01*
X133287Y273895D02*
G03*
X133287Y271852I1021J-1021D01*
G01*
X138110Y278718D02*
G03*
X138110Y280761I-1021J1021D01*
G01*
D02*
G03*
X136068Y280761I-1021J-1021D01*
G01*
X129202Y275938D02*
G03*
X131244Y275938I1021J1021D01*
G01*
X129202Y277980D02*
G03*
X129202Y275938I1021J-1021D01*
G01*
X134025Y282804D02*
G03*
X134025Y284846I-1021J1021D01*
G01*
D02*
G03*
X131982Y284846I-1021J-1021D01*
G01*
X125116Y280023D02*
G03*
X127159Y280023I1021J1021D01*
G01*
X125116Y282066D02*
G03*
X125116Y280023I1021J-1021D01*
G01*
X129939Y286889D02*
G03*
X129939Y288932I-1021J1021D01*
G01*
D02*
G03*
X127896Y288932I-1021J-1021D01*
G01*
X121030Y284109D02*
G03*
X123073Y284109I1021J1021D01*
G01*
X121030Y286152D02*
G03*
X121030Y284109I1021J-1021D01*
G01*
X125854Y290975D02*
G03*
X125854Y293018I-1021J1021D01*
G01*
D02*
G03*
X123811Y293018I-1021J-1021D01*
G01*
X116945Y288195D02*
G03*
X118987Y288195I1021J1021D01*
G01*
X120839Y273022D02*
G03*
X118796Y273022I-1021J-1021D01*
G01*
X114680Y270949D02*
G03*
X116723Y270949I1021J1021D01*
G01*
X114680Y272992D02*
G03*
X114680Y270949I1021J-1021D01*
G01*
X119775Y278086D02*
G03*
X119775Y280129I-1021J1021D01*
G01*
D02*
G03*
X117732Y280129I-1021J-1021D01*
G01*
X110594Y275034D02*
G03*
X112637Y275034I1021J1021D01*
G01*
X110594Y277077D02*
G03*
X110594Y275034I1021J-1021D01*
G01*
X115689Y282172D02*
G03*
X115689Y284215I-1021J1021D01*
G01*
D02*
G03*
X113646Y284215I-1021J-1021D01*
G01*
X106509Y279120D02*
G03*
X108551Y279120I1021J1021D01*
G01*
X106509Y281163D02*
G03*
X106509Y279120I1021J-1021D01*
G01*
X111603Y286258D02*
G03*
X111603Y288300I-1021J1021D01*
G01*
D02*
G03*
X109560Y288300I-1021J-1021D01*
G01*
X102423Y283206D02*
G03*
X104466Y283206I1021J1021D01*
G01*
X102423Y285249D02*
G03*
X102423Y283206I1021J-1021D01*
G01*
X107518Y290343D02*
G03*
X107518Y292386I-1021J1021D01*
G01*
D02*
G03*
X105475Y292386I-1021J-1021D01*
G01*
X98337Y287291D02*
G03*
X100380Y287291I1021J1021D01*
G01*
X98337Y289334D02*
G03*
X98337Y287291I1021J-1021D01*
G01*
X103432Y294429D02*
G03*
X103432Y296472I-1021J1021D01*
G01*
D02*
G03*
X101389Y296472I-1021J-1021D01*
G01*
X94252Y291377D02*
G03*
X96294Y291377I1021J1021D01*
G01*
X94252Y293420D02*
G03*
X94252Y291377I1021J-1021D01*
G01*
X99346Y298515D02*
G03*
X99346Y300557I-1021J1021D01*
G01*
D02*
G03*
X97304Y300557I-1021J-1021D01*
G01*
X90166Y295463D02*
G03*
X92209Y295463I1021J1021D01*
G01*
X90166Y297505D02*
G03*
X90166Y295463I1021J-1021D01*
G01*
X95261Y302600D02*
G03*
X95261Y304643I-1021J1021D01*
G01*
D02*
G03*
X93218Y304643I-1021J-1021D01*
G01*
X86080Y299548D02*
G03*
X88123Y299548I1021J1021D01*
G01*
X86080Y301591D02*
G03*
X86080Y299548I1021J-1021D01*
G01*
X91175Y306686D02*
G03*
X91175Y308729I-1021J1021D01*
G01*
D02*
G03*
X89132Y308729I-1021J-1021D01*
G01*
X86111Y307750D02*
G03*
X88153Y307750I1021J1021D01*
G01*
X153194Y464023D02*
X180509D01*
X151957D02*
X153194D01*
X150513Y465467D02*
Y470361D01*
X147624Y464023D02*
Y470361D01*
Y460972D02*
Y464023D01*
X144735Y460972D02*
Y464023D01*
Y470361D01*
X141846Y464023D02*
Y470361D01*
Y460972D02*
Y464023D01*
X138957Y460972D02*
Y464023D01*
Y470361D01*
X136068Y464023D02*
Y470361D01*
Y460972D02*
Y464023D01*
X133179Y460972D02*
Y464023D01*
Y470361D01*
X130290Y464023D02*
Y470361D01*
Y460972D02*
Y464023D01*
X127401Y460972D02*
Y464023D01*
Y470361D01*
X124512Y464023D02*
Y470361D01*
Y460972D02*
Y464023D01*
X121623Y460972D02*
Y462578D01*
X118734Y464023D02*
X120178D01*
X117289D02*
X118734D01*
X113017Y459750D02*
X117289Y464023D01*
X105521Y459750D02*
X113017D01*
X22360Y376589D02*
X105521Y459750D01*
X22360Y350264D02*
Y376589D01*
Y350264D02*
X26986Y345639D01*
X31014D01*
X35778Y350403D01*
Y357278D01*
X39000Y360500D01*
X222833Y483834D02*
X227750Y488750D01*
X211194Y483834D02*
X222833D01*
X185111Y457750D02*
X211194Y483834D01*
X175500Y457750D02*
X185111D01*
X106860D02*
X151750D01*
X174862D02*
X175500D01*
X173417Y459194D02*
Y460801D01*
X170528Y457750D02*
Y460801D01*
X168695Y456694D02*
X169473D01*
X167639Y457750D02*
Y460801D01*
X164750Y457750D02*
Y460801D01*
X162917Y456694D02*
X163695D01*
X161861Y457750D02*
Y460801D01*
X158973Y457750D02*
Y460801D01*
X157139Y456694D02*
X157917D01*
X156083Y457750D02*
Y460801D01*
X153195Y459194D02*
Y460801D01*
X24139Y375028D02*
X106860Y457750D01*
X24139Y351001D02*
Y375028D01*
Y351001D02*
X27723Y347416D01*
X30277D01*
X34000Y351139D01*
Y359861D01*
X37723Y363583D01*
X50277D01*
X53361Y360500D01*
X59000D01*
X150199Y199458D02*
X151000D01*
X232250Y477250D02*
X235750Y480750D01*
X210146Y477250D02*
X232250D01*
X187396Y454500D02*
X210146Y477250D01*
X141250Y454500D02*
X187396D01*
X139348D02*
X141250D01*
X137904D02*
X139348D01*
X136459Y446139D02*
Y453055D01*
X133570Y446139D02*
Y453055D01*
X130681Y446139D02*
Y453055D01*
X127792Y446139D02*
Y453055D01*
X124903Y446139D02*
Y453055D01*
X122014Y446139D02*
Y453055D01*
X119125Y446139D02*
Y453055D01*
X116236Y446139D02*
Y453055D01*
X113347Y446139D02*
Y453055D01*
X110458Y446139D02*
Y453055D01*
X107569Y454500D02*
X109014D01*
X106125D02*
X107569D01*
X25917Y374292D02*
X106125Y454500D01*
X25917Y363583D02*
Y374292D01*
Y363583D02*
X29000Y360500D01*
X324250Y126167D02*
X331500D01*
X323139Y127278D02*
Y127610D01*
X318804Y126167D02*
X318808D01*
X312994D02*
X313030D01*
X307250D02*
X307284D01*
X341800Y92646D02*
X352750Y103596D01*
Y114764D01*
X341347Y126167D02*
X352750Y114764D01*
X331500Y126167D02*
X332714D01*
X338424D02*
X339902D01*
X341347D01*
X293563Y172381D02*
X304702Y183520D01*
X293563Y139138D02*
Y172381D01*
X305466Y127236D02*
X306534Y126167D01*
X302756Y129946D02*
X303423Y130613D01*
X302463Y129652D02*
X302756Y129946D01*
X300420Y131695D02*
X300713Y131989D01*
X301380Y132655D01*
X298671Y134031D02*
X299338Y134698D01*
X298377Y133738D02*
X298671Y134031D01*
X294585Y138117D02*
X296334Y136368D01*
X293563Y139138D02*
X294585Y138117D01*
X306534Y126167D02*
X307250D01*
X332349Y132245D02*
Y136011D01*
X329460Y130800D02*
Y136011D01*
Y129992D02*
Y130800D01*
X326571Y129992D02*
Y130800D01*
Y136011D01*
X323682Y132245D02*
Y136011D01*
X320793Y132245D02*
Y136011D01*
X317904Y132245D02*
Y136011D01*
X315015Y132245D02*
Y136011D01*
X312126Y132245D02*
Y136011D01*
X309237Y130800D02*
X310682D01*
X307793D02*
X309237D01*
X307575Y131018D02*
X307793Y130800D01*
X305532Y133061D02*
X307575Y131018D01*
X304511Y134082D02*
X305532Y133061D01*
X295341Y170519D02*
X305259Y180436D01*
X295341Y143251D02*
Y170519D01*
Y143251D02*
X304511Y134082D01*
X333794Y130800D02*
X339229D01*
X354584Y115445D01*
X305259Y180436D02*
X325618D01*
X328702Y183520D01*
X326431Y146112D02*
X359123Y113421D01*
X324901Y146112D02*
X326431D01*
X323456D02*
X324901D01*
X322011Y147556D02*
Y147742D01*
X319123Y146112D02*
Y147742D01*
Y140639D02*
Y146112D01*
X316234Y140639D02*
Y146112D01*
Y147742D01*
X313344Y147556D02*
Y147742D01*
X474138Y50638D02*
X479000Y55500D01*
X395061Y50638D02*
X474138D01*
X376100Y69600D02*
X376600Y69100D01*
X393964Y51736D02*
X395061Y50638D01*
X392943Y52757D02*
X393964Y51736D01*
X392943Y54800D02*
X397028Y58885D01*
X389878Y55822D02*
X394985Y60928D01*
X385118Y51061D02*
X389878Y55822D01*
X383075Y53104D02*
X387836Y57864D01*
X392907Y62936D01*
X386814Y60929D02*
X390864Y64979D01*
X384771Y62972D02*
X388821Y67022D01*
X382729Y65014D02*
X386779Y69065D01*
X380686Y65014D02*
X380686Y65014D01*
X380686Y67057D02*
X385103Y71475D01*
X378643Y69100D02*
X383061Y73518D01*
X376100Y69600D02*
Y75250D01*
Y102696D02*
Y103300D01*
Y101251D02*
Y102696D01*
X377545Y99806D02*
X385914D01*
X377545Y96917D02*
X385914D01*
X377545Y94029D02*
X385914D01*
X377545Y91139D02*
X385914D01*
X377545Y88251D02*
X385914D01*
X377545Y85361D02*
X385914D01*
X377545Y82472D02*
X385914D01*
X377545Y79584D02*
X385914D01*
X376100Y76694D02*
Y78139D01*
Y75250D02*
Y76694D01*
X331638Y149276D02*
X331785Y149129D01*
X331220Y149695D02*
X331638Y149276D01*
X326640Y154274D02*
X328189Y152726D01*
X325618Y155296D02*
X326640Y154274D01*
X325618Y155296D02*
Y164434D01*
X328702Y167518D01*
X376100Y103300D02*
Y103600D01*
X79000Y370500D02*
X83647Y375147D01*
X89004Y370268D02*
X89232D01*
X93500Y366000D01*
X318330Y195073D02*
X338476D01*
X315785Y192528D02*
X318330Y195073D01*
X315785Y186604D02*
Y192528D01*
X340650Y189155D02*
Y192899D01*
X338476Y195073D02*
X340650Y192899D01*
X345829Y188005D02*
X348821Y185012D01*
Y150270D02*
Y185012D01*
Y150270D02*
X362675Y136417D01*
X341800Y188005D02*
X345829D01*
X340650Y189155D02*
X341800Y188005D01*
X320702Y183520D02*
X324274Y187092D01*
X338044D01*
X341563Y183573D01*
Y154937D02*
Y183573D01*
X312702Y183520D02*
X315785Y186604D01*
X348202Y196021D02*
X352702Y191521D01*
X348202Y196021D02*
Y202456D01*
X346275Y204384D02*
X348202Y202456D01*
X342117Y204384D02*
X346275D01*
X339785Y206715D02*
X342117Y204384D01*
X339785Y206715D02*
Y211465D01*
X334919Y216331D02*
X339785Y211465D01*
X305599Y216331D02*
X334919D01*
X300000Y221930D02*
X305599Y216331D01*
X300000Y221930D02*
Y252001D01*
X293389Y258611D02*
X300000Y252001D01*
X289259Y258611D02*
X293389D01*
X285611Y262259D02*
X289259Y258611D01*
X285611Y262259D02*
Y343764D01*
X278875Y350500D02*
X285611Y343764D01*
X140153Y350500D02*
X278875D01*
X139446D02*
X140153D01*
X138001Y351945D02*
Y359111D01*
X135112Y350500D02*
Y359111D01*
Y345639D02*
Y350500D01*
X132224Y345639D02*
Y350500D01*
Y359111D01*
X129334Y350500D02*
Y359111D01*
Y345639D02*
Y350500D01*
X126446Y345639D02*
Y350500D01*
Y359111D01*
X123556Y350500D02*
Y359111D01*
Y345639D02*
Y350500D01*
X120667Y345639D02*
Y350500D01*
Y359111D01*
X117779Y350500D02*
Y359111D01*
Y345639D02*
Y350500D01*
X114889Y345639D02*
Y350500D01*
Y359111D01*
X112001Y350500D02*
Y359111D01*
Y345639D02*
Y350500D01*
X109111Y345639D02*
Y350500D01*
Y359111D01*
X106222Y350500D02*
Y359111D01*
Y345639D02*
Y350500D01*
X103334Y345639D02*
Y349055D01*
X100444Y350500D02*
X101889D01*
X99000D02*
X100444D01*
X341618Y202605D02*
X344702Y199522D01*
X311211Y202605D02*
X341618D01*
X298222Y215595D02*
X311211Y202605D01*
X298222Y215595D02*
Y245815D01*
X291593Y252444D02*
X298222Y245815D01*
X287425Y252444D02*
X291593D01*
X283834Y256036D02*
X287425Y252444D01*
X283834Y256036D02*
Y343027D01*
X278361Y348500D02*
X283834Y343027D01*
X239250Y348500D02*
X278361D01*
X238145D02*
X239250D01*
X236700Y339139D02*
Y347056D01*
X233811Y339139D02*
Y347056D01*
X230922Y339139D02*
Y347056D01*
X228033Y339139D02*
Y347056D01*
X225144Y339139D02*
Y347056D01*
X222255Y339139D02*
Y347056D01*
X219366Y339139D02*
Y347056D01*
X216477Y339139D02*
Y347056D01*
X213588Y339139D02*
Y347056D01*
X210699Y339139D02*
Y347056D01*
X207810Y339139D02*
Y347056D01*
X204921Y339139D02*
Y347056D01*
X202032Y339139D02*
Y347056D01*
X199143Y339139D02*
Y347056D01*
X196254Y339139D02*
Y347056D01*
X193365Y339139D02*
Y347056D01*
X190476Y339139D02*
Y347056D01*
X187587Y339139D02*
Y347056D01*
X184698Y339139D02*
Y347056D01*
X181809Y339139D02*
Y347056D01*
X178920Y348500D02*
X180365D01*
X177476D02*
X178920D01*
X165500Y336524D02*
X177476Y348500D01*
X260937Y259293D02*
X264702Y255528D01*
X255707Y259293D02*
X260937D01*
X253095Y261905D02*
X255707Y259293D01*
X253095Y261905D02*
Y265024D01*
X251450Y266668D02*
X253095Y265024D01*
X241996Y266668D02*
X251450D01*
X235901Y272764D02*
X241996Y266668D01*
X234436Y274229D02*
X235901Y272764D01*
X233415Y275250D02*
X234436Y274229D01*
X233286Y275250D02*
X233415D01*
X231841D02*
X233286D01*
X230397Y273218D02*
Y273806D01*
X227508Y273218D02*
Y275250D01*
Y281028D01*
X224619Y275250D02*
Y281028D01*
Y273218D02*
Y275250D01*
X221730Y273218D02*
Y275250D01*
X219758Y276167D02*
X220813D01*
X217396Y275250D02*
X218841D01*
X212883Y279764D02*
X217396Y275250D01*
X211691Y279764D02*
X212883D01*
X207538D02*
Y281028D01*
Y278470D02*
Y279764D01*
X204649Y278470D02*
Y279764D01*
Y281028D01*
X201760Y279764D02*
Y281028D01*
Y278470D02*
Y279764D01*
X198871Y278470D02*
Y279764D01*
Y281028D01*
X195982Y279764D02*
Y281028D01*
Y278472D02*
Y279764D01*
X190204D02*
X191801D01*
X188759D02*
X190204D01*
X265222Y138000D02*
Y155472D01*
Y79028D02*
Y138000D01*
X280628Y235960D02*
X285152Y231436D01*
Y197708D02*
Y231436D01*
X270124Y235960D02*
X280628D01*
X282048Y194605D02*
X285152Y197708D01*
X278539Y194605D02*
X282048D01*
X268750Y237334D02*
X270124Y235960D01*
X268750Y237334D02*
Y240624D01*
X275786Y188286D02*
Y191851D01*
X278539Y194605D01*
X274132Y186632D02*
X275786Y188286D01*
X270334Y186632D02*
X274132D01*
X267840Y184138D02*
X270334Y186632D01*
X266765Y242609D02*
X268750Y240624D01*
X265222Y155472D02*
X267840Y158090D01*
X262790Y242609D02*
X266765D01*
X267840Y158090D02*
Y184138D01*
X248702Y263529D02*
X253563Y258667D01*
Y252884D02*
Y258667D01*
Y252884D02*
X254697Y251750D01*
X256840D01*
X259785Y248804D01*
Y245614D02*
Y248804D01*
Y245614D02*
X262790Y242609D01*
X265222Y79028D02*
X269500Y74750D01*
X267000Y95500D02*
Y116882D01*
Y95500D02*
X277500Y85000D01*
X267000Y116882D02*
X273059Y122941D01*
X275333Y120834D02*
X339027D01*
X272250Y117750D02*
X275333Y120834D01*
X273059Y122941D02*
X273153Y123034D01*
X277130Y127012D02*
X277184Y127066D01*
X256702Y255528D02*
X261563Y250666D01*
Y246351D02*
Y250666D01*
Y246351D02*
X263527Y244387D01*
X282488D01*
X285254Y241622D01*
Y234246D02*
Y241622D01*
Y234246D02*
X292075Y227425D01*
Y196385D02*
Y227425D01*
X291029Y195339D02*
X292075Y196385D01*
X286839Y195339D02*
X291029D01*
X285254Y193754D02*
X286839Y195339D01*
X285254Y189504D02*
Y193754D01*
X283243Y187493D02*
X285254Y189504D01*
X280314Y187493D02*
X283243D01*
X277563Y184742D02*
X280314Y187493D01*
X277563Y155500D02*
Y184742D01*
Y140500D02*
Y142500D01*
Y143944D01*
X279008Y145388D02*
X281528D01*
X279008Y148278D02*
X281528D01*
X279008Y151166D02*
X281528D01*
X279008Y154056D02*
X281528D01*
X277563Y129750D02*
Y137250D01*
Y139056D01*
Y140500D01*
Y127445D02*
Y129750D01*
X277184Y127066D02*
X277563Y127445D01*
X389992Y288549D02*
X391667Y286874D01*
X382090Y288549D02*
X389992D01*
X279389Y391250D02*
X382090Y288549D01*
X333706Y266877D02*
X338574D01*
X332314Y265484D02*
X333706Y266877D01*
X332314Y259140D02*
Y265484D01*
X340750Y269053D02*
Y315452D01*
X338574Y266877D02*
X340750Y269053D01*
X336702Y319500D02*
X340750Y315452D01*
X347840Y224025D02*
X353365Y218500D01*
X347840Y224025D02*
Y244388D01*
X344702Y247527D02*
X347840Y244388D01*
X353365Y218500D02*
X513917D01*
X559333Y55834D02*
Y191000D01*
X349618Y230248D02*
X352033Y227833D01*
X372707D02*
X380100Y220440D01*
X352033Y227833D02*
X372707D01*
X380100Y220440D02*
X549060D01*
X349618Y230248D02*
Y246971D01*
X345923Y250666D02*
X349618Y246971D01*
X373804Y235525D02*
X403250Y264971D01*
X356702Y235525D02*
X373804D01*
X264364Y194750D02*
X267785Y198172D01*
X254500Y194750D02*
X264364D01*
X251786Y192035D02*
X254500Y194750D01*
X257270Y215952D02*
X264965D01*
X252609Y220613D02*
X257270Y215952D01*
X252609Y220613D02*
Y241391D01*
X267785Y198172D02*
Y213131D01*
X264965Y215952D02*
X267785Y213131D01*
X272314Y195494D02*
X274994D01*
X269564Y192743D02*
X272314Y195494D01*
X269564Y190258D02*
Y192743D01*
X277000Y197500D02*
Y223587D01*
X274994Y195494D02*
X277000Y197500D01*
X273062Y227525D02*
X277000Y223587D01*
X261618Y230248D02*
Y240386D01*
Y230248D02*
X264342Y227525D01*
X273062D01*
X294500Y189250D02*
Y241535D01*
X292336Y187086D02*
X294500Y189250D01*
X287908Y187086D02*
X292336D01*
X292075Y243961D02*
X294500Y241535D01*
X287908Y243961D02*
X292075D01*
X284750Y140294D02*
Y183929D01*
X287908Y187086D01*
X284750Y247118D02*
X287908Y243961D01*
X284750Y247118D02*
Y249971D01*
X258086Y243918D02*
X261618Y240386D01*
X275786Y287061D02*
Y342215D01*
X269618Y280894D02*
X275786Y287061D01*
X269618Y274613D02*
Y280894D01*
X280702Y271530D02*
Y273798D01*
X277563Y276937D02*
X280702Y273798D01*
X277563Y276937D02*
Y344936D01*
X275786Y254565D02*
Y273465D01*
X272702Y276548D02*
X275786Y273465D01*
X272702Y276548D02*
Y279531D01*
X275786Y254565D02*
X278823Y251527D01*
X269618Y274613D02*
X272702Y271530D01*
X278823Y251527D02*
X283194D01*
X284750Y249971D01*
Y140294D02*
X302432Y122612D01*
X252064Y80314D02*
Y159239D01*
X255574Y162750D02*
X258750D01*
X252000Y80250D02*
X252064Y80314D01*
Y159239D02*
X255574Y162750D01*
X260022Y164022D02*
Y186574D01*
X258750Y162750D02*
X260022Y164022D01*
X261886Y188437D02*
X267743D01*
X260022Y186574D02*
X261886Y188437D01*
X267743D02*
X269564Y190258D01*
X245250Y173910D02*
Y180068D01*
X242840Y171500D02*
X245250Y173910D01*
X238672Y171500D02*
X242840D01*
X204888Y137716D02*
X238672Y171500D01*
X240177Y175519D02*
X240702D01*
X203111Y138453D02*
X240177Y175519D01*
X203111Y71663D02*
Y138453D01*
X204888Y72400D02*
Y137716D01*
X236684Y164434D02*
X245618D01*
X206667Y134417D02*
X236684Y164434D01*
X206667Y73136D02*
Y134417D01*
X245618Y164434D02*
X248702Y167518D01*
X249604Y259500D02*
X251786Y257319D01*
X194500Y259500D02*
X249604D01*
X188750Y265250D02*
X194500Y259500D01*
X228580Y256531D02*
X233973Y251138D01*
X192969Y256531D02*
X228580D01*
X188750Y260750D02*
X192969Y256531D01*
X233973Y251138D02*
X245091D01*
X252250Y245576D02*
Y248750D01*
X248702Y252298D02*
X252250Y248750D01*
X248702Y252298D02*
Y255528D01*
X256554Y268446D02*
X261471Y263529D01*
X244261Y268446D02*
X256554D01*
X228457Y284250D02*
X244261Y268446D01*
X269500Y252325D02*
Y263750D01*
X265767Y267482D02*
X269500Y263750D01*
X262714Y267482D02*
X265767D01*
X261000Y269196D02*
X262714Y267482D01*
X251786Y252147D02*
Y257319D01*
Y252147D02*
X256406Y247527D01*
X252250Y245576D02*
X253907Y243918D01*
X258086D01*
X250679Y243321D02*
X252609Y241391D01*
X247908Y243321D02*
X250679D01*
X243702Y247527D02*
X247908Y243321D01*
X240702Y247527D02*
X243702D01*
X188750Y284250D02*
X228457D01*
X248702Y271530D02*
Y276748D01*
X236700Y288750D02*
X248702Y276748D01*
X188750Y288750D02*
X236700D01*
X256702Y271530D02*
Y273762D01*
X237214Y293250D02*
X256702Y273762D01*
X188750Y293250D02*
X237214D01*
X261471Y263529D02*
X264702D01*
X264083Y290373D02*
Y344166D01*
X261000Y287289D02*
X264083Y290373D01*
X261000Y269196D02*
Y287289D01*
X263250Y345000D02*
X264083Y344166D01*
X269083Y284619D02*
Y288250D01*
X266917Y290417D02*
X269083Y288250D01*
X266917Y290417D02*
Y343666D01*
X268250Y345000D01*
X267840Y268390D02*
Y283376D01*
X269083Y284619D01*
X261325Y199260D02*
X264513D01*
X256145Y204439D02*
X261325Y199260D01*
X375290Y239526D02*
X401472Y265707D01*
X380777Y247527D02*
X399694Y266444D01*
X380944Y252444D02*
X396500Y268000D01*
X315785Y252444D02*
X380944D01*
X360702Y247527D02*
X380777D01*
X399694Y266444D02*
Y290199D01*
X253455Y436438D02*
X399694Y290199D01*
X360702Y239526D02*
X375290D01*
X401472Y265707D02*
Y290935D01*
X248574Y443834D02*
X401472Y290935D01*
X403250Y264971D02*
Y296389D01*
X397916Y301723D02*
X403250Y296389D01*
X291785Y274613D02*
Y347465D01*
X288702Y271530D02*
X291785Y274613D01*
X273397Y365853D02*
X291785Y347465D01*
X295000Y269827D02*
Y358000D01*
X288702Y263529D02*
X295000Y269827D01*
X397916Y301723D02*
Y302083D01*
X274875Y425125D02*
X397916Y302083D01*
X248702Y57500D02*
Y58402D01*
X245639Y59847D02*
X247257D01*
X245639Y62736D02*
X248702D01*
X252272D01*
X248702Y65625D02*
X252272D01*
X245639D02*
X248702D01*
X245639Y68514D02*
X248702D01*
X252805D01*
X250146Y71403D02*
X252805D01*
X250146Y74292D02*
X251650D01*
X248702Y77181D02*
X251650D01*
X245639D02*
X248702D01*
X245639Y80070D02*
X247257D01*
X245639Y82959D02*
X247257D01*
X245639Y85848D02*
X248702D01*
X248778D01*
X248702Y88737D02*
X248778D01*
X245639D02*
X248702D01*
X245639Y91625D02*
X248702D01*
X248778D01*
X248702Y94515D02*
X248778D01*
X245639D02*
X248702D01*
X245639Y97403D02*
X248702D01*
X248778D01*
X248702Y100293D02*
X248778D01*
X245639D02*
X248702D01*
X245639Y103181D02*
X248702D01*
X248778D01*
X248702Y106070D02*
X248778D01*
X245639D02*
X248702D01*
X245639Y108960D02*
X248702D01*
X248778D01*
X248702Y111848D02*
X248778D01*
X245639D02*
X248702D01*
X245639Y114738D02*
X248702D01*
X248778D01*
X248702Y117626D02*
X248778D01*
X245639D02*
X248702D01*
X245639Y120515D02*
X248702D01*
X248778D01*
X248702Y123405D02*
X248778D01*
X245639D02*
X248702D01*
X245639Y126293D02*
X248702D01*
X248778D01*
X248702Y129183D02*
X248778D01*
X245639D02*
X248702D01*
X245639Y132072D02*
X248702D01*
X248778D01*
X248702Y134960D02*
X248778D01*
X245639D02*
X248702D01*
X245639Y137850D02*
X248702D01*
X248778D01*
X248702Y140738D02*
X248778D01*
X245639D02*
X248702D01*
X245639Y143628D02*
X248702D01*
X248778D01*
X248702Y146517D02*
X248778D01*
X245639D02*
X248702D01*
X245639Y149405D02*
X248702D01*
X248778D01*
X248702Y152295D02*
X248778D01*
X245639D02*
X248702D01*
X245639Y155183D02*
X247257D01*
X248702Y156628D02*
Y158073D01*
Y159517D01*
Y50548D02*
Y57500D01*
Y50548D02*
X251500Y47750D01*
X305317Y262913D02*
X309465Y258766D01*
Y254404D02*
Y258766D01*
Y254404D02*
X313203Y250666D01*
X345923D01*
X549060Y220440D02*
X559333Y210166D01*
Y202556D02*
Y210166D01*
X556989Y201112D02*
X557889D01*
X556989Y198223D02*
X557889D01*
X556989Y195333D02*
X557889D01*
X556989Y192444D02*
X557889D01*
X434264Y54250D02*
X467750D01*
X416600Y71915D02*
X434264Y54250D01*
X416600Y71915D02*
Y77300D01*
X408900Y85000D02*
X416600Y77300D01*
X339785Y154115D02*
X359381Y134519D01*
X408409Y85491D02*
X408900Y85000D01*
X408409Y87534D02*
X411499Y90625D01*
X406366Y89577D02*
X409456Y92668D01*
X404323Y91620D02*
X411499Y98796D01*
X402280Y93663D02*
X409456Y100839D01*
X400237Y93663D02*
X400237Y93663D01*
X400237Y95705D02*
X410630Y106098D01*
X398195Y97748D02*
X408587Y108141D01*
X396152Y99791D02*
X406544Y110184D01*
X393087Y100813D02*
X404502Y112227D01*
X391045Y101022D02*
X391254Y100813D01*
X391045Y102855D02*
X402459Y114270D01*
X390023Y105920D02*
X400416Y116312D01*
X387980Y105920D02*
X387980Y105920D01*
X387980Y107963D02*
X398373Y118355D01*
X385938Y110005D02*
X396330Y120398D01*
X383895Y112048D02*
X394287Y122441D01*
X381852Y114091D02*
X392245Y124484D01*
X379809Y116134D02*
X385424Y121748D01*
X377766Y118177D02*
X383381Y123791D01*
X375723Y118177D02*
X375723Y118177D01*
Y120219D02*
X377465Y121961D01*
X373681Y122262D02*
X375423Y124004D01*
X371638Y124305D02*
X373276Y125943D01*
X369595Y126348D02*
X371233Y127986D01*
X367552Y128391D02*
X369556Y130395D01*
X365509Y130434D02*
X367513Y132438D01*
X362445Y131455D02*
X363466Y130434D01*
X360402Y133498D02*
X362445Y131455D01*
X359381Y134519D02*
X360402Y133498D01*
X339785Y154115D02*
Y168795D01*
X337590Y170991D02*
X339785Y168795D01*
X325230Y170991D02*
X337590D01*
X320702Y175519D02*
X325230Y170991D01*
X361861Y134639D02*
X392947D01*
X341563Y154937D02*
X361861Y134639D01*
X392947D02*
X413700Y113885D01*
Y82800D02*
Y113885D01*
X415546Y83546D02*
Y114554D01*
X393684Y136417D02*
X415546Y114554D01*
X362675Y136417D02*
X393684D01*
X413700Y82800D02*
X418500Y78000D01*
X415546Y83546D02*
X420543Y78548D01*
X470916Y52417D02*
X474000Y55500D01*
X427700Y52417D02*
X470916D01*
X426762D02*
X427700D01*
X425317D02*
X426762D01*
X423873Y53861D02*
Y55811D01*
X420984Y53861D02*
Y55811D01*
X418095Y53861D02*
Y55811D01*
X415206Y53861D02*
Y55811D01*
X412317Y53861D02*
Y55811D01*
X409428Y53861D02*
Y55811D01*
X388900Y71500D02*
X395150Y65250D01*
X396748Y63652D01*
X397769Y62631D01*
X399812D02*
X412356Y75175D01*
X400834Y59566D02*
X414399Y73132D01*
X400293Y59026D02*
X400834Y59566D01*
X402336Y56983D02*
X402876Y57524D01*
X414655Y69303D01*
X405941Y56502D02*
X416698Y67260D01*
X405941Y54459D02*
X406962Y53438D01*
X407984Y52417D01*
X388800Y71600D02*
Y72655D01*
Y75543D01*
Y76988D01*
X390244Y78432D02*
X409466D01*
X390244Y81321D02*
X409466D01*
X390244Y84211D02*
X403688D01*
X390244Y87100D02*
X403688D01*
X390244Y89988D02*
X397910D01*
X390244Y92878D02*
X397910D01*
X390244Y95766D02*
X392132D01*
X390244Y98656D02*
X392132D01*
X388800Y71600D02*
X388900Y71500D01*
X388300Y100600D02*
X388800Y100100D01*
X387753Y101147D02*
X388300Y100600D01*
X385932Y102968D02*
X387753Y101147D01*
X383668Y105232D02*
X383889Y105454D01*
X380570Y102135D02*
X383668Y105232D01*
X378528Y104178D02*
X381625Y107275D01*
X381847Y107497D01*
X379582Y109318D02*
X379804Y109540D01*
X377865Y107601D02*
X379582Y109318D01*
X375823Y109644D02*
X377539Y111361D01*
X377761Y111582D01*
X373675Y115225D02*
X375275Y113625D01*
X369590Y119310D02*
X371189Y117711D01*
X365504Y123396D02*
X367103Y121797D01*
X361418Y127482D02*
X363018Y125882D01*
X357333Y131567D02*
X358932Y129968D01*
X353247Y135653D02*
X354846Y134054D01*
X349161Y139739D02*
X350761Y138139D01*
X345076Y143824D02*
X346675Y142225D01*
X340990Y147910D02*
X342589Y146311D01*
X338726Y150175D02*
X338947Y150396D01*
X337011Y148460D02*
X338726Y150175D01*
X334968Y150503D02*
X335661Y151196D01*
X334640Y154260D02*
X335661Y153239D01*
X333618Y155282D02*
X334640Y154260D01*
X333618Y155282D02*
Y164434D01*
X336702Y167518D01*
X420543Y73000D02*
Y78548D01*
X376100Y103600D02*
Y104814D01*
X375706Y105208D02*
X376100Y104814D01*
X374685Y106229D02*
X375706Y105208D01*
X371843Y105431D02*
X372642Y106229D01*
X369801Y107474D02*
X371621Y109294D01*
X373335Y111008D01*
X369578Y111336D02*
X371292Y113051D01*
X369272Y111030D02*
X369578Y111336D01*
X367229Y113073D02*
X367535Y113379D01*
X369249Y115094D01*
X366513Y116444D02*
X367207Y117137D01*
X364471Y118486D02*
X365164Y119179D01*
X362428Y120529D02*
X363121Y121222D01*
X360385Y120529D02*
X360385Y120529D01*
Y122572D02*
X361078Y123265D01*
X358342Y124615D02*
X359035Y125308D01*
X356299Y126658D02*
X356992Y127351D01*
X354257Y128701D02*
X354950Y129394D01*
X352214Y130743D02*
X352907Y131437D01*
X350171Y132786D02*
X350864Y133479D01*
X348128Y132786D02*
X348128Y132786D01*
Y134829D02*
X348821Y135522D01*
X346085Y136872D02*
X346778Y137565D01*
X344042Y138915D02*
X344736Y139608D01*
X342000Y140957D02*
X342693Y141651D01*
X339957Y143000D02*
X340650Y143693D01*
X337914Y145043D02*
X338607Y145736D01*
X334850Y146065D02*
X335871Y145043D01*
X332807Y148107D02*
X334850Y146065D01*
X331785Y149129D02*
X332807Y148107D01*
X418500Y72529D02*
Y78000D01*
Y72529D02*
X432058Y58970D01*
X420543Y73000D02*
X432795Y60749D01*
X366835Y108535D02*
X367600Y107769D01*
Y68100D02*
Y69100D01*
Y71657D01*
X367144Y72113D02*
Y74090D01*
X367600Y74546D02*
X372878D01*
X367600Y77435D02*
X372878D01*
X367144Y77891D02*
Y79868D01*
X367600Y80324D02*
X372878D01*
X367600Y83213D02*
X372878D01*
X367144Y83669D02*
Y85646D01*
X367600Y86102D02*
X372878D01*
X367600Y88991D02*
X372878D01*
X367144Y89447D02*
Y91424D01*
X367600Y91880D02*
X372878D01*
X367600Y94769D02*
X372878D01*
X367144Y95225D02*
Y97202D01*
X367600Y97658D02*
X372878D01*
X367600Y100547D02*
X372878D01*
X367144Y101003D02*
Y102980D01*
X367600Y103436D02*
Y106325D01*
Y107769D01*
Y66000D02*
Y68100D01*
X477360Y48861D02*
X484000Y55500D01*
X382340Y48861D02*
X477360D01*
X367600Y63600D02*
X368040Y63160D01*
X370083D02*
X374033Y67111D01*
X372125Y61118D02*
X376076Y65068D01*
X372125Y59075D02*
X372125Y59075D01*
X374168D02*
X378118Y63025D01*
X375190Y56010D02*
X380161Y60982D01*
X372018Y52839D02*
X375190Y56010D01*
X374061Y50796D02*
X377232Y53968D01*
X382204Y58939D01*
X380297Y52946D02*
X384247Y56896D01*
X380297Y50903D02*
X381318Y49882D01*
X382340Y48861D01*
X367600Y65044D02*
Y66000D01*
Y63600D02*
Y65044D01*
X365592Y108395D02*
X365732Y108535D01*
X363549Y110438D02*
X364240Y111129D01*
X364631Y111519D01*
X360545Y114824D02*
X361808Y113562D01*
X356459Y118910D02*
X357722Y117647D01*
X352374Y122996D02*
X353636Y121733D01*
X348288Y127081D02*
X349551Y125819D01*
X344202Y131167D02*
X345465Y129904D01*
X340117Y135253D02*
X341379Y133990D01*
X336031Y139338D02*
X337294Y138076D01*
X331945Y143424D02*
X333208Y142162D01*
X327470Y147900D02*
X329122Y146247D01*
X325427Y149943D02*
X327470Y147900D01*
X324405Y150964D02*
X325427Y149943D01*
X308894Y150964D02*
X324405D01*
X301618Y158240D02*
X308894Y150964D01*
X301618Y158240D02*
Y169921D01*
X303524Y171827D01*
X306577D01*
X308402Y173652D01*
Y176902D01*
X310103Y178603D01*
X334673D01*
X337267Y176009D01*
X480583Y47083D02*
X489000Y55500D01*
X373218Y47083D02*
X480583D01*
X369850Y50450D02*
X373218Y47083D01*
X369337Y50963D02*
X369850Y50450D01*
X369337Y53006D02*
X371487Y55156D01*
X366273Y54028D02*
X369444Y57199D01*
X364183Y51938D02*
X366273Y54028D01*
X362140Y53980D02*
X364230Y56070D01*
X367401Y59242D01*
X363208Y59135D02*
X365359Y61285D01*
X360144Y60156D02*
X361165Y59135D01*
X359123Y61177D02*
X360144Y60156D01*
X359123Y61177D02*
Y62863D01*
Y65752D01*
Y67197D01*
X360567Y68641D02*
X364378D01*
X360567Y71530D02*
X364378D01*
X360567Y74419D02*
X364378D01*
X360567Y77308D02*
X364378D01*
X360567Y80197D02*
X364378D01*
X360567Y83086D02*
X364378D01*
X360567Y85975D02*
X364378D01*
X360567Y88864D02*
X364378D01*
X360567Y91753D02*
X364378D01*
X360567Y94642D02*
X364378D01*
X360567Y97531D02*
X364378D01*
X360567Y100420D02*
X364378D01*
X360567Y103309D02*
X364378D01*
X360567Y106198D02*
X364378D01*
X359123Y107643D02*
Y109087D01*
Y111976D01*
Y113421D01*
X311232Y146112D02*
X311900D01*
X311076Y146268D02*
X311232Y146112D01*
X310054Y147289D02*
X311076Y146268D01*
X301936Y141214D02*
X308012Y147289D01*
X299893Y143256D02*
X305969Y149332D01*
X299585Y147034D02*
X303926Y151375D01*
X297542Y149076D02*
X301883Y153418D01*
X300862Y156482D02*
X301883Y155461D01*
X299840Y157503D02*
X300862Y156482D01*
X299840Y157503D02*
Y170657D01*
X304702Y175519D01*
X354584Y56980D02*
Y60700D01*
Y114146D02*
Y115445D01*
Y111257D02*
Y114146D01*
Y109496D02*
Y111257D01*
Y103718D02*
Y104352D01*
Y99701D02*
X355711D01*
X353869D02*
X354584D01*
X353869Y96812D02*
X354584D01*
X355711D01*
X354584Y92162D02*
Y92796D01*
Y86384D02*
Y87018D01*
Y82367D02*
X355711D01*
X351401D02*
X354584D01*
X351401Y79479D02*
X354584D01*
X355711D01*
X354584Y76589D02*
X355711D01*
X351401D02*
X354584D01*
X351401Y73700D02*
X354584D01*
X355711D01*
X354584Y70812D02*
X355711D01*
X351401D02*
X354584D01*
X351401Y67923D02*
X354584D01*
X355711D01*
X354584Y65033D02*
X355711D01*
X351138D02*
X354584D01*
X351138Y62144D02*
X353139D01*
X354584Y56980D02*
X366259Y45304D01*
X483805D01*
X494000Y55500D01*
X350890Y104250D02*
Y114110D01*
X340611Y124389D02*
X350890Y114110D01*
X303168Y124389D02*
X340611D01*
X349112Y104986D02*
Y113264D01*
X339764Y122612D02*
X349112Y113264D01*
X302432Y122612D02*
X339764D01*
X347333Y105723D02*
Y112527D01*
X339027Y120834D02*
X347333Y112527D01*
X291785Y135772D02*
X303168Y124389D01*
X358074Y43527D02*
X487026D01*
X499000Y55500D01*
X356400Y45200D02*
X358074Y43527D01*
X341800Y59800D02*
X342000Y59600D01*
X356300Y45300D02*
X356400Y45200D01*
X352906Y43949D02*
X354257Y45300D01*
X350863Y45992D02*
X353236Y48364D01*
X355835Y50964D01*
X351193Y50407D02*
X353792Y53007D01*
X350265Y49479D02*
X351193Y50407D01*
X348222Y51522D02*
X349150Y52450D01*
X351749Y55050D01*
X347107Y54493D02*
X349706Y57092D01*
X345789Y53175D02*
X347107Y54493D01*
X343746Y55218D02*
X344043Y55514D01*
X343021Y58579D02*
X344043Y57557D01*
X342000Y59600D02*
X343021Y58579D01*
X341800Y59800D02*
Y61600D01*
Y62312D01*
Y63756D01*
X343245Y65201D02*
X347611D01*
X343245Y68089D02*
X347611D01*
X343245Y70978D02*
X347611D01*
X343245Y73867D02*
X347611D01*
X343245Y76756D02*
X347611D01*
X343245Y79645D02*
X347611D01*
X343245Y82534D02*
X347611D01*
X343245Y85423D02*
X347611D01*
X341800Y86868D02*
Y88312D01*
Y91201D01*
Y92646D01*
X339861Y64900D02*
Y93222D01*
X336000Y64400D02*
Y66600D01*
X338661Y63700D02*
X339861Y64900D01*
X336700Y63700D02*
X338661D01*
X336000Y64400D02*
X336700Y63700D01*
X335200Y67400D02*
X336000Y66600D01*
X333800Y67400D02*
X335200D01*
X333100Y66700D02*
X333800Y67400D01*
X333100Y54771D02*
Y66700D01*
X332579Y54250D02*
X333100Y54771D01*
X330766Y54250D02*
X332579D01*
X329923Y55093D02*
X330766Y54250D01*
X329923Y55093D02*
Y66777D01*
X329200Y67500D02*
X329923Y66777D01*
X327321Y67500D02*
X329200D01*
X326800Y66979D02*
X327321Y67500D01*
X326800Y55100D02*
Y66979D01*
X325700Y54000D02*
X326800Y55100D01*
X324000Y54000D02*
X325700D01*
X323000Y55000D02*
X324000Y54000D01*
X323000Y55000D02*
Y66700D01*
X322200Y67500D02*
X323000Y66700D01*
X320100Y67500D02*
X322200D01*
X319000Y66400D02*
X320100Y67500D01*
X319000Y53250D02*
Y66400D01*
X325250Y40000D02*
X327084Y38166D01*
X330016Y41502D02*
X331548Y39971D01*
X321250Y51000D02*
X344360D01*
X319000Y53250D02*
X321250Y51000D01*
X350278Y41748D02*
X490248D01*
X344360Y51000D02*
X346430Y48930D01*
Y45597D02*
Y48930D01*
Y45597D02*
X350278Y41748D01*
X339861Y93222D02*
X350890Y104250D01*
X490248Y41748D02*
X504000Y55500D01*
X291785Y135772D02*
Y180436D01*
X288702Y183520D02*
X291785Y180436D01*
X330500Y88889D02*
X347333Y105723D01*
X338083Y93958D02*
X349112Y104986D01*
X338083Y73223D02*
Y93958D01*
X326750Y102750D02*
X339750D01*
X332161Y114339D02*
X335250Y111250D01*
X325339Y114339D02*
X332161D01*
X324000Y102750D02*
X326750D01*
X330500Y74500D02*
Y88889D01*
X338416Y44667D02*
X341500Y47750D01*
X250223Y44667D02*
X338416D01*
X242416Y52473D02*
X250223Y44667D01*
X331548Y39971D02*
X603369D01*
X327084Y38166D02*
X371531D01*
X270611Y36388D02*
X604816D01*
X257764Y34611D02*
X605553D01*
X257028Y32833D02*
X606289D01*
X256292Y31054D02*
X607026D01*
X255555Y29276D02*
X607762D01*
X254819Y27499D02*
X608498D01*
X254082Y25721D02*
X609235D01*
X253346Y23942D02*
X609971D01*
X252609Y22164D02*
X610708D01*
X203111Y71663D02*
X252609Y22164D01*
X610708D02*
X634864Y46320D01*
X204888Y72400D02*
X253346Y23942D01*
X609971D02*
X633086Y47057D01*
X206667Y73136D02*
X254082Y25721D01*
X609235D02*
X631307Y47793D01*
X214500Y67817D02*
X254819Y27499D01*
X608498D02*
X629529Y48530D01*
X219011Y65821D02*
X255555Y29276D01*
X607762D02*
X627752Y49266D01*
X223500Y63846D02*
X256292Y31054D01*
X607026D02*
X625974Y50002D01*
X228000Y61860D02*
X257028Y32833D01*
X606289D02*
X624196Y50739D01*
X232500Y59875D02*
X257764Y34611D01*
X605553D02*
X622417Y51475D01*
X265750Y41250D02*
X270611Y36388D01*
X604816D02*
X620639Y52212D01*
X371531Y38166D02*
X371558Y38193D01*
X604106D01*
X336702Y199522D02*
X340000Y196224D01*
X344360D01*
X347785Y192798D01*
Y189715D02*
Y192798D01*
Y189715D02*
X349250Y188250D01*
X503500D01*
X510472Y181278D01*
Y163250D02*
Y181278D01*
Y162808D02*
Y163250D01*
X505639Y161363D02*
X509027D01*
X505639Y158474D02*
X509027D01*
X505639Y155585D02*
X509027D01*
X505639Y152696D02*
X509027D01*
X505639Y149807D02*
X509027D01*
X505639Y146918D02*
X509027D01*
X505639Y144029D02*
X509027D01*
X505639Y141140D02*
X509027D01*
X505639Y138251D02*
X509027D01*
X505639Y135362D02*
X509027D01*
X505639Y132473D02*
X509027D01*
X505639Y129584D02*
X509027D01*
X505639Y126695D02*
X509027D01*
X505639Y123806D02*
X509027D01*
X505639Y120918D02*
X509027D01*
X505639Y118028D02*
X509027D01*
X505639Y115140D02*
X509027D01*
X505639Y112250D02*
X509027D01*
X505639Y109361D02*
X509027D01*
X505639Y106473D02*
X509027D01*
X505639Y103583D02*
X509027D01*
X505639Y100695D02*
X509027D01*
X510472Y97806D02*
Y99250D01*
Y94916D02*
Y97806D01*
Y93472D02*
Y94916D01*
X494584Y77583D02*
X510472Y93472D01*
X447084Y77583D02*
X494584D01*
X444000Y74500D02*
X447084Y77583D01*
X459000Y74500D02*
X494163D01*
X512250Y92587D01*
Y199855D01*
X509467Y202638D02*
X512250Y199855D01*
X443852Y202638D02*
X509467D01*
X355818D02*
X367000D01*
X443558D02*
X443852D01*
X440669D02*
X443558D01*
X439225D02*
X440669D01*
X437780Y197556D02*
Y201194D01*
X434891Y197556D02*
Y201194D01*
X432002Y197556D02*
Y201194D01*
X429113Y197556D02*
Y201194D01*
X426224Y197556D02*
Y201194D01*
X423335Y197556D02*
Y201194D01*
X420446Y197556D02*
Y201194D01*
X417557Y197556D02*
Y201194D01*
X414668Y197556D02*
Y201194D01*
X411779Y197556D02*
Y201194D01*
X408890Y197556D02*
Y201194D01*
X406001Y197556D02*
Y201194D01*
X403112Y197556D02*
Y201194D01*
X400224Y197556D02*
Y201194D01*
X397335Y197556D02*
Y201194D01*
X394445Y197556D02*
Y201194D01*
X391557Y197556D02*
Y201194D01*
X388667Y197556D02*
Y201194D01*
X385779Y197556D02*
Y201194D01*
X382890Y197556D02*
Y201194D01*
X380000Y197556D02*
Y201194D01*
X377112Y197556D02*
Y201194D01*
X374222Y197556D02*
Y201194D01*
X371334Y197556D02*
Y201194D01*
X368445Y202638D02*
X369889D01*
X367000D02*
X368445D01*
X352702Y199522D02*
X355818Y202638D01*
X514250Y138750D02*
Y200466D01*
X510299Y204417D02*
X514250Y200466D01*
X355808Y204417D02*
X442250D01*
X442408D01*
X443852D01*
X445297Y205861D02*
Y208028D01*
X448186Y205861D02*
Y208028D01*
X451075Y205861D02*
Y208028D01*
X453964Y205861D02*
Y208028D01*
X456853Y205861D02*
Y208028D01*
X459742Y205861D02*
Y208028D01*
X462631Y205861D02*
Y208028D01*
X465520Y205861D02*
Y208028D01*
X468409Y205861D02*
Y208028D01*
X471298Y205861D02*
Y208028D01*
X474187Y205861D02*
Y208028D01*
X477076Y205861D02*
Y208028D01*
X479965Y205861D02*
Y208028D01*
X482854Y205861D02*
Y208028D01*
X485743Y205861D02*
Y208028D01*
X488632Y205861D02*
Y208028D01*
X491521Y205861D02*
Y208028D01*
X494410Y205861D02*
Y208028D01*
X497299Y205861D02*
Y208028D01*
X500188Y205861D02*
Y208028D01*
X503077Y205861D02*
Y208028D01*
X505966Y205861D02*
Y208028D01*
X507410Y204417D02*
X508855D01*
X510299D01*
X352702Y207523D02*
X355808Y204417D01*
X514250Y136852D02*
Y138750D01*
Y135407D02*
Y136852D01*
X515695Y133963D02*
X516028D01*
X515695Y131074D02*
X516028D01*
X515695Y128185D02*
X516028D01*
X515695Y125296D02*
X516028D01*
X515695Y122407D02*
X516028D01*
X515695Y119518D02*
X516028D01*
X515695Y116629D02*
X516028D01*
X515695Y113740D02*
X516028D01*
X515695Y110851D02*
X516028D01*
X515695Y107962D02*
X516028D01*
X515695Y105073D02*
X516028D01*
X515695Y102184D02*
X516028D01*
X515695Y99295D02*
X516028D01*
X515695Y96406D02*
X516028D01*
X514250Y93517D02*
Y94961D01*
Y92072D02*
Y93517D01*
X493594Y71417D02*
X514250Y92072D01*
X457084Y71417D02*
X493594D01*
X454000Y74500D02*
X457084Y71417D01*
X336702Y231525D02*
X339785Y228441D01*
Y219875D02*
Y228441D01*
Y219875D02*
X344716Y214944D01*
X512444D01*
X530000Y197388D01*
Y150500D02*
Y197388D01*
Y100279D02*
Y123000D01*
Y150445D02*
Y150500D01*
Y148306D02*
Y150445D01*
Y144668D02*
X530750D01*
X528584D02*
X530000D01*
X528584Y141778D02*
X530000D01*
X530750D01*
X530000Y138890D02*
X530750D01*
X528584D02*
X530000D01*
X528584Y136000D02*
X530000D01*
X530750D01*
X530000Y133111D02*
X530750D01*
X528584D02*
X530000D01*
X528584Y130223D02*
X530000D01*
X530750D01*
X530000Y127333D02*
X530750D01*
X528584D02*
X530000D01*
Y123000D02*
Y123028D01*
X495804Y66083D02*
X530000Y100279D01*
X442417Y66083D02*
X495804D01*
X434000Y74500D02*
X442417Y66083D01*
X344702Y207523D02*
X348429Y211250D01*
X511000D01*
X519250Y203000D01*
Y94558D02*
Y136750D01*
Y201752D02*
Y203000D01*
Y200308D02*
Y201752D01*
X517528Y198863D02*
X517805D01*
X517528Y195974D02*
X519250D01*
X522028D01*
X519250Y193085D02*
X522028D01*
X517528D02*
X519250D01*
X517528Y190196D02*
X519250D01*
X522028D01*
X519250Y187307D02*
X522028D01*
X517528D02*
X519250D01*
X517528Y184418D02*
X519250D01*
X522028D01*
X519250Y181529D02*
X522028D01*
X517528D02*
X519250D01*
X517528Y178640D02*
X517805D01*
X517528Y175751D02*
X517805D01*
X517528Y172862D02*
X517805D01*
X517528Y169973D02*
X517805D01*
X517528Y167085D02*
X517805D01*
X517528Y164195D02*
X517805D01*
X517528Y161306D02*
X517805D01*
X517528Y158418D02*
X517805D01*
X517528Y155528D02*
X517805D01*
X517528Y152640D02*
X517805D01*
X517528Y149750D02*
X519250D01*
X522028D01*
X519250Y146861D02*
X522028D01*
X517528D02*
X519250D01*
X517528Y143973D02*
X519250D01*
X522028D01*
X519250Y141083D02*
X522028D01*
X517528D02*
X519250D01*
X517528Y138195D02*
X517805D01*
X494331Y69639D02*
X519250Y94558D01*
X453862Y69639D02*
X494331D01*
X449000Y74500D02*
X453862Y69639D01*
X336702Y220298D02*
Y223524D01*
Y220298D02*
X343834Y213166D01*
X511707D01*
X525250Y199623D01*
Y180250D02*
Y199623D01*
Y98043D02*
Y150750D01*
Y179640D02*
Y180250D01*
X522639Y178195D02*
X523806D01*
X522639Y175306D02*
X525250D01*
X526778D01*
X525250Y172418D02*
X526778D01*
X522639D02*
X525250D01*
X522639Y169529D02*
X525250D01*
X526778D01*
X525250Y166639D02*
X526778D01*
X522639D02*
X525250D01*
X522639Y163750D02*
X525250D01*
X526778D01*
X525250Y160861D02*
X526778D01*
X522639D02*
X525250D01*
X522639Y157972D02*
X525250D01*
X526778D01*
X525250Y155084D02*
X526778D01*
X522639D02*
X525250D01*
X522639Y152194D02*
X523806D01*
X495067Y67860D02*
X525250Y98043D01*
X445639Y67860D02*
X495067D01*
X439000Y74500D02*
X445639Y67860D01*
X341618Y236442D02*
X344702Y239526D01*
X341618Y220556D02*
Y236442D01*
Y220556D02*
X345453Y216722D01*
X513180D01*
X533972Y195930D01*
Y122750D02*
Y195930D01*
Y121071D02*
Y122750D01*
Y117626D02*
X534528D01*
X533222D02*
X533972D01*
X533222Y114737D02*
X533972D01*
X534528D01*
X533972Y111848D02*
X534528D01*
X533222D02*
X533972D01*
X533222Y108959D02*
X533972D01*
X534528D01*
X533972Y103181D02*
Y105514D01*
Y101736D02*
Y103181D01*
X496540Y64304D02*
X533972Y101736D01*
X439196Y64304D02*
X496540D01*
X429000Y74500D02*
X439196Y64304D01*
X513917Y218500D02*
X537750Y194667D01*
Y103000D02*
Y194667D01*
X497276Y62526D02*
X537750Y103000D01*
X559000Y55500D02*
X559333Y55834D01*
X435974Y62526D02*
X497276D01*
X424000Y74500D02*
X435974Y62526D01*
X352702Y231525D02*
X356702Y235525D01*
X274723Y425277D02*
X274875Y425125D01*
X272288Y424884D02*
X272680Y425277D01*
X270245Y426927D02*
X271659Y428341D01*
X271698Y428380D01*
X269616Y430384D02*
X269655Y430423D01*
X268202Y428970D02*
X269616Y430384D01*
X266159Y431012D02*
X267573Y432427D01*
X267613Y432466D01*
X265531Y434469D02*
X265570Y434509D01*
X264116Y433055D02*
X265531Y434469D01*
X262074Y435098D02*
X263488Y436512D01*
X263527Y436552D01*
X261445Y438555D02*
X261484Y438594D01*
X260031Y437141D02*
X261445Y438555D01*
X257988Y439184D02*
X259402Y440598D01*
X259441Y440637D01*
X257359Y442641D02*
X257398Y442680D01*
X255945Y441227D02*
X257359Y442641D01*
X253902Y443269D02*
X255316Y444684D01*
X255356Y444723D01*
X253274Y446726D02*
X253313Y446766D01*
X251859Y445312D02*
X253274Y446726D01*
X249817Y447355D02*
X250209Y447748D01*
X249188Y450812D02*
X250209Y449791D01*
X248167Y451833D02*
X249188Y450812D01*
X223072Y451833D02*
X248167D01*
X219761Y448522D02*
X223072Y451833D01*
X212003Y275250D02*
X216706Y270547D01*
X188750Y275250D02*
X190335D01*
X193224D01*
X194669D01*
X196113Y263612D02*
Y273806D01*
X199002Y263612D02*
Y273806D01*
X201891Y263612D02*
Y273806D01*
X204780Y263612D02*
Y273806D01*
X206225Y275250D02*
X207669D01*
X210558D01*
X212003D01*
X233865Y270365D02*
X240702Y263529D01*
X233684Y270547D02*
X233865Y270365D01*
X232596Y270547D02*
X233684D01*
X231151D02*
X232596D01*
X229706Y263612D02*
Y269102D01*
X226817Y263612D02*
Y269102D01*
X223929Y263612D02*
Y269102D01*
X221040Y263612D02*
Y269102D01*
X218151Y270547D02*
X219595D01*
X216706D02*
X218151D01*
X121139Y314000D02*
X168000D01*
X94639Y340500D02*
X121139Y314000D01*
X89000Y340500D02*
X94639D01*
X316500Y95250D02*
X324000Y102750D01*
X316500Y47750D02*
Y95250D01*
X261500Y156315D02*
X264702Y159517D01*
X261500Y47750D02*
Y78500D01*
X256427Y79757D02*
X260243D01*
X256427Y82646D02*
X261500D01*
X262472Y83618D02*
Y84562D01*
X255389Y85535D02*
X261500D01*
X255389Y88424D02*
X261500D01*
X262472Y89396D02*
Y90340D01*
X255389Y91313D02*
X261500D01*
X255389Y94202D02*
X261500D01*
X262472Y95174D02*
Y96118D01*
X255389Y97091D02*
X261500D01*
X255389Y99980D02*
X261500D01*
X262472Y100952D02*
Y101896D01*
X255389Y102869D02*
X261500D01*
X255389Y105758D02*
X261500D01*
X262472Y106730D02*
Y107674D01*
X260360Y109787D02*
Y110395D01*
X262472Y112508D02*
Y113452D01*
X259379Y114425D02*
X261500D01*
X259379Y117314D02*
X261500D01*
X262472Y118286D02*
Y119230D01*
X255389Y120203D02*
X261500D01*
X255389Y123091D02*
X261500D01*
X262472Y124064D02*
Y125008D01*
X255389Y125981D02*
X261500D01*
X255389Y128869D02*
X261500D01*
X262472Y129842D02*
Y130786D01*
X255389Y131758D02*
X261500D01*
X255389Y134648D02*
X261500D01*
X262472Y135620D02*
Y136564D01*
X255389Y137536D02*
X261500D01*
X255389Y140426D02*
X261500D01*
X262472Y141398D02*
Y142342D01*
X255389Y143315D02*
X261500D01*
X255389Y146203D02*
X261500D01*
X262472Y147176D02*
Y148120D01*
X255389Y149093D02*
X261500D01*
X255389Y151981D02*
X260056D01*
X261500Y153426D02*
Y154871D01*
Y156315D01*
X102973Y342167D02*
X140167D01*
X143000Y345000D01*
X94639Y350500D02*
X102973Y342167D01*
X89000Y350500D02*
X94639D01*
X99258Y340242D02*
X161782D01*
X99000Y340500D02*
X99258Y340242D01*
X161782D02*
X165500Y336524D01*
X88750Y228907D02*
X137276Y180380D01*
X169750Y238500D02*
X184726Y223524D01*
X240702D01*
X205023Y207523D02*
X240702D01*
X200611Y203111D02*
X205023Y207523D01*
X162029Y203111D02*
X200611D01*
X123090Y242049D02*
X162029Y203111D01*
X122308Y242831D02*
X123090Y242049D01*
X121287Y243852D02*
X122308Y242831D01*
X121287Y245895D02*
X128235Y252843D01*
X119244Y247938D02*
X126192Y254886D01*
X117201Y249981D02*
X124150Y256929D01*
X115159Y252024D02*
X122107Y258972D01*
X113116Y254066D02*
X120064Y261015D01*
X111073Y256109D02*
X118021Y263057D01*
X109030Y256109D02*
X109030Y256109D01*
X109030Y258152D02*
X115978Y265100D01*
X106987Y260195D02*
X113935Y267143D01*
X104944Y262238D02*
X111893Y269186D01*
X102901Y264280D02*
X109850Y271229D01*
X100859Y266323D02*
X107807Y273272D01*
X98816Y268366D02*
X105764Y275314D01*
X96773Y268366D02*
X96773Y268366D01*
X96773Y270409D02*
X103721Y277357D01*
X94730Y272452D02*
X101678Y279400D01*
X92687Y274495D02*
X99636Y281443D01*
X90645Y276537D02*
X97593Y283486D01*
X88602Y278580D02*
X95550Y285529D01*
X86559Y280623D02*
X93507Y287571D01*
X84516Y280623D02*
X84516Y280623D01*
X84516Y282666D02*
X91464Y289614D01*
X82473Y284709D02*
X89421Y291657D01*
X80430Y286752D02*
X87379Y293700D01*
X78388Y288794D02*
X85336Y295743D01*
X76345Y290837D02*
X83293Y297785D01*
X74302Y292880D02*
X81250Y299828D01*
X72259Y292880D02*
X72259Y292880D01*
X72259Y294923D02*
X79207Y301871D01*
X70216Y296966D02*
X77165Y303914D01*
X68173Y299009D02*
X75122Y305957D01*
X66131Y301052D02*
X73079Y308000D01*
X64088Y303094D02*
X67053Y306060D01*
X62045Y305137D02*
X65010Y308102D01*
X58981Y306159D02*
X60002Y305137D01*
X56938Y308201D02*
X58981Y306159D01*
X55917Y309223D02*
X56938Y308201D01*
X55917Y309223D02*
Y327416D01*
X59000Y330500D01*
X273000Y345000D02*
X275786Y342215D01*
X277500Y345000D02*
X277563Y344936D01*
X609111Y90904D02*
Y122750D01*
X604722Y92778D02*
Y122750D01*
X613408Y122658D02*
X613500Y122750D01*
X634864Y46320D02*
Y67665D01*
X633086Y47057D02*
Y66929D01*
X631307Y47793D02*
Y66192D01*
X613408Y89121D02*
X634864Y67665D01*
X609111Y90904D02*
X633086Y66929D01*
X604722Y92778D02*
X631307Y66192D01*
X613408Y89121D02*
Y122658D01*
X622417Y51475D02*
Y62510D01*
X624196Y50739D02*
Y63247D01*
X627752Y49266D02*
Y64720D01*
X613860Y318867D02*
X615959D01*
X614596Y317089D02*
X616695D01*
X620639Y52212D02*
Y61774D01*
X625974Y50002D02*
Y63983D01*
X592748Y89665D02*
Y282749D01*
Y89665D02*
X620639Y61774D01*
X594526Y90401D02*
Y259126D01*
Y90401D02*
X622417Y62510D01*
X596305Y91138D02*
Y247997D01*
Y91138D02*
X624196Y63247D01*
X598083Y91874D02*
Y237283D01*
Y91874D02*
X625974Y63983D01*
X599860Y92611D02*
Y226153D01*
Y92611D02*
X627752Y64720D01*
X245250Y180068D02*
X248702Y183520D01*
X589193Y294199D02*
X613860Y318867D01*
X589193Y84668D02*
Y294199D01*
X601638Y93347D02*
Y202531D01*
X637700Y238592D01*
X629529Y48530D02*
Y65456D01*
X601638Y93347D02*
X629529Y65456D01*
X599860Y226153D02*
X621133Y247426D01*
X598083Y237283D02*
X612300Y251500D01*
X596305Y247997D02*
X624750Y276443D01*
X594526Y259126D02*
X612300Y276900D01*
X592748Y282749D02*
X612300Y302300D01*
X590970Y293463D02*
X614596Y317089D01*
X590970Y85405D02*
Y293463D01*
Y85405D02*
X618862Y57514D01*
X589193Y84668D02*
X617084Y56777D01*
X214500Y67817D02*
Y82500D01*
X403000Y228500D02*
X513100D01*
X612300Y327700D01*
X243083Y158223D02*
Y158259D01*
X242416Y157556D02*
X243083Y158223D01*
X242416Y52473D02*
Y157556D01*
X243083Y158259D02*
X247425Y162600D01*
X249601D01*
X251786Y164785D01*
X349618Y258611D02*
Y313882D01*
Y258611D02*
X352702Y255528D01*
X339750Y323750D02*
X349618Y313882D01*
X328702Y255528D02*
X332314Y259140D01*
X280887Y387238D02*
X382875Y285250D01*
X190000Y387238D02*
X280887D01*
X45389Y391250D02*
X279389D01*
X382875Y285250D02*
X385500D01*
X312702Y255528D02*
X315785Y252444D01*
X534250Y472750D02*
X543450D01*
X612300Y403900D01*
X553024Y475834D02*
X608641Y420216D01*
X526166Y475834D02*
X553024D01*
X608641Y420216D02*
X621384D01*
X637700Y403900D01*
X520750Y481250D02*
X526166Y475834D01*
X528334Y478167D02*
X563184D01*
X525250Y481250D02*
X528334Y478167D01*
X563184D02*
X612300Y429050D01*
X573258Y481250D02*
X625207Y429300D01*
X529750Y481250D02*
X573258D01*
X625207Y429300D02*
X637700D01*
X176667Y485667D02*
X179750Y488750D01*
X148750Y485667D02*
X176667D01*
X147469D02*
X148750D01*
X146025Y487111D02*
Y488861D01*
X143136Y485667D02*
Y488861D01*
Y483972D02*
Y485667D01*
X140247Y483972D02*
Y485667D01*
Y488861D01*
X137358Y485667D02*
Y488861D01*
Y483972D02*
Y485667D01*
X134469Y483972D02*
Y485667D01*
Y488861D01*
X131580Y485667D02*
Y488861D01*
Y483972D02*
Y485667D01*
X128691Y483972D02*
Y485667D01*
Y488861D01*
X125802Y485667D02*
Y488861D01*
Y483972D02*
Y485667D01*
X122913Y483972D02*
Y485667D01*
Y488861D01*
X120024Y485667D02*
Y488861D01*
Y483972D02*
Y485667D01*
X117135Y483972D02*
Y484222D01*
X114246Y485667D02*
X115690D01*
X112801D02*
X114246D01*
X18805Y391670D02*
X112801Y485667D01*
X18805Y346335D02*
Y391670D01*
Y346335D02*
X39000Y326139D01*
Y320500D02*
Y326139D01*
X110889Y480750D02*
X179750D01*
X100389Y470250D02*
X110889Y480750D01*
X20582Y390443D02*
X71320Y441180D01*
X98898Y468759D02*
X100389Y470250D01*
X97876Y467737D02*
X98898Y468759D01*
X97876Y465694D02*
X102199Y461371D01*
X95834Y463651D02*
X100157Y459328D01*
X93791Y463651D02*
X93791Y463651D01*
X93791Y461609D02*
X98114Y457285D01*
X91748Y459566D02*
X96071Y455243D01*
X89705Y457523D02*
X94028Y453200D01*
X87662Y455480D02*
X91985Y451157D01*
X85619Y453437D02*
X89943Y449114D01*
X83577Y451395D02*
X87900Y447071D01*
X81534Y451394D02*
X81534Y451395D01*
X81534Y449352D02*
X85857Y445028D01*
X79491Y447309D02*
X83814Y442986D01*
X77448Y445266D02*
X81771Y440943D01*
X75405Y443223D02*
X79728Y438900D01*
X72341Y442202D02*
X73362Y443223D01*
X71320Y441180D02*
X72341Y442202D01*
X20582Y349528D02*
Y390443D01*
Y349528D02*
X26527Y343583D01*
X30277D01*
X39000Y334861D01*
Y330500D02*
Y334861D01*
X150283Y191374D02*
X153500D01*
X105657Y236000D02*
X150283Y191374D01*
X45917Y295741D02*
X55079Y286579D01*
X105128Y236529D02*
X105657Y236000D01*
X103085Y238572D02*
X105128Y236529D01*
X101042Y240615D02*
X103085Y238572D01*
X98999Y242658D02*
X101042Y240615D01*
X97978Y243679D02*
X98999Y242658D01*
X92089Y239833D02*
X95935Y243679D01*
X90046Y241876D02*
X93892Y245722D01*
X88003Y243918D02*
X91849Y247765D01*
X85960Y245961D02*
X89807Y249808D01*
X89807Y251850D02*
X89807Y251850D01*
X83917Y248004D02*
X87764Y251850D01*
X81875Y250047D02*
X85721Y253893D01*
X79832Y252090D02*
X83678Y255936D01*
X77789Y254133D02*
X81635Y257979D01*
X75746Y256175D02*
X79592Y260022D01*
X73703Y258218D02*
X77550Y262065D01*
X77550Y264107D02*
X77550Y264107D01*
X71660Y260261D02*
X75507Y264107D01*
X69618Y262304D02*
X73464Y266150D01*
X67575Y264347D02*
X71421Y268193D01*
X65532Y266390D02*
X69378Y270236D01*
X63489Y268433D02*
X67336Y272279D01*
X61446Y270475D02*
X65293Y274321D01*
X65293Y276364D02*
X65293Y276364D01*
X59404Y272518D02*
X63250Y276364D01*
X57361Y274561D02*
X61207Y278407D01*
X55318Y276604D02*
X59164Y280450D01*
X53275Y278647D02*
X57121Y282493D01*
X56100Y285557D02*
X57121Y284536D01*
X55079Y286579D02*
X56100Y285557D01*
X45917Y295741D02*
Y337416D01*
X49000Y340500D01*
X304086Y272146D02*
Y353981D01*
X287567Y370500D02*
X304086Y353981D01*
X199500Y370500D02*
X287567D01*
X198670Y369075D02*
Y369670D01*
X195781Y369075D02*
Y370500D01*
Y371925D01*
X192892Y370500D02*
Y371925D01*
Y369075D02*
Y370500D01*
X190003Y369075D02*
Y370500D01*
Y371925D01*
X187114Y370500D02*
Y371925D01*
Y369075D02*
Y370500D01*
X184225Y369075D02*
Y370500D01*
Y371925D01*
X181336Y370500D02*
Y371925D01*
Y369075D02*
Y370500D01*
X178447Y369075D02*
Y370500D01*
Y371925D01*
X175558Y370500D02*
Y371925D01*
Y369075D02*
Y370500D01*
X172669Y369075D02*
Y370500D01*
Y371925D01*
X168316Y370500D02*
X168355D01*
X162538D02*
X162577D01*
X156760D02*
X156799D01*
X151002D02*
X151021D01*
X149557Y371945D02*
Y372014D01*
X146668Y371945D02*
Y372014D01*
X143779Y371945D02*
Y372014D01*
X140890Y371945D02*
Y372014D01*
X138001Y371945D02*
Y372014D01*
X135112Y371945D02*
Y372014D01*
X132224Y371945D02*
Y372014D01*
X129334Y371945D02*
Y372014D01*
X126446Y371945D02*
Y372014D01*
X123556Y371945D02*
Y372014D01*
X120667Y371945D02*
Y372014D01*
X117779Y371945D02*
Y372014D01*
X114889Y371945D02*
Y372014D01*
X112001Y371945D02*
Y372014D01*
X109111Y371945D02*
Y372014D01*
X106222Y371945D02*
Y372014D01*
X103334Y370500D02*
X104778D01*
X100444D02*
X103334D01*
X99000D02*
X100444D01*
X247425Y204439D02*
X256145D01*
X245618Y206246D02*
X247425Y204439D01*
X245618Y206246D02*
Y209482D01*
X242716Y212384D02*
X245618Y209482D01*
X204547Y212384D02*
X242716D01*
X198879Y206717D02*
X204547Y212384D01*
X195701Y206717D02*
X198879D01*
X187084Y215334D02*
X195701Y206717D01*
X84138Y318279D02*
X123250Y279168D01*
X186578Y215840D02*
X187084Y215334D01*
X183556Y214861D02*
X184535Y215840D01*
X181513Y216904D02*
X183514Y218904D01*
X184256Y219646D01*
X181471Y220947D02*
X182213Y221689D01*
X179471Y218947D02*
X181471Y220947D01*
X177428Y220990D02*
X179428Y222990D01*
X180066Y223628D01*
X177385Y225033D02*
X178023Y225671D01*
X175385Y223032D02*
X177385Y225033D01*
X173342Y225075D02*
X175342Y227076D01*
X175980Y227713D01*
X173299Y229118D02*
X173937Y229756D01*
X171299Y227118D02*
X173299Y229118D01*
X169256Y229161D02*
X171257Y231161D01*
X171894Y231799D01*
X169214Y233204D02*
X169851Y233842D01*
X167213Y231204D02*
X169214Y233204D01*
X165171Y233247D02*
X167171Y235247D01*
X166664Y237290D02*
X167171Y236782D01*
X163128Y235289D02*
X165128Y237290D01*
X161085Y237332D02*
X163085Y239333D01*
X162843Y241375D02*
X163085Y241134D01*
X159042Y239375D02*
X161042Y241375D01*
X156999Y241418D02*
X157978Y242397D01*
Y244440D02*
X157978Y244440D01*
X154957Y243461D02*
X155935Y244440D01*
X152914Y245504D02*
X153892Y246482D01*
X150871Y247547D02*
X151850Y248525D01*
X148828Y249589D02*
X149807Y250568D01*
X146785Y251632D02*
X147764Y252611D01*
X144742Y253675D02*
X145721Y254654D01*
X145721Y256697D02*
X145721Y256696D01*
X142699Y255718D02*
X143678Y256696D01*
X140657Y257761D02*
X141636Y258739D01*
X138614Y259804D02*
X139593Y260782D01*
X136571Y261846D02*
X137550Y262825D01*
X134528Y263889D02*
X135507Y264868D01*
X132485Y265932D02*
X133464Y266911D01*
X133464Y268953D02*
X133464Y268953D01*
X130443Y267975D02*
X131421Y268953D01*
X128400Y270018D02*
X129378Y270996D01*
X126357Y272060D02*
X127336Y273039D01*
X124314Y274103D02*
X125293Y275082D01*
X124271Y278146D02*
X125293Y277125D01*
X123250Y279168D02*
X124271Y278146D01*
X84138Y318279D02*
Y355639D01*
X89000Y360500D01*
X604106Y38193D02*
X618862Y52948D01*
X603369Y39971D02*
X617084Y53685D01*
X618862Y52948D02*
Y57514D01*
X622911Y323305D02*
Y393288D01*
X616695Y317089D02*
X622911Y323305D01*
X615959Y318867D02*
X621133Y324041D01*
Y369666D01*
X612300Y403900D02*
X622911Y393288D01*
X612300Y378500D02*
X621133Y369666D01*
X617084Y53685D02*
Y56777D01*
X467750Y54250D02*
X469000Y55500D01*
X432795Y60749D02*
X549391D01*
X576556Y52417D02*
X582723Y58583D01*
X557723Y52417D02*
X576556D01*
X582723Y58583D02*
X610916D01*
X614000Y55500D01*
X556612Y50638D02*
X604138D01*
X609000Y55500D01*
X549391Y60749D02*
X557723Y52417D01*
X548279Y58970D02*
X556612Y50638D01*
X432058Y58970D02*
X548279D01*
X621133Y247426D02*
Y260333D01*
X637700Y276900D01*
X219011Y65821D02*
Y82504D01*
X637700Y238592D02*
Y251500D01*
X223500Y63846D02*
Y82500D01*
X228000Y61860D02*
Y82500D01*
X232500Y59875D02*
Y82500D01*
X624750Y289350D02*
X637700Y302300D01*
X624750Y276443D02*
Y289350D01*
X336277Y71417D02*
X338083Y73223D01*
X329084Y71417D02*
X336277D01*
X326000Y74500D02*
X329084Y71417D01*
X251786Y164785D02*
Y192035D01*
X267840Y268390D02*
X272702Y263529D01*
X264763Y247588D02*
X269500Y252325D01*
X264763Y247512D02*
Y247588D01*
X161613Y243526D02*
X244702D01*
X29000Y350500D02*
X32222Y353722D01*
Y378083D01*
X59000Y370500D02*
X73814Y385314D01*
X42222Y275435D02*
Y347278D01*
X44000Y283250D02*
Y345500D01*
X52297Y297750D02*
Y351564D01*
X54138Y308486D02*
Y355362D01*
X59000Y320500D02*
X62084Y323583D01*
X200246Y240012D02*
X212733Y227524D01*
X200010Y240012D02*
X200246D01*
X245091Y251138D02*
X248702Y247527D01*
X256406D02*
X256702D01*
X285434Y375147D02*
X312702Y347879D01*
X153250Y375147D02*
X285434D01*
X312702Y271530D02*
Y347879D01*
X194441Y213438D02*
Y213442D01*
X196999Y216000D01*
X121680Y272180D02*
X188922Y204939D01*
X199689D02*
X205357Y210606D01*
X188922Y204939D02*
X199689D01*
X161292Y201332D02*
X201347D01*
X197088Y209878D02*
X197378D01*
X197010Y209800D02*
X197088Y209878D01*
X197378D02*
X201663Y214163D01*
X160687Y201937D02*
X161292Y201332D01*
X201347D02*
X204265Y204250D01*
X196999Y216000D02*
X248225D01*
X256702Y207523D01*
X220088Y443834D02*
X248574D01*
X179701Y436438D02*
X253455D01*
X224611Y453611D02*
X227750Y456750D01*
X220490Y453611D02*
X224611D01*
X216677Y449799D02*
X220490Y453611D01*
X216677Y447245D02*
Y449799D01*
Y447245D02*
X220088Y443834D01*
X174888Y441251D02*
X179701Y436438D01*
X174888Y441251D02*
Y445611D01*
X171750Y448750D02*
X174888Y445611D01*
X32222Y378083D02*
X45389Y391250D01*
X62084Y353583D02*
Y361777D01*
X59000Y350500D02*
X62084Y353583D01*
X55917Y367944D02*
Y371777D01*
Y367944D02*
X62084Y361777D01*
X55917Y371777D02*
X71377Y387238D01*
X49000Y360500D02*
X54138Y355362D01*
X333618Y274613D02*
X336702Y271530D01*
X333618Y274613D02*
Y331992D01*
X280297Y385314D02*
X333618Y331992D01*
X142750Y385314D02*
X280297D01*
X140655D02*
X142750D01*
X139210D02*
X140655D01*
X137766Y383369D02*
Y383869D01*
X134877Y383369D02*
Y383869D01*
X131988Y383369D02*
Y383869D01*
X129099Y383369D02*
Y383869D01*
X126210Y383369D02*
Y383869D01*
X123321Y383369D02*
Y383869D01*
X120432Y385314D02*
X121876D01*
X118987D02*
X120432D01*
X73814D02*
X118987D01*
X328702Y271530D02*
X331785Y274613D01*
Y331311D01*
X282949Y380147D02*
X331785Y331311D01*
X121204Y380147D02*
X282949D01*
X120537D02*
X121204D01*
X119093D02*
X120537D01*
X117648Y381591D02*
Y382091D01*
X114759Y381591D02*
Y382091D01*
X111870Y381591D02*
Y382091D01*
X108981Y381591D02*
Y382091D01*
X106092Y381591D02*
Y382091D01*
X103203Y381591D02*
Y382091D01*
X100314Y381591D02*
Y382091D01*
X97425Y381591D02*
Y382091D01*
X94536Y381591D02*
Y382091D01*
X91647Y381591D02*
Y382091D01*
X88758Y381591D02*
Y382091D01*
X85869Y380147D02*
Y382091D01*
Y378369D02*
Y380147D01*
X82980Y378369D02*
Y378702D01*
X80091Y380147D02*
X81536D01*
X78647D02*
X80091D01*
X69000Y370500D02*
X78647Y380147D01*
X152983Y375147D02*
X153250D01*
X151538Y376591D02*
Y376925D01*
X148649Y376591D02*
Y376925D01*
X145760Y376591D02*
Y376925D01*
X142871Y376591D02*
Y376925D01*
X139982Y376591D02*
Y376925D01*
X137093Y376591D02*
Y376925D01*
X134204Y376591D02*
Y376925D01*
X131315Y376591D02*
Y376925D01*
X128426Y376591D02*
Y376925D01*
X125537Y376591D02*
Y376925D01*
X122648Y376591D02*
Y376925D01*
X119759Y376591D02*
Y376925D01*
X116870Y376591D02*
Y376925D01*
X113981Y376591D02*
Y376925D01*
X111092Y376591D02*
Y376925D01*
X108203Y376591D02*
Y376925D01*
X105314Y376591D02*
Y376925D01*
X102425Y375147D02*
Y376925D01*
Y374342D02*
Y375147D01*
X99537Y374342D02*
Y375147D01*
Y376925D01*
X96648Y375147D02*
Y376925D01*
Y372727D02*
Y375147D01*
X93758Y372727D02*
Y375147D01*
Y376925D01*
X90870Y375147D02*
Y376925D01*
Y375008D02*
Y375147D01*
X87980Y375008D02*
Y375147D01*
X85091D02*
X87980D01*
X83647D02*
X85091D01*
X245063Y187882D02*
X248702Y191521D01*
X245063Y183520D02*
Y187882D01*
X241923Y180380D02*
X245063Y183520D01*
X137276Y180380D02*
X241923D01*
X42222Y275435D02*
X43328Y274328D01*
X43808Y273849D01*
X39836Y267835D02*
X43808Y271806D01*
X41879Y265792D02*
X46872Y270785D01*
X49390Y273303D01*
X48915Y268742D02*
X51433Y271260D01*
X43922Y263749D02*
X48915Y268742D01*
X45965Y261707D02*
X50958Y266699D01*
X53476Y269217D01*
X53000Y264657D02*
X55519Y267175D01*
X48008Y259664D02*
X53000Y264657D01*
X50051Y257621D02*
X55043Y262614D01*
X57561Y265132D01*
X57086Y260571D02*
X59604Y263089D01*
X52093Y255578D02*
X57086Y260571D01*
X54136Y253535D02*
X59129Y258528D01*
X61647Y261046D01*
X61172Y256485D02*
X63690Y259003D01*
X56179Y251492D02*
X61172Y256485D01*
X58222Y249450D02*
X63215Y254442D01*
X65733Y256961D01*
X65258Y252400D02*
X67776Y254918D01*
X60265Y247407D02*
X65258Y252400D01*
X62308Y245364D02*
X67300Y250357D01*
X69819Y252875D01*
X69343Y248314D02*
X71861Y250832D01*
X64350Y243321D02*
X69343Y248314D01*
X66393Y241278D02*
X71386Y246271D01*
X73904Y248789D01*
X73429Y244228D02*
X75947Y246746D01*
X68436Y239235D02*
X73429Y244228D01*
X70479Y237193D02*
X75472Y242185D01*
X77990Y244704D01*
X77514Y240143D02*
X80033Y242661D01*
X72522Y235150D02*
X77514Y240143D01*
X74564Y233107D02*
X79557Y238100D01*
X82076Y240618D01*
X81600Y236057D02*
X84118Y238575D01*
X76607Y231064D02*
X81600Y236057D01*
X78650Y229021D02*
X83643Y234014D01*
X86161Y236532D01*
X85686Y231971D02*
X88204Y234489D01*
X80693Y226978D02*
X85686Y231971D01*
X82736Y224936D02*
X86707Y228907D01*
X39000Y350500D02*
X42222Y347278D01*
X143877Y183373D02*
X240555D01*
X142250Y185000D02*
X143877Y183373D01*
X44000Y283250D02*
X92342Y234908D01*
X141370Y185880D02*
X142250Y185000D01*
X141370Y187923D02*
X145274Y191826D01*
X138306Y188944D02*
X143231Y193869D01*
X135892Y186530D02*
X138306Y188944D01*
X133849Y188573D02*
X136263Y190987D01*
X141188Y195912D01*
X134220Y193030D02*
X139145Y197955D01*
X131806Y190616D02*
X134220Y193030D01*
X129763Y192658D02*
X132177Y195073D01*
X137102Y199998D01*
X130135Y197115D02*
X135060Y202041D01*
X127720Y194701D02*
X130135Y197115D01*
X125677Y196744D02*
X128092Y199158D01*
X133017Y204083D01*
X126049Y201201D02*
X130974Y206126D01*
X123635Y198787D02*
X126049Y201201D01*
X121592Y200830D02*
X124006Y203244D01*
X128931Y208169D01*
X121963Y205287D02*
X126888Y210212D01*
X119549Y202873D02*
X121963Y205287D01*
X117506Y204915D02*
X119920Y207330D01*
X124846Y212255D01*
X117878Y209372D02*
X122803Y214298D01*
X115463Y206958D02*
X117878Y209372D01*
X113421Y209001D02*
X115835Y211415D01*
X120760Y216340D01*
X113792Y213458D02*
X118717Y218383D01*
X111378Y211044D02*
X113792Y213458D01*
X109335Y213087D02*
X111749Y215501D01*
X116674Y220426D01*
X109706Y217544D02*
X114631Y222469D01*
X107292Y215130D02*
X109706Y217544D01*
X105249Y217172D02*
X107663Y219587D01*
X112589Y224512D01*
X105621Y221629D02*
X110546Y226555D01*
X103206Y219215D02*
X105621Y221629D01*
X101164Y221258D02*
X103578Y223672D01*
X108503Y228597D01*
X101535Y225715D02*
X106460Y230640D01*
X99121Y223301D02*
X101535Y225715D01*
X97078Y225344D02*
X99492Y227758D01*
X104417Y232683D01*
X97449Y229801D02*
X102374Y234726D01*
X95035Y227386D02*
X97449Y229801D01*
X92992Y229429D02*
X95407Y231844D01*
X100332Y236769D01*
X94385Y234908D02*
X98289Y238811D01*
X44000Y345500D02*
X49000Y350500D01*
X240555Y183373D02*
X240702Y183520D01*
X188382Y387238D02*
X190000D01*
X186283D02*
X188382D01*
X180504D02*
X181814D01*
X174727D02*
X176036D01*
X168949D02*
X170258D01*
X163171D02*
X164480D01*
X157393D02*
X158702D01*
X151615D02*
X152924D01*
X145837D02*
X147146D01*
X140059D02*
X141368D01*
X134281D02*
X135590D01*
X128503D02*
X129812D01*
X122725D02*
X124034D01*
X116947D02*
X118256D01*
X111169D02*
X112478D01*
X105391D02*
X106700D01*
X99613D02*
X100922D01*
X93835D02*
X95144D01*
X88057D02*
X89366D01*
X82279D02*
X83588D01*
X75711D02*
X77810D01*
X72822D02*
X75711D01*
X71377D02*
X72822D01*
X171647Y365853D02*
X273397D01*
X171500Y366000D02*
X171647Y365853D01*
X153500Y191374D02*
X153885D01*
X155330Y186742D02*
Y189930D01*
X158219Y186742D02*
Y191374D01*
X158976Y192132D02*
X160350D01*
X161108Y186742D02*
Y191374D01*
X163997Y186742D02*
Y191374D01*
X164755Y192132D02*
X166128D01*
X166886Y186742D02*
Y191374D01*
X169775Y186742D02*
Y191374D01*
X170532Y192132D02*
X171906D01*
X172664Y186742D02*
Y191374D01*
X175553Y186742D02*
Y191374D01*
X176311Y192132D02*
X177684D01*
X178442Y186742D02*
Y191374D01*
X181331Y186742D02*
Y191374D01*
X182089Y192132D02*
X183462D01*
X184220Y186742D02*
Y191374D01*
X187109Y186742D02*
Y191374D01*
X187866Y192132D02*
X189240D01*
X189998Y186742D02*
Y191374D01*
X192887Y186742D02*
Y191374D01*
X193645Y192132D02*
X195018D01*
X195776Y186742D02*
Y191374D01*
X198665Y186742D02*
Y191374D01*
X199422Y192132D02*
X200796D01*
X201553Y186742D02*
Y191374D01*
X204443Y186742D02*
Y191374D01*
X205201Y192132D02*
X206574D01*
X207332Y186742D02*
Y191374D01*
X210221Y186742D02*
Y191374D01*
X210978Y192132D02*
X212352D01*
X213109Y186742D02*
Y191374D01*
X215998Y186742D02*
Y191374D01*
X216756Y192132D02*
X218130D01*
X218888Y186742D02*
Y191374D01*
X221777Y186742D02*
Y191374D01*
X222534Y192132D02*
X223908D01*
X224666Y186742D02*
Y191374D01*
X227554Y186742D02*
Y191374D01*
X228312Y192132D02*
X229686D01*
X230443Y186742D02*
Y191374D01*
X233333Y186742D02*
Y191374D01*
X234090Y192132D02*
X235464D01*
X236222Y191374D02*
X239111D01*
X240555D01*
X240702Y191521D01*
X52297Y297360D02*
X53164Y296493D01*
X55207Y294450D01*
X56229Y293428D01*
X55632Y290789D02*
X56229Y291386D01*
X57675Y288747D02*
X58271Y289343D01*
X59718Y286704D02*
X60314Y287300D01*
X61761Y284661D02*
X62357Y285257D01*
X64400D02*
X64400Y285257D01*
X63804Y282618D02*
X64400Y283214D01*
X65846Y280575D02*
X66443Y281171D01*
X67889Y278532D02*
X68486Y279129D01*
X69932Y276490D02*
X70528Y277086D01*
X72571Y277086D02*
X72571Y277086D01*
X71975Y274447D02*
X72571Y275043D01*
X74018Y272404D02*
X74614Y273000D01*
X76061Y270361D02*
X76657Y270957D01*
X78103Y268318D02*
X78700Y268915D01*
X80146Y266275D02*
X80743Y266872D01*
X82189Y264233D02*
X82785Y264829D01*
X84828Y264829D02*
X84828Y264829D01*
X84232Y262190D02*
X84828Y262786D01*
X86275Y260147D02*
X86871Y260743D01*
X88318Y258104D02*
X88914Y258700D01*
X90360Y256061D02*
X90957Y256658D01*
X92403Y254018D02*
X92999Y254615D01*
X94446Y251976D02*
X95042Y252572D01*
X97085Y252572D02*
X97085Y252572D01*
X96489Y249933D02*
X97085Y250529D01*
X98532Y247890D02*
X99128Y248486D01*
X100575Y245847D02*
X101171Y246444D01*
X102617Y243804D02*
X103214Y244401D01*
X104660Y241761D02*
X105257Y242358D01*
X106703Y239719D02*
X107299Y240315D01*
X109342Y240315D02*
X109342Y240315D01*
X108746Y237676D02*
X109342Y238272D01*
X110789Y235633D02*
X111385Y236229D01*
X112831Y233590D02*
X113428Y234186D01*
X114874Y231547D02*
X115471Y232144D01*
X116917Y229505D02*
X117514Y230101D01*
X118960Y227462D02*
X119556Y228058D01*
X121599D02*
X121599Y228058D01*
X121003Y225419D02*
X121599Y226015D01*
X123046Y223376D02*
X123642Y223972D01*
X125088Y221333D02*
X125685Y221929D01*
X127131Y219290D02*
X127728Y219887D01*
X129174Y217247D02*
X129770Y217844D01*
X131217Y215205D02*
X131813Y215801D01*
X133856D02*
X133856Y215801D01*
X133260Y213162D02*
X133856Y213758D01*
X135302Y211119D02*
X135899Y211715D01*
X137345Y209076D02*
X137942Y209673D01*
X139388Y207033D02*
X139985Y207630D01*
X141431Y204990D02*
X142027Y205587D01*
X143474Y202948D02*
X144070Y203544D01*
X146113D02*
X146113Y203544D01*
X145517Y200905D02*
X146113Y201501D01*
X147559Y198862D02*
X148156Y199458D01*
X52297Y297360D02*
Y297750D01*
X43361Y360500D02*
X52297Y351564D01*
X39000Y360500D02*
X43361D01*
X151000Y199458D02*
X152524D01*
X153968D01*
X155413Y194743D02*
Y198014D01*
X158302Y194743D02*
Y198014D01*
X161191Y194743D02*
Y198014D01*
X164080Y194743D02*
Y198014D01*
X166969Y194743D02*
Y198014D01*
X169858Y194743D02*
Y198014D01*
X172747Y194743D02*
Y198014D01*
X175636Y194743D02*
Y198014D01*
X178525Y194743D02*
Y198014D01*
X181414Y194743D02*
Y198014D01*
X184303Y194743D02*
Y198014D01*
X187192Y194743D02*
Y198014D01*
X190081Y194743D02*
Y198014D01*
X192970Y194743D02*
Y198014D01*
X195859Y194743D02*
Y198014D01*
X198748Y194743D02*
Y198014D01*
X201637Y194743D02*
Y198014D01*
X204526Y194743D02*
Y199458D01*
Y201028D01*
X207415Y199458D02*
Y201028D01*
Y194743D02*
Y199458D01*
X210304Y194743D02*
Y199458D01*
Y201028D01*
X213193Y199458D02*
Y201028D01*
Y194743D02*
Y199458D01*
X216082Y194743D02*
Y199458D01*
Y201028D01*
X218971Y199458D02*
Y201028D01*
Y194743D02*
Y199458D01*
X221860Y194743D02*
Y199458D01*
Y201028D01*
X224749Y199458D02*
Y201028D01*
Y194743D02*
Y199458D01*
X227638Y194743D02*
Y199458D01*
Y201028D01*
X230527Y199458D02*
Y201028D01*
Y194743D02*
Y199458D01*
X233416Y194743D02*
Y199458D01*
Y201028D01*
X236305Y200903D02*
Y201028D01*
X237749Y199458D02*
X239194D01*
X240638D01*
X240702Y199522D01*
X246478D02*
X248702D01*
X241750Y204250D02*
X246478Y199522D01*
X204265Y204250D02*
X241750D01*
X159344Y203281D02*
X160687Y201937D01*
X158323Y204302D02*
X159344Y203281D01*
X153701Y201723D02*
X156280Y204302D01*
X151658Y203766D02*
X154237Y206345D01*
X149114Y205308D02*
X152194Y208388D01*
X147071Y207350D02*
X150151Y210431D01*
X145028Y209393D02*
X148109Y212473D01*
X142986Y211436D02*
X146066Y214516D01*
X140943Y213479D02*
X144023Y216559D01*
X138900Y215522D02*
X141980Y218602D01*
X136857Y217565D02*
X139937Y220645D01*
X134814Y219607D02*
X137894Y222687D01*
X132771Y221650D02*
X135852Y224730D01*
X130729Y223693D02*
X133809Y226773D01*
X128686Y225736D02*
X131766Y228816D01*
X126643Y227779D02*
X129723Y230859D01*
X124600Y229821D02*
X127680Y232902D01*
X122557Y231864D02*
X125638Y234944D01*
X120514Y233907D02*
X123595Y236987D01*
X118472Y235950D02*
X121552Y239030D01*
X116429Y237993D02*
X119509Y241073D01*
X114386Y240036D02*
X117466Y243116D01*
X112343Y242078D02*
X115423Y245159D01*
X110300Y244121D02*
X113380Y247201D01*
X108258Y246164D02*
X111338Y249244D01*
X106215Y248207D02*
X109295Y251287D01*
X104172Y250250D02*
X107252Y253330D01*
X102129Y252293D02*
X105209Y255373D01*
X100086Y254335D02*
X103166Y257416D01*
X98043Y256378D02*
X101124Y259458D01*
X96000Y258421D02*
X99081Y261501D01*
X93958Y260464D02*
X97038Y263544D01*
X91915Y262507D02*
X94995Y265587D01*
X89872Y264550D02*
X92952Y267630D01*
X87829Y266592D02*
X90909Y269673D01*
X85786Y268635D02*
X88867Y271715D01*
X83743Y270678D02*
X86824Y273758D01*
X81701Y272721D02*
X84781Y275801D01*
X79658Y274764D02*
X82738Y277844D01*
X77615Y276807D02*
X80695Y279887D01*
X75572Y278849D02*
X78652Y281930D01*
X73529Y280892D02*
X76610Y283972D01*
X71487Y282935D02*
X74567Y286015D01*
X69444Y284978D02*
X72524Y288058D01*
X67401Y287021D02*
X70481Y290101D01*
X65358Y289063D02*
X68438Y292144D01*
X63315Y291106D02*
X66396Y294186D01*
X61272Y293149D02*
X64353Y296229D01*
X59230Y295192D02*
X62310Y298272D01*
X57187Y297235D02*
X60267Y300315D01*
X56604Y300738D02*
X58224Y302358D01*
X54561Y302780D02*
X56181Y304401D01*
X55160Y307465D02*
X56181Y306444D01*
X54138Y308486D02*
X55160Y307465D01*
X93500Y366000D02*
X102250D01*
X171423D02*
X171500D01*
X167252D02*
Y367282D01*
Y364889D02*
Y366000D01*
X164363Y364889D02*
Y366000D01*
Y367282D01*
X161474Y366000D02*
Y367282D01*
Y364889D02*
Y366000D01*
X158585Y364889D02*
Y366000D01*
Y367282D01*
X155696Y366000D02*
Y367282D01*
Y364889D02*
Y366000D01*
X152807Y364889D02*
Y366000D01*
Y367282D01*
X149918Y366000D02*
Y367282D01*
Y364889D02*
Y366000D01*
X147029Y364889D02*
Y366000D01*
Y367282D01*
X144141Y366000D02*
Y367282D01*
Y364889D02*
Y366000D01*
X141251Y364889D02*
Y366000D01*
Y367282D01*
X138363Y366000D02*
Y367282D01*
Y364889D02*
Y366000D01*
X135473Y364889D02*
Y366000D01*
Y367282D01*
X132584Y366000D02*
Y367282D01*
Y364889D02*
Y366000D01*
X129696Y364889D02*
Y366000D01*
Y367282D01*
X126806Y366000D02*
Y367282D01*
Y364889D02*
Y366000D01*
X123918Y364889D02*
Y366000D01*
Y367282D01*
X121028Y366000D02*
Y367282D01*
Y364889D02*
Y366000D01*
X118139Y364889D02*
Y366000D01*
Y367282D01*
X115251Y366000D02*
Y367282D01*
Y364889D02*
Y366000D01*
X112361Y364889D02*
Y366000D01*
Y367282D01*
X109473Y366000D02*
Y367282D01*
Y364889D02*
Y366000D01*
X106583Y364889D02*
Y366000D01*
Y367282D01*
X102250Y366000D02*
X102413D01*
X244702Y243526D02*
X248702Y239526D01*
X85917Y319223D02*
X116945Y288195D01*
X160865Y244274D02*
X161613Y243526D01*
X158823Y246317D02*
X160865Y244274D01*
X157801Y247338D02*
X158823Y246317D01*
X157801Y249381D02*
X162624Y254204D01*
X155758Y251424D02*
X160581Y256247D01*
X153715Y253466D02*
X158539Y258290D01*
X151673Y255509D02*
X156496Y260333D01*
X149630Y257552D02*
X154453Y262375D01*
X147587Y259595D02*
X152410Y264418D01*
X145544Y259595D02*
X145544Y259595D01*
X145544Y261638D02*
X150367Y266461D01*
X143501Y263681D02*
X148325Y268504D01*
X141459Y265723D02*
X146282Y270547D01*
X139416Y267766D02*
X144239Y272589D01*
X137373Y269809D02*
X142196Y274632D01*
X135330Y271852D02*
X140153Y276675D01*
X133287Y271852D02*
X133287Y271852D01*
X133287Y273895D02*
X138110Y278718D01*
X131244Y275938D02*
X136068Y280761D01*
X129202Y277980D02*
X134025Y282804D01*
X127159Y280023D02*
X131982Y284846D01*
X125116Y282066D02*
X129939Y286889D01*
X123073Y284109D02*
X127896Y288932D01*
X121030Y284109D02*
X121030Y284109D01*
X121030Y286152D02*
X125854Y290975D01*
X118987Y288195D02*
X123811Y293018D01*
X85917Y319223D02*
Y327416D01*
X89000Y330500D01*
X205357Y210606D02*
X241979D01*
X243840Y208745D01*
Y205509D02*
Y208745D01*
X244669Y214163D02*
X248702Y210129D01*
X201663Y214163D02*
X244669D01*
X243840Y205509D02*
X246688Y202661D01*
X253563D01*
X248702Y207523D02*
Y210129D01*
X253563Y202661D02*
X256702Y199522D01*
X70277Y323583D02*
X86111Y307750D01*
X120839Y273022D02*
X121680Y272180D01*
X116723Y270949D02*
X118796Y273022D01*
X114680Y272992D02*
X117774Y276086D01*
X119775Y278086D01*
X115732Y278129D02*
X117732Y280129D01*
X112637Y275034D02*
X115732Y278129D01*
X110594Y277077D02*
X113689Y280172D01*
X115689Y282172D01*
X111646Y282215D02*
X113646Y284215D01*
X108551Y279120D02*
X111646Y282215D01*
X106509Y281163D02*
X109603Y284258D01*
X111603Y286258D01*
X107560Y286300D02*
X109560Y288300D01*
X104466Y283206D02*
X107560Y286300D01*
X102423Y285249D02*
X105518Y288343D01*
X107518Y290343D01*
X103475Y290386D02*
X105475Y292386D01*
X100380Y287291D02*
X103475Y290386D01*
X98337Y289334D02*
X101432Y292429D01*
X103432Y294429D01*
X99389Y294472D02*
X101389Y296472D01*
X96294Y291377D02*
X99389Y294472D01*
X94252Y293420D02*
X97346Y296514D01*
X99346Y298515D01*
X95303Y298557D02*
X97304Y300557D01*
X92209Y295463D02*
X95303Y298557D01*
X90166Y297505D02*
X93261Y300600D01*
X95261Y302600D01*
X91218Y302643D02*
X93218Y304643D01*
X88123Y299548D02*
X91218Y302643D01*
X86080Y301591D02*
X89175Y304686D01*
X91175Y306686D01*
X88153Y307750D02*
X89132Y308729D01*
X62084Y323583D02*
X70277D01*
X212733Y227524D02*
X244702D01*
X248702Y223524D01*
D96*
X315617Y106308D02*
G03*
X316058Y106308I221J221D01*
G01*
X315617D02*
G03*
X313573Y106308I-1022J-1022D01*
G01*
D02*
G03*
X313573Y104265I1022J-1022D01*
G01*
X315084Y100711D02*
G03*
X315084Y102754I-1022J1022D01*
G01*
X313041Y100711D02*
G03*
X315084Y100711I1022J1022D01*
G01*
X311530Y102221D02*
G03*
X309486Y102221I-1022J-1022D01*
G01*
D02*
G03*
X309486Y100178I1022J-1022D01*
G01*
X310997Y96624D02*
G03*
X310997Y98667I-1022J1022D01*
G01*
X308953Y96624D02*
G03*
X310997Y96624I1022J1022D01*
G01*
X307443Y98134D02*
G03*
X305399Y98134I-1022J-1022D01*
G01*
X305399Y98134D02*
G03*
X305399Y96091I1022J-1022D01*
G01*
X306910Y92536D02*
G03*
X306910Y94580I-1022J1022D01*
G01*
X304866Y92536D02*
G03*
X306910Y92536I1022J1022D01*
G01*
X303356Y94047D02*
G03*
X301312Y94047I-1022J-1022D01*
G01*
X301312Y94047D02*
G03*
X301312Y92004I1022J-1022D01*
G01*
X302823Y88449D02*
G03*
X302823Y90493I-1022J1022D01*
G01*
X300779Y88449D02*
G03*
X302823Y88449I1022J1022D01*
G01*
X299269Y89960D02*
G03*
X297225Y89960I-1022J-1022D01*
G01*
X297225Y89960D02*
G03*
X297225Y87916I1022J-1022D01*
G01*
X299305Y83793D02*
G03*
X299305Y85837I-1022J1022D01*
G01*
X297261Y83793D02*
G03*
X299305Y83793I1022J1022D01*
G01*
X295182Y85873D02*
G03*
X293138Y85873I-1022J-1022D01*
G01*
X293138D02*
G03*
X293138Y83829I1022J-1022D01*
G01*
X299298Y75626D02*
G03*
X299298Y77669I-1022J1022D01*
G01*
X297255Y75626D02*
G03*
X299298Y75626I1022J1022D01*
G01*
X291095Y81786D02*
G03*
X289051Y81786I-1022J-1022D01*
G01*
D02*
G03*
X289051Y79742I1022J-1022D01*
G01*
Y79301D02*
G03*
X289051Y79742I-221J221D01*
G01*
X285254Y80504D02*
G03*
X285254Y80062I221J-221D01*
G01*
X285254Y78019D02*
G03*
X285254Y80062I-1022J1022D01*
G01*
X283210Y78019D02*
G03*
X285254Y78019I1022J1022D01*
G01*
X282769Y78460D02*
G03*
X280725Y78460I-1022J-1022D01*
G01*
Y78460D02*
G03*
X280725Y76416I1022J-1022D01*
G01*
X281166Y73932D02*
G03*
X281166Y75975I-1022J1022D01*
G01*
X279123Y73932D02*
G03*
X281166Y73932I1022J1022D01*
G01*
X278682Y74373D02*
G03*
X276638Y74373I-1022J-1022D01*
G01*
Y74373D02*
G03*
X276638Y72329I1022J-1022D01*
G01*
X276859Y70526D02*
G03*
X276859Y72109I-791J791D01*
G01*
X274815Y70065D02*
G03*
X276398Y70065I791J791D01*
G01*
X274595Y70286D02*
G03*
X272551Y70286I-1022J-1022D01*
G01*
X272551Y70286D02*
G03*
X272551Y68242I1022J-1022D01*
G01*
X272551Y67801D02*
G03*
X272551Y68242I-221J221D01*
G01*
X310604Y112897D02*
G03*
X312647Y112897I1022J1022D01*
G01*
X305587Y117914D02*
G03*
X303543Y117914I-1022J-1022D01*
G01*
D02*
G03*
X303543Y115871I1022J-1022D01*
G01*
X309802Y107568D02*
G03*
X309802Y109611I-1022J1022D01*
G01*
X307759Y107568D02*
G03*
X309802Y107568I1022J1022D01*
G01*
X301500Y113827D02*
G03*
X299456Y113827I-1022J-1022D01*
G01*
X299456Y113827D02*
G03*
X299456Y111784I1022J-1022D01*
G01*
X305716Y103481D02*
G03*
X305716Y105524I-1022J1022D01*
G01*
X303672Y103481D02*
G03*
X305716Y103481I1022J1022D01*
G01*
X297413Y109740D02*
G03*
X295369Y109740I-1022J-1022D01*
G01*
X295369Y109740D02*
G03*
X295369Y107696I1022J-1022D01*
G01*
X301628Y99394D02*
G03*
X301628Y101437I-1022J1022D01*
G01*
X299585Y99394D02*
G03*
X301628Y99394I1022J1022D01*
G01*
X293326Y105653D02*
G03*
X291282Y105653I-1022J-1022D01*
G01*
X291282Y105653D02*
G03*
X291282Y103609I1022J-1022D01*
G01*
X297541Y95307D02*
G03*
X297541Y97350I-1022J1022D01*
G01*
X295498Y95307D02*
G03*
X297541Y95307I1022J1022D01*
G01*
X289239Y101566D02*
G03*
X287195Y101566I-1022J-1022D01*
G01*
Y101566D02*
G03*
X287195Y99522I1022J-1022D01*
G01*
X293454Y91220D02*
G03*
X293454Y93263I-1022J1022D01*
G01*
X291411Y91220D02*
G03*
X293454Y91220I1022J1022D01*
G01*
X285152Y97479D02*
G03*
X283108Y97479I-1022J-1022D01*
G01*
D02*
G03*
X283108Y95435I1022J-1022D01*
G01*
X288125Y88375D02*
G03*
X288125Y90418I-1022J1022D01*
G01*
X322889Y106000D02*
X343250D01*
X336500Y108000D02*
X339750Y111250D01*
X317750Y108000D02*
X336500D01*
X316005Y111255D02*
X330766D01*
X314089Y114339D02*
X325339D01*
X276500Y66750D02*
X288250Y78500D01*
X316058Y106308D02*
X317750Y108000D01*
X313573Y106308D02*
X313573Y106308D01*
Y104265D02*
X313794Y104044D01*
X315084Y102754D01*
Y100711D02*
X315084Y100711D01*
X311751Y102001D02*
X313041Y100711D01*
X311530Y102221D02*
X311751Y102001D01*
X309486Y102221D02*
X309486Y102221D01*
Y100178D02*
X309707Y99957D01*
X310997Y98667D01*
Y96624D02*
X310997Y96624D01*
X307663Y97914D02*
X308953Y96624D01*
X307443Y98134D02*
X307663Y97914D01*
X305399Y98134D02*
Y98134D01*
Y96091D02*
X305620Y95870D01*
X306910Y94580D01*
X303577Y93826D02*
X304866Y92536D01*
X303356Y94047D02*
X303577Y93826D01*
X301312Y94047D02*
Y94047D01*
Y92004D02*
X301533Y91783D01*
X302823Y90493D01*
X299489Y89739D02*
X300779Y88449D01*
X299269Y89960D02*
X299489Y89739D01*
X297225Y89960D02*
X297225D01*
Y87916D02*
X297446Y87696D01*
X299305Y85837D01*
Y83793D02*
X299305Y83793D01*
X295402Y85652D02*
X297261Y83793D01*
X295182Y85873D02*
X295402Y85652D01*
X293138Y85873D02*
X293138Y85873D01*
Y83829D02*
X293359Y83609D01*
X299298Y77669D01*
Y75626D02*
X299298Y75626D01*
X291315Y81565D02*
X297255Y75626D01*
X291095Y81786D02*
X291315Y81565D01*
X289051Y81786D02*
X289051Y81786D01*
X288250Y78500D02*
X289051Y79301D01*
X285625Y80875D02*
X316005Y111255D01*
X271500Y66750D02*
X271750Y67000D01*
X285254Y80504D02*
X285625Y80875D01*
X285254Y78019D02*
Y78019D01*
X282989Y78239D02*
X283210Y78019D01*
X282769Y78460D02*
X282989Y78239D01*
X280725Y78460D02*
X280725Y78460D01*
Y76416D02*
X280946Y76196D01*
X281166Y75975D01*
Y73932D02*
Y73932D01*
X278902Y74152D02*
X279123Y73932D01*
X278682Y74373D02*
X278902Y74152D01*
X276638Y74373D02*
X276638D01*
Y72329D02*
X276859Y72109D01*
X276398Y70065D02*
X276859Y70526D01*
X274595Y70286D02*
X274815Y70065D01*
X271750Y67000D02*
X272551Y67801D01*
X271500Y47750D02*
Y66750D01*
X266500Y66750D02*
X288125Y88375D01*
X313669Y113919D02*
X314089Y114339D01*
X312647Y112897D02*
X313669Y113919D01*
X305587Y117914D02*
X310604Y112897D01*
X303543Y117914D02*
X303543Y117914D01*
Y115871D02*
X309582Y109832D01*
X309802Y109611D01*
Y107568D02*
X309803D01*
X307539Y107788D02*
X307759Y107568D01*
X301500Y113827D02*
X307539Y107788D01*
X299456Y113827D02*
Y113827D01*
Y111783D02*
X305495Y105745D01*
X305716Y105524D01*
Y103481D02*
X305716Y103481D01*
X303451Y103701D02*
X303672Y103481D01*
X297413Y109740D02*
X303451Y103701D01*
X295369Y109740D02*
X295369Y109740D01*
Y107696D02*
X301408Y101658D01*
X301628Y101437D01*
Y99394D02*
X301628Y99394D01*
X299364Y99614D02*
X299585Y99394D01*
X293326Y105653D02*
X299364Y99614D01*
X291282Y105653D02*
X291282D01*
Y103609D02*
X297321Y97571D01*
X297541Y97350D01*
Y95307D02*
X297541Y95307D01*
X295277Y95527D02*
X295498Y95307D01*
X289239Y101566D02*
X295277Y95527D01*
X287195Y101566D02*
X287195Y101566D01*
Y99522D02*
X293234Y93484D01*
X293454Y93263D01*
X291190Y91440D02*
X291411Y91220D01*
X285152Y97479D02*
X291190Y91440D01*
X283108Y97479D02*
X283108Y97479D01*
Y95435D02*
X288125Y90418D01*
X301500Y84611D02*
X322889Y106000D01*
X301500Y47750D02*
Y84611D01*
D101*
X612300Y251500D02*
D03*
Y276900D02*
D03*
Y302300D02*
D03*
Y327700D02*
D03*
Y378500D02*
D03*
Y403900D02*
D03*
Y429050D02*
D03*
X637700Y302300D02*
D03*
Y276900D02*
D03*
Y251500D02*
D03*
Y429300D02*
D03*
Y403900D02*
D03*
D105*
X79000Y370500D02*
D03*
X89004Y370268D02*
D03*
X99005D02*
D03*
X272250Y117750D02*
D03*
X169250Y350500D02*
D03*
X325250Y40000D02*
D03*
X330016Y41502D02*
D03*
X339750Y102750D02*
D03*
X343250Y106000D02*
D03*
X330766Y111255D02*
D03*
X339750Y111250D02*
D03*
X335250D02*
D03*
X424000Y74500D02*
D03*
X396500Y268000D02*
D03*
X168000Y314000D02*
D03*
X256702Y271530D02*
D03*
X143000Y345000D02*
D03*
X39000Y350500D02*
D03*
X169750Y238500D02*
D03*
X273000Y345000D02*
D03*
X609111Y122750D02*
D03*
X613500D02*
D03*
X240702Y175519D02*
D03*
X248702Y183520D02*
D03*
Y167518D02*
D03*
X604722Y122750D02*
D03*
X403000Y228500D02*
D03*
X248702Y159517D02*
D03*
X336702Y319500D02*
D03*
X339750Y323750D02*
D03*
X534250Y472750D02*
D03*
X529750Y481250D02*
D03*
X525250D02*
D03*
X520750D02*
D03*
X328702Y183520D02*
D03*
X320702D02*
D03*
X312702D02*
D03*
X304702D02*
D03*
Y175519D02*
D03*
X288702Y183520D02*
D03*
X352702Y191521D02*
D03*
X459000Y74500D02*
D03*
X429000D02*
D03*
X434000D02*
D03*
X439000D02*
D03*
X265750Y41250D02*
D03*
X214500Y82500D02*
D03*
X219011Y82504D02*
D03*
X223500Y82500D02*
D03*
X228000D02*
D03*
X232500D02*
D03*
X609000Y55500D02*
D03*
X614000D02*
D03*
X266500Y66750D02*
D03*
X312702Y255528D02*
D03*
X252000Y80250D02*
D03*
X326000Y74500D02*
D03*
X330500D02*
D03*
X264763Y247512D02*
D03*
X336702Y167518D02*
D03*
X328702D02*
D03*
X316500Y47750D02*
D03*
X277500Y85000D02*
D03*
X29000Y350500D02*
D03*
Y360500D02*
D03*
X59000Y370500D02*
D03*
X39000Y320500D02*
D03*
X59000D02*
D03*
X200010Y240012D02*
D03*
X188759Y279764D02*
D03*
X188750Y284250D02*
D03*
X240702Y263529D02*
D03*
X248702Y271530D02*
D03*
X188750Y275250D02*
D03*
Y265250D02*
D03*
Y260750D02*
D03*
Y293250D02*
D03*
Y288750D02*
D03*
X248702Y263529D02*
D03*
X337267Y176009D02*
D03*
X474000Y55500D02*
D03*
X479000D02*
D03*
X484000D02*
D03*
X469000D02*
D03*
X295000Y358000D02*
D03*
X336702Y199522D02*
D03*
X320702Y175519D02*
D03*
X391667Y286874D02*
D03*
X385500Y285250D02*
D03*
X271500Y47750D02*
D03*
X261500D02*
D03*
X251500D02*
D03*
X336702Y231525D02*
D03*
X194441Y213438D02*
D03*
X197010Y209800D02*
D03*
X559000Y55500D02*
D03*
X504000D02*
D03*
X499000D02*
D03*
X494000D02*
D03*
X489000D02*
D03*
X454000Y74500D02*
D03*
X449000D02*
D03*
X444000D02*
D03*
X264513Y199260D02*
D03*
X269500Y74750D02*
D03*
X301500Y47750D02*
D03*
X341500D02*
D03*
X276500Y66750D02*
D03*
X219761Y448522D02*
D03*
X180509Y464023D02*
D03*
X171750Y448750D02*
D03*
X263250Y345000D02*
D03*
X277500D02*
D03*
X268250D02*
D03*
X344702Y199522D02*
D03*
X272702Y263529D02*
D03*
X280702Y271530D02*
D03*
X288702D02*
D03*
Y263529D02*
D03*
X248702Y239526D02*
D03*
X240702Y223524D02*
D03*
Y247527D02*
D03*
X89000Y340500D02*
D03*
X165500Y336524D02*
D03*
X305317Y262913D02*
D03*
X304086Y272146D02*
D03*
X227750Y488750D02*
D03*
X235750Y480750D02*
D03*
X227750Y456750D02*
D03*
X179750Y488750D02*
D03*
Y480750D02*
D03*
X89000Y330500D02*
D03*
X59000D02*
D03*
X39000D02*
D03*
X49000Y340500D02*
D03*
X99000D02*
D03*
Y350500D02*
D03*
X89000D02*
D03*
X59000D02*
D03*
X49000D02*
D03*
X39000Y360500D02*
D03*
X49000D02*
D03*
X59000D02*
D03*
X89000D02*
D03*
X69000Y370500D02*
D03*
X336702Y223524D02*
D03*
X328702Y255528D02*
D03*
X256702Y207523D02*
D03*
X344702D02*
D03*
X256702Y199522D02*
D03*
X344702Y239526D02*
D03*
X264702Y255528D02*
D03*
X256702Y247527D02*
D03*
X344702D02*
D03*
X248702Y223524D02*
D03*
Y207523D02*
D03*
X352702D02*
D03*
Y231525D02*
D03*
X312702Y271530D02*
D03*
X248702Y199522D02*
D03*
X352702D02*
D03*
X256702Y255528D02*
D03*
X264702Y263529D02*
D03*
X248702Y191521D02*
D03*
Y247527D02*
D03*
X272702Y271530D02*
D03*
X328702D02*
D03*
X240702Y207523D02*
D03*
X248702Y255528D02*
D03*
X352702D02*
D03*
X336702Y271530D02*
D03*
X240702Y199522D02*
D03*
X360702Y239526D02*
D03*
X240702Y191521D02*
D03*
X360702Y247527D02*
D03*
X272702Y279531D02*
D03*
X240702Y183520D02*
D03*
X264702Y159517D02*
D03*
M02*
