G04*
G04 #@! TF.GenerationSoftware,Altium Limited,Altium Designer,19.0.11 (319)*
G04*
G04 Layer_Color=8421504*
%FSLAX44Y44*%
%MOMM*%
G71*
G01*
G75*
%ADD19R,0.9300X1.2300*%
G04:AMPARAMS|DCode=20|XSize=1mm|YSize=0.5mm|CornerRadius=0.125mm|HoleSize=0mm|Usage=FLASHONLY|Rotation=90.000|XOffset=0mm|YOffset=0mm|HoleType=Round|Shape=RoundedRectangle|*
%AMROUNDEDRECTD20*
21,1,1.0000,0.2500,0,0,90.0*
21,1,0.7500,0.5000,0,0,90.0*
1,1,0.2500,0.1250,0.3750*
1,1,0.2500,0.1250,-0.3750*
1,1,0.2500,-0.1250,-0.3750*
1,1,0.2500,-0.1250,0.3750*
%
%ADD20ROUNDEDRECTD20*%
%ADD21R,0.9000X1.0000*%
%ADD22O,1.5500X0.6000*%
G04:AMPARAMS|DCode=23|XSize=2.4mm|YSize=5mm|CornerRadius=0.6mm|HoleSize=0mm|Usage=FLASHONLY|Rotation=0.000|XOffset=0mm|YOffset=0mm|HoleType=Round|Shape=RoundedRectangle|*
%AMROUNDEDRECTD23*
21,1,2.4000,3.8000,0,0,0.0*
21,1,1.2000,5.0000,0,0,0.0*
1,1,1.2000,0.6000,-1.9000*
1,1,1.2000,-0.6000,-1.9000*
1,1,1.2000,-0.6000,1.9000*
1,1,1.2000,0.6000,1.9000*
%
%ADD23ROUNDEDRECTD23*%
%ADD24R,0.8500X0.9500*%
%ADD25R,1.0000X0.9000*%
%ADD26R,0.7500X1.4000*%
%ADD27R,1.2000X1.0000*%
%ADD28R,0.9500X0.8500*%
%ADD29R,0.4900X0.7600*%
%ADD30R,0.1800X0.4800*%
%ADD31R,0.8000X0.9000*%
%ADD32C,0.5000*%
%ADD33R,0.8020X0.9720*%
%ADD34R,1.1000X0.6000*%
%ADD35R,0.3000X1.2000*%
%ADD36R,2.4000X2.4000*%
%ADD37R,0.3000X1.4000*%
%ADD38R,2.6500X2.3000*%
%ADD39R,1.4000X0.9000*%
%ADD40R,1.0000X0.7000*%
%ADD41R,1.4000X1.2000*%
%ADD42R,1.1500X1.2000*%
%ADD43R,0.7000X1.0000*%
%ADD44O,1.0500X0.4500*%
%ADD45C,0.4000*%
%ADD46C,0.4100*%
%ADD47R,1.8000X1.2000*%
%ADD48R,1.9000X1.8000*%
G04:AMPARAMS|DCode=49|XSize=1.6mm|YSize=1.4mm|CornerRadius=0.35mm|HoleSize=0mm|Usage=FLASHONLY|Rotation=0.000|XOffset=0mm|YOffset=0mm|HoleType=Round|Shape=RoundedRectangle|*
%AMROUNDEDRECTD49*
21,1,1.6000,0.7000,0,0,0.0*
21,1,0.9000,1.4000,0,0,0.0*
1,1,0.7000,0.4500,-0.3500*
1,1,0.7000,-0.4500,-0.3500*
1,1,0.7000,-0.4500,0.3500*
1,1,0.7000,0.4500,0.3500*
%
%ADD49ROUNDEDRECTD49*%
%ADD50O,0.4000X1.3500*%
D19*
X351450Y455550D02*
D03*
Y441250D02*
D03*
Y426950D02*
D03*
X362750Y455550D02*
D03*
Y441250D02*
D03*
Y426950D02*
D03*
X374050Y455550D02*
D03*
Y441250D02*
D03*
Y426950D02*
D03*
D20*
X383750Y127250D02*
D03*
X376750Y127500D02*
D03*
X390750D02*
D03*
X376750Y139500D02*
D03*
X383750Y139500D02*
D03*
X390750D02*
D03*
D21*
X389250Y194250D02*
D03*
X375750D02*
D03*
X210250Y265750D02*
D03*
X223750D02*
D03*
X389250Y178750D02*
D03*
X375750D02*
D03*
X223702Y234275D02*
D03*
X210202D02*
D03*
X223702Y218525D02*
D03*
X210202D02*
D03*
X223702Y202775D02*
D03*
X210202D02*
D03*
X223702Y187025D02*
D03*
X210202D02*
D03*
X375750Y210000D02*
D03*
X389250D02*
D03*
X375750Y225750D02*
D03*
X389250D02*
D03*
X375750Y241500D02*
D03*
X389250D02*
D03*
X244000Y340500D02*
D03*
X230500D02*
D03*
X184000Y228750D02*
D03*
X170500D02*
D03*
X266500Y420750D02*
D03*
X280000D02*
D03*
X266500Y436500D02*
D03*
X280000D02*
D03*
X266500Y452250D02*
D03*
X280000D02*
D03*
X266500Y468000D02*
D03*
X280000D02*
D03*
X266500Y483750D02*
D03*
X280000D02*
D03*
X78250Y276500D02*
D03*
X91750D02*
D03*
X64750Y407250D02*
D03*
X78250D02*
D03*
X34250Y276500D02*
D03*
X20750D02*
D03*
X132000Y453000D02*
D03*
X118500D02*
D03*
X390950Y478150D02*
D03*
X377450D02*
D03*
X136500Y216750D02*
D03*
X123000D02*
D03*
X328750Y381250D02*
D03*
X342250D02*
D03*
D22*
X238500Y357950D02*
D03*
Y370650D02*
D03*
Y383350D02*
D03*
Y396050D02*
D03*
X184500Y357950D02*
D03*
Y370650D02*
D03*
Y383350D02*
D03*
Y396050D02*
D03*
D23*
X211500Y377000D02*
D03*
D24*
X139500Y200000D02*
D03*
X152500D02*
D03*
X111250D02*
D03*
X124250D02*
D03*
X62750Y276500D02*
D03*
X49750D02*
D03*
X300250Y381250D02*
D03*
X313250D02*
D03*
X389000Y163000D02*
D03*
X376000D02*
D03*
X389000Y273000D02*
D03*
X376000D02*
D03*
Y257250D02*
D03*
X389000D02*
D03*
X223500Y250000D02*
D03*
X210500D02*
D03*
X49250Y407250D02*
D03*
X36250D02*
D03*
X75000Y453000D02*
D03*
X62000D02*
D03*
X102750D02*
D03*
X89750D02*
D03*
X347450Y478150D02*
D03*
X334450D02*
D03*
X91000Y256500D02*
D03*
X78000D02*
D03*
X135500Y235750D02*
D03*
X122500D02*
D03*
D25*
X395000Y349000D02*
D03*
Y335500D02*
D03*
X345726Y349000D02*
D03*
Y335500D02*
D03*
X395202Y294775D02*
D03*
Y308275D02*
D03*
X237452Y308525D02*
D03*
Y295025D02*
D03*
X347952Y295025D02*
D03*
Y308525D02*
D03*
X332202Y295025D02*
D03*
Y308525D02*
D03*
X300452Y295025D02*
D03*
Y308525D02*
D03*
X284702Y295025D02*
D03*
Y308525D02*
D03*
X268952Y295275D02*
D03*
Y308775D02*
D03*
X264000Y143250D02*
D03*
Y129750D02*
D03*
X279750Y143250D02*
D03*
Y129750D02*
D03*
X295500Y143250D02*
D03*
Y129750D02*
D03*
X311250Y143250D02*
D03*
Y129750D02*
D03*
X326750Y143250D02*
D03*
Y129750D02*
D03*
X357250Y143250D02*
D03*
Y129750D02*
D03*
X248250Y143250D02*
D03*
Y129750D02*
D03*
X143000Y308000D02*
D03*
Y294500D02*
D03*
X149000Y476500D02*
D03*
Y490000D02*
D03*
Y460500D02*
D03*
Y447000D02*
D03*
X30000Y438750D02*
D03*
Y452250D02*
D03*
X153750Y230750D02*
D03*
Y217250D02*
D03*
X78000Y186500D02*
D03*
Y200000D02*
D03*
X146750Y62250D02*
D03*
Y75750D02*
D03*
X253202Y295275D02*
D03*
Y308775D02*
D03*
X363702Y294775D02*
D03*
Y308275D02*
D03*
X379452Y294775D02*
D03*
Y308275D02*
D03*
X342250Y143250D02*
D03*
Y129750D02*
D03*
D26*
X377476Y340750D02*
D03*
X362976D02*
D03*
D27*
X325976Y337000D02*
D03*
X308976D02*
D03*
X325976Y363000D02*
D03*
X308976D02*
D03*
D28*
X316202Y308025D02*
D03*
Y295025D02*
D03*
X221702Y308025D02*
D03*
Y295025D02*
D03*
X143000Y336500D02*
D03*
Y323500D02*
D03*
Y364250D02*
D03*
Y351250D02*
D03*
X159250Y364250D02*
D03*
Y351250D02*
D03*
Y323500D02*
D03*
Y336500D02*
D03*
X46250Y452250D02*
D03*
Y439250D02*
D03*
X170500Y199500D02*
D03*
Y212500D02*
D03*
X190500Y165500D02*
D03*
Y178500D02*
D03*
X194250Y62500D02*
D03*
Y75500D02*
D03*
X178500Y62500D02*
D03*
Y75500D02*
D03*
X162750Y62500D02*
D03*
Y75500D02*
D03*
X131000Y62500D02*
D03*
Y75500D02*
D03*
X115250Y62500D02*
D03*
Y75500D02*
D03*
X99500Y62500D02*
D03*
Y75500D02*
D03*
X41750Y73750D02*
D03*
Y86750D02*
D03*
X25750Y73750D02*
D03*
Y86750D02*
D03*
X9750Y86750D02*
D03*
Y73750D02*
D03*
X95250Y178500D02*
D03*
Y165500D02*
D03*
X75750Y150500D02*
D03*
Y137500D02*
D03*
D29*
X503950Y477000D02*
D03*
X555550D02*
D03*
X503950Y152750D02*
D03*
X555550D02*
D03*
D30*
X522750Y466400D02*
D03*
Y487600D02*
D03*
X526250Y466400D02*
D03*
Y487600D02*
D03*
X529750Y466400D02*
D03*
Y487600D02*
D03*
X533250Y466400D02*
D03*
Y487600D02*
D03*
X536750Y466400D02*
D03*
Y487600D02*
D03*
X522750Y142150D02*
D03*
Y163350D02*
D03*
X526250Y142150D02*
D03*
Y163350D02*
D03*
X529750Y142150D02*
D03*
Y163350D02*
D03*
X533250Y142150D02*
D03*
Y163350D02*
D03*
X536750Y142150D02*
D03*
Y163350D02*
D03*
D31*
X67500Y63750D02*
D03*
X58000Y83750D02*
D03*
X77000D02*
D03*
D32*
X103000Y376500D02*
D03*
Y366500D02*
D03*
Y356500D02*
D03*
Y346500D02*
D03*
Y336500D02*
D03*
Y326500D02*
D03*
Y316500D02*
D03*
Y306500D02*
D03*
X93000Y376500D02*
D03*
Y366500D02*
D03*
Y356500D02*
D03*
Y346500D02*
D03*
Y336500D02*
D03*
Y326500D02*
D03*
Y316500D02*
D03*
Y306500D02*
D03*
X83000Y376500D02*
D03*
Y366500D02*
D03*
Y356500D02*
D03*
Y346500D02*
D03*
Y336500D02*
D03*
Y326500D02*
D03*
Y316500D02*
D03*
Y306500D02*
D03*
X73000Y376500D02*
D03*
Y366500D02*
D03*
Y356500D02*
D03*
Y346500D02*
D03*
Y336500D02*
D03*
Y326500D02*
D03*
Y316500D02*
D03*
Y306500D02*
D03*
X63000Y376500D02*
D03*
Y366500D02*
D03*
Y356500D02*
D03*
Y346500D02*
D03*
Y336500D02*
D03*
Y326500D02*
D03*
Y316500D02*
D03*
Y306500D02*
D03*
X53000Y376500D02*
D03*
Y366500D02*
D03*
Y356500D02*
D03*
Y346500D02*
D03*
Y336500D02*
D03*
Y326500D02*
D03*
Y316500D02*
D03*
Y306500D02*
D03*
X43000Y376500D02*
D03*
Y366500D02*
D03*
Y356500D02*
D03*
Y346500D02*
D03*
Y336500D02*
D03*
Y326500D02*
D03*
Y316500D02*
D03*
Y306500D02*
D03*
X33000Y376500D02*
D03*
Y366500D02*
D03*
Y356500D02*
D03*
Y346500D02*
D03*
Y336500D02*
D03*
Y326500D02*
D03*
Y316500D02*
D03*
Y306500D02*
D03*
D33*
X124750Y183100D02*
D03*
X134250Y165400D02*
D03*
X115250D02*
D03*
X170500Y183100D02*
D03*
X151500D02*
D03*
X161000Y165400D02*
D03*
D34*
X106000Y235750D02*
D03*
Y216750D02*
D03*
X78000D02*
D03*
Y226250D02*
D03*
Y235750D02*
D03*
D35*
X419000Y65000D02*
D03*
X424000D02*
D03*
X429000D02*
D03*
X434000D02*
D03*
X439000D02*
D03*
X444000D02*
D03*
X449000D02*
D03*
X454000D02*
D03*
X459000D02*
D03*
X464000D02*
D03*
X469000D02*
D03*
X474000D02*
D03*
X479000D02*
D03*
X484000D02*
D03*
X489000D02*
D03*
X494000D02*
D03*
X499000D02*
D03*
X504000D02*
D03*
X509000D02*
D03*
X514000D02*
D03*
X519000D02*
D03*
X524000D02*
D03*
X529000D02*
D03*
X534000D02*
D03*
X539000D02*
D03*
X544000D02*
D03*
X549000D02*
D03*
X554000D02*
D03*
X559000D02*
D03*
X564000D02*
D03*
X569000D02*
D03*
X574000D02*
D03*
X579000D02*
D03*
X584000D02*
D03*
X589000D02*
D03*
X594000D02*
D03*
X599000D02*
D03*
X604000D02*
D03*
X609000D02*
D03*
X614000D02*
D03*
D36*
X398000Y38000D02*
D03*
X635000D02*
D03*
D37*
X346500Y57250D02*
D03*
X341500D02*
D03*
X241500D02*
D03*
X246500D02*
D03*
X251500D02*
D03*
X256500D02*
D03*
X261500D02*
D03*
X266500D02*
D03*
X271500D02*
D03*
X276500D02*
D03*
X281500D02*
D03*
X286500D02*
D03*
X291500D02*
D03*
X296500D02*
D03*
X301500D02*
D03*
X306500D02*
D03*
X311500D02*
D03*
X316500D02*
D03*
X321500D02*
D03*
X326500D02*
D03*
X331500D02*
D03*
X336500D02*
D03*
D38*
X223750Y44750D02*
D03*
X364250D02*
D03*
D39*
X198750Y93500D02*
D03*
D40*
X200750Y105000D02*
D03*
D41*
X198750Y116500D02*
D03*
D42*
X94500Y95000D02*
D03*
Y120900D02*
D03*
D43*
X105250Y131400D02*
D03*
X116250D02*
D03*
X127250D02*
D03*
X138250D02*
D03*
X149250D02*
D03*
X160250D02*
D03*
X171250D02*
D03*
X182250D02*
D03*
D44*
X334550Y460300D02*
D03*
Y447600D02*
D03*
Y434900D02*
D03*
Y422200D02*
D03*
X390950Y460300D02*
D03*
Y447600D02*
D03*
Y434900D02*
D03*
Y422200D02*
D03*
D45*
X356702Y275531D02*
D03*
Y267530D02*
D03*
Y259529D02*
D03*
Y251528D02*
D03*
Y243527D02*
D03*
Y235526D02*
D03*
Y227525D02*
D03*
Y219524D02*
D03*
Y211523D02*
D03*
Y203522D02*
D03*
Y195521D02*
D03*
Y187520D02*
D03*
Y179519D02*
D03*
Y171518D02*
D03*
Y163517D02*
D03*
X348702Y275531D02*
D03*
Y267530D02*
D03*
Y259529D02*
D03*
Y251528D02*
D03*
Y243527D02*
D03*
Y235526D02*
D03*
Y227525D02*
D03*
Y219524D02*
D03*
Y211523D02*
D03*
Y203522D02*
D03*
Y195521D02*
D03*
Y187520D02*
D03*
Y179519D02*
D03*
Y171518D02*
D03*
Y163517D02*
D03*
X340702Y275531D02*
D03*
Y267530D02*
D03*
Y259529D02*
D03*
Y251528D02*
D03*
Y243527D02*
D03*
Y235526D02*
D03*
Y227525D02*
D03*
Y219524D02*
D03*
Y211523D02*
D03*
Y203522D02*
D03*
Y195521D02*
D03*
Y187520D02*
D03*
Y179519D02*
D03*
Y171518D02*
D03*
Y163517D02*
D03*
X332702Y275531D02*
D03*
Y267530D02*
D03*
Y259529D02*
D03*
Y251528D02*
D03*
Y243527D02*
D03*
Y235526D02*
D03*
Y227525D02*
D03*
Y219524D02*
D03*
Y211523D02*
D03*
Y203522D02*
D03*
Y195521D02*
D03*
Y187520D02*
D03*
Y179519D02*
D03*
Y171518D02*
D03*
Y163517D02*
D03*
X324702Y275531D02*
D03*
Y267530D02*
D03*
Y259529D02*
D03*
Y251528D02*
D03*
Y243527D02*
D03*
Y235526D02*
D03*
Y227525D02*
D03*
Y219524D02*
D03*
Y211523D02*
D03*
Y203522D02*
D03*
Y195521D02*
D03*
Y187520D02*
D03*
Y179519D02*
D03*
Y171518D02*
D03*
Y163517D02*
D03*
X316702Y275531D02*
D03*
Y267530D02*
D03*
Y259529D02*
D03*
Y251528D02*
D03*
Y243527D02*
D03*
Y235526D02*
D03*
Y227525D02*
D03*
Y219524D02*
D03*
Y211523D02*
D03*
Y203522D02*
D03*
Y195521D02*
D03*
Y187520D02*
D03*
Y179519D02*
D03*
Y171518D02*
D03*
Y163517D02*
D03*
X308702Y275531D02*
D03*
Y267530D02*
D03*
Y259529D02*
D03*
Y251528D02*
D03*
Y243527D02*
D03*
Y235526D02*
D03*
Y203522D02*
D03*
Y195521D02*
D03*
Y187520D02*
D03*
Y179519D02*
D03*
Y171518D02*
D03*
Y163517D02*
D03*
X300702Y275531D02*
D03*
Y267530D02*
D03*
Y259529D02*
D03*
Y251528D02*
D03*
Y243527D02*
D03*
Y235526D02*
D03*
Y203522D02*
D03*
Y195521D02*
D03*
Y187520D02*
D03*
Y179519D02*
D03*
Y171518D02*
D03*
Y163517D02*
D03*
X292702Y275531D02*
D03*
Y267530D02*
D03*
Y259529D02*
D03*
Y251528D02*
D03*
Y243527D02*
D03*
Y235526D02*
D03*
Y203522D02*
D03*
Y195521D02*
D03*
Y187520D02*
D03*
Y179519D02*
D03*
Y171518D02*
D03*
Y163517D02*
D03*
X284702Y275531D02*
D03*
Y267530D02*
D03*
Y259529D02*
D03*
Y251528D02*
D03*
Y243527D02*
D03*
Y235526D02*
D03*
Y227525D02*
D03*
Y219524D02*
D03*
Y211523D02*
D03*
Y203522D02*
D03*
Y195521D02*
D03*
Y187520D02*
D03*
Y179519D02*
D03*
Y171518D02*
D03*
Y163517D02*
D03*
X276702Y275531D02*
D03*
Y267530D02*
D03*
Y259529D02*
D03*
Y251528D02*
D03*
Y243527D02*
D03*
Y235526D02*
D03*
Y227525D02*
D03*
Y219524D02*
D03*
Y211523D02*
D03*
Y203522D02*
D03*
Y195521D02*
D03*
Y187520D02*
D03*
Y179519D02*
D03*
Y171518D02*
D03*
Y163517D02*
D03*
X268702Y275531D02*
D03*
Y267530D02*
D03*
Y259529D02*
D03*
Y251528D02*
D03*
Y243527D02*
D03*
Y235526D02*
D03*
Y227525D02*
D03*
Y219524D02*
D03*
Y211523D02*
D03*
Y203522D02*
D03*
Y195521D02*
D03*
Y187520D02*
D03*
Y179519D02*
D03*
Y171518D02*
D03*
Y163517D02*
D03*
X260702Y275531D02*
D03*
Y267530D02*
D03*
Y259529D02*
D03*
Y251528D02*
D03*
Y243527D02*
D03*
Y235526D02*
D03*
Y227525D02*
D03*
Y219524D02*
D03*
Y211523D02*
D03*
Y203522D02*
D03*
Y195521D02*
D03*
Y187520D02*
D03*
Y179519D02*
D03*
Y171518D02*
D03*
Y163517D02*
D03*
X252702Y275531D02*
D03*
Y267530D02*
D03*
Y259529D02*
D03*
Y251528D02*
D03*
Y243527D02*
D03*
Y235526D02*
D03*
Y227525D02*
D03*
Y219524D02*
D03*
Y211523D02*
D03*
Y203522D02*
D03*
Y195521D02*
D03*
Y187520D02*
D03*
Y179519D02*
D03*
Y171518D02*
D03*
Y163517D02*
D03*
X244702Y275531D02*
D03*
Y267530D02*
D03*
Y259529D02*
D03*
Y251528D02*
D03*
Y243527D02*
D03*
Y235526D02*
D03*
Y227525D02*
D03*
Y219524D02*
D03*
Y211523D02*
D03*
Y203522D02*
D03*
Y195521D02*
D03*
Y187520D02*
D03*
Y179519D02*
D03*
Y171518D02*
D03*
Y163517D02*
D03*
D46*
X239750Y420750D02*
D03*
X231750D02*
D03*
X223750D02*
D03*
X191750D02*
D03*
X183750D02*
D03*
X175750D02*
D03*
X239750Y428750D02*
D03*
X231750D02*
D03*
X223750D02*
D03*
X191750D02*
D03*
X183750D02*
D03*
X175750D02*
D03*
X239750Y436750D02*
D03*
X231750D02*
D03*
X223750D02*
D03*
X191750D02*
D03*
X183750D02*
D03*
X175750D02*
D03*
X239750Y444750D02*
D03*
X231750D02*
D03*
X223750D02*
D03*
X191750D02*
D03*
X183750D02*
D03*
X175750D02*
D03*
X239750Y452750D02*
D03*
X231750D02*
D03*
X223750D02*
D03*
X191750D02*
D03*
X183750D02*
D03*
X175750D02*
D03*
X239750Y460750D02*
D03*
X231750D02*
D03*
X223750D02*
D03*
X191750D02*
D03*
X183750D02*
D03*
X175750D02*
D03*
X239750Y468750D02*
D03*
X231750D02*
D03*
X223750D02*
D03*
X191750D02*
D03*
X183750D02*
D03*
X175750D02*
D03*
X239750Y476750D02*
D03*
X231750D02*
D03*
X223750D02*
D03*
X191750D02*
D03*
X183750D02*
D03*
X175750D02*
D03*
X239750Y484750D02*
D03*
X231750D02*
D03*
X223750D02*
D03*
X191750D02*
D03*
X183750D02*
D03*
X175750D02*
D03*
D47*
X84250Y471500D02*
D03*
Y488500D02*
D03*
X127250D02*
D03*
Y471500D02*
D03*
X14500D02*
D03*
Y488500D02*
D03*
X57500D02*
D03*
Y471500D02*
D03*
D48*
X56000Y16250D02*
D03*
X32000D02*
D03*
D49*
X76000Y40750D02*
D03*
X12000D02*
D03*
D50*
X44000Y43000D02*
D03*
X37500D02*
D03*
X31000D02*
D03*
X57000D02*
D03*
X50500D02*
D03*
M02*
